<svg xmlns="http://www.w3.org/2000/svg" width="425.348" height="475.16" viewBox="0 0 425.348 475.16"><defs><style>.a{opacity:0.8;}.b{fill:#f3f3f3;}.c{fill:#3a43d1;}.d{fill:#fd8369;}.e{fill:#fff;}.f{fill:#141633;}.g{fill:#acc7fb;}.h{fill:#fcc486;}.i{fill:#fed385;}.j{fill:#fed892;}</style></defs><g class="a" transform="translate(-770.4 -554.073)"><g transform="translate(687.1 511.073)"><rect class="b" width="373.736" height="368.395" transform="translate(109.9 43)"/><rect class="c" width="373.736" height="28.042" transform="translate(109.9 43)"/><circle class="d" cx="4.417" cy="4.417" r="4.417" transform="translate(125.205 52.964)"/><circle class="d" cx="4.417" cy="4.417" r="4.417" transform="translate(139.431 52.964)"/><circle class="d" cx="4.417" cy="4.417" r="4.417" transform="translate(153.658 52.964)"/><rect class="e" width="149.402" height="80.941" transform="translate(128.184 91.482)"/><rect class="e" width="149.402" height="80.941" transform="translate(128.184 191.632)"/><rect class="e" width="149.402" height="174.568" transform="translate(313.948 191.632)"/><rect class="f" width="205.126" height="7.807" transform="translate(303.522 97.337)"/><rect class="f" width="205.126" height="7.807" transform="translate(303.522 119.37)"/><rect class="f" width="205.126" height="7.807" transform="translate(303.522 141.403)"/><rect class="f" width="205.126" height="7.807" transform="translate(303.522 163.436)"/></g><g transform="translate(3730.217 -1110)"><path class="f" d="M206.74,353.726c.317,6.385,0,248.25,0,248.25h16.876L249.429,443.03c.326-5.153,5.031-62.122,5.031-62.122l-29.71-30.518Z" transform="translate(-3148.266 1525.652)"/><path class="f" d="M281.352,353.7s19.336,123.708,19.336,128.744S269.03,601.6,269.03,601.6H252.787L266.6,470.025,219.23,358.717" transform="translate(-3154.673 1523.954)"/><path class="g" d="M175.216,257.61c-.882,1.281-6.429,14.222-6.01,19.316.643,7.793,5.991,12.1,15.137,16.832,2.63,0,5.435-30.377,5.435-30.377l-8.226-5.771Z" transform="translate(-3129.001 1573.244)"/><path class="h" d="M197.126,188.22c-12.317,9.517-22.764,28.248-20.733,31.7.974,1.612,6.049,4.486,11.845,7.1" transform="translate(-3132.568 1608.838)"/><path class="g" d="M27.338,0c15.1,0,27.338,9.642,27.338,21.537S42.436,43.074,27.338,43.074,0,33.431,0,21.537,12.239,0,27.338,0Z" transform="translate(-2933.473 1762.665) rotate(-76.27)"/><path class="i" d="M236.97,139.71c27.4,0,38.588,98.236,34.093,104.227-6.132,8.173-50,14.752-68.186,1.724C195.883,240.669,194.822,139.71,236.97,139.71Z" transform="translate(-3144.393 1633.722)"/><path d="M206.74,866.95v11.606h39.64V872l-22.764-5.051" transform="translate(-3148.266 1260.677)"/><path d="M288.13,862.7v13.676h41.515v-5.318L304.392,862.7" transform="translate(-3190.016 1262.857)"/><path class="g" d="M334.457,202.456c.77.818,7.427,10.535,8.358,12.609,1.856-1.583,61.445-51.544,62.424-52.22a3.546,3.546,0,0,1,3.336-.17,2.62,2.62,0,0,1,.911,3.361c-.526.974-7.934,7.491-7.934,7.491.6.755,3.7,8.6-.263,12.278-2.693,2.508-5.747,3.341-8.684,1.787-1.948,2.109-48.519,53.575-56.643,53.575-3.76,0-16.657-13.233-22.472-23.2" transform="translate(-3203.024 1622.115)"/><path class="j" d="M272,184.814c0,16.072,12.663,38.476,17.046,38.476s26.3-16.072,26.3-19.969S298.3,170.69,283.689,170.69C277.844,170.69,272,177.022,272,184.814Z" transform="translate(-3181.741 1617.83)"/><path d="M240.992,40.077c8.4.063,23.641-16.408,23.641-17.046,0-1.461-2.591-9.181-17.626-9.181-10.739,0-27.635,7.52-27.635,32.218,0,12.717-4.973,26.3-4.973,32.437,0,9.327,7.515,15.205,19.384,15.205,5.732,0,14.353-2.825,14.353-7.461,0-6.78,6.955-28.808-6.332-33.606" transform="translate(-3152.195 1698.283)"/><path class="g" d="M265.178,79.6a4.948,4.948,0,0,1-2.674.8c-3.034,0-5.494-2.844-5.494-6.356s2.46-6.332,5.494-6.332a4.87,4.87,0,0,1,1.666.292" transform="translate(-3174.052 1670.655)"/></g></g></svg>