<svg xmlns="http://www.w3.org/2000/svg" width="59.755" height="62.769" viewBox="0 0 59.755 62.769"><defs><style>.a{fill:#8c8dc4;}.b{fill:#141215;}.c{fill:#4e59a4;}</style></defs><g transform="translate(-1712 -8392)"><g transform="translate(1712 8392)"><circle class="a" cx="11.639" cy="11.639" r="11.639" transform="translate(0)"/><path class="a" d="M299.515,237.679l-2.449-1.883h-9.478l-2.32,1.883a2.631,2.631,0,0,1-2.631-2.631V222.932a5.126,5.126,0,0,1,5.126-5.126h9.131a5.126,5.126,0,0,1,5.126,5.126v12.242A2.5,2.5,0,0,1,299.515,237.679Z" transform="translate(-243.106 -194.019)"/><g transform="translate(38.689 11.597)"><path class="b" d="M292.029,215.742a4.717,4.717,0,1,0-4.515-4.713A4.623,4.623,0,0,0,292.029,215.742Zm0-7.875A3.165,3.165,0,1,1,289,211.029,3.1,3.1,0,0,1,292.029,207.867Z" transform="translate(-281.497 -206.317)"/><path class="b" d="M302.909,235.468V222.354a5.171,5.171,0,0,0-5.052-5.27H286.894a5.17,5.17,0,0,0-5.051,5.27v13.114a2.965,2.965,0,0,0,2.9,3.022,2.776,2.776,0,0,0,1.411-.4v15.133a3.551,3.551,0,0,0,3.484,3.607,3.441,3.441,0,0,0,2.741-1.384,3.445,3.445,0,0,0,2.742,1.384,3.551,3.551,0,0,0,3.484-3.607V238.091a2.778,2.778,0,0,0,1.41.4A2.965,2.965,0,0,0,302.909,235.468Zm-5.794,17.756a2,2,0,1,1-4,0V239.766a.744.744,0,1,0-1.487,0v13.457a2,2,0,1,1-4,0V236.773h9.478Zm-4-34.589h4.739a3.649,3.649,0,0,1,3.565,3.72v13.114a1.412,1.412,0,1,1-2.821,0V223.134a.744.744,0,1,0-1.487,0v12.088h-9.478V223.134a.744.744,0,1,0-1.487,0v12.334a1.412,1.412,0,1,1-2.821,0V222.354a3.649,3.649,0,0,1,3.565-3.72h4.739" transform="translate(-281.843 -205.66)"/></g><path class="c" d="M.1,0H9.7a.1.1,0,0,1,.1.1V18.465a.982.982,0,0,1-.982.982H1.034A1.034,1.034,0,0,1,0,18.413V.1A.1.1,0,0,1,.1,0Z" transform="translate(9.714 41.777)"/><g transform="translate(4.385 11.837)"><g transform="translate(5.811)"><path class="b" d="M259.4,215.373a4.415,4.415,0,1,0-4.414-4.415A4.42,4.42,0,0,0,259.4,215.373Zm0-7.286a2.871,2.871,0,1,1-2.871,2.871A2.874,2.874,0,0,1,259.4,208.087Z" transform="translate(-254.99 -206.543)"/></g><g transform="translate(0 1.919)"><path class="b" d="M277.421,211.177a2.828,2.828,0,0,0-.836-2.016,2.918,2.918,0,0,0-4.032,0l-6.808,6.808a3.509,3.509,0,0,1-2.5,1.035h-8.8a4.937,4.937,0,0,0-4.932,4.932v13.893a2.838,2.838,0,0,0,4.167,2.52v15.626a3.421,3.421,0,0,0,6.062,2.143,3.421,3.421,0,0,0,6.062-2.143V225.19a2.8,2.8,0,0,1,.818-1.985l9.964-10.012A2.83,2.83,0,0,0,277.421,211.177Zm-13.162,42.8a1.874,1.874,0,0,1-3.748,0v-14.89a.771.771,0,1,0-1.543,0v14.89a1.873,1.873,0,0,1-3.745,0v-17.6h9.036Zm-3.8-35.427h2.789a5.043,5.043,0,0,0,3.589-1.488l6.808-6.809a1.338,1.338,0,0,1,1.849,0,1.3,1.3,0,0,1,0,1.85l-9.965,10.015a4.326,4.326,0,0,0-1.268,3.073v9.64h-9.043V222.657a.771.771,0,1,0-1.543,0v13.171a1.309,1.309,0,0,1-2.618,0V221.935a3.393,3.393,0,0,1,3.389-3.387h4.573" transform="translate(-249.513 -208.352)"/></g></g></g></g></svg>