<svg xmlns="http://www.w3.org/2000/svg" xmlns:xlink="http://www.w3.org/1999/xlink" width="67.953" height="70.82" viewBox="0 0 67.953 70.82"><defs><style>.a{fill:#fff;}.b{clip-path:url(#a);}.c{fill:#062493;}.d{fill:#ec2938;}.e{fill:#02c09d;}.f{fill:#091f3a;}</style><clipPath id="a"><rect class="a" width="30.588" height="30.588" rx="15.294"/></clipPath></defs><g transform="translate(-43 -524)"><g class="b" transform="translate(43 524)"><g transform="translate(-9.507 0.413)"><rect class="c" width="16.315" height="30.139" transform="translate(0)"/><rect class="d" width="16.67" height="30.139" transform="translate(32.932)"/><rect class="a" width="16.617" height="30.139" transform="translate(16.315)"/></g></g><g transform="translate(50.647 534.515)"><ellipse class="e" cx="3.298" cy="4.711" rx="3.298" ry="4.711" transform="translate(0.569 47.727)"/><ellipse class="e" cx="3.298" cy="4.711" rx="3.298" ry="4.711" transform="translate(53.336 47.727)"/><ellipse class="e" cx="2.356" cy="3.298" rx="2.356" ry="3.298" transform="translate(51.452 50.554)"/><ellipse class="e" cx="2.827" cy="4.038" rx="2.827" ry="4.038" transform="translate(4.338 50.016)"/><path class="f" d="M513.7,508.565c0-2.887-1.614-5.148-3.677-5.148a3.519,3.519,0,0,0-3,2.265,2.379,2.379,0,0,0-.441-.059c-1.781,0-3.177,1.938-3.177,4.413,0,2.12,1.028,3.837,2.442,4.287v.86H495.71l-5.593-8.391-2.89-11.5-1.471-32.356a.736.736,0,0,0-.736-.7h-.735v-5.148a.735.735,0,1,0-1.471,0v5.148h-.736a.735.735,0,0,0-.735.7l-1.449,32.214-2.911,11.644-5.594,8.391H461.25v-.86c1.414-.45,2.442-2.167,2.442-4.287,0-2.474-1.4-4.413-3.177-4.413a2.28,2.28,0,0,0-.44.06,3.53,3.53,0,0,0-3-2.266c-2.063,0-3.678,2.261-3.678,5.148,0,2.534,1.244,4.582,2.942,5.048v1.571h-2.206a.735.735,0,1,0,0,1.471h58.835a.735.735,0,0,0,0-1.471H510.76v-1.571C512.458,513.148,513.7,511.1,513.7,508.565Zm-3.677-3.677c1.195,0,2.206,1.683,2.206,3.677s-1.011,3.678-2.206,3.678a1.546,1.546,0,0,1-1.037-.46,4.416,4.416,0,0,1-1.169-3.218,5.338,5.338,0,0,1,.287-1.744C508.488,505.647,509.24,504.889,510.025,504.889ZM506.5,507.1c-.01.047-.007.1-.015.146a6.669,6.669,0,0,0,.921,4.94c.052.077.1.161.16.233a1.314,1.314,0,0,1-.986.562c-.907,0-1.706-1.375-1.706-2.942C504.876,508.515,505.629,507.175,506.5,507.1Zm-29.9,2.916,1.719,1.72a7.094,7.094,0,0,0-1.2,2.605l-2.043-2.043Zm1.456-2.183h4.755v1.541a6.291,6.291,0,0,0-3.482,1.293l-1.9-1.9Zm.916-2.942H480.4l-.368,1.471h-1.426Zm.732-2.942h1.428l-.367,1.471h-1.427Zm.731-2.942h1.433l-.367,1.471h-1.431Zm5.209-5.884.081,1.471h-4.351l.067-1.471Zm2.119,17.542a6.287,6.287,0,0,0-3.482-1.293V507.83h4.754l.625.937Zm-1.437-7.246-.368-1.471h1.426l.367,1.471Zm-.736-2.942-.367-1.471h1.427l.367,1.471Zm.324-4.413.367,1.471h-1.428l-.367-1.471Zm-2.369,2.3,2,8h-4Zm3.515,8-.367-1.471h1.427l.368,1.471Zm-5.895-10.3h1.439l-.367,1.471H480.8Zm2.38,14.709a4.8,4.8,0,0,1,5.076,4.412H478.474A4.8,4.8,0,0,1,483.549,510.772Zm6.425,3.566a7.094,7.094,0,0,0-1.2-2.605l1.719-1.719,1.521,2.281Zm-4.4-22.688h-1.289V463.7h.031ZM482.782,463.7h.032v27.947h-1.3Zm-20.56,46.333c0,1.567-.8,2.942-1.706,2.942a1.311,1.311,0,0,1-.986-.561,6.429,6.429,0,0,0,1.081-5.179c-.008-.046,0-.1-.015-.141C461.47,507.176,462.221,508.515,462.221,510.036Zm-7.354-1.471c0-1.994,1.01-3.677,2.207-3.677.781,0,1.535.759,1.924,1.949a5.315,5.315,0,0,1,.282,1.728,4.405,4.405,0,0,1-1.18,3.227,1.525,1.525,0,0,1-1.026.45C455.877,512.243,454.867,510.559,454.867,508.565Zm2.942,5a2.821,2.821,0,0,0,.585-.232,2.97,2.97,0,0,0,1.386,1v.854h-1.971Zm16.441-.022,1.641,1.64h-2.734Zm16.958,1.64,1.641-1.641,1.094,1.641Zm16.111,0v-.854a2.975,2.975,0,0,0,1.386-1,2.828,2.828,0,0,0,.584.231v1.619Z" transform="translate(-453.396 -456.349)"/></g></g></svg>