<svg xmlns="http://www.w3.org/2000/svg" width="76" height="76" viewBox="0 0 76 76"><defs><style>.a{fill:none;}.b{fill:#ff7381;}.c{fill:#f17280;}.d{fill:#cf525b;}.e{fill:#f195a0;}.f{fill:#ffb0ae;}.g{fill:#091f3a;}.h{fill:#ffc4be;}</style></defs><g transform="translate(-1964 -1140)"><g transform="translate(1964 1140)"><rect class="a" width="76" height="76"/></g><g transform="translate(254 -7037)"><g transform="translate(1713 8182)"><circle class="b" cx="14.094" cy="14.094" r="14.094"/><g transform="translate(14.565 10.161)"><circle class="c" cx="16.392" cy="16.392" r="16.392" transform="translate(6.637 13.951)"/><path class="d" d="M112.294,242.305l-.279,2.482,5.212,4,8.482,1.585,8.4-3.138,2.707-2.511-.564-3.027-6.056-2.286-1.541,1.978-3.159,1.444-3.9-.794-2.972-2.628-5.329,1.834Z" transform="translate(-101.357 -203.697)"/><path class="e" d="M117.7,240.506l3.4-4.043h4.868l3.346,4.041-4.7,2.786-4.475-1.136Z" transform="translate(-100.477 -204.154)"/><circle class="f" cx="5.789" cy="5.789" r="5.789" transform="translate(17.269 21.274)"/><g transform="translate(0 0)"><g transform="translate(9.693 20.136)"><path class="g" d="M137.716,246c.352-.3-.672-2.368-.975-2.72a5.07,5.07,0,0,0-1.706-1.291A21.34,21.34,0,0,0,132,240.85c-.447-.134-.9-.258-1.347-.365a3.014,3.014,0,0,1-2.272-2.193.723.723,0,0,1-.012-.087,7.871,7.871,0,0,0,2.407-5.792c0-3.822-2.573-6.492-6.257-6.492s-6.26,2.67-6.26,6.492a7.868,7.868,0,0,0,2.4,5.785c-.007.065-.015.125-.024.169a2.919,2.919,0,0,1-2.249,2.118c-.463.11-.91.233-1.36.368A20.89,20.89,0,0,0,113.994,242a5.117,5.117,0,0,0-1.635,1.213c-.31.345-1.461,2.47-1.116,2.78.161.143.181.722.379.722a18.929,18.929,0,0,0,1.989-2.381,3.443,3.443,0,0,1,1.1-.814,19.681,19.681,0,0,1,2.795-1.051c.395-.119.791-.226,1.2-.325.665,1.908,3.009,3.328,5.813,3.328s5.134-1.421,5.806-3.331c.4.1.8.207,1.2.325a19.776,19.776,0,0,1,2.8,1.051,25.443,25.443,0,0,1,2.946,2.62m-17.328-13.719c0-2.923,1.8-4.811,4.581-4.811s4.577,1.888,4.577,4.811c0,3.133-2.052,5.682-4.577,5.682S119.937,235.547,119.937,232.414Zm4.581,11.373c-2.267,0-3.916-1.132-4.267-2.291a4.482,4.482,0,0,0,1.879-2.28,5.369,5.369,0,0,0,4.773,0,4.527,4.527,0,0,0,1.88,2.255C128.439,242.643,126.787,243.787,124.518,243.787Z" transform="translate(-111.179 -225.922)"/></g><path class="g" d="M157.379,208.487H103.624a.839.839,0,0,0-.838.84v53.756a.838.838,0,0,0,.838.84h33.8a.84.84,0,0,0,0-1.679H104.464V218.007h52.077v44.236h-4.553a.84.84,0,0,0,0,1.679h5.391a.84.84,0,0,0,.842-.84V209.327A.841.841,0,0,0,157.379,208.487Zm-.838,7.839H104.464v-6.159h52.077Z" transform="translate(-102.786 -208.487)"/><g transform="translate(48.376 3.932)"><path class="g" d="M145.514,213.562a.839.839,0,0,0,.594-.247.858.858,0,0,0,.247-.594.836.836,0,0,0-1.434-.594.85.85,0,0,0-.246.594.867.867,0,0,0,.246.594A.858.858,0,0,0,145.514,213.562Z" transform="translate(-144.674 -211.892)"/></g><g transform="translate(43.896 3.922)"><path class="g" d="M141.635,213.563a.84.84,0,1,0-.84-.841A.84.84,0,0,0,141.635,213.563Z" transform="translate(-140.795 -211.883)"/></g><g transform="translate(39.418 3.933)"><path class="g" d="M137.755,213.562a.839.839,0,0,0,.594-.247.854.854,0,0,0,.248-.594.837.837,0,0,0-.248-.594.868.868,0,0,0-1.187,0,.842.842,0,0,0,0,1.187A.86.86,0,0,0,137.755,213.562Z" transform="translate(-136.917 -211.893)"/></g><g transform="translate(5.952 13.794)"><path class="g" d="M140.263,245.165a17.135,17.135,0,1,0-7.588,7.588l7.748,7.747a5.365,5.365,0,1,0,7.588-7.587Zm-15.243,7.742a15.4,15.4,0,1,1,15.4-15.4A15.417,15.417,0,0,1,125.02,252.908Zm9.171-1.016a17.177,17.177,0,0,0,5.211-5.212l4.889,4.888-5.213,5.212Zm12.632,7.421a3.689,3.689,0,0,1-5.211,0l-1.347-1.345,5.213-5.213,1.344,1.347a3.682,3.682,0,0,1,0,5.212Z" transform="translate(-107.94 -220.431)"/></g></g><rect class="h" width="52.076" height="6.16" transform="translate(1.678 1.68)"/></g></g></g></g></svg>