<svg xmlns="http://www.w3.org/2000/svg" width="76" height="76" viewBox="0 0 76 76"><defs><style>.a{fill:none;}.b{fill:#f7bc84;}.c{fill:#ec9751;}.d{fill:#f5b35c;}.e{fill:#091f3a;}</style></defs><g transform="translate(-1962 -1715)"><g transform="translate(1962 1715)"><rect class="a" width="76" height="76"/></g><g transform="translate(255 -7028)"><circle class="b" cx="12.399" cy="12.399" r="12.399" transform="translate(1713 8746)"/><g transform="translate(1721.249 8753.495)"><circle class="b" cx="14.039" cy="14.039" r="14.039" transform="translate(13.424 14.687)"/><path class="c" d="M125.938,468.478v-13.1l9.766,6.552Z" transform="translate(-101.604 -433.619)"/><path class="d" d="M112.938,478.375h40.2v6.185l-2.022,3.822H116.389l-3.451-3.415Z" transform="translate(-105.533 -426.669)"/><g transform="translate(0 0)"><g transform="translate(6.313 17.768)"><path class="e" d="M115.7,474.229a.948.948,0,0,0,.82-1.417,19.292,19.292,0,0,1,0-19.084.947.947,0,1,0-1.645-.938,21.183,21.183,0,0,0,0,20.959A.944.944,0,0,0,115.7,474.229Z" transform="translate(-112.099 -452.313)"/></g><g transform="translate(0 14.688)"><path class="e" d="M112.113,450.072a.946.946,0,0,0-1.29.356,27.521,27.521,0,0,0,0,27.118.952.952,0,0,0,.826.478.909.909,0,0,0,.466-.125.945.945,0,0,0,.355-1.289,25.617,25.617,0,0,1,0-25.245A.948.948,0,0,0,112.113,450.072Z" transform="translate(-107.251 -449.948)"/></g><g transform="translate(44.096 17.768)"><path class="e" d="M141.591,452.437a.947.947,0,0,0-.352,1.292,19.3,19.3,0,0,1,0,19.084.946.946,0,1,0,1.643.938,21.183,21.183,0,0,0,0-20.959A.948.948,0,0,0,141.591,452.437Z" transform="translate(-141.114 -452.313)"/></g><g transform="translate(49.609 14.687)"><path class="e" d="M147.119,450.428a.948.948,0,0,0-1.649.936,25.608,25.608,0,0,1,0,25.245.947.947,0,0,0,.355,1.289.916.916,0,0,0,.467.125.952.952,0,0,0,.826-.478,27.521,27.521,0,0,0,0-27.118Z" transform="translate(-145.348 -449.947)"/></g><g transform="translate(12.627 13.889)"><path class="e" d="M116.948,464.17a14.837,14.837,0,1,0,14.836-14.836A14.853,14.853,0,0,0,116.948,464.17Zm14.836-12.944a12.944,12.944,0,1,1-12.942,12.944A12.957,12.957,0,0,1,131.784,451.226Z" transform="translate(-116.948 -449.334)"/></g><g transform="translate(23.451 20.834)"><path class="e" d="M125.774,470.345a.933.933,0,0,0,.434.107.952.952,0,0,0,.552-.178l9.679-6.946a.945.945,0,0,0,0-1.538l-9.679-6.946a.949.949,0,0,0-1.5.771V469.5A.944.944,0,0,0,125.774,470.345Zm1.38-12.886,7.109,5.1-7.109,5.1Z" transform="translate(-125.26 -454.667)"/></g><g transform="translate(6.313 44.195)"><path class="e" d="M153.454,472.607a.949.949,0,0,0-.947.949v5.364H113.992v-5.364a.947.947,0,1,0-1.893,0v11.362a6.006,6.006,0,0,0,6,6h30.3a6.006,6.006,0,0,0,6-6V473.556A.95.95,0,0,0,153.454,472.607Zm-.947,12.311a4.11,4.11,0,0,1-4.1,4.1H118.1a4.109,4.109,0,0,1-4.106-4.1v-4.1h38.515Z" transform="translate(-112.099 -472.607)"/></g><g transform="translate(16.415 55.559)"><path class="e" d="M120.805,483.229H122.7a.947.947,0,0,0,0-1.895h-1.893a.947.947,0,1,0,0,1.895Z" transform="translate(-119.857 -481.334)"/></g><g transform="translate(24.279 55.559)"><path class="e" d="M126.843,483.229h4.477a.947.947,0,1,0,0-1.895h-4.477a.947.947,0,0,0,0,1.895Z" transform="translate(-125.896 -481.334)"/></g><g transform="translate(34.725 55.559)"><path class="e" d="M134.865,483.229h1.893a.947.947,0,1,0,0-1.895h-1.893a.947.947,0,0,0,0,1.895Z" transform="translate(-133.918 -481.334)"/></g><g transform="translate(6.313)"><path class="e" d="M113.047,451.924a.946.946,0,0,0,.945-.947v-6.313a4.109,4.109,0,0,1,4.106-4.1h30.3a4.11,4.11,0,0,1,4.1,4.1v6.313a.947.947,0,0,0,1.895,0v-6.313a6.005,6.005,0,0,0-6-6H118.1a6.005,6.005,0,0,0-6,6v6.313A.947.947,0,0,0,113.047,451.924Z" transform="translate(-112.099 -438.668)"/></g><g transform="translate(22.097 5.051)"><path class="e" d="M134.007,444.442a.947.947,0,0,0,0-1.895h-8.839a.947.947,0,1,0,0,1.895Z" transform="translate(-124.22 -442.547)"/></g><g transform="translate(35.172 5.051)"><path class="e" d="M136.156,443.492a.947.947,0,1,0-.947.947A.946.946,0,0,0,136.156,443.492Z" transform="translate(-134.261 -442.547)"/></g></g></g></g></g></svg>