<svg xmlns="http://www.w3.org/2000/svg" xmlns:xlink="http://www.w3.org/1999/xlink" width="76" height="76" viewBox="0 0 76 76"><defs><style>.a{fill:#fff;}.b{fill:none;}.c{clip-path:url(#a);}.d{fill:#062493;}.e{fill:#ec2938;}.f{opacity:0.9;}.g{fill:#796eff;}.h{fill:#091f3a;}</style><clipPath id="a"><rect class="a" width="28.498" height="28.498" rx="14.249"/></clipPath></defs><g transform="translate(-170 -1369)"><g transform="translate(170 1369)"><rect class="b" width="76" height="76"/></g><g transform="translate(-3670 -4660)"><g class="c" transform="translate(3843 6033)"><g transform="translate(-8.858 0.385)"><rect class="d" width="15.201" height="28.08" transform="translate(0)"/><rect class="e" width="15.531" height="28.08" transform="translate(30.683)"/><rect class="a" width="15.482" height="28.08" transform="translate(15.201)"/></g></g><g class="f" transform="translate(3856.814 6044.578)"><path class="g" d="M678,515.412h54.43l-27.215-32.993Z" transform="translate(-677.041 -459.532)"/><g transform="translate(0 0)"><path class="h" d="M732.87,456.349a4.772,4.772,0,0,0-2.42.656c-3.42,2-6.689,2.829-9.7,2.449l-2.955-.364a3.426,3.426,0,0,0,0,6.852H732.87a4.8,4.8,0,1,0,0-9.593Zm0,8.223H717.8a2.059,2.059,0,0,1-.085-4.117l2.869.359c3.327.414,6.873-.469,10.565-2.628a3.388,3.388,0,0,1,1.726-.466,3.426,3.426,0,1,1,0,6.852Z" transform="translate(-681.481 -456.349)"/><path class="h" d="M732.407,481.779H722.13v-2.055a.685.685,0,1,0-1.37,0v2.055h-6.852v-4.8a8.914,8.914,0,0,0-8.222-8.873v-4.831a.685.685,0,1,0-1.37,0v4.831a8.914,8.914,0,0,0-8.222,8.873v4.8H689.24v-2.055a.685.685,0,1,0-1.37,0v2.055H677.592a.686.686,0,0,0-.685.685v30.149a.686.686,0,0,0,.685.685h54.816a.686.686,0,0,0,.686-.685V482.464A.687.687,0,0,0,732.407,481.779Zm-34.945-4.8a7.537,7.537,0,1,1,15.075,0v1.46l-7.157-4.771a.678.678,0,0,0-.76,0l-7.158,4.771Zm-18.406,34.944,1.277-1.532,1.277,1.532Zm2.17-2.6,1.847-2.218,1.848,2.218-1.848,2.218Zm40.219-4.36-1.848-2.218,1.848-2.218,1.848,2.218Zm2.741-1.146,1.847,2.217-1.848,2.218-1.847-2.217Zm-32-1.072,1.848-2.218,1.848,2.218-1.848,2.218Zm.955,3.29-1.848,2.217-1.848-2.217,1.848-2.218Zm17.337-7.65-1.848-2.218,1.848-2.218,1.848,2.218Zm2.741-1.146,1.848,2.218-1.848,2.217-1.848-2.217Zm-10.069-1.072L705,493.951l1.847,2.217L705,498.384Zm.953,3.289-1.847,2.218-1.848-2.217,1.848-2.218Zm3.634-2.217,1.848,2.218-1.847,2.217-1.848-2.218Zm0-2.144-1.847-2.216,1.848-2.218,1.847,2.217ZM705,491.808l-1.848-2.218L705,487.373l1.848,2.218Zm-.894,1.072-1.847,2.216-1.847-2.217,1.846-2.217Zm-2.74,3.288-1.848,2.218-1.848-2.218,1.848-2.218Zm-2.741,3.29-1.848,2.217-1.848-2.217,1.848-2.218Zm-1.848,4.361,1.847,2.217-1.847,2.218-1.848-2.217Zm.893-1.072,1.848-2.218,1.847,2.217-1.847,2.218Zm4.589,1.071,1.847,2.218-1.847,2.218-1.848-2.218Zm.893-1.072L705,500.528l1.847,2.217L705,504.963Zm4.589,1.072,1.847,2.218-1.847,2.218-1.848-2.218Zm.893-1.072,1.847-2.217,1.848,2.218-1.847,2.217Zm4.588,1.073,1.848,2.218-1.847,2.217-1.848-2.218Zm.894-1.072,1.847-2.218,1.848,2.218-1.848,2.218Zm4.589,1.072,1.847,2.218-1.847,2.217-1.848-2.217Zm0-2.143-1.848-2.218,1.848-2.218,1.848,2.218Zm-2.742-3.289-1.848-2.218,1.848-2.218,1.848,2.218Zm-2.741-3.29-1.848-2.217,1.848-2.219,1.848,2.218Zm-2.741-3.289-1.847-2.217,1.848-2.218,1.847,2.217Zm-2.74-3.288-1.848-2.218,1.848-2.218,1.848,2.218ZM705,485.23l-1.849-2.218L705,480.794l1.848,2.218Zm-.894,1.072-1.848,2.218L700.41,486.3l1.848-2.218Zm-2.741,3.289-1.847,2.217-1.848-2.218,1.847-2.217Zm-2.74,3.289-1.848,2.217-1.848-2.218,1.848-2.218Zm-2.741,3.289-1.848,2.218-1.848-2.218,1.848-2.218Zm-2.741,3.29-1.848,2.218-1.848-2.218,1.848-2.218Zm-2.741,3.289-1.848,2.218-1.848-2.218,1.847-2.218Zm-2.742,3.29-1.847,2.217-1.847-2.218,1.846-2.217Zm-3.124,5.892,1.276-1.532,1.276,1.532Zm2.169-2.6,1.848-2.217,1.847,2.217-1.847,2.217Zm3.312,2.6L691.3,510.4l1.276,1.531Zm2.169-2.6,1.848-2.217,1.847,2.217-1.847,2.217Zm3.311,2.6,1.277-1.532,1.276,1.532Zm2.17-2.6,1.848-2.217,1.847,2.217-1.847,2.217Zm3.312,2.6,1.277-1.532,1.277,1.532Zm2.17-2.6L705,507.107l1.847,2.217L705,511.541Zm3.311,2.6,1.277-1.532,1.277,1.532Zm2.17-2.6,1.848-2.217,1.847,2.217-1.847,2.217Zm3.311,2.6,1.277-1.532,1.276,1.532Zm2.17-2.6,1.847-2.217,1.848,2.217-1.848,2.217Zm3.312,2.6L718.7,510.4l1.277,1.531Zm2.17-2.6,1.848-2.217,1.847,2.217-1.848,2.218Zm3.311,2.6,1.277-1.532,1.276,1.532Zm2.169-2.6,1.848-2.218,1.848,2.218-1.848,2.218Zm3.312,2.6,1.276-1.532,1.276,1.532Zm3.333-24.667H715.414a.685.685,0,0,0,0,1.37h16.309V490H717.716a.685.685,0,0,0,0,1.37h14.007v19.347l-26.2-31.435a.714.714,0,0,0-1.054,0l-26.2,31.435V491.372h14.006a.685.685,0,0,0,0-1.37H678.277v-1.37h16.308a.685.685,0,0,0,0-1.37H678.277v-4.111h18.5a.686.686,0,0,0,.685-.686v-2.055h3.975a.685.685,0,0,0,0-1.37h-2.4L705,475.066l5.958,3.972h-2.395a.685.685,0,1,0,0,1.37h3.974v2.055a.687.687,0,0,0,.685.686h18.5Z" transform="translate(-676.907 -457.111)"/><path class="h" d="M686.2,500.057h-5.482a.686.686,0,0,0-.685.685v5.482a.686.686,0,0,0,.685.686h2.824a.685.685,0,0,0,0-1.37H681.4v-4.111h4.111v1.616a.685.685,0,1,0,1.369,0v-2.3A.686.686,0,0,0,686.2,500.057Z" transform="translate(-677.288 -461.685)"/><path class="h" d="M730.665,503.729a.687.687,0,0,0,.686-.686v-1.616h4.111v4.111h-2.139a.685.685,0,1,0,0,1.37h2.823a.687.687,0,0,0,.686-.686v-5.482a.686.686,0,0,0-.686-.685h-5.482a.686.686,0,0,0-.685.685v2.3A.686.686,0,0,0,730.665,503.729Z" transform="translate(-683.387 -461.685)"/><path class="h" d="M681.7,465.942a4.8,4.8,0,1,0-4.8-4.8A4.8,4.8,0,0,0,681.7,465.942Zm0-8.223a3.426,3.426,0,1,1-3.426,3.426A3.429,3.429,0,0,1,681.7,457.719Z" transform="translate(-676.907 -456.349)"/></g></g></g></g></svg>