<svg id="Layer_1" data-name="Layer 1" xmlns="http://www.w3.org/2000/svg" xmlns:xlink="http://www.w3.org/1999/xlink" viewBox="0 0 76 76"><defs><style>.cls-1,.cls-9{fill:none;}.cls-2{fill:#6a10af;}.cls-3{fill:#af68f2;}.cls-4{fill:#daaaff;}.cls-5{clip-path:url(#clip-path);}.cls-6{fill:#062493;}.cls-7{fill:#ec2938;}.cls-8{fill:#fff;}.cls-9{stroke:#000;stroke-linejoin:round;stroke-width:2px;}</style><clipPath id="clip-path"><rect class="cls-1" x="12.36" y="4" width="29.44" height="29.44" rx="14.72"/></clipPath></defs><title>Artboard 1</title><path class="cls-2" d="M32.57,45l-1,2.77L33.14,50l-1.82,2.2s1.74,7.38,1.82,7.19,2.6-7.79,2.6-7.79l-1.81-2.37,1.82-2.68-1.82-2.37Z"/><path class="cls-3" d="M56,55.78,50.38,59l-2.09,4.2H63.53L61.76,59Z"/><path class="cls-4" d="M55.74,67.35l-7.1-.4-.36,3H64.57L64,67.35Z"/><circle class="cls-3" cx="25.6" cy="22.48" r="16.6"/><g class="cls-5"><rect class="cls-6" x="3.21" y="4.4" width="15.7" height="29.01"/><rect class="cls-7" x="34.91" y="4.4" width="16.04" height="29.01"/><rect class="cls-8" x="18.91" y="4.4" width="15.99" height="29.01"/></g><circle class="cls-8" cx="33.42" cy="34.64" r="8.41"/><path class="cls-9" d="M33.42,43.67a9,9,0,1,1,9-9,9,9,0,0,1-9,9m9,29.33V52.69a9.06,9.06,0,0,0-9-9m0,0a9,9,0,0,0-9,9V73m9-29.33-2.25,3.38,2.25,2.26m0,0,2.26-2.26-2.26-3.38m0,5.64-2.25,2.26L33.42,64l2.26-12.41-2.26-2.26M67.27,73H42.45M24.4,73H22.14m2.26,0H42.45m22.11-3.72-.68-1.92H48.09l-.68,1.92a1.15,1.15,0,0,0,.79,1.42.93.93,0,0,0,.23,0H63.32a1.19,1.19,0,0,0,1.27-1.09A1.14,1.14,0,0,0,64.56,69.28ZM56,57.21H54.86A6.79,6.79,0,0,0,48.09,64H63.88a6.78,6.78,0,0,0-6.76-6.77H56m0,0V53.82"/><rect class="cls-1" width="76" height="76"/></svg>