<svg xmlns="http://www.w3.org/2000/svg" xmlns:xlink="http://www.w3.org/1999/xlink" width="76" height="76" viewBox="0 0 76 76"><defs><style>.a{fill:#fff;}.b,.h{fill:none;}.c{fill:#ffcfa5;}.d{clip-path:url(#a);}.e{fill:#04247b;}.f{fill:#ce142a;}.g{fill:#cb7d27;}.h{stroke:#000;stroke-linejoin:round;stroke-miterlimit:10;stroke-width:2px;}</style><clipPath id="a"><rect class="a" width="34.974" height="34.974" rx="17.487" transform="translate(0 0)"/></clipPath></defs><g transform="translate(-2853 -1627)"><g transform="translate(2853 1627)"><rect class="b" width="76" height="76"/></g><g transform="translate(-17 -18)"><circle class="c" cx="20.573" cy="20.573" r="20.573" transform="translate(2873 1652.564)"/><g class="d" transform="translate(2879.367 1649)"><g transform="translate(-10.87 0.473)"><rect class="e" width="56.714" height="34.689" transform="translate(0 0.03)"/><path class="a" d="M331.069,258.431,313.793,269.07l-33.037,20.237v3.843h6.4L337.47,262.3V258.46l-1.027-.03Z" transform="translate(-280.756 -258.431)"/><path class="a" d="M337.47,289.319,287.3,258.473h-6.547v3.959l50.405,30.73h6.309Z" transform="translate(-280.756 -258.443)"/><path class="a" d="M337.47,286.363H280.756V274.74l56.714.059Z" transform="translate(-280.756 -263.178)"/><path class="a" d="M314.123,258.473v34.69h9.452l-.048-34.69Z" transform="translate(-290.468 -258.443)"/><path class="f" d="M337.47,278.088H280.756v6.88l56.714.057Z" transform="translate(-280.756 -264.153)"/><path class="f" d="M346.99,258.431l-19,11.6h4.349l18.881-11.573-1.028-.03Z" transform="translate(-294.504 -258.431)"/><path class="f" d="M322.395,258.473l-.047,34.69h-5.624l.047-34.69Z" transform="translate(-291.225 -258.443)"/><path class="f" d="M280.756,258.473l18.835,11.553-4.206,0-14.629-9.035Z" transform="translate(-280.756 -258.443)"/><path class="f" d="M280.756,302.669l18.835-11.534H303.7l-18.668,11.534Z" transform="translate(-280.756 -267.95)"/><path class="f" d="M334.324,291.135l18.739,11.534v-2.63l-14.628-8.9Z" transform="translate(-296.348 -267.95)"/></g></g><path class="c" d="M2509.606-2541.124l-13.457,1.836-8.113,11.1-.856,7.253h52.888l-2.663-11.708-11.523-8.481Z" transform="translate(400.91 4219.838)"/><path class="g" d="M2511.757-2533.191l-14.6,1.836h-7.08l-2.9,8.525h57.388l-3.234-9.305h-11.821Z" transform="translate(398.432 4239.078)"/><path class="h" d="M57.991,48.363V52.08H1V48.363Zm0,0-1.858-4.584a2.423,2.423,0,0,0-2.354-1.611H5.212a2.541,2.541,0,0,0-2.354,1.611L1,48.363ZM3.478,34.735v3.717H55.513V34.735Zm28.5,7.434V38.451H27.018v3.717m4.956-28.5V11.195a2.478,2.478,0,1,0-4.956,0v2.478m0-7.434a2.478,2.478,0,0,0,4.956,0V5H27.018Zm28.5,28.5V32.257A18.559,18.559,0,0,0,36.929,13.673H22.062A18.559,18.559,0,0,0,3.478,32.257v2.478" transform="translate(2885.009 1664.575)"/></g></g></svg>