<svg xmlns="http://www.w3.org/2000/svg" width="42" height="42" viewBox="0 0 42 42"><defs><style>.a{fill:rgba(194,168,240,0.9);}.b,.c,.d{fill:none;stroke:#31305d;stroke-width:1.3px;}.b,.c{stroke-linecap:square;}.b,.d{stroke-miterlimit:10;}.c{stroke-linejoin:round;}</style></defs><g transform="translate(-312.057 -782.1)"><path class="a" d="M8.842,0H33.158A8.842,8.842,0,0,1,42,8.842V33.158A8.842,8.842,0,0,1,33.158,42H8.842A8.842,8.842,0,0,1,0,33.158V8.842A8.842,8.842,0,0,1,8.842,0Z" transform="translate(312.057 782.1)"/><g transform="translate(319.508 792.938)"><path class="b" d="M853.823,267.394c.726-.013,1.375.835,3.288.283a1.621,1.621,0,0,0-.893-2.336,3.4,3.4,0,0,0-3.847.526,1.936,1.936,0,0,0-.116,1.672,2.191,2.191,0,0,1,.071.283l.016.088a2.114,2.114,0,0,1,.031.317c.057,1.8,1.064,3.466,2.3,3.466,1.271,0,2.3-1.761,2.3-3.626" transform="translate(-850.014 -263.061)"/><path class="b" d="M867.86,291.515a2.495,2.495,0,0,1,1.672.64q.064.057.124.119" transform="translate(-860.856 -281.334)"/><path class="b" d="M847.86,291.515a2.5,2.5,0,0,0-2.5,2.5v3.424H849.8" transform="translate(-845.36 -281.334)"/><g transform="translate(3.2 8.419)"><line class="b" x2="0.262" y2="1.371" transform="translate(2.844 0.214)"/><line class="b" y1="1.571" x2="0.242" transform="translate(0 0)"/></g><path class="b" d="M854.467,291.511l.8,1.141a1.332,1.332,0,0,0,1.093.57h0a1.332,1.332,0,0,0,1.1-.58l.775-1.131" transform="translate(-851.632 -281.331)"/><g transform="translate(18.302 1.922)"><path class="b" d="M912.349,267.134c-.631.113-1.413,1.145-3.5.543a1.621,1.621,0,0,1,.893-2.336,3.4,3.4,0,0,1,3.847.526,1.936,1.936,0,0,1,.116,1.672,2.253,2.253,0,0,0-.072.283l-.016.088a2.138,2.138,0,0,0-.031.317c-.057,1.8-1.064,3.466-2.3,3.466-1.271,0-2.3-1.761-2.3-3.626" transform="translate(-907.246 -264.983)"/><path class="b" d="M924.386,291.511a2.5,2.5,0,0,1,2.5,2.5v3.424" transform="translate(-918.089 -283.254)"/><path class="b" d="M904.157,292.272a2.488,2.488,0,0,1,1.791-.757" transform="translate(-904.157 -283.256)"/><line class="b" x1="4.439" transform="translate(4.356 14.179)"/><g transform="translate(2.492 6.497)"><line class="b" x2="0.262" y2="1.371" transform="translate(2.844 0.214)"/><line class="b" y1="1.571" x2="0.242"/></g><path class="b" d="M910.991,291.511l.8,1.141a1.332,1.332,0,0,0,1.093.57h0a1.333,1.333,0,0,0,1.1-.58l.775-1.131" transform="translate(-908.864 -283.254)"/></g><g transform="translate(6.308)"><path class="b" d="M882.764,261.731c-.944-.311-1.863,1.642-5.078.712a2.187,2.187,0,0,1,1.206-3.152,4.584,4.584,0,0,1,5.193.71,2.7,2.7,0,0,1,.129,2.34,1.353,1.353,0,0,0-.05.2l-.064.355a.976.976,0,0,0-.015.162c-.029,2.487-1.409,4.814-3.106,4.814-1.716,0-3.107-2.378-3.107-4.9" transform="translate(-873.737 -258.808)"/><path class="b" d="M880.108,303.646H865.626v-5.22a3.807,3.807,0,0,1,3.808-3.808H876.3a3.808,3.808,0,0,1,3.807,3.808v5.106" transform="translate(-865.626 -283.472)"/><path class="c" d="M887.328,296.105l.338-1.486h-2.015l.286,1.486" transform="translate(-879.418 -283.472)"/><path class="d" d="M887.19,303.245l-.672-3.456h-1.459l-.673,3.456,1.4,1.177Z" transform="translate(-878.547 -287.032)"/><g transform="translate(5.146 8.771)"><line class="b" x2="0.203" y2="1.063" transform="translate(3.989 1.076)"/><line class="b" y1="2.121" x2="0.327"/></g></g></g></g></svg>