<svg xmlns="http://www.w3.org/2000/svg" width="76" height="76" viewBox="0 0 76 76"><defs><style>.a,.c{fill:none;}.b{fill:#92da0d;}.c,.d{stroke:#000;stroke-linecap:round;stroke-linejoin:round;stroke-miterlimit:10;stroke-width:1.5px;}.d{fill:#ffa000;}</style></defs><g transform="translate(-1469 -2811)"><g transform="translate(1469 2811)"><rect class="a" width="76" height="76"/></g><g transform="translate(1478 2816.8)"><g transform="translate(-6 -0.8)"><g transform="translate(0 0)"><circle class="b" cx="15.217" cy="15.217" r="15.217" transform="translate(0 0)"/><path class="c" d="M24.2,12.547a11.205,11.205,0,0,1,15.826,0" transform="translate(-16.896 -0.068)"/><path class="c" d="M27.1,15.329a7.165,7.165,0,0,1,10.043,0" transform="translate(-16.854 -0.011)"/><path class="c" d="M29.9,18.113a2.941,2.941,0,0,1,4.261,0" transform="translate(-16.813 0.046)"/></g><g transform="translate(68.478 33.783)"><line class="c" y2="1.014" transform="translate(0 14.203)"/><line class="c" y2="12.174"/></g><g transform="translate(8.623 33.783)"><line class="c" y1="1.014"/><line class="c" y1="12.174" transform="translate(0 3.043)"/></g><g transform="translate(12.681 24.449)"><path class="c" d="M6.5,57.286V25.836A2.512,2.512,0,0,1,9.036,23.3H55.7a2.512,2.512,0,0,1,2.536,2.536V57.286" transform="translate(-6.5 -23.3)"/><path class="c" d="M55.152,53.084A.958.958,0,0,1,54.138,54.1H10.514A.958.958,0,0,1,9.5,53.084V27.214A.958.958,0,0,1,10.514,26.2H54.138a.958.958,0,0,1,1.014,1.014Z" transform="translate(-6.457 -23.258)"/></g><path class="c" d="M61.362,63.872H3.536A2.512,2.512,0,0,1,1,61.336H1A2.512,2.512,0,0,1,3.536,58.8H61.362A2.512,2.512,0,0,1,63.9,61.336h0A2.577,2.577,0,0,1,61.362,63.872Z" transform="translate(6.101 1.664)"/><path class="c" d="M29.5,58.8v1.014a.958.958,0,0,0,1.014,1.014h3.043a.958.958,0,0,0,1.014-1.014V58.8" transform="translate(6.514 1.664)"/><path class="d" d="M37.159,44.116H27.014A.958.958,0,0,1,26,43.1V37.014A.958.958,0,0,1,27.014,36H37.159a.958.958,0,0,1,1.014,1.014V43.1A.958.958,0,0,1,37.159,44.116Z" transform="translate(6.464 1.333)"/><line class="c" x2="4.058" transform="translate(38.551 40.377)"/><line class="c" x2="4.058" transform="translate(38.551 42.406)"/><path class="c" d="M46.5,29.2h4.058a.958.958,0,0,1,1.014,1.014v4.058" transform="translate(6.761 1.235)"/></g></g></g></svg>