<svg xmlns="http://www.w3.org/2000/svg" xmlns:xlink="http://www.w3.org/1999/xlink" width="76" height="76" viewBox="0 0 76 76"><defs><style>.a{fill:#fff;}.b{fill:none;}.c{clip-path:url(#a);}.d{fill:#dd2911;}.e{fill:#fedd19;}.f{fill:#ff5466;}.g{fill:#091f3a;}</style><clipPath id="a"><rect class="a" width="30.646" height="30.646" rx="15.323" transform="translate(0 0)"/></clipPath></defs><g transform="translate(-468 -1732)"><g transform="translate(468 1732)"><rect class="b" width="76" height="76"/></g><g transform="translate(68 -1)"><g class="c" transform="translate(403 1737)"><rect class="d" width="49.696" height="30.498" transform="translate(-2.294 0)"/><g transform="translate(2.514 4.635)"><path class="e" d="M286.5,354.406h3.387l1.061-3.119,1.06,3.177h3.329l-2.71,1.916,1.119,3.09-2.768-1.888-2.77,2,1-3.175Z" transform="translate(-286.497 -349.964)"/><path class="e" d="M305.321,351.006l-1.1.228.776-.754-.6-1.038.982.458.766-.743-.117.99,1.081.44-1.1.266-.1,1.106Z" transform="translate(-293.211 -349.157)"/><path class="e" d="M308.933,355.559l.982-.459-.158-1.125.806.781,1-.477-.492.955.766.821-1.139-.192-.511.972-.138-1.067Z" transform="translate(-294.996 -350.983)"/><path class="e" d="M309.029,362.212h1.1l.3-1.144.412,1.049h1.082l-.806.611.334,1.049-.942-.59-.924.705.336-1.069Z" transform="translate(-295.033 -353.669)"/><path class="e" d="M305.351,367l.748-.84v1.107l.922.381-1.02.305v1.069l-.668-.878-1.081.267.668-.859-.549-.9Z" transform="translate(-293.223 -355.6)"/></g></g><g transform="translate(412.577 1744.661)"><path class="f" d="M22.783,10.9H6.934v-.99H0L6.934,0H47.547l6.934,9.906H47.547v.989H31.7V6.934H22.783V10.9Z" transform="translate(2.972 7.925)"/><g transform="translate(0 0)"><g transform="translate(7.553 17.622)"><path class="g" d="M685.808,401.963h-7.553a.629.629,0,0,1-.629-.629V369.865a.629.629,0,0,1,.629-.63h7.553a.629.629,0,0,1,.629.63v31.469A.629.629,0,0,1,685.808,401.963Zm-6.923-1.259h6.293v-30.21h-6.293Z" transform="translate(-677.626 -369.235)"/></g><g transform="translate(44.057 17.622)"><path class="g" d="M722.659,401.963h-7.552a.629.629,0,0,1-.629-.629V369.865a.63.63,0,0,1,.629-.63h7.552a.63.63,0,0,1,.63.63v31.469A.629.629,0,0,1,722.659,401.963Zm-6.923-1.259h6.294v-30.21h-6.294Z" transform="translate(-714.478 -369.235)"/></g><g transform="translate(5.035 49.091)"><path class="g" d="M724.805,406.039H675.714a.63.63,0,0,1-.63-.629v-3.776a.63.63,0,0,1,.63-.63h49.091a.629.629,0,0,1,.629.63v3.776A.629.629,0,0,1,724.805,406.039Zm-48.462-1.258h47.833v-2.518H676.343Z" transform="translate(-675.084 -401.004)"/></g><g transform="translate(0 52.867)"><path class="g" d="M729.794,412.369H670.631a.63.63,0,0,1-.63-.63,6.932,6.932,0,0,1,6.923-6.923H723.5a6.931,6.931,0,0,1,6.923,6.865.553.553,0,0,1,0,.058A.63.63,0,0,1,729.794,412.369Zm-58.5-1.259h57.834a5.673,5.673,0,0,0-5.63-5.035H676.924A5.673,5.673,0,0,0,671.295,411.11Z" transform="translate(-670.001 -404.816)"/></g><g transform="translate(7.553 32.727)"><path class="g" d="M685.808,390.778h-7.553a.629.629,0,0,1-.629-.629v-5.035a.629.629,0,0,1,.629-.63h7.553a.629.629,0,0,1,.629.63v5.035A.629.629,0,0,1,685.808,390.778Zm-6.923-1.258h6.293v-3.777h-6.293Z" transform="translate(-677.626 -384.484)"/></g><g transform="translate(7.553 37.762)"><path class="g" d="M685.808,394.6h-7.553a.629.629,0,0,1-.629-.629V390.2a.629.629,0,0,1,.629-.63h7.553a.629.629,0,0,1,.629.63v3.776A.629.629,0,0,1,685.808,394.6Zm-6.923-1.258h6.293v-2.518h-6.293Z" transform="translate(-677.626 -389.567)"/></g><g transform="translate(44.057 32.727)"><path class="g" d="M722.659,390.778h-7.552a.629.629,0,0,1-.629-.629v-5.035a.63.63,0,0,1,.629-.63h7.552a.63.63,0,0,1,.63.63v5.035A.629.629,0,0,1,722.659,390.778Zm-6.923-1.258h6.294v-3.777h-6.294Z" transform="translate(-714.478 -384.484)"/></g><g transform="translate(44.057 37.762)"><path class="g" d="M722.659,394.6h-7.552a.629.629,0,0,1-.629-.629V390.2a.629.629,0,0,1,.629-.63h7.552a.63.63,0,0,1,.63.63v3.776A.629.629,0,0,1,722.659,394.6Zm-6.923-1.258h6.294v-2.518h-6.294Z" transform="translate(-714.478 -389.567)"/></g><g transform="translate(8.812)"><path class="g" d="M719.177,356.48H681.414a2.518,2.518,0,0,1,0-5.035h37.763a2.518,2.518,0,0,1,0,5.035ZM681.414,352.7a1.258,1.258,0,1,0,0,2.517h37.763a1.258,1.258,0,0,0,0-2.517Z" transform="translate(-678.897 -351.445)"/></g><g transform="translate(7.553 17.622)"><path class="g" d="M695.878,375.529H678.255a.629.629,0,0,1-.629-.629v-5.035a.629.629,0,0,1,.629-.63h17.623a.629.629,0,0,1,.629.63V374.9A.629.629,0,0,1,695.878,375.529Zm-16.993-1.259h16.363v-3.776H678.885Z" transform="translate(-677.626 -369.235)"/></g><g transform="translate(1.259 7.552)"><path class="g" d="M728.545,370.4H704.629a.629.629,0,0,1-.629-.629v-3.147h-7.553v3.147a.629.629,0,0,1-.629.629H671.9a.629.629,0,0,1-.5-1.006l7.553-10.07a.63.63,0,0,1,.5-.253h41.539a.629.629,0,0,1,.5.253l7.552,10.07a.629.629,0,0,1-.5,1.006Zm-23.287-1.258h22.028l-6.608-8.812H679.769l-6.609,8.812h22.028v-3.147a.63.63,0,0,1,.63-.63h8.811a.63.63,0,0,1,.629.63v3.147Z" transform="translate(-671.272 -359.069)"/></g><g transform="translate(33.987 17.622)"><path class="g" d="M722.563,375.529H704.941a.629.629,0,0,1-.629-.629v-5.035a.629.629,0,0,1,.629-.63h17.622a.63.63,0,0,1,.63.63V374.9A.629.629,0,0,1,722.563,375.529ZM705.57,374.27h16.364v-3.776H705.57Z" transform="translate(-704.312 -369.235)"/></g><g transform="translate(25.175 13.846)"><path class="g" d="M704.857,380.528h-8.811a.629.629,0,0,1-.63-.629V366.053a.63.63,0,0,1,.63-.63h8.811a.629.629,0,0,1,.629.63V379.9A.629.629,0,0,1,704.857,380.528Zm-8.182-1.258h7.553V366.682h-7.553Z" transform="translate(-695.416 -365.423)"/></g><g transform="translate(15.105 22.657)"><path class="g" d="M700.186,386.748c-.167,0-.336,0-.5-.012-3.575-.17-7.2-2.225-10.477-5.94a30.1,30.1,0,0,1-3.886-5.56.63.63,0,0,1,1.12-.574c.053.1,5.453,10.446,13.306,10.818,4.9.232,9.8-3.425,14.555-10.869a.629.629,0,0,1,1.06.678C710.5,382.9,705.394,386.748,700.186,386.748Z" transform="translate(-685.25 -374.318)"/></g><g transform="translate(15.105 3.776)"><path class="g" d="M685.88,360.292a.629.629,0,0,1-.63-.629v-3.776a.63.63,0,1,1,1.259,0v3.776A.629.629,0,0,1,685.88,360.292Z" transform="translate(-685.25 -355.257)"/></g><g transform="translate(20.14 3.776)"><path class="g" d="M690.963,360.292a.629.629,0,0,1-.63-.629v-3.776a.63.63,0,1,1,1.259,0v3.776A.629.629,0,0,1,690.963,360.292Z" transform="translate(-690.333 -355.257)"/></g><g transform="translate(25.175 3.776)"><path class="g" d="M696.046,360.292a.629.629,0,0,1-.63-.629v-3.776a.629.629,0,1,1,1.259,0v3.776A.629.629,0,0,1,696.046,360.292Z" transform="translate(-695.416 -355.257)"/></g><g transform="translate(30.21 3.776)"><path class="g" d="M701.129,360.292a.629.629,0,0,1-.63-.629v-3.776a.629.629,0,1,1,1.259,0v3.776A.629.629,0,0,1,701.129,360.292Z" transform="translate(-700.499 -355.257)"/></g><g transform="translate(35.245 3.776)"><path class="g" d="M706.212,360.292a.629.629,0,0,1-.63-.629v-3.776a.629.629,0,1,1,1.259,0v3.776A.629.629,0,0,1,706.212,360.292Z" transform="translate(-705.582 -355.257)"/></g><g transform="translate(40.28 3.776)"><path class="g" d="M711.295,360.292a.629.629,0,0,1-.63-.629v-3.776a.63.63,0,1,1,1.259,0v3.776A.629.629,0,0,1,711.295,360.292Z" transform="translate(-710.665 -355.257)"/></g><g transform="translate(45.315 3.776)"><path class="g" d="M716.378,360.292a.629.629,0,0,1-.63-.629v-3.776a.629.629,0,1,1,1.259,0v3.776A.629.629,0,0,1,716.378,360.292Z" transform="translate(-715.748 -355.257)"/></g></g></g></g></g></svg>