<svg xmlns="http://www.w3.org/2000/svg" xmlns:xlink="http://www.w3.org/1999/xlink" width="76" height="76" viewBox="0 0 76 76"><defs><style>.a,.j{fill:#fff;}.b,.g,.h,.k{fill:none;}.c{fill:#92da0d;}.d{fill:#009b3a;}.e{clip-path:url(#a);}.f,.i{fill:#c60b1e;}.g{stroke:#fffe33;stroke-linecap:round;stroke-linejoin:round;}.h,.k{stroke:#ffff35;}.i,.j,.l{fill-rule:evenodd;}.k{stroke-miterlimit:10;}.l{fill:#3131dc;}</style><clipPath id="a"><rect class="a" width="29.407" height="29.407" rx="14.704" transform="translate(0 0)"/></clipPath></defs><g transform="translate(-301 -1915)"><g transform="translate(301 1915)"><rect class="b" width="76" height="76"/></g><g transform="translate(0 4)"><path class="c" d="M-46.193-2244.819l1.764-11.075,6.084-4.558,5.974,3.892,1.934,7.9s-.022,3.914,0,3.84S-46.193-2244.819-46.193-2244.819Z" transform="translate(397.247 4213.377)"/><path class="d" d="M-45.855-2235.507v-14.227l5.363-9.136h4.6l3.525,2.335,3.915,10.371,10.327,3.719s3.623,7.011,3.645,6.938S-45.855-2235.507-45.855-2235.507Z" transform="translate(360.824 4209.415)"/><g class="e" transform="translate(304 1914)"><g transform="translate(-4.357 0)"><rect class="d" width="16.157" height="29.407"/><rect class="f" width="33.397" height="29.407" transform="translate(16.009)"/><path class="g" d="M763.723-3224.888l-2.205.552,2.205,1.478-3.075,1.827,3.785,1.32-2.31,2.236,5.326.927" transform="translate(-751.422 3235.453)"/><line class="h" y2="13.723" transform="translate(16.052 6.984)"/><path class="g" d="M764.374-3224.888l2.205.552-2.205,1.478,3.076,1.827-3.785,1.32,2.31,2.236-5.327.927" transform="translate(-744.56 3235.453)"/><path class="i" d="M28.719,16.1H20.758v5.16h0v.074a3.984,3.984,0,1,0,7.961,0V21.26h0Z" transform="translate(-8.711 -6.187)"/><path class="j" d="M28.226,18.58H22.9v3.448h0v.055a2.666,2.666,0,0,0,5.326,0v-.055h0Z" transform="translate(-9.535 -7.14)"/><circle class="k" cx="6.81" cy="6.81" r="6.81" transform="translate(9.19 6.984)"/><path class="l" d="M24.076,18.58H22.9v.761h0v.012a.589.589,0,0,0,1.176,0v-.012h0Z" transform="translate(-7.46 -6.746)"/><path class="l" d="M24.076,18.58H22.9v.761h0v.012a.589.589,0,0,0,1.176,0v-.012h0Z" transform="translate(-7.46 -5.031)"/><path class="l" d="M24.076,18.58H22.9v.761h0v.012a.589.589,0,0,0,1.176,0v-.012h0Z" transform="translate(-7.46 -3.315)"/><path class="l" d="M24.076,18.58H22.9v.761h0v.012a.589.589,0,0,0,1.176,0v-.012h0Z" transform="translate(-8.93 -5.031)"/><path class="l" d="M24.076,18.58H22.9v.761h0v.012a.589.589,0,0,0,1.176,0v-.012h0Z" transform="translate(-7.46 -5.031)"/><path class="l" d="M24.076,18.58H22.9v.761h0v.012a.589.589,0,0,0,1.176,0v-.012h0Z" transform="translate(-5.989 -5.031)"/></g></g><path d="M65.6,44.228a4.793,4.793,0,0,0-3.465-1.447h-7.47a.906.906,0,1,0,0,1.8h7.47a3.031,3.031,0,0,1,2.2.906,3.1,3.1,0,0,1,.906,2.2,3.051,3.051,0,0,1-.906,2.2,3.15,3.15,0,0,1-2.2.9H4.921a3.1,3.1,0,0,1-2.215-.9,3.159,3.159,0,0,1-.9-2.2,3.12,3.12,0,0,1,3.11-3.11h34.3a.906.906,0,0,0,.9-.9,10.581,10.581,0,0,0-1.26-4.921H43.9a.906.906,0,0,0,.905-.9c0-7.874,3.327-14.459,7.244-14.459,1.85,0,3.6,1.447,5,4.016A21.909,21.909,0,0,1,59.3,36.964h-10.9a.906.906,0,1,0,0,1.8h15.62a.906.906,0,1,0,0-1.8H61.073a24.252,24.252,0,0,0-2.48-10.354c-1.486-2.835-3.465-4.547-5.669-4.921V17.752h1.713a.906.906,0,0,0,0-1.8H52.952v-.413a.906.906,0,0,0-1.8,0v.443H49.439a.906.906,0,0,0,0,1.8h1.742v3.937c-4.508.758-7.874,7.106-8.15,15.256H37.638a11.92,11.92,0,0,0-1.348-1.388,13.5,13.5,0,0,0-9.045-3.337,11.212,11.212,0,0,0-1.309.049c-1.122-8.248-5-13.917-9.636-13.917h0c-5.581,0-9.951,8.15-10,18.553H3.6a.906.906,0,1,0,0,1.8H6.348v.453a.9.9,0,0,0,.984.846.925.925,0,0,0,.856-.984V37.082c0-9.144,3.74-16.84,8.2-16.84,3.78,0,7.116,5.531,7.972,13.189a.984.984,0,0,0,.354.63.9.9,0,0,0,.679.177,14.419,14.419,0,0,1,1.968-.128,11.811,11.811,0,0,1,7.874,2.874A9.3,9.3,0,0,1,38.4,42.889H4.921A4.921,4.921,0,0,0,0,47.81a4.783,4.783,0,0,0,1.437,3.474,4.842,4.842,0,0,0,3.484,1.358H62.136A4.744,4.744,0,0,0,65.6,51.206a5.02,5.02,0,0,0,1.447-3.474,4.921,4.921,0,0,0-1.447-3.5Z" transform="translate(306.953 1930.5)"/><path d="M50.883,43.19H44.407a.906.906,0,0,0,0,1.8h6.476a.906.906,0,1,0,0-1.8Z" transform="translate(306.266 1930.052)"/><path d="M8.865,8.241a2.608,2.608,0,0,0,.984.669,2.953,2.953,0,0,0,1.26.276h6.732a.906.906,0,1,0,0-1.8H11.158a2.589,2.589,0,0,1-.541-.089,2.175,2.175,0,0,1-.453-.315,1.624,1.624,0,0,1-.315-.453,1.181,1.181,0,0,1-.089-.581,2.589,2.589,0,0,1,.089-.541,1.565,1.565,0,0,1,.768-.768,1.161,1.161,0,0,1,.541-.089H26.01a2.49,2.49,0,0,1,.541.089A1.5,1.5,0,0,1,27,4.954a1.624,1.624,0,0,1,.315.453,1.161,1.161,0,0,1,.089.541,2.146,2.146,0,0,1-.089.541A1.624,1.624,0,0,1,27,6.942a1.969,1.969,0,0,1-.453.315,1.142,1.142,0,0,1-.541.089H22.28a.906.906,0,1,0,0,1.8h3.73A2.953,2.953,0,0,0,27.28,8.9a4.144,4.144,0,0,0,1.033-.669,2.47,2.47,0,0,0,.669-1.043,2.972,2.972,0,0,0,0-2.5,4.144,4.144,0,0,0-.669-.984A2.628,2.628,0,0,0,27.28,3a3.12,3.12,0,0,0-1.27-.3H11.158A3.041,3.041,0,0,0,9.9,3a4.478,4.478,0,0,0-.984.679,2.53,2.53,0,0,0-.679.984A3.091,3.091,0,0,0,7.91,5.948a3.051,3.051,0,0,0,.276,1.26A2.746,2.746,0,0,0,8.865,8.241Z" transform="translate(306.828 1930.69)"/><path d="M49.406,5.63H61.384a2.776,2.776,0,0,0,1.968-.817,2.7,2.7,0,0,0,.817-1.968,2.805,2.805,0,0,0-2.785-2.8h-7.5a.906.906,0,1,0,0,1.8h7.47a.984.984,0,0,1,.984.984.886.886,0,0,1-.276.679.984.984,0,0,1-.669.266H49.455a.984.984,0,1,1,0-1.968.906.906,0,0,0,0-1.811,2.815,2.815,0,1,0,0,5.63Z" transform="translate(306.218 1930.732)"/><path d="M4.07,48.206a.906.906,0,0,0,.906.9H62.16a.906.906,0,0,0,0-1.8H4.985a.905.905,0,0,0-.915.906Z" transform="translate(306.889 1929.987)"/><path d="M33.533,20.131h2.953a2.805,2.805,0,0,0,1.968-4.774,2.707,2.707,0,0,0-1.968-.807H33.533a2.8,2.8,0,1,0,0,5.581Zm0-3.74h2.953a.886.886,0,0,1,.669.276.974.974,0,0,1-.709,1.654H33.493a.984.984,0,0,1-.984-.984A1.063,1.063,0,0,1,33.533,16.39Z" transform="translate(306.471 1930.503)"/></g></g></svg>