<svg xmlns="http://www.w3.org/2000/svg" xmlns:xlink="http://www.w3.org/1999/xlink" width="76" height="76" viewBox="0 0 76 76"><defs><style>.a{fill:#fff;}.b,.i,.j{fill:none;}.c{fill:#ae524b;}.d{clip-path:url(#a);}.e{fill:#fecd17;}.f{fill:#dc0201;}.g{fill:#e16e65;}.h{fill:#db9a95;}.i,.j{stroke:#091f3a;stroke-miterlimit:10;}.j{stroke-width:2px;}</style><clipPath id="a"><rect class="a" width="29.439" height="29.439" rx="14.719" transform="translate(0 0)"/></clipPath></defs><g transform="translate(-2570 -1989)"><g transform="translate(2570 1989)"><rect class="b" width="76" height="76"/></g><g transform="translate(0 4)"><circle class="c" cx="14.719" cy="14.719" r="14.719" transform="translate(2573 1992.6)"/><g class="d" transform="translate(2579.44 1988)"><g transform="translate(-9.15 0)"><rect width="47.739" height="9.791" transform="translate(0 0)"/><rect class="e" width="47.739" height="9.871" transform="translate(0 19.568)"/><rect class="f" width="47.739" height="9.777" transform="translate(0 9.791)"/></g></g><g transform="translate(2584.96 1999.96)"><g transform="translate(0 0.648)"><path class="c" d="M347.576,321.981c.287,2.58-.081,4.991.849,7.465s2.918,5.4,5.463,6.046c2.284.579,4.689-.012,7-.011l10.742,0c6.459,0,12.922.077,19.381.005,4.8-.052,9.757-.05,12.781-4.854,1.044-1.658,2.659-6.183,1.319-8.105-1.064-1.524-6.995-.553-8.832-.554l-20.56-.008c-9.343,0-18.8-.477-28.135.014" transform="translate(-347.576 -278.968)"/><path class="g" d="M366.175,300.055l.32-3.967,4.1-2.367,2.218,2.318L376,297.671l2.9-1.026,3.155-2.924,4.12,2.4v4.987h-20v-1.051" transform="translate(-347.354 -279.402)"/><path class="h" d="M370.546,294.035l-2.1-7.2,3.46-6.555,4.368-.643,4.768,1.756,2.466,3.478.555,4.807-1.169,4.509h-3.038l-1.352-1.746,2.6-3.79-.655-3.106-2.231-1.307-3.273,1.822-2.883-.4-.058,2.522,2.037,4.257-2.231,1.373-1.267.219" transform="translate(-347.305 -279.639)"/></g><g transform="translate(0 0)"><g transform="translate(18.3)"><g transform="translate(3.671 18.872)"><path class="i" d="M369.772,297.466a.323.323,0,0,0-.323.324v1.858a.324.324,0,1,0,.647,0V297.79A.324.324,0,0,0,369.772,297.466Z" transform="translate(-369.449 -297.466)"/></g><g transform="translate(16.628 18.872)"><path class="i" d="M382.448,297.466a.324.324,0,0,0-.324.324v1.858a.324.324,0,0,0,.648,0V297.79A.324.324,0,0,0,382.448,297.466Z" transform="translate(-382.124 -297.466)"/></g><path class="i" d="M382.951,294.2l-.193-.034a12.325,12.325,0,0,0,1.455-6.182c0-5.457-3.093-8.982-7.881-8.982-4.715,0-7.881,3.61-7.881,8.982a12.335,12.335,0,0,0,1.455,6.182l-.193.034a4.633,4.633,0,0,0-3.853,4.575v1.281a.324.324,0,0,0,.648,0v-1.281a3.987,3.987,0,0,1,3.315-3.937l1.606-.277c.409,1.81,3.635,3.093,4.58,3.434v2.061a.324.324,0,0,0,.648,0V298c.946-.34,4.171-1.623,4.58-3.434l1.607.277a3.986,3.986,0,0,1,3.314,3.937v1.281a.324.324,0,0,0,.648,0v-1.281A4.633,4.633,0,0,0,382.951,294.2Zm-6.62,3.223c-1.212-.423-3.939-1.644-4.267-2.979a2.634,2.634,0,0,0,2.022-1.93l.014-.06a4.225,4.225,0,0,0,4.461,0l.015.06a2.635,2.635,0,0,0,2.021,1.93C380.27,295.782,377.543,297,376.331,297.427Zm-4.368-10.37a5.765,5.765,0,0,1,.159-1.379,4.475,4.475,0,0,0,4.343-.17,3.481,3.481,0,0,1,4.044.052,5.671,5.671,0,0,1,.189,1.5c0,2.972-1.96,5.39-4.368,5.39S371.963,290.029,371.963,287.057Zm8.829,6.773a1.988,1.988,0,0,1-1.588-1.471l-.075-.294a6.441,6.441,0,0,0,2.217-5.008,6.211,6.211,0,0,0-.25-1.8.321.321,0,0,0-.165-.2,4.128,4.128,0,0,0-4.8-.11,3.86,3.86,0,0,1-4.021-.031.328.328,0,0,0-.285-.039.323.323,0,0,0-.2.2,6.091,6.091,0,0,0-.306,1.97,6.444,6.444,0,0,0,2.216,5.008l-.075.294a1.987,1.987,0,0,1-1.588,1.471l-1.267.219a11.322,11.322,0,0,1-1.506-6.062c0-5.063,2.839-8.334,7.233-8.334s7.233,3.271,7.233,8.334a11.312,11.312,0,0,1-1.506,6.062Z" transform="translate(-365.858 -279.005)"/></g><g transform="translate(0 22.428)"><rect class="j" width="57.546" height="34.099" rx="8.169"/></g><path class="j" d="M405.5,321.955h0Z" transform="translate(-347.956 -278.05)"/></g></g></g></g></svg>