<svg xmlns="http://www.w3.org/2000/svg" xmlns:xlink="http://www.w3.org/1999/xlink" width="76" height="76" viewBox="0 0 76 76"><defs><style>.a{fill:#fff;}.b{fill:none;}.c{clip-path:url(#a);}.d{fill:#dd2911;}.e{fill:#fedd19;}.f{fill:#ff7381;}.g{fill:#091f3a;}</style><clipPath id="a"><rect class="a" width="31.509" height="31.509" rx="15.755" transform="translate(0 0)"/></clipPath></defs><g transform="translate(-171 -1732)"><g transform="translate(171 1732)"><rect class="b" width="76" height="76"/></g><g transform="translate(-3742 -5064)"><g class="c" transform="translate(3915 6804)"><rect class="d" width="51.096" height="31.358" transform="translate(-2.359 0)"/><g transform="translate(2.585 4.765)"><path class="e" d="M286.5,354.494h3.483l1.091-3.207,1.09,3.267h3.423l-2.787,1.97,1.151,3.177L291.1,357.76l-2.848,2.058,1.03-3.265Z" transform="translate(-286.497 -349.927)"/><path class="e" d="M305.352,351.058l-1.131.235.8-.775-.616-1.068,1.01.471.788-.764-.121,1.017,1.111.452-1.131.274-.1,1.137Z" transform="translate(-292.901 -349.157)"/><path class="e" d="M308.933,355.6l1.01-.471-.162-1.156.829.8,1.03-.49-.506.982.788.844-1.171-.2-.525,1-.142-1.1Z" transform="translate(-294.603 -350.898)"/><path class="e" d="M309.029,362.245h1.13l.3-1.177.423,1.078H312l-.829.628.343,1.079-.969-.607-.95.725.346-1.1Z" transform="translate(-294.638 -353.461)"/><path class="e" d="M305.382,367.029l.769-.864V367.3l.948.391-1.049.314v1.1l-.687-.9-1.111.275.687-.883-.565-.922Z" transform="translate(-292.912 -355.302)"/></g></g><g transform="translate(3931.24 6810.36)"><rect class="f" width="18.48" height="3.78" transform="translate(0.927 18.585)"/><rect class="f" width="34.02" height="3.78" transform="translate(19.407 23.625)"/><rect class="f" width="52.92" height="3.78" transform="translate(0.507 49.665)"/><g transform="translate(0 0)"><path class="g" d="M506.5,374.355h-1.967v-1.967a.656.656,0,0,0-.655-.655h-5.245a.656.656,0,0,0-.656.655v1.967h-1.311v-1.967a.656.656,0,0,0-.655-.655h-5.245a.657.657,0,0,0-.656.655v1.967H488.8v-1.967a.656.656,0,0,0-.655-.655H482.9a.656.656,0,0,0-.655.655v1.967h-1.311v-1.967a.656.656,0,0,0-.656-.655h-5.245a.656.656,0,0,0-.655.655v1.967h-1.311v-9.834a.656.656,0,0,0-.656-.656h-1.966v-9.834a.656.656,0,0,0-.656-.656H456.675a.656.656,0,0,0-.656.656v9.834h-1.966a.656.656,0,0,0-.656.656V406.48a.656.656,0,0,0,.656.655H506.5a.655.655,0,0,0,.655-.655V375.01A.656.656,0,0,0,506.5,374.355Zm-36.206,19.238a17.162,17.162,0,0,1-7.777-.6,18.63,18.63,0,0,1-6.149-3.224c-.307-.244-.862-.682-1.664-1.361,0,.017,0-1.505,0-2.255h7.211a.656.656,0,1,0,0-1.311h-7.211v-6.556h4.59a.656.656,0,0,0,0-1.311h-4.59v-1.311h17.046v1.311h-4.59a.656.656,0,0,0,0,1.311h4.59v14.969A13.252,13.252,0,0,1,470.294,393.593Zm2.77-15.3h32.78V379.6h-32.78Zm-18.357-3.934v-1.311h17.046v1.311ZM473.065,391.4h1.966a.656.656,0,1,0,0-1.311h-1.966v-1.311h4.589a.656.656,0,1,0,0-1.311h-4.589v-1.311h4.589a.656.656,0,1,0,0-1.311h-4.589v-1.311h1.966a.656.656,0,1,0,0-1.311h-1.966v-1.311h32.78v1.311h-1.966a.656.656,0,1,0,0,1.311h1.966v3.73c-3.52-2.835-14.83-10.229-26.032.972a19.734,19.734,0,0,1-6.748,4.561Zm2.622-18.357h3.934v1.966a.656.656,0,0,0,.655.656H482.9a.657.657,0,0,0,.656-.656v-1.966h3.933v1.966a.657.657,0,0,0,.656.656h2.622a.656.656,0,0,0,.655-.656v-1.966h3.934v1.966a.656.656,0,0,0,.656.656h2.622a.656.656,0,0,0,.655-.656v-1.966h3.934v1.966a.656.656,0,0,0,.656.656h1.966v1.311h-32.78v-1.311h1.966a.656.656,0,0,0,.656-.656Zm-8.523-9.179h-2.622a.656.656,0,0,0-.655.656v1.966h-1.311v-1.966a.656.656,0,0,0-.656-.656H459.3a.656.656,0,0,0-.656.656v1.966H457.33v-6.556h11.8v6.556H467.82v-1.966A.656.656,0,0,0,467.164,363.865Zm1.967-9.179v3.934h-11.8v-3.934Zm-13.112,10.49v1.967a.656.656,0,0,0,.656.655H459.3a.656.656,0,0,0,.655-.655v-1.967h1.311v1.967a.656.656,0,0,0,.655.655h2.622a.656.656,0,0,0,.656-.655v-1.967h1.311v1.967a.656.656,0,0,0,.655.655h2.622a.656.656,0,0,0,.656-.655v-1.967h1.311v6.556H454.707v-6.556Zm49.826,40.648H454.707V390.159l.076.06.028.023a21.108,21.108,0,0,0,12.088,4.87,15.513,15.513,0,0,0,5.709-.725,20.464,20.464,0,0,0,8.131-5.224c11.8-11.791,23.419-1.765,25.105-.185Z" transform="translate(-453.396 -353.375)"/><path class="g" d="M464.635,386.811a.656.656,0,0,0-.656-.655h-5.244a.656.656,0,1,0,0,1.311h5.244A.656.656,0,0,0,464.635,386.811Z" transform="translate(-454.145 -358.62)"/><path class="g" d="M466.539,392.15h5.245a.656.656,0,1,0,0-1.311h-5.245a.656.656,0,0,0,0,1.311Z" transform="translate(-455.394 -359.369)"/><path class="g" d="M466.2,394.616a.656.656,0,0,0-.656-.655H460.3a.656.656,0,1,0,0,1.311h5.244A.656.656,0,0,0,466.2,394.616Z" transform="translate(-454.395 -359.869)"/><path class="g" d="M471.784,397.083h-5.245a.656.656,0,0,0,0,1.311h5.245a.656.656,0,1,0,0-1.311Z" transform="translate(-455.394 -360.368)"/><path class="g" d="M456.518,413.348a.656.656,0,0,0,.656.655h47.2a.656.656,0,0,0,0-1.311h-47.2A.656.656,0,0,0,456.518,413.348Z" transform="translate(-453.896 -362.866)"/><path class="g" d="M459.64,410.226a.656.656,0,0,0,.656.655h39.336a.656.656,0,0,0,0-1.311H460.3A.656.656,0,0,0,459.64,410.226Z" transform="translate(-454.395 -362.366)"/></g></g></g></g></svg>