<svg xmlns="http://www.w3.org/2000/svg" width="61.376" height="61.924" viewBox="0 0 61.376 61.924"><defs><style>.a{fill:#ffee74;}.b{fill:gold;}.c{fill:#141215;}</style></defs><g transform="translate(-1713 -8504)"><circle class="a" cx="14.083" cy="14.083" r="14.083" transform="translate(1713 8504)"/><g transform="translate(1722.682 8514.24)"><path class="a" d="M217.662,406.451l2.289-2.553V374.8l2.962-2.128,3.365-.833,2.706,2.423,1.2,3.533v29.443H216.988Z" transform="translate(-209.194 -371.105)"/><ellipse class="b" cx="9.44" cy="9.439" rx="9.44" ry="9.439" transform="translate(32.071 16.336)"/><g transform="translate(0 0)"><g transform="translate(28.757 11.908)"><path class="c" d="M237.236,383.783h8.427a.783.783,0,0,0,0-1.567h-8.427a.783.783,0,0,0,0,1.567Z" transform="translate(-236.453 -382.216)"/></g><g transform="translate(23.607 11.908)"><path class="c" d="M232.454,383.783h.972a.783.783,0,0,0,0-1.567h-.972a.783.783,0,0,0,0,1.567Z" transform="translate(-231.671 -382.216)"/></g><g transform="translate(28.757 6.687)"><path class="c" d="M237.236,378.933h8.427a.783.783,0,1,0,0-1.566h-8.427a.783.783,0,1,0,0,1.566Z" transform="translate(-236.453 -377.367)"/></g><g transform="translate(23.607 17.129)"><path class="c" d="M232.454,388.632h6.338a.783.783,0,0,0,0-1.567h-6.338a.783.783,0,0,0,0,1.567Z" transform="translate(-231.671 -387.065)"/></g><g transform="translate(23.607 22.35)"><path class="c" d="M232.454,393.48H236.7a.783.783,0,1,0,0-1.566h-4.249a.783.783,0,1,0,0,1.566Z" transform="translate(-231.671 -391.914)"/></g><g transform="translate(23.607 27.571)"><path class="c" d="M232.454,398.33H236.7a.783.783,0,1,0,0-1.567h-4.249a.783.783,0,0,0,0,1.567Z" transform="translate(-231.671 -396.763)"/></g><g transform="translate(23.607 32.793)"><path class="c" d="M239.575,402.395a.784.784,0,0,0-.783-.783h-6.338a.783.783,0,1,0,0,1.566h6.338A.783.783,0,0,0,239.575,402.395Z" transform="translate(-231.671 -401.612)"/></g><g transform="translate(23.607 6.687)"><path class="c" d="M232.454,378.933h.972a.783.783,0,1,0,0-1.566h-.972a.783.783,0,1,0,0,1.566Z" transform="translate(-231.671 -377.367)"/></g><g transform="translate(28.757 43.235)"><path class="c" d="M245.663,411.31h-8.427a.783.783,0,0,0,0,1.567h8.427a.783.783,0,0,0,0-1.567Z" transform="translate(-236.453 -411.31)"/></g><g transform="translate(23.607 43.235)"><path class="c" d="M233.426,411.31h-.972a.783.783,0,0,0,0,1.567h.972a.783.783,0,0,0,0-1.567Z" transform="translate(-231.671 -411.31)"/></g><g transform="translate(28.757 38.013)"><path class="c" d="M236.453,407.244a.783.783,0,0,0,.783.783h8.427a.783.783,0,0,0,0-1.567h-8.427A.784.784,0,0,0,236.453,407.244Z" transform="translate(-236.453 -406.46)"/></g><g transform="translate(23.607 38.013)"><path class="c" d="M233.426,406.46h-.972a.783.783,0,0,0,0,1.567h.972a.783.783,0,0,0,0-1.567Z" transform="translate(-231.671 -406.46)"/></g><path class="c" d="M252.046,386.858v-9.9a5.806,5.806,0,0,0-5.8-5.8H225.58a5.8,5.8,0,0,0-5.8,5.8v7.488l-4.231,2.643-4.6-2.874a.788.788,0,0,0-.8-.019.78.78,0,0,0-.4.684v17.4a5.8,5.8,0,0,0,5.8,5.8h14.262v13.988a.783.783,0,0,0,1.189.67l4.76-2.887,4.761,2.887a.785.785,0,0,0,.812,0l4.761-2.887,4.76,2.887a.783.783,0,0,0,1.189-.67V407.138a10.169,10.169,0,0,0,0-20.28ZM215.55,406.5a4.236,4.236,0,0,1-4.233-4.231V386.289l3.818,2.385a.79.79,0,0,0,.83,0l3.817-2.385v15.983A4.236,4.236,0,0,1,215.55,406.5Zm14.262,0H219.5a5.771,5.771,0,0,0,1.847-4.231V376.954a4.237,4.237,0,0,1,4.232-4.232h0a4.237,4.237,0,0,1,4.231,4.232Zm20.667,14.164-3.977-2.412a.79.79,0,0,0-.812,0l-4.761,2.887-4.761-2.887a.792.792,0,0,0-.812,0l-3.977,2.412V376.954a5.784,5.784,0,0,0-1.838-4.232h16.708a4.237,4.237,0,0,1,4.231,4.233v9.9a10.169,10.169,0,0,0,0,20.28Zm.784-15.054A8.614,8.614,0,1,1,259.878,397,8.625,8.625,0,0,1,251.263,405.612Z" transform="translate(-209.751 -371.157)"/><g transform="translate(38.019 18.793)"><path class="c" d="M248.541,394.877c-1.274,0-1.92-.564-1.92-1.674a1.812,1.812,0,0,1,1.92-1.673,1.936,1.936,0,0,1,1.8,1.1.783.783,0,0,0,1.444-.607,3.393,3.393,0,0,0-2.466-1.969v-.658a.783.783,0,1,0-1.566,0v.657a3.3,3.3,0,0,0-2.7,3.151,3.122,3.122,0,0,0,3.487,3.24c1.282,0,1.931.563,1.931,1.673a1.813,1.813,0,0,1-1.921,1.674,1.938,1.938,0,0,1-1.8-1.1.783.783,0,1,0-1.443.606,3.384,3.384,0,0,0,2.455,1.967v.661a.783.783,0,0,0,1.566,0v-.656a3.3,3.3,0,0,0,2.714-3.153C252.038,396.549,251.119,394.877,248.541,394.877Z" transform="translate(-245.054 -388.61)"/></g></g></g></g></svg>