<svg xmlns="http://www.w3.org/2000/svg" width="62" height="62" viewBox="0 0 62 62"><defs><style>.a{fill:rgba(194,168,240,0.9);opacity:0.5;}.b,.c,.d{fill:none;stroke:#fff;stroke-width:1.8px;}.b,.c{stroke-linecap:square;}.b,.d{stroke-miterlimit:10;}.c{stroke-linejoin:round;}</style></defs><g transform="translate(-547.057 -703.1)"><path class="a" d="M13.053,0H48.947A13.053,13.053,0,0,1,62,13.053V48.947A13.053,13.053,0,0,1,48.947,62H13.053A13.053,13.053,0,0,1,0,48.947V13.053A13.053,13.053,0,0,1,13.053,0Z" transform="translate(547.057 703.1)"/><g transform="translate(558.057 719.099)"><path class="b" d="M854.636,268.542c1.072-.019,2.029,1.233,4.854.417a2.393,2.393,0,0,0-1.318-3.448,5.013,5.013,0,0,0-5.679.777,2.858,2.858,0,0,0-.171,2.468,3.249,3.249,0,0,1,.105.418l.024.131a3.114,3.114,0,0,1,.046.468c.084,2.664,1.571,5.117,3.394,5.117,1.876,0,3.4-2.6,3.4-5.353" transform="translate(-849.013 -262.146)"/><path class="b" d="M867.86,291.515a3.683,3.683,0,0,1,2.468.945q.095.085.183.176" transform="translate(-857.521 -276.486)"/><path class="b" d="M849.05,291.515a3.689,3.689,0,0,0-3.69,3.685v5.055h6.555" transform="translate(-845.36 -276.486)"/><g transform="translate(4.724 12.428)"><line class="b" x2="0.386" y2="2.023" transform="translate(4.198 0.315)"/><line class="b" y1="2.319" x2="0.358" transform="translate(0 0)"/></g><path class="b" d="M854.467,291.511l1.175,1.684a1.967,1.967,0,0,0,1.614.841h0a1.967,1.967,0,0,0,1.623-.856l1.144-1.669" transform="translate(-850.282 -276.484)"/><g transform="translate(27.017 2.838)"><path class="b" d="M914.114,268.157c-.932.167-2.086,1.69-5.162.8a2.393,2.393,0,0,1,1.318-3.448,5.013,5.013,0,0,1,5.678.777,2.858,2.858,0,0,1,.171,2.468,3.312,3.312,0,0,0-.106.418l-.024.131a3.162,3.162,0,0,0-.045.468c-.084,2.664-1.571,5.117-3.394,5.117-1.876,0-3.4-2.6-3.4-5.353" transform="translate(-906.581 -264.983)"/><path class="b" d="M924.386,291.511a3.688,3.688,0,0,1,3.688,3.688v5.054" transform="translate(-915.091 -279.322)"/><path class="b" d="M904.157,292.633a3.672,3.672,0,0,1,2.643-1.118" transform="translate(-904.157 -279.324)"/><line class="b" x1="6.552" transform="translate(6.43 20.931)"/><g transform="translate(3.679 9.591)"><line class="b" x2="0.386" y2="2.023" transform="translate(4.198 0.315)"/><line class="b" y1="2.319" x2="0.358"/></g><path class="b" d="M910.991,291.511l1.175,1.684a1.966,1.966,0,0,0,1.614.841h0a1.967,1.967,0,0,0,1.623-.856l1.144-1.669" transform="translate(-907.851 -279.322)"/></g><g transform="translate(9.312)"><path class="b" d="M885.317,263.123c-1.393-.459-2.75,2.423-7.5,1.051,0,0-1.708-3,1.78-4.653,3.288-1.559,6.619-.262,7.666,1.048.9,1.127.359,2.962.19,3.454a2,2,0,0,0-.074.289l-.095.525a1.444,1.444,0,0,0-.022.239c-.044,3.671-2.08,7.106-4.585,7.106-2.533,0-4.586-3.51-4.586-7.226" transform="translate(-871.991 -258.808)"/><path class="b" d="M887,307.945H865.626V300.24a5.621,5.621,0,0,1,5.621-5.621h10.136A5.621,5.621,0,0,1,887,300.24v7.537" transform="translate(-865.626 -278.164)"/><path class="c" d="M888.127,296.813l.5-2.194h-2.974l.422,2.194" transform="translate(-876.45 -278.164)"/><path class="d" d="M888.526,304.891l-.992-5.1h-2.154l-.993,5.1,2.07,1.737Z" transform="translate(-875.766 -280.958)"/><g transform="translate(7.596 12.947)"><line class="b" x2="0.299" y2="1.569" transform="translate(5.889 1.588)"/><line class="b" y1="3.131" x2="0.483"/></g></g></g></g></svg>