<svg xmlns="http://www.w3.org/2000/svg" xmlns:xlink="http://www.w3.org/1999/xlink" width="76" height="76" viewBox="0 0 76 76"><defs><style>.a{fill:#fff;}.b{fill:none;}.c{clip-path:url(#a);}.d{fill:#ffc501;}.e,.f{fill:#c60b1e;}.f{fill-rule:evenodd;}.g{fill:#ff7381;}.h{fill:#091f3a;}</style><clipPath id="a"><rect class="a" width="35" height="35" rx="17.5"/></clipPath></defs><g transform="translate(-471 -1827)"><g transform="translate(471 1827)"><rect class="b" width="76" height="76"/></g><g transform="translate(134 -2)"><g class="c" transform="translate(340 1838)"><g transform="translate(-4.46 -0.686)"><g transform="translate(0 0)"><rect class="d" width="60.095" height="18.056" transform="translate(0 9.028)"/><rect class="e" width="60.095" height="9.028" transform="translate(0 27.084)"/><rect class="e" width="60.095" height="9.028"/></g><g transform="translate(7.685 12.435)"><path class="f" d="M304.681,789.8h-9.716v6.291h0c0,.031,0,.062,0,.093a4.858,4.858,0,0,0,9.716,0c0-.031,0-.062,0-.093h0Z" transform="translate(-291.98 -789.795)"/><rect class="a" width="1.788" height="10.387" rx="0.894" transform="translate(0 0)"/><rect class="a" width="1.788" height="10.387" rx="0.894" transform="translate(13.898 0)"/></g></g></g><g transform="translate(351.316 1849.511)"><path class="g" d="M4.825,0,9.65,12.545H0Z" transform="matrix(-1, 0.017, -0.017, -1, 19.256, 27.529)"/><path class="g" d="M4.825,0,9.65,12.545H0Z" transform="matrix(-1, 0.017, -0.017, -1, 49.17, 27.529)"/><rect class="g" width="56.933" height="4.825" transform="translate(0.805 41.132)"/><path class="h" d="M681.353,811.637V786.264a3.964,3.964,0,0,0-7.123-2.4,39.556,39.556,0,0,1-8.844,1.238,83.658,83.658,0,0,0-3.65-8.938l-.2-.424a8.457,8.457,0,0,0-15.257,0l-.2.424a83.7,83.7,0,0,0-3.651,8.938,39.612,39.612,0,0,1-8.843-1.238,3.963,3.963,0,0,0-7.123,2.4v25.374h-1.893v5.679h58.684v-5.679Zm-3.968-27.449a2.077,2.077,0,0,1,2.075,2.075v25.374h-1.893V793.653a5.682,5.682,0,0,0-3.693-5.313c.544-1.063,1.115-2.115,1.732-3.144A2.084,2.084,0,0,1,677.385,784.189Zm-8.052,17.983h2.554v3.786h-2.162C669.625,804.694,669.491,803.432,669.334,802.172Zm4.448,0h1.892v3.786h-1.892Zm1.892-1.893h-1.892v-3.786h1.892Zm0-5.679h-1.892v-4.206a3.775,3.775,0,0,1,1.892,3.26Zm-3.786,0h-.724q.344-.961.724-1.91Zm-1.359,1.893h1.359v3.786h-2.4Q669.94,798.364,670.529,796.493Zm-.548,15.144c-.013-1.263-.05-2.524-.122-3.786h2.028v3.786Zm3.8-3.786h1.892v3.786h-1.892Zm-.884-21.732c-.336.613-.655,1.233-.967,1.857l-.042,0v.084a54.524,54.524,0,0,0-3.416,8.657A85.42,85.42,0,0,0,666,786.974,41.611,41.611,0,0,0,672.9,786.119Zm-25.116-9.134.2-.423a6.563,6.563,0,0,1,11.841,0l.2.423a83.052,83.052,0,0,1,8.061,34.653h-1.88v-3.7a58.6,58.6,0,0,0-3.746-20.654,9.141,9.141,0,0,0-17.119,0,58.622,58.622,0,0,0-3.745,20.654v3.7h-1.88A83.035,83.035,0,0,1,647.781,776.984Zm7.069,18.562h3.787v7.572H654.85Zm-1.892,7.572h-3.786v-7.572h3.786Zm7.571-7.572h2.42a56.852,56.852,0,0,1,1.158,7.572h-3.578Zm0-1.893V787.6c.051.116.116.224.161.344a56.892,56.892,0,0,1,1.794,5.708Zm-1.892,0H654.85V783.316a7.262,7.262,0,0,1,3.787,1.716Zm-5.679,0h-3.786v-8.622a7.27,7.27,0,0,1,3.786-1.716Zm-5.68,0h-1.954a56.956,56.956,0,0,1,1.794-5.708c.045-.121.109-.229.16-.344Zm-2.419,1.893h2.419v7.572H643.7A56.536,56.536,0,0,1,644.859,795.547Zm-1.366,12.388c0-.979.032-1.951.081-2.923h3.7v6.625h-3.786Zm5.679-2.923h3.786v6.625h-3.786Zm5.679,0h3.787v6.625H654.85Zm5.679,0h3.705c.049.972.081,1.944.081,2.923v3.7h-3.786Zm-22.446.947h-2.163v-3.786h2.553C638.317,803.432,638.183,804.694,638.083,805.959Zm-2.163-5.68v-3.786h1.358q.591,1.87,1.041,3.786Zm0-5.679v-1.91q.381.947.723,1.91Zm-1.893,0h-1.893v-.947a3.775,3.775,0,0,1,1.893-3.26Zm-1.893,1.893h1.893v3.786h-1.893Zm0,5.679h1.893v3.786h-1.893Zm0,5.679h1.893v3.786h-1.893Zm3.786,0h2.028c-.072,1.262-.108,2.523-.123,3.786h-1.906Zm3.416-11.137a54.649,54.649,0,0,0-3.416-8.657v-.083l-.042,0c-.312-.624-.631-1.245-.968-1.857a41.512,41.512,0,0,0,6.894.854A85.44,85.44,0,0,0,639.337,796.714Zm-10.988-10.451A2.075,2.075,0,0,1,632.2,785.2c.618,1.029,1.188,2.081,1.732,3.144a5.684,5.684,0,0,0-3.693,5.314v17.984h-1.893Zm53,29.159h-54.9v-1.892h54.9Z" transform="translate(-624.562 -770.938)"/></g></g></g></svg>