<svg xmlns="http://www.w3.org/2000/svg" width="76" height="76" viewBox="0 0 76 76"><defs><style>.a,.c{fill:none;}.b{fill:#0073de;}.c,.d,.e,.i{stroke:#000;stroke-linecap:round;stroke-linejoin:round;stroke-width:1.5px;}.d{fill:#fff;}.e{fill:#ff6242;}.f{fill:#ffb59e;}.g{fill:#ffef9e;}.h{fill:#86aacb;}.i{fill:#128dff;}.j{fill:#6dd627;}</style></defs><g transform="translate(-1469 -2465)"><g transform="translate(1469 2465)"><rect class="a" width="76" height="76"/></g><g transform="translate(3 -5)"><circle class="b" cx="14.88" cy="14.88" r="14.88" transform="translate(1469 2474)"/><g transform="translate(1492.333 2481.697)"><path class="b" d="M44.556,48.5A15.307,15.307,0,0,0,29,63.8v3.37H60.111V63.8A15.307,15.307,0,0,0,44.556,48.5Z" transform="translate(-29 -18.348)"/><path class="c" d="M44.556,48.5A15.307,15.307,0,0,0,29,63.8v3.37H60.111V63.8A15.307,15.307,0,0,0,44.556,48.5Z" transform="translate(-29 -18.348)"/><line class="c" y1="4.667" transform="translate(5.704 44.152)"/><line class="c" y1="4.667" transform="translate(25.407 44.152)"/><path class="d" d="M47.9,48.925h0a15.556,15.556,0,0,0-3.723-.425,15.151,15.151,0,0,0-3.713.394h0l-1.161,5,4.874,13.274,4.874-13.274Z" transform="translate(-28.619 -18.348)"/><path class="a" d="M44.13,46H40.5v5.5l3.63,2.427,3.63-2.427V46Z" transform="translate(-28.574 -18.441)"/><path class="c" d="M44.13,46H40.5v3.7l3.63,1.633,3.63-1.633V46Z" transform="translate(-28.574 -15.848)"/><path class="e" d="M44.093,54l-2.6,9.852,2.6,3.111,2.6-3.111Z" transform="translate(-28.537 -18.144)"/><path class="c" d="M47.942,56.53,44.136,54,40.33,56.53" transform="translate(-28.58 -18.144)"/><path class="c" d="M54.815,35.463V32.87a10.37,10.37,0,1,0-20.741,0v2.593a2.074,2.074,0,0,0,0,4.148H34.2a10.37,10.37,0,0,0,20.492,0h.124a2.074,2.074,0,1,0,0-4.148Z" transform="translate(-28.889 -19.311)"/><circle class="f" cx="1.296" cy="1.296" r="1.296" transform="translate(8.296 18.755)"/><circle class="f" cx="1.296" cy="1.296" r="1.296" transform="translate(20.222 18.755)"/><path class="c" d="M41,41.3a4.542,4.542,0,0,0,6.222,0" transform="translate(-28.556 -18.615)"/><path class="c" d="M41.611,35.547a1.69,1.69,0,0,0-3.111,0" transform="translate(-28.648 -18.866)"/><path class="c" d="M49.621,35.537a1.69,1.69,0,0,0-3.111,0" transform="translate(-28.351 -18.866)"/><path class="g" d="M36,33.5Z" transform="translate(-28.741 -18.904)"/><path class="h" d="M51.925,21.4c-1.981-2.634-12.932-2.634-14.913,0-8.2,1.825-5.351,15.867-4.511,15.027a1.981,1.981,0,0,1,2.292-.332c1.379-2.074,1.9-2.074,1.9-5.185,1.141.684,13.637.4,14.29-4.47-.228,3.847,1.338,6.679,3.111,9.655a1.981,1.981,0,0,1,2.292.332C57.276,37.267,60.128,23.226,51.925,21.4Z" transform="translate(-28.913 -19.425)"/><path class="c" d="M51.925,21.4c-1.981-2.634-12.932-2.634-14.913,0-8.2,1.825-5.351,15.867-4.511,15.027a1.981,1.981,0,0,1,2.292-.332c1.379-2.074,1.9-2.074,1.9-5.185,1.141.684,13.637.4,14.29-4.47-.228,3.847,1.338,6.679,3.111,9.655a1.981,1.981,0,0,1,2.292.332C57.276,37.267,60.128,23.226,51.925,21.4Z" transform="translate(-28.913 -19.425)"/><path class="i" d="M40.717,48.5l-1.244,5.393,4.874,13.274H41.754l-4.013-2.79a1.037,1.037,0,0,1-.332-1.338l1.441-2.717-3.837-3.277a1.037,1.037,0,0,1-.311-1.12C35.7,53.167,36.382,49.413,40.717,48.5Z" transform="translate(-28.791 -18.348)"/><path class="i" d="M47.63,48.5l1.244,5.393L44,67.167h2.593l4.013-2.79a1.037,1.037,0,0,0,.332-1.338L49.5,60.322l3.837-3.277a1.037,1.037,0,0,0,.311-1.12C52.649,53.167,51.964,49.413,47.63,48.5Z" transform="translate(-28.444 -18.348)"/><path class="j" d="M74.889,63.852a1.037,1.037,0,0,0-1.037-1.037H67.111a1.037,1.037,0,0,1-1.037-1.037V55.037A1.037,1.037,0,0,0,65.037,54H59.852a1.037,1.037,0,0,0-1.037,1.037v6.741a1.037,1.037,0,0,1-1.037,1.037H51.037A1.037,1.037,0,0,0,50,63.852v5.185a1.037,1.037,0,0,0,1.037,1.037h6.741a1.037,1.037,0,0,1,1.037,1.037v6.741a1.037,1.037,0,0,0,1.037,1.037h5.185a1.037,1.037,0,0,0,1.037-1.037V71.111a1.037,1.037,0,0,1,1.037-1.037h6.741a1.037,1.037,0,0,0,1.037-1.037Z" transform="translate(-28.222 -18.144)"/><path class="c" d="M74.889,63.852a1.037,1.037,0,0,0-1.037-1.037H67.111a1.037,1.037,0,0,1-1.037-1.037V55.037A1.037,1.037,0,0,0,65.037,54H59.852a1.037,1.037,0,0,0-1.037,1.037v6.741a1.037,1.037,0,0,1-1.037,1.037H51.037A1.037,1.037,0,0,0,50,63.852v5.185a1.037,1.037,0,0,0,1.037,1.037h6.741a1.037,1.037,0,0,1,1.037,1.037v6.741a1.037,1.037,0,0,0,1.037,1.037h5.185a1.037,1.037,0,0,0,1.037-1.037V71.111a1.037,1.037,0,0,1,1.037-1.037h6.741a1.037,1.037,0,0,0,1.037-1.037Z" transform="translate(-28.222 -18.144)"/></g></g></g></svg>