<svg xmlns="http://www.w3.org/2000/svg" width="38" height="38" viewBox="0 0 38 38"><defs><style>.a{fill:#fff;stroke:#ffca83;}.b{fill:#ffca83;}.c{fill:rgba(255,255,255,0);}.d{stroke:none;}.e{fill:none;}</style></defs><g transform="translate(-1304 -1593)"><g class="a" transform="translate(1304 1593)"><circle class="d" cx="19" cy="19" r="19"/><circle class="e" cx="19" cy="19" r="18.5"/></g><g transform="translate(-68 -258)"><g transform="translate(1381.323 1861.871)"><g transform="translate(0 0)"><path class="b" d="M381.286,775.263H363.512a.428.428,0,0,1,0-.857h17.774a.428.428,0,1,1,0,.857Zm0-2.355H363.512a.428.428,0,0,1,0-.857h17.774a.428.428,0,1,1,0,.857Zm-8.994-2.356a.428.428,0,0,1,0-.857h3v-2.607a6.306,6.306,0,0,0-6.3-6.3,4.959,4.959,0,0,0-4.953,4.952,3.882,3.882,0,0,0,3.877,3.878,3.019,3.019,0,0,0,3.016-3.016,2.329,2.329,0,0,0-2.327-2.327,1.778,1.778,0,0,0-1.776,1.776,1.337,1.337,0,0,0,1.335,1.335.428.428,0,0,1,0,.857,2.194,2.194,0,0,1-2.192-2.191,2.636,2.636,0,0,1,2.633-2.633,3.187,3.187,0,0,1,3.184,3.183,3.877,3.877,0,0,1-3.872,3.873,4.739,4.739,0,0,1-4.734-4.734,5.816,5.816,0,0,1,5.81-5.809,7.163,7.163,0,0,1,7.154,7.013,1.348,1.348,0,0,0,1.456-.528,2.459,2.459,0,0,1,.473-2.556v-4.232a.428.428,0,0,1,.857,0v3.622a2.542,2.542,0,0,1,1.927,0v-3.622a.428.428,0,0,1,.857,0v4.231a2.46,2.46,0,0,1-.215,3.524c-.788,2.027-2.6,3.039-5.537,3.09C375.783,770.6,375.852,770.552,372.292,770.552Zm3.854-2.743v1.805c1.969-.065,3.294-.6,4.073-1.653a2.459,2.459,0,0,1-2.137-.776A2.175,2.175,0,0,1,376.147,767.809Zm3.748-3.9a1.606,1.606,0,1,0,1.605,1.607A1.608,1.608,0,0,0,379.895,763.914Z" transform="translate(-363.088 -759.206)"/></g></g><rect class="c" width="24" height="24" rx="8" transform="translate(1379 1858)"/></g></g></svg>