<svg xmlns="http://www.w3.org/2000/svg" width="19" height="19" viewBox="0 0 19 19"><defs><style>.a{fill:rgba(255,255,255,0);}.b{fill:#092043;stroke:#092043;stroke-width:0.2px;}</style></defs><g transform="translate(-1133 -518.4)"><rect class="a" width="19" height="19" rx="8" transform="translate(1133 518.4)"/><g transform="translate(1136.233 520.587)"><path class="b" d="M874.535,1375.438h-3.34v-.477a1.433,1.433,0,0,0-1.431-1.432h-1.909a1.433,1.433,0,0,0-1.431,1.432v.477h-3.34a.477.477,0,0,0,0,.955h.515l.845,10.14a1.44,1.44,0,0,0,1.427,1.313h5.879a1.439,1.439,0,0,0,1.426-1.313l.845-10.14h.516a.477.477,0,0,0,0-.955Zm-7.158-.477a.478.478,0,0,1,.477-.477h1.909a.477.477,0,0,1,.477.477v.477h-2.863Zm4.846,11.492a.473.473,0,0,1-.475.437h-5.879a.48.48,0,0,1-.475-.437l-.838-10.061h8.506Z" transform="translate(-862.605 -1373.529)"/><path class="b" d="M923.5,1440.547a.392.392,0,0,0-.392.393v4.711a.393.393,0,1,0,.785,0v-4.711A.392.392,0,0,0,923.5,1440.547Z" transform="translate(-918.751 -1435.052)"/><path class="b" d="M963.838,1440.547a.392.392,0,0,0-.393.393v4.711a.393.393,0,1,0,.785,0v-4.711A.392.392,0,0,0,963.838,1440.547Z" transform="translate(-956.181 -1435.052)"/></g></g></svg>