<svg xmlns="http://www.w3.org/2000/svg" xmlns:xlink="http://www.w3.org/1999/xlink" width="76" height="76" viewBox="0 0 76 76"><defs><style>.a{fill:#fff;}.b{fill:none;}.c{clip-path:url(#a);}.d{fill:#ffc501;}.e,.f{fill:#c60b1e;}.f{fill-rule:evenodd;}.g{fill:#091f3a;}</style><clipPath id="a"><rect class="a" width="35" height="35" rx="17.5"/></clipPath></defs><g transform="translate(-325 -1833)"><g transform="translate(325 1833)"><rect class="b" width="76" height="76"/></g><g transform="translate(67 2)"><g class="c" transform="translate(263 1834)"><g transform="translate(-4.46 -0.686)"><g transform="translate(0 0)"><rect class="d" width="60.095" height="18.056" transform="translate(0 9.028)"/><rect class="e" width="60.095" height="9.028" transform="translate(0 27.084)"/><rect class="e" width="60.095" height="9.028"/></g><g transform="translate(7.685 12.435)"><path class="f" d="M304.681,789.8h-9.716v6.291h0c0,.031,0,.062,0,.093a4.858,4.858,0,0,0,9.716,0c0-.031,0-.062,0-.093h0Z" transform="translate(-291.98 -789.795)"/><rect class="a" width="1.788" height="10.387" rx="0.894" transform="translate(0 0)"/><rect class="a" width="1.788" height="10.387" rx="0.894" transform="translate(13.898 0)"/></g></g></g><g transform="translate(270.738 1838.173)"><rect class="d" width="5.03" height="7.042" transform="translate(17.689 58.345)"/><rect class="d" width="5.03" height="7.042" transform="translate(25.736 58.345)"/><rect class="d" width="5.03" height="7.042" transform="translate(34.79 58.345)"/><rect class="d" width="5.03" height="7.042" transform="translate(25.736 47.28)"/><path class="d" d="M4.024,0h0A4.024,4.024,0,0,1,8.048,4.024V8.048a0,0,0,0,1,0,0H0a0,0,0,0,1,0,0V4.024A4.024,4.024,0,0,1,4.024,0Z" transform="translate(24.73 35.208)"/><path class="g" d="M598.023,811.649v-6.371H595.9v-7.872L590.59,792.1l-2.123,2.124v-3.808H584.22v-5.308a3.185,3.185,0,0,0,0-6.371h-.054a12.752,12.752,0,0,0-8.44-10.936v-4.991a4.247,4.247,0,0,0-8.493,0V767.8a12.751,12.751,0,0,0-8.44,10.936h-.054a3.185,3.185,0,0,0,0,6.371v5.308h-4.247v3.808l-2.124-2.124-5.308,5.308v7.872h-2.124v6.371h-2.123v12.74h57.333v-12.74Zm-14.865,0V807.4H595.9v4.247Zm-2.124,10.617h-2.123v-4.247h2.123Zm-4.246-6.371v6.371h-2.123V815.9h-6.371v6.371H566.17V815.9H559.8v6.371h-2.124v-8.493h27.6v8.493h-2.124V815.9Zm-4.247,6.371h-2.123v-4.247h2.123Zm-8.494,0h-2.124v-4.247h2.124Zm3.186-37.16v3.982l-1.771,1.327h-.353v-5.308Zm10.264,5.308-1.77-1.327v-3.982h2.124v5.308Zm-3.894-2.92-2.123-1.592-2.123,1.592v-2.388H573.6Zm-2.123,1.062,7.433,5.574v6.9h-2.124v-3.185a5.309,5.309,0,0,0-10.618,0v3.185h-2.124v-6.9Zm3.186,12.475h-6.371v-3.185a3.185,3.185,0,0,1,6.371,0Zm6.37,2.124v2.124h-4.246v6.371h-2.123v-6.371h-6.371v6.371H566.17v-6.371h-4.247v-2.124Zm-2.123,8.494V807.4h2.123v4.247Zm-6.371,0h-2.123V807.4h2.123Zm-8.494-4.247v4.247h-2.124V807.4Zm23.358-2.124v-6.371h6.371v6.371Zm4.869-8.494h-3.367l1.683-1.683Zm-5.93-.439-1.062,1.061v7.872h-2.124v-4.247h-2.124v-7.963l-.708-.53h6.018Zm-4.247-5.931h-2.124v-5.308H582.1Zm-10.618-29.729a2.125,2.125,0,0,1,2.123,2.124h-4.246A2.125,2.125,0,0,1,571.479,760.686Zm-2.123,4.247H573.6v2.316a11.825,11.825,0,0,0-4.246,0Zm2.123,4.247a10.63,10.63,0,0,1,10.563,9.556H560.916A10.63,10.63,0,0,1,571.479,769.18Zm-13.8,12.74a1.063,1.063,0,0,1,1.061-1.061H584.22a1.062,1.062,0,0,1,0,2.124H558.738A1.064,1.064,0,0,1,557.677,781.92Zm3.185,3.186h2.124v5.308h-2.124Zm-4.247,7.432h6.017l-.708.53v7.963H559.8v4.247h-2.124v-7.872l-1.062-1.061Zm-2.563,4.246h-3.367l1.683-1.683Zm-4.869,2.124h6.371v6.371h-6.371Zm-2.124,8.494H559.8v4.247H547.059Zm-2.124,6.371h10.618v8.493H544.935Zm53.087,8.493H587.4v-8.493h10.618Z" transform="translate(-542.812 -758.563)"/><rect class="g" width="2.123" height="2.123" transform="translate(4.247 58.394)"/><rect class="g" width="2.123" height="2.123" transform="translate(8.494 58.394)"/><rect class="g" width="2.123" height="2.123" transform="translate(46.716 58.394)"/><rect class="g" width="2.123" height="2.123" transform="translate(50.963 58.394)"/><rect class="g" width="2.123" height="2.123" transform="translate(46.716 42.469)"/><rect class="g" width="2.123" height="2.123" transform="translate(8.494 42.469)"/></g></g></g></svg>