<svg xmlns="http://www.w3.org/2000/svg" xmlns:xlink="http://www.w3.org/1999/xlink" width="76" height="76" viewBox="0 0 76 76"><defs><style>.a{fill:#fff;}.b{fill:none;}.c{fill:#122436;}.d{fill:#cb7d27;}.e{fill:#ffc382;}.f{clip-path:url(#a);}.g{fill:#fecd17;}.h{fill:#dc0201;}</style><clipPath id="a"><rect class="a" width="27.537" height="27.537" rx="13.769" transform="translate(0 0)"/></clipPath></defs><g transform="translate(-2571 -1870)"><g transform="translate(2571 1870)"><rect class="b" width="76" height="76"/></g><g transform="translate(103.814 7)"><g transform="translate(2480.974 1884.178)"><path class="c" d="M52.526,60.919l-.926-.937q-.482.476-.94.978l.973.888Q52.068,61.371,52.526,60.919Z" transform="translate(-43.916 -52.593)"/><path class="c" d="M59.62,54.357q.485-.423.992-.82L59.8,52.5q-.533.418-1.044.864l.866.993Z" transform="translate(-49.877 -47.082)"/><path class="c" d="M44.587,70.235q.377-.523.781-1.025l-1.026-.825q-.425.528-.822,1.079l1.068.771Z" transform="translate(-38.655 -58.783)"/><path class="c" d="M69.519,47.161l-.689-1.122q-.578.355-1.136.739l.746,1.085Q68.97,47.5,69.519,47.161Z" transform="translate(-56.462 -42.322)"/><path class="c" d="M38.577,79.416q.315-.563.658-1.108l-1.114-.7q-.362.573-.694,1.167l1.149.643Z" transform="translate(-34.168 -65.575)"/><path class="c" d="M110.969,33.241l-.117-1.312q-.679.06-1.347.156l.185,1.3Q110.325,33.3,110.969,33.241Z" transform="translate(-87.26 -31.929)"/><path class="c" d="M88.121,38.2q.6-.233,1.211-.437l-.414-1.25q-.646.214-1.276.46l.479,1.227Z" transform="translate(-71.156 -35.306)"/><path class="c" d="M77.982,42.453q.567-.3,1.151-.572l-.556-1.194q-.615.286-1.212.6l.617,1.163Z" transform="translate(-63.586 -38.38)"/><path class="c" d="M98.742,35.165q.62-.163,1.253-.294l-.267-1.29q-.667.138-1.32.31l.334,1.274Z" transform="translate(-79.086 -33.146)"/><path class="c" d="M27.547,110.462q.105-.638.242-1.264l-1.286-.282q-.145.66-.255,1.332l1.3.214Z" transform="translate(-25.933 -88.638)"/><path class="c" d="M26.367,121.511q.032-.646.1-1.284l-1.31-.132q-.068.671-.1,1.352l1.315.064Z" transform="translate(-25.052 -96.872)"/><path class="c" d="M33.535,104.3Z" transform="translate(-31.301 -85.238)"/><path class="c" d="M37.088,94.153Z" transform="translate(-33.918 -77.763)"/><path class="c" d="M30.381,98.443l-1.245-.429q-.22.639-.407,1.294l1.266.362Q30.172,99.05,30.381,98.443Z" transform="translate(-27.76 -80.607)"/><path class="c" d="M34.215,88.093l-1.187-.57q-.293.611-.555,1.24l1.216.506Q33.937,88.673,34.215,88.093Z" transform="translate(-30.518 -72.88)"/><path class="c" d="M121.066,36.565h0Z" transform="translate(-95.776 -35.344)"/></g><g transform="translate(2518.381 1894.92)"><path class="d" d="M179.839,91.418h-5a5.268,5.268,0,0,1-5.268-5.268V75.214h15.541V86.15A5.268,5.268,0,0,1,179.839,91.418Z" transform="translate(-168.908 -74.555)"/><path class="a" d="M174.834,122h5a5.268,5.268,0,0,0,5.268-5.268H169.566A5.268,5.268,0,0,0,174.834,122Z" transform="translate(-168.908 -105.138)"/><rect class="a" width="3.248" height="18.723" transform="translate(6.805 16.862)"/><path class="c" d="M167.066,72.714V84.308a5.927,5.927,0,0,0,5.926,5.926h.219v18.723h4.566V90.235H178a5.927,5.927,0,0,0,5.926-5.926V72.714Zm3.995,1.317v6.458h1.317V74.031h2.458v6.458h1.317V74.031h2.458v6.458h1.317V74.031h2.678V83.65H168.383V74.031Zm5.4,33.61h-1.932V90.235h1.932Zm4.8-20.073A4.593,4.593,0,0,1,178,88.918h-5a4.6,4.6,0,0,1-4.557-3.951h14.119A4.6,4.6,0,0,1,181.257,87.568Z" transform="translate(-167.066 -72.714)"/></g><path class="d" d="M92.158,75.349A13.769,13.769,0,1,1,78.39,61.58,13.769,13.769,0,0,1,92.158,75.349Z" transform="translate(2409.565 1814.918)"/><path class="a" d="M75.724,71.162a2.991,2.991,0,0,1-.923.784,2.257,2.257,0,0,1-1.065.272H58.35a2.265,2.265,0,0,1-1.06-.268A3.228,3.228,0,0,1,56,70.625a4.514,4.514,0,0,1-.537-2.16V68.42a15.646,15.646,0,0,1,3.154-9.668,10.878,10.878,0,0,1,3.368-2.878,8.549,8.549,0,0,1,4.062-1.04q.317,0,.639.024a8.573,8.573,0,0,1,3.58,1.11,11.711,11.711,0,0,1,4.26,4.349,15.793,15.793,0,0,1,2.045,6.663q.058.717.059,1.419h0v.006A4.433,4.433,0,0,1,75.724,71.162Z" transform="translate(2433.524 1835.377)"/><path class="e" d="M63.551,136.427a11.083,11.083,0,0,0-7.927-3.312H44.965a11.232,11.232,0,0,0-10.8,8.194c-.042.149-.057.189-.079.28A25.333,25.333,0,0,0,66.846,155.9V144.609a11.589,11.589,0,0,0-3.286-8.174Z" transform="translate(2449.271 1777.715)"/><path class="d" d="M59.14,179.242a25.211,25.211,0,0,0,16.953,6.518q1.151,0,2.276-.1V171.31H59.14Z" transform="translate(2430.813 1749.58)"/><path class="d" d="M70.865,133.115H69.688a11.277,11.277,0,0,0-2.043.186v9.875h3.22V133.115Z" transform="translate(2424.548 1777.715)"/><path class="d" d="M114.632,133.3a11.238,11.238,0,0,0-2.046-.187h-1.174v10.061h3.22Z" transform="translate(2392.31 1777.715)"/><g transform="translate(2482.663 1910.171)"><path class="c" d="M44,143.354h0Z" transform="translate(-40.7 -139.998)"/><path class="c" d="M62.1,134.132h0l-.009-.009-.469.462.469-.462a11.743,11.743,0,0,0-5.692-3.194v-.017l-.539-.1c-.063-.012-.127-.02-.191-.031-.085-.014-.17-.029-.256-.041-.106-.016-.213-.028-.321-.041-.082-.009-.163-.02-.245-.028-.121-.012-.242-.02-.364-.028-.07,0-.139-.011-.209-.014-.192-.009-.386-.014-.58-.014H43.037c-.193,0-.384.005-.575.014-.068,0-.135.009-.2.014-.122.008-.244.016-.365.027-.08.008-.159.018-.238.027-.108.013-.216.025-.323.04-.082.012-.164.026-.246.04s-.143.021-.214.035l-.539.1v.017a11.892,11.892,0,0,0-8.737,8.363v0c-.02.07-.032.112-.045.155s-.026.09-.04.146l-.05.2.077.2a26,26,0,0,0,6.555,9.564v.006l.217.2c.048.043.1.084.148.127q.267.238.542.468c.094.079.188.159.283.237q.338.277.686.541c.053.041.1.083.158.123q.394.3.8.577l.07.046c.086.059.173.115.259.173.213.143.428.284.646.422.108.068.217.134.325.2q.307.187.62.366c.11.063.221.126.332.188.226.125.454.245.685.363.093.048.185.1.278.144q.487.243.984.466l.1.041q.449.2.907.38c.109.043.219.084.329.126q.35.134.7.258.186.065.374.127.349.115.7.221c.121.036.242.074.364.108.276.078.555.151.835.221.079.02.157.042.237.061q.538.128,1.085.233c.094.018.19.033.284.05.273.05.546.1.822.137.131.019.262.036.394.054q.369.049.741.088c.137.014.273.028.411.04.26.023.521.041.783.056.121.007.241.016.363.021.381.017.764.027,1.149.027q.607,0,1.208-.028c.142-.007.282-.019.422-.028.235-.014.47-.026.7-.047l.6-.053v-.014a25.813,25.813,0,0,0,6.517-1.6l.419-.164V142.768A12.25,12.25,0,0,0,62.1,134.132Zm-8.406-2.2c.174,0,.347,0,.519.013.056,0,.112.008.168.012.115.007.229.015.343.026.068.007.136.016.2.023l.153.02v8.65h-1.9v-8.744Zm3.627,23.135-.072.005c-.132.008-.264.021-.4.027-.381.017-.763.027-1.148.027-.366,0-.73-.01-1.092-.026-.115-.005-.229-.013-.344-.02-.249-.014-.5-.031-.744-.053-.13-.011-.259-.024-.388-.038q-.355-.037-.707-.084c-.124-.017-.248-.032-.371-.051-.263-.039-.524-.083-.785-.131-.088-.016-.177-.03-.265-.047q-.52-.1-1.031-.222c-.075-.018-.148-.038-.223-.057-.266-.066-.531-.135-.794-.21-.116-.033-.231-.068-.346-.1q-.333-.1-.663-.209-.181-.06-.36-.122c-.222-.077-.441-.158-.66-.242-.107-.041-.214-.08-.32-.122q-.424-.168-.839-.352l-.114-.048q-.469-.21-.928-.44c-.093-.046-.185-.1-.278-.144-.214-.11-.426-.222-.636-.338-.108-.06-.215-.121-.322-.182q-.3-.169-.585-.345c-.1-.063-.206-.125-.308-.189-.211-.133-.42-.27-.626-.409-.076-.051-.154-.1-.23-.153q-.423-.291-.833-.6c-.038-.028-.074-.058-.112-.087q-.35-.266-.69-.544c-.086-.07-.169-.142-.254-.213q-.226-.19-.447-.386v-6.972H57.324v13.075Zm-5.46-23.135v8.743H44.872v-8.743Zm-8.308,0v8.743h-1.9v-8.651l.163-.02c.068-.008.135-.017.2-.023.111-.011.224-.018.337-.025.056,0,.112-.009.169-.012q.255-.012.513-.013h.518Zm-10.706,7.774.017-.06v0h0a10.532,10.532,0,0,1,2.817-4.728h0a10.542,10.542,0,0,1,4.651-2.632v8.392H38.1v7.042A24.669,24.669,0,0,1,32.849,139.706Zm23.552.969v-8.392a10.429,10.429,0,0,1,4.754,2.764l.008.009h0a10.93,10.93,0,0,1,3.1,7.712v10.827a24.474,24.474,0,0,1-5.619,1.352v-14.27Z" transform="translate(-31.464 -130.615)"/></g><g class="f" transform="translate(2478.329 1866)"><g transform="translate(-8.559 0)"><rect width="44.655" height="9.159" transform="translate(0 0)"/><rect class="g" width="44.655" height="9.233" transform="translate(0 18.304)"/><rect class="h" width="44.655" height="9.145" transform="translate(0 9.159)"/></g></g><path class="a" d="M2200.475-1740.34l1.037,2.322-2.171,1.635-3.452.91.644,3.476,3.122,3.4-3.122.318-1.665-.76-1.261-1.229s-.951-5.792,1.261-9.3a20.335,20.335,0,0,1,2.545-3.741,9.459,9.459,0,0,1,4.789-2.61c.884-.045,5.622-.1,7.157,1.674s4.283,4.574,4.512,7.087,1.07,5.628.449,6.894a4.774,4.774,0,0,1-2.528,1.988,8.477,8.477,0,0,1-3.485,0c-1.1-.135,2.451-2.775,3.008-3.537s.849-3.665.86-4.209-.281-.2-.86-.357-.34.218-1.955.357-4.533.186-5.62-.615A27.469,27.469,0,0,1,2200.475-1740.34Z" transform="translate(295.599 3636.086)"/><path class="c" d="M75.279,64.371A15.666,15.666,0,0,0,71.9,55.694a11.651,11.651,0,0,0-3.232-2.75A9.4,9.4,0,0,0,64.74,51.73q-.353-.027-.7-.027a9.385,9.385,0,0,0-4.453,1.137,12.355,12.355,0,0,0-4.952,5.153,16.691,16.691,0,0,0-1.895,7.844v.046a5.4,5.4,0,0,0,1.151,3.387,4.128,4.128,0,0,0,1.281,1.064,3.455,3.455,0,0,0,1.611.4H71.293a3.448,3.448,0,0,0,1.623-.411,4.372,4.372,0,0,0,1.762-1.809,5.679,5.679,0,0,0,.66-2.684h0v-.016Q75.337,65.1,75.279,64.371Zm-2.109,4.052a2.814,2.814,0,0,1-.871.74,2.128,2.128,0,0,1-1.005.257H56.78a2.137,2.137,0,0,1-1-.253,3.045,3.045,0,0,1-1.22-1.251,4.257,4.257,0,0,1-.506-2.038v-.043a14.761,14.761,0,0,1,2.975-9.12A10.262,10.262,0,0,1,60.206,54a8.067,8.067,0,0,1,3.832-.981q.3,0,.6.023a8.087,8.087,0,0,1,3.378,1.048,11.048,11.048,0,0,1,4.019,4.1,14.9,14.9,0,0,1,1.929,6.286q.055.676.055,1.339h0v.006A4.182,4.182,0,0,1,73.169,68.423Z" transform="translate(2435.53 1837.683)"/><path class="d" d="M72.792,64.477a8.171,8.171,0,0,1,8.04,6.722,8.171,8.171,0,1,0-16.08,0A8.171,8.171,0,0,1,72.792,64.477Z" transform="translate(2426.776 1830.408)"/><g transform="translate(2490.767 1894.824)"><path class="c" d="M79.42,76.766a1.45,1.45,0,0,0-1.012-.416,1.423,1.423,0,0,0-.576.122h0a7.6,7.6,0,0,1-10.108-4.123l-1.222.492a8.9,8.9,0,0,0,1.483,2.441,6.277,6.277,0,0,1-4.433,1.826c-.024,0-.048,0-.072,0a1.256,1.256,0,0,0-.877.358,1.234,1.234,0,0,0-.374.884c0,.036,0,.072,0,.108a8.83,8.83,0,0,0,8.8,8.059q.279,0,.562-.017a8.873,8.873,0,0,0,8.265-8.6v-.086A1.454,1.454,0,0,0,79.42,76.766Zm-2.984,6.112a7.471,7.471,0,0,1-4.925,2.3q-.242.015-.48.015a7.511,7.511,0,0,1-7.475-6.77,7.6,7.6,0,0,0,5.355-2.205,8.97,8.97,0,0,0,.818.643,8.928,8.928,0,0,0,8.635.815h0l.044-.01a.138.138,0,0,1,.092.041.13.13,0,0,1,.041.1v.056A7.5,7.5,0,0,1,76.436,82.878Z" transform="translate(-62.23 -72.349)"/><path class="c" d="M62.246,95.522h0Z" transform="translate(-62.242 -89.418)"/></g></g></g></svg>