<svg xmlns="http://www.w3.org/2000/svg" xmlns:xlink="http://www.w3.org/1999/xlink" width="76" height="76" viewBox="0 0 76 76"><defs><style>.a{fill:#fff;}.b{fill:none;}.c{clip-path:url(#a);}.d{fill:#062493;}.e{fill:#ec2938;}.f{fill:#02c09d;}.g{fill:#091f3a;}</style><clipPath id="a"><rect class="a" width="30.233" height="30.233" rx="15.117" transform="translate(0 0)"/></clipPath></defs><g transform="translate(-327 -1369)"><g transform="translate(327 1369)"><rect class="b" width="76" height="76"/></g><g transform="translate(-3633 -4663)"><g class="c" transform="translate(3973.669 6035)"><g transform="translate(-9.397 0.409)"><rect class="d" width="16.126" height="29.79" transform="translate(0)"/><rect class="e" width="16.476" height="29.79" transform="translate(32.551)"/><rect class="a" width="16.425" height="29.79" transform="translate(16.126)"/></g></g><g transform="translate(3968 6045.393)"><ellipse class="f" cx="3.26" cy="4.657" rx="3.26" ry="4.657" transform="translate(0.563 47.174)"/><ellipse class="f" cx="3.26" cy="4.657" rx="3.26" ry="4.657" transform="translate(52.719 47.174)"/><ellipse class="f" cx="2.328" cy="3.26" rx="2.328" ry="3.26" transform="translate(50.856 49.968)"/><ellipse class="f" cx="2.794" cy="3.992" rx="2.794" ry="3.992" transform="translate(4.288 49.436)"/><g transform="translate(0 0)"><path class="g" d="M513,507.96c0-2.854-1.6-5.088-3.634-5.088a3.478,3.478,0,0,0-2.966,2.239,2.348,2.348,0,0,0-.436-.059c-1.76,0-3.141,1.916-3.141,4.362,0,2.1,1.016,3.792,2.414,4.238v.85H495.22l-5.529-8.294-2.856-11.368-1.454-31.981a.728.728,0,0,0-.727-.695h-.726v-5.088a.727.727,0,1,0-1.454,0v5.088h-.727a.726.726,0,0,0-.726.695l-1.432,31.84-2.877,11.509L471.18,514.5H461.159v-.85c1.4-.445,2.414-2.142,2.414-4.238,0-2.446-1.38-4.362-3.141-4.362a2.253,2.253,0,0,0-.435.06,3.489,3.489,0,0,0-2.966-2.24c-2.039,0-3.635,2.234-3.635,5.088,0,2.5,1.229,4.529,2.908,4.989V514.5h-2.18a.727.727,0,1,0,0,1.454h58.153a.727.727,0,0,0,0-1.454H510.1v-1.553C511.774,512.489,513,510.465,513,507.96Zm-3.634-3.634c1.181,0,2.18,1.663,2.18,3.634s-1,3.635-2.18,3.635a1.528,1.528,0,0,1-1.025-.454,4.364,4.364,0,0,1-1.156-3.181,5.275,5.275,0,0,1,.284-1.724C507.85,505.076,508.593,504.326,509.369,504.326Zm-3.481,2.183c-.01.047-.007.1-.015.144a6.592,6.592,0,0,0,.91,4.883c.051.076.1.159.158.23a1.3,1.3,0,0,1-.974.555c-.9,0-1.687-1.359-1.687-2.908C504.28,507.911,505.024,506.586,505.887,506.509Zm-29.553,2.883,1.7,1.7a7.012,7.012,0,0,0-1.184,2.575l-2.019-2.019Zm1.439-2.158h4.7v1.523a6.217,6.217,0,0,0-3.441,1.278l-1.875-1.876Zm.905-2.908h1.41l-.364,1.454h-1.409Zm.724-2.908h1.412l-.363,1.454h-1.41Zm.723-2.908h1.417l-.363,1.454h-1.415Zm5.149-5.815.08,1.454h-4.3l.066-1.454Zm2.095,17.339a6.214,6.214,0,0,0-3.441-1.278v-1.523h4.7l.618.926Zm-1.42-7.162-.363-1.454h1.409l.363,1.454Zm-.727-2.908-.363-1.454h1.41l.363,1.454Zm.32-4.362.363,1.454h-1.411l-.363-1.454Zm-2.341,2.27,1.978,7.907h-3.956Zm3.474,7.907-.363-1.454h1.41l.364,1.454ZM480.847,495.6h1.422l-.363,1.454h-1.42Zm2.353,14.538a4.741,4.741,0,0,1,5.017,4.361H478.183A4.741,4.741,0,0,1,483.2,510.141Zm6.351,3.525a7.012,7.012,0,0,0-1.184-2.575l1.7-1.7,1.5,2.255ZM485.2,491.241h-1.274V463.618h.031Zm-2.76-27.623h.032v27.623h-1.287Zm-20.322,45.8c0,1.549-.788,2.908-1.687,2.908a1.3,1.3,0,0,1-.974-.554,6.355,6.355,0,0,0,1.068-5.119c-.008-.046,0-.1-.015-.14C461.377,506.587,462.119,507.911,462.119,509.414Zm-7.269-1.454c0-1.971,1-3.634,2.181-3.634.772,0,1.517.751,1.9,1.926a5.254,5.254,0,0,1,.279,1.708,4.354,4.354,0,0,1-1.166,3.19,1.507,1.507,0,0,1-1.014.445C455.848,511.6,454.85,509.931,454.85,507.96Zm2.908,4.943a2.785,2.785,0,0,0,.578-.229,2.936,2.936,0,0,0,1.37.985v.844h-1.948Zm16.25-.021,1.621,1.621h-2.7ZM490.77,514.5l1.622-1.622,1.081,1.622Zm15.924,0v-.844a2.941,2.941,0,0,0,1.37-.985,2.8,2.8,0,0,0,.577.228v1.6Z" transform="translate(-453.396 -456.349)"/></g></g></g></g></svg>