<?xml version="1.0" encoding="utf-8"?>
<!-- Generator: Adobe Illustrator 23.1.1, SVG Export Plug-In . SVG Version: 6.00 Build 0)  -->
<svg version="1.1" id="Layer_1" xmlns="http://www.w3.org/2000/svg" xmlns:xlink="http://www.w3.org/1999/xlink" x="0px" y="0px"
	 viewBox="0 0 76 76" style="enable-background:new 0 0 76 76;" xml:space="preserve">
<style type="text/css">
	.st0{opacity:0;}
	.st1{fill:#8C8DC4;}
	.st2{fill:#4E59A4;}
	.st3{fill:#494BDE;}
</style>
<g transform="translate(-1366 -1433)">
	<g transform="translate(1366 1433)" class="st0">
		<rect width="76" height="76"/>
	</g>
	<g transform="translate(-11 -3)">
		<circle class="st1" cx="1397.9" cy="1454.9" r="15.9"/>
		<circle class="st2" cx="1395.5" cy="1472.1" r="4.9"/>
		<circle class="st1" cx="1418.7" cy="1461" r="4.9"/>
		<circle class="st3" cx="1442" cy="1472.1" r="4.9"/>
		<g transform="translate(1389.59 1454.915)">
			<path d="M28.3,37.3v15.8c0,0.5,0.4,1,1,1s1-0.4,1-1V37.3c0-0.5-0.4-1-1-1S28.3,36.8,28.3,37.3z"/>
			<path d="M42.4,33.3c0-0.5-0.4-1-1-1H17c-0.5,0-1,0.4-1,1s0.4,1,1,1l0,0h24.4C42,34.3,42.4,33.8,42.4,33.3z"/>
			<path d="M35.1,5.7c0-3.2-2.6-5.7-5.7-5.7s-5.7,2.6-5.7,5.7s2.6,5.7,5.7,5.7l0,0C32.5,11.5,35.1,8.9,35.1,5.7z M25.5,5.7
				c0-2.1,1.7-3.8,3.8-3.8c2.1,0,3.8,1.7,3.8,3.8s-1.7,3.8-3.8,3.8l0,0C27.2,9.5,25.5,7.8,25.5,5.7z"/>
			<path d="M21.6,19.4v9.8c0,0.5,0.4,1,1,1c0.5,0,1-0.4,1-1v-9.8c0-2.3,1.8-4.1,4.1-4.1h3.2c2.1,0,3.8,1.6,4.1,3.6
				c0,0.2,0,0.3,0,0.5v9.8c0,0.5,0.4,1,1,1s1-0.4,1-1l0,0v-9.8c0-0.2,0-0.5,0-0.7c-0.4-3.1-2.9-5.4-6-5.4h-3.2
				C24.3,13.3,21.6,16.1,21.6,19.4z"/>
			<path d="M52.8,11.6c-3.1,0-5.7,2.6-5.7,5.7s2.6,5.7,5.7,5.7c3.1,0,5.7-2.6,5.7-5.7v0C58.5,14.1,56,11.6,52.8,11.6z M52.8,21.1
				c-2.1,0-3.8-1.7-3.8-3.8s1.7-3.8,3.8-3.8c2.1,0,3.8,1.7,3.8,3.8l0,0C56.6,19.4,54.9,21.1,52.8,21.1z"/>
			<path d="M53.2,24.3h-1.3c-2.9,0-5.3,2.4-5.3,5.3v7.3h-3.1c-3.2,0-5.8,2.6-5.8,5.8v9.1c0,1.3,1.1,2.4,2.4,2.4h3.9
				c1.3,0,2.4-1.1,2.4-2.4v-5.8h6.4c3.1,0,5.6-2.5,5.7-5.7V29.5C58.5,26.6,56.1,24.3,53.2,24.3z M56.6,40.2c0,2.1-1.7,3.7-3.7,3.7
				h-7.3c-0.5,0-1,0.4-1,1v6.8c0,0.3-0.2,0.5-0.5,0.5h-3.9c-0.3,0-0.5-0.2-0.5-0.5v-9.1c0-2.1,1.7-3.9,3.9-3.9h4.1c0.5,0,1-0.4,1-1
				v-8.2c0-1.8,1.5-3.3,3.3-3.3h1.3c1.8,0,3.3,1.5,3.3,3.3V40.2z"/>
			<path d="M5.7,23c3.1,0,5.7-2.6,5.7-5.7s-2.6-5.7-5.7-5.7S0,14.1,0,17.3c0,0,0,0,0,0C0,20.4,2.6,23,5.7,23z M5.7,13.5
				c2.1,0,3.8,1.7,3.8,3.8s-1.7,3.8-3.8,3.8c-2.1,0-3.8-1.7-3.8-3.8C1.9,15.2,3.6,13.5,5.7,13.5z"/>
			<path d="M14.5,54.1h3.9c1.3,0,2.4-1.1,2.4-2.4v-9.1c0-3.2-2.6-5.8-5.8-5.8h-3.1v-7.3c0-2.9-2.4-5.3-5.3-5.3H5.3
				c-2.9,0-5.3,2.4-5.3,5.3v10.7c0,3.1,2.5,5.6,5.7,5.7H12v5.8C12,53,13.1,54.1,14.5,54.1z M5.7,43.9c-2.1,0-3.7-1.7-3.7-3.7V29.5
				c0-1.8,1.5-3.3,3.3-3.3h1.3c1.8,0,3.3,1.5,3.3,3.3v8.2c0,0.5,0.4,1,1,1H15c2.1,0,3.9,1.7,3.9,3.9v9.1c0,0.3-0.2,0.5-0.5,0.5h-3.9
				c-0.3,0-0.5-0.2-0.5-0.5v-6.8c0-0.5-0.4-1-1-1L5.7,43.9z"/>
		</g>
	</g>
</g>
</svg>
