<svg xmlns="http://www.w3.org/2000/svg" xmlns:xlink="http://www.w3.org/1999/xlink" width="76" height="76" viewBox="0 0 76 76"><defs><style>.a{fill:#fff;}.b{fill:none;}.c{clip-path:url(#a);}.d{fill:#009246;}.e{fill:#ce2b37;}.f{fill:#0073de;fill-rule:evenodd;}.g{fill:#091f3a;}</style><clipPath id="a"><rect class="a" width="28.322" height="28.322" rx="14.161"/></clipPath></defs><g transform="translate(-326 -1500)"><g transform="translate(326 1500)"><rect class="b" width="76" height="76"/></g><g transform="translate(47 4)"><g class="c" transform="translate(282 1500)"><g transform="translate(-8.803 0.014)"><rect class="d" width="15.192" height="28.309" transform="translate(0 0)"/><rect class="e" width="15.397" height="28.309" transform="translate(30.487 0)"/><rect class="a" width="15.295" height="28.309" transform="translate(15.192 0)"/></g></g><g transform="translate(296.161 1511.554)"><path class="f" d="M572.23,609.852h-5.265v-4.394h0c0-.022,0-.044,0-.065,0-1.874,1.179-3.393,2.633-3.393s2.632,1.519,2.632,3.393c0,.022,0,.044,0,.065h0Z" transform="translate(-560.846 -554.885)"/><path class="f" d="M603.23,609.852h-5.265v-4.394h0c0-.022,0-.044,0-.065,0-1.874,1.179-3.393,2.633-3.393s2.632,1.519,2.632,3.393c0,.022,0,.044,0,.065h0Z" transform="translate(-564.799 -554.885)"/><path class="f" d="M588.231,593.852h-5.266v-4.394h0c0-.022,0-.044,0-.065,0-1.874,1.179-3.393,2.633-3.393s2.632,1.519,2.632,3.393c0,.022,0,.044,0,.065h0Z" transform="translate(-562.886 -552.845)"/><path class="f" d="M572.23,578.852h-5.265v-4.394h0c0-.022,0-.044,0-.065,0-1.874,1.179-3.393,2.633-3.393s2.632,1.519,2.632,3.393c0,.022,0,.044,0,.065h0Z" transform="translate(-560.846 -550.932)"/><g transform="translate(0)"><path class="g" d="M612.387,567.068h-20.58l-.53-2.123V562.3a.682.682,0,0,0-.681-.681H580.231l-2.574-10.295v-2.644a.681.681,0,0,0-.681-.681H560.633a.681.681,0,0,0-.68.681v54.477a.682.682,0,0,0,.68.681H615.11a.682.682,0,0,0,.681-.681V570.472A3.408,3.408,0,0,0,612.387,567.068ZM596.07,594.306h-.053a3.383,3.383,0,0,0-3.378,3.378v4.794h-1.362v-9.534h9.534v9.534h-1.362v-4.794A3.383,3.383,0,0,0,596.07,594.306Zm-13.62,0H582.4a3.383,3.383,0,0,0-3.378,3.378v4.794h-1.362v-9.534h9.534v9.534h-1.362v-4.794A3.383,3.383,0,0,0,582.45,594.306Zm-13.62,0h-.053a3.383,3.383,0,0,0-3.378,3.378v4.794h-1.361v-9.534h9.533v9.534h-1.362v-4.794A3.383,3.383,0,0,0,568.831,594.306Zm6.1-1.362h1.362v9.534h-1.362Zm13.62,0h1.362v9.534h-1.362Zm13.62,0h1.362v9.534h-1.362Zm-40.858-1.362V590.22h53.115v1.362Zm12.257-39.5v9.534h-1.362v-4.793a3.382,3.382,0,0,0-3.378-3.378h-.053a3.382,3.382,0,0,0-3.378,3.378v4.793h-1.361v-9.534Zm16.344,10.9v1.362h-28.6v-1.362Zm24.515,25.877h-6.96l-.34-1.362h5.258a.681.681,0,0,0,0-1.362h-5.448c-.053,0-.086.045-.136.057l-.354-1.419h7.981Zm-14.981,0v-4.793a3.383,3.383,0,0,0-3.378-3.378h-.053a3.383,3.383,0,0,0-3.378,3.378v4.793h-1.362v-9.534h9.534v9.534Zm-1.362,0H594v-4.793a2.018,2.018,0,0,1,2.016-2.016h.053a2.019,2.019,0,0,1,2.016,2.016Zm-9.534,0v-9.534h1.362v9.534Zm-2.724,0v-4.793a3.383,3.383,0,0,0-3.378-3.378H582.4a3.383,3.383,0,0,0-3.378,3.378v4.793h-1.362v-9.534h9.534v9.534Zm-1.362,0h-4.086v-4.793a2.019,2.019,0,0,1,2.016-2.016h.053a2.018,2.018,0,0,1,2.016,2.016Zm-9.534,0v-9.534h1.362v9.534Zm-2.724,0v-4.793a3.383,3.383,0,0,0-3.378-3.378h-.053a3.383,3.383,0,0,0-3.378,3.378v4.793h-1.361v-9.534h9.533v9.534Zm-1.362,0h-4.086v-4.793a2.019,2.019,0,0,1,2.016-2.016h.053a2.018,2.018,0,0,1,2.016,2.016Zm-9.533,0v-9.534h1.362v9.534Zm12.257-23.153v9.533h-1.362v-4.793a3.382,3.382,0,0,0-3.378-3.378h-.053a3.382,3.382,0,0,0-3.378,3.378v4.793h-1.361v-9.533Zm2.724,0v9.533h-1.362v-9.533Zm10.9,0v9.533h-1.362v-4.793a3.382,3.382,0,0,0-3.378-3.378H582.4a3.382,3.382,0,0,0-3.378,3.378v4.793h-1.362v-9.533Zm2.874,0,2.384,9.533h-3.9v-9.533Zm-5.6,9.533h-4.086v-4.793a2.018,2.018,0,0,1,2.016-2.016h.053a2.018,2.018,0,0,1,2.016,2.016Zm-13.62,0h-4.086v-4.793a2.018,2.018,0,0,1,2.016-2.016h.053a2.018,2.018,0,0,1,2.016,2.016Zm-8.171,0h-1.362v-9.533h1.362Zm40.858,1.363v1.362h-42.22V576.6Zm-1.362,2.723h1.512l2.384,9.534h-3.9Zm3.935,4.086-.34-1.362h8.662v1.362Zm-.68-2.724-.34-1.362h4.576a.681.681,0,0,0,0-1.361H604.9V575.92a.683.683,0,0,0-.681-.681H593.85l-.341-1.362h5.258a.681.681,0,1,0,0-1.361h-5.6l-.34-1.362h21.6v9.533Zm-34.58-19.067h-4.086v-4.793a2.019,2.019,0,0,1,2.016-2.016h.053a2.018,2.018,0,0,1,2.016,2.016Zm-8.171,0h-1.362v-9.534h1.362Zm49.711,6.81a2.03,2.03,0,0,1,1.9,1.362h-21.8l-.341-1.362Zm-37.454-6.81v-9.534h1.513l2.383,9.534Zm-13.619-12.258h14.981v1.362H561.314Zm0,43.582h1.362v9.534h-1.362Zm5.447,9.534v-4.794a2.019,2.019,0,0,1,2.016-2.016h.053a2.018,2.018,0,0,1,2.016,2.016v4.794Zm13.62,0v-4.794a2.019,2.019,0,0,1,2.016-2.016h.053a2.018,2.018,0,0,1,2.016,2.016v4.794Zm13.62,0v-4.794a2.018,2.018,0,0,1,2.016-2.016h.053a2.019,2.019,0,0,1,2.016,2.016v4.794Zm13.646,0v-4.794a2.019,2.019,0,0,1,2.016-2.016h.053a2.019,2.019,0,0,1,2.016,2.016v4.794Zm5.448,0v-4.794a3.383,3.383,0,0,0-3.378-3.378h-.053a3.383,3.383,0,0,0-3.378,3.378v4.794H604.9v-9.534h9.533v9.534Z" transform="translate(-559.952 -548)"/></g></g></g></g></svg>