<svg xmlns="http://www.w3.org/2000/svg" xmlns:xlink="http://www.w3.org/1999/xlink" width="76" height="76" viewBox="0 0 76 76"><defs><style>.a,.f{fill:#fff;}.b,.g,.j{fill:none;}.c{clip-path:url(#a);}.d{fill:#fecd17;}.e{fill:#dc0201;}.f,.g,.h,.i,.j{stroke:#091f3a;}.f,.h{stroke-miterlimit:10;}.g,.j{stroke-linecap:round;stroke-width:1.306px;}.g{stroke-linejoin:round;}.h,.i{fill:#ffe01b;}</style><clipPath id="a"><rect class="a" width="33.388" height="33.388" rx="16.694"/></clipPath></defs><g transform="translate(-327 -1621)"><g transform="translate(327 1621)"><rect class="b" width="76" height="76"/></g><g transform="translate(42 -5)"><g class="c" transform="translate(288 1631)"><g transform="translate(-10.377)"><rect width="54.143" height="11.105" transform="translate(0 0)"/><rect class="d" width="54.143" height="11.195" transform="translate(0 22.193)"/><rect class="e" width="54.143" height="11.088" transform="translate(0 11.105)"/></g></g><g transform="translate(292.173 1631)"><path class="f" d="M598.378,196.61v-9.768l-6.252-5.289-6.252,5.289v9.768" transform="translate(-559.212 -157.147)"/><path class="g" d="M595.476,186.842h2.9l-6.252-5.289-6.252,5.289h2.875" transform="translate(-559.212 -157.147)"/><path class="h" d="M598.378,219.394h-12.5V196.478a10.09,10.09,0,0,1,3.106-7.194l3.146-3.1,3.146,3.1a10.094,10.094,0,0,1,3.106,7.194Z" transform="translate(-559.212 -157.015)"/><path class="f" d="M594,192.837a2.733,2.733,0,0,0-3.746,0l-1.273,1.253a10.09,10.09,0,0,0-3.106,7.194v17.943h12.5V201.283a10.094,10.094,0,0,0-3.106-7.194Z" transform="translate(-559.212 -156.846)"/><g transform="translate(26.661 29.172)"><path class="g" d="M585.873,219.394V196.478a10.09,10.09,0,0,1,3.106-7.194l3.146-3.1,3.146,3.1a10.094,10.094,0,0,1,3.106,7.194v22.917" transform="translate(-585.873 -186.187)"/><path class="g" d="M598.378,219.226V201.283a10.094,10.094,0,0,0-3.106-7.194L594,192.837a2.733,2.733,0,0,0-3.746,0l-1.273,1.253a10.09,10.09,0,0,0-3.106,7.194v17.943" transform="translate(-585.873 -186.018)"/></g><line class="g" y2="8.144" transform="translate(32.914 35.248)"/><line class="g" x2="12.39" transform="translate(26.719 43.392)"/><path class="f" d="M598.378,222.357h-12.5v-8.874a10.094,10.094,0,0,1,3.106-7.195l3.146-3.1,3.146,3.1a10.1,10.1,0,0,1,3.106,7.195Z" transform="translate(-559.212 -156.529)"/><path class="f" d="M592.126,208.028l-3.146,3.1a10.09,10.09,0,0,0-3.106,7.194v3.9h12.5v-3.9a10.094,10.094,0,0,0-3.106-7.194Z" transform="translate(-559.212 -156.391)"/><path class="f" d="M592.017,213.727l-1.172,1.153a3.755,3.755,0,0,0-1.157,2.678v4.5h4.656v-4.5a3.758,3.758,0,0,0-1.156-2.678Z" transform="translate(-559.103 -156.229)"/><path class="f" d="M571.514,223.055V182.73a2.348,2.348,0,0,1,.222-.992l1.412-3.02,1.411,3.02a2.347,2.347,0,0,1,.222.992v40.325Z" transform="translate(-559.622 -157.228)"/><path class="f" d="M580.442,161.29,574.691,173.7v28.821h11.5V173.7Z" transform="translate(-559.531 -157.725)"/><path class="g" d="M586.192,202.518V173.7l-5.751-12.407L574.691,173.7v28.821" transform="translate(-559.531 -157.725)"/><path class="f" d="M583.238,188.717V175.95a4.111,4.111,0,0,0-.392-1.743l-2.484-5.315-2.484,5.315a4.111,4.111,0,0,0-.392,1.743v12.767Z" transform="translate(-559.451 -157.508)"/><path class="i" d="M580.362,168.891l-2.484,5.315a4.111,4.111,0,0,0-.392,1.743v.653l1.942-1.7a1.452,1.452,0,0,1,1.868,0l1.942,1.7v-.653a4.111,4.111,0,0,0-.392-1.743Z" transform="translate(-559.451 -157.508)"/><path class="g" d="M577.486,176.446l1.942-1.7a1.452,1.452,0,0,1,1.868,0l1.942,1.7" transform="translate(-559.451 -157.351)"/><path class="g" d="M583.238,188.717V175.95a4.111,4.111,0,0,0-.392-1.743l-2.484-5.315-2.484,5.315a4.111,4.111,0,0,0-.392,1.743v12.767" transform="translate(-559.451 -157.508)"/><line class="g" y1="6.438" transform="translate(20.911 17.058)"/><path class="f" d="M585.8,197.374l-2.484-5.316-2.485,5.316a4.109,4.109,0,0,0-.391,1.743,4.109,4.109,0,0,0-.391-1.743l-2.485-5.316-2.484,5.316a4.111,4.111,0,0,0-.391,1.743v23.558h11.5V199.117A4.109,4.109,0,0,0,585.8,197.374Z" transform="translate(-559.531 -156.847)"/><path class="f" d="M580.362,199.442a4.11,4.11,0,0,1,.391-1.743l2.485-5.315v-4.655a4.112,4.112,0,0,0-.392-1.743l-2.484-5.315-2.484,5.315a4.111,4.111,0,0,0-.392,1.743v4.655l2.485,5.315A4.109,4.109,0,0,1,580.362,199.442Z" transform="translate(-559.451 -157.172)"/><path class="i" d="M577.566,192.058l-2.484,5.316a4.111,4.111,0,0,0-.391,1.743v.653l1.942-1.7a1.45,1.45,0,0,1,1.867,0l1.942,1.7v-.653a4.109,4.109,0,0,0-.391-1.743Z" transform="translate(-559.531 -156.847)"/><path class="g" d="M574.691,199.612l1.942-1.7a1.45,1.45,0,0,1,1.867,0l1.942,1.7" transform="translate(-559.531 -156.69)"/><path class="g" d="M574.691,211.223V199.117a4.111,4.111,0,0,1,.391-1.743l2.484-5.316,2.485,5.316a4.109,4.109,0,0,1,.391,1.743v12.106" transform="translate(-559.531 -156.847)"/><path class="g" d="M571.514,185V182.73a2.348,2.348,0,0,1,.222-.992l1.412-3.02,1.411,3.02a2.347,2.347,0,0,1,.222.992v40.325" transform="translate(-559.622 -157.228)"/><line class="g" y1="0.496" transform="translate(11.893 30.366)"/><line class="g" y1="32.611" transform="translate(11.893 33.216)"/><path class="f" d="M577.566,203.192l-2.484,5.315a4.112,4.112,0,0,0-.391,1.744v.653l1.942-1.7a1.448,1.448,0,0,1,1.867,0l1.942,1.7v-.653a4.111,4.111,0,0,0-.391-1.744Z" transform="translate(-559.531 -156.529)"/><path class="g" d="M574.691,210.748l1.942-1.7a1.448,1.448,0,0,1,1.867,0l1.942,1.7" transform="translate(-559.531 -156.372)"/><path class="g" d="M574.691,222.357v-12.1a4.112,4.112,0,0,1,.391-1.744l2.484-5.315,2.485,5.315a4.111,4.111,0,0,1,.391,1.744v12.1" transform="translate(-559.531 -156.529)"/><line class="g" y2="13.488" transform="translate(18.035 52.339)"/><line class="g" y1="5.776" transform="translate(18.035 40.887)"/><path class="f" d="M583.158,192.058l-2.485,5.316a4.111,4.111,0,0,0-.391,1.743v.653l1.942-1.7a1.451,1.451,0,0,1,1.867,0l1.942,1.7v-.653a4.109,4.109,0,0,0-.391-1.743Z" transform="translate(-559.371 -156.847)"/><path class="g" d="M580.282,199.612l1.942-1.7a1.451,1.451,0,0,1,1.867,0l1.942,1.7" transform="translate(-559.371 -156.69)"/><path class="g" d="M580.282,211.223V199.117a4.111,4.111,0,0,1,.391-1.743l2.485-5.316,2.484,5.316a4.109,4.109,0,0,1,.391,1.743v12.106" transform="translate(-559.371 -156.847)"/><path class="f" d="M583.158,203.192l-2.485,5.315a4.113,4.113,0,0,0-.391,1.744v.653l1.942-1.7a1.448,1.448,0,0,1,1.867,0l1.942,1.7v-.653a4.111,4.111,0,0,0-.391-1.744Z" transform="translate(-559.371 -156.529)"/><path class="g" d="M580.282,210.748l1.942-1.7a1.448,1.448,0,0,1,1.867,0l1.942,1.7" transform="translate(-559.371 -156.372)"/><path class="g" d="M580.282,222.357v-12.1a4.113,4.113,0,0,1,.391-1.744l2.485-5.315,2.484,5.315a4.111,4.111,0,0,1,.391,1.744v12.1" transform="translate(-559.371 -156.529)"/><path class="g" d="M585.873,222.357v-8.874a10.094,10.094,0,0,1,3.106-7.195l3.146-3.1,3.146,3.1a10.1,10.1,0,0,1,3.106,7.195v8.874" transform="translate(-559.212 -156.529)"/><path class="g" d="M598.378,222.219v-3.9a10.094,10.094,0,0,0-3.106-7.194l-3.146-3.1-3.146,3.1a10.09,10.09,0,0,0-3.106,7.194v3.9" transform="translate(-559.212 -156.391)"/><path class="g" d="M594.344,222.056v-4.5a3.758,3.758,0,0,0-1.156-2.678l-1.171-1.153-1.172,1.153a3.755,3.755,0,0,0-1.157,2.678v4.5" transform="translate(-559.103 -156.229)"/><line class="g" y2="13.488" transform="translate(23.786 52.339)"/><line class="g" y1="5.776" transform="translate(23.786 40.887)"/><path class="f" d="M580.362,180.669l-2.484,5.315a4.111,4.111,0,0,0-.392,1.743v.653l1.942-1.7a1.452,1.452,0,0,1,1.868,0l1.942,1.7v-.653a4.112,4.112,0,0,0-.392-1.743Z" transform="translate(-559.451 -157.172)"/><path class="g" d="M577.486,188.224l1.942-1.7a1.452,1.452,0,0,1,1.868,0l1.942,1.7" transform="translate(-559.451 -157.015)"/><path class="g" d="M580.362,199.442a4.11,4.11,0,0,1,.391-1.743l2.485-5.315v-4.655a4.112,4.112,0,0,0-.392-1.743l-2.484-5.315-2.484,5.315a4.111,4.111,0,0,0-.392,1.743v4.655l2.485,5.315A4.109,4.109,0,0,1,580.362,199.442Z" transform="translate(-559.451 -157.172)"/><line class="g" y1="13.75" transform="translate(20.911 29.173)"/><line class="g" y1="3.564" transform="translate(20.911 0)"/><line class="g" x2="3.968" transform="translate(18.927 1.782)"/><line class="g" x2="3.606" transform="translate(15.16 15.972)"/><line class="g" x1="3.606" transform="translate(23.056 15.972)"/><line class="g" x1="3.267" transform="translate(11.893 46.146)"/><line class="g" x1="3.267" transform="translate(11.893 35.533)"/><path class="f" d="M612.481,223.055V182.73a2.332,2.332,0,0,0-.223-.992l-1.411-3.02-1.411,3.02a2.333,2.333,0,0,0-.222.992v40.325Z" transform="translate(-558.546 -157.228)"/><path class="f" d="M603.781,161.29l5.75,12.407v28.821h-11.5V173.7Z" transform="translate(-558.865 -157.725)"/><path class="g" d="M598.031,202.518V173.7l5.751-12.407,5.75,12.407v28.821" transform="translate(-558.865 -157.725)"/><path class="f" d="M600.826,188.717V175.95a4.11,4.11,0,0,1,.391-1.743l2.485-5.315,2.484,5.315a4.109,4.109,0,0,1,.391,1.743v12.767Z" transform="translate(-558.785 -157.508)"/><path class="f" d="M603.7,168.891l2.484,5.315a4.109,4.109,0,0,1,.391,1.743v.653l-1.942-1.7a1.451,1.451,0,0,0-1.867,0l-1.942,1.7v-.653a4.11,4.11,0,0,1,.391-1.743Z" transform="translate(-558.785 -157.508)"/><path class="g" d="M606.577,176.446l-1.942-1.7a1.45,1.45,0,0,0-1.867,0l-1.942,1.7" transform="translate(-558.785 -157.351)"/><path class="g" d="M600.826,188.717V175.95a4.11,4.11,0,0,1,.391-1.743l2.485-5.315,2.484,5.315a4.109,4.109,0,0,1,.391,1.743v12.767" transform="translate(-558.785 -157.508)"/><line class="g" y1="6.438" transform="translate(44.916 17.058)"/><path class="f" d="M598.422,197.374l2.484-5.316,2.484,5.316a4.11,4.11,0,0,1,.392,1.743,4.108,4.108,0,0,1,.391-1.743l2.484-5.316,2.485,5.316a4.125,4.125,0,0,1,.391,1.743v23.558h-11.5V199.117A4.108,4.108,0,0,1,598.422,197.374Z" transform="translate(-558.865 -156.847)"/><path class="f" d="M603.7,199.442a4.111,4.111,0,0,0-.392-1.743l-2.484-5.315v-4.655a4.11,4.11,0,0,1,.391-1.743l2.485-5.315,2.484,5.315a4.11,4.11,0,0,1,.391,1.743v4.655l-2.484,5.315A4.109,4.109,0,0,0,603.7,199.442Z" transform="translate(-558.785 -157.172)"/><path class="f" d="M606.5,192.058l2.485,5.316a4.126,4.126,0,0,1,.391,1.743v.653l-1.942-1.7a1.451,1.451,0,0,0-1.867,0l-1.942,1.7v-.653a4.109,4.109,0,0,1,.391-1.743Z" transform="translate(-558.705 -156.847)"/><path class="g" d="M609.373,199.612l-1.942-1.7a1.451,1.451,0,0,0-1.867,0l-1.942,1.7" transform="translate(-558.705 -156.69)"/><path class="g" d="M609.373,211.223V199.117a4.126,4.126,0,0,0-.391-1.743l-2.485-5.316-2.484,5.316a4.109,4.109,0,0,0-.391,1.743v12.106" transform="translate(-558.705 -156.847)"/><path class="g" d="M612.481,223.055V182.73a2.332,2.332,0,0,0-.223-.992l-1.411-3.02-1.411,3.02a2.333,2.333,0,0,0-.222.992v40.325" transform="translate(-558.546 -157.228)"/><path class="i" d="M606.5,203.192l2.485,5.315a4.127,4.127,0,0,1,.391,1.744v.653l-1.942-1.7a1.448,1.448,0,0,0-1.867,0l-1.942,1.7v-.653a4.111,4.111,0,0,1,.391-1.744Z" transform="translate(-558.705 -156.529)"/><path class="g" d="M609.373,210.748l-1.942-1.7a1.448,1.448,0,0,0-1.867,0l-1.942,1.7" transform="translate(-558.705 -156.372)"/><path class="g" d="M609.373,222.357v-12.1a4.127,4.127,0,0,0-.391-1.744l-2.485-5.315-2.484,5.315a4.111,4.111,0,0,0-.391,1.744v12.1" transform="translate(-558.705 -156.529)"/><line class="g" y2="13.488" transform="translate(47.792 52.339)"/><line class="g" y1="5.776" transform="translate(47.792 40.887)"/><path class="f" d="M600.906,192.058l2.484,5.316a4.11,4.11,0,0,1,.392,1.743v.653l-1.942-1.7a1.452,1.452,0,0,0-1.868,0l-1.941,1.7v-.653a4.108,4.108,0,0,1,.391-1.743Z" transform="translate(-558.865 -156.847)"/><path class="g" d="M603.782,199.612l-1.942-1.7a1.452,1.452,0,0,0-1.868,0l-1.941,1.7" transform="translate(-558.865 -156.69)"/><path class="g" d="M603.782,211.223V199.117a4.11,4.11,0,0,0-.392-1.743l-2.484-5.316-2.484,5.316a4.108,4.108,0,0,0-.391,1.743v12.106" transform="translate(-558.865 -156.847)"/><path class="f" d="M600.906,203.192l2.484,5.315a4.111,4.111,0,0,1,.392,1.744v.653l-1.942-1.7a1.45,1.45,0,0,0-1.868,0l-1.941,1.7v-.653a4.11,4.11,0,0,1,.391-1.744Z" transform="translate(-558.865 -156.529)"/><path class="g" d="M603.782,210.748l-1.942-1.7a1.45,1.45,0,0,0-1.868,0l-1.941,1.7" transform="translate(-558.865 -156.372)"/><path class="g" d="M603.782,222.357v-12.1a4.111,4.111,0,0,0-.392-1.744l-2.484-5.315-2.484,5.315a4.11,4.11,0,0,0-.391,1.744v12.1" transform="translate(-558.865 -156.529)"/><line class="g" y2="13.488" transform="translate(42.041 52.339)"/><line class="g" y1="5.776" transform="translate(42.041 40.887)"/><path class="i" d="M603.7,180.669l2.484,5.315a4.11,4.11,0,0,1,.391,1.743v.653l-1.942-1.7a1.451,1.451,0,0,0-1.867,0l-1.942,1.7v-.653a4.11,4.11,0,0,1,.391-1.743Z" transform="translate(-558.785 -157.172)"/><path class="g" d="M606.577,188.224l-1.942-1.7a1.451,1.451,0,0,0-1.867,0l-1.942,1.7" transform="translate(-558.785 -157.015)"/><path class="g" d="M603.7,199.442a4.111,4.111,0,0,0-.392-1.743l-2.484-5.315v-4.655a4.11,4.11,0,0,1,.391-1.743l2.485-5.315,2.484,5.315a4.11,4.11,0,0,1,.391,1.743v4.655l-2.484,5.315A4.109,4.109,0,0,0,603.7,199.442Z" transform="translate(-558.785 -157.172)"/><line class="g" y1="13.75" transform="translate(44.916 29.173)"/><line class="g" y1="3.564" transform="translate(44.916 0)"/><line class="g" x1="3.968" transform="translate(42.933 1.782)"/><line class="g" x1="3.606" transform="translate(47.061 15.972)"/><line class="g" x2="3.606" transform="translate(39.166 15.972)"/><line class="g" x2="3.268" transform="translate(50.667 46.146)"/><line class="g" x2="3.268" transform="translate(50.667 35.533)"/><line class="g" x2="3.924" transform="translate(26.661 62.379)"/><line class="g" x2="3.924" transform="translate(35.242 62.379)"/><line class="g" y1="3.984" transform="translate(32.914 20.195)"/><line class="g" x2="4.435" transform="translate(30.696 21.941)"/><line class="g" x2="0.94" transform="translate(0 65.827)"/><line class="g" x2="28.682" transform="translate(3.426 65.827)"/><path class="j" d="M0,0H20.286" transform="translate(37.615 65.827)"/><line class="g" x2="5.104" transform="translate(60.722 65.827)"/></g></g></g></svg>