<svg xmlns="http://www.w3.org/2000/svg" xmlns:xlink="http://www.w3.org/1999/xlink" width="76" height="76" viewBox="0 0 76 76"><defs><style>.a{fill:#fff;}.b,.g{fill:none;}.c,.h{fill:#e53935;}.d{clip-path:url(#a);}.e{fill:#04247b;}.f{fill:#ce142a;}.g,.h{stroke:#000;stroke-linecap:round;stroke-linejoin:round;stroke-miterlimit:10;stroke-width:1.5px;}</style><clipPath id="a"><rect class="a" width="30.64" height="30.64" rx="15.32" transform="translate(0 0)"/></clipPath></defs><g transform="translate(-2766 -1744)"><g transform="translate(2766 1744)"><rect class="b" width="76" height="76"/></g><g transform="translate(8 -84)"><circle class="c" cx="16.466" cy="16.466" r="16.466" transform="translate(2761 1834.917)"/><g class="d" transform="translate(2768.631 1832)"><g transform="translate(-9.523 0.414)"><rect class="e" width="49.686" height="30.391" transform="translate(0 0.026)"/><path class="a" d="M324.834,258.431l-15.135,9.32-28.943,17.729v3.367h5.611l44.076-27.023v-3.368l-.9-.026Z" transform="translate(-280.756 -258.431)"/><path class="a" d="M330.442,285.5l-43.951-27.024h-5.736v3.469l44.159,26.922h5.527Z" transform="translate(-280.756 -258.447)"/><path class="a" d="M330.442,284.923H280.756V274.74l49.686.051Z" transform="translate(-280.756 -264.611)"/><path class="a" d="M314.123,258.473v30.391H322.4l-.042-30.391Z" transform="translate(-293.4 -258.447)"/><path class="f" d="M330.442,278.088H280.756v6.027l49.686.05Z" transform="translate(-280.756 -265.88)"/><path class="f" d="M344.636,258.431,327.989,268.6h3.81l16.541-10.138-.9-.026Z" transform="translate(-298.654 -258.431)"/><path class="f" d="M321.692,258.473l-.041,30.391h-4.927l.042-30.391Z" transform="translate(-294.385 -258.447)"/><path class="f" d="M280.756,258.473l16.5,10.121-3.685,0-12.816-7.916Z" transform="translate(-280.756 -258.447)"/><path class="f" d="M280.756,301.24l16.5-10.1h3.6L284.5,301.24Z" transform="translate(-280.756 -270.823)"/><path class="f" d="M334.324,291.135l16.416,10.1v-2.3l-12.815-7.8Z" transform="translate(-301.054 -270.823)"/></g></g><g transform="translate(2772.086 1846.133)"><g transform="translate(0 0)"><path class="g" d="M3,36.047l1.219-.406a2.131,2.131,0,0,0,1.32-1.32L6.047,33l.406,1.219a2.131,2.131,0,0,0,1.32,1.32l1.32.508-1.219.406a2.131,2.131,0,0,0-1.32,1.32l-.508,1.32-.406-1.219a2.131,2.131,0,0,0-1.32-1.32Z" transform="translate(-3 -4.559)"/><g transform="translate(4.114 3.809)"><line class="g" x1="8.634" y2="8.634" transform="translate(20.467 24.835)"/><line class="g" y1="8.634" x2="8.634" transform="translate(17.522 21.89)"/><path class="h" d="M25.689,42.745l-2.133-2.133a2.454,2.454,0,0,0-3.555,0L7.812,52.8a2.454,2.454,0,0,0,0,3.555l2.133,2.133a2.454,2.454,0,0,0,3.555,0L25.689,46.3A2.454,2.454,0,0,0,25.689,42.745Z" transform="translate(-7.05 -8.26)"/><path class="g" d="M55.135,17.739,46.5,26.373a1.473,1.473,0,0,1-2.133,0h0a1.473,1.473,0,0,1,0-2.133L53,15.606a1.473,1.473,0,0,0,0-2.133h0a1.473,1.473,0,0,0-2.133,0l-8.735,8.634a1.473,1.473,0,0,1-2.133,0h0a1.473,1.473,0,0,1,0-2.133l8.634-8.634a1.473,1.473,0,0,0,0-2.133h0a1.473,1.473,0,0,0-2.133,0L35.734,19.873a7.664,7.664,0,0,0,0,10.767h0a7.664,7.664,0,0,0,10.767,0L57.268,19.873a1.473,1.473,0,0,0,0-2.133h0A1.472,1.472,0,0,0,55.135,17.739Z" transform="translate(-6.633 -8.75)"/></g><g transform="translate(5.891 3.86)"><path class="h" d="M37.112,42.745l2.133-2.133a2.454,2.454,0,0,1,3.555,0L54.989,52.8a2.454,2.454,0,0,1,0,3.555l-2.133,2.133a2.454,2.454,0,0,1-3.555,0L37.112,46.3A2.454,2.454,0,0,1,37.112,42.745Z" transform="translate(-8.366 -8.311)"/><path class="g" d="M30.2,41.519l.2.2a.982.982,0,0,0,1.422,0L33.247,40.3l1.828,1.727" transform="translate(-8.463 -8.304)"/><path class="g" d="M30.537,30.537,8.8,8.8,9,11.339a25.207,25.207,0,0,0,7.415,16.455l8.431,8.431" transform="translate(-8.8 -8.8)"/><line class="g" x1="2.743" y1="2.743" transform="translate(27.425 27.425)"/></g><g transform="translate(30.676 43.677)"><line class="g" x2="0.711" y2="0.711" transform="translate(10.056 10.056)"/><line class="g" x2="8.634" y2="8.634"/></g><g transform="translate(12.392 4.571)"><g transform="translate(0)"><line class="g" x1="0.711" y1="0.711"/><line class="g" x1="8.634" y1="8.634" transform="translate(2.133 2.133)"/></g></g><path class="g" d="M55,8.047l1.219-.406a2.131,2.131,0,0,0,1.32-1.32L58.047,5l.406,1.219a2.131,2.131,0,0,0,1.32,1.32l1.32.508-1.219.406a2.131,2.131,0,0,0-1.32,1.32l-.508,1.32-.406-1.219a2.131,2.131,0,0,0-1.32-1.32Z" transform="translate(-2.181 -5)"/></g></g></g></g></svg>