<svg xmlns="http://www.w3.org/2000/svg" width="62" height="62" viewBox="0 0 62 62"><defs><style>.a{fill:rgba(194,168,240,0.9);opacity:0.497;}.b{fill:none;stroke:#fff;stroke-miterlimit:10;stroke-width:1.8px;}</style></defs><g transform="translate(-526.057 -990.1)"><rect class="a" width="62" height="62" rx="8" transform="translate(526.057 990.1)"/><g transform="translate(537.478 1006.415)"><rect class="b" width="9.578" height="28.582" transform="translate(20.443 1.479)"/><circle class="b" cx="1.926" cy="1.926" r="1.926" transform="translate(23.306 22.159)"/><line class="b" x2="7.681" transform="translate(20.443 7.202)"/><line class="b" x2="7.681" transform="translate(20.443 10.296)"/><g transform="translate(30.022 1.479)"><rect class="b" width="9.578" height="28.582"/><circle class="b" cx="1.926" cy="1.926" r="1.926" transform="translate(2.863 20.68)"/><line class="b" x2="7.681" transform="translate(0 5.723)"/><line class="b" x2="7.681" transform="translate(0 8.818)"/></g><rect class="b" width="9.578" height="28.582" transform="translate(8.831 30.061) rotate(-157.212)"/><path class="b" d="M450.859,147.119a1.926,1.926,0,1,0,2.522-1.03A1.926,1.926,0,0,0,450.859,147.119Z" transform="translate(-445.905 -125.168)"/><line class="b" x1="7.082" y1="2.975" transform="translate(8.834 5.174)"/><line class="b" x1="7.082" y1="2.975" transform="translate(7.635 8.027)"/></g></g></svg>