<svg xmlns="http://www.w3.org/2000/svg" width="76" height="76" viewBox="0 0 76 76"><defs><style>.a,.c,.j,.q{fill:none;}.b,.l{fill:#06cbff;}.c,.e,.h,.i,.j,.l,.m,.n,.o,.q,.r{stroke:#000;stroke-width:1.5px;}.c,.e,.h,.l,.m,.n{stroke-linecap:round;}.c,.e,.h,.l,.m,.n,.o,.q,.r{stroke-linejoin:round;}.d,.e,.r{fill:#fff;}.f{fill:#45413c;}.g{fill:#ffb59e;}.h,.o{fill:#e0f5ff;}.i{fill:#c0dceb;}.i,.j{stroke-miterlimit:10;}.k,.m{fill:#00b8f0;}.n,.p{fill:#ff6242;}</style></defs><g transform="translate(-1468 -2357)"><g transform="translate(1468 2357)"><rect class="a" width="76" height="76"/></g><g transform="translate(2 -1.697)"><circle class="b" cx="13.881" cy="13.881" r="13.881" transform="translate(1469 2362.99)"/><g transform="translate(1475.385 2362.697)"><path class="c" d="M44.565,63.651a2,2,0,1,1-4.005,0V61h4.005Z" transform="translate(-17.863 -12.337)"/><path class="d" d="M38.921,76.911a6.085,6.085,0,0,1,2.525.522V58.22H26.76V76.911h2.9a6.1,6.1,0,0,1,2.5.5l.513-11.861a1.393,1.393,0,1,1,2.786,0l.493,11.358Z" transform="translate(-17.414 -12.246)"/><path class="c" d="M38.921,76.911a6.085,6.085,0,0,1,2.525.522V58.22H26.76V76.911h2.9a6.1,6.1,0,0,1,2.5.5l.513-11.861a1.393,1.393,0,1,1,2.786,0l.493,11.358Z" transform="translate(-17.414 -12.246)"/><path class="c" d="M43.634,80.888c0-2.39-2.341-3.338-4.4-3.338h-2.9v2.225A1.113,1.113,0,0,0,37.4,80.888Z" transform="translate(-17.726 -12.875)"/><path class="c" d="M34.1,80.888c0-2.39-2.332-3.338-4.4-3.338H26.8v2.225a1.122,1.122,0,0,0,1.074,1.113Z" transform="translate(-17.416 -12.875)"/><path class="e" d="M34.09,19.35a6.666,6.666,0,0,0-6.675,6.675v1.335c-1.935,0-1.77,3.338.339,3.338h0a6.656,6.656,0,0,0,13.012-2.012V26.025A6.666,6.666,0,0,0,34.09,19.35Z" transform="translate(-17.392 -9.047)"/><path class="f" d="M33.122,26.94a.832.832,0,1,0,.595.24.832.832,0,0,0-.595-.24Z" transform="translate(-17.595 -9.294)"/><path class="f" d="M38.3,26.94a.832.832,0,1,0,.832.832.822.822,0,0,0-.832-.832Z" transform="translate(-17.763 -9.294)"/><path class="g" d="M32.245,30.538a.668.668,0,1,1-.668-.668.668.668,0,0,1,.668.668Z" transform="translate(-17.549 -9.389)"/><path class="c" d="M34,31.7a2.506,2.506,0,0,0,2.9.281,3.685,3.685,0,0,0,.4-.281" transform="translate(-17.65 -9.448)"/><path class="h" d="M30.446,23.268c2.9,2.835,7.972,2.37,11.01,1.345a7.343,7.343,0,1,0-14.686,0v2.312s3.676-.967,3.676-3.667" transform="translate(-17.415 -8.979)"/><rect class="i" width="14.686" height="10.681" rx="1.38" transform="translate(0 55.319)"/><path class="j" d="M21.93,67.7V66.065a1.635,1.635,0,0,1,1.635-1.635h2.07a1.635,1.635,0,0,1,1.635,1.635V67.7" transform="translate(-17.257 -12.449)"/><rect class="j" width="14.686" height="10.681" rx="1.38" transform="translate(0 55.319)"/><path class="c" d="M26.625,63.651a2,2,0,1,1-4.005,0V61h4.005Z" transform="translate(-17.28 -12.337)"/><path class="k" d="M44.627,49.558a11.348,11.348,0,1,0-22.7,0v9.568a1.122,1.122,0,0,0,1.113,1.132H26.6v5h3.6a4.5,4.5,0,0,0,3.744-2,4.5,4.5,0,0,0,3.744,2h3.6v-5h2.225a1.113,1.113,0,0,0,1.113-1.113Z" transform="translate(-17.257 -11.595)"/><path class="l" d="M44.627,49.558a11.348,11.348,0,1,0-22.7,0v9.568a1.122,1.122,0,0,0,1.113,1.132H26.6v5h3.6a4.5,4.5,0,0,0,3.744-2,4.5,4.5,0,0,0,3.744,2h3.6v-5h2.225a1.113,1.113,0,0,0,1.113-1.113Z" transform="translate(-17.257 -11.595)"/><line class="m" y1="11.348" transform="translate(24.032 37.295)"/><line class="m" y1="11.348" transform="translate(9.346 37.295)"/><path class="e" d="M34.189,55.566l4.644-16.04a11.31,11.31,0,0,0-9.433-.551Z" transform="translate(-17.5 -11.595)"/><path class="m" d="M38.994,39.57,34.35,55.61l5.34-7.343V44.93l2.651-2.661A11.464,11.464,0,0,0,38.994,39.57Z" transform="translate(-17.661 -11.64)"/><path class="n" d="M34.283,38.23,32.3,48.708l1.983,6.859,1.983-6.859Z" transform="translate(-17.595 -11.596)"/><line class="m" y1="7.343" transform="translate(16.689 43.971)"/><path class="m" d="M34.058,55.592,29.26,39a11.271,11.271,0,0,0-3.87,2.554L28.757,44.9v3.338Z" transform="translate(-17.37 -11.621)"/><path class="a" d="M66.173,32.3a2.322,2.322,0,0,0-2.167,1.49L52,65.387H80.83l-12.2-31.6a2.3,2.3,0,0,0-2.119-1.49Z" transform="translate(-18.236 -11.403)"/><path class="o" d="M66.173,32.3a2.322,2.322,0,0,0-2.167,1.49L52,65.387H80.83l-12.2-31.6a2.3,2.3,0,0,0-2.119-1.49Z" transform="translate(-18.236 -11.403)"/><line class="c" y1="9.288" transform="translate(48.083 11.609)"/><path class="p" d="M66.8,11.667a.967.967,0,0,1,.967-.967h13.98a.581.581,0,0,1,.532.348.561.561,0,0,1-.1.619l-3.773,4.16a.967.967,0,0,0,0,1.3l3.773,4.189a.561.561,0,0,1,.1.619.58.58,0,0,1-.532.348H66.8Z" transform="translate(-18.717 -10.7)"/><path class="q" d="M66.8,11.667a.967.967,0,0,1,.967-.967h13.98a.581.581,0,0,1,.532.348.561.561,0,0,1-.1.619l-3.773,4.16a.967.967,0,0,0,0,1.3l3.773,4.189a.561.561,0,0,1,.1.619.58.58,0,0,1-.532.348H66.8Z" transform="translate(-18.717 -10.7)"/><path class="o" d="M54.642,48.828a1.151,1.151,0,0,0-2.07,0L44,65.9H63.156Z" transform="translate(-17.975 -11.92)"/><path class="r" d="M50.72,52.892,52.926,55.5a1.151,1.151,0,0,0,.89.406,1.171,1.171,0,0,0,.89-.406l2.186-2.612-2.032-4.063a1.151,1.151,0,0,0-2.07,0Z" transform="translate(-18.194 -11.92)"/><path class="d" d="M62.349,46.686a1.18,1.18,0,0,0,.851.561,1.151,1.151,0,0,0,.967-.329l1.654-1.606a1.161,1.161,0,0,1,1.645,0l1.606,1.606a1.161,1.161,0,0,0,1.819-.232l1.8-3.067L68.908,33.79a2.3,2.3,0,0,0-2.119-1.49H66.5a2.322,2.322,0,0,0-2.167,1.49l-3.8,9.829Z" transform="translate(-18.513 -11.403)"/><path class="q" d="M62.349,46.686a1.18,1.18,0,0,0,.851.561,1.151,1.151,0,0,0,.967-.329l1.654-1.606a1.161,1.161,0,0,1,1.645,0l1.606,1.606a1.161,1.161,0,0,0,1.819-.232l1.8-3.067L68.908,33.79a2.3,2.3,0,0,0-2.119-1.49H66.5a2.322,2.322,0,0,0-2.167,1.49l-3.8,9.829Z" transform="translate(-18.513 -11.403)"/></g></g></g></svg>