<svg xmlns="http://www.w3.org/2000/svg" xmlns:xlink="http://www.w3.org/1999/xlink" width="76" height="76" viewBox="0 0 76 76"><defs><style>.a{fill:#fff;}.b{fill:none;}.c{fill:#122436;}.d{fill:#cb7d27;}.e{clip-path:url(#a);}.f{fill:#04247b;}.g{fill:#ce142a;}.h{fill:#ffc382;}</style><clipPath id="a"><rect class="a" width="28.231" height="28.231" rx="14.116"/></clipPath></defs><g transform="translate(-2566 -1512)"><g transform="translate(2566 1512)"><rect class="b" width="76" height="76"/></g><g transform="translate(80.814 3)"><g transform="translate(2499.146 1528.871)"><path class="c" d="M52.573,60.943l-.949-.961q-.495.489-.963,1l1,.91Q52.1,61.406,52.573,60.943Z" transform="translate(-43.746 -52.407)"/><path class="c" d="M59.641,54.4q.5-.433,1.017-.841L59.825,52.5q-.547.429-1.071.886l.887,1.018Z" transform="translate(-49.653 -46.945)"/><path class="c" d="M44.614,70.281q.387-.536.8-1.05l-1.052-.846q-.435.542-.843,1.106l1.1.79Z" transform="translate(-38.532 -58.54)"/><path class="c" d="M69.565,47.19l-.706-1.151q-.593.364-1.164.757l.765,1.112Q69,47.535,69.565,47.19Z" transform="translate(-56.179 -42.229)"/><path class="c" d="M38.606,79.461q.323-.577.675-1.136l-1.142-.72q-.371.588-.711,1.2l1.178.659Z" transform="translate(-34.086 -65.271)"/><path class="c" d="M111.006,33.274l-.12-1.345q-.7.062-1.381.16l.19,1.337Q110.345,33.333,111.006,33.274Z" transform="translate(-86.699 -31.929)"/><path class="c" d="M88.133,38.243q.613-.239,1.241-.448l-.424-1.282q-.662.219-1.308.472l.491,1.258Z" transform="translate(-70.74 -35.276)"/><path class="c" d="M78,42.5q.581-.308,1.18-.587l-.57-1.224q-.631.293-1.243.618L78,42.5Z" transform="translate(-63.238 -38.322)"/><path class="c" d="M98.751,35.2q.636-.167,1.285-.3l-.274-1.322q-.683.141-1.353.318l.343,1.306Z" transform="translate(-78.599 -33.135)"/><path class="c" d="M27.58,110.5q.108-.654.248-1.3l-1.319-.289q-.148.676-.262,1.365l1.332.22Z" transform="translate(-25.925 -88.127)"/><path class="c" d="M26.4,121.547q.032-.663.1-1.316l-1.343-.136q-.069.688-.1,1.386l1.349.066Z" transform="translate(-25.052 -96.287)"/><path class="c" d="M33.535,104.3Z" transform="translate(-31.244 -84.758)"/><path class="c" d="M37.088,94.153Z" transform="translate(-33.838 -77.35)"/><path class="c" d="M30.422,98.453l-1.277-.439q-.226.655-.418,1.326l1.3.372Q30.208,99.076,30.422,98.453Z" transform="translate(-27.735 -80.169)"/><path class="c" d="M34.259,88.107l-1.217-.584q-.3.627-.569,1.271l1.246.519Q33.974,88.7,34.259,88.107Z" transform="translate(-30.469 -72.51)"/><path class="c" d="M121.066,36.565h0Z" transform="translate(-95.139 -35.313)"/></g><g transform="translate(2537.495 1539.885)"><path class="d" d="M180.1,91.826h-5.131a5.4,5.4,0,0,1-5.4-5.4V75.214H185.5V86.425A5.4,5.4,0,0,1,180.1,91.826Z" transform="translate(-168.891 -74.539)"/><path class="a" d="M174.967,122.133H180.1a5.4,5.4,0,0,0,5.4-5.4H169.566A5.4,5.4,0,0,0,174.967,122.133Z" transform="translate(-168.891 -104.845)"/><rect class="a" width="3.33" height="19.195" transform="translate(6.976 17.287)"/><path class="c" d="M167.066,72.714V84.6a6.076,6.076,0,0,0,6.076,6.076h.225v19.2h4.681v-19.2h.225a6.076,6.076,0,0,0,6.076-6.076V72.714Zm4.1,1.35v6.621h1.35V74.064h2.52v6.621h1.35V74.064h2.52v6.621h1.35V74.064H183v9.862H168.416V74.064Zm5.536,34.457h-1.98V90.676h1.98Zm4.917-20.579a4.709,4.709,0,0,1-3.341,1.384h-5.131a4.715,4.715,0,0,1-4.672-4.051h14.475A4.713,4.713,0,0,1,181.614,87.942Z" transform="translate(-167.066 -72.714)"/></g><path class="d" d="M92.852,75.7A14.116,14.116,0,1,1,78.737,61.58,14.116,14.116,0,0,1,92.852,75.7Z" transform="translate(2427.565 1459.418)"/><g class="e" transform="translate(2495.551 1512)"><g transform="translate(-8.775 0.382)"><rect class="f" width="45.781" height="28.002" transform="translate(0 0.024)"/><path class="a" d="M321.369,258.431l-13.945,8.588-26.668,16.336v3.1h5.17l40.611-24.9v-3.1l-.829-.024Z" transform="translate(-280.756 -258.431)"/><path class="a" d="M326.537,283.372l-40.5-24.9h-5.285v3.2l40.688,24.806h5.093Z" transform="translate(-280.756 -258.449)"/><path class="a" d="M326.537,284.123H280.756V274.74l45.781.047Z" transform="translate(-280.756 -265.407)"/><path class="a" d="M314.123,258.473v28h7.63l-.039-28Z" transform="translate(-295.028 -258.449)"/><path class="g" d="M326.537,278.088H280.756v5.554l45.781.046Z" transform="translate(-280.756 -266.839)"/><path class="g" d="M343.327,258.431,327.989,267.8h3.51l15.241-9.342-.83-.024Z" transform="translate(-300.96 -258.431)"/><path class="g" d="M321.3,258.473l-.038,28h-4.54l.038-28Z" transform="translate(-296.141 -258.449)"/><path class="g" d="M280.756,258.473l15.2,9.326-3.4,0L280.756,260.5Z" transform="translate(-280.756 -258.449)"/><path class="g" d="M280.756,300.446l15.2-9.31h3.319l-15.069,9.31Z" transform="translate(-280.756 -272.42)"/><path class="g" d="M334.324,291.135l15.126,9.31v-2.123l-11.808-7.187Z" transform="translate(-303.669 -272.42)"/></g></g><path class="a" d="M76.235,71.574a3.067,3.067,0,0,1-.947.8,2.314,2.314,0,0,1-1.092.279H58.423a2.322,2.322,0,0,1-1.086-.275,3.31,3.31,0,0,1-1.326-1.359,4.627,4.627,0,0,1-.55-2.215v-.046a16.04,16.04,0,0,1,3.233-9.911A11.152,11.152,0,0,1,62.146,55.9a8.765,8.765,0,0,1,4.164-1.066q.325,0,.655.025A8.789,8.789,0,0,1,70.636,56,12.006,12.006,0,0,1,75,60.456a16.191,16.191,0,0,1,2.1,6.831q.06.735.06,1.455h0v.006A4.545,4.545,0,0,1,76.235,71.574Z" transform="translate(2451.897 1480.223)"/><path class="h" d="M64.294,136.51a11.362,11.362,0,0,0-8.127-3.4H45.239a11.515,11.515,0,0,0-11.077,8.4c-.043.153-.058.194-.081.287a25.972,25.972,0,0,0,33.591,14.668V144.9a11.881,11.881,0,0,0-3.368-8.38Z" transform="translate(2467.503 1423.08)"/><path class="d" d="M59.14,179.442a25.847,25.847,0,0,0,17.38,6.682q1.18,0,2.333-.1V171.31H59.14Z" transform="translate(2449.211 1395.199)"/><path class="d" d="M70.946,133.115H69.74a11.562,11.562,0,0,0-2.095.191v10.123h3.3V133.115Z" transform="translate(2443.002 1423.08)"/><path class="d" d="M114.713,133.306a11.521,11.521,0,0,0-2.1-.191h-1.2v10.314h3.3Z" transform="translate(2411.054 1423.08)"/><g transform="translate(2500.877 1555.52)"><path class="c" d="M44,143.354h0Z" transform="translate(-40.617 -139.913)"/><path class="c" d="M62.875,134.221h0l-.009-.009-.481.474.481-.474a12.039,12.039,0,0,0-5.836-3.274v-.017l-.552-.1c-.065-.012-.13-.021-.2-.032-.087-.015-.174-.03-.262-.042-.109-.016-.219-.029-.329-.042-.084-.01-.167-.021-.251-.029-.124-.012-.248-.02-.373-.028-.072,0-.143-.011-.214-.015-.2-.009-.4-.015-.595-.015H43.329c-.2,0-.394.005-.589.015-.07,0-.138.01-.208.014-.125.008-.25.016-.374.028-.082.008-.163.019-.244.028-.111.013-.221.025-.331.041-.085.012-.168.027-.252.04s-.147.022-.219.035l-.553.1v.017A12.192,12.192,0,0,0,31.6,139.51v0c-.021.072-.033.115-.046.159s-.026.092-.041.15l-.052.209.079.2a26.659,26.659,0,0,0,6.72,9.8v.006l.223.2c.049.045.1.086.151.131q.274.244.556.48c.1.081.192.163.29.243q.347.284.7.555c.054.042.107.085.162.126q.4.3.818.591l.071.048c.088.061.177.118.266.177.219.147.439.292.663.432.11.069.222.137.333.2q.315.192.636.375c.113.065.226.129.341.192.232.128.466.251.7.372.1.049.19.1.285.147q.5.249,1.009.478l.1.042q.46.2.93.39c.112.044.225.086.337.129q.359.137.722.264.191.066.383.13.358.118.72.227c.124.037.248.075.373.111.283.08.569.155.856.226.081.02.161.043.242.062q.552.131,1.112.239c.1.019.194.034.291.051.279.051.56.1.843.14.134.02.269.037.4.055q.379.05.76.09c.14.015.28.029.421.041.266.023.534.042.8.057.124.007.247.016.372.022.391.017.783.028,1.178.028q.623,0,1.238-.029c.145-.007.289-.02.433-.029.241-.015.482-.027.721-.048l.615-.055v-.014a26.463,26.463,0,0,0,6.682-1.644l.429-.168V143.075A12.558,12.558,0,0,0,62.875,134.221Zm-8.618-2.256c.178,0,.356.005.532.014.058,0,.115.008.172.012.118.008.235.015.352.027.07.007.14.016.21.024l.157.02v8.868H53.728v-8.964h.529Zm3.719,23.718-.074.005c-.136.008-.271.021-.407.027-.39.018-.782.028-1.177.028-.375,0-.748-.01-1.119-.026-.118-.005-.235-.014-.353-.021-.255-.015-.51-.032-.763-.054-.133-.012-.265-.025-.4-.039q-.364-.038-.725-.086c-.127-.017-.254-.033-.381-.052-.27-.04-.538-.086-.8-.134-.09-.016-.182-.031-.272-.048q-.533-.1-1.057-.227c-.077-.018-.152-.039-.228-.058-.273-.068-.544-.139-.814-.215-.119-.034-.237-.07-.355-.106q-.342-.1-.68-.214-.185-.061-.369-.125c-.227-.079-.453-.162-.677-.248-.109-.042-.22-.082-.328-.125q-.434-.173-.86-.361l-.116-.049q-.481-.215-.951-.451c-.1-.048-.19-.1-.285-.147-.219-.113-.437-.227-.652-.346-.111-.061-.22-.124-.33-.186q-.3-.173-.6-.354c-.106-.064-.211-.128-.316-.194-.217-.136-.43-.277-.642-.419-.078-.053-.158-.1-.236-.157q-.433-.3-.854-.614c-.039-.029-.076-.06-.115-.089q-.358-.273-.707-.557c-.088-.072-.174-.146-.26-.218q-.232-.195-.458-.4v-7.148H57.976v13.4Zm-5.6-23.718v8.964H45.21v-8.964Zm-8.518,0v8.964H41.909v-8.869l.167-.021c.07-.008.139-.017.209-.024.114-.011.23-.018.345-.026.058,0,.115-.009.173-.012q.261-.013.526-.013h.531Zm-10.976,7.97.018-.062v0h0a10.8,10.8,0,0,1,2.888-4.847h0a10.807,10.807,0,0,1,4.768-2.7v8.6h-2.3v7.219A25.291,25.291,0,0,1,32.884,139.935Zm24.145.994v-8.6a10.691,10.691,0,0,1,4.874,2.833l.009.009h0a11.205,11.205,0,0,1,3.175,7.906v11.1a25.091,25.091,0,0,1-5.761,1.386v-14.63Z" transform="translate(-31.464 -130.615)"/></g><path class="a" d="M2200.654-1740.2l1.063,2.38-2.226,1.676-3.539.933.661,3.564,3.2,3.485-3.2.326-1.707-.779-1.292-1.26s-.975-5.938,1.292-9.538a20.866,20.866,0,0,1,2.609-3.835,9.7,9.7,0,0,1,4.91-2.676c.906-.046,5.763-.1,7.338,1.716s4.39,4.69,4.625,7.265,1.1,5.77.46,7.068a4.893,4.893,0,0,1-2.592,2.038,8.691,8.691,0,0,1-3.573,0c-1.13-.138,2.512-2.845,3.083-3.626s.871-3.758.882-4.315-.289-.209-.882-.366-.349.223-2,.366-4.648.191-5.761-.63A28.16,28.16,0,0,1,2200.654-1740.2Z" transform="translate(313.972 3280.931)"/><path class="c" d="M75.847,64.691a16.061,16.061,0,0,0-3.466-8.9,11.944,11.944,0,0,0-3.314-2.82,9.641,9.641,0,0,0-4.025-1.245q-.362-.028-.72-.027a9.621,9.621,0,0,0-4.566,1.165,12.667,12.667,0,0,0-5.077,5.282,17.112,17.112,0,0,0-1.943,8.041v.048a5.536,5.536,0,0,0,1.18,3.472A4.232,4.232,0,0,0,55.231,70.8a3.542,3.542,0,0,0,1.652.413H71.761a3.535,3.535,0,0,0,1.664-.421,4.482,4.482,0,0,0,1.807-1.855,5.822,5.822,0,0,0,.676-2.752h0v-.017Q75.907,65.44,75.847,64.691Zm-2.162,4.154a2.885,2.885,0,0,1-.893.759,2.181,2.181,0,0,1-1.03.263H56.882a2.191,2.191,0,0,1-1.025-.259,3.122,3.122,0,0,1-1.251-1.282,4.365,4.365,0,0,1-.519-2.089v-.044a15.133,15.133,0,0,1,3.05-9.35,10.521,10.521,0,0,1,3.257-2.784,8.27,8.27,0,0,1,3.928-1.006q.307,0,.618.023A8.291,8.291,0,0,1,68.4,54.151a11.326,11.326,0,0,1,4.12,4.206A15.276,15.276,0,0,1,74.5,64.8q.057.693.057,1.373h0v.006A4.288,4.288,0,0,1,73.684,68.844Z" transform="translate(2453.885 1482.508)"/><path class="d" d="M73,64.55a8.377,8.377,0,0,1,8.243,6.891,8.377,8.377,0,1,0-16.485,0A8.377,8.377,0,0,1,73,64.55Z" transform="translate(2445.21 1475.298)"/><g transform="translate(2509.185 1539.786)"><path class="c" d="M79.853,76.877a1.487,1.487,0,0,0-1.038-.426,1.459,1.459,0,0,0-.591.125h0a7.8,7.8,0,0,1-10.363-4.227l-1.252.5a9.124,9.124,0,0,0,1.521,2.5,6.436,6.436,0,0,1-4.545,1.872c-.025,0-.049,0-.074,0a1.287,1.287,0,0,0-.9.367,1.265,1.265,0,0,0-.383.906c0,.036,0,.073,0,.11a9.053,9.053,0,0,0,9.018,8.262q.286,0,.576-.018a9.1,9.1,0,0,0,8.474-8.82v-.088A1.491,1.491,0,0,0,79.853,76.877Zm-3.06,6.266a7.659,7.659,0,0,1-5.049,2.36q-.248.015-.493.015a7.7,7.7,0,0,1-7.663-6.941,7.789,7.789,0,0,0,5.49-2.261,9.2,9.2,0,0,0,.838.659,9.153,9.153,0,0,0,8.852.836h0l.045-.01a.141.141,0,0,1,.094.042.133.133,0,0,1,.042.1V78A7.687,7.687,0,0,1,76.794,83.143Z" transform="translate(-62.23 -72.349)"/><path class="c" d="M62.246,95.522h0Z" transform="translate(-62.242 -89.264)"/></g></g></g></svg>