<?xml version="1.0" encoding="utf-8"?>
<!-- Generator: Adobe Illustrator 23.1.1, SVG Export Plug-In . SVG Version: 6.00 Build 0)  -->
<svg version="1.1" id="Layer_1" xmlns="http://www.w3.org/2000/svg" xmlns:xlink="http://www.w3.org/1999/xlink" x="0px" y="0px"
	 viewBox="0 0 76 76" style="enable-background:new 0 0 76 76;" xml:space="preserve">
<style type="text/css">
	.st0{opacity:0;}
	.st1{fill:#EC9751;}
	.st2{fill:#F7BC84;}
</style>
<g transform="translate(-1375 -1785)">
	<g transform="translate(1375 1785)" class="st0">
		<rect width="76" height="76"/>
	</g>
	<circle class="st1" cx="1396.4" cy="1801.4" r="13.4"/>
	<path class="st2" d="M1393.8,1813.7l10.8-0.9l0.9,9.5l-4.8,6.1l3.9,3.8l7.8-3.8l0.9,2.7l4.1,2.1l5.7-3.9l9,1.8l1.2-2.7l-3.5-6.9
		l0.6-8.7l10.5,0.9l0.4,33.6h-47.4V1813.7z"/>
	<g transform="translate(1392.355 1801.86)">
		<path d="M44.9,9.7h-6.6C35.9,2.4,28.1-1.7,20.8,0.6c-4.3,1.4-7.7,4.8-9.1,9.1H5.1C2.3,9.7,0,12,0,14.8c0,0,0,0,0,0v26.6
			c0,3,2.5,5.5,5.5,5.5H19l-1.4,6.4h-3c-0.8,0-1.4,0.6-1.5,1.4c0,0.8,0.6,1.4,1.4,1.5c0,0,0.1,0,0.1,0h20.8c0.8,0,1.4-0.7,1.4-1.5
			c0-0.8-0.6-1.4-1.4-1.4h-3L31,46.9h13.5c3,0,5.5-2.5,5.5-5.5V14.8C49.9,12,47.7,9.7,44.9,9.7L44.9,9.7z M13.9,13.9
			c0-6.1,5-11.1,11.1-11.1s11.1,5,11.1,11.1v4.6c0,2.6,1,5.2,2.9,7l1.2,1.2c-0.6,0.7-1.4,1.3-2.3,1.5c-0.2,0.1-0.4,0.1-0.5,0.3
			L31.2,26v-1.4c1.6-1.6,2.5-3.7,2.5-5.9v-4.7l-0.1-0.8c-0.2-3.2-2.9-5.7-6.2-5.8c-0.4,0-0.7,0.1-1,0.4c-2.4,2.5-5.5,4.1-8.9,4.8
			c-0.7,0.1-1.2,0.7-1.2,1.4v4.6c0,2.2,0.9,4.4,2.5,5.9V26l-6.2,2.6c-0.2-0.2-0.4-0.3-0.6-0.3c-0.9-0.3-1.6-0.8-2.2-1.5l1.2-1.2
			c1.9-1.9,2.9-4.4,2.9-7L13.9,13.9z M21.1,22.9c-1.2-1.1-2-2.6-2-4.2v-3.4c3.3-0.9,6.3-2.6,8.8-4.9c1.5,0.2,2.7,1.5,2.8,3.1
			l0.1,0.7v4.5c0,1.6-0.7,3.2-2,4.2c-0.3,0.3-0.5,0.7-0.5,1.1v4.6c-1.9,1.7-4.8,1.7-6.7,0V24C21.6,23.5,21.5,23.1,21.1,22.9
			L21.1,22.9z M29.5,53.3h-8.9l1.4-6.4H28L29.5,53.3z M47.1,41.4c0,1.5-1.2,2.7-2.7,2.7c0,0,0,0,0,0H5.5c-1.5,0-2.7-1.2-2.7-2.7
			V14.8c0-1.3,1-2.3,2.3-2.3h6c0,0.5-0.1,0.9-0.1,1.4v4.6c0,1.9-0.7,3.7-2.1,5l-2,2c-0.4,0.4-0.5,1.1-0.3,1.6
			c0.7,1.4,1.8,2.5,3.2,3.2c-1.1,1.1-1.8,2.5-2,4.1L7.2,39c-0.1,0.8,0.4,1.5,1.2,1.6h0.2c0.7,0,1.3-0.5,1.4-1.2l0.6-4.5
			c0.2-1.6,1.3-2.9,2.7-3.5l5.4-2.3v0.1c0,0.4,0.1,0.7,0.4,1c3,3.2,8.1,3.4,11.3,0.3c0.1-0.1,0.2-0.2,0.3-0.3c0.2-0.3,0.4-0.6,0.4-1
			V29l5.4,2.3c1.5,0.6,2.5,2,2.7,3.5l0.6,4.5c0.1,0.7,0.7,1.2,1.4,1.2h0.2c0.8-0.1,1.3-0.8,1.2-1.6l-0.6-4.5c-0.2-1.5-0.9-3-2-4.1
			c1.4-0.7,2.4-1.9,3.2-3.2c0.2-0.5,0.1-1.2-0.3-1.6l-2-2c-1.3-1.3-2.1-3.1-2.1-5v-4.6c0-0.5,0-0.9-0.1-1.4h6c1.3,0,2.3,1,2.3,2.3v0
			L47.1,41.4L47.1,41.4z"/>
		<circle cx="25" cy="37.3" r="1.4"/>
		<circle cx="18.8" cy="37.3" r="1.4"/>
		<circle cx="31.2" cy="37.3" r="1.4"/>
	</g>
</g>
</svg>
