<svg xmlns="http://www.w3.org/2000/svg" xmlns:xlink="http://www.w3.org/1999/xlink" width="76" height="76" viewBox="0 0 76 76"><defs><style>.a{fill:#fff;}.b{fill:none;}.c{fill:#ffe01b;}.d{fill:#b40342;}.e{clip-path:url(#a);}.f{fill:#fecd17;}.g{fill:#dc0201;}.h{fill:#091f3a;}</style><clipPath id="a"><rect class="a" width="33.388" height="33.388" rx="16.694" transform="translate(0 0)"/></clipPath></defs><g transform="translate(-471 -1625)"><g transform="translate(471 1625)"><rect class="b" width="76" height="76"/></g><g transform="translate(66 10)"><circle class="c" cx="5.5" cy="5.5" r="5.5" transform="translate(438.465 1637.986)"/><path class="d" d="M5.294,4A5.52,5.52,0,0,1,0,0H10.586A5.52,5.52,0,0,1,5.294,4Z" transform="translate(439.723 1645.199)"/><g class="e" transform="translate(409 1618)"><g transform="translate(-10.377 0)"><rect width="54.143" height="11.105" transform="translate(0 0)"/><rect class="f" width="54.143" height="11.195" transform="translate(0 22.193)"/><rect class="g" width="54.143" height="11.088" transform="translate(0 11.105)"/></g></g><g transform="translate(418.39 1622.173)"><path class="h" d="M693.414,215.923l-.2.113-2.7,6.143h-8.283v1.386h41.148V222.18h-8.282l-2.7-6.146-.2-.113a20.886,20.886,0,0,0-5.718-2.188l-.62-29.448a6.3,6.3,0,0,0-.376-11.247l-.065-.027v-4.065h1.185V167.56H705.4v0h-1.912V157.74h-1.385v9.818h-1.913v0h-1.185v1.386h1.185v4.066c-.025.011-.049.02-.074.031a6.306,6.306,0,0,0-.367,11.242l-.619,29.441A20.566,20.566,0,0,0,693.414,215.923Zm4.87,6.257a4.567,4.567,0,0,1,9.03,0Zm15.293,0h-4.862a5.956,5.956,0,0,0-11.831,0h-4.863l2.27-5.159a16.862,16.862,0,0,1,17.017,0Zm-9.559-53.233v3.621c-.027-.005-.055-.007-.081-.012-.083-.014-.167-.025-.25-.036-.112-.016-.223-.033-.335-.043-.04,0-.079,0-.119-.006a6.632,6.632,0,0,0-.845,0c-.048,0-.1,0-.146.007-.1.009-.207.026-.31.04s-.186.024-.279.04c-.025,0-.049.006-.074.011v-3.621ZM700.7,174.3c.134-.062.274-.122.421-.174a4.976,4.976,0,0,1,3.06-.077c.1.029.2.044.3.08.139.048.28.109.4.166a4.97,4.97,0,0,1,2.845,4.473,4.827,4.827,0,0,1-.087.873h-9.692a4.827,4.827,0,0,1-.087-.873A4.963,4.963,0,0,1,700.7,174.3Zm-2.274,6.727h8.743a4.908,4.908,0,0,1-8.743,0Zm2.7,3.829a6.158,6.158,0,0,0,3.345,0l.6,28.631a17.187,17.187,0,0,0-4.549,0Z" transform="translate(-677.029 -157.74)"/><path class="h" d="M713.774,200.237h-6.39v1.386h6.39a2.741,2.741,0,1,0,0-5.481h-.965a4.384,4.384,0,0,0-6.663-2.562l.764,1.156a3,3,0,0,1,4.633,2.173l.067.619h2.164a1.358,1.358,0,0,1,1.357,1.357,1.356,1.356,0,0,1-1.357,1.351Z" transform="translate(-676.346 -156.738)"/><path class="h" d="M716.48,160.349a6.9,6.9,0,0,0-6.891,6.891c0,3.142,2.159,7.244,4.175,9.1l.2.183h.482v1.124h-1.333v3.708a2.22,2.22,0,0,0,2.218,2.217h2.3a2.219,2.219,0,0,0,2.216-2.217V177.65h-1.333v-1.124h.439l.2-.186c1.768-1.647,4.217-5.725,4.217-9.1A6.9,6.9,0,0,0,716.48,160.349Zm1.881,6.891a26.031,26.031,0,0,1-1.432,7.9h-.918a25.9,25.9,0,0,1-1.413-7.9c0-3.361,1.115-5.506,1.882-5.506S718.361,163.879,718.361,167.24Zm-7.386,0a5.509,5.509,0,0,1,3.216-5,12.12,12.12,0,0,0-.979,5,27.749,27.749,0,0,0,1.327,7.9h-.028C712.8,173.431,710.976,169.879,710.976,167.24Zm7.487,14.118a.832.832,0,0,1-.831.831h-2.3a.831.831,0,0,1-.831-.831v-2.321h3.964Zm-2.632-3.707v-1.125h1.3v1.125Zm2.571-2.513a27.769,27.769,0,0,0,1.345-7.9,12.129,12.129,0,0,0-.979-5,5.509,5.509,0,0,1,3.217,5C721.985,169.958,719.958,173.555,718.4,175.138Z" transform="translate(-676.248 -157.666)"/><path class="h" d="M685.035,187.565a3.8,3.8,0,1,0-3.8-3.8A3.806,3.806,0,0,0,685.035,187.565Zm0-6.22a2.417,2.417,0,1,1-2.417,2.417A2.42,2.42,0,0,1,685.035,181.345Z" transform="translate(-677.057 -157.106)"/><rect class="h" width="1.386" height="2.749" transform="translate(7.284 18.678)"/><rect class="h" width="1.386" height="2.749" transform="translate(1.846 21.505) rotate(-45)"/><rect class="h" width="2.749" height="1.386" transform="translate(0 25.963)"/><rect class="h" width="2.748" height="1.386" transform="translate(1.847 31.807) rotate(-45)"/><rect class="h" width="1.386" height="2.749" transform="translate(7.284 31.885)"/><rect class="h" width="1.386" height="2.749" transform="translate(11.185 30.844) rotate(-45)"/><rect class="h" width="2.749" height="1.386" transform="translate(13.206 25.963)"/><rect class="h" width="2.749" height="1.386" transform="translate(11.184 22.469) rotate(-45)"/><path class="h" d="M726.863,176.226a3.676,3.676,0,0,0-3.287-1.8v1.386a2.68,2.68,0,0,1,2.6,2.593h1.382c.008-.106.24-2.593,2.6-2.593v-1.386A3.675,3.675,0,0,0,726.863,176.226Z" transform="translate(-675.849 -157.264)"/><path class="h" d="M731.255,162.211a2.577,2.577,0,0,0-2.106-.968v1.385a1.462,1.462,0,0,1,1.416,1.434h1.381a1.465,1.465,0,0,1,1.417-1.434v-1.385A2.583,2.583,0,0,0,731.255,162.211Z" transform="translate(-675.69 -157.64)"/><path class="h" d="M690.3,163.221h-.947a4.342,4.342,0,0,0-8.405,0H680a2.717,2.717,0,1,0,0,5.434h3.587V167.27H680a1.331,1.331,0,1,1,0-2.663h2.141l.067-.618a2.955,2.955,0,0,1,5.874,0l.067.618H690.3a1.331,1.331,0,1,1,0,2.663h-3.639v1.385H690.3a2.717,2.717,0,1,0,0-5.434Z" transform="translate(-677.17 -157.676)"/><rect class="h" width="0.895" height="1.386" transform="translate(7.497 9.593)"/></g></g></g></svg>