<svg xmlns="http://www.w3.org/2000/svg" xmlns:xlink="http://www.w3.org/1999/xlink" width="76" height="76" viewBox="0 0 76 76"><defs><style>.a{fill:#fff;}.b{fill:none;}.c{clip-path:url(#a);}.d{fill:#ffc501;}.e,.f{fill:#c60b1e;}.f,.g{fill-rule:evenodd;}.g{fill:#ff7381;}.h{fill:#091f3a;}</style><clipPath id="a"><rect class="a" width="35" height="35" rx="17.5"/></clipPath></defs><g transform="translate(-169 -1828)"><g transform="translate(169 1828)"><rect class="b" width="76" height="76"/></g><g transform="translate(2 4)"><g class="c" transform="translate(171 1827)"><g transform="translate(-4.46 -0.686)"><g transform="translate(0 0)"><rect class="d" width="60.095" height="18.056" transform="translate(0 9.028)"/><rect class="e" width="60.095" height="9.028" transform="translate(0 27.084)"/><rect class="e" width="60.095" height="9.028"/></g><g transform="translate(7.685 12.435)"><path class="f" d="M304.681,789.8h-9.716v6.291h0c0,.031,0,.062,0,.093a4.858,4.858,0,0,0,9.716,0c0-.031,0-.062,0-.093h0Z" transform="translate(-291.98 -789.795)"/><rect class="a" width="1.788" height="10.387" rx="0.894" transform="translate(0 0)"/><rect class="a" width="1.788" height="10.387" rx="0.894" transform="translate(13.898 0)"/></g></g></g><g transform="translate(180.202 1838.943)"><path class="g" d="M468.257,795.35,461,799.886,461.907,789h6.35Z" transform="translate(-454.102 -763.185)"/><path class="g" d="M480.257,788.164,473,792.7l1.814-12.7h5.443Z" transform="translate(-455.217 -762.349)"/><path class="g" d="M490,788.164l7.257,4.536L495.443,780H490Z" transform="translate(-456.795 -762.349)"/><path class="g" d="M502,796.225l7.257,4.032L508.352,793h-5.443Z" transform="translate(-457.91 -763.556)"/><g transform="translate(0 0)"><path class="h" d="M510.745,817.182h-4.957v-7.874c0-4.041-.261-8.1-.644-12.132l-.026-.26c-.143-1.48-.244-2.968-.438-4.436L504.3,789.6l-1.489-11.408v-5.615a.71.71,0,0,0-.708-.708h-2.55a.709.709,0,0,0-.708.708v5.615l-1.864,14.284c-.347,2.591-.6,5.221-.773,7.839a.616.616,0,0,0-.261.268l-1.491,2.981v-2.751c0-3.57-.154-7.08-.456-10.413-.132-2-.346-4.1-.652-6.416l-.376-2.877L491.487,769.7v-5.615a.71.71,0,0,0-.708-.708h-2.55a.71.71,0,0,0-.708.708V769.7l-1.886,14.477c-.078.628-.155,1.253-.205,1.856-.44,3.6-.661,7.323-.772,11.1l-1.54-7.7a.733.733,0,0,0-1.388,0l-1.46,7.3c-.035-3.541-.2-7.174-.54-10.849-.128-1.44-.3-2.857-.482-4.294l-.433-3.315-1.49-11.406V761.25a.709.709,0,0,0-.708-.708h-2.55a.71.71,0,0,0-.708.708v5.615L471.5,781.128c-.436,3.445-.724,6.518-.882,9.392-.152,2.68-.227,5.122-.227,7.547v5.5l-1.49-2.981c-.017-.035-.054-.049-.077-.079-.185-3.833-.493-7.411-.958-10.885l-.373-2.855-1.49-11.4v-5.615a.71.71,0,0,0-.708-.708h-2.55a.709.709,0,0,0-.708.708v5.615L460.17,789.62c-.327,2.482-.556,4.987-.738,7.5a.365.365,0,0,0,0,.045c-.227,3.121-.366,6.255-.366,9.4v10.62H454.1a.708.708,0,1,0,0,1.416h56.641a.708.708,0,0,0,0-1.416Zm-12.353-24.526.31-2.378h4.261s.51,4.471.621,5.511Zm3.648-9.458h-2.414l.185-1.416h2.045Zm.185,1.416.185,1.416h-3.153l.185-1.416Zm.369,2.832.185,1.416h-3.893l.185-1.416Zm-.923-7.08H500l.184-1.416h1.305ZM498.213,794.2l.5.3v9.065l-1.148-2.3C497.7,798.916,497.93,796.549,498.213,794.2Zm1.911,1.153,1.416.854v13.02l-1.416-2.832Zm2.832,1.708.8.483c.366,3.921.615,7.868.615,11.849v5.5l-1.416-2.832Zm-2.691-23.776H501.4v4.248h-1.134Zm-8.638,35.942V790.265l.989.6c.279,3.2.427,6.546.427,10.036v5.5ZM476.552,771.87h-2.417l.186-1.416h2.046Zm.186,1.416.185,1.416h-3.158l.185-1.416Zm.37,2.832.185,1.416h-3.9l.185-1.416Zm-.926-7.08h-1.675l.185-1.416H476Zm-2.972,9.912h4.268s.67,5.347.793,6.622l-6.14,3.678C472.3,786.786,473.211,778.951,473.211,778.951Zm13.676,6.793c.047-.465.488-3.961.488-3.961h4.261l.311,2.387c.235,1.764.4,3.381.53,4.953Zm3.824-11.041H488.3l.184-1.416h2.045Zm.185,1.416.185,1.416h-3.152l.184-1.416Zm.37,2.832.184,1.416H487.56l.184-1.416Zm-.924-7.08h-1.675l.185-1.416h1.305Zm-9.6,29.737h3.371l.284,1.416h-3.938Zm3.088-1.416h-2.8l.284-1.416h2.238Zm-7.774-11.639v26.341l-1.416-2.832V789.4Zm1.416-.849.931-.558c.307,3.678.485,7.328.485,10.922v5.6l-1.416,7.08Zm2.7,16.737h4.5l.283,1.416h-5.071Zm5.792-3.626a121.621,121.621,0,0,1,.771-13.5l.645.389v23.044l-1.416-7.08Zm2.832-12.259,1.415.855v22.651l-1.415,2.832Zm.141-23.764h1.134v4.248h-1.134Zm-6.513,28.39.836,4.179h-1.672Zm-7.647-31.222h1.134v4.248h-1.134ZM471.8,797.981c0-2.2.073-4.506.21-7.009l1.206-.723v18.98L471.8,806.4Zm-6.58-17.615h-2.416l.185-1.416h2.046Zm.185,1.416.185,1.416h-3.156l.185-1.416Zm.371,2.832.185,1.416h-3.9l.185-1.416Zm-.926-7.08h-1.676l.185-1.416h1.305ZM461.575,789.8l.308-2.357h4.268l.308,2.359c.118.88.2,1.793.3,2.688l-5.788,3.469C461.137,793.9,461.3,791.844,461.575,789.8Zm-1.1,16.674c0-2.908.114-5.834.316-8.757l1.1-.659v15l-1.416,2.832Zm2.832-10.264,1.416-.849V806.4l-1.416,2.832Zm2.832-1.7.785-.471c.219,2.238.4,4.525.507,6.937l-1.292,2.583Zm-2.691-24.062h1.134V774.7H463.45Zm4.814,32.026,1.333,2.666-6.018,12.036h-2.666Zm-3.1,14.7,5.227-10.454,5.227,10.454Zm19.387,0h-1.416v-4.11a2.081,2.081,0,0,1,1.416,1.958Zm-2.832,0H480.3v-2.152a2.08,2.08,0,0,1,1.416-1.958Zm4.248,0v-2.152a3.518,3.518,0,0,0-3.512-3.513H482.4a3.518,3.518,0,0,0-3.512,3.513v2.152h-1.261l1.982-9.911h5.637l1.983,9.911Zm3.268,0,5.227-10.454,5.228,10.454Zm12.036,0-6.018-12.036,1.333-2.666,7.351,14.7Z" transform="translate(-453.396 -760.542)"/></g></g></g></g></svg>