<svg xmlns="http://www.w3.org/2000/svg" xmlns:xlink="http://www.w3.org/1999/xlink" width="76" height="76" viewBox="0 0 76 76"><defs><style>.a{fill:#ffe01b;opacity:0.516;}.b{fill:none;}.c{clip-path:url(#a);}.d{fill:#062493;}.e{fill:#ec2938;}.f{fill:#fff;}.g,.h{fill:#06cbff;}.h{fill-rule:evenodd;}.i{fill:#091f3a;}</style><clipPath id="a"><circle class="a" cx="16" cy="16" r="16"/></clipPath></defs><g transform="translate(-470 -1366)"><g transform="translate(470 1366)"><rect class="b" width="76" height="76"/></g><g transform="translate(-3579 -4661)"><g class="c" transform="translate(4052 6033)"><g transform="translate(0)"><rect class="d" width="10.525" height="32"/><rect class="e" width="10.754" height="32" transform="translate(21.246)"/><rect class="f" width="10.72" height="32" transform="translate(10.525)"/></g></g><g transform="translate(4066.197 6041.889)"><rect class="g" width="16.567" height="1.744" transform="translate(35.791 28.469)"/><rect class="g" width="16.567" height="1.744" transform="translate(3.53 28.469)"/><path class="h" d="M610.7,472.1l-44.469-.872L561,466h53.188Z" transform="translate(-560.086 -457.586)"/><g transform="translate(0 0)"><path class="i" d="M615.075,508.07h-2.042v-2.041a.681.681,0,0,0-.68-.681H610.31V487.654h2.042a.681.681,0,0,0,.68-.681v-2.722a.68.68,0,0,0-.68-.68H610.31V470.923l5.246-5.245a.68.68,0,0,0-.481-1.162H610.31v-4.482l2.523-2.523a.679.679,0,0,0-.481-1.161h-49a.679.679,0,0,0-.481,1.161l2.522,2.523v4.482h-4.763a.68.68,0,0,0-.481,1.162l5.245,5.245v12.648h-2.041a.68.68,0,0,0-.68.68v2.722a.681.681,0,0,0,.68.681H565.4v17.693h-2.041a.681.681,0,0,0-.68.681v2.041h-2.042a.681.681,0,0,0-.68.681v2.722a.68.68,0,0,0,.68.68h54.443a.68.68,0,0,0,.68-.68v-2.722A.681.681,0,0,0,615.075,508.07Zm-6.125-19.055h-7.486a.681.681,0,0,0,0,1.361h7.486v1.361h-4.763a.681.681,0,0,0,0,1.361h4.763v12.249h-1.36v-7.486a.681.681,0,0,0-.681-.68h-5.444a.68.68,0,0,0-.68.68v7.486h-1.361V487.654h9.527Zm-2.721,16.332h-4.083v-6.8h4.083Zm-9.528,0V487.654h1.361v17.693Zm-16.333,0V484.169a7.486,7.486,0,0,1,14.972,0v21.179Zm-2.722,0V487.654h1.361v17.693Zm17.694-34.027v4.123a11.64,11.64,0,0,0-7.568-2.761,11.512,11.512,0,0,0-7.4,2.727v-4.088ZM580.2,477.435h0l.84-.841a10.311,10.311,0,0,1,13.593.012,9.783,9.783,0,0,1,3.41,6.882h-1.366a8.854,8.854,0,0,0-17.64,0H577.67A10.116,10.116,0,0,1,580.2,477.435Zm31.474,8.858H596.7v-1.361h14.971Zm-12.265-2.722c-.015-.3-.08-.6-.119-.9a11.405,11.405,0,0,0-2.586-5.92v-5.432h12.249v9.528h-4.763a.681.681,0,0,0,0,1.361h4.763v1.361Zm.017-19.055v-4.083h4.083v4.083Zm-5.444,0v-4.083h4.083v4.083Zm-5.444,0v-4.083h4.083v4.083Zm-5.444,0v-4.083h4.083v4.083Zm-5.444,0v-4.083h4.083v4.083Zm-5.444,0v-4.083h4.083v4.083Zm32.666-4.083h4.082v4.083h-4.082Zm5.843-2.722-1.361,1.361H566.358L565,457.71Zm-43.953,2.722h4.083v4.083h-4.083Zm46.675,5.444-4.083,4.083H566.358l-4.083-4.083ZM566.756,482.21h4.764a.681.681,0,0,0,0-1.361h-4.764v-9.528h12.25v5.409a11.678,11.678,0,0,0-2.706,6.841h-9.544Zm-2.722,2.722h14.972v1.361H564.034Zm2.722,8.167h4.764a.681.681,0,0,0,0-1.361h-4.764v-1.361h7.486a.681.681,0,0,0,0-1.361h-7.486v-1.361h9.528v17.693h-1.361v-7.486a.68.68,0,0,0-.68-.68H568.8a.681.681,0,0,0-.681.68v7.486h-1.361Zm6.805,12.249h-4.083v-6.8h4.083Zm-9.528,1.361h47.637v1.361H564.034Zm50.359,4.083H561.313v-1.361h53.081Z" transform="translate(-559.952 -456.35)"/><path class="i" d="M612.606,479.845v-2.722a1.94,1.94,0,0,0-1.815-2.042h-4.535a1.94,1.94,0,0,0-1.816,2.042v2.722a1.94,1.94,0,0,0,1.816,2.041h4.535A1.94,1.94,0,0,0,612.606,479.845Zm-6.805,0v-2.722c0-.4.24-.681.455-.681h4.535c.215,0,.454.279.454.681v2.722c0,.4-.239.68-.454.68h-4.535C606.04,480.525,605.8,480.246,605.8,479.845Z" transform="translate(-565.649 -458.749)"/><path class="i" d="M578.265,479.845v-2.722a1.94,1.94,0,0,0-1.816-2.042h-4.535a1.94,1.94,0,0,0-1.815,2.042v2.722a1.94,1.94,0,0,0,1.815,2.041h4.535A1.94,1.94,0,0,0,578.265,479.845Zm-1.361,0c0,.4-.24.68-.455.68h-4.535c-.215,0-.454-.279-.454-.68v-2.722c0-.4.239-.681.454-.681h4.535c.215,0,.455.279.455.681Z" transform="translate(-561.251 -458.749)"/><path class="i" d="M570,470.2h38.109a.681.681,0,1,0,0-1.361H570a.681.681,0,1,0,0,1.361Z" transform="translate(-561.151 -457.949)"/></g></g></g></g></svg>