<svg xmlns="http://www.w3.org/2000/svg" xmlns:xlink="http://www.w3.org/1999/xlink" width="76" height="76" viewBox="0 0 76 76"><defs><style>.a{fill:#fff;}.b{fill:none;}.c{clip-path:url(#a);}.d{fill:#009246;}.e{fill:#ce2b37;}.f{fill:#02c09d;}.g{fill:#091f3a;}</style><clipPath id="a"><rect class="a" width="29.056" height="29.056" rx="14.528" transform="translate(0)"/></clipPath></defs><g transform="translate(-171 -1500)"><g transform="translate(171 1500)"><rect class="b" width="76" height="76"/></g><g transform="translate(-3722 -4791)"><g class="c" transform="translate(3903 6294)"><g transform="translate(-9.031 0.014)"><rect class="d" width="15.585" height="29.042" transform="translate(0 0)"/><rect class="e" width="15.796" height="29.042" transform="translate(31.277 0)"/><rect class="a" width="15.691" height="29.042" transform="translate(15.585 0)"/></g></g><g transform="translate(3903 6308)"><ellipse class="f" cx="2.751" cy="3.753" rx="2.751" ry="3.753" transform="translate(41.437 44.94)"/><ellipse class="f" cx="2.751" cy="3.753" rx="2.751" ry="3.753" transform="translate(0.373 44.94)"/><ellipse class="f" cx="2.751" cy="3.753" rx="2.751" ry="3.753" transform="translate(2.862 46.184)"/><ellipse class="f" cx="2.751" cy="3.753" rx="2.751" ry="3.753" transform="translate(49.525 44.94)"/><ellipse class="f" cx="2.751" cy="3.753" rx="2.751" ry="3.753" transform="translate(47.037 46.184)"/><rect class="a" width="6.186" height="5.901" rx="1.809" transform="translate(28.35 4.343) rotate(7.459)"/><g transform="translate(0 0)"><path class="g" d="M509.393,589.434c0-2.681-1.5-4.781-3.414-4.781a3.275,3.275,0,0,0-2.788,2.1,2.183,2.183,0,0,0-.409-.055,2.5,2.5,0,0,0-1.862.92c-.023-.075-.033-.159-.059-.233a3.513,3.513,0,0,0-3.078-2.737c-1.915,0-3.415,2.1-3.415,4.781,0,2.352,1.155,4.255,2.732,4.686v1.459h-7.463l.535-5.172.86.09a.7.7,0,0,0,.073,0,.683.683,0,0,0,.072-1.363l-.876-.092,3.856-36.677a.686.686,0,0,0-.609-.75l-2.433-.255.583-5.547a3.816,3.816,0,0,0-3.394-4.191l-6.225-.654a3.775,3.775,0,0,0-4.193,3.393l-.583,5.548-2.434-.256a.683.683,0,0,0-.751.609l-3.855,36.677-.878-.092a.664.664,0,0,0-.75.608.683.683,0,0,0,.608.752l.885.094-.766,7.277h-8.673v-.8c1.313-.419,2.268-2.013,2.268-3.981,0-2.3-1.3-4.1-2.95-4.1a2.153,2.153,0,0,0-.409.055,3.279,3.279,0,0,0-2.787-2.1c-1.915,0-3.415,2.1-3.415,4.781,0,2.352,1.155,4.255,2.732,4.686v1.459h-2.048a.683.683,0,1,0,0,1.366H508.71a.683.683,0,0,0,0-1.366h-2.049V594.12C508.238,593.689,509.393,591.786,509.393,589.434Zm-3.414-3.415c1.109,0,2.048,1.564,2.048,3.415s-.939,3.414-2.048,3.414a1.448,1.448,0,0,1-.966-.424,4.123,4.123,0,0,1-1.083-2.99,4.952,4.952,0,0,1,.267-1.62C504.554,586.723,505.252,586.019,505.979,586.019Zm-3.271,2.052c-.01.043-.006.089-.014.133a6.458,6.458,0,0,0-.13,1.23,5.847,5.847,0,0,0,1.134,3.577,1.22,1.22,0,0,1-.915.521c-.843,0-1.585-1.278-1.585-2.732C501.2,589.386,501.9,588.142,502.708,588.071Zm-6.973,1.363c0-1.851.94-3.415,2.049-3.415.725,0,1.424.7,1.784,1.811a4.833,4.833,0,0,1,.264,1.6,4.107,4.107,0,0,1-1.1,3,1.424,1.424,0,0,1-.952.416C496.674,592.848,495.735,591.285,495.735,589.434Zm2.732,4.643a2.8,2.8,0,0,0,1.193-.64,3.882,3.882,0,0,0,.55-.646,3.215,3.215,0,0,0,1.891,1.989v.8h-3.634Zm-6.394-34.945L491.558,564l-1.753-.184.256-2.431a.686.686,0,0,0-.608-.751.7.7,0,0,0-.752.606l-.256,2.432-1.753-.184.256-2.432a.686.686,0,0,0-.608-.751.7.7,0,0,0-.752.606l-.256,2.433-1.753-.184.256-2.432a.686.686,0,0,0-.608-.751.7.7,0,0,0-.752.607l-.256,2.433-1.753-.184.256-2.432a.684.684,0,0,0-1.361-.144l-.256,2.433-1.754-.184.255-2.435a.68.68,0,0,0-.608-.749.672.672,0,0,0-.75.608l-.255,2.433-1.754-.185.512-4.867ZM474.1,563.537l17.32,1.821-.512,4.867-1.753-.184.256-2.433a.684.684,0,1,0-1.361-.144l-.256,2.434-1.753-.184.255-2.434a.688.688,0,0,0-.608-.752.7.7,0,0,0-.752.608l-.255,2.435-1.753-.184.255-2.432a.688.688,0,0,0-.608-.752.7.7,0,0,0-.752.608l-.255,2.433-1.753-.184.255-2.433a.687.687,0,0,0-.608-.753.694.694,0,0,0-.752.608l-.254,2.434-1.755-.185.256-2.433a.683.683,0,0,0-.607-.752.672.672,0,0,0-.751.608l-.256,2.435-1.755-.184Zm-.655,6.229,17.321,1.82-.512,4.866-1.753-.185.255-2.432a.684.684,0,1,0-1.361-.144l-.255,2.434-1.755-.185.257-2.433a.684.684,0,1,0-1.361-.144l-.256,2.435-1.753-.185.256-2.432a.684.684,0,1,0-1.361-.144l-.256,2.433-1.753-.185.256-2.432a.683.683,0,1,0-1.359-.144l-.256,2.434-1.754-.185.255-2.433a.682.682,0,1,0-1.357-.144l-.256,2.435-1.754-.185Zm-.654,6.225,8.658.91h0l8.66.91-.514,4.866-1.753-.185.256-2.433a.684.684,0,0,0-1.361-.144l-.256,2.434-1.753-.185.256-2.434a.684.684,0,0,0-1.361-.143l-.256,2.435-1.753-.185.256-2.432a.684.684,0,0,0-1.361-.143l-.256,2.433-1.754-.185.256-2.433a.683.683,0,1,0-1.358-.143l-.255,2.434-1.755-.185.255-2.434a.683.683,0,1,0-1.358-.143l-.255,2.435-1.754-.185Zm-.654,6.226,17.32,1.821-.511,4.861-1.753-.185.256-2.429a.684.684,0,1,0-1.361-.144l-.256,2.43-1.753-.185.256-2.43a.684.684,0,1,0-1.361-.144l-.256,2.43-1.753-.185.254-2.427a.684.684,0,0,0-1.361-.143l-.254,2.428-1.755-.185.256-2.428a.682.682,0,0,0-.607-.752.664.664,0,0,0-.751.608l-.255,2.429-1.755-.185.256-2.425a.682.682,0,0,0-.607-.752.667.667,0,0,0-.751.608l-.255,2.426-1.755-.185Zm9.64-31.838.262-2.465a2.489,2.489,0,0,1,2.651-2.15l.065.006a2.418,2.418,0,0,1,2.15,2.655l-.259,2.465Zm-2.529-5.873a2.481,2.481,0,0,1,2.689-2.18l6.226.655a2.445,2.445,0,0,1,2.177,2.691l-.582,5.545L488,551.034l.26-2.464a3.788,3.788,0,0,0-3.367-4.156l-.064-.007a3.716,3.716,0,0,0-2.774.822,3.764,3.764,0,0,0-1.382,2.543l-.26,2.465-1.754-.184Zm-3.84,6.579,17.321,1.82-.512,4.867-1.756-.185.257-2.434a.684.684,0,0,0-1.361-.144l-.257,2.434-1.752-.184.256-2.433a.684.684,0,0,0-1.361-.144l-.257,2.435-1.752-.185.256-2.433a.684.684,0,0,0-1.361-.143l-.256,2.434-1.753-.185.256-2.434a.685.685,0,0,0-.608-.751.7.7,0,0,0-.752.607l-.256,2.434-1.753-.184.255-2.434a.682.682,0,1,0-1.357-.142l-.255,2.433-1.755-.185Zm-3.92,37.359,17.327,1.82-.549,5.314H470.734Zm-9.894,2.354c0,1.453-.74,2.732-1.585,2.732a1.223,1.223,0,0,1-.915-.521c.05-.061.086-.138.132-.2a6.017,6.017,0,0,0,.871-4.607c-.008-.042,0-.088-.014-.13C460.893,588.142,461.591,589.388,461.591,590.8Zm-6.829-1.366c0-1.851.938-3.415,2.049-3.415.725,0,1.425.7,1.787,1.809a4.978,4.978,0,0,1,.262,1.606,5.377,5.377,0,0,1-.086.945,3.622,3.622,0,0,1-1.008,2.054,1.434,1.434,0,0,1-.955.416C455.7,592.848,454.762,591.285,454.762,589.434Zm2.732,4.643a2.687,2.687,0,0,0,.543-.214,2.764,2.764,0,0,0,1.287.924v.793h-1.83Zm45.972,1.5v-.793a2.745,2.745,0,0,0,1.286-.924,2.66,2.66,0,0,0,.543.214v1.5Z" transform="translate(-453.396 -540.945)"/></g></g></g></g></svg>