<svg xmlns="http://www.w3.org/2000/svg" width="76" height="76" viewBox="0 0 76 76"><defs><style>.a{fill:none;}.b{fill:#268064;}.b,.c{stroke:#707070;}.c,.d{fill:#7cc6af;}</style></defs><g transform="translate(-1449 -2119)"><g transform="translate(1449 2119)"><rect class="a" width="76" height="76"/></g><g transform="translate(-0.942 0)"><path class="b" d="M1071.988-2028.753l-6.363,3.118-1.329,4.975h20.1s-1.98-6.4-3.647-7S1071.988-2028.753,1071.988-2028.753Z" transform="translate(397.034 4207.884)"/><path class="c" d="M1071.988-2028.753l-6.363,3.118-1.329,4.975h20.1s-1.98-6.4-3.647-7S1071.988-2028.753,1071.988-2028.753Z" transform="translate(437.389 4207.884)"/><circle class="d" cx="14.348" cy="14.348" r="14.348" transform="translate(1452.942 2126)"/><path d="M18.846,38.136a8.56,8.56,0,1,0-10.866,0A9.992,9.992,0,0,0,2,47.27,1.427,1.427,0,0,0,3.427,48.7H23.4a1.427,1.427,0,0,0,1.427-1.427A9.992,9.992,0,0,0,18.846,38.136ZM13.413,25.87a5.707,5.707,0,1,1-5.707,5.707,5.707,5.707,0,0,1,5.707-5.707ZM5,45.843a7.145,7.145,0,0,1,6.99-5.707H14.84a7.145,7.145,0,0,1,6.99,5.707Z" transform="translate(1458.168 2140.158)"/><path d="M46.846,38.136a8.56,8.56,0,1,0-10.866,0A9.992,9.992,0,0,0,30,47.27,1.427,1.427,0,0,0,31.427,48.7H51.4a1.427,1.427,0,0,0,1.427-1.427,9.992,9.992,0,0,0-5.98-9.134ZM41.413,25.87a5.707,5.707,0,1,1-5.707,5.707A5.707,5.707,0,0,1,41.413,25.87ZM33,45.843a7.145,7.145,0,0,1,6.99-5.707H42.84a7.145,7.145,0,0,1,6.99,5.707Z" transform="translate(1470.115 2140.158)"/><path d="M21.694,7h-8.56a7.133,7.133,0,0,0-1.427,14.123v4.424a1.427,1.427,0,0,0,2.435,1.009l5.289-5.289h2.263A7.133,7.133,0,1,0,21.694,7Zm0,11.413H18.841a1.426,1.426,0,0,0-1.009.418L14.561,22.1V19.84a1.427,1.427,0,0,0-1.427-1.427,4.28,4.28,0,0,1,0-8.56h8.56a4.28,4.28,0,0,1,0,8.56Z" transform="translate(1459.874 2133.348)"/><path d="M35.4,21.267l5.289,5.289a1.427,1.427,0,0,0,2.435-1.009V21.123A7.133,7.133,0,0,0,41.693,7h-8.56a7.133,7.133,0,1,0,0,14.267Zm-6.543-7.133a4.285,4.285,0,0,1,4.28-4.28h8.56a4.28,4.28,0,0,1,0,8.56,1.427,1.427,0,0,0-1.427,1.427V22.1L37,18.831a1.426,1.426,0,0,0-1.009-.418H33.133A4.285,4.285,0,0,1,28.853,14.133Z" transform="translate(1468.408 2133.348)"/></g></g></svg>