<svg xmlns="http://www.w3.org/2000/svg" width="79.758" height="64.955" viewBox="0 0 79.758 64.955"><defs><style>.a{fill:#707070;}</style></defs><g transform="translate(-1.911 -4.561)"><path class="a" d="M81.668,42.541A12.389,12.389,0,0,0,67.447,30.255c0-.164.025-.327.025-.491a25.2,25.2,0,0,0-48.8-8.847A17.026,17.026,0,1,0,19.2,54.966l8.518,0a2.839,2.839,0,0,0,0-5.679H19.2a11.358,11.358,0,1,1,0-22.715,11.626,11.626,0,0,1,1.212.064,2.687,2.687,0,0,0,.335-.032,2.75,2.75,0,0,0,.561-.053,2.7,2.7,0,0,0,.518-.174,2.449,2.449,0,0,0,.883-.608,2.7,2.7,0,0,0,.328-.391,2.768,2.768,0,0,0,.262-.517,2.6,2.6,0,0,0,.149-.293A19.527,19.527,0,0,1,61.395,33.7a2.828,2.828,0,0,0,.414,2.138l.007.02a2.849,2.849,0,0,0,3.907.934,6.744,6.744,0,1,1,3.521,12.494H56.467a2.839,2.839,0,0,0,0,5.679h14.02a2.82,2.82,0,0,0,1.131-.24A12.437,12.437,0,0,0,81.668,42.541Z" transform="translate(0)"/><path class="a" d="M38.258,22.525,26.9,14.007a2.828,2.828,0,0,0-3.405,0L12.137,22.525a2.839,2.839,0,1,0,3.405,4.544l6.814-5.112V50.352a2.839,2.839,0,0,0,5.679,0V21.957l6.815,5.111a2.839,2.839,0,1,0,3.405-4.544Z" transform="translate(16.72 16.326)"/></g></svg>