<svg xmlns="http://www.w3.org/2000/svg" xmlns:xlink="http://www.w3.org/1999/xlink" width="953.492" height="532.194" viewBox="0 0 953.492 532.194"><defs><style>.a{opacity:0.6;}.b,.e{opacity:0.5;}.b{fill:url(#a);}.c{opacity:0.3;fill:url(#b);}.d{opacity:0.41;}.d,.f{fill:url(#c);}.e{fill:url(#d);}.f{opacity:0.45;}.g{fill:#87ddf6;}.h{fill:#141633;}.i{fill:#fd4b1b;}.j{fill:#262ba1;}.k{fill:#acc7fb;}.l{fill:url(#j);}.m{fill:url(#k);}.n{fill:url(#l);}.o{fill:#dfeafe;}.p{fill:url(#m);}.q{fill:url(#n);}.r{fill:#fec051;}.s{fill:#4655ee;}.t{fill:#fff;}.u{fill:#e74960;}</style><linearGradient id="a" y1="0.5" x2="1" y2="0.5" gradientUnits="objectBoundingBox"><stop offset="0" stop-color="#eb6f6d"/><stop offset="0.415" stop-color="#eb7d63"/><stop offset="1" stop-color="#eca04c"/></linearGradient><linearGradient id="b" y1="0.5" x2="1.12" y2="0.401" gradientUnits="objectBoundingBox"><stop offset="0" stop-color="#ed5351"/><stop offset="0" stop-color="#009fff"/><stop offset="1" stop-color="#ec2f4b"/></linearGradient><linearGradient id="c" x1="0.5" x2="0.5" y2="1" gradientUnits="objectBoundingBox"><stop offset="0" stop-color="#8360c3"/><stop offset="1" stop-color="#2ebf91"/></linearGradient><linearGradient id="d" x1="0.5" y1="0" x2="0.5" y2="1" xlink:href="#a"/><linearGradient id="j" x1="0.5" y1="0.995" x2="0.5" y2="2.787" gradientUnits="objectBoundingBox"><stop offset="0" stop-color="#4d5eee"/><stop offset="1" stop-color="#88e0fb"/></linearGradient><linearGradient id="k" x1="0.5" y1="0.882" x2="0.5" y2="2.177" xlink:href="#j"/><linearGradient id="l" x1="0.5" y1="0.155" x2="0.5" y2="0.896" xlink:href="#j"/><linearGradient id="m" x1="0.5" y1="0.251" x2="0.5" y2="1.028" xlink:href="#j"/><linearGradient id="n" x1="0.5" y1="0.059" x2="0.5" y2="0.438" gradientUnits="objectBoundingBox"><stop offset="0" stop-color="#3f49dc"/><stop offset="1" stop-color="#272ca3"/></linearGradient></defs><g transform="translate(-536 -261)"><g class="a" transform="translate(515.84 -658.596)"><circle class="b" cx="11.135" cy="11.135" r="11.135" transform="matrix(-0.788, -0.616, 0.616, -0.788, 535.97, 1337.12)"/><path class="c" d="M6.964,86.887C21.661,47.041,42.889-1.52,109.568.036c98.9,2.308,117.3,33.308,155.4,34.553s89.541-9.65,120.022,30.2,44.634,79.068,32.659,127.63-33.2,70.975-81.648,92.765S150.2,374.238,52.959,258.409C-25.967,164.4,6.6,87.888,6.964,86.887Z" transform="matrix(0.602, 0.799, -0.799, 0.602, 703.417, 919.596)"/><path class="d" d="M945.062,1494.49c64.584,128.562,142.585,114.016,225.464,72.788s62.169-130.977,35.361-184.342-73.725-104.308-170.012-56.411S920.691,1445.976,945.062,1494.49Z" transform="translate(-296.556 -339.818)"/><path class="e" d="M88.119,54.909a72.558,72.558,0,0,0-4.872-8.395,39.256,39.256,0,0,1-6.867-22.151v-.141C76.381,4.614,57.348,0,44.66,0S17.842,4.037,17.842,26.819q0,1.04.032,2.045A38.3,38.3,0,0,1,9.205,54.318C-1.189,67.034-2.13,80.894,3.139,91.434,24.181,133.527,49.6,128.764,76.6,115.266S96.853,72.382,88.119,54.909Z" transform="translate(890.668 1227.572) rotate(30)"/><path class="f" d="M1261.97,1254.768c38.278,0,63.8-31.9,63.8-51.039s-25.52-54.229-54.229-54.229-51.039,25.52-51.039,54.229S1233.259,1254.768,1261.97,1254.768Z" transform="translate(-707.34 -181.455)"/><path class="f" d="M1238.512,1195.221c16.625,0,27.709-13.855,27.709-22.168s-11.084-23.554-23.553-23.554-22.168,11.084-22.168,23.554S1226.042,1195.221,1238.512,1195.221Z" transform="translate(-293.245 60.885)"/></g><g class="a" transform="translate(-39.508)"><path class="f" d="M1261.97,1254.768c38.278,0,63.8-31.9,63.8-51.039s-25.52-54.229-54.229-54.229-51.039,25.52-51.039,54.229S1233.259,1254.768,1261.97,1254.768Z" transform="translate(-644.992 -533.051)"/><path class="e" d="M88.119,54.909a72.558,72.558,0,0,0-4.872-8.395,39.256,39.256,0,0,1-6.867-22.151v-.141C76.381,4.614,57.348,0,44.66,0S17.842,4.037,17.842,26.819q0,1.04.032,2.045A38.3,38.3,0,0,1,9.205,54.318C-1.189,67.034-2.13,80.894,3.139,91.434,24.181,133.527,49.6,128.764,76.6,115.266S96.853,72.382,88.119,54.909Z" transform="translate(705.418 413.976) rotate(30)"/><path class="f" d="M1238.512,1195.221c16.625,0,27.709-13.855,27.709-22.168s-11.084-23.554-23.553-23.554-22.168,11.084-22.168,23.554S1226.042,1195.221,1238.512,1195.221Z" transform="translate(-577.5 -686.711)"/></g><g transform="translate(112.61 10.505)"><g transform="translate(610.366 456.608)"><g transform="translate(70.381)"><path class="g" d="M765.572,493.817a95.242,95.242,0,0,0-16.8-9.277c-6.516-2.952-13.708-5.811-20.867-8.719s-32.533-15.521-36.653-19.213c31.732,31.439,52.826,86.1,80.192,63.988C781.674,512.327,774.467,500.378,765.572,493.817Z" transform="translate(-691.252 -456.608)"/><path class="g" d="M693.2,540.35a8.936,8.936,0,0,0-1.5.6C692.186,540.742,692.694,540.547,693.2,540.35Z" transform="translate(-691.283 -462.307)"/><path class="g" d="M735.185,535.192a74.338,74.338,0,0,0-23.005-.078,85.219,85.219,0,0,0-18.872,4.822c3.614-1.091,8.565-.336,14.254,1.4,13.686,2.682,23.69,12.687,33.7,21.439,6.253,3.753,11.255,11.257,20.008,7.5,8.755-2.5,1.252-18.758-6.577-26.442C749.431,539.159,742.6,536.476,735.185,535.192Z" transform="translate(-691.392 -461.892)"/><path class="g" d="M828.076,556.426c-8.151-3.948-20.842-3.937-25.428-2.368-14.312,4.9-20,17.149-12.495,25.9,7.5,11.255,36.256-12.573,60.017,10.979C851.42,579.207,846.032,565.124,828.076,556.426Z" transform="translate(-697.757 -463.173)"/><path class="g" d="M729.108,583.524c-10.005-2.5-21.261-2.5-30.574,3.145,9.9-4.854,19.3,1.542,27.284,10.015,8.291,9.35,15.8,31.86,25.8,19.354S742.863,587.275,729.108,583.524Z" transform="translate(-691.748 -465.136)"/><path class="g" d="M803.241,626.71c-6.032-.96-11.261-.213-15.267,2.326-11.828,7.5-14.153,21.3-2.209,24.642,5.718,1.6,11.848-3.246,17.872-6.683s12.149-6.014,18.405-1.643C820.238,634.364,815.2,628.614,803.241,626.71Z" transform="translate(-697.147 -468.156)"/><path class="g" d="M705.256,618.6c1.752-.374,5.878,9.27,10.925,20.272,4.629,7.118,4.629,15.872,10.882,22.124,5,5,13.756,5,13.756-1.25C742.071,640.983,729.565,612.22,705.256,618.6Z" transform="translate(-692.205 -467.57)"/><path class="g" d="M796.942,686.9c-5.873-.425-11.169-1.071-16.883-3.181-7.661-2.828-17.752,1.581-14.366,11.1,4.9,13.768,21.278,13.994,32.969,9.379,11.88-4.69,16.257,3.439,16.257,3.439S817.42,688.379,796.942,686.9Z" transform="translate(-696.272 -472.005)"/><path class="h" d="M770.559,599.776c.954-5.608,1.8-14.7,2.482-20.33,2.053-16.91,5.8-41.73.333-56.267-3.592-9.542-20.322-26.418-30.327-28.617,8.284,4,26.616,21.82,28.606,29.335,4.165,13.9,2.139,26.409.991,40.516-.573,7.052-1.406,14.1-2.1,21.095S765.4,610.25,765.4,610.25c5.158-46.583-17.406-64.031-30.672-69.563-4.908-2.047-9.66-2.2-14.821-2.728-.252-.042-.445.205-.192.252a42.171,42.171,0,0,1,20.712,6.99,58.168,58.168,0,0,1,13.337,14.254,66.627,66.627,0,0,1,8,17.192c8.79,24.694-3.921,49.922-10.174,74.933,1.457-17.413.936-33.531-4.121-49.771-2.011-6.458-10.739-19.008-18.183-21.729,32.515,22.51,19.071,70.19,15.318,103.954-5.105-17.873-12.987-50.9-21.572-62.684,8.755,28.763,28.294,67.842,12.506,92.542h10.464s-2.931-15.376,2.246-22.142c6.335-8.281,31.061-15.375,42.316-7.872-15.326-12.107-41.408,4.113-41.408,4.113s20.148-41.629,36.385-53.406a76.141,76.141,0,0,1,17.529-9.483c-10.135,2-17.11,6.095-22.164,11.322-8.39,7.9-23.965,31.844-33.826,47.8,3.751-23.761,20.689-74.891,33.011-94.854,3.149-5.3,20.008-41.964,39.236-26.8C794.727,540.374,774.326,596.671,770.559,599.776Z" transform="translate(-693.181 -459.191)"/></g><g transform="translate(0 47.124)"><path class="g" d="M615.732,507.173c5.116,1.473,14.084,7.33,19.564,18.3,8.249,16.516,25.694,31.392,45.858,31.655C665.119,532.231,673.345,519.26,615.732,507.173Z" transform="translate(-615.732 -507.173)"/><path class="g" d="M667.6,567.194c-13.759-2.485-29.43.559-39.32,10.6,2.255-2.6,10.807-2.979,15.58-2.313,17.906,1.3,26.389,31.815,42.217,15.727C696.016,581.111,677.558,568.992,667.6,567.194Z" transform="translate(-616.586 -511.201)"/><path class="g" d="M726.7,555.407c-16.129,2.242-16.461,21.967-12.164,24.819,8.483,5.629,12.153-8,23.816-10.174,3.886-.724,13.434,1.752,16.979,3.505C745.937,568.47,747.191,552.558,726.7,555.407Z" transform="translate(-622.297 -510.432)"/><path class="g" d="M692.172,611.211a51.848,51.848,0,0,0-21.285-8.094c-10.268.382-16.878,6.828-21.74,14.223,4.795-6.754,14.418-4.486,24.193-.469,8.706,3.676,19.759,12.777,24.864,8.113C701.91,620.628,698.3,615.429,692.172,611.211Z" transform="translate(-618.006 -513.702)"/><path class="g" d="M649.11,618.378c-.182.256-.358.522-.526.8C648.755,618.912,648.934,618.646,649.11,618.378Z" transform="translate(-617.968 -514.741)"/><path class="g" d="M735.313,597.84c-7.554,3.264-12.2,11.791-12.2,19.01s4.719,15.448,13.421,10.674c5.743-3.149,2.59-8.14,6.635-14.725s9.418-12.052,13.348-7.312C750.976,597.073,743.9,594.686,735.313,597.84Z" transform="translate(-623.04 -513.252)"/><path class="g" d="M668.168,642.7c9.3.347,11.053,3.55,15.95,13.374,5.925,11.885,14.707,20.168,23.662,14.338,4.743-3.089,1.118-15.343-3.541-20.666C696,640.337,680.423,633.672,668.168,642.7Z" transform="translate(-619.3 -516.105)"/><path class="g" d="M737.934,677.573c6.54,6.7,15.507,3.747,20.959-.536s7.544-23.158,7.544-23.158-14.51,7.2-23.79,8.928C736.431,664.766,731.77,671.258,737.934,677.573Z" transform="translate(-623.851 -517.156)"/><path class="h" d="M726.891,680.156c-4.684,8.571-3.881-5.06-3.881-5.06s-2.809-61.284,15.519-76.276c-17.465,13.818-14.993,46.369-18.372,65.9,1.211-27.249-28.268-93.806,9.713-103.7-19.1,1.147-24.006,25.94-22.037,44.4-8.58-20.123-22.73-49.332-41.181-61.983,19.175,16.539,34.349,48.319,42.586,70.92-11.09-20.589-39.65-44.847-61-42.521-.181.021-.275.227-.092.24,37.035,1.7,68.12,44.713,69.346,81.493-6.4-8.4-18.255-50.583-49.153-49.3,31.313,1.8,50.69,52.648,53.115,80.757-8.347-13.443-17.847-25.383-26.387-36.663-3.2-4.229-7.643-8.632-12.427-10.556,23.257,21.557,46.73,59.559,42.609,75.329l4.153-1.072s-13.071-34.921,19.831-53.686C738.322,660.952,730.5,673.544,726.891,680.156Z" transform="translate(-617.931 -509.641)"/></g><g transform="translate(90.374 230.909)"><path class="i" d="M763.241,704.378H715.426a2.719,2.719,0,0,0-2.652,3.322l1.771,7.785A2.721,2.721,0,0,0,717.2,717.6h44.272a2.72,2.72,0,0,0,2.652-2.115l1.771-7.785A2.719,2.719,0,0,0,763.241,704.378Z" transform="translate(-712.705 -704.378)"/><path class="i" d="M721.911,746.366a4.063,4.063,0,0,0,4.025,3.512h27.275a4.061,4.061,0,0,0,4.025-3.512l3.823-27.936H718.089Z" transform="translate(-713.071 -705.334)"/></g></g><g transform="translate(536.882 483.816)"><g transform="translate(9.141 138.357)"><path class="j" d="M597.106,644.018H558.447a1.151,1.151,0,1,0,0,2.3h11.442a7.886,7.886,0,0,1,7.888,7.886v28.634h2.457V654.2a7.886,7.886,0,0,1,7.887-7.886h8.986a1.151,1.151,0,1,0,0-2.3Z" transform="translate(-547.407 -634.926)"/><rect class="j" width="11.019" height="8.281" rx="3.647" transform="translate(26.089 46.644)"/><path class="j" d="M594.924,724.189H581.917V691.84H576.87v32.349H563.863a.948.948,0,1,0,0,1.9H576.87v17.587h5.047V726.085h13.006a.948.948,0,0,0,0-1.9Z" transform="translate(-547.795 -638.18)"/><path class="j" d="M593.474,749.969l-11.261-4.225a.914.914,0,0,0-.32-.058h-4.718a.906.906,0,0,0-.319.058L565.6,749.969a.911.911,0,0,0,.32,1.763h27.239A.911.911,0,0,0,593.474,749.969Z" transform="translate(-547.937 -641.845)"/><path class="k" d="M603.34,634.262h-52.1a4.546,4.546,0,0,0,0,9.092h52.1a4.546,4.546,0,0,0,0-9.092Z" transform="translate(-546.691 -634.262)"/></g><path class="l" d="M644.423,612.5c-22.251-7.631-76.8-16.323-86.062-14.348-10,2.131-8.751,26.052,9.119,29.951,20.344,4.438,50.273,7.93,74.821,1.992C651.489,627.869,653.888,615.744,644.423,612.5Z" transform="translate(-537.918 -493.429)"/><path class="h" d="M641.044,715.51a21.216,21.216,0,0,1-.771-3.33l-5.934.534s-.38,1.419-.642,2.821c-.3,1.622-2.777,3.352-1.448,5.311.513.757,3.515.8,5.212,1.145,1.33.272,5.434,1.018,7.614,1.426,2.35.441,5.716.191,5.951-1.061C651.523,719.7,641.885,717.68,641.044,715.51Z" transform="translate(-543.345 -501.208)"/><path class="k" d="M633.228,711.3a12.641,12.641,0,0,1,.563,4.1s5.6,1.608,6.6,1.2c1.23-.5.742-1.224.742-1.224-.606-1.711-.212-5.095-.212-5.095Z" transform="translate(-543.438 -501.079)"/><path class="m" d="M631.513,621.818c-20.166-12.11-68.578-24.848-78.049-24.851-10.223,0-19.889,25.359-3.228,32.9,18.97,8.59,50.282,9.393,75.526,8.71C635.214,638.326,640.093,626.97,631.513,621.818Z" transform="translate(-537.178 -493.368)"/><path class="n" d="M620.537,639.389c5.6,35.852,11.577,67.33,11.577,67.33,2.79.446,6.241.85,8.209-.462,0,0,.673-31.131,1.63-72.364C642.342,617.072,616.849,615.751,620.537,639.389Z" transform="translate(-542.55 -495.032)"/><path class="k" d="M648.608,591.042a11.5,11.5,0,0,1-3.423.382c1.256.26.981,1,2.253,1.465.541.029,2.656-1.069,2.513-1.593C649.8,590.467,649.2,590.848,648.608,591.042Z" transform="translate(-544.252 -492.947)"/><path class="k" d="M652.776,594.56c-.225-.111-3.464-1.68-4.974-2.213a28.727,28.727,0,0,0-3.838-1.113,28.6,28.6,0,0,0-2.793,5.049c2.115.8,8.895,2.75,9.045,2.829,2.5,1.288,3.5.771,3.293,0-.05-.187,1.895.105,1.862-.677a.917.917,0,0,0,.752-.7,3.058,3.058,0,0,0-.586-1.721A20.058,20.058,0,0,0,652.776,594.56Z" transform="translate(-543.979 -492.977)"/><path class="k" d="M596.2,531.359c-.554-1-12.206,5.021-13.731,6.745-3.517,3.981,11.856,27.845,18.761,35.347,2.621,2.848,12.148,3.243,7.058-7.808C604.14,556.634,599.251,536.88,596.2,531.359Z" transform="translate(-539.949 -488.895)"/><path class="k" d="M606.872,569c-2.12-.3-5.229.611-5.405,4.94-.194,4.725,26.647,17.327,37.856,21.124a22.593,22.593,0,0,1,2.347-5.253c-6.858-2.171-27.458-17.392-33.555-20.446A4.121,4.121,0,0,0,606.872,569Z" transform="translate(-541.277 -491.461)"/><path class="o" d="M609.489,566.8a21.239,21.239,0,0,0-.832-2.174c-1.924-4.34-3.981-11.244-5.974-17.92-1.98-6.64-3.852-12.913-5.361-15.745a1.619,1.619,0,0,0-1.2-.822c-2.308-.361-12.94,5.176-14.529,6.918-4.736,5.207,12.321,30.434,17.695,36.479,5.095,5.9,26.633,16.149,36.194,19.543l3.265-7.712c-3.855-1.283-12.976-7.533-20.305-12.554C615.086,570.518,611.907,568.34,609.489,566.8Z" transform="translate(-539.869 -488.819)"/><path class="i" d="M540.41,595.271a59.6,59.6,0,0,0-1.495,20.112,180.123,180.123,0,0,0,48.826-7.042l.515-3.011,2.967,1.714c5.354-2.254,6-5.882,6-5.882l-3.285-3.711Z" transform="translate(-536.999 -493.252)"/><path class="k" d="M583.3,510.759c-2.224.183-8.26-4.925-8.966-5.524.231,3-1.188,11.222-2.321,12.71,2.091,5.635,11.034,6.225,11.869,3.04C582.693,517.418,583.237,511.367,583.3,510.759Z" transform="translate(-539.273 -487.125)"/><path class="o" d="M595.591,539.3c1.048-4.394.263-9.946-5.048-13.535-1.371-.926-9.054-3.848-9.054-3.848s-2.011,2.22-4.182,1.913c-3.163-.448-7.687-4.953-7.687-4.953s-6.912,1.4-9.236,1.793c-6.971,1.178-10.574,7.173-12.567,12.829-5.217,14.8-10.934,68.228-10.934,68.228,27.81,6.471,59.11-6.752,59.11-6.752S591.937,554.613,595.591,539.3Z" transform="translate(-536.882 -488.053)"/><path class="h" d="M593.618,516.662a31.526,31.526,0,0,0-1.587-13.122c-1.887-3-8.37-1.542-9.265.6-1.2,2.876,1.456,12.176.717,15.9-.72,3.623-.867,3.919,1.162,12.514,2.912,12.352-3.79,25.382-1.212,26.855,2.346,1.343,10.46-5.122,11.729-18.71.217-2.327.181-7.244-1.636-10.867C592.429,527.655,592.719,523.784,593.618,516.662Z" transform="translate(-539.983 -486.894)"/><path class="k" d="M584.138,493.644c-4.373,0-7.952,4.261-7.954,8.592,0,.045,0,4.5,0,4.5,0,3.265,5.034,8.406,7.881,7.805,6.729-1.422,8.166-13.752,7.937-15.144C591.366,495.505,588.21,493.645,584.138,493.644Z" transform="translate(-539.557 -486.336)"/><path class="h" d="M672.4,701.912a21.367,21.367,0,0,1-1.563-3.039l-5.622,1.971s-.021,1.47.069,2.892c.1,1.648-1.872,3.93-.1,5.5.682.608,3.6-.088,5.334-.167,1.355-.062,5.517-.345,7.731-.483,2.386-.149,5.588-1.214,5.509-2.486C683.59,703.412,673.75,703.81,672.4,701.912Z" transform="translate(-545.563 -500.302)"/><path class="k" d="M671.7,697.951l-7.257,1.609a12.831,12.831,0,0,1,.842,4.114s4.551.445,6.183-.257c1.219-.524,1.418-1.152,1.418-1.152A10.854,10.854,0,0,1,671.7,697.951Z" transform="translate(-545.563 -500.24)"/><path class="p" d="M632.148,617.417c3.686,16.358,29.973,77.421,29.973,77.421,2.8.989,6.609.224,8.261-1.471,0,0-5.709-30.168-13.385-70.693C653.867,606.143,632.148,617.417,632.148,617.417Z" transform="translate(-543.365 -494.504)"/><g transform="translate(36.717 81.084)"><g transform="translate(0 35.631)"><path class="h" d="M576.281,611.041v.009a1.617,1.617,0,0,0,1.613,1.612h37.942a1.618,1.618,0,0,0,1.612-1.612l0-.009Z" transform="translate(-576.28 -611.041)"/></g><path class="h" d="M624.267,574.987l-7.909,33.026c-.13.527-.016,2.048,1.953,2.048l32.145-.4V572.815l-23.278.008A2.945,2.945,0,0,0,624.267,574.987Z" transform="translate(-579.005 -572.808)"/><path class="k" d="M668.025,572.808H626.932a.945.945,0,0,0-.911.693l-8.464,35.362a.947.947,0,0,0,.912,1.2h38.263a4.668,4.668,0,0,0,4.5-3.42l7.705-32.634A.945.945,0,0,0,668.025,572.808Z" transform="translate(-579.087 -572.808)"/></g><path class="k" d="M572.1,555.219c-4.237-7.59-9.807-13.969-12.83-21.7a8.092,8.092,0,0,1-1.293,2.595c-10.4,10.229,4.28,36.231,10.93,42.553,4.629,4.4,14.676,7.832,24.969,9.8C584.331,581.193,577.986,565.765,572.1,555.219Z" transform="translate(-538.071 -489.05)"/><g transform="translate(14.923 41.202)"><path class="k" d="M618.927,593.5a11.421,11.421,0,0,1-3.438.216c1.242.321.931,1.05,2.181,1.573.538.056,2.7-.939,2.584-1.471C620.14,592.98,619.529,593.331,618.927,593.5Z" transform="translate(-557.155 -534.319)"/><path class="k" d="M622.9,597.206c-.221-.121-3.378-1.844-4.861-2.449a28.419,28.419,0,0,0-3.78-1.3,28.476,28.476,0,0,0-3.033,4.909c2.074.9,8.751,3.175,8.9,3.259,2.44,1.408,3.459.939,3.291.158-.041-.191,1.886.195,1.892-.587a.914.914,0,0,0,.785-.66,3.06,3.06,0,0,0-.5-1.747A20.2,20.2,0,0,0,622.9,597.206Z" transform="translate(-556.865 -534.331)"/><path class="k" d="M569.427,531.394c-.5-1.026-12.433,4.426-14.04,6.075-3.705,3.808,10.5,28.383,17.036,36.209,2.481,2.971,11.977,3.825,7.427-7.458C576.137,557.021,572.206,537.054,569.427,531.394Z" transform="translate(-553.023 -530.099)"/><path class="k" d="M578.285,569.468c-2.1-.4-5.253.359-5.637,4.674-.421,4.709,25.781,18.59,36.8,22.921a22.549,22.549,0,0,1,2.6-5.133c-6.747-2.5-26.589-18.695-32.532-22.039A4.1,4.1,0,0,0,578.285,569.468Z" transform="translate(-554.239 -532.692)"/><path class="o" d="M580.283,567.306a21.88,21.88,0,0,0-.726-2.211c-1.713-4.428-8.33-31.271-9.7-34.172a1.616,1.616,0,0,0-1.159-.879c-2.288-.471-13.174,4.547-14.844,6.211-4.982,4.972,10.841,30.991,15.917,37.289,4.806,6.134,25.824,17.412,35.212,21.262l3.633-7.546c-3.791-1.467-12.6-8.148-19.678-13.516C585.7,571.285,582.623,568.956,580.283,567.306Z" transform="translate(-552.895 -530.014)"/></g><path class="h" d="M589.214,490.037a6.44,6.44,0,0,0-4.151-.866s-.054-.742-3.915-2.513a11.739,11.739,0,0,0-13.126,3.108,19.855,19.855,0,0,0-4.922,19.25,17.349,17.349,0,0,1-2.578,15.578c-3.056,4-3.417,9.59-3.224,12.247,1.128,15.523,13.358,23.373,17.092,21.995,4.1-1.515-5.517-16.74-.214-30.6,3.693-9.641,2.254-11.652,1.36-15.815-1.172-5.451-.686-11.338,1.94-15.066,2.19-3.107,7.584-4.192,7.584-4.192s7.123,2.049,4.263,13.42C593.151,503.408,593.845,492.759,589.214,490.037Z" transform="translate(-538.268 -485.803)"/></g><g transform="translate(577.068 478.49)"><path class="k" d="M1122.408,480.088l-272.99,3.436a5.9,5.9,0,0,0-5.875,4.719L807.575,719.43l273.849,6.758a18.392,18.392,0,0,0,18.79-14.719l36.464-217.436C1137.318,490.441,1135.81,480.088,1122.408,480.088Z" transform="translate(-595.488 -480.088)"/><path class="o" d="M1121.556,480.088h-279.7a5.9,5.9,0,0,0-5.874,4.718L795.181,725.5a6.95,6.95,0,0,0,6.773,8.157H1062.4a29.117,29.117,0,0,0,28.983-23.282l36.947-222.131A6.951,6.951,0,0,0,1121.556,480.088Z" transform="translate(-594.636 -480.088)"/><path class="k" d="M802.288,712.456h30.328l135.5-232.369H937.791Z" transform="translate(-595.129 -480.088)"/><path class="q" d="M812.35,705.6h268.691l35.349-212.487H848.372Z" transform="translate(-595.813 -480.974)"/><g transform="translate(0 232.369)"><path class="o" d="M840.035,729.424H590.6a10.6,10.6,0,1,0,0,21.2H840.035a10.6,10.6,0,1,0,0-21.2Z" transform="translate(-580.002 -729.424)"/></g><g transform="translate(242.163 232.369)"><path class="k" d="M1074.5,729.424H850.448a10.6,10.6,0,0,0,0,21.2H1074.5a10.6,10.6,0,0,0,0-21.2Z" transform="translate(-839.848 -729.424)"/><g transform="translate(160.074 4.259)"><path class="h" d="M3.548,0h19.29a3.548,3.548,0,0,1,3.548,3.548v.819a3.549,3.549,0,0,1-3.549,3.549H3.548A3.548,3.548,0,0,1,0,4.368v-.82A3.548,3.548,0,0,1,3.548,0Z" transform="translate(29.396)"/><path class="h" d="M3.548,0H15.583A3.548,3.548,0,0,1,19.13,3.548v.819a3.549,3.549,0,0,1-3.549,3.549H3.548A3.548,3.548,0,0,1,0,4.368v-.82A3.548,3.548,0,0,1,3.548,0Z"/></g></g></g><g transform="translate(1062.405 467.055)"><g transform="translate(24.148 55.009)"><path class="k" d="M1132.691,588.968a6.69,6.69,0,0,0,2.943,2.327,1.5,1.5,0,0,0,1.572-1.559,10.973,10.973,0,0,1-3.2-.828C1133.464,588.643,1132.584,588.056,1132.691,588.968Z" transform="translate(-1127.098 -531.037)"/><path class="k" d="M1137.976,589.185c-1.294.717-2.607,1.069-3.771,1.65-1.382.677-4.3,2.532-4.5,2.663-.571.41-2.062,1.323-2.474,1.693a1.323,1.323,0,0,0-.369,1.707,1.112,1.112,0,0,0,.8.583c.093,1.17,1.882.255,1.851.44-.435,2.554,9.534-3.062,11.465-4.061A33.529,33.529,0,0,0,1137.976,589.185Z" transform="translate(-1126.69 -531.086)"/><path class="k" d="M1173.83,531.29c-5.644,10.645-8.49,32.026-8.642,32.744-2.219,1.746-5.124,4.2-8.189,6.789-6.691,5.654-15.019,12.69-18.675,14.333l2.66,4.927c9.045-4.278,29.116-16.557,33.531-22.848,4.672-6.465,12.678-25.535,12.678-32.477C1187.193,523.961,1176.82,525.653,1173.83,531.29Z" transform="translate(-1127.481 -526.843)"/></g><path class="h" d="M1213.153,488.9c-.037-.534.528-1.13.453-1.652s-.784-.944-.9-1.46.361-1.193.212-1.7-.911-.82-1.1-1.316.188-1.23-.033-1.713-1.021-.679-1.274-1.145.01-1.244-.279-1.69-1.1-.528-1.423-.953-.168-1.232-.515-1.634-1.169-.364-1.545-.741-.338-1.2-.741-1.544-1.208-.2-1.634-.514-.505-1.136-.952-1.424-1.224-.022-1.691-.278-.66-1.052-1.144-1.274-1.213.153-1.713-.033-.8-.947-1.315-1.1-1.178.324-1.7.212-.929-.82-1.459-.9-1.118.49-1.653.452-1.036-.681-1.572-.681-1.046.645-1.572.681-1.129-.528-1.652-.452-.943.784-1.461.9-1.193-.361-1.7-.212-.819.911-1.316,1.1-1.23-.187-1.713.034-.68,1.019-1.145,1.274-1.244-.01-1.691.278-.527,1.105-.952,1.424-1.233.167-1.635.515-.365,1.169-.741,1.544-1.2.339-1.544.741-.2,1.209-.514,1.635-1.136.5-1.424.952-.022,1.224-.278,1.691-1.052.66-1.274,1.144.153,1.212-.033,1.713-.947.8-1.1,1.315.325,1.178.212,1.7-.82.93-.9,1.459.49,1.118.452,1.652-.681,1.036-.681,1.572.645,1.046.681,1.573-.528,1.128-.452,1.652.784.943.9,1.459-.36,1.193-.212,1.7.912.821,1.1,1.318-.187,1.23.034,1.712,1.019.68,1.274,1.146-.01,1.243.278,1.69,1.105.527,1.424.952.167,1.233.515,1.634,1.169.366,1.544.741.339,1.2.741,1.545,1.209.195,1.635.514.5,1.135.952,1.424,1.224.021,1.692.278.66,1.052,1.144,1.273,1.213-.153,1.713.034.8.947,1.315,1.1,1.178-.325,1.7-.213.93.822,1.46.9,1.118-.49,1.652-.453,1.036.681,1.572.681,1.046-.644,1.572-.681,1.13.527,1.652.453.944-.784,1.46-.9,1.193.362,1.7.213.819-.912,1.316-1.1,1.23.187,1.713-.033.679-1.02,1.145-1.274,1.243.009,1.69-.279.527-1.1.952-1.423,1.232-.168,1.634-.515.365-1.169.741-1.545,1.2-.338,1.545-.741.195-1.208.515-1.634,1.136-.505,1.424-.953.022-1.223.278-1.691,1.052-.66,1.273-1.144-.153-1.213.034-1.713.947-.8,1.1-1.316-.326-1.178-.212-1.7.821-.93.9-1.459-.49-1.118-.453-1.652.681-1.036.681-1.573S1213.191,489.427,1213.153,488.9Z" transform="translate(-1105.389 -467.818)"/><path class="h" d="M1172.82,609.641c-.41,2.943-1.521,27.01,1.5,63.718a372.7,372.7,0,0,0,10.578,60.495c.057.227,4.213,2.486,6.3.182,0,0-.967-44.295.893-60.495,1.236-10.765,9.373-61.556,9.373-61.556C1191.176,612.66,1176.234,611.136,1172.82,609.641Z" transform="translate(-1105.645 -477.469)"/><path class="h" d="M1224.384,592.869c-10.21,1.48-29.364,10.831-32.885,9.607-.179,2.976,4.981,41.953,11.718,70.771,7.191,30.755,15.237,59.172,15.237,59.172.075.223,4.4,2.15,6.3-.311-1.6-34.258-5.074-45.05-3.851-60.379C1222.623,650.155,1225.859,636.1,1224.384,592.869Z" transform="translate(-1106.952 -476.328)"/><path class="k" d="M1198.035,506.279c-.7.552-7.965,4.943-10.1,4.7.038.587,1.693,6.745.445,10.134.7,3.086,9.311,2.792,11.492-2.556C1198.833,517.091,1197.722,509.157,1198.035,506.279Z" transform="translate(-1106.71 -470.435)"/><path class="k" d="M1189.4,495.528c-3.91-.124-7.651.919-8.379,4.635-.262,1.331.741,13.216,7.161,14.787,2.714.664,7.707-4.119,7.806-7.255,0,0,.136-4.278.137-4.321C1196.252,499.215,1193.6,495.662,1189.4,495.528Z" transform="translate(-1106.237 -469.703)"/><path class="r" d="M1207.594,521.457c-2.127-.774-8.814-2-8.814-2s-4.464,4.522-7.533,4.522c-4.21,0-3.959-1.966-3.959-1.966s-5.666,1.609-7.01,2.458c-5.212,3.286-4.728,11.138-4.728,17.023,0,9.867-3.719,46.384-3.719,68.6,4.7,6.355,25.587,9.382,44.689,1.233l.482-21.042,4.17,36.752c1.774.514,3.7.706,4.81-.294C1231.091,570.475,1226.613,528.369,1207.594,521.457Z" transform="translate(-1105.614 -471.332)"/><path class="j" d="M1199.408,519.452s-4.852,4.183-7.922,4.183c-3.021,0-3.57-1.627-3.57-1.627a51.372,51.372,0,0,0-6.848,2.366c.674,6.162,6.114,13.356,6.114,13.356s12.638-11.821,21.041-16.274a19.592,19.592,0,0,0-4.3-1.265Z" transform="translate(-1106.243 -471.332)"/><path class="k" d="M1197.81,502.141a3.549,3.549,0,0,0-1.83.219,50.5,50.5,0,0,0,.766,5.067,3.747,3.747,0,0,0,2.713-2.427C1199.646,503.932,1198.878,502.328,1197.81,502.141Z" transform="translate(-1107.257 -470.151)"/><g transform="translate(0 75.179)"><g transform="translate(57.655 42.167)"><path class="h" d="M1162.645,593.733v.012a1.913,1.913,0,0,0,1.908,1.908h44.9a1.913,1.913,0,0,0,1.909-1.908v-.012Z" transform="translate(-1162.644 -593.733)"/></g><path class="h" d="M1155.18,551.066a3.483,3.483,0,0,0-3.445-2.559l-27.548-.011v43.6l38.041.479c2.331,0,2.467-1.8,2.311-2.425Z" transform="translate(-1102.372 -548.488)"/><path class="s" d="M1151.608,549.307a1.12,1.12,0,0,0-1.078-.82H1101.9a1.12,1.12,0,0,0-1.079,1.418l9.12,38.621a5.522,5.522,0,0,0,5.322,4.048h45.281a1.12,1.12,0,0,0,1.079-1.418Z" transform="translate(-1100.779 -548.487)"/></g><g transform="translate(72.524 84.905)"><path class="t" d="M1187.576,558.923c-4.628,0-8.437,4.363-8.953,9.98h17.907C1196.013,563.286,1192.2,558.923,1187.576,558.923Z" transform="translate(-1178.601 -558.923)"/><path class="t" d="M1179,574.561h17.146a13.66,13.66,0,0,0,.4-2.42H1178.6A13.761,13.761,0,0,0,1179,574.561Z" transform="translate(-1178.599 -559.822)"/><path class="t" d="M1180.744,578.618h13.8a11.713,11.713,0,0,0,1.127-2.088h-16.055A11.7,11.7,0,0,0,1180.744,578.618Z" transform="translate(-1178.668 -560.121)"/><path class="t" d="M1187.82,582.95a7.928,7.928,0,0,0,5.619-2.477H1182.2A7.93,7.93,0,0,0,1187.82,582.95Z" transform="translate(-1178.844 -560.389)"/></g><g transform="translate(49.27 55.009)"><path class="k" d="M1159.647,588.968a6.694,6.694,0,0,0,2.943,2.327,1.5,1.5,0,0,0,1.573-1.559,10.972,10.972,0,0,1-3.2-.828C1160.42,588.643,1159.541,588.056,1159.647,588.968Z" transform="translate(-1154.054 -531.037)"/><path class="k" d="M1164.933,589.185c-1.293.717-2.607,1.069-3.771,1.65-1.383.677-4.3,2.532-4.5,2.663-.571.41-2.062,1.323-2.474,1.693a1.323,1.323,0,0,0-.369,1.707,1.112,1.112,0,0,0,.795.583c.094,1.17,1.883.255,1.852.44-.435,2.554,9.534-3.062,11.464-4.061A33.447,33.447,0,0,0,1164.933,589.185Z" transform="translate(-1153.647 -531.086)"/><path class="k" d="M1200.787,531.29c-5.645,10.645-8.49,32.026-8.643,32.744-2.218,1.746-5.123,4.2-8.188,6.789-6.691,5.654-15.02,12.69-18.676,14.333l2.661,4.927c9.044-4.278,29.116-16.557,33.53-22.848,4.673-6.465,12.679-25.535,12.679-32.477C1214.15,523.961,1203.776,525.653,1200.787,531.29Z" transform="translate(-1154.438 -526.843)"/></g><path class="j" d="M1191,736.927a20.747,20.747,0,0,1-5.208.1,5.27,5.27,0,0,0-.255-1.978c-.833-.217-2.428-1.336-3.291-1.428.323,1.679.771,10.389-.924,11.651-2.066,1.54-5.991,1.586-6.608,1.586-3.117,0-3.79,1.775-3.791,2.462a1.463,1.463,0,0,0,1.609,1.593c3.78,0,12.512-.04,15.14-.04,1.608,0,3.238.2,4.582-1.361a2.617,2.617,0,0,0,.208-2.432A76.575,76.575,0,0,1,1191,736.927Z" transform="translate(-1105.552 -485.906)"/><path class="j" d="M1226.163,735.82a20.687,20.687,0,0,1-5.193.405,5.275,5.275,0,0,0-.37-1.96c-.845-.168-2.5-1.193-3.37-1.233.421,1.659,1.38,10.327-.237,11.687-1.971,1.658-5.887,1.936-6.5,1.972-3.113.183-3.68,2-3.64,2.681a1.462,1.462,0,0,0,1.7,1.494c3.774-.222,12.488-.774,15.113-.929,1.6-.1,3.243.013,4.493-1.627a2.615,2.615,0,0,0,.065-2.441A76.354,76.354,0,0,1,1226.163,735.82Z" transform="translate(-1107.997 -485.866)"/></g><g transform="translate(792.363 519.718)"><path class="h" d="M840.122,535.467l17.815,173.011h224.647l-17.815-173.011Z" transform="translate(-812.999 -525.084)"/><path class="k" d="M811.019,688.735h224.647l26.788-153.258H837.807Z" transform="translate(-811.019 -525.085)"/><path class="t" d="M819.408,683.53h211.063l24.151-138.151H843.558Z" transform="translate(-811.589 -525.759)"/><g transform="translate(17.401 146.638)"><path class="j" d="M844.992,681.672H831.835a2.239,2.239,0,0,0-2.117,1.8,1.473,1.473,0,0,0,1.487,1.8h13.156a2.238,2.238,0,0,0,2.118-1.8A1.474,1.474,0,0,0,844.992,681.672Z" transform="translate(-829.69 -681.672)"/><path class="j" d="M871.973,681.672H858.817a2.239,2.239,0,0,0-2.118,1.8,1.474,1.474,0,0,0,1.488,1.8h13.156a2.237,2.237,0,0,0,2.117-1.8A1.473,1.473,0,0,0,871.973,681.672Z" transform="translate(-831.526 -681.672)"/><path class="j" d="M898.954,681.672H885.8a2.239,2.239,0,0,0-2.117,1.8,1.473,1.473,0,0,0,1.487,1.8h13.157a2.238,2.238,0,0,0,2.117-1.8A1.474,1.474,0,0,0,898.954,681.672Z" transform="translate(-833.362 -681.672)"/><path class="j" d="M925.936,681.672H912.779a2.24,2.24,0,0,0-2.118,1.8,1.474,1.474,0,0,0,1.488,1.8h13.156a2.238,2.238,0,0,0,2.117-1.8A1.473,1.473,0,0,0,925.936,681.672Z" transform="translate(-835.199 -681.672)"/><path class="j" d="M952.916,681.672H939.76a2.239,2.239,0,0,0-2.117,1.8h0a1.473,1.473,0,0,0,1.487,1.8h13.156a2.239,2.239,0,0,0,2.118-1.8A1.474,1.474,0,0,0,952.916,681.672Z" transform="translate(-837.035 -681.672)"/><path class="j" d="M979.9,681.672H966.74a2.241,2.241,0,0,0-2.117,1.8,1.474,1.474,0,0,0,1.489,1.8h13.156a2.237,2.237,0,0,0,2.117-1.8h0A1.473,1.473,0,0,0,979.9,681.672Z" transform="translate(-838.871 -681.672)"/><path class="k" d="M1006.879,681.672H993.722a2.241,2.241,0,0,0-2.118,1.8,1.474,1.474,0,0,0,1.488,1.8h13.156a2.239,2.239,0,0,0,2.118-1.8A1.474,1.474,0,0,0,1006.879,681.672Z" transform="translate(-840.707 -681.672)"/></g><path class="r" d="M840.727,569.61h211.063l4.986-28.554H845.712Z" transform="translate(-813.04 -525.465)"/><path class="r" d="M978.508,609.987l-1.05-3.917-2.418,3.917-3.985.426,2.618,2.684-1.689,4.343,3.884-2.258,3.094,2.258-.172-4.343,3.556-2.684Z" transform="translate(-821.909 -529.889)"/><path class="k" d="M1033.477,633.212l-1.05-3.916-2.419,3.916-3.985.426,2.618,2.685-1.689,4.342,3.884-2.258,3.094,2.258-.173-4.342,3.557-2.685Z" transform="translate(-825.65 -531.469)"/><path class="k" d="M910.377,658.346l-1.051-3.918-2.418,3.918-3.985.426,2.619,2.684-1.689,4.343,3.883-2.259,3.1,2.259-.173-4.343,3.556-2.684Z" transform="translate(-817.273 -533.18)"/><g transform="translate(73.986 50.086)"><path class="k" d="M890.407,671.407h.829l16.285-93.267-.817-.071Z" transform="translate(-890.407 -578.069)"/><g transform="translate(28.094)"><path class="k" d="M920.553,671.407h.83l16.284-93.267-.816-.071Z" transform="translate(-920.553 -578.069)"/></g><g transform="translate(56.189)"><path class="k" d="M950.7,671.407h.829l16.285-93.267-.816-.071Z" transform="translate(-950.699 -578.069)"/></g><g transform="translate(84.283)"><path class="k" d="M980.845,671.407h.829l16.286-93.267-.816-.071Z" transform="translate(-980.845 -578.069)"/></g><g transform="translate(112.377)"><path class="k" d="M1010.99,671.407h.829L1028.1,578.14l-.816-.071Z" transform="translate(-1010.99 -578.069)"/></g></g><g transform="translate(18.909 70.342)"><g transform="translate(11.811)"><path class="k" d="M843.982,600.631H1040.9l.073-.826H844.054Z" transform="translate(-843.982 -599.805)"/></g><g transform="translate(7.874 22.549)"><path class="k" d="M839.758,624.826h196.916l.073-.826H839.831Z" transform="translate(-839.758 -624)"/></g><g transform="translate(3.937 45.097)"><path class="k" d="M835.533,649.021h196.915l.072-.826H835.605Z" transform="translate(-835.533 -648.194)"/></g><g transform="translate(0 67.646)"><path class="k" d="M831.308,673.217h196.916l.072-.826H831.38Z" transform="translate(-831.308 -672.391)"/></g></g><path class="j" d="M1036.031,680.437h-13.262a1.514,1.514,0,0,0-1.432,1.219,1,1,0,0,0,1.006,1.219H1035.6a1.517,1.517,0,0,0,1.433-1.219A1,1,0,0,0,1036.031,680.437Z" transform="translate(-825.33 -534.95)"/><path class="j" d="M958.57,587.134H945.307a1.513,1.513,0,0,0-1.432,1.218,1,1,0,0,0,1.006,1.22h13.262a1.516,1.516,0,0,0,1.432-1.22A1,1,0,0,0,958.57,587.134Z" transform="translate(-820.058 -528.6)"/><path class="j" d="M946.533,657.405h-14.29a.73.73,0,0,0-.69.587.48.48,0,0,0,.485.588h14.29a.728.728,0,0,0,.69-.588A.48.48,0,0,0,946.533,657.405Z" transform="translate(-819.22 -533.382)"/><path class="j" d="M945.987,660.528H931.7a.729.729,0,0,0-.691.588.48.48,0,0,0,.485.587h14.29a.729.729,0,0,0,.691-.587A.481.481,0,0,0,945.987,660.528Z" transform="translate(-819.183 -533.595)"/><path class="j" d="M945.442,663.652h-14.29a.729.729,0,0,0-.69.587.48.48,0,0,0,.484.588h14.29a.73.73,0,0,0,.691-.588A.481.481,0,0,0,945.442,663.652Z" transform="translate(-819.146 -533.807)"/><path class="j" d="M1031.514,685.967h-10.342a.722.722,0,0,0-.681.581.475.475,0,0,0,.479.58h10.343a.721.721,0,0,0,.68-.58A.475.475,0,0,0,1031.514,685.967Z" transform="translate(-825.273 -535.326)"/><path class="h" d="M869.228,544.181a5.136,5.136,0,0,0-4.766,4.22,3.876,3.876,0,0,0,.748,3.156,3.39,3.39,0,0,0,2.663,1.207,5.138,5.138,0,0,0,4.768-4.221,3.867,3.867,0,0,0-.749-3.153A3.389,3.389,0,0,0,869.228,544.181Z" transform="translate(-814.651 -525.677)"/><path class="h" d="M882.842,544.181a5.138,5.138,0,0,0-4.768,4.22,3.867,3.867,0,0,0,.75,3.154,3.382,3.382,0,0,0,2.663,1.209,5.135,5.135,0,0,0,4.766-4.219,3.873,3.873,0,0,0-.746-3.155A3.391,3.391,0,0,0,882.842,544.181Z" transform="translate(-815.577 -525.677)"/><path class="h" d="M1033.834,544.181a5.135,5.135,0,0,0-4.767,4.218,3.882,3.882,0,0,0,.748,3.156,3.383,3.383,0,0,0,2.663,1.209,5.139,5.139,0,0,0,4.768-4.221,3.874,3.874,0,0,0-.749-3.153A3.388,3.388,0,0,0,1033.834,544.181Z" transform="translate(-825.852 -525.677)"/><path class="h" d="M1047.448,544.181a5.137,5.137,0,0,0-4.768,4.22,3.872,3.872,0,0,0,.749,3.154,3.386,3.386,0,0,0,2.665,1.209,5.134,5.134,0,0,0,4.765-4.219,3.866,3.866,0,0,0-.747-3.155A3.387,3.387,0,0,0,1047.448,544.181Z" transform="translate(-826.779 -525.677)"/><g transform="translate(201.528)"><path class="i" d="M1049.728,526.622a14.876,14.876,0,0,0-19.618,3.447,13.925,13.925,0,0,0-.671,15.9,6.475,6.475,0,0,0,2.515,2.658,2.236,2.236,0,0,0,2.6-.643c.838-1.112.178-2.138-.7-3.251a9.256,9.256,0,0,1-1.622-3.172,10.121,10.121,0,0,1,6.319-12.158c4.458-1.706,10.6.1,12.556,5.309h4.621A13.745,13.745,0,0,0,1049.728,526.622Z" transform="translate(-1027.261 -524.326)"/></g><g transform="translate(220.528 1.889)"><path class="u" d="M1051.115,526.76c-.238-.15-.478-.276-.718-.407-.9,1.168-1.812,2.326-2.748,3.464a8.893,8.893,0,0,1,4.843,5.03h4.621A13.745,13.745,0,0,0,1051.115,526.76Z" transform="translate(-1047.649 -526.353)"/></g><g transform="translate(214.142)"><path class="i" d="M1063.263,526.622a14.874,14.874,0,0,0-19.617,3.447,13.927,13.927,0,0,0-.672,15.9,6.488,6.488,0,0,0,2.515,2.658,2.238,2.238,0,0,0,2.6-.643c.839-1.112.179-2.138-.7-3.251a9.258,9.258,0,0,1-1.623-3.172,10.121,10.121,0,0,1,6.319-12.158c4.458-1.706,10.6.1,12.556,5.309h4.621A13.747,13.747,0,0,0,1063.263,526.622Z" transform="translate(-1040.797 -524.326)"/></g><g transform="translate(48.21)"><path class="i" d="M885.214,526.622A14.873,14.873,0,0,0,865.6,530.07a13.926,13.926,0,0,0-.673,15.9,6.488,6.488,0,0,0,2.515,2.658,2.236,2.236,0,0,0,2.6-.643c.84-1.112.18-2.138-.7-3.251a9.258,9.258,0,0,1-1.623-3.172,10.122,10.122,0,0,1,6.32-12.158c4.458-1.706,10.6.1,12.556,5.309h4.621A13.745,13.745,0,0,0,885.214,526.622Z" transform="translate(-862.749 -524.326)"/></g><g transform="translate(67.897 1.869)"><path class="u" d="M886.651,526.759c-.249-.157-.5-.286-.754-.427a5,5,0,0,1-.628,1.824,14.12,14.12,0,0,1-1.4,1.992,8.82,8.82,0,0,1,4.156,4.7h4.621A13.745,13.745,0,0,0,886.651,526.759Z" transform="translate(-883.873 -526.332)"/></g><g transform="translate(60.824)"><path class="i" d="M898.751,526.622a14.875,14.875,0,0,0-19.618,3.447,13.927,13.927,0,0,0-.672,15.9,6.476,6.476,0,0,0,2.515,2.658,2.236,2.236,0,0,0,2.6-.643c.839-1.112.179-2.138-.7-3.251a9.26,9.26,0,0,1-1.622-3.172,10.121,10.121,0,0,1,6.32-12.158c4.457-1.706,10.6.1,12.554,5.309h4.622A13.744,13.744,0,0,0,898.751,526.622Z" transform="translate(-876.284 -524.326)"/></g><g transform="translate(26.378 55.136)"><path class="k" d="M890.719,605.033h-31.58c-.294,0-.607.433-.7.966s.071.967.363.967h31.58c.294,0,.607-.433.7-.967S891.012,605.033,890.719,605.033Z" transform="translate(-840.621 -584.954)"/><path class="k" d="M868.465,609.32H858.391c-.294,0-.608.433-.7.967s.07.966.362.966h10.075c.293,0,.607-.433.7-.966S868.758,609.32,868.465,609.32Z" transform="translate(-840.57 -585.246)"/><path class="k" d="M885.918,609.32H871.4c-.293,0-.607.433-.7.967s.069.966.363.966h14.518c.292,0,.607-.433.7-.966S886.212,609.32,885.918,609.32Z" transform="translate(-841.456 -585.246)"/><path class="k" d="M884.484,633.321H852.9c-.293,0-.607.432-.7.966s.069.967.363.967h31.579c.293,0,.608-.432.7-.967S884.777,633.321,884.484,633.321Z" transform="translate(-840.197 -586.879)"/><path class="k" d="M848.963,637.608h-5.521c-.293,0-.607.432-.7.966s.069.967.363.967h5.521c.294,0,.607-.433.7-.967S849.256,637.608,848.963,637.608Z" transform="translate(-839.553 -587.171)"/><path class="k" d="M862.228,637.608H852.155c-.295,0-.607.432-.7.966s.07.967.364.967h10.073c.294,0,.608-.433.7-.967S862.522,637.608,862.228,637.608Z" transform="translate(-840.146 -587.171)"/><path class="k" d="M879.683,637.608H865.165c-.295,0-.608.432-.7.966s.069.967.362.967h14.518c.294,0,.608-.433.7-.967S879.975,637.608,879.683,637.608Z" transform="translate(-841.031 -587.171)"/><path class="k" d="M854.45,613.608h-5.521c-.293,0-.607.432-.7.966s.07.967.362.967h5.521c.294,0,.607-.433.7-.967S854.744,613.608,854.45,613.608Z" transform="translate(-839.927 -585.538)"/><path class="k" d="M886.071,613.608H857.5a.5.5,0,0,0-.469.4l-.2,1.136a.327.327,0,0,0,.329.4h28.569a.5.5,0,0,0,.468-.4l.2-1.136A.326.326,0,0,0,886.071,613.608Z" transform="translate(-840.514 -585.538)"/><path class="k" d="M853.7,617.894h-5.521c-.294,0-.607.432-.7.966s.07.966.362.966h5.521c.293,0,.607-.432.7-.966S854,617.894,853.7,617.894Z" transform="translate(-839.876 -585.829)"/><path class="k" d="M869.985,617.894H856.894c-.294,0-.607.432-.7.966s.069.966.364.966h13.091c.294,0,.607-.432.7-.966S870.279,617.894,869.985,617.894Z" transform="translate(-840.469 -585.829)"/><path class="k" d="M878.039,617.894h-5.192c-.293,0-.607.432-.7.966s.07.966.364.966H877.7c.294,0,.608-.432.7-.966S878.332,617.894,878.039,617.894Z" transform="translate(-841.554 -585.829)"/><path class="k" d="M874.005,583.488H863.931c-.293,0-.607.433-.7.966s.07.967.363.967h10.074c.294,0,.607-.433.7-.967S874.3,583.488,874.005,583.488Z" transform="translate(-840.947 -583.488)"/><path class="k" d="M891.459,583.488H876.941c-.293,0-.607.433-.7.966s.069.967.362.967h14.518c.294,0,.607-.433.7-.967S891.753,583.488,891.459,583.488Z" transform="translate(-841.833 -583.488)"/><path class="k" d="M859.991,587.774H854.47c-.293,0-.607.433-.7.968s.07.966.363.966h5.521c.293,0,.607-.432.7-.966S860.284,587.774,859.991,587.774Z" transform="translate(-840.304 -583.78)"/><path class="k" d="M891.612,587.774H863.045a.5.5,0,0,0-.469.4l-.2,1.136a.326.326,0,0,0,.329.4h28.568a.5.5,0,0,0,.469-.4l.2-1.136A.328.328,0,0,0,891.612,587.774Z" transform="translate(-840.891 -583.78)"/><path class="k" d="M859.243,592.062h-5.521c-.294,0-.607.432-.7.966s.07.966.364.966h5.521c.293,0,.607-.432.7-.966S859.536,592.062,859.243,592.062Z" transform="translate(-840.253 -584.071)"/><path class="k" d="M875.526,592.062H862.434c-.293,0-.607.432-.7.966s.069.966.363.966h13.092c.294,0,.607-.432.7-.966S875.82,592.062,875.526,592.062Z" transform="translate(-840.846 -584.071)"/><path class="k" d="M883.579,592.062h-5.191c-.294,0-.608.432-.7.966s.07.966.363.966h5.19c.294,0,.609-.432.7-.966S883.872,592.062,883.579,592.062Z" transform="translate(-841.931 -584.071)"/><path class="k" d="M860.332,656.465H850.258c-.294,0-.607.433-.7.967s.071.966.363.966h10.074c.293,0,.607-.432.7-.966S860.625,656.465,860.332,656.465Z" transform="translate(-840.017 -588.454)"/><path class="k" d="M877.786,656.465H863.268c-.293,0-.607.433-.7.967s.069.966.364.966h14.518c.293,0,.607-.432.7-.966S878.079,656.465,877.786,656.465Z" transform="translate(-840.902 -588.454)"/><path class="k" d="M846.318,660.752H840.8c-.293,0-.607.433-.7.966s.069.967.362.967h5.521c.293,0,.607-.432.7-.967S846.611,660.752,846.318,660.752Z" transform="translate(-839.373 -588.746)"/><path class="k" d="M877.939,660.752H849.371a.494.494,0,0,0-.468.4l-.2,1.135a.326.326,0,0,0,.329.4H877.6a.5.5,0,0,0,.469-.4l.2-1.135A.326.326,0,0,0,877.939,660.752Z" transform="translate(-839.96 -588.746)"/><path class="k" d="M845.569,665.039h-5.521c-.293,0-.606.433-.7.966s.07.966.363.966h5.522c.293,0,.606-.433.7-.966S845.862,665.039,845.569,665.039Z" transform="translate(-839.322 -589.038)"/><path class="k" d="M861.853,665.039H848.761c-.293,0-.607.433-.7.966s.071.966.364.966h13.091c.294,0,.607-.433.7-.966S862.146,665.039,861.853,665.039Z" transform="translate(-839.915 -589.038)"/><path class="k" d="M869.906,665.039h-5.192c-.294,0-.607.433-.7.966s.07.966.363.966h5.191c.295,0,.608-.433.7-.966S870.2,665.039,869.906,665.039Z" transform="translate(-841.001 -589.038)"/><path class="k" d="M848.27,641.578h-5.52c-.294,0-.608.432-.7.966s.069.966.361.966h5.522c.294,0,.607-.432.7-.966S848.563,641.578,848.27,641.578Z" transform="translate(-839.506 -587.441)"/><path class="k" d="M864.553,641.578H851.462c-.293,0-.608.432-.7.966s.069.966.361.966h13.092c.294,0,.607-.432.7-.966S864.847,641.578,864.553,641.578Z" transform="translate(-840.099 -587.441)"/><path class="k" d="M872.606,641.578h-5.191c-.294,0-.608.432-.7.966s.069.966.363.966h5.192c.293,0,.607-.432.7-.966S872.9,641.578,872.606,641.578Z" transform="translate(-841.184 -587.441)"/><path class="k" d="M893.188,629.453h-16.15a.56.56,0,0,0-.528.45l-.18,1.034a.366.366,0,0,0,.37.448h16.151a.557.557,0,0,0,.527-.448l.18-1.034A.367.367,0,0,0,893.188,629.453Z" transform="translate(-841.84 -586.616)"/><path class="k" d="M866.671,629.453H853.579c-.294,0-.608.433-.7.966s.07.966.363.966h13.092c.294,0,.608-.43.7-.966S866.964,629.453,866.671,629.453Z" transform="translate(-840.243 -586.616)"/><path class="k" d="M874.723,629.453h-5.191c-.295,0-.608.433-.7.966s.068.966.363.966h5.191c.294,0,.607-.43.7-.966S875.017,629.453,874.723,629.453Z" transform="translate(-841.328 -586.616)"/></g><path class="i" d="M910.118,639.764l-.633.573c-.211.19-.182.124-.281.164a.294.294,0,0,1-.31-.137l-2.689-5.318a1.712,1.712,0,0,0-.105-.177,1.614,1.614,0,0,0-2.3-.282,1.712,1.712,0,0,0-.485,2.324l1.788,2.579.894,1.289.446.645.239.343a2.476,2.476,0,0,0,.481.522,2.644,2.644,0,0,0,2.726.312,3.137,3.137,0,0,0,1.089-.816l.561-.644,2.246-2.571,8.988-10.283-10.123,9.182Z" transform="translate(-817.281 -531.401)"/><path class="i" d="M967.853,662.965l-.634.574c-.211.19-.182.124-.28.163a.3.3,0,0,1-.311-.137l-2.689-5.318a1.532,1.532,0,0,0-.105-.176,1.614,1.614,0,0,0-2.3-.283,1.714,1.714,0,0,0-.487,2.325l1.788,2.579.894,1.289.448.644.239.344a2.421,2.421,0,0,0,.48.521,2.645,2.645,0,0,0,2.726.313,3.123,3.123,0,0,0,1.088-.817l.562-.643,2.247-2.572,8.986-10.283-10.122,9.183Z" transform="translate(-821.21 -532.979)"/><path class="i" d="M1034.695,614.656l-.632.573c-.211.191-.183.124-.282.164a.3.3,0,0,1-.311-.136l-2.688-5.319a1.861,1.861,0,0,0-.106-.176,1.613,1.613,0,0,0-2.3-.282,1.713,1.713,0,0,0-.486,2.325l1.788,2.578.895,1.289.448.644.238.343a2.416,2.416,0,0,0,.481.522,2.642,2.642,0,0,0,2.726.313,3.145,3.145,0,0,0,1.088-.817l.561-.643,2.248-2.571,8.987-10.284-10.123,9.182Z" transform="translate(-825.759 -529.692)"/><g transform="translate(163.908 119.123)"><path class="k" d="M986.895,665.856l13.207,2.938,5.334-13.709-13.207-2.938Z" transform="translate(-986.895 -652.148)"/><path class="h" d="M998.673,654.689a.98.98,0,0,0-.93.784.645.645,0,0,0,.647.793.982.982,0,0,0,.931-.785A.645.645,0,0,0,998.673,654.689Z" transform="translate(-987.632 -652.32)"/></g><g transform="translate(118.322 73.544)"><path class="i" d="M937.98,606.177l1.983,13.709,13.925-2.938-1.983-13.708Z" transform="translate(-937.98 -603.24)"/><path class="h" d="M946.117,605.78a.862.862,0,0,0-.842.793.726.726,0,0,0,.738.785.86.86,0,0,0,.842-.792A.727.727,0,0,0,946.117,605.78Z" transform="translate(-938.477 -603.413)"/></g></g><g transform="translate(1061.687 619.71)"><g transform="translate(0 0)"><path class="g" d="M1168.018,685.622c-3.524-1.4-6.656,1.7-8.426,4.722-1.361,2.33-2.477,4.879-4.842,6.424a5.359,5.359,0,0,1-3.038.921c-3.963-.1-5.053-4.539-3.767-7.59,1.079-2.556,3.3-4.421,5.276-6.387a43.075,43.075,0,0,0,10.977-18.636c1.254-4.419,1.706-9.518-1.69-13.088a6.351,6.351,0,0,0-6.878-1.686c-2.928,1.17-3.481,4-3.944,6.6-.387,2.171-.87,4.5-2.748,5.849a3.271,3.271,0,0,1-4,.036c-1.139-.968-1-2.418-.924-3.742a32.051,32.051,0,0,0-7.947-22.917c-3.015-3.4-8.187-6.275-11.892-3.2A6.373,6.373,0,0,0,1122.2,636c-.861,2.831-.209,5.671.437,8.44l3.537,15.154a1.631,1.631,0,0,1-2.523,1.694l-10.56-7.248a6.61,6.61,0,0,0-3.3-1.2c-3.9-.242-5.01,3.113-5.057,5.981-.1,6.319,3.28,12.291,7.779,16.775s10.071,7.731,15.5,11.046c1.688,1.031,3.455,2.16,4.059,4.146a3.03,3.03,0,0,1-.788,3.186c-1.51,1.307-3.627.4-5.195-.628-4.852-3.2-8.891-7.707-14.8-9.057a10.575,10.575,0,0,0-6.311.412c-6.2,2.512-5.881,9.129-2.941,13.374,3.1,4.474,7.719,7.411,12.1,10.506,8.805,6.217,21.048,17.44,32.869,13.885,6.923-2.074,13-7.329,17.4-12.878a34.6,34.6,0,0,0,6.709-13.927c.56-2.569.826-5.309-.535-7.726A5.2,5.2,0,0,0,1168.018,685.622Z" transform="translate(-1100.008 -631.619)"/><g transform="translate(8.666 21.971)"><g transform="translate(25.822)"><path class="s" d="M1137.264,655.2a.308.308,0,0,0-.244.361,315.867,315.867,0,0,1,4.7,83.9.309.309,0,0,0,.284.332h.023a.31.31,0,0,0,.308-.285,316.5,316.5,0,0,0-4.715-84.067A.311.311,0,0,0,1137.264,655.2Z" transform="translate(-1137.014 -655.194)"/></g><g transform="translate(3.833 5.415)"><path class="s" d="M1159.016,661.026a.308.308,0,0,0-.4.178,56.627,56.627,0,0,1-5.108,10.9,19.423,19.423,0,0,1-8.927,7.682c-5.313,2.015-12.166.747-17.885-3.308-5.236-3.713-9.041-8.982-12.719-14.079a.309.309,0,0,0-.5.361c3.709,5.137,7.544,10.45,12.864,14.223a22.638,22.638,0,0,0,12.862,4.362,15.754,15.754,0,0,0,5.6-.981,20.037,20.037,0,0,0,9.225-7.921,57.116,57.116,0,0,0,5.167-11.015A.308.308,0,0,0,1159.016,661.026Z" transform="translate(-1113.419 -661.005)"/></g><g transform="translate(0 39.403)"><path class="s" d="M1163.135,701.691c-2.9,5.163-7.606,12.31-14.978,14.771-6.292,2.1-14,.474-20.609-4.349l-1.266-.922c-5.6-4.078-10.9-7.93-16.446-13.622a.308.308,0,1,0-.442.43c5.583,5.731,10.9,9.6,16.526,13.692l1.265.921a26.307,26.307,0,0,0,15.254,5.368,18.655,18.655,0,0,0,5.914-.932c7.575-2.528,12.372-9.8,15.321-15.054a.309.309,0,0,0-.539-.3Z" transform="translate(-1109.306 -697.475)"/></g></g></g><g transform="translate(30.094 41.201)"><path class="g" d="M1177.118,692.359a4.007,4.007,0,0,0-2.152-.047l-7.645,1.805a1,1,0,0,1-1.055-1.538l5.428-7.922a10,10,0,0,0,2.15-4.757,3.939,3.939,0,0,0-.432-2.2c-1.415-2.6-5.008-2.1-7.49-.823a19.9,19.9,0,0,0-9.689,11.4c-.252.778-.5,1.641-1.369,1.944a1.989,1.989,0,0,1-2.272-.916c-.766-1.195-.515-2.643-.246-3.978.322-1.6.158-3.929-.76-4.676a5.954,5.954,0,0,0-4.3-.568c-1.9.737-3.63,4.325-3.911,7.147a26.691,26.691,0,0,0,2.051,13.171,13.4,13.4,0,0,1,1.564,4.852c.046,2.043-1.574,4.348-3.854,3.523a3.266,3.266,0,0,1-1.523-1.209c-1-1.418-1.06-3.134-1.309-4.778-.326-2.135-1.412-4.616-3.733-4.6a3.189,3.189,0,0,0-1.979.754,6.686,6.686,0,0,0-2.046,4.323,21.49,21.49,0,0,0,.682,9.509c1.252,4.173,3.529,8.554,7,11.3,5.931,4.688,15.276,2.408,21.69.8,3.195-.8,6.64-2.889,9.411-4.769,2.631-1.784,4.306-5.516,1.339-8.347a6.413,6.413,0,0,0-3.5-1.65c-3.667-.545-6.983,1.144-10.466,1.9-1.125.243-2.535.289-3.1-.8a1.88,1.88,0,0,1,.268-2.007,4.941,4.941,0,0,1,3.245-1.476c3.841-.691,7.744-1.311,11.317-2.883s6.841-4.25,8.208-7.907C1179.268,695.269,1179.393,693.091,1177.118,692.359Z" transform="translate(-1132.3 -675.829)"/><g transform="translate(4.227 9.083)"><g transform="translate(4.113 2.073)"><path class="s" d="M1163.451,687.859a.393.393,0,0,0-.54.124,197.358,197.358,0,0,0-21.646,47.333.391.391,0,0,0,.259.489.471.471,0,0,0,.063.013.39.39,0,0,0,.425-.273,196.649,196.649,0,0,1,21.56-47.146A.391.391,0,0,0,1163.451,687.859Z" transform="translate(-1141.248 -687.8)"/></g><g transform="translate(11.28)"><path class="s" d="M1174.568,696.469c-3.228,2.1-6.568,4.27-10.353,5.225-4.1,1.035-8.221.251-10.742-2.05a11.74,11.74,0,0,1-3.291-6.306,35.055,35.055,0,0,1-.449-7.366.387.387,0,0,0-.386-.4.391.391,0,0,0-.4.387,35.6,35.6,0,0,0,.465,7.531,12.509,12.509,0,0,0,3.529,6.727,10.78,10.78,0,0,0,5.886,2.584,14.886,14.886,0,0,0,5.574-.351c3.91-.988,7.306-3.194,10.589-5.328a.391.391,0,1,0-.427-.656Z" transform="translate(-1148.939 -685.575)"/></g><g transform="translate(0 20.81)"><path class="s" d="M1168.6,717.637a72.691,72.691,0,0,1-12.409,4.144l-.921.245c-4.789,1.279-9.473.5-12.53-2.068-3.591-3.019-4.648-8.133-5.13-11.716a.391.391,0,1,0-.775.1c.5,3.713,1.6,9.017,5.4,12.209a12.5,12.5,0,0,0,6.456,2.719,17.439,17.439,0,0,0,6.78-.492l.92-.246a72.912,72.912,0,0,0,12.533-4.19.39.39,0,1,0-.324-.709Z" transform="translate(-1136.835 -707.904)"/></g></g></g><g transform="translate(19.248 65.953)"><path class="h" d="M1146,713.4a1.82,1.82,0,0,0-1.162-.31c-1.312.126-1.781,1.591-1.84,2.816a6.028,6.028,0,0,1-.461,2.772,1.847,1.847,0,0,1-.789.771c-1.239.6-2.289-.608-2.381-1.763a7.594,7.594,0,0,1,.6-2.83,15.15,15.15,0,0,0,.391-7.557c-.323-1.577-1-3.237-2.624-3.808a2.191,2.191,0,0,0-2.393.571,2.617,2.617,0,0,0-.156,2.684,3,3,0,0,1,.092,2.261,1.128,1.128,0,0,1-1.229.65c-.506-.119-.7-.593-.887-1.018a11.286,11.286,0,0,0-6.133-5.873c-1.477-.578-3.535-.649-4.183.9a2.249,2.249,0,0,0-.115,1.268,5.673,5.673,0,0,0,1.492,2.561l3.526,4.157a.568.568,0,0,1-.506.93l-4.422-.573a2.273,2.273,0,0,0-1.212.151c-1.241.547-1.045,1.768-.6,2.67a8.427,8.427,0,0,0,5.1,3.986,28.167,28.167,0,0,0,6.557.969,2.8,2.8,0,0,1,1.919.644,1.071,1.071,0,0,1,.268,1.118c-.256.649-1.054.7-1.7.633-2.011-.222-3.982-.983-6.02-.461a3.641,3.641,0,0,0-1.882,1.135c-1.51,1.772-.347,3.781,1.242,4.635a15.9,15.9,0,0,0,5.423,1.344c3.715.533,9.294,2.076,12.37-.916a12.919,12.919,0,0,0,3.3-6.785,12.187,12.187,0,0,0-.169-5.41A3.794,3.794,0,0,0,1146,713.4Z" transform="translate(-1120.662 -702.389)"/><g transform="translate(2.803 3.789)"><g transform="translate(5.709 2.01)"><path class="s" d="M1130.363,708.733a.317.317,0,1,0-.5.391,111.548,111.548,0,0,1,14.907,25.342.319.319,0,0,0,.3.195.311.311,0,0,0,.118-.025.318.318,0,0,0,.169-.417A112.1,112.1,0,0,0,1130.363,708.733Z" transform="translate(-1129.795 -708.611)"/></g><path class="s" d="M1137.684,706.455a.32.32,0,0,0-.28.353,19.845,19.845,0,0,1,.176,4.163,5.819,5.819,0,0,1-7.329,5.452,20.075,20.075,0,0,1-6.12-2.337.318.318,0,0,0-.29.566,20.569,20.569,0,0,0,6.319,2.4,9.175,9.175,0,0,0,1.474.1,6.689,6.689,0,0,0,4.952-2.055,7.19,7.19,0,0,0,1.624-4.058,20.244,20.244,0,0,0-.176-4.3A.324.324,0,0,0,1137.684,706.455Z" transform="translate(-1123.669 -706.454)"/><g transform="translate(4.077 11.091)"><path class="s" d="M1145.615,718.355a.32.32,0,0,0-.327.308c-.063,2.035-.359,4.96-2.186,6.851a7.793,7.793,0,0,1-6.871,1.869l-.542-.086a41.183,41.183,0,0,1-7.225-1.612.317.317,0,0,0-.2.6,41.623,41.623,0,0,0,7.331,1.638l.541.086a10.656,10.656,0,0,0,1.859.133,7.845,7.845,0,0,0,5.568-2.189c1.981-2.047,2.3-5.131,2.366-7.272A.319.319,0,0,0,1145.615,718.355Z" transform="translate(-1128.045 -718.355)"/></g></g></g><g transform="translate(29.466 91.905)"><path class="i" d="M1155.617,730.235h-22.7a1.291,1.291,0,0,0-1.259,1.578l.841,3.7a1.293,1.293,0,0,0,1.259,1h21.018a1.291,1.291,0,0,0,1.259-1l.842-3.7A1.292,1.292,0,0,0,1155.617,730.235Z" transform="translate(-1131.626 -730.235)"/><path class="i" d="M1136.073,749.642a1.748,1.748,0,0,0,1.729,1.5h13.288a1.747,1.747,0,0,0,1.729-1.5l1.827-12.671h-20.4Z" transform="translate(-1131.804 -730.693)"/></g></g></g></g></svg>