<svg xmlns="http://www.w3.org/2000/svg" xmlns:xlink="http://www.w3.org/1999/xlink" width="910.968" height="134.27" viewBox="0 0 910.968 134.27"><defs><style>.a{fill:url(#a);}.b{fill:url(#b);}.c{fill:#d1d1d1;font-size:63px;font-family:SFProText-Regular, SF Pro Text;}.d{fill:url(#c);}.e,.h{fill:#fff;}.f{clip-path:url(#d);}.g,.h{stroke:none;}</style><linearGradient id="a" x1="0.5" x2="0.5" y2="1" gradientUnits="objectBoundingBox"><stop offset="0" stop-color="#eb6f6b"/><stop offset="1" stop-color="#ee4d5f"/></linearGradient><linearGradient id="b" x1="0.5" y1="-0.615" x2="0.5" y2="1.885" gradientUnits="objectBoundingBox"><stop offset="0" stop-color="#4e024e"/><stop offset="1" stop-color="#d31b5c"/></linearGradient><linearGradient id="c" x1="0.5" x2="0.5" y2="1" gradientUnits="objectBoundingBox"><stop offset="0" stop-color="#f07165"/><stop offset="0.659" stop-color="#faa460"/><stop offset="1" stop-color="#ffba5e"/></linearGradient><clipPath id="d"><path class="a" d="M873.449,614.638l7.4,15a3.774,3.774,0,0,0,2.844,2.066l16.551,2.4a3.776,3.776,0,0,1,2.092,6.441l-11.975,11.674a3.778,3.778,0,0,0-1.087,3.343l2.827,16.483a3.777,3.777,0,0,1-5.479,3.981l-14.8-7.783a3.773,3.773,0,0,0-3.515,0l-14.8,7.783a3.776,3.776,0,0,1-5.478-3.981l2.826-16.483a3.781,3.781,0,0,0-1.085-3.343l-11.977-11.674a3.776,3.776,0,0,1,2.094-6.441l16.551-2.4a3.774,3.774,0,0,0,2.843-2.066l7.4-15A3.777,3.777,0,0,1,873.449,614.638Z" transform="translate(-836.644 -612.534)"/></clipPath></defs><g transform="translate(78.971 -371.638)"><g class="b" transform="translate(-78.971 505.8) rotate(-90)"><path class="g" d="M 107.1611328125 113.2032852172852 L 38.76814270019531 108.5442962646484 L 38.63237380981445 108.5350494384766 L 38.49628829956055 108.5350494384766 C 34.27708053588867 108.5350494384766 30.31039237976074 106.8919677734375 27.32693481445312 103.9084625244141 C 24.34345626831055 100.9249420166016 22.70039367675781 96.95821380615234 22.70039367675781 92.73896789550781 L 22.70039367675781 72.39623260498047 L 22.70039367675781 69.9901123046875 L 20.57478904724121 68.86258697509766 C 16.01405906677246 66.44338226318359 12.09210109710693 64.03208923339844 9.232934951782227 61.88940048217773 C 4.572493076324463 58.39680862426758 4.052444934844971 56.65715408325195 4.003548622131348 56.43619155883789 C 4.05056619644165 56.20802688598633 4.559720993041992 54.4007682800293 9.288059234619141 50.63940048217773 C 12.16062259674072 48.35433959960938 16.10489273071289 45.75136184692383 20.69451713562012 43.11190032958984 L 22.70039367675781 41.95833969116211 L 22.70039367675781 39.64442443847656 L 22.70039367675781 21.59729766845703 C 22.70039367675781 17.37804794311523 24.34345626831055 13.41136074066162 27.32691383361816 10.42790222167969 C 30.31037139892578 7.444443702697754 34.27706146240234 5.80138111114502 38.49628829956055 5.80138111114502 L 38.54376983642578 5.80138111114502 L 38.59122467041016 5.800256252288818 L 114.4108047485352 4.000069618225098 C 118.6133728027344 4.011657238006592 122.5625152587891 5.653630256652832 125.5354309082031 8.626526832580566 C 128.4768524169922 11.56792163848877 130.1153717041016 15.46503734588623 130.1609954833984 19.61763572692871 L 122.8461837768555 97.03177642822266 L 122.8284530639648 97.21950531005859 L 122.8284530639648 97.40806579589844 C 122.8284530639648 101.6272125244141 121.1853942871094 105.5938568115234 118.2019577026367 108.5773010253906 C 115.2488861083984 111.5303268432617 111.3321838378906 113.170166015625 107.1611328125 113.2032852172852 Z"/><path class="h" d="M 107.2700881958008 109.2014465332031 C 113.6651229858398 109.0743255615234 118.8288726806641 103.8236694335938 118.8639144897461 96.65547943115234 L 126.1619644165039 19.79592704772949 C 126.1619644165039 13.29162693023682 120.8702926635742 8.000001907348633 114.5558166503906 7.99775218963623 L 38.49629211425781 9.801377296447754 C 31.99201774597168 9.801377296447754 26.70039367675781 15.09300231933594 26.70039367675781 21.5973014831543 L 26.70039367675781 39.64442825317383 L 26.70039367675781 44.27227783203125 L 22.68864250183105 46.57940292358398 C 14.24907302856445 51.43292236328125 10.48232269287109 54.68150329589844 8.876243591308594 56.36758422851562 C 10.49447154998779 57.95896530151367 14.23011684417725 60.96920776367188 22.44919395446777 65.3289794921875 L 26.70039367675781 67.58399963378906 L 26.70039367675781 72.39625549316406 L 26.70039367675781 92.73895263671875 C 26.70039367675781 99.24335479736328 31.99201774597168 104.5350494384766 39.03999328613281 104.5535507202148 L 107.2700881958008 109.2014465332031 M 107.0325698852539 117.2038040161133 L 38.49629211425781 112.5350494384766 C 27.5633430480957 112.5350494384766 18.70039367675781 103.6719284057617 18.70039367675781 92.73895263671875 L 18.70039367675781 72.39625549316406 C 11.15074253082275 68.39157867431641 0.0157180055975914 61.61125183105469 1.800537029339466e-05 56.44910049438477 C -0.01568199507892132 51.28420257568359 11.14006805419922 43.99230194091797 18.70039367675781 39.64442825317383 L 18.70039367675781 21.5973014831543 C 18.70039367675781 10.66432666778564 27.5633430480957 1.801377058029175 38.49629211425781 1.801377058029175 L 114.3659210205078 2.008056526392465e-06 C 125.2990188598633 2.008056526392465e-06 134.1619720458984 8.86295223236084 134.1619720458984 19.79592704772949 L 126.8284454345703 97.40805053710938 C 126.8284454345703 108.3408737182617 117.9655151367188 117.2038040161133 107.0325698852539 117.2038040161133 Z"/></g><g transform="translate(69.322 407.526)"><path d="M1137.709,882.869v13.622h13.227v10.215h-13.324v20.723c0,4.574,2.527,6.807,6.224,6.807a13.556,13.556,0,0,0,5.743-1.459l3.306,10.121a26.524,26.524,0,0,1-9.823,2.042c-10.41.387-17.222-5.547-17.222-17.511V906.706h-8.951V896.491h8.951V884.133Z" transform="translate(-1116.889 -875.939)"/><path d="M1167.021,886.94h11.38V934.9h-11.185l-.583-7.007c-2.727,5.646-10.219,8.369-15.567,8.466-14.2.1-24.713-8.657-24.713-25.487,0-16.541,10.993-25.2,25-25.1,6.423,0,12.55,3.016,15.277,7.781Zm-28.8,23.935c0,9.143,6.326,14.592,14.205,14.592,18.681,0,18.681-29.087,0-29.087-7.879,0-14.205,5.347-14.205,14.494" transform="translate(-1086.078 -866.486)"/><path d="M1140.945,954.869v-68h11.091l.774,6.611c3.7-5.348,10.121-7.683,15.567-7.683,14.788,0,24.616,11,24.616,25.1,0,14.009-8.854,25.1-24.225,25.1-5.058,0-12.55-1.553-15.958-6.807v25.683Zm40.177-43.973c0-7.492-5.058-13.618-13.618-13.618s-13.622,6.126-13.622,13.618a13.62,13.62,0,1,0,27.24,0" transform="translate(-1038.595 -866.413)"/><rect width="11.776" height="68.005" transform="translate(163.15 0.412)"/><path d="M1174.211,888.17c0,9.244-14.01,9.244-14.01,0s14.01-9.24,14.01,0m-12.938,61.488h11.865V901.5h-11.865Z" transform="translate(-975.934 -881.24)"/><path d="M1201.3,934.606v-25.1c0-7.3-3.991-12.84-11.58-12.84-7.3,0-12.257,6.126-12.257,13.427v24.513h-11.772V886.545h10.6l.783,6.518c4.863-4.765,9.729-7.2,15.762-7.2,11.283,0,20.327,8.466,20.327,23.544v25.2Z" transform="translate(-958.073 -866.188)"/><path d="M1218.76,884.9l8.76,6.615-5.352,6.811a20.45,20.45,0,0,1,5.058,14.2c0,5.935-2.238,14.3-10.116,17.9,7.981,3.99,9.925,9.729,9.925,15.856,0,13.231-10.121,21.4-24.033,21.4s-24.327-8.462-24.327-21.4h11.776c0,6.228,5.743,10.313,12.55,10.313s12.163-3.7,12.163-10.312-6.229-9.632-12.163-9.632c-14.984,0-24.327-9.147-24.327-24.126s10.9-24.322,24.327-24.322c3.794,0,7.688.485,10.993,2.723Zm-28.308,27.627c0,8.368,5.641,13.328,12.55,13.328,6.811,0,12.452-5.058,12.452-13.328s-5.641-13.525-12.452-13.525c-6.909,0-12.55,5.156-12.55,13.525" transform="translate(-915.802 -869.312)"/><path d="M1203.811,886.048v25.1c0,7.3,3.986,12.844,11.575,12.844,7.3,0,12.261-6.13,12.261-13.427V886.048h11.772v48.061h-10.606l-.779-6.518c-4.96,4.863-9.533,7.2-16.247,7.2-11.478,0-19.846-8.662-19.846-23.544v-25.2Z" transform="translate(-872.638 -865.593)"/><path d="M1245.622,886.94H1257V934.9h-11.185l-.583-7.007c-2.727,5.646-10.219,8.369-15.562,8.466-14.205.1-24.713-8.657-24.713-25.487,0-16.541,10.993-25.2,25-25.1,6.42,0,12.546,3.016,15.273,7.781Zm-28.8,23.935c0,9.143,6.326,14.592,14.209,14.592,18.676,0,18.676-29.087,0-29.087-7.883,0-14.209,5.347-14.209,14.494" transform="translate(-830.291 -866.486)"/></g><text class="c" transform="translate(507.998 473.451)"><tspan x="0" y="0">Dashboard</tspan></text><g transform="translate(-53.89 401.259)"><path class="d" d="M873.449,614.638l7.4,15a3.774,3.774,0,0,0,2.844,2.066l16.551,2.4a3.776,3.776,0,0,1,2.092,6.441l-11.975,11.674a3.778,3.778,0,0,0-1.087,3.343l2.827,16.483a3.777,3.777,0,0,1-5.479,3.981l-14.8-7.783a3.773,3.773,0,0,0-3.515,0l-14.8,7.783a3.776,3.776,0,0,1-5.478-3.981l2.826-16.483a3.781,3.781,0,0,0-1.085-3.343l-11.977-11.674a3.776,3.776,0,0,1,2.094-6.441l16.551-2.4a3.774,3.774,0,0,0,2.843-2.066l7.4-15A3.777,3.777,0,0,1,873.449,614.638Z" transform="translate(-836.644 -612.534)"/><path class="e" d="M843.387,637.618h1.061a7.056,7.056,0,0,1,7.049-7.049v-1.061A8.12,8.12,0,0,0,843.387,637.618Zm0,0h1.061a7.056,7.056,0,0,1,7.049-7.049v-1.061A8.12,8.12,0,0,0,843.387,637.618Zm0,0h1.061a7.056,7.056,0,0,1,7.049-7.049v-1.061A8.12,8.12,0,0,0,843.387,637.618Zm49.523-.764a.983.983,0,0,0-.695-.286h-1.8a11.14,11.14,0,0,0-21.927-1.533,4.121,4.121,0,0,0-5.82-.3,4.239,4.239,0,0,0-.333.336,11.139,11.139,0,0,0-21.932,1.5h-1.8a.981.981,0,0,0,0,1.963h1.782a11.137,11.137,0,0,0,22.219-.387s.293-2.88,2.811-2.88c2.614,0,2.774,2.88,2.774,2.88a11.137,11.137,0,0,0,22.218.387h1.782a.982.982,0,0,0,.695-1.676ZM851.493,647.3a9.678,9.678,0,0,1-9.674-9.674v-.08a9.671,9.671,0,1,1,9.674,9.754Zm37.5-9.674a9.674,9.674,0,0,1-19.333.525c0-.175-.011-.351-.011-.525v-.053A9.672,9.672,0,0,1,889,637.545Z" transform="translate(-831.983 -619.222)"/><g class="f" transform="translate(0)"><path class="e" d="M843.354,637.555h1.055a7.016,7.016,0,0,1,7.01-7.009v-1.055A8.074,8.074,0,0,0,843.354,637.555Zm0,0h1.055a7.016,7.016,0,0,1,7.01-7.009v-1.055A8.074,8.074,0,0,0,843.354,637.555Zm0,0h1.055a7.016,7.016,0,0,1,7.01-7.009v-1.055A8.074,8.074,0,0,0,843.354,637.555Zm49.242-.76a.976.976,0,0,0-.691-.285h-1.787a11.077,11.077,0,0,0-21.8-1.524,4.1,4.1,0,0,0-5.786-.3,4.2,4.2,0,0,0-.331.334,11.076,11.076,0,0,0-21.808,1.492H838.6a.976.976,0,0,0,0,1.952h1.772a11.073,11.073,0,0,0,22.092-.385s.292-2.864,2.8-2.864c2.6,0,2.759,2.864,2.759,2.864a11.073,11.073,0,0,0,22.092.385h1.772a.976.976,0,0,0,.691-1.667ZM851.414,647.18a9.623,9.623,0,0,1-9.619-9.619v-.079a9.616,9.616,0,1,1,9.619,9.7Zm37.291-9.619a9.619,9.619,0,0,1-19.224.522c0-.174-.011-.349-.011-.522v-.053a9.617,9.617,0,0,1,19.233-.026Z" transform="translate(-831.893 -619.185)"/></g></g></g></svg>