<svg xmlns="http://www.w3.org/2000/svg" xmlns:xlink="http://www.w3.org/1999/xlink" width="32" height="32" viewBox="0 0 32 32"><defs><style>.a,.c{fill:none;}.b{clip-path:url(#a);}.c{opacity:0.87;}.d{fill:#4441e2;}</style><clipPath id="a"><rect class="a" width="32" height="32"/></clipPath></defs><g class="b"><path class="c" d="M0,0H32V32H0Z"/><path class="d" d="M16,2A14,14,0,1,0,30,16,13.987,13.987,0,0,0,16,2Zm0,25.2A11.2,11.2,0,1,1,27.2,16,11.215,11.215,0,0,1,16,27.2ZM21.026,9,16,14.026,10.974,9,9,10.974,14.026,16,9,21.026,10.974,23,16,17.974,21.026,23,23,21.026,17.974,16,23,10.974Z" transform="translate(0 0)"/></g></svg>