<svg xmlns="http://www.w3.org/2000/svg" width="76" height="76" viewBox="0 0 76 76"><defs><style>.a,.c{fill:none;}.b,.d{fill:#ff7381;}.c,.d{stroke:#000;}.c,.d,.e{stroke-linecap:round;stroke-linejoin:round;stroke-miterlimit:10;stroke-width:2px;}.e{fill:#e53935;stroke:#1a237e;}.f{fill:#4fc3f7;}</style></defs><g transform="translate(-1467 -2241)"><g transform="translate(1467 2241)"><rect class="a" width="76" height="76"/></g><g transform="translate(1 2)"><circle class="b" cx="14.417" cy="14.417" r="14.417" transform="translate(1469 2243)"/><g transform="translate(1472.014 2246.014)"><g transform="translate(0 0)"><path class="c" d="M62.7,63.808H13.582A5.528,5.528,0,0,1,8,58.226V28.082A5.528,5.528,0,0,1,13.582,22.5H62.7a5.528,5.528,0,0,1,5.582,5.582V58.226A5.528,5.528,0,0,1,62.7,63.808Z" transform="translate(-1.301 -2.404)"/><path class="c" d="M26.5,21.257V17.907A3.956,3.956,0,0,1,30.408,14H41.572a3.956,3.956,0,0,1,3.908,3.907v3.349" transform="translate(0.852 -3.394)"/><path class="c" d="M49.178,21.606V18.257A7.242,7.242,0,0,0,41.921,11H30.757A7.242,7.242,0,0,0,23.5,18.257v3.349" transform="translate(0.503 -3.743)"/><rect class="d" width="6.14" height="41.308" transform="translate(14.514 20.096)"/><rect class="d" width="6.14" height="41.308" transform="translate(53.03 20.096)"/><line class="c" x2="1.116" transform="translate(16.746)"/><line class="c" x2="14.514"/><g transform="translate(7.257 3.349)"><line class="c" x1="1.116"/><line class="c" x1="14.514" transform="translate(3.349)"/></g><path class="c" d="M15,61.5a2.233,2.233,0,0,0,4.466,0" transform="translate(-0.486 2.136)"/><path class="c" d="M51,61.5a2.233,2.233,0,0,0,4.466,0" transform="translate(3.705 2.136)"/><path class="e" d="M38.815,43.466h-6.7A1.055,1.055,0,0,1,31,42.349V40.116A1.055,1.055,0,0,1,32.116,39h6.7a1.055,1.055,0,0,1,1.116,1.116v2.233A1.055,1.055,0,0,1,38.815,43.466Z" transform="translate(1.376 -0.483)"/><path class="f" d="M52.2,2.733a2.233,2.233,0,0,0-4.466,0,2.233,2.233,0,1,0,0,4.466H52.2a2.233,2.233,0,0,0,0-4.466Z" transform="translate(9.093 8.096)"/></g></g></g></g></svg>