<svg xmlns="http://www.w3.org/2000/svg" width="76" height="76" viewBox="0 0 76 76"><defs><style>.a{fill:none;}.b{fill:#8c8dc4;}.c{fill:#091f3a;}.d{fill:#4e59a4;}</style></defs><g transform="translate(-1964 -1355)"><g transform="translate(1964 1355)"><rect class="a" width="76" height="76"/></g><g transform="translate(256 -7034)"><g transform="translate(1712 8392)"><circle class="b" cx="12.98" cy="12.98" r="12.98"/><path class="b" d="M301.46,239.968l-2.731-2.1H288.159l-2.588,2.1a2.934,2.934,0,0,1-2.935-2.935V223.523a5.717,5.717,0,0,1,5.717-5.717h10.184a5.717,5.717,0,0,1,5.717,5.717v13.653A2.792,2.792,0,0,1,301.46,239.968Z" transform="translate(-238.55 -191.278)"/><g transform="translate(43.147 12.933)"><path class="c" d="M292.549,216.828a5.261,5.261,0,1,0-5.035-5.256A5.156,5.156,0,0,0,292.549,216.828Zm0-8.783a3.53,3.53,0,1,1-3.378,3.526A3.459,3.459,0,0,1,292.549,208.046Z" transform="translate(-280.803 -206.317)"/><path class="c" d="M305.337,237.586V222.962a5.767,5.767,0,0,0-5.634-5.878H287.476a5.766,5.766,0,0,0-5.633,5.878v14.625a3.307,3.307,0,0,0,3.229,3.37,3.1,3.1,0,0,0,1.574-.445v16.876a3.96,3.96,0,0,0,3.886,4.022,3.838,3.838,0,0,0,3.056-1.543,3.842,3.842,0,0,0,3.058,1.543,3.96,3.96,0,0,0,3.886-4.022V240.511a3.1,3.1,0,0,0,1.573.445A3.307,3.307,0,0,0,305.337,237.586Zm-6.462,19.8a2.229,2.229,0,1,1-4.456,0V242.38a.83.83,0,1,0-1.658,0v15.008a2.229,2.229,0,1,1-4.456,0V239.042h10.571Zm-4.456-38.575H299.7a4.07,4.07,0,0,1,3.976,4.149v14.625a1.575,1.575,0,1,1-3.146,0V223.831a.83.83,0,1,0-1.658,0v13.48H288.3v-13.48a.83.83,0,1,0-1.658,0v13.755a1.575,1.575,0,1,1-3.146,0V222.962a4.07,4.07,0,0,1,3.976-4.149h5.285" transform="translate(-281.843 -204.343)"/></g><path class="d" d="M.1,0H10.825a.1.1,0,0,1,.1.1V20.706a.982.982,0,0,1-.982.982H1.034A1.034,1.034,0,0,1,0,20.654V.1A.1.1,0,0,1,.1,0Z" transform="translate(10.833 46.591)"/><g transform="translate(4.891 13.2)"><g transform="translate(6.481)"><path class="c" d="M259.913,216.391a4.924,4.924,0,1,0-4.923-4.924A4.929,4.929,0,0,0,259.913,216.391Zm0-8.126a3.2,3.2,0,1,1-3.2,3.2A3.205,3.205,0,0,1,259.913,208.265Z" transform="translate(-254.99 -206.543)"/></g><g transform="translate(0 2.141)"><path class="c" d="M280.638,211.5a3.154,3.154,0,0,0-.932-2.248,3.254,3.254,0,0,0-4.5,0l-7.592,7.592A3.914,3.914,0,0,1,264.83,218h-9.817a5.506,5.506,0,0,0-5.5,5.5v15.494a3.165,3.165,0,0,0,4.647,2.81v17.427a3.816,3.816,0,0,0,6.76,2.39,3.816,3.816,0,0,0,6.76-2.39v-32.1a3.126,3.126,0,0,1,.912-2.214l11.113-11.166A3.156,3.156,0,0,0,280.638,211.5Zm-14.679,47.729a2.09,2.09,0,0,1-4.18,0V242.626a.86.86,0,0,0-1.721,0v16.605a2.089,2.089,0,0,1-4.177,0V239.6h10.077Zm-4.24-39.509h3.111a5.625,5.625,0,0,0,4-1.659l7.592-7.593a1.493,1.493,0,0,1,2.063,0,1.453,1.453,0,0,1,0,2.064L267.373,223.7a4.825,4.825,0,0,0-1.414,3.427v10.75H255.873V224.305a.86.86,0,1,0-1.721,0v14.689a1.46,1.46,0,0,1-2.919,0V223.5a3.784,3.784,0,0,1,3.78-3.777h5.1" transform="translate(-249.513 -208.352)"/></g></g></g></g></g></svg>