<?xml version="1.0" encoding="utf-8"?>
<!-- Generator: Adobe Illustrator 23.1.1, SVG Export Plug-In . SVG Version: 6.00 Build 0)  -->
<svg version="1.1" id="Layer_1" xmlns="http://www.w3.org/2000/svg" xmlns:xlink="http://www.w3.org/1999/xlink" x="0px" y="0px"
	 viewBox="0 0 76 76" style="enable-background:new 0 0 76 76;" xml:space="preserve">
<style type="text/css">
	.st0{opacity:0;}
	.st1{fill:#5EA9F8;}
	.st2{fill:none;stroke:#707070;}
	.st3{fill:#BBDBFD;}
	.st4{fill:#A2BFFD;}
</style>
<g transform="translate(-1289 -1901)">
	<g transform="translate(1289 1901)" class="st0">
		<rect width="76" height="76"/>
	</g>
	<g transform="translate(-86.942 15)">
		<g transform="translate(1387.529 1927.267)">
			<circle class="st1" cx="8.4" cy="8.4" r="8.4"/>
			<circle class="st2" cx="8.4" cy="8.4" r="7.9"/>
		</g>
		<g transform="translate(1422.996 1927.267)">
			<circle class="st3" cx="8.4" cy="8.4" r="8.4"/>
			<circle class="st2" cx="8.4" cy="8.4" r="7.9"/>
		</g>
		<circle class="st4" cx="1395.9" cy="1903.9" r="14.9"/>
		<g transform="translate(1380.996 1893.667)">
			<g transform="translate(0 33.269)">
				<path d="M23,16.7h-5.1c3.5-1.1,5.9-4.4,5.9-8.1c0-4.8-3.9-8.6-8.6-8.6c-4.8,0-8.6,3.9-8.6,8.6c0,3.7,2.4,7,5.9,8.1H6.9
					c-3.8,0-6.9,3.1-6.9,6.9v7.4c0,0.5,0.4,1,0.9,1c0,0,0.1,0,0.1,0h28c0.5,0,1-0.4,1-0.9c0,0,0-0.1,0-0.1v-7.4
					C30,19.8,26.8,16.7,23,16.7C23,16.7,23,16.7,23,16.7z M8.5,8.5c0-3.7,3-6.6,6.6-6.6s6.6,3,6.6,6.6s-3,6.6-6.6,6.6
					S8.5,12.2,8.5,8.5L8.5,8.5z M28,30.1H2v-6.4c0-2.7,2.2-4.9,4.9-5h16c2.7,0,4.9,2.2,4.9,4.9v6.4L28,30.1z"/>
			</g>
			<g transform="translate(35.528 33.269)">
				<path d="M22.9,16.7h-5.1c3.5-1.1,5.9-4.4,5.9-8.1C23.7,3.9,19.8,0,15,0S6.4,3.9,6.4,8.6c0,3.7,2.4,7,5.9,8.1H6.9
					c-3.8,0-6.9,3.1-6.9,6.9v7.4c0,0.5,0.4,1,0.9,1c0,0,0.1,0,0.1,0h27.8c0.5,0,1-0.4,1-0.9c0,0,0-0.1,0-0.1v-7.4
					C29.8,19.8,26.7,16.7,22.9,16.7z M8.3,8.5c0-3.7,3-6.6,6.6-6.6s6.6,3,6.6,6.6s-3,6.6-6.6,6.6S8.3,12.2,8.3,8.5L8.3,8.5z
					 M27.8,30.1h-26v-6.4c0-2.7,2.2-4.9,4.9-5h16.1c2.7,0,4.9,2.2,4.9,4.9L27.8,30.1z"/>
			</g>
			<g transform="translate(23.216 5.419)">
				<g transform="translate(0 0)">
					<path d="M27.4,13.3c0.2-3.8-0.8-7.5-2.9-10.7l2.3,0.5c0.5,0.1,1-0.2,1.2-0.7c0.1-0.5-0.2-1-0.7-1.2L22.3,0
						c-0.2-0.1-0.5,0-0.7,0.1c-0.3,0.2-0.5,0.4-0.6,0.7l-0.7,4.7c-0.1,0.5,0.3,1,0.8,1.1c0.5,0.1,1-0.3,1.1-0.8l0.4-2.4
						c4.5,6.6,3.5,15.5-2.5,20.8c-3.1,2.8-7.3,4.3-11.5,4c-2.5-0.1-5-0.8-7.1-2.1c-0.5-0.3-1.1-0.1-1.4,0.4
						c-0.3,0.5-0.1,1.1,0.4,1.4c2.5,1.4,5.2,2.2,8,2.4C18.4,30.8,26.9,23.2,27.4,13.3C27.4,13.3,27.4,13.3,27.4,13.3L27.4,13.3z"/>
				</g>
			</g>
			<g transform="translate(14.288 0)">
				<path d="M0.7,28.9l4.8,1.2c0.5,0.1,1-0.2,1.2-0.7c0,0,0-0.1,0-0.1l0.7-4.8c0.1-0.5-0.3-1-0.8-1.1c-0.5-0.1-1,0.3-1.1,0.8
					c0,0,0,0,0,0l-0.3,2.6C0.3,19.4,2.3,9.6,9.6,4.7c2.9-1.9,6.3-2.9,9.7-2.7c2.6,0.1,5,0.9,7.2,2.2c0.5,0.3,1.1,0.1,1.4-0.4
					c0.3-0.5,0.1-1.1-0.4-1.4C24.9,1,22.1,0.2,19.3,0C14.5-0.2,9.9,1.4,6.4,4.6c-3.5,3.2-5.7,7.6-5.8,12.4
					c-0.2,3.7,0.8,7.5,2.9,10.6L1.2,27c-0.5-0.1-1,0.2-1.2,0.7c-0.2,0.5,0,1,0.5,1.2C0.6,28.9,0.6,28.9,0.7,28.9z"/>
			</g>
		</g>
	</g>
</g>
</svg>
