<svg xmlns="http://www.w3.org/2000/svg" width="76" height="76" viewBox="0 0 76 76"><defs><style>.a,.c,.d{fill:none;}.b{fill:#66bb6a;}.c,.d,.e{stroke:#000;stroke-miterlimit:10;stroke-width:1.5px;}.d,.e{stroke-linecap:round;stroke-linejoin:round;}.e{fill:#ffa000;}.f{fill:#fff;}</style></defs><g transform="translate(-1462 -2769)"><g transform="translate(1462 2769)"><rect class="a" width="76" height="76"/></g><g transform="translate(1467.7 2775)"><g transform="translate(-2.7 -3)"><circle class="b" cx="15.077" cy="15.077" r="15.077"/><path class="c" d="M42.385,64.154H4.692A2.666,2.666,0,0,1,2,61.462V36.692A2.666,2.666,0,0,1,4.692,34H42.385a2.666,2.666,0,0,1,2.692,2.692V61.462A2.666,2.666,0,0,1,42.385,64.154Z" transform="translate(3.062 5.846)"/><rect class="d" width="30.154" height="4.308" transform="translate(11.523 60.308)"/><path class="d" d="M22,33.231V18.692A2.666,2.666,0,0,1,24.692,16H62.385a2.666,2.666,0,0,1,2.692,2.692V43.462a2.666,2.666,0,0,1-2.692,2.692H45.692" transform="translate(4.6 4.462)"/><rect class="e" width="43.077" height="6.462" transform="translate(26.6 24.769)"/><g transform="translate(33.062 44.154)"><circle class="e" cx="3.231" cy="3.231" r="3.231" transform="translate(4.308)"/><path class="e" d="M32.308,41.231a3.086,3.086,0,0,1,1.077-2.369A3.007,3.007,0,0,0,31.231,38a3.231,3.231,0,1,0,0,6.462,3.007,3.007,0,0,0,2.154-.862A3.086,3.086,0,0,1,32.308,41.231Z" transform="translate(-28 -38)"/></g><path class="e" d="M55.923,40.462H52.692A2.666,2.666,0,0,1,50,37.769V36.692A2.666,2.666,0,0,1,52.692,34h3.231a2.666,2.666,0,0,1,2.692,2.692v1.077A2.666,2.666,0,0,1,55.923,40.462Z" transform="translate(6.754 5.846)"/><path class="f" d="M15.173,14.311h-3a2.115,2.115,0,0,1,0-4.229h4.406a.832.832,0,0,0,.881-.881c0-.529-.352-.7-.881-.7H14.468V6.381a.881.881,0,1,0-1.762,0V8.5h-.529a3.877,3.877,0,0,0,0,7.754h3a2.115,2.115,0,0,1,0,4.229H10.767a.881.881,0,1,0,0,1.762h2.115V24a.881.881,0,0,0,1.762,0V21.889h.529a3.911,3.911,0,0,0,3.877-3.877A3.763,3.763,0,0,0,15.173,14.311Z" transform="translate(1.456 -0.115)"/></g></g></g></svg>