<svg xmlns="http://www.w3.org/2000/svg" xmlns:xlink="http://www.w3.org/1999/xlink" width="76" height="76" viewBox="0 0 76 76"><defs><style>.a{fill:#fff;}.b,.j,.k{fill:none;}.c{fill:#ae524b;}.d{clip-path:url(#a);}.e{fill:#ffc501;}.f,.g{fill:#c60b1e;}.g{fill-rule:evenodd;}.h{fill:#e16e65;}.i{fill:#db9a95;}.j,.k{stroke:#091f3a;stroke-miterlimit:10;}.k{stroke-width:2px;}</style><clipPath id="a"><rect class="a" width="28.563" height="28.563" rx="14.282"/></clipPath></defs><g transform="translate(-3166 -1628)"><g transform="translate(3166 1628)"><rect class="b" width="76" height="76"/></g><g transform="translate(120 3)"><circle class="c" cx="14.282" cy="14.282" r="14.282" transform="translate(3050 1635.141)"/><g class="d" transform="translate(3056.248 1628)"><g transform="translate(-2.909 0)"><g transform="translate(0 0)"><rect class="e" width="49.012" height="14.726" transform="translate(0 7.363)"/><rect class="f" width="49.012" height="7.363" transform="translate(0 22.089)"/><rect class="f" width="49.012" height="7.363"/></g><g transform="translate(6.268 10.142)"><path class="g" d="M302.889,789.8h-7.924v5.13h0c0,.026,0,.051,0,.076a3.962,3.962,0,1,0,7.924,0c0-.025,0-.05,0-.076h0Z" transform="translate(-292.531 -789.795)"/><rect class="a" width="1.458" height="8.471" rx="0.729" transform="translate(0 0)"/><rect class="a" width="1.458" height="8.471" rx="0.729" transform="translate(11.335 0)"/></g></g></g><g transform="translate(3061.604 1642.282)"><g transform="translate(0 0.629)"><path class="c" d="M347.576,321.972c.278,2.5-.079,4.842.824,7.243s2.831,5.24,5.3,5.866c2.216.562,4.549-.012,6.788-.011l10.423,0c6.267,0,12.538.074,18.8.005,4.66-.051,9.467-.049,12.4-4.71,1.013-1.609,2.58-6,1.28-7.864-1.032-1.479-6.787-.537-8.569-.538l-19.948-.007c-9.065,0-18.245-.462-27.3.014" transform="translate(-347.576 -280.238)"/><path class="h" d="M366.175,299.867l.31-3.849,3.979-2.3,2.152,2.249,3.091,1.583,2.81-1,3.062-2.837,4,2.326v4.839h-19.4v-1.019" transform="translate(-347.914 -279.828)"/><path class="i" d="M370.483,293.607l-2.038-6.984,3.357-6.36,4.238-.624,4.626,1.7,2.392,3.374.539,4.664-1.134,4.375h-2.948l-1.312-1.694,2.526-3.678-.636-3.013L377.93,284.1l-3.176,1.768-2.8-.386-.056,2.447,1.976,4.13-2.164,1.332-1.229.212" transform="translate(-347.934 -279.639)"/></g><g transform="translate(0 0)"><g transform="translate(17.756)"><g transform="translate(3.562 18.31)"><path class="j" d="M369.762,297.466a.314.314,0,0,0-.313.314v1.8a.314.314,0,1,0,.628,0v-1.8A.314.314,0,0,0,369.762,297.466Z" transform="translate(-369.449 -297.466)"/></g><g transform="translate(16.133 18.31)"><path class="j" d="M382.438,297.466a.315.315,0,0,0-.314.314v1.8a.314.314,0,0,0,.629,0v-1.8A.315.315,0,0,0,382.438,297.466Z" transform="translate(-382.124 -297.466)"/></g><path class="j" d="M382.443,293.752l-.187-.033a11.958,11.958,0,0,0,1.411-6c0-5.294-3-8.715-7.647-8.715-4.574,0-7.647,3.5-7.647,8.715a11.969,11.969,0,0,0,1.411,6l-.187.033a4.5,4.5,0,0,0-3.738,4.438v1.243a.314.314,0,1,0,.629,0V298.19a3.869,3.869,0,0,1,3.216-3.82l1.558-.269c.4,1.757,3.527,3,4.443,3.332v2a.314.314,0,0,0,.629,0v-2c.917-.33,4.047-1.575,4.443-3.332l1.559.269a3.868,3.868,0,0,1,3.216,3.82v1.243a.314.314,0,1,0,.629,0V298.19A4.5,4.5,0,0,0,382.443,293.752Zm-6.423,3.127c-1.176-.411-3.822-1.595-4.14-2.89a2.556,2.556,0,0,0,1.962-1.873l.014-.059a4.1,4.1,0,0,0,4.328,0l.015.059a2.556,2.556,0,0,0,1.961,1.873C379.841,295.283,377.2,296.467,376.019,296.879Zm-4.238-10.061a5.593,5.593,0,0,1,.155-1.338,4.342,4.342,0,0,0,4.214-.165,3.377,3.377,0,0,1,3.924.051,5.5,5.5,0,0,1,.183,1.452c0,2.883-1.9,5.23-4.238,5.23S371.781,289.7,371.781,286.818Zm8.567,6.572a1.929,1.929,0,0,1-1.54-1.427l-.072-.286a6.249,6.249,0,0,0,2.151-4.859,6.028,6.028,0,0,0-.243-1.745.311.311,0,0,0-.16-.189,4.005,4.005,0,0,0-4.659-.107,3.745,3.745,0,0,1-3.9-.03.318.318,0,0,0-.277-.038.313.313,0,0,0-.2.2,5.909,5.909,0,0,0-.3,1.911,6.252,6.252,0,0,0,2.15,4.859l-.072.286a1.927,1.927,0,0,1-1.54,1.427l-1.229.212A10.985,10.985,0,0,1,369,287.72c0-4.913,2.754-8.086,7.018-8.086s7.018,3.174,7.018,8.086a10.976,10.976,0,0,1-1.461,5.882Z" transform="translate(-365.858 -279.005)"/></g><g transform="translate(0 21.761)"><rect class="k" width="55.834" height="33.085" rx="8.169"/></g><path class="k" d="M403.791,321.955h0Z" transform="translate(-347.956 -279.356)"/></g></g></g></g></svg>