<svg xmlns="http://www.w3.org/2000/svg" xmlns:xlink="http://www.w3.org/1999/xlink" width="76" height="76" viewBox="0 0 76 76"><defs><style>.a{fill:#fff;}.b{fill:none;}.c{clip-path:url(#a);}.d{fill:#04247b;}.e{fill:#ce142a;}.f{fill:#e2102e;}.g{fill:#091f3a;}</style><clipPath id="a"><rect class="a" width="28.7" height="28.7" rx="14.35" transform="translate(1972 403)"/></clipPath></defs><g transform="translate(-171 -1238)"><g transform="translate(171 1238)"><rect class="b" width="76" height="76"/></g><g transform="translate(2 0)"><g class="c" transform="translate(-1801 841)"><g transform="translate(1963.08 403.388)"><rect class="d" width="46.541" height="28.466" transform="translate(0 0.024)"/><path class="a" d="M322.043,258.431l-14.176,8.73-27.111,16.606v3.154h5.256L327.3,261.61v-3.155l-.843-.024Z" transform="translate(-280.756 -258.431)"/><path class="a" d="M327.3,283.785l-41.168-25.312h-5.372v3.249l41.363,25.217H327.3Z" transform="translate(-280.756 -258.448)"/><path class="a" d="M327.3,284.278H280.756V274.74l46.541.048Z" transform="translate(-280.756 -265.253)"/><path class="a" d="M314.123,258.473v28.466h7.757l-.039-28.466Z" transform="translate(-294.712 -258.448)"/><path class="e" d="M327.3,278.088H280.756v5.646l46.541.047Z" transform="translate(-280.756 -266.653)"/><path class="e" d="M343.582,258.431l-15.593,9.521h3.569l15.494-9.5-.844-.024Z" transform="translate(-300.511 -258.431)"/><path class="e" d="M321.377,258.473l-.039,28.466h-4.615l.039-28.466Z" transform="translate(-295.799 -258.448)"/><path class="e" d="M280.756,258.473l15.456,9.48-3.452,0-12-7.414Z" transform="translate(-280.756 -258.448)"/><path class="e" d="M280.756,300.6l15.456-9.465h3.374L284.266,300.6Z" transform="translate(-280.756 -272.11)"/><path class="e" d="M334.324,291.135,349.7,300.6v-2.158l-12-7.306Z" transform="translate(-303.16 -272.11)"/></g></g><g transform="translate(-274.396 999.83)"><circle class="f" cx="3.45" cy="3.45" r="3.45" transform="translate(463.849 251.889)"/><circle class="f" cx="3.45" cy="3.45" r="3.45" transform="translate(456.949 269.633)"/><circle class="f" cx="3.45" cy="3.45" r="3.45" transform="translate(463.849 286.391)"/><circle class="f" cx="3.45" cy="3.45" r="3.45" transform="translate(481.593 294.277)"/><circle class="f" cx="3.45" cy="3.45" r="3.45" transform="translate(498.352 286.391)"/><circle class="f" cx="3.45" cy="3.45" r="3.45" transform="translate(506.238 269.633)"/><circle class="f" cx="3.45" cy="3.45" r="3.45" transform="translate(498.352 251.889)"/><circle class="f" cx="3.45" cy="3.45" r="3.45" transform="translate(481.593 244.988)"/><g transform="translate(453.396 244.17)"><path class="g" d="M515.717,305.721H497.251v-2.308a.77.77,0,0,0-.77-.77H493.93l-2.371-8.7a22.262,22.262,0,0,0,6.959-3.621,3.845,3.845,0,1,0,4.12-4.123,22.19,22.19,0,0,0,4.419-10.652,3.847,3.847,0,1,0,0-5.829,22.2,22.2,0,0,0-4.436-10.674,3.845,3.845,0,1,0-4.1-4.1,22.192,22.192,0,0,0-10.661-4.425,3.847,3.847,0,1,0-5.828,0,22.192,22.192,0,0,0-10.661,4.425,3.845,3.845,0,1,0-4.1,4.1,22.2,22.2,0,0,0-4.436,10.674,3.847,3.847,0,1,0,0,5.829,22.2,22.2,0,0,0,4.419,10.652,3.845,3.845,0,1,0,4.121,4.123,22.256,22.256,0,0,0,6.958,3.621l-2.371,8.7H473.4a.77.77,0,0,0-.77.77v2.308H454.166a.769.769,0,1,0,0,1.539h61.551a.769.769,0,0,0,0-1.539Zm-6.155-35.392a2.308,2.308,0,1,1-2.309,2.308A2.311,2.311,0,0,1,509.562,270.33Zm-49.242,4.616a2.308,2.308,0,1,1,2.309-2.309A2.312,2.312,0,0,1,460.32,274.946Zm44.338,15.091a2.308,2.308,0,1,1-2.309-2.309A2.312,2.312,0,0,1,504.659,290.037Zm-2.309-37.129a2.308,2.308,0,1,1-2.308,2.308A2.312,2.312,0,0,1,502.35,252.908Zm-17.409-7.2a2.308,2.308,0,1,1-2.308,2.309A2.312,2.312,0,0,1,484.941,245.709Zm-19.717,9.507a2.308,2.308,0,1,1,2.308,2.309A2.311,2.311,0,0,1,465.224,255.216Zm2.308,37.129a2.308,2.308,0,1,1,2.309-2.308A2.311,2.311,0,0,1,467.532,292.345Zm-3.364-19.708a20.773,20.773,0,1,1,26.987,19.824l-.405-1.488a19.235,19.235,0,1,0-11.616,0l-.405,1.488A20.811,20.811,0,0,1,464.168,272.637Zm20.773,20.774a20.713,20.713,0,0,1-4.728-.55l.4-1.485a19.1,19.1,0,0,0,8.647,0l.4,1.485A20.706,20.706,0,0,1,484.941,293.412Zm2.309,3.846a2.308,2.308,0,1,1-2.309-2.308A2.312,2.312,0,0,1,487.25,297.258Zm.659-25.39a3.016,3.016,0,0,0-.327-.786l10.4-10.4a17.626,17.626,0,0,1,4.639,11.181Zm14.709,1.539a17.626,17.626,0,0,1-4.639,11.181l-10.4-10.4a3,3,0,0,0,.327-.785ZM486.494,270a3.063,3.063,0,0,0-.783-.326V254.961a17.628,17.628,0,0,1,11.181,4.638Zm-.014,2.642a1.539,1.539,0,1,1-1.539-1.539A1.541,1.541,0,0,1,486.48,272.637Zm2.38,17.254a17.624,17.624,0,0,1-3.149.423V278.34Zm-4.687-11.551v11.974a17.635,17.635,0,0,1-3.15-.423Zm0-8.671a3.068,3.068,0,0,0-.784.326l-10.4-10.4a17.625,17.625,0,0,1,11.181-4.638Zm-1.872,1.414a3.051,3.051,0,0,0-.327.786H467.265a17.62,17.62,0,0,1,4.638-11.181Zm-.327,2.324a3.03,3.03,0,0,0,.327.785l-10.4,10.4a17.62,17.62,0,0,1-4.638-11.181Zm1.416,1.873.02.011-3.869,14.2a17.7,17.7,0,0,1-6.548-3.811Zm3.085.011.02-.011,10.4,10.4a17.7,17.7,0,0,1-6.548,3.811Zm-7.688,30.43h-4.616v-1.539h4.616Zm10.772-2.308v2.308h-9.233v-2.308a.77.77,0,0,0-.769-.77h-2.009l2.261-8.3a21.962,21.962,0,0,0,2.219.406,3.848,3.848,0,1,0,5.828,0,21.963,21.963,0,0,0,2.219-.406l2.261,8.3h-2.008A.77.77,0,0,0,489.557,303.414Zm6.155,2.308H491.1v-1.539h4.616Z" transform="translate(-453.396 -244.17)"/></g></g></g></g></svg>