<svg xmlns="http://www.w3.org/2000/svg" width="76" height="76" viewBox="0 0 76 76"><defs><style>.a{fill:none;}.b,.c{fill:#af68f2;}.b{stroke:#707070;}</style></defs><g transform="translate(-1469 -2580)"><g transform="translate(1469 2580)"><rect class="a" width="76" height="76"/></g><g transform="translate(5 2)"><path class="b" d="M1106.6-1616.953v5.393h15.169v-5.393H1118s1.692-5.234,0-5.66-6.358-1.223-6.849,0-1.724,5.66-1.724,5.66Z" transform="translate(396.318 4213.541)"/><circle class="c" cx="13.67" cy="13.67" r="13.67" transform="translate(1469 2581)"/><g transform="translate(1485.197 2588.622)"><path d="M56.011,7.941H38.189a5.941,5.941,0,0,0-11.882,0H8.485A1.485,1.485,0,0,0,7,9.426V62.893a1.485,1.485,0,0,0,1.485,1.485H56.011A1.485,1.485,0,0,0,57.5,62.893V9.426A1.485,1.485,0,0,0,56.011,7.941Zm-29.7,2.97h1.758a1.484,1.484,0,0,0,1.4-1.981,2.941,2.941,0,0,1-.187-.989,2.97,2.97,0,1,1,5.941,0,2.941,2.941,0,0,1-.187.989,1.484,1.484,0,0,0,1.4,1.981h1.758v2.97H26.307Zm28.219,50.5H9.97v-50.5H23.337v4.456a1.485,1.485,0,0,0,1.485,1.485H39.674a1.485,1.485,0,0,0,1.485-1.485V10.911H54.526Z" transform="translate(-7 -2)"/><path d="M22.846,16.435l-4.891,4.891-1.92-1.92a1.485,1.485,0,1,0-2.1,2.1l2.971,2.97a1.484,1.484,0,0,0,2.1,0l5.941-5.941a1.485,1.485,0,1,0-2.1-2.1Z" transform="translate(-3.846 4.793)"/><path d="M24.5,19.485a1.485,1.485,0,0,0,1.485,1.485H37.867a1.485,1.485,0,0,0,0-2.97H25.985A1.485,1.485,0,0,0,24.5,19.485Z" transform="translate(1.491 5.763)"/><path d="M22.846,24.435l-4.891,4.891-1.92-1.92a1.485,1.485,0,1,0-2.1,2.1l2.971,2.97a1.484,1.484,0,0,0,2.1,0l5.941-5.941a1.485,1.485,0,1,0-2.1-2.1Z" transform="translate(-3.846 8.674)"/><path d="M37.867,26H25.985a1.485,1.485,0,1,0,0,2.97H37.867a1.485,1.485,0,1,0,0-2.97Z" transform="translate(1.491 9.645)"/><path d="M22.846,32.435l-4.891,4.891-1.92-1.92a1.485,1.485,0,1,0-2.1,2.1l2.971,2.97a1.484,1.484,0,0,0,2.1,0l5.941-5.941a1.485,1.485,0,1,0-2.1-2.1Z" transform="translate(-3.846 12.556)"/><path d="M37.867,34H25.985a1.485,1.485,0,1,0,0,2.97H37.867a1.485,1.485,0,1,0,0-2.97Z" transform="translate(1.491 13.526)"/></g></g></g></svg>