<svg id="Layer_1" data-name="Layer 1" xmlns="http://www.w3.org/2000/svg" xmlns:xlink="http://www.w3.org/1999/xlink" viewBox="0 0 76 76"><defs><style>.cls-1,.cls-10,.cls-14,.cls-6,.cls-7{fill:none;}.cls-2{fill:#7cc6af;}.cls-3{clip-path:url(#clip-path);}.cls-4{fill:#009b3a;}.cls-5,.cls-8{fill:#c60b1e;}.cls-6{stroke:#fffe33;}.cls-12,.cls-14,.cls-6{stroke-linecap:round;stroke-linejoin:round;}.cls-10,.cls-7{stroke:#ffff35;}.cls-11,.cls-8,.cls-9{fill-rule:evenodd;}.cls-12,.cls-13,.cls-9{fill:#fff;}.cls-10{stroke-miterlimit:10;}.cls-11{fill:#3131dc;}.cls-12,.cls-14{stroke:#000;stroke-width:1.5px;}</style><clipPath id="clip-path"><path class="cls-1" d="M21.94,3h0A14.94,14.94,0,0,1,36.88,17.94h0A14.94,14.94,0,0,1,21.94,32.88h0A14.94,14.94,0,0,1,7,17.94H7A14.94,14.94,0,0,1,21.94,3Z"/></clipPath></defs><title>Artboard 1</title><rect class="cls-1" width="76" height="76"/><path class="cls-2" d="M31.2,46.76c-.44-4.22,0,22.8,0,22.8H45.1V56.8S31.64,51,31.2,46.76Z"/><g class="cls-3"><rect class="cls-4" x="2.57" y="3" width="16.42" height="29.88"/><rect class="cls-5" x="18.84" y="3" width="33.93" height="29.88"/><path class="cls-6" d="M15.07,13.73l-2.24.57,2.24,1.5L12,17.65,15.79,19l-2.34,2.27,5.41.95"/><line class="cls-7" x1="18.88" y1="10.1" x2="18.88" y2="24.04"/><path class="cls-6" d="M22.71,13.73,25,14.3l-2.24,1.5,3.12,1.85L22,19l2.35,2.27-5.41.95"/><path class="cls-8" d="M22.9,13.07H14.81v5.24h0v.08a4,4,0,0,0,8.09.34,1.93,1.93,0,0,0,0-.34v-.08h0Z"/><path class="cls-9" d="M21.56,14.62H16.15v3.5h0v.06a2.71,2.71,0,0,0,5.41,0v-.06h0Z"/><circle class="cls-10" cx="18.83" cy="17.02" r="6.92"/><path class="cls-11" d="M19.46,15h-1.2v.78h0a.6.6,0,0,0,.65.54.61.61,0,0,0,.55-.54h0Z"/><path class="cls-11" d="M19.46,16.77h-1.2v.77h0a.6.6,0,0,0,1.2,0h0Z"/><path class="cls-11" d="M19.46,18.51h-1.2v.77h0a.6.6,0,0,0,.65.55.62.62,0,0,0,.55-.55h0Z"/><path class="cls-11" d="M18,16.77H16.77v.77h0a.6.6,0,0,0,.65.54.58.58,0,0,0,.54-.54h0Z"/><path class="cls-11" d="M19.46,16.77h-1.2v.77h0a.6.6,0,0,0,1.2,0h0Z"/><path class="cls-11" d="M21,16.77h-1.2v.77h0a.61.61,0,0,0,.66.54.59.59,0,0,0,.54-.54h0Z"/></g><path class="cls-12" d="M42.89,25.56V19.68a4.81,4.81,0,0,0-9.61,0v5.88Z"/><path class="cls-13" d="M28.21,25.88l.9,5.36,5.42,4.6,2.09.39,1.21,5,3.05,1.07,1,5.4,3,2.4s.35-24.6.19-24.63-17.45-.16-17.45-.16Z"/><path class="cls-14" d="M45.11,66.17V36.05a4.34,4.34,0,0,1,4.33-4.36h9.92V25.54H16.81v6.15h9.91A4.34,4.34,0,0,1,31.06,36V66.15"/><path class="cls-14" d="M16.81,25.56h-3a1.56,1.56,0,0,0-1.55,1.54v.07a1.56,1.56,0,0,0,1.55,1.54h3Z"/><path class="cls-14" d="M62.36,25.56h-3v3.17h3a1.56,1.56,0,0,0,1.54-1.55v-.06a1.53,1.53,0,0,0-1.52-1.56Z"/><path class="cls-14" d="M45.1,66.25V56.73a26,26,0,0,1-11.72-7.57A21.64,21.64,0,0,1,31,46.28v20"/><line class="cls-14" x1="45.1" y1="32.7" x2="45.1" y2="30.07"/><path class="cls-14" d="M28.22,25.56v1.61a9.35,9.35,0,0,0,8.71,9.32"/><path class="cls-14" d="M31.9,25.56a9.05,9.05,0,0,0,5,5"/><path class="cls-14" d="M41.33,25.56V46.2a4.51,4.51,0,0,0,3.77,4.3V25.56Z"/><line class="cls-14" x1="34.45" y1="55.34" x2="34.45" y2="63.13"/><line class="cls-14" x1="38.35" y1="56.9" x2="38.35" y2="63.13"/><line class="cls-14" x1="42.25" y1="58.61" x2="42.25" y2="63.13"/><path class="cls-14" d="M36.93,25.56V38.41c0,2.18,1.78,4,4.4,4.3V25.56Z"/><line class="cls-14" x1="35.75" y1="19.32" x2="40.43" y2="19.32"/><line class="cls-14" x1="38.09" y1="19.32" x2="38.09" y2="22.44"/><path class="cls-14" d="M66.85,41.35h-1a3.31,3.31,0,0,0-6.61,0h-1a2.6,2.6,0,0,0-2.59,2.59h0a2.59,2.59,0,0,0,2.58,2.59h8.64a2.6,2.6,0,0,0,2.59-2.59h0a2.59,2.59,0,0,0-2.58-2.59Z"/><path class="cls-14" d="M56.7,15.8h-.81a2.67,2.67,0,0,0-5.33,0h-.81a2.09,2.09,0,0,0-2.09,2.09h0A2.09,2.09,0,0,0,49.75,20h7a2.1,2.1,0,0,0,2.09-2.09h0A2.14,2.14,0,0,0,56.7,15.8Z"/><path class="cls-14" d="M21.64,43.91h-1a3.31,3.31,0,0,0-6.61,0H13a2.61,2.61,0,0,0-2.59,2.59h0A2.62,2.62,0,0,0,13,49.09h8.64a2.61,2.61,0,0,0,2.59-2.59h0a2.58,2.58,0,0,0-2.58-2.59Z"/><path class="cls-14" d="M23.37,73V69.79H52.8V73"/></svg>