<?xml version="1.0" encoding="utf-8"?>
<!-- Generator: Adobe Illustrator 23.1.1, SVG Export Plug-In . SVG Version: 6.00 Build 0)  -->
<svg version="1.1" id="Layer_1" xmlns="http://www.w3.org/2000/svg" xmlns:xlink="http://www.w3.org/1999/xlink" x="0px" y="0px"
	 viewBox="0 0 76 76" style="enable-background:new 0 0 76 76;" xml:space="preserve">
<style type="text/css">
	.st0{opacity:0;}
	.st1{fill:#6740D8;}
	.st2{fill:#906BFA;}
	.st3{fill:none;stroke:#707070;}
	.st4{fill:#D5C6FF;}
	.st5{fill:#EBE3FF;}
</style>
<g transform="translate(-1381 -1668)">
	<g transform="translate(1381 1668)" class="st0">
		<rect width="76" height="76"/>
	</g>
	<g transform="translate(4 3)">
		<circle class="st1" cx="1394" cy="1681" r="13"/>
		<g transform="translate(1394.582 1694.119)">
			<ellipse class="st2" cx="11.5" cy="11" rx="11.5" ry="11"/>
			<ellipse class="st3" cx="11.5" cy="11" rx="11" ry="10.5"/>
		</g>
		<g transform="translate(1426.97 1680.537)">
			<ellipse class="st4" cx="11.5" cy="11" rx="11.5" ry="11"/>
			<ellipse class="st3" cx="11.5" cy="11" rx="11" ry="10.5"/>
		</g>
		<g transform="translate(1414.433 1715.015)">
			<ellipse class="st5" cx="11" cy="11.5" rx="11" ry="11.5"/>
			<ellipse class="st3" cx="11" cy="11.5" rx="10.5" ry="11"/>
		</g>
		<path d="M1438.2,1702.9c6.5,0,11.7-5.2,11.7-11.7c0-6.5-5.2-11.7-11.7-11.7c-4.6,0-8.7,2.6-10.6,6.8l-3.1-1.2
			c0-0.2,0.1-0.5,0.1-0.7c0-2.7-2.2-4.9-4.9-5c-2.7,0-4.9,2.2-5,4.9c0,2.7,2.2,4.9,4.9,5c1.7,0,3.3-0.9,4.2-2.3l3.1,1.2
			c-0.6,2.2-0.6,4.6,0.2,6.8l-10.7,4.5c-2.7-5.2-9-7.6-14.5-5.5l-2.7-5.7c2.1-1.6,2.5-4.7,0.9-6.8c-1.6-2.1-4.7-2.5-6.8-0.9
			c-2.1,1.6-2.5,4.7-0.9,6.8c0.9,1.2,2.4,1.9,3.9,1.9c0.4,0,0.8-0.1,1.2-0.2l2.7,5.7c-5.6,3.2-7.5,10.4-4.2,16
			c0.9,1.5,2.1,2.9,3.6,3.8l-1.8,3.2c-0.5-0.2-1-0.2-1.5-0.2c-2.7,0-5,2.1-5,4.9s2.1,5,4.9,5c2.7,0,5-2.1,5-4.9
			c0-1.5-0.6-2.8-1.7-3.8l1.8-3.2c3.9,1.8,8.5,1.2,11.9-1.4l3.8,4.2c-2,2.2-3.1,5-3.2,8c0,0.6,0.1,1.2,0.1,1.8l-4.5,1.1
			c-1.2-2.4-4-3.4-6.5-2.3s-3.4,4-2.3,6.5s4,3.4,6.5,2.3c1.7-0.8,2.8-2.5,2.8-4.4c0-0.1,0-0.1,0-0.2l4.5-1.1c2,6.1,8.7,9.5,14.8,7.4
			c6.1-2,9.5-8.7,7.4-14.8c-0.2-0.6-0.5-1.2-0.8-1.8l5.7-3.7c1.9,2,5.1,2,7,0.1c2-1.9,2-5.1,0.1-7c-1.9-2-5.1-2-7-0.1
			c-1.4,1.4-1.9,3.5-1.2,5.4l-5.7,3.7c-1.2-1.5-2.7-2.7-4.4-3.5l4.8-13.2C1436.2,1702.7,1437.2,1702.9,1438.2,1702.9z
			 M1419.7,1687.3c-1.6,0-2.9-1.3-2.9-2.9c0-1.6,1.3-2.9,2.9-2.9c1.6,0,2.9,1.3,2.9,2.9c0,0,0,0,0,0
			C1422.6,1686,1421.3,1687.3,1419.7,1687.3z M1393.4,1684.3c0-1.6,1.3-2.9,2.9-2.9c1.6,0,2.9,1.3,2.9,2.9c0,1.6-1.3,2.9-2.9,2.9
			C1394.7,1687.3,1393.4,1686,1393.4,1684.3z M1396.3,1725.3c-1.6,0-2.9-1.3-2.9-2.9s1.3-2.9,2.9-2.9c1.6,0,2.9,1.3,2.9,2.9
			C1399.2,1724,1397.9,1725.3,1396.3,1725.3L1396.3,1725.3z M1405.1,1734.1c-1.6,0-2.9-1.3-2.9-2.9s1.3-2.9,2.9-2.9
			c1.6,0,2.9,1.3,2.9,2.9C1408,1732.8,1406.7,1734.1,1405.1,1734.1L1405.1,1734.1z M1445.1,1710.7c1.6,0,2.9,1.3,2.9,2.9
			c0,1.6-1.3,2.9-2.9,2.9c-1.6,0-2.9-1.3-2.9-2.9l0,0C1442.1,1712,1443.5,1710.7,1445.1,1710.7L1445.1,1710.7z M1432.5,1699
			c0.4-2.3,2.4-3.9,4.8-4h2c2.3,0,4.3,1.7,4.8,4C1440.6,1701.6,1435.9,1701.6,1432.5,1699L1432.5,1699z M1438.2,1693.1
			c-1.6,0-2.9-1.3-2.9-2.9c0-1.6,1.3-2.9,2.9-2.9s2.9,1.3,2.9,2.9C1441.2,1691.8,1439.9,1693.1,1438.2,1693.1L1438.2,1693.1z
			 M1438.2,1681.4c5.4,0,9.7,4.3,9.8,9.7c0,2.4-0.8,4.6-2.4,6.4c-0.7-1.8-2.1-3.2-3.9-3.9c1.9-1.9,1.9-5-0.1-6.9
			c-1.9-1.9-5-1.9-6.9,0.1c-1.9,1.9-1.9,4.9,0,6.8c-1.8,0.7-3.2,2.1-3.9,3.9c-3.5-4.1-3.1-10.2,1-13.7
			C1433.6,1682.3,1435.9,1681.4,1438.2,1681.4z M1396.3,1704.8c0-5.4,4.4-9.8,9.7-9.8c5.4,0,9.8,4.4,9.8,9.7c0,2.4-0.9,4.7-2.4,6.4
			c-0.7-1.8-2.1-3.2-3.9-4c1.9-1.9,1.9-5-0.1-6.9c-1.9-1.9-5-1.9-6.9,0.1c-1.9,1.9-1.9,4.9,0,6.8c-1.8,0.7-3.2,2.1-3.9,3.9
			C1397.1,1709.4,1396.3,1707.2,1396.3,1704.8z M1403.1,1703.8c0-1.6,1.3-2.9,2.9-2.9c1.6,0,2.9,1.3,2.9,2.9c0,1.6-1.3,2.9-2.9,2.9
			C1404.4,1706.8,1403.1,1705.5,1403.1,1703.8L1403.1,1703.8z M1400.3,1712.7c0.4-2.3,2.4-3.9,4.8-4h2c2.3,0,4.3,1.7,4.8,4
			C1408.4,1715.2,1403.7,1715.2,1400.3,1712.7L1400.3,1712.7z M1419.8,1734.1c0.4-2.3,2.4-3.9,4.8-4h2c2.3,0,4.3,1.7,4.8,4
			C1427.9,1736.7,1423.2,1736.7,1419.8,1734.1L1419.8,1734.1z M1425.5,1728.2c-1.6,0-2.9-1.3-2.9-2.9c0-1.6,1.3-2.9,2.9-2.9
			s2.9,1.3,2.9,2.9l0,0C1428.5,1726.9,1427.2,1728.2,1425.5,1728.2L1425.5,1728.2z M1435.3,1726.3c0,2.4-0.9,4.6-2.4,6.4
			c-0.7-1.8-2.1-3.2-3.9-4c1.9-1.9,1.9-5-0.1-6.9c-1.9-1.9-5-1.9-6.9,0.1c-1.9,1.9-1.9,4.9,0,6.8c-1.8,0.7-3.2,2.1-3.9,3.9
			c-3.5-4.1-3.1-10.2,1-13.8c4.1-3.5,10.2-3.1,13.8,1C1434.5,1721.7,1435.3,1724,1435.3,1726.3L1435.3,1726.3z M1428.6,1715
			c-3.5-1-7.3-0.2-10.2,2l-3.8-4.2c2.9-3.1,3.9-7.6,2.6-11.6l10.7-4.5c1.2,2.3,3.1,4.1,5.5,5.2L1428.6,1715z"/>
	</g>
</g>
</svg>
