<svg xmlns="http://www.w3.org/2000/svg" width="42" height="42" viewBox="0 0 42 42"><defs><style>.a{fill:rgba(194,168,240,0.9);}.b{fill:none;stroke:#31305d;stroke-miterlimit:10;stroke-width:1.2px;}</style></defs><g transform="translate(-312.057 -990.1)"><rect class="a" width="42" height="42" rx="8" transform="translate(312.057 990.1)"/><g transform="translate(319.794 1001.152)"><rect class="b" width="6.489" height="19.362" transform="translate(13.849 1.002)"/><circle class="b" cx="1.305" cy="1.305" r="1.305" transform="translate(15.788 15.011)"/><line class="b" x2="5.203" transform="translate(13.849 4.879)"/><line class="b" x2="5.203" transform="translate(13.849 6.975)"/><g transform="translate(20.337 1.002)"><rect class="b" width="6.489" height="19.362"/><circle class="b" cx="1.305" cy="1.305" r="1.305" transform="translate(1.939 14.009)"/><line class="b" x2="5.203" transform="translate(0 3.877)"/><line class="b" x2="5.203" transform="translate(0 5.973)"/></g><rect class="b" width="6.489" height="19.362" transform="translate(5.982 20.364) rotate(-157.212)"/><path class="b" d="M450.81,146.738a1.3,1.3,0,1,0,1.708-.7A1.3,1.3,0,0,0,450.81,146.738Z" transform="translate(-447.454 -131.868)"/><line class="b" x1="4.797" y1="2.015" transform="translate(5.984 3.505)"/><line class="b" x1="4.797" y1="2.015" transform="translate(5.172 5.438)"/></g></g></svg>