<svg xmlns="http://www.w3.org/2000/svg" xmlns:xlink="http://www.w3.org/1999/xlink" width="76" height="76" viewBox="0 0 76 76"><defs><style>.a{fill:#fff;}.b{fill:none;}.c{fill:#e1ce70;}.d{clip-path:url(#a);}.e{fill:#062493;}.f{fill:#ec2938;}.g{fill:#fffa9c;}.h{fill:#091f3a;}</style><clipPath id="a"><rect class="a" width="31.515" height="31.515" rx="15.758" transform="translate(0)"/></clipPath></defs><g transform="translate(-2943 -1745)"><g transform="translate(2943 1745)"><rect class="b" width="76" height="76"/></g><g transform="translate(34 3)"><circle class="c" cx="15.758" cy="15.758" r="15.758" transform="translate(2913 1750.909)"/><g class="d" transform="translate(2922.849 1745)"><g transform="translate(-9.795 0.426)"><rect class="e" width="16.81" height="31.053" transform="translate(0)"/><rect class="f" width="17.175" height="31.053" transform="translate(33.931)"/><rect class="a" width="17.121" height="31.053" transform="translate(16.81)"/></g></g><g transform="translate(2918.909 1766.157)"><g transform="translate(10.387 4.971)"><path class="c" d="M19.768,0C30.686,0,39.536,8.576,39.536,19.155s-8.85,19.155-19.768,19.155S0,29.735,0,19.155,8.85,0,19.768,0Z"/><ellipse class="g" cx="15.758" cy="15.617" rx="15.758" ry="15.617" transform="translate(3.892 3.279)"/></g><g transform="translate(0 0)"><path class="h" d="M362.1,164.082a20.756,20.756,0,1,1,20.71,20.772A20.694,20.694,0,0,1,362.1,164.082Zm1.805.021a18.944,18.944,0,1,0,18.937-18.952A18.863,18.863,0,0,0,363.9,164.1Z" transform="translate(-352.69 -140.18)"/><path class="h" d="M404,147.978c-.061-1.6-.123-3.209-.166-4.814a.894.894,0,1,1,1.783-.123c.07.73.088,1.465.116,2.2.082,2.166.153,4.334.239,6.5.042,1.058.138,2.113.154,3.17a4.055,4.055,0,0,1-1.783,3.607.773.773,0,0,0-.382.84c.111,1.053.072,2.114.121,3.173.118,2.541.163,5.086.249,7.63q.2,5.862.415,11.724c.052,1.433.073,2.869.2,4.3.183,2.132-2.282,3.57-4.019,3.007a2.99,2.99,0,0,1-2.244-3.382c.115-1.088.073-2.184.127-3.275.125-2.524.163-5.053.248-7.579q.2-5.862.417-11.724.071-1.945.178-3.888a.817.817,0,0,0-.395-.806,3.847,3.847,0,0,1-1.759-3.347c.059-3.279.236-6.553.392-9.827.026-.563.017-1.129.039-1.692a3.932,3.932,0,0,1,.092-.812.8.8,0,0,1,.8-.666.828.828,0,0,1,.888.627,1.961,1.961,0,0,1,.078.605c-.044.992-.142,3.158-.238,5.289-.1,2.245-.2,4.45-.234,5.2a14.1,14.1,0,0,0-.01,1.434,2.17,2.17,0,0,0,1.094,1.809c.406.248.485.2.485-.28q.006-2.513,0-5.024v-8.305a4.393,4.393,0,0,1,.012-.512.9.9,0,0,1,.909-.86.883.883,0,0,1,.873.891c.02.323.009.649.009.973v6q0,3.41,0,6.818c0,.147-.073.343.08.427.172.1.323-.06.458-.151a2.123,2.123,0,0,0,1.049-1.884c-.066-1.976-.148-3.95-.227-5.926M400.531,185.3h-.026c0,.324,0,.649,0,.973a1.241,1.241,0,0,0,1.3,1.212,1.294,1.294,0,0,0,1.32-1.271c-.057-1.177-.122-2.353-.166-3.529q-.217-5.86-.417-11.721c-.086-2.525-.15-5.052-.235-7.577-.042-1.228-.116-2.455-.169-3.684-.011-.252-.066-.432-.377-.42s-.305.209-.314.424c-.062,1.552-.133,3.1-.192,4.657q-.157,4.171-.3,8.343Q400.735,179.008,400.531,185.3Z" transform="translate(-343.991 -140.469)"/><path class="h" d="M360.629,159.78a24.306,24.306,0,0,1-.081,2.449,2.531,2.531,0,0,1-.721,1.6,3.729,3.729,0,0,0-1.019,3.246c.122,1.805.254,3.61.385,5.414q.293,4.034.588,8.068c.081,1.124.178,2.247.222,3.372.118,3.078-1.826,4.2-4.172,4.674-.463.093-.99-.371-1.178-.965a2.452,2.452,0,0,1-.106-.757q.006-22.095.006-44.191c0-.64.022-1.306.659-1.676a1.925,1.925,0,0,1,2,.173,3.852,3.852,0,0,1,1.577,2.2,20.354,20.354,0,0,1,1.018,4.588A90.921,90.921,0,0,1,360.629,159.78Zm-4.147-16.793a1.543,1.543,0,0,0-.068.705q0,21.075,0,42.149c0,.12.008.24,0,.359-.025.363.131.4.434.277a2.231,2.231,0,0,0,1.363-2.211c-.054-1.09-.142-2.18-.22-3.269q-.292-4.036-.588-8.07c-.131-1.8-.263-3.609-.385-5.414s0-3.534,1.47-4.861a.775.775,0,0,0,.245-.548c.031-.528.1-1.058.091-1.585a92.931,92.931,0,0,0-.72-11.547,21.642,21.642,0,0,0-1.049-5.05A1.671,1.671,0,0,0,356.482,142.988Z" transform="translate(-354.546 -140.805)"/><path class="h" d="M381.389,149.255a13.718,13.718,0,0,0-12.874,9.723c-.069.228-.133.46-.224.68a.906.906,0,0,1-1.117.558.869.869,0,0,1-.573-1.1,14.41,14.41,0,0,1,2.189-4.827,15.706,15.706,0,0,1,23.166-3.086,2.281,2.281,0,0,1,.456.481.809.809,0,0,1-.093,1.039.762.762,0,0,1-.963.242,2.937,2.937,0,0,1-.593-.4A13.836,13.836,0,0,0,381.389,149.255Z" transform="translate(-351.592 -139.178)"/><path class="h" d="M393.721,160.655A15.671,15.671,0,0,1,382.8,176.174c-.821.259-1.469-.2-1.344-.957.077-.477.436-.663.845-.79a12.88,12.88,0,0,0,4.32-2.293,13.676,13.676,0,0,0,5.2-9.163,13.51,13.51,0,0,0-.644-6.31,4.29,4.29,0,0,1-.149-.491.906.906,0,0,1,.558-1.079.888.888,0,0,1,1.137.522,15.094,15.094,0,0,1,.878,3.364A7.883,7.883,0,0,1,393.721,160.655Z" transform="translate(-347.937 -137.308)"/><path class="h" d="M366.173,160.347a.908.908,0,0,1,.82-1.038.85.85,0,0,1,.979.875,19.758,19.758,0,0,0,.4,3.245,13.921,13.921,0,0,0,3.408,6.274c.07.075.142.147.207.225a.9.9,0,0,1,0,1.362.951.951,0,0,1-1.328-.147,14.8,14.8,0,0,1-2.609-3.53A15.55,15.55,0,0,1,366.173,160.347Z" transform="translate(-351.689 -136.259)"/></g></g></g></g></svg>