<svg xmlns="http://www.w3.org/2000/svg" xmlns:xlink="http://www.w3.org/1999/xlink" width="76" height="76" viewBox="0 0 76 76"><defs><style>.a{fill:#fff;}.b{fill:none;}.c{clip-path:url(#a);}.d{fill:#fecd17;}.e{fill:#dc0201;}.f{fill:#ffe01b;}.g{fill:#091f3a;}</style><clipPath id="a"><rect class="a" width="29.057" height="29.057" rx="14.529" transform="translate(0 0)"/></clipPath></defs><g transform="translate(-171 -1623)"><g transform="translate(171 1623)"><rect class="b" width="76" height="76"/></g><g transform="translate(-3742 -4929)"><g class="c" transform="translate(3916 6558)"><g transform="translate(-9.031 0)"><rect width="47.12" height="9.664" transform="translate(0 0)"/><rect class="d" width="47.12" height="9.743" transform="translate(0 19.314)"/><rect class="e" width="47.12" height="9.65" transform="translate(0 9.664)"/></g></g><g transform="translate(3928.712 6565.264)"><rect class="f" width="5.371" height="2.685" transform="translate(0.541 53.864)"/><rect class="f" width="5.371" height="2.685" transform="translate(0.541 20.128)"/><rect class="f" width="5.371" height="2.685" transform="translate(9.492 53.864)"/><rect class="f" width="5.371" height="2.685" transform="translate(9.492 20.128)"/><rect class="f" width="5.371" height="2.685" transform="translate(17.548 53.864)"/><rect class="f" width="5.371" height="2.685" transform="translate(17.548 20.128)"/><rect class="f" width="5.371" height="2.685" transform="translate(34.555 53.864)"/><rect class="f" width="5.371" height="2.685" transform="translate(34.555 20.128)"/><rect class="f" width="5.371" height="2.685" transform="translate(42.611 53.864)"/><rect class="f" width="5.371" height="2.685" transform="translate(42.611 20.128)"/><rect class="f" width="5.371" height="2.685" transform="translate(50.667 53.864)"/><rect class="f" width="5.371" height="2.685" transform="translate(50.667 20.128)"/><g transform="translate(0 0)"><path class="g" d="M509.986,162.016a.7.7,0,0,0,0-1.4H493.916v-1.4h2.1a.7.7,0,0,0,0-1.4H468.067a.7.7,0,0,0,0,1.4h2.1v1.4H454.1a.7.7,0,1,0,0,1.4h2.1V169h-2.1a.7.7,0,0,0-.7.7V180.88a.7.7,0,0,0,.7.7v29.343a.7.7,0,0,0-.7.7v2.795a.7.7,0,0,0,.7.7h55.89a.7.7,0,0,0,.7-.7v-2.795a.7.7,0,0,0-.7-.7V181.578a.7.7,0,0,0,.7-.7V169.7a.7.7,0,0,0-.7-.7h-2.1v-6.986Zm-17.467-2.794V169H471.561v-9.78Zm-34.931,2.794h12.575v1.4h-4.891a.7.7,0,0,0,0,1.4h4.891v1.4H459.684a.7.7,0,1,0,0,1.4h10.479V169H457.588Zm4.192,16.767v2.1a.7.7,0,0,0,.7.7v29.343a.7.7,0,0,0-.7.7v2.1h-1.4v-2.1a.7.7,0,0,0-.7-.7V181.578a.7.7,0,0,0,.7-.7v-2.1Zm8.384,0v2.1a.7.7,0,0,0,.7.7v29.343a.7.7,0,0,0-.7.7v2.1h-1.4v-2.1a.7.7,0,0,0-.7-.7V181.578a.7.7,0,0,0,.7-.7v-2.1Zm16.767,0v2.1a.7.7,0,0,0,.7.7v29.343a.7.7,0,0,0-.7.7v2.1H477.15v-2.1a.7.7,0,0,0-.7-.7V181.578a.7.7,0,0,0,.7-.7v-2.1Zm8.383,0v2.1a.7.7,0,0,0,.7.7v29.343a.7.7,0,0,0-.7.7v2.1h-1.4v-2.1a.7.7,0,0,0-.7-.7V181.578a.7.7,0,0,0,.7-.7v-2.1Zm8.384,0v2.1a.7.7,0,0,0,.7.7v29.343a.7.7,0,0,0-.7.7v2.1h-1.4v-2.1a.7.7,0,0,0-.7-.7V181.578a.7.7,0,0,0,.7-.7v-2.1Zm5.589,1.4h-4.192v-1.4h4.192Zm-11.876,1.4H500.2v29.343H497.41Zm3.493-1.4h-4.192v-1.4H500.9Zm-11.876,1.4h2.795v29.343h-2.795Zm3.493-1.4h-4.191v-1.4h4.191Zm-20.26,1.4h2.795v29.343h-2.795Zm3.494-1.4h-4.192v-1.4h4.192Zm-11.877,1.4h2.795v29.343h-2.795Zm3.494-1.4h-4.192v-1.4h4.192Zm-8.384,0h-4.192v-1.4h4.192Zm-3.493,1.4h2.795v29.343h-2.795Zm-.7,32.138v-1.4h4.192v1.4Zm8.384,0v-1.4h4.192v1.4Zm8.384,0v-1.4h4.192v1.4Zm16.767,0v-1.4h4.191v1.4Zm8.383,0v-1.4H500.9v1.4Zm8.384,0v-1.4h4.192v1.4Zm3.494-2.795h-2.795V181.578h2.795Zm.7-33.535H454.793V170.4h54.493ZM506.492,169H493.916v-1.4H504.4a.7.7,0,0,0,0-1.4h-10.48v-1.4h4.891a.7.7,0,0,0,0-1.4h-4.891v-1.4h12.576Z" transform="translate(-453.396 -157.825)"/><path class="g" d="M475.948,162.343h16.767a.7.7,0,1,0,0-1.4H475.948a.7.7,0,0,0,0,1.4Z" transform="translate(-455.688 -158.152)"/><path class="g" d="M457.217,176.556a.7.7,0,1,0,0,1.4h50.3a.7.7,0,0,0,0-1.4Z" transform="translate(-453.723 -159.79)"/><path class="g" d="M469.7,174.831H497.65a.7.7,0,0,0,0-1.4H469.7a.7.7,0,0,0,0,1.4Z" transform="translate(-455.033 -159.462)"/></g></g></g></g></svg>