<?xml version="1.0" encoding="utf-8"?>
<!-- Generator: Adobe Illustrator 23.1.1, SVG Export Plug-In . SVG Version: 6.00 Build 0)  -->
<svg version="1.1" id="Layer_1" xmlns="http://www.w3.org/2000/svg" xmlns:xlink="http://www.w3.org/1999/xlink" x="0px" y="0px"
	 viewBox="0 0 76 76" style="enable-background:new 0 0 76 76;" xml:space="preserve">
<style type="text/css">
	.st0{opacity:0;}
	.st1{fill:#E54453;}
	.st2{fill:#F88D8A;}
	.st3{fill:#D31B5C;}
	.st4{fill:#F7A3AB;stroke:#707070;}
</style>
<g transform="translate(-1368 -2017)">
	<g transform="translate(1368 2017)" class="st0">
		<rect width="76" height="76"/>
	</g>
	<g transform="translate(-3 0)">
		<circle class="st1" cx="1386.6" cy="2034.6" r="12.6"/>
		<path class="st2" d="M1398.9,2054.8l5.5,4.4l2.2-4.4H1398.9z"/>
		<path class="st3" d="M1397.7,2045.5v8.6l5.8,4.5c0,0-3.3,4.9-5.8,3.6s-6-0.7-7.2-3.6c-1.1-2.9-2-9.7,2-11.3
			C1396.6,2045.8,1397.7,2045.5,1397.7,2045.5z"/>
		<path class="st4" d="M1402,2042.1c0.2,3.1,0,7.6,0,7.6h8.4c0-2.1-0.7-4.2-2-5.9C1406.3,2041.4,1401.9,2040.4,1402,2042.1z"/>
		<g transform="translate(1381.212 2031.989)">
			<path d="M61.7,0H1C0.5,0,0,0.5,0,1v4.2c0,0.6,0.5,1,1,1h1v34.5c0,0.6,0.5,1,1,1h27.2v5.4c-2.2,0.6-3.6,2.9-3,5.1
				c0.6,2.2,2.9,3.6,5.1,3s3.6-2.9,3-5.1c-0.4-1.5-1.5-2.6-3-3v-5.4h27.2c0.6,0,1-0.5,1-1V6.3h1c0.6,0,1-0.5,1-1V1
				C62.8,0.5,62.3,0,61.7,0z M33.5,51.3c0,1.2-0.9,2.1-2.1,2.1c-1.2,0-2.1-0.9-2.1-2.1c0-1.2,0.9-2.1,2.1-2.1S33.5,50.1,33.5,51.3
				L33.5,51.3z M58.6,39.8H4.2V6.3h54.4V39.8z M60.7,4.2H2.1V2.1h58.6V4.2z"/>
			<path d="M16.7,31.4c5.2,0,9.4-4.2,9.4-9.4c0-0.6-0.5-1-1-1l0,0h-7.3v-7.3c0-0.6-0.5-1-1-1c0,0,0,0,0,0c-5.2,0-9.4,4.2-9.4,9.4
				C7.3,27.2,11.5,31.4,16.7,31.4z M22.9,26L19.5,23H24C23.8,24.1,23.5,25.1,22.9,26L22.9,26z M15.7,14.7V22c0,0,0,0.1,0,0.1
				c0,0,0,0,0,0c0,0,0,0.1,0,0.1c0,0,0,0,0,0c0,0,0,0.1,0,0.1l0,0c0,0,0,0.1,0.1,0.1l0,0c0,0,0,0.1,0.1,0.1l0,0c0,0,0.1,0.1,0.1,0.1
				l5.5,4.8c-3.1,2.6-7.7,2.3-10.3-0.8S8.9,19,12,16.4C13,15.5,14.3,14.9,15.7,14.7L15.7,14.7z"/>
			<path d="M20.9,18.8h8.4c0.6,0,1-0.5,1-1c0,0,0,0,0,0c0-5.2-4.2-9.4-9.4-9.4c-0.6,0-1,0.5-1,1c0,0,0,0,0,0v8.4
				C19.9,18.4,20.4,18.8,20.9,18.8C20.9,18.8,20.9,18.8,20.9,18.8z M22,10.5c3.2,0.5,5.7,3,6.2,6.2H22V10.5z"/>
			<path d="M41.9,11.5h13.6c0.6,0,1-0.5,1-1c0-0.6-0.5-1-1-1H41.9c-0.6,0-1,0.5-1,1C40.8,11,41.3,11.5,41.9,11.5z"/>
			<path d="M33.5,15.7h22c0.6,0,1-0.5,1-1c0-0.6-0.5-1-1-1h-22c-0.6,0-1,0.5-1,1C32.4,15.2,32.9,15.7,33.5,15.7z"/>
			<path d="M33.5,19.9h22c0.6,0,1-0.5,1-1c0-0.6-0.5-1-1-1h-22c-0.6,0-1,0.5-1,1C32.4,19.4,32.9,19.9,33.5,19.9z"/>
			<path d="M33.5,37.7h22c0.6,0,1-0.5,1-1c0-0.6-0.5-1-1-1h-4.2v-7.3c0-0.6-0.5-1-1-1c-0.6,0-1,0.5-1,1v7.3h-2.1V24.1
				c0-0.6-0.5-1-1-1c-0.6,0-1,0.5-1,1v11.5h-2.1v-8.4c0-0.6-0.5-1-1-1c-0.6,0-1,0.5-1,1v8.4h-2.1v-4.2c0-0.6-0.5-1-1-1
				c-0.6,0-1,0.5-1,1l0,0v4.2h-2.1V23c0-0.6-0.5-1-1-1c-0.6,0-1,0.5-1,1l0,0v13.6C32.4,37.2,32.9,37.7,33.5,37.7
				C33.5,37.7,33.5,37.7,33.5,37.7z"/>
		</g>
	</g>
</g>
</svg>
