<?xml version="1.0" encoding="utf-8"?>
<!-- Generator: Adobe Illustrator 23.1.1, SVG Export Plug-In . SVG Version: 6.00 Build 0)  -->
<svg version="1.1" id="Layer_1" xmlns="http://www.w3.org/2000/svg" xmlns:xlink="http://www.w3.org/1999/xlink" x="0px" y="0px"
	 viewBox="0 0 76 76" style="enable-background:new 0 0 76 76;" xml:space="preserve">
<style type="text/css">
	.st0{opacity:0;}
	.st1{fill:#FA85AF;}
	.st2{fill:#FFC7DB;}
</style>
<g transform="translate(-1415 -2229)">
	<g transform="translate(1415 2229)" class="st0">
		<rect width="76" height="76"/>
	</g>
	<g transform="translate(0 3)">
		<circle class="st1" cx="1455" cy="2268.8" r="15.3"/>
		<circle class="st2" cx="1434.3" cy="2244.3" r="15.3"/>
		<g transform="translate(1421.828 2244.08)">
			<path d="M56.7,15.2c-5.8-13-21-18.8-34-13c-5.8,2.6-10.4,7.2-13,12.9c-5.2,0.7-9.3,4.6-9.7,9.5c0,0.2,0,0.5,0,0.7v0l0,0l0,0
				c0,0.3,0,0.6,0,0.9c0,0,0,0,0,0c0,0.3,0.1,0.6,0.1,0.9c0,0,0,0,0,0.1c0.1,0.3,0.1,0.6,0.2,0.8c0,0,0,0,0,0
				c0.1,0.3,0.2,0.6,0.3,0.8c0,0,0,0,0,0c1.6,3.5,4.8,5.9,8.6,6.5c3.4,7.4,10,12.9,18,14.6c0.5,3.1,3.5,5.2,6.6,4.7
				c3.1-0.5,5.2-3.5,4.7-6.6c-0.5-3.1-3.5-5.2-6.6-4.7c-2.1,0.4-3.8,1.8-4.5,3.9c-7.4-1.8-13.4-7-16.2-14.1V18.4
				c4-12,17.1-18.5,29.1-14.5C47,6.1,52.1,11,54.6,17.4v18.3c6.3,0,11.4-4.6,11.4-10.3C66,20.3,62,16.1,56.7,15.2z"/>
			<path d="M33.3,9.6c-8.3,0-15.1,6.8-15.1,15.1S25,39.8,33.3,39.8S48.4,33,48.4,24.7l0,0C48.4,16.3,41.7,9.6,33.3,9.6z M33.3,37.1
				c-6.8,0-12.4-5.6-12.4-12.4c0-6.8,5.6-12.4,12.4-12.4c6.8,0,12.4,5.6,12.4,12.4C45.7,31.5,40.2,37.1,33.3,37.1z"/>
			<path d="M32,23.3H26V26h8.7v-9.6H32V23.3z"/>
		</g>
	</g>
</g>
</svg>
