<svg xmlns="http://www.w3.org/2000/svg" width="68" height="63.725" viewBox="0 0 68 63.725"><defs><style>.a{fill:#ff7381;}.b{fill:#f17280;}.c{fill:#cf525b;}.d{fill:#f195a0;}.e{fill:#ffb0ae;}.f{fill:#0b2955;}.g{fill:#ffc4be;}</style></defs><g transform="translate(-1713 -8182)"><g transform="translate(1713 8182)"><circle class="a" cx="13.691" cy="13.691" r="13.691"/><g transform="translate(14.149 9.871)"><ellipse class="b" cx="15.923" cy="15.924" rx="15.923" ry="15.924" transform="translate(6.447 13.553)"/><path class="c" d="M112.286,242.223l-.271,2.412,5.063,3.888,8.24,1.539,8.16-3.049,2.629-2.439-.548-2.941-5.883-2.22-1.5,1.922-3.068,1.4-3.786-.771-2.887-2.553-5.176,1.781Z" transform="translate(-101.661 -204.716)"/><path class="d" d="M117.7,240.391,121,236.464h4.729l3.251,3.926-4.565,2.707-4.347-1.1Z" transform="translate(-100.969 -205.076)"/><ellipse class="e" cx="5.624" cy="5.624" rx="5.624" ry="5.624" transform="translate(16.776 20.667)"/><g transform="translate(0 0)"><g transform="translate(9.416 19.561)"><path class="f" d="M136.958,245.431c.342-.294-.653-2.3-.947-2.642a4.926,4.926,0,0,0-1.657-1.254,20.727,20.727,0,0,0-2.951-1.111c-.434-.13-.875-.25-1.308-.355a2.928,2.928,0,0,1-2.207-2.131.7.7,0,0,1-.011-.084,7.646,7.646,0,0,0,2.338-5.627,6.084,6.084,0,1,0-12.159,0,7.644,7.644,0,0,0,2.331,5.62c-.007.063-.015.121-.024.164a2.836,2.836,0,0,1-2.184,2.058c-.45.107-.884.227-1.322.358a20.3,20.3,0,0,0-2.945,1.11,4.971,4.971,0,0,0-1.589,1.178c-.3.335-1.419,2.4-1.084,2.7.156.139.176.7.368.7a18.389,18.389,0,0,0,1.932-2.313,3.345,3.345,0,0,1,1.069-.791,19.123,19.123,0,0,1,2.715-1.021c.384-.116.769-.22,1.166-.315.646,1.853,2.923,3.233,5.647,3.233s4.987-1.38,5.64-3.236c.393.1.779.2,1.165.315a19.213,19.213,0,0,1,2.716,1.021,24.715,24.715,0,0,1,2.862,2.546m-16.833-13.327c0-2.84,1.747-4.674,4.451-4.674s4.446,1.834,4.446,4.674c0,3.044-1.994,5.52-4.446,5.52S119.686,235.272,119.686,232.228Zm4.451,11.049c-2.2,0-3.8-1.1-4.145-2.226a4.354,4.354,0,0,0,1.825-2.215,5.216,5.216,0,0,0,4.637,0,4.4,4.4,0,0,0,1.826,2.191C127.946,242.165,126.341,243.277,124.137,243.277Z" transform="translate(-111.179 -225.922)"/></g><path class="f" d="M155.819,208.487H103.6a.815.815,0,0,0-.815.816v52.221a.814.814,0,0,0,.815.816h32.838a.816.816,0,0,0,0-1.631H104.416V217.735H155v42.973h-4.423a.816.816,0,0,0,0,1.631h5.237a.816.816,0,0,0,.818-.816V209.3A.817.817,0,0,0,155.819,208.487ZM155,216.1H104.416v-5.983H155Z" transform="translate(-102.786 -208.487)"/><g transform="translate(46.994 3.82)"><path class="f" d="M145.49,213.514a.815.815,0,0,0,.577-.24.833.833,0,0,0,.24-.577.812.812,0,0,0-1.393-.577.826.826,0,0,0-.239.577.842.842,0,0,0,.239.577A.833.833,0,0,0,145.49,213.514Z" transform="translate(-144.674 -211.892)"/></g><g transform="translate(42.642 3.81)"><path class="f" d="M141.611,213.515a.816.816,0,1,0-.816-.817A.816.816,0,0,0,141.611,213.515Z" transform="translate(-140.795 -211.883)"/></g><g transform="translate(38.291 3.821)"><path class="f" d="M137.732,213.514a.815.815,0,0,0,.577-.24.829.829,0,0,0,.241-.577.814.814,0,0,0-.241-.577.843.843,0,0,0-1.153,0,.818.818,0,0,0,0,1.153A.835.835,0,0,0,137.732,213.514Z" transform="translate(-136.917 -211.893)"/></g><g transform="translate(5.782 13.4)"><path class="f" d="M139.34,244.459a16.645,16.645,0,1,0-7.371,7.371l7.527,7.526a5.212,5.212,0,1,0,7.371-7.37Zm-14.808,7.521a14.959,14.959,0,1,1,14.957-14.96A14.976,14.976,0,0,1,124.532,251.981Zm8.909-.987a16.686,16.686,0,0,0,5.062-5.063l4.749,4.748-5.064,5.063Zm12.271,7.21a3.583,3.583,0,0,1-5.062,0l-1.308-1.307,5.064-5.064,1.306,1.308a3.577,3.577,0,0,1,0,5.063Z" transform="translate(-107.94 -220.431)"/></g></g><rect class="g" width="50.588" height="5.984" transform="translate(1.63 1.632)"/></g></g></g></svg>