<svg xmlns="http://www.w3.org/2000/svg" xmlns:xlink="http://www.w3.org/1999/xlink" width="76" height="76" viewBox="0 0 76 76"><defs><style>.a{fill:#fff;}.b{fill:#122436;}.c{fill:#4ea3da;}.d{clip-path:url(#a);}.e{fill:#04247b;}.f{fill:#ce142a;}.g{fill:#ffcc34;}.h{fill:none;}</style><clipPath id="a"><rect class="a" width="28.231" height="28.231" rx="14.116"/></clipPath></defs><g transform="translate(-2771 -1508)"><g transform="translate(0 2)"><g transform="translate(2783.308 1520.251)"><path class="b" d="M60.831,53.659,59.922,52.5q-.6.468-1.168.966l.968,1.11Q60.265,54.1,60.831,53.659Z" transform="translate(-48.825 -46.44)"/><path class="b" d="M44.714,70.454q.422-.585.873-1.146l-1.148-.923q-.475.591-.92,1.207l1.194.862Z" transform="translate(-38.079 -57.645)"/><path class="b" d="M52.747,61.03l-1.036-1.048q-.54.533-1.051,1.093l1.088.993Q52.234,61.536,52.747,61.03Z" transform="translate(-43.117 -51.718)"/><path class="b" d="M69.735,47.294l-.771-1.255q-.647.4-1.27.826l.835,1.213Q69.121,47.672,69.735,47.294Z" transform="translate(-55.132 -41.882)"/><path class="b" d="M78.056,42.663q.634-.336,1.287-.64l-.621-1.335q-.688.32-1.356.675l.691,1.3Z" transform="translate(-61.954 -38.107)"/><path class="b" d="M111.142,33.4l-.131-1.467q-.759.068-1.506.174l.207,1.458Q110.422,33.461,111.142,33.4Z" transform="translate(-84.625 -31.929)"/><path class="b" d="M88.178,38.4q.669-.261,1.354-.488l-.463-1.4q-.722.239-1.427.515l.536,1.372Z" transform="translate(-69.203 -35.163)"/><path class="b" d="M98.781,35.353q.694-.182,1.4-.329l-.3-1.442q-.745.154-1.477.346l.374,1.425Z" transform="translate(-76.797 -33.095)"/><path class="b" d="M39.45,78.39,38.2,77.605q-.4.641-.776,1.305l1.285.719Q39.066,79,39.45,78.39Z" transform="translate(-33.782 -64.149)"/><path class="b" d="M26.63,120.243l-1.466-.148q-.076.751-.113,1.512l1.471.072Q26.559,120.956,26.63,120.243Z" transform="translate(-25.052 -94.121)"/><path class="b" d="M27.7,110.645q.118-.713.271-1.414l-1.439-.315q-.162.738-.285,1.49l1.453.24Z" transform="translate(-25.896 -86.236)"/><path class="b" d="M34.422,88.16l-1.328-.637q-.328.684-.621,1.387l1.36.566Q34.11,88.81,34.422,88.16Z" transform="translate(-30.287 -71.145)"/><path class="b" d="M30.577,98.493l-1.393-.479q-.246.715-.455,1.447l1.416.405Q30.344,99.172,30.577,98.493Z" transform="translate(-27.646 -78.545)"/></g><path class="c" d="M67.042,136.819a12.4,12.4,0,0,0-8.866-3.7H46.254a12.563,12.563,0,0,0-12.084,9.164c-.047.167-.063.211-.089.313a28.334,28.334,0,0,0,36.646,16V145.97a12.962,12.962,0,0,0-3.675-9.142Z" transform="translate(2751.887 1416.945)"/><path class="c" d="M96.168,77.354A15.774,15.774,0,1,1,80.395,61.58,15.774,15.774,0,0,1,96.168,77.354Z" transform="translate(2709.379 1452.42)"/><g class="d" transform="translate(2780.365 1510)"><g transform="translate(-8.775 0.382)"><rect class="e" width="45.781" height="28.002" transform="translate(0 0.024)"/><path class="a" d="M321.369,258.431l-13.945,8.588-26.668,16.336v3.1h5.17l40.611-24.9v-3.1l-.829-.024Z" transform="translate(-280.756 -258.431)"/><path class="a" d="M326.537,283.372l-40.5-24.9h-5.285v3.2l40.688,24.806h5.093Z" transform="translate(-280.756 -258.449)"/><path class="a" d="M326.537,284.123H280.756V274.74l45.781.047Z" transform="translate(-280.756 -265.407)"/><path class="a" d="M314.123,258.473v28h7.63l-.039-28Z" transform="translate(-295.028 -258.449)"/><path class="f" d="M326.537,278.088H280.756v5.554l45.781.046Z" transform="translate(-280.756 -266.839)"/><path class="f" d="M343.327,258.431,327.989,267.8h3.51l15.241-9.342-.83-.024Z" transform="translate(-300.96 -258.431)"/><path class="f" d="M321.3,258.473l-.038,28h-4.54l.038-28Z" transform="translate(-296.141 -258.449)"/><path class="f" d="M280.756,258.473l15.2,9.326-3.4,0L280.756,260.5Z" transform="translate(-280.756 -258.449)"/><path class="f" d="M280.756,300.446l15.2-9.31h3.319l-15.069,9.31Z" transform="translate(-280.756 -272.42)"/><path class="f" d="M334.324,291.135l15.126,9.31v-2.123l-11.808-7.187Z" transform="translate(-303.669 -272.42)"/></g></g><path class="a" d="M82.9,67.031a9.139,9.139,0,1,1-9.138-9.139A9.139,9.139,0,0,1,82.9,67.031Z" transform="translate(2730.345 1470.008)"/><path class="g" d="M59.14,180.182a28.2,28.2,0,0,0,18.961,7.29q1.287,0,2.545-.113V171.31H59.14v8.872Z" transform="translate(2734.211 1390.003)"/><path class="g" d="M71.246,133.115H69.93a12.615,12.615,0,0,0-2.285.208v11.044h3.6V133.115Z" transform="translate(2728.211 1416.945)"/><path class="g" d="M115.013,133.324a12.57,12.57,0,0,0-2.288-.209h-1.313v11.252h3.6Z" transform="translate(2697.338 1416.945)"/><g transform="translate(2785.198 1527.163)"><path class="b" d="M65.732,134.548h0l-.01-.01h0a13.134,13.134,0,0,0-6.366-3.572v-.019l-.6-.111c-.07-.013-.142-.022-.213-.034-.1-.016-.19-.032-.286-.046-.119-.017-.239-.032-.359-.046-.091-.011-.182-.023-.274-.032-.135-.013-.271-.022-.407-.031-.078-.005-.156-.012-.234-.016-.215-.01-.431-.016-.649-.016H44.408c-.215,0-.43.006-.643.016-.076,0-.151.011-.227.016-.136.009-.273.017-.408.03-.089.009-.177.02-.266.031-.121.014-.242.028-.361.045-.092.013-.183.029-.275.044s-.16.024-.239.039l-.6.111v.019a13.3,13.3,0,0,0-9.772,9.354v0c-.022.079-.036.125-.05.174s-.029.1-.044.163l-.056.228.086.219a29.084,29.084,0,0,0,7.331,10.7v.006l.243.219c.054.049.111.094.165.143q.3.266.606.523c.105.089.21.178.316.265q.378.309.768.605c.059.045.117.092.176.138q.44.331.893.645l.077.052c.1.066.194.128.29.193.239.16.479.318.723.472.12.076.242.15.364.224q.344.209.693.409c.123.07.247.141.371.21.253.139.508.274.766.406.1.053.207.109.311.161q.544.271,1.1.521l.108.046q.5.222,1.014.425c.122.048.245.094.368.141q.392.149.788.288.209.072.418.142.39.129.785.247c.136.041.27.082.407.121.309.088.62.169.934.247.088.022.176.047.265.068q.6.143,1.213.261c.105.02.212.037.318.056.3.055.611.107.919.153.146.022.293.041.441.06q.413.055.829.1c.153.016.306.031.459.045.29.025.582.045.875.062.135.008.27.018.406.024.427.019.855.03,1.286.03q.679,0,1.351-.032c.158-.007.315-.022.473-.032.263-.016.526-.029.787-.053l.671-.06v-.015a28.873,28.873,0,0,0,7.289-1.794l.468-.183V144.207A13.7,13.7,0,0,0,65.732,134.548Zm-9.4-2.461c.194,0,.388.006.58.015.063,0,.125.009.188.013.128.008.257.017.384.029.077.007.153.017.229.026l.171.022v9.674H55.753v-9.779Zm4.057,25.875-.081.006c-.148.009-.3.023-.444.03-.426.019-.853.03-1.284.03-.409,0-.816-.011-1.221-.029-.129-.006-.257-.015-.385-.022-.278-.016-.556-.035-.832-.059-.145-.013-.29-.027-.434-.042q-.4-.041-.791-.094c-.138-.019-.277-.036-.415-.057-.294-.044-.587-.093-.878-.146-.1-.018-.2-.033-.3-.052q-.581-.112-1.153-.248c-.084-.02-.166-.043-.249-.064-.3-.074-.594-.151-.888-.235-.13-.037-.258-.076-.387-.115q-.373-.112-.742-.233-.2-.067-.4-.136c-.248-.086-.494-.177-.739-.27-.119-.046-.24-.09-.358-.137q-.474-.188-.938-.393l-.127-.054q-.525-.235-1.038-.492c-.1-.052-.207-.107-.311-.161-.239-.123-.477-.248-.711-.378-.121-.067-.24-.135-.36-.2q-.33-.189-.654-.386c-.115-.07-.23-.14-.344-.212-.236-.148-.469-.3-.7-.457-.085-.057-.172-.113-.257-.171q-.473-.326-.932-.67c-.042-.032-.083-.065-.125-.1q-.391-.3-.771-.608c-.1-.078-.189-.159-.284-.238q-.253-.213-.5-.432v-7.8H60.388v14.623ZM54.28,132.087v9.779h-7.82v-9.779Zm-9.293,0v9.779H42.859v-9.675l.182-.023c.076-.009.151-.019.228-.026.125-.012.251-.02.376-.028.063,0,.126-.01.189-.013q.285-.014.574-.014h.579Zm-11.974,8.7.019-.067v0h0a11.78,11.78,0,0,1,3.15-5.288h0a11.791,11.791,0,0,1,5.2-2.944v9.386H38.881v7.876A27.591,27.591,0,0,1,33.013,140.782Zm26.341,1.084v-9.386a11.663,11.663,0,0,1,5.317,3.091h0l.009.01h0a12.224,12.224,0,0,1,3.464,8.626v12.11a27.374,27.374,0,0,1-6.285,1.512V141.867Z" transform="translate(-31.464 -108.454)"/><path class="b" d="M44,143.354h0Z" transform="translate(-40.309 -117.44)"/><path class="b" d="M72,75.142a9.875,9.875,0,1,0-9.875-9.875A9.876,9.876,0,0,0,72,75.142ZM66.054,59.326a8.4,8.4,0,1,1-2.461,5.941A8.374,8.374,0,0,1,66.054,59.326Z" transform="translate(-53.089 -55.392)"/></g><g transform="translate(2825.146 1532.266)"><path class="g" d="M181.055,93.337h-5.6a5.892,5.892,0,0,1-5.892-5.892V75.214h17.381V87.445A5.892,5.892,0,0,1,181.055,93.337Z" transform="translate(-168.83 -74.477)"/><path class="c" d="M175.458,122.624h5.6a5.892,5.892,0,0,0,5.892-5.892H169.566A5.892,5.892,0,0,0,175.458,122.624Z" transform="translate(-168.83 -103.764)"/><rect class="c" width="3.633" height="20.941" transform="translate(7.611 18.86)"/><path class="b" d="M167.066,72.714V85.682a6.629,6.629,0,0,0,6.629,6.629h.246v20.941h5.106V92.31h.245a6.629,6.629,0,0,0,6.628-6.629V72.714Zm4.468,1.473V81.41h1.473V74.187h2.749V81.41h1.473V74.187h2.75V81.41h1.473V74.187h2.995V84.946H168.539V74.187Zm6.039,37.591h-2.16V92.31h2.16Zm5.364-22.451a5.137,5.137,0,0,1-3.645,1.51h-5.6a5.143,5.143,0,0,1-5.1-4.419h15.791A5.139,5.139,0,0,1,182.938,89.327Z" transform="translate(-167.066 -72.714)"/></g></g><g transform="translate(2771 1508)"><rect class="h" width="76" height="76"/></g></g></svg>