<svg xmlns="http://www.w3.org/2000/svg" width="90.667" height="90.667" viewBox="0 0 90.667 90.667"><defs><style>.a{fill:none;}.b{fill:#ffe01b;}</style></defs><path class="a" d="M0,0H90.667V90.667H0Z"/><circle class="b" cx="5.667" cy="5.667" r="5.667" transform="translate(28.333 26.444)"/><path class="b" d="M4.34,20.472H39.549c-3.173-2.191-10.842-4.722-17.6-4.722S7.513,18.281,4.34,20.472Z" transform="translate(12.056 43.75)"/><path d="M28.444,31.444A13.222,13.222,0,1,0,15.222,18.222,13.237,13.237,0,0,0,28.444,31.444Zm0-18.889a5.667,5.667,0,1,1-5.667,5.667A5.659,5.659,0,0,1,28.444,12.556Zm0,25.5C19.6,38.056,2,42.476,2,51.278v6.611H54.889V51.278C54.889,42.476,37.284,38.056,28.444,38.056ZM10.84,50.333c3.173-2.191,10.842-4.722,17.6-4.722s14.431,2.531,17.6,4.722Zm44.2-12.051c4.382,3.173,7.4,7.4,7.4,13v6.611H77.556V51.278C77.556,43.647,64.333,39.3,55.04,38.282Zm-3.929-6.838A13.222,13.222,0,1,0,51.111,5a13.016,13.016,0,0,0-5.667,1.322,20.631,20.631,0,0,1,0,23.8A13.016,13.016,0,0,0,51.111,31.444Z" transform="translate(5.556 13.889)"/></svg>