<svg xmlns="http://www.w3.org/2000/svg" width="50" height="50" viewBox="0 0 50 50"><defs><style>.a{fill:#fff;}.b{fill:#0b093f;}</style></defs><g transform="translate(-1017 -518)"><path class="a" d="M0,0H50V50H0Z" transform="translate(1017 518)"/><path class="b" d="M1585.859,1189.592V1180.9a9.421,9.421,0,0,0-5.4-8.543,4.105,4.105,0,0,0,.042-.561,3.895,3.895,0,1,0-7.788,0,4.067,4.067,0,0,0,.042.561,9.421,9.421,0,0,0-5.4,8.543v8.695a2.466,2.466,0,0,0,1.2,4.6h4.955a3.136,3.136,0,0,0,6.2,0h4.955a2.466,2.466,0,0,0,1.2-4.6Zm-12.119-17.8a2.864,2.864,0,1,1,5.727,0c0,.053-.007.106-.01.159a9.035,9.035,0,0,0-5.708,0C1573.748,1171.9,1573.74,1171.846,1573.74,1171.793Zm-5.361,17.464v-8.36a8.226,8.226,0,1,1,16.449,0v8.36H1568.38Zm8.225,6.563a2.128,2.128,0,0,1-2.055-1.629h4.109A2.128,2.128,0,0,1,1576.6,1195.82Zm8.057-2.677h-16.114a1.42,1.42,0,0,1,0-2.839h16.114a1.42,1.42,0,0,1,0,2.839Z" transform="translate(-534.604 -639.351)"/></g></svg>