<svg xmlns="http://www.w3.org/2000/svg" xmlns:xlink="http://www.w3.org/1999/xlink" width="76" height="76" viewBox="0 0 76 76"><defs><style>.a{fill:#fff;}.b{fill:none;}.c{clip-path:url(#a);}.d{fill:#dd2911;}.e{fill:#fedd19;}.f{fill:#ff5466;}.g{fill:#091f3a;}</style><clipPath id="a"><rect class="a" width="33.979" height="33.979" rx="16.99"/></clipPath></defs><g transform="translate(-325 -1732)"><g transform="translate(325 1732)"><rect class="b" width="76" height="76"/></g><g transform="translate(40 0)"><g class="c" transform="translate(288 1737)"><rect class="d" width="55.102" height="33.816" transform="translate(-2.544)"/><g transform="translate(2.788 5.139)"><path class="e" d="M286.5,354.745h3.756l1.177-3.458,1.176,3.523H296.3l-3.005,2.125,1.241,3.426-3.07-2.093-3.071,2.219,1.111-3.521Z" transform="translate(-286.497 -349.82)"/><path class="e" d="M305.441,351.207l-1.219.253.86-.836-.665-1.151,1.089.508.849-.823-.13,1.1,1.2.488-1.219.3-.111,1.226Z" transform="translate(-292.014 -349.157)"/><path class="e" d="M308.933,355.732l1.089-.508-.175-1.247.894.866,1.111-.529-.546,1.059.849.91-1.263-.213-.566,1.078-.153-1.184Z" transform="translate(-293.48 -350.657)"/><path class="e" d="M309.029,362.337h1.218l.327-1.269.456,1.163h1.2l-.894.677.37,1.164-1.045-.655-1.025.782.373-1.185Z" transform="translate(-293.51 -352.864)"/><path class="e" d="M305.471,367.1l.829-.932v1.228l1.022.422-1.131.338v1.186l-.741-.973-1.2.3.741-.952-.609-.994Z" transform="translate(-292.023 -354.451)"/></g></g><g transform="translate(291 1737)"><g transform="translate(0 0)"><g transform="translate(0)"><path class="f" d="M593.223,350s-14.616,10.468-25.607,9.928c-10.455-.513,13.608,6.3,20.935,6.3s24.075-1.05,30.356-4.2-6.281-2.1-6.281-2.1-17.186-6.025-19.522-9.771" transform="translate(-559.715 -345.333)"/><path class="f" d="M579.667,378s-1.047,2.094-12.038,3.648c-10.364,1.466,9.944,5.773,17.272,5.773s29.309.008,35.59-3.14-7.851-2.633-7.851-2.633A7.06,7.06,0,0,1,606.882,378" transform="translate(-559.728 -344.024)"/><g transform="translate(0 0)"><path class="g" d="M573.256,403.371h6.536a.817.817,0,0,0,0-1.634h-6.536a.817.817,0,1,0,0,1.634Z" transform="translate(-559.368 -342.914)"/><path class="g" d="M604.476,403.371h6.536a.817.817,0,1,0,0-1.634h-6.536a.817.817,0,0,0,0,1.634Z" transform="translate(-557.908 -342.914)"/><path class="g" d="M614.425,404.859H601.353a.817.817,0,0,0,0,1.634h13.072a.817.817,0,1,0,0-1.634Z" transform="translate(-558.054 -342.768)"/><path class="g" d="M583.206,404.859H570.135a.817.817,0,1,0,0,1.634h13.072a.817.817,0,0,0,0-1.634Z" transform="translate(-559.514 -342.768)"/><path class="g" d="M582.622,381.518h19.607a.817.817,0,0,0,.818-.818.83.83,0,0,0-.872-.816H582.567a.807.807,0,0,0-.762.816A.817.817,0,0,0,582.622,381.518Z" transform="translate(-558.93 -343.936)"/><path class="g" d="M626.127,410.9h-5.719v-8.986a.816.816,0,0,0-.818-.816h-2.451V387.871a32.781,32.781,0,0,0,7.712-3.733l1.728-1.151a.817.817,0,0,0-.651-1.473l-4.2,1.048a15.409,15.409,0,0,1-14.332-3.826V366.487a32.7,32.7,0,0,0,14.183-5.223l1.728-1.153a.774.774,0,0,0,.228-.994.883.883,0,0,0-1.01-.447,26.251,26.251,0,0,1-22.649-4.942l-5.617-4.494v-2.874a.817.817,0,1,0-1.634,0v2.874l-5.617,4.494a26.336,26.336,0,0,1-22.785,4.91.816.816,0,0,0-.646,1.473l1.728,1.153a32.7,32.7,0,0,0,14.247,5.224v12.192a15.418,15.418,0,0,1-14.4,3.882l-4.2-1.048a.817.817,0,0,0-.651,1.473l1.728,1.151a32.713,32.713,0,0,0,7.711,3.729V401.1H567.3a.816.816,0,0,0-.818.816V410.9h-5.718a.817.817,0,0,0,0,1.634h65.359a.817.817,0,1,0,0-1.634Zm-10.62-9.8h-1.634V388.763c.544-.124,1.1-.215,1.634-.366Zm-8.17,0V389.606a32.828,32.828,0,0,0,4.9-.478V401.1Zm-7.354-3.268a.816.816,0,0,0-.817.816V410.9H587.729V398.646a.817.817,0,0,0-1.634,0V401.1h-1.561a8.943,8.943,0,0,1,17.819,0H600.8v-2.452A.816.816,0,0,0,599.983,397.83ZM574.657,401.1V389.121a33.408,33.408,0,0,0,4.9.479v11.5Zm6.536-11.438h1.634V401.1h-1.634Zm21.242,0v6.6a10.675,10.675,0,0,0-9.084-4.964,10.5,10.5,0,0,0-8.89,4.948V389.66Zm1.634,0H605.7V401.1h-1.634Zm-19.608-11.438v-8.17h17.974v8.17Zm17.974-11.438v1.634H584.461v-1.634Zm3.333,11.438h-1.7v-11.49c.57-.013,1.133-.084,1.7-.126ZM588.036,355l5.413-4.33L598.86,355a27.961,27.961,0,0,0,20.184,5.918,31.267,31.267,0,0,1-15.793,4.227h-19.7a31.125,31.125,0,0,1-15.671-4.214A27.881,27.881,0,0,0,588.036,355Zm-5.209,11.72v11.5h-1.634V366.606C581.738,366.646,582.277,366.712,582.827,366.724Zm-2.118,13.132h25.551a17.118,17.118,0,0,0,15.125,4.46,31.279,31.279,0,0,1-14.867,3.71H580.279a31.133,31.133,0,0,1-14.77-3.71A17.113,17.113,0,0,0,580.709,379.856Zm-9.32,8.537c.537.15,1.09.241,1.634.364V401.1h-1.634ZM568.121,410.9v-8.169h17.974V410.9Zm32.68,0v-8.169h17.974V410.9Z" transform="translate(-559.952 -345.542)"/><path class="g" d="M606.461,361.97a.817.817,0,0,0-.817-.818H579.5a.817.817,0,1,0,0,1.634h26.143A.816.816,0,0,0,606.461,361.97Z" transform="translate(-559.076 -344.812)"/><path class="g" d="M585.745,359.664h13.071a.817.817,0,1,0,0-1.634H585.745a.817.817,0,1,0,0,1.634Z" transform="translate(-558.784 -344.958)"/><path class="g" d="M588.866,356.542H595.4a.817.817,0,1,0,0-1.634h-6.535a.817.817,0,1,0,0,1.634Z" transform="translate(-558.638 -345.104)"/><path class="g" d="M605.643,384.64a.817.817,0,1,0,0-1.634H579.5a.817.817,0,1,0,0,1.634Z" transform="translate(-559.076 -343.79)"/></g></g></g></g></g></g></svg>