<svg xmlns="http://www.w3.org/2000/svg" width="42" height="42" viewBox="0 0 42 42"><defs><style>.a{fill:rgba(194,168,240,0.9);}.b,.c{fill:none;stroke:#31305d;stroke-width:1.3px;}.c{stroke-linecap:square;}</style></defs><g transform="translate(-312.057 -886.1)"><rect class="a" width="42" height="42" rx="8" transform="translate(312.057 886.1)"/><g transform="translate(319.508 898.293)"><path class="b" d="M469.248,285.1H441.474V267.2" transform="translate(-441.474 -267.204)"/><path class="c" d="M505.007,272.764v-1.951h-1.951" transform="translate(-480.157 -269.452)"/><path class="b" d="M446.1,285.121l9.6-9.741,4.967,5.039,8.009-8.125" transform="translate(-444.354 -270.375)"/><line class="c" y2="0.613" transform="translate(3.856 15.372)"/><line class="c" y2="2.714" transform="translate(6.325 13.27)"/><line class="c" y2="5.309" transform="translate(8.838 10.676)"/><line class="c" y2="7.512" transform="translate(11.352 8.473)"/><line class="c" y2="5.309" transform="translate(13.865 10.676)"/><line class="c" y2="3.652" transform="translate(16.379 12.333)"/><line class="c" y2="5.309" transform="translate(18.892 10.676)"/><line class="c" y2="7.512" transform="translate(21.406 8.473)"/><line class="c" y2="10.277" transform="translate(23.874 5.708)"/></g></g></svg>