<svg xmlns="http://www.w3.org/2000/svg" width="76" height="76" viewBox="0 0 76 76"><defs><style>.a{fill:none;}.b{fill:#7fcdd7;}.c{fill:#091f3a;}.d{fill:#33ad88;}</style></defs><g transform="translate(-1962 -1246)"><g transform="translate(1962 1246)"><rect class="a" width="76" height="76"/></g><g transform="translate(259 -7033)"><circle class="b" cx="13.334" cy="13.334" r="13.334" transform="translate(1708 8282)"/><g transform="translate(1717.167 8295.336)"><g transform="translate(0 0)"><path class="c" d="M166.766,127.359H116.4a3.151,3.151,0,0,0-3.148,3.147v43.5a3.15,3.15,0,0,0,3.148,3.147h14.022v5.151h-6.01a.859.859,0,0,0,0,1.718h34.342a.859.859,0,1,0,0-1.718h-6.01v-5.151h1.338a.859.859,0,1,0,0-1.718H116.4a1.432,1.432,0,0,1-1.432-1.43v-3.721h15.167a.859.859,0,0,0,0-1.718H114.967V130.506a1.434,1.434,0,0,1,1.432-1.432h50.366a1.434,1.434,0,0,1,1.432,1.432v38.063h-7.153a.859.859,0,0,0,0,1.718H168.2v3.721a1.432,1.432,0,0,1-1.432,1.43h-3.8a.859.859,0,0,0,0,1.718h3.8a3.15,3.15,0,0,0,3.148-3.147v-43.5A3.151,3.151,0,0,0,166.766,127.359Zm-34.626,49.8h18.887v5.151H132.139Z" transform="translate(-113.251 -127.359)"/><g transform="translate(17.826 29.763)"><path class="c" d="M137.182,152.642a.855.855,0,0,0-.931.168l-7.637,7.324a.858.858,0,0,0,0,1.237l7.637,7.324a.86.86,0,0,0,1.454-.621v-3.207h.048c11.872,0,17.436,7.314,17.492,7.39a.858.858,0,0,0,.691.346.835.835,0,0,0,.37-.083.857.857,0,0,0,.462-.989c-3.382-13.024-15.661-14.674-19.062-14.879v-3.22A.857.857,0,0,0,137.182,152.642Zm16.678,15.84a25.108,25.108,0,0,0-16.078-5.334c-.316,0-.637.007-.961.014a.863.863,0,0,0-.835.859v2.041l-5.535-5.31,5.535-5.31v2.038a.873.873,0,0,0,.259.616.758.758,0,0,0,.621.244C137.379,158.318,149.04,158.223,153.86,168.482Z" transform="translate(-128.351 -152.571)"/></g><g transform="translate(10.303 9.158)"><path class="c" d="M157.178,135.117H122.836a.858.858,0,0,0-.857.858V158.87a.858.858,0,0,0,.857.858h6.9a.858.858,0,1,0,0-1.715h-4.72L135.1,148.6l4.319,4.033a.861.861,0,0,0,1.172,0l4.319-4.033L155,158.013h-6.948a.858.858,0,1,0,0,1.715h9.126a.86.86,0,0,0,.859-.858V135.975A.86.86,0,0,0,157.178,135.117ZM123.7,156.894V137.951l10.148,9.471Zm16.311-6.068-14.992-13.991H155Zm16.313,6.068-10.149-9.471,10.149-9.471Z" transform="translate(-121.979 -135.117)"/></g></g><path class="d" d="M124.55,136.572h29.986l-14.994,13.991Z" transform="translate(-111.211 -125.696)"/><rect class="b" width="18.887" height="5.151" transform="translate(18.888 49.796)"/></g></g></g></svg>