<?xml version="1.0" encoding="utf-8"?>
<!-- Generator: Adobe Illustrator 23.1.1, SVG Export Plug-In . SVG Version: 6.00 Build 0)  -->
<svg version="1.1" id="Layer_1" xmlns="http://www.w3.org/2000/svg" xmlns:xlink="http://www.w3.org/1999/xlink" x="0px" y="0px"
	 viewBox="0 0 76 76" style="enable-background:new 0 0 76 76;" xml:space="preserve">
<style type="text/css">
	.st0{opacity:0;}
	.st1{fill:#7FCDD7;}
	.st2{fill:#33AD88;}
</style>
<g transform="translate(-1377 -1314)">
	<g transform="translate(1377 1314)" class="st0">
		<rect width="76" height="76"/>
	</g>
	<g transform="translate(3.393 -4)">
		<circle class="st1" cx="1394.8" cy="1333.8" r="12.8"/>
		<path class="st1" d="M1398.9,1374.2l-15.2,14.2h54.7l-14.3-14.2H1398.9z"/>
		<path class="st2" d="M1383.1,1360.1v28.2l15.8-14.5L1383.1,1360.1z"/>
		<path class="st2" d="M1440.5,1358.3v30l-15.8-15.4L1440.5,1358.3z"/>
		<path d="M1441.6,1358.6c0-0.4-0.1-0.7-0.3-1.1l0,0c-0.3-0.6-0.7-1.1-1.2-1.5l-7.2-5.9v-5.7c0-2.2-1.8-4-4-4h-7.9l-6.9-5.7
			c-1.5-1.2-3.6-1.2-5.1,0l-6.9,5.7h-7.9c-2.2,0-4,1.8-4,4v5.7l-7.1,5.8c-0.5,0.4-0.9,0.9-1.2,1.5v0.1c-0.2,0.5-0.3,1-0.3,1.6v28
			c0,1,0.4,2,1.1,2.8l0,0c0.7,0.7,1.8,1.1,2.8,1.1h52c1,0,2-0.4,2.8-1.1l0,0c0.7-0.7,1.1-1.8,1.1-2.8v-28
			C1441.5,1358.9,1441.6,1358.7,1441.6,1358.6z M1432.9,1353.5l5.3,4.3l-5.3,5.2V1353.5z M1410.7,1336.8c0.5-0.4,1.2-0.4,1.7,0
			l4.4,3.6h-10.5L1410.7,1336.8z M1392.9,1344.4c0-0.7,0.6-1.3,1.3-1.3h34.6c0.7,0,1.3,0.6,1.3,1.3v21.2l-0.1,0.1l-6.8,6.7h-23.4
			l-6.8-6.7l-0.1-0.1V1344.4z M1390.3,1353.5v9.5l-5.3-5.2L1390.3,1353.5z M1384.3,1386.5v-25.6l13.1,12.8L1384.3,1386.5z
			 M1386.2,1388.3l13.7-13.3h23.4l13.7,13.3L1386.2,1388.3z M1438.9,1386.5l-13.1-12.9l13.1-12.8L1438.9,1386.5z M1411.6,1369.7
			c1.6,0,3.1-0.3,4.5-0.9c0.7-0.3,1-1.1,0.7-1.7s-1.1-1-1.7-0.7c-1.1,0.5-2.3,0.7-3.5,0.7c-1.7,0-3.4-0.5-4.8-1.3
			c-4.4-2.6-5.8-8.4-3.2-12.8c2.6-4.4,8.4-5.8,12.8-3.2c2.8,1.7,4.5,4.7,4.5,8v0.7c0,1.1-0.9,2-2,2c-1.1,0-2-0.9-2-2v-0.7
			c0-2.9-2.4-5.3-5.3-5.3s-5.3,2.4-5.3,5.3s2.4,5.3,5.3,5.3l0,0c1.4,0,2.8-0.6,3.8-1.6c1.7,1.9,4.6,2.1,6.6,0.5
			c1-0.9,1.6-2.2,1.6-3.5v-0.7c-0.1-6.6-5.5-11.9-12.1-11.9c-6.5,0.1-11.8,5.3-11.9,11.9c0,2.9,1.1,5.8,3.1,8
			C1405,1368.2,1408.2,1369.7,1411.6,1369.7z M1411.6,1360.4c-1.5,0-2.7-1.2-2.7-2.7c0-1.5,1.2-2.7,2.7-2.7c1.5,0,2.7,1.2,2.7,2.7
			C1414.2,1359.2,1413.1,1360.4,1411.6,1360.4L1411.6,1360.4z"/>
	</g>
</g>
</svg>
