<svg xmlns="http://www.w3.org/2000/svg" width="62" height="62" viewBox="0 0 62 62"><defs><style>.a{fill:rgba(194,168,240,0.9);opacity:0.497;}.b,.c{fill:none;stroke:#fff;stroke-width:1.8px;}.c{stroke-linecap:square;}</style></defs><g transform="translate(-526.057 -886.1)"><rect class="a" width="62" height="62" rx="8" transform="translate(526.057 886.1)"/><g transform="translate(537.057 904.099)"><path class="b" d="M482.473,293.628h-41V267.2" transform="translate(-441.474 -267.204)"/><path class="c" d="M505.936,273.693v-2.881h-2.881" transform="translate(-469.253 -268.803)"/><path class="b" d="M446.1,291.229l14.175-14.379,7.333,7.439,11.823-11.993" transform="translate(-443.524 -269.46)"/><line class="c" y2="0.905" transform="translate(5.692 22.692)"/><line class="c" y2="4.007" transform="translate(9.336 19.589)"/><line class="c" y2="7.837" transform="translate(13.047 15.759)"/><line class="c" y2="11.089" transform="translate(16.757 12.508)"/><line class="c" y2="7.837" transform="translate(20.468 15.759)"/><line class="c" y2="5.39" transform="translate(24.178 18.206)"/><line class="c" y2="7.837" transform="translate(27.889 15.759)"/><line class="c" y2="11.089" transform="translate(31.599 12.508)"/><line class="c" y2="15.171" transform="translate(35.243 8.426)"/></g></g></svg>