<svg xmlns="http://www.w3.org/2000/svg" xmlns:xlink="http://www.w3.org/1999/xlink" width="76" height="76" viewBox="0 0 76 76"><defs><style>.a{fill:#fff;}.b{fill:none;}.c{clip-path:url(#a);}.d{fill:#04247b;}.e{fill:#ce142a;}.f{fill:#f98a10;}.g{fill:#091f3a;}</style><clipPath id="a"><rect class="a" width="28.26" height="28.26" rx="14.13"/></clipPath></defs><g transform="translate(-327 -1231)"><g transform="translate(327 1231)"><rect class="b" width="76" height="76"/></g><g transform="translate(81 -11)"><g class="c" transform="translate(249 1248)"><g transform="translate(-8.784 0.382)"><rect class="d" width="45.827" height="28.03" transform="translate(0 0.024)"/><path class="a" d="M321.41,258.431l-13.959,8.6-26.7,16.352v3.105h5.175l40.652-24.923v-3.106l-.83-.024Z" transform="translate(-280.756 -258.431)"/><path class="a" d="M326.583,283.4l-40.537-24.924h-5.29v3.2l40.729,24.83h5.1Z" transform="translate(-280.756 -258.449)"/><path class="a" d="M326.583,284.132H280.756V274.74l45.827.047Z" transform="translate(-280.756 -265.398)"/><path class="a" d="M314.123,258.473V286.5h7.638l-.039-28.03Z" transform="translate(-295.009 -258.449)"/><path class="e" d="M326.583,278.088H280.756v5.559l45.827.046Z" transform="translate(-280.756 -266.828)"/><path class="e" d="M343.343,258.431l-15.354,9.375H331.5l15.256-9.351-.831-.024Z" transform="translate(-300.932 -258.431)"/><path class="e" d="M321.306,258.473l-.038,28.03h-4.544l.038-28.03Z" transform="translate(-296.12 -258.449)"/><path class="e" d="M280.756,258.473l15.219,9.335-3.4,0-11.82-7.3Z" transform="translate(-280.756 -258.449)"/><path class="e" d="M280.756,300.455l15.219-9.319H299.3l-15.085,9.319Z" transform="translate(-280.756 -272.401)"/><path class="e" d="M334.324,291.135l15.141,9.319V298.33l-11.819-7.194Z" transform="translate(-303.638 -272.401)"/></g></g><rect class="f" width="18" height="18" transform="translate(299.958 1262.264)"/><path class="f" d="M619,265.252H608l2-3h7Z" transform="translate(-304.042 997.137)"/><circle class="a" cx="6" cy="6" r="6" transform="translate(303.958 1265.243)"/><path class="f" d="M621,286.252H607l-2-3h17Z" transform="translate(-304.042 996.799)"/><g transform="translate(257 1249)"><path class="g" d="M621.2,263.837h-2.712l-2.581-2.581v-2.712a1.355,1.355,0,0,0-.08-.338l-3.024-6.049a.716.716,0,0,0-1.352,0l-3.024,6.049a1.4,1.4,0,0,0-.079.338v2.712l-2.582,2.581h-2.711a.756.756,0,0,0-.756.757V282.74a.753.753,0,0,0,.221.534l2.8,2.8v4.979h-7.561v-2.269a.756.756,0,0,0-1.512,0v2.269h-7.561v-2.269a.756.756,0,0,0-1.512,0v2.269H579.61V279.716a.77.77,0,0,0-.079-.338l-3.024-6.049a.788.788,0,0,0-1.352,0l-3.024,6.049a.759.759,0,0,0-.08.338v8.317h-4.537v-8.317a.771.771,0,0,0-.079-.338l-3.024-6.049a.788.788,0,0,0-1.352,0l-3.024,6.049a.757.757,0,0,0-.079.338v33.268a.756.756,0,0,0,.756.757h57.463a.758.758,0,0,0,.757-.757V286.077l2.8-2.8a.754.754,0,0,0,.222-.534V264.593A.757.757,0,0,0,621.2,263.837ZM606.83,286.52h10.586v7.561H606.83Zm0,9.073h10.586v7.561H606.83Zm11.028-10.586H606.386l-1.512-1.512h14.5Zm-5.736-30.822,1.8,3.6h-3.6Zm-2.268,5.114h4.537v1.512h-4.537Zm-.444,3.024h5.423l1.512,1.512H607.9Zm-5.605,3.024H620.44v16.634H603.805Zm-42.342,14.545,2.269-4.537L566,279.894v8.138h-2.268a.756.756,0,1,0,0,1.512h12.1a.756.756,0,0,0,0-1.512h-2.269v-8.138l2.269-4.537,2.268,4.537v32.334H561.463Zm18.147,12.675h25.708v19.659H579.61Zm27.22,19.659v-7.561h10.586v7.561Z" transform="translate(-559.952 -251.677)"/><path class="g" d="M613.8,281.4a7.024,7.024,0,1,0-7.024-7.024A7.034,7.034,0,0,0,613.8,281.4Zm0-12.488a5.464,5.464,0,1,1-5.463,5.464A5.471,5.471,0,0,1,613.8,268.912Z" transform="translate(-561.952 -252.305)"/><path class="g" d="M613.8,275.156h3.122a.781.781,0,1,0,0-1.561h-2.341v-2.341a.78.78,0,1,0-1.561,0v3.122A.78.78,0,0,0,613.8,275.156Z" transform="translate(-561.952 -252.311)"/><path class="g" d="M610.683,307.937a.78.78,0,0,0-.78.78v3.122a.78.78,0,1,0,1.561,0v-3.122A.781.781,0,0,0,610.683,307.937Z" transform="translate(-561.552 -253.679)"/><path class="g" d="M616.927,307.937a.78.78,0,0,0-.78.78v3.122a.781.781,0,1,0,1.561,0v-3.122A.781.781,0,0,0,616.927,307.937Z" transform="translate(-561.952 -253.679)"/><path class="g" d="M610.683,298.571a.78.78,0,0,0-.78.78v3.122a.78.78,0,1,0,1.561,0v-3.122A.781.781,0,0,0,610.683,298.571Z" transform="translate(-561.552 -253.258)"/><path class="g" d="M616.927,298.571a.78.78,0,0,0-.78.78v3.122a.781.781,0,1,0,1.561,0v-3.122A.781.781,0,0,0,616.927,298.571Z" transform="translate(-561.952 -253.258)"/><path class="g" d="M610.683,289.2a.78.78,0,0,0-.78.78v3.122a.78.78,0,1,0,1.561,0v-3.122A.781.781,0,0,0,610.683,289.2Z" transform="translate(-561.552 -252.942)"/><path class="g" d="M616.927,289.2a.78.78,0,0,0-.78.78v3.122a.781.781,0,1,0,1.561,0v-3.122A.781.781,0,0,0,616.927,289.2Z" transform="translate(-561.952 -252.942)"/><path class="g" d="M604.439,301.693H582.586a.781.781,0,1,0,0,1.561h21.853a.781.781,0,1,0,0-1.561Z" transform="translate(-561.029 -253.279)"/><path class="g" d="M604.439,304.815H582.586a.781.781,0,1,0,0,1.561h21.853a.781.781,0,1,0,0-1.561Z" transform="translate(-561.029 -253.679)"/><path class="g" d="M576.342,307.937H563.854a.78.78,0,1,0,0,1.561h12.488a.78.78,0,0,0,0-1.561Z" transform="translate(-559.952 -253.679)"/><path class="g" d="M576.342,298.571H563.854a.78.78,0,1,0,0,1.561h12.488a.78.78,0,0,0,0-1.561Z" transform="translate(-559.952 -253.179)"/><path class="g" d="M582.586,300.132a.78.78,0,0,0,.78-.781v-3.122a.781.781,0,0,0-1.561,0v3.122A.78.78,0,0,0,582.586,300.132Z" transform="translate(-560.652 -253.153)"/><path class="g" d="M585.708,300.132a.78.78,0,0,0,.78-.781v-3.122a.78.78,0,0,0-1.561,0v3.122A.78.78,0,0,0,585.708,300.132Z" transform="translate(-560.752 -253.153)"/><path class="g" d="M588.83,300.132a.781.781,0,0,0,.78-.781v-3.122a.78.78,0,0,0-1.561,0v3.122A.78.78,0,0,0,588.83,300.132Z" transform="translate(-560.852 -253.153)"/><path class="g" d="M591.952,300.132a.781.781,0,0,0,.78-.781v-3.122a.78.78,0,0,0-1.561,0v3.122A.781.781,0,0,0,591.952,300.132Z" transform="translate(-560.952 -253.153)"/><path class="g" d="M595.073,300.132a.781.781,0,0,0,.781-.781v-3.122a.78.78,0,0,0-1.561,0v3.122A.781.781,0,0,0,595.073,300.132Z" transform="translate(-561.052 -253.153)"/><path class="g" d="M598.2,300.132a.781.781,0,0,0,.781-.781v-3.122a.781.781,0,0,0-1.561,0v3.122A.781.781,0,0,0,598.2,300.132Z" transform="translate(-561.152 -253.153)"/><path class="g" d="M601.317,300.132a.781.781,0,0,0,.781-.781v-3.122a.781.781,0,0,0-1.561,0v3.122A.781.781,0,0,0,601.317,300.132Z" transform="translate(-561.252 -253.153)"/><path class="g" d="M604.439,295.449a.78.78,0,0,0-.78.78v3.122a.78.78,0,1,0,1.561,0v-3.122A.781.781,0,0,0,604.439,295.449Z" transform="translate(-561.352 -253.153)"/><path class="g" d="M582.586,307.937a.78.78,0,0,0-.781.78v3.122a.781.781,0,1,0,1.561,0v-3.122A.78.78,0,0,0,582.586,307.937Z" transform="translate(-560.652 -253.679)"/><path class="g" d="M585.708,307.937a.78.78,0,0,0-.781.78v3.122a.78.78,0,1,0,1.561,0v-3.122A.78.78,0,0,0,585.708,307.937Z" transform="translate(-560.752 -253.679)"/><path class="g" d="M588.83,307.937a.78.78,0,0,0-.781.78v3.122a.78.78,0,1,0,1.561,0v-3.122A.781.781,0,0,0,588.83,307.937Z" transform="translate(-560.852 -253.679)"/><path class="g" d="M591.952,307.937a.781.781,0,0,0-.781.78v3.122a.78.78,0,1,0,1.561,0v-3.122A.781.781,0,0,0,591.952,307.937Z" transform="translate(-560.952 -253.679)"/><path class="g" d="M595.073,307.937a.781.781,0,0,0-.78.78v3.122a.78.78,0,1,0,1.561,0v-3.122A.781.781,0,0,0,595.073,307.937Z" transform="translate(-561.052 -253.679)"/><path class="g" d="M598.2,307.937a.781.781,0,0,0-.78.78v3.122a.781.781,0,1,0,1.561,0v-3.122A.781.781,0,0,0,598.2,307.937Z" transform="translate(-561.152 -253.679)"/><path class="g" d="M601.317,307.937a.781.781,0,0,0-.78.78v3.122a.781.781,0,1,0,1.561,0v-3.122A.781.781,0,0,0,601.317,307.937Z" transform="translate(-561.252 -253.679)"/><path class="g" d="M604.439,307.937a.78.78,0,0,0-.78.78v3.122a.78.78,0,1,0,1.561,0v-3.122A.781.781,0,0,0,604.439,307.937Z" transform="translate(-561.352 -253.679)"/><path class="g" d="M563.854,297.01a.78.78,0,0,0,.78-.781v-3.122a.78.78,0,0,0-1.561,0v3.122A.781.781,0,0,0,563.854,297.01Z" transform="translate(-559.952 -253.048)"/><path class="g" d="M566.976,297.01a.78.78,0,0,0,.78-.781v-3.122a.78.78,0,0,0-1.561,0v3.122A.781.781,0,0,0,566.976,297.01Z" transform="translate(-559.952 -253.048)"/><path class="g" d="M570.1,297.01a.78.78,0,0,0,.78-.781v-3.122a.78.78,0,0,0-1.561,0v3.122A.78.78,0,0,0,570.1,297.01Z" transform="translate(-559.952 -253.048)"/><path class="g" d="M573.22,297.01a.78.78,0,0,0,.78-.781v-3.122a.78.78,0,0,0-1.561,0v3.122A.78.78,0,0,0,573.22,297.01Z" transform="translate(-560.352 -253.048)"/><path class="g" d="M576.342,292.327a.78.78,0,0,0-.781.78v3.122a.781.781,0,1,0,1.561,0v-3.122A.78.78,0,0,0,576.342,292.327Z" transform="translate(-560.452 -253.048)"/><path class="g" d="M563.854,306.376a.78.78,0,0,0,.78-.781v-3.122a.78.78,0,0,0-1.561,0V305.6A.781.781,0,0,0,563.854,306.376Z" transform="translate(-559.952 -253.679)"/><path class="g" d="M567.756,305.6v-3.122a.78.78,0,0,0-1.561,0V305.6a.78.78,0,1,0,1.561,0Z" transform="translate(-559.952 -253.679)"/><path class="g" d="M570.878,305.6v-3.122a.78.78,0,0,0-1.561,0V305.6a.78.78,0,1,0,1.561,0Z" transform="translate(-559.952 -253.679)"/><path class="g" d="M574,305.6v-3.122a.78.78,0,0,0-1.561,0V305.6a.78.78,0,1,0,1.561,0Z" transform="translate(-560.352 -253.679)"/><path class="g" d="M576.342,301.693a.78.78,0,0,0-.781.78V305.6a.781.781,0,1,0,1.561,0v-3.122A.78.78,0,0,0,576.342,301.693Z" transform="translate(-560.452 -253.679)"/><path class="g" d="M576.342,311.059H563.854a.781.781,0,1,0,0,1.561h12.488a.781.781,0,0,0,0-1.561Z" transform="translate(-559.952 -253.679)"/></g></g></g></svg>