<svg xmlns="http://www.w3.org/2000/svg" xmlns:xlink="http://www.w3.org/1999/xlink" width="76" height="76" viewBox="0 0 76 76"><defs><style>.a{fill:#fff;}.b{fill:none;}.c{clip-path:url(#a);}.d{fill:#009246;}.e{fill:#ce2b37;}.f{fill:#02c09d;fill-rule:evenodd;}.g{fill:#091f3a;}</style><clipPath id="a"><rect class="a" width="29.439" height="29.439" rx="14.719" transform="translate(0 0)"/></clipPath></defs><g transform="translate(-468 -1500)"><g transform="translate(468 1500)"><rect class="b" width="76" height="76"/></g><g transform="translate(80 0)"><g class="c" transform="translate(393 1506)"><g transform="translate(-9.15 0.014)"><rect class="d" width="15.791" height="29.425" transform="translate(0 0)"/><rect class="e" width="16.004" height="29.425" transform="translate(31.689 0)"/><rect class="a" width="15.898" height="29.425" transform="translate(15.791 0)"/></g></g><g transform="translate(399.91 1512)"><path class="f" d="M602.9,609.321h-4.935v-4.1h0c0-.02,0-.041,0-.061,0-1.747,1.1-3.164,2.468-3.164s2.467,1.416,2.467,3.164c0,.02,0,.041,0,.061h0Z" transform="translate(-593.477 -571.63)"/><path class="f" d="M602.9,608.956h-4.935v-3.893h0c0-.019,0-.039,0-.058a2.516,2.516,0,1,1,4.935,0c0,.019,0,.039,0,.058h0Z" transform="translate(-587.477 -572.542)"/><path class="f" d="M602.9,608.956h-4.935v-3.893h0c0-.019,0-.039,0-.058a2.516,2.516,0,1,1,4.935,0c0,.019,0,.039,0,.058h0Z" transform="translate(-580.477 -573.455)"/><path class="f" d="M602.9,610.507h-4.935v-4.76h0c0-.024,0-.047,0-.071,0-2.03,1.1-3.676,2.468-3.676s2.467,1.646,2.467,3.676c0,.024,0,.047,0,.071h0Z" transform="translate(-571.477 -573.455)"/><path class="f" d="M602.9,608.957h-4.935v-3.893h0c0-.019,0-.039,0-.058a2.516,2.516,0,1,1,4.935,0c0,.019,0,.039,0,.058h0Z" transform="translate(-562.477 -573.455)"/><path class="f" d="M602.247,608.957h-4.282v-3.893h0c0-.019,0-.039,0-.058,0-1.66.959-3.006,2.141-3.006s2.141,1.346,2.141,3.006c0,.019,0,.039,0,.058h0Z" transform="translate(-555.477 -572.542)"/><path class="f" d="M602.9,609.416h-4.935v-4.15h0c0-.021,0-.041,0-.062,0-1.77,1.1-3.2,2.468-3.2s2.467,1.435,2.467,3.2c0,.021,0,.041,0,.062h0Z" transform="translate(-549.477 -571.718)"/><g transform="translate(0 0)"><path class="g" d="M670.084,558.561l.7,1.28a.719.719,0,0,0,1.262,0l.7-1.281a6.869,6.869,0,0,1,2.734-2.734l1.281-.7a.719.719,0,0,0,0-1.263l-1.28-.7a6.884,6.884,0,0,1-2.735-2.736l-.7-1.28a.748.748,0,0,0-1.262,0l-.7,1.28a6.876,6.876,0,0,1-2.734,2.736l-1.28.7a.719.719,0,0,0,0,1.263l1.279.7A6.881,6.881,0,0,1,670.084,558.561Zm-2.045-4.136a8.311,8.311,0,0,0,3.307-3.307l.069-.127.069.126a8.314,8.314,0,0,0,3.307,3.308l.126.069-.127.069a8.306,8.306,0,0,0-3.306,3.307l-.07.127-.068-.126a8.317,8.317,0,0,0-3.308-3.308l-.125-.068Z" transform="translate(-661.054 -548.8)"/><path class="g" d="M702.434,562.832l1.435.784a7.811,7.811,0,0,1,3.1,3.1l.785,1.436a.719.719,0,0,0,1.262,0l.785-1.435a7.792,7.792,0,0,1,3.1-3.1l1.435-.784a.719.719,0,0,0,0-1.262l-1.435-.785a7.788,7.788,0,0,1-3.1-3.1l-.785-1.435a.747.747,0,0,0-1.262,0l-.785,1.435a7.805,7.805,0,0,1-3.1,3.1l-1.435.785a.719.719,0,0,0,0,1.262Zm2.125-.785a9.22,9.22,0,0,0,3.672-3.672l.154-.281.154.281a9.218,9.218,0,0,0,3.672,3.672l.281.154-.281.154a9.222,9.222,0,0,0-3.672,3.672l-.154.281-.154-.282a9.226,9.226,0,0,0-3.672-3.672l-.281-.154Z" transform="translate(-665.508 -549.669)"/><path class="g" d="M679.221,569.749a.719.719,0,0,0,.72-.72V567.97H681a.72.72,0,1,0,0-1.439h-1.058v-1.059a.72.72,0,1,0-1.439,0v1.059h-1.059a.72.72,0,0,0,0,1.439H678.5v1.059A.719.719,0,0,0,679.221,569.749Z" transform="translate(-662.405 -550.753)"/><path class="g" d="M662.959,573.689a.719.719,0,0,0,.72-.72v-1.058h1.058a.72.72,0,0,0,0-1.439h-1.058v-1.059a.72.72,0,1,0-1.439,0v1.059h-1.059a.72.72,0,0,0,0,1.439h1.059v1.058A.719.719,0,0,0,662.959,573.689Z" transform="translate(-660.413 -551.236)"/><path class="g" d="M692.07,557.439a.719.719,0,0,0,.72-.72V555.66h1.059a.72.72,0,1,0,0-1.439H692.79v-1.059a.72.72,0,0,0-1.439,0v1.059h-1.058a.72.72,0,1,0,0,1.439h1.058v1.059A.719.719,0,0,0,692.07,557.439Z" transform="translate(-663.978 -549.246)"/><path class="g" d="M722.772,557.439a.719.719,0,0,0,.72-.72V555.66h1.059a.72.72,0,1,0,0-1.439h-1.059v-1.059a.72.72,0,0,0-1.439,0v1.059h-1.058a.72.72,0,0,0,0,1.439h1.058v1.059A.72.72,0,0,0,722.772,557.439Z" transform="translate(-667.739 -549.246)"/><path class="g" d="M717.247,600.955a3.573,3.573,0,0,0-1.087.163V579.487a.719.719,0,0,0-.581-.706l-20.624-4.037v-1.56a.717.717,0,0,0-.481-.678l-4.959-1.744a.721.721,0,0,0-.478,0l-4.959,1.744a.719.719,0,0,0-.481.678v1.56l-20.624,4.037a.719.719,0,0,0-.581.706V601.18a3.5,3.5,0,0,0-1.266-.225.719.719,0,1,0,0,1.438,2.382,2.382,0,0,1,1.839.922,3.7,3.7,0,0,0,5.671,0,2.293,2.293,0,0,1,3.677,0,3.7,3.7,0,0,0,5.67,0,2.3,2.3,0,0,1,3.679,0,3.7,3.7,0,0,0,5.672,0,2.3,2.3,0,0,1,3.68,0,3.7,3.7,0,0,0,5.672,0,2.3,2.3,0,0,1,3.68,0,3.7,3.7,0,0,0,5.672,0,2.3,2.3,0,0,1,3.685,0,3.709,3.709,0,0,0,5.678,0,2.386,2.386,0,0,1,1.843-.922.719.719,0,0,0,0-1.438Zm-22.291-13.843,19.765,3.868v1.193l-19.765-4.068Zm4.859-.515-2.533-.5v-4.189a1.267,1.267,0,1,1,2.533,0V586.6Zm6.319,1.236-2.533-.5v-4.15a1.267,1.267,0,1,1,2.534,0v4.646Zm6.318,1.237-2.533-.5v-4.111a1.267,1.267,0,0,1,2.534,0v4.607Zm2.268-8.991v9.434l-.829-.162v-4.889a2.706,2.706,0,1,0-5.412,0v3.829l-.907-.177v-4.927a2.706,2.706,0,1,0-5.412,0v3.869l-.906-.178v-4.967a2.706,2.706,0,0,0-5.412,0v3.908l-.886-.173V576.21Zm-29.683-6.386,4.24-1.491,4.24,1.491v14.279h-1.534v-6.061a2.706,2.706,0,0,0-5.413,0v6.061h-1.534Zm5.506,14.279H688.01v-6.061a1.267,1.267,0,0,1,2.534,0v6.061Zm-26.712,3.008,19.767-3.868v.993l-19.767,4.068Zm4.8-2.406-2.533.5v-4.608a1.267,1.267,0,1,1,2.534,0v4.112Zm6.318-1.236-2.533.5v-4.646a1.267,1.267,0,1,1,2.533,0Zm6.318-1.236-2.533.5v-4.686a1.267,1.267,0,0,1,2.534,0v4.19Zm2.327-9.891v9.435l-.887.173V581.91a2.706,2.706,0,0,0-5.413,0v4.967l-.907.178v-3.868a2.705,2.705,0,1,0-5.411,0v4.928l-.907.177v-3.83a2.706,2.706,0,1,0-5.412,0v4.889l-.83.162v-9.435Zm12.093,26.068a2.3,2.3,0,0,1-3.68,0,3.7,3.7,0,0,0-5.672,0,2.3,2.3,0,0,1-3.68,0,3.781,3.781,0,0,0-2.835-1.322,3.612,3.612,0,0,0-1.067.155,11.11,11.11,0,0,1,21.064.078,3.5,3.5,0,0,0-1.293-.233A3.782,3.782,0,0,0,695.692,602.278Zm16.872.922a2.388,2.388,0,0,1-1.843-.922,3.707,3.707,0,0,0-5.677,0,2.384,2.384,0,0,1-1.842.922,2.094,2.094,0,0,1-1.567-.667c0-.025.005-.048,0-.072a12.558,12.558,0,0,0-24.688-.146,2.33,2.33,0,0,1-1.8.885,2.382,2.382,0,0,1-1.838-.922,3.7,3.7,0,0,0-5.67,0,2.3,2.3,0,0,1-3.68,0l-.131-.124v-8.51l20.558-4.232h9.772l20.558,4.231v8.343c-.11.1-.215.2-.314.292A2.379,2.379,0,0,1,712.564,603.2Z" transform="translate(-660.406 -551.484)"/><path class="g" d="M717.247,610.187a3.786,3.786,0,0,0-2.839,1.322,2.3,2.3,0,0,1-3.686,0,3.707,3.707,0,0,0-5.677,0,2.3,2.3,0,0,1-3.68,0,3.7,3.7,0,0,0-5.672,0,2.3,2.3,0,0,1-3.68,0,3.7,3.7,0,0,0-5.672,0,2.3,2.3,0,0,1-3.68,0,3.7,3.7,0,0,0-5.671,0,2.293,2.293,0,0,1-3.677,0,3.7,3.7,0,0,0-5.67,0,2.3,2.3,0,0,1-3.679,0,3.781,3.781,0,0,0-2.835-1.322.719.719,0,1,0,0,1.438,2.383,2.383,0,0,1,1.839.922,3.7,3.7,0,0,0,5.671,0,2.293,2.293,0,0,1,3.677,0,3.7,3.7,0,0,0,5.67,0,2.3,2.3,0,0,1,3.679,0,3.7,3.7,0,0,0,5.671,0,2.3,2.3,0,0,1,3.681,0,3.7,3.7,0,0,0,5.672,0,2.3,2.3,0,0,1,3.68,0,3.7,3.7,0,0,0,5.672,0,2.3,2.3,0,0,1,3.685,0,3.709,3.709,0,0,0,5.678,0,2.387,2.387,0,0,1,1.843-.923.719.719,0,1,0,0-1.438Z" transform="translate(-660.406 -556.318)"/></g></g></g></g></svg>