<svg xmlns="http://www.w3.org/2000/svg" xmlns:xlink="http://www.w3.org/1999/xlink" width="66.401" height="64.28" viewBox="0 0 66.401 64.28"><defs><style>.a{fill:#fff;}.b{clip-path:url(#a);}.c{fill:#062493;}.d{fill:#ec2938;}.e{opacity:0.9;}.f{fill:#796eff;}.g{fill:#091f3a;}</style><clipPath id="a"><rect class="a" width="27.033" height="27.033" rx="13.517" transform="translate(0 0)"/></clipPath></defs><g transform="translate(-3843 -6033)"><g class="b" transform="translate(3843 6033)"><g transform="translate(-8.402 0.365)"><rect class="c" width="14.419" height="26.637" transform="translate(0)"/><rect class="d" width="14.732" height="26.637" transform="translate(29.105)"/><rect class="a" width="14.686" height="26.637" transform="translate(14.419)"/></g></g><g class="e" transform="translate(3856.104 6043.982)"><path class="f" d="M678,513.716h51.632l-25.816-31.3Z" transform="translate(-677.09 -460.708)"/><g transform="translate(0 0)"><path class="g" d="M731.919,456.349a4.526,4.526,0,0,0-2.3.622,14.641,14.641,0,0,1-9.2,2.323l-2.8-.346a3.25,3.25,0,0,0,0,6.5h14.3a4.55,4.55,0,1,0,0-9.1Zm0,7.8h-14.3a1.953,1.953,0,0,1-.081-3.9l2.722.341a15.912,15.912,0,0,0,10.022-2.493,3.214,3.214,0,0,1,1.637-.442,3.25,3.25,0,1,1,0,6.5Z" transform="translate(-683.172 -456.349)"/><path class="g" d="M729.554,480.793H719.8v-1.95a.65.65,0,1,0-1.3,0v1.95h-6.5v-4.549a8.456,8.456,0,0,0-7.8-8.417v-4.583a.65.65,0,1,0-1.3,0v4.583a8.456,8.456,0,0,0-7.8,8.417v4.549h-6.5v-1.95a.65.65,0,1,0-1.3,0v1.95h-9.749a.651.651,0,0,0-.65.65v28.6a.65.65,0,0,0,.65.65h52a.651.651,0,0,0,.65-.65v-28.6A.652.652,0,0,0,729.554,480.793Zm-33.148-4.549a7.15,7.15,0,1,1,14.3,0v1.385l-6.789-4.526a.643.643,0,0,0-.721,0l-6.79,4.526Zm-17.46,33.148,1.211-1.453,1.212,1.453Zm2.059-2.47,1.752-2.1,1.753,2.1-1.753,2.1Zm38.151-4.136-1.753-2.1,1.753-2.1,1.753,2.1Zm2.6-1.087,1.752,2.1-1.753,2.1L720,503.8ZM691.4,500.682l1.753-2.1,1.753,2.1-1.753,2.1Zm.906,3.12-1.753,2.1-1.753-2.1,1.753-2.1Zm16.446-7.257-1.753-2.1,1.753-2.1,1.753,2.1Zm2.6-1.087,1.753,2.1-1.753,2.1-1.753-2.1Zm-9.551-1.017,1.752-2.1,1.752,2.1-1.752,2.1Zm.9,3.12-1.752,2.1-1.753-2.1,1.753-2.1Zm3.447-2.1,1.753,2.1-1.752,2.1-1.753-2.1Zm0-2.034-1.752-2.1,1.753-2.1,1.752,2.1Zm-2.6-3.119-1.753-2.1,1.753-2.1,1.753,2.1Zm-.848,1.017-1.752,2.1-1.752-2.1,1.751-2.1Zm-2.6,3.119-1.753,2.1-1.753-2.1,1.753-2.1Zm-2.6,3.12-1.753,2.1-1.753-2.1,1.753-2.1Zm-1.753,4.136,1.752,2.1-1.752,2.1L694,503.8Zm.847-1.017,1.753-2.1,1.752,2.1-1.752,2.1Zm4.353,1.016,1.752,2.1-1.752,2.1-1.753-2.1Zm.847-1.017,1.753-2.1,1.752,2.1-1.752,2.1Zm4.353,1.017,1.752,2.1-1.752,2.1-1.753-2.1Zm.847-1.017,1.752-2.1,1.753,2.1-1.752,2.1Zm4.352,1.018,1.753,2.1-1.752,2.1-1.753-2.1Zm.848-1.017,1.752-2.1,1.753,2.1-1.753,2.1Zm4.353,1.017,1.752,2.1-1.752,2.1-1.753-2.1Zm0-2.033-1.753-2.1,1.753-2.1,1.753,2.1Zm-2.6-3.12-1.753-2.1,1.753-2.1,1.753,2.1Zm-2.6-3.12-1.753-2.1,1.753-2.1,1.753,2.1Zm-2.6-3.12L707,488.2l1.753-2.1,1.752,2.1Zm-2.6-3.119-1.753-2.1,1.753-2.1,1.753,2.1Zm-2.6-3.12-1.754-2.1,1.754-2.1,1.753,2.1Zm-.848,1.017-1.753,2.1-1.753-2.1,1.753-2.1Zm-2.6,3.12-1.752,2.1-1.753-2.1,1.752-2.1Zm-2.6,3.12-1.753,2.1-1.753-2.1,1.753-2.1Zm-2.6,3.12-1.753,2.1-1.753-2.1,1.753-2.1Zm-2.6,3.12-1.753,2.1-1.753-2.1,1.753-2.1Zm-2.6,3.12-1.753,2.1-1.753-2.1,1.752-2.1Zm-2.6,3.12-1.752,2.1-1.752-2.1,1.751-2.1Zm-2.963,5.589,1.211-1.453,1.211,1.453Zm2.058-2.47,1.753-2.1,1.752,2.1-1.752,2.1Zm3.142,2.47,1.211-1.452,1.211,1.452Zm2.058-2.469,1.753-2.1,1.752,2.1-1.752,2.1Zm3.141,2.469,1.212-1.453,1.211,1.453Zm2.059-2.469,1.753-2.1,1.752,2.1-1.752,2.1Zm3.141,2.469,1.212-1.453,1.211,1.453Zm2.059-2.469,1.753-2.1,1.752,2.1-1.752,2.1Zm3.141,2.469,1.212-1.453,1.211,1.453ZM707,506.922l1.753-2.1,1.752,2.1-1.752,2.1Zm3.141,2.469,1.212-1.453,1.211,1.453Zm2.059-2.469,1.752-2.1,1.753,2.1-1.753,2.1Zm3.141,2.469,1.211-1.452,1.212,1.452Zm2.059-2.469,1.753-2.1,1.752,2.1-1.753,2.1Zm3.141,2.469,1.211-1.453,1.211,1.453Zm2.058-2.47,1.753-2.1,1.753,2.1-1.753,2.1Zm3.142,2.47,1.211-1.453,1.211,1.453Zm3.161-23.4h-15.47a.65.65,0,0,0,0,1.3H728.9v1.3H715.618a.65.65,0,0,0,0,1.3H728.9v18.353l-24.849-29.819a.677.677,0,0,0-1,0l-24.848,29.819V489.892h13.286a.65.65,0,0,0,0-1.3H678.207v-1.3h15.47a.65.65,0,0,0,0-1.3h-15.47v-3.9h17.549a.651.651,0,0,0,.65-.65v-1.95h3.771a.65.65,0,0,0,0-1.3H697.9l5.652-3.768,5.651,3.768h-2.272a.65.65,0,1,0,0,1.3h3.77v1.95a.652.652,0,0,0,.65.65H728.9Z" transform="translate(-676.907 -457.393)"/><path class="g" d="M685.878,500.057h-5.2a.65.65,0,0,0-.65.65v5.2a.651.651,0,0,0,.65.65h2.679a.65.65,0,0,0,0-1.3h-2.029v-3.9h3.9v1.533a.65.65,0,1,0,1.3,0v-2.184A.65.65,0,0,0,685.878,500.057Z" transform="translate(-677.429 -463.658)"/><path class="g" d="M730.63,503.54a.652.652,0,0,0,.65-.65v-1.533h3.9v3.9h-2.029a.65.65,0,1,0,0,1.3h2.678a.652.652,0,0,0,.65-.65v-5.2a.651.651,0,0,0-.65-.65h-5.2a.65.65,0,0,0-.65.65v2.184A.651.651,0,0,0,730.63,503.54Z" transform="translate(-685.782 -463.658)"/><path class="g" d="M681.456,465.449a4.55,4.55,0,1,0-4.549-4.55A4.555,4.555,0,0,0,681.456,465.449Zm0-7.8a3.25,3.25,0,1,1-3.25,3.25A3.253,3.253,0,0,1,681.456,457.649Z" transform="translate(-676.907 -456.349)"/></g></g></g></svg>