<svg xmlns="http://www.w3.org/2000/svg" width="76" height="76" viewBox="0 0 76 76"><defs><style>.a{fill:none;}.b{fill:#d31b5c;}.c{fill:#091f3a;}.d{fill:#f88d8a;}.e{fill:#f7a3ab;}.f{fill:#e54453;}.g{fill:#1a171b;}</style></defs><g transform="translate(-1961 -1957)"><g transform="translate(1961 1957)"><rect class="a" width="76" height="76"/></g><g transform="translate(254 -7032)"><circle class="b" cx="13.837" cy="13.837" r="13.837" transform="translate(1713 8992)"/><g transform="translate(1716.509 9001.563)"><g transform="translate(6.323 23.096)"><path class="b" d="M.1,0H11.525a.1.1,0,0,1,.1.1v22a.982.982,0,0,1-.982.982H1.034A1.034,1.034,0,0,1,0,22.043V.1A.1.1,0,0,1,.1,0Z" transform="translate(0 12.434)"/><circle class="b" cx="5.568" cy="5.568" r="5.568" transform="translate(24.337)"/></g><g transform="translate(0 0)"><g transform="translate(6.895)"><path class="c" d="M114.713,368.524a5.239,5.239,0,1,0-5.239-5.239A5.245,5.245,0,0,0,114.713,368.524Zm0-8.646a3.407,3.407,0,1,1-3.407,3.407A3.413,3.413,0,0,1,114.713,359.878Z" transform="translate(-109.474 -358.047)"/></g><g transform="translate(11.218 17.308)"><path class="c" d="M113.824,371.793a.917.917,0,0,0-.917.917v1.384a.916.916,0,0,0,1.832,0V372.71A.916.916,0,0,0,113.824,371.793Z" transform="translate(-112.907 -371.793)"/></g><g transform="translate(11.218 22.848)"><path class="c" d="M113.824,376.193a.917.917,0,0,0-.917.915v1.385a.916.916,0,0,0,1.832,0v-1.385A.916.916,0,0,0,113.824,376.193Z" transform="translate(-112.907 -376.193)"/></g><g transform="translate(11.221 28.14)"><path class="c" d="M113.827,380.4a.918.918,0,0,0-.917.917V382.7a.916.916,0,1,0,1.832,0v-1.384A.916.916,0,0,0,113.827,380.4Z" transform="translate(-112.91 -380.396)"/></g><g transform="translate(0 2.277)"><path class="c" d="M137.117,363.208a3.36,3.36,0,0,0-.991-2.392,3.463,3.463,0,0,0-4.786,0l-8.079,8.079a4.169,4.169,0,0,1-2.964,1.228H109.85A5.86,5.86,0,0,0,104,375.976V392.46a3.388,3.388,0,0,0,3.385,3.385,3.333,3.333,0,0,0,1.56-.394V414a4.06,4.06,0,0,0,7.193,2.542A4.059,4.059,0,0,0,123.328,414V379.837a3.314,3.314,0,0,1,.973-2.356L136.126,365.6A3.359,3.359,0,0,0,137.117,363.208ZM121.5,414a2.223,2.223,0,0,1-4.446,0V396.326a.916.916,0,0,0-1.832,0V414a2.223,2.223,0,0,1-4.445,0V393.107H121.5Zm-4.512-42.041H120.3a5.986,5.986,0,0,0,4.26-1.764l8.079-8.08a1.586,1.586,0,0,1,2.195,0,1.549,1.549,0,0,1,0,2.2L123,376.188a5.141,5.141,0,0,0-1.506,3.649v11.439H110.766V376.831a.915.915,0,1,0-1.831,0v15.63a1.553,1.553,0,1,1-3.105,0V375.976a4.025,4.025,0,0,1,4.02-4.022h5.427" transform="translate(-103.998 -359.856)"/></g><g transform="translate(24.42 4.884)"><path class="c" d="M158.5,398.556h-1.526v-34.8H158.5a.915.915,0,0,0,0-1.831H131.817c-.5,0-1.128.217-1.128.723a1.386,1.386,0,0,0,1.2,1.108h23.244v34.8H127.666V368.039c0-.5-.41.591-.915.591a.942.942,0,0,0-.917.944v28.982h-1.526a.915.915,0,1,0,0,1.831h10.91l-5.669,15.87a.914.914,0,0,0,.554,1.169.887.887,0,0,0,.308.054.916.916,0,0,0,.863-.607l5.888-16.486h3.324v16.177a.916.916,0,0,0,1.832,0V400.386h3.323l5.889,16.486a.914.914,0,0,0,.861.607.887.887,0,0,0,.308-.054.913.913,0,0,0,.554-1.169l-5.669-15.87H158.5a.915.915,0,1,0,0-1.831Z" transform="translate(-123.392 -361.926)"/></g><circle class="d" cx="1.793" cy="1.793" r="1.793" transform="translate(34.434 26.87)"/><circle class="e" cx="2.997" cy="2.997" r="2.997" transform="translate(48.905 21.909)"/><circle class="f" cx="3.242" cy="3.242" r="3.242" transform="translate(41.745 11.891)"/><g transform="translate(30.393 11.694)"><g transform="translate(14.145 2.989)"><path class="g" d="M140.078,370.524a.449.449,0,1,0-.626-.108A.448.448,0,0,0,140.078,370.524Z" transform="translate(-139.369 -369.708)"/></g><g transform="translate(3.59 14.725)"><path class="g" d="M131.935,379.441a2.244,2.244,0,1,0,3.128.535A2.245,2.245,0,0,0,131.935,379.441Zm2.074,2.931a1.347,1.347,0,1,1,.321-1.877A1.348,1.348,0,0,1,134.009,382.372Z" transform="translate(-130.987 -379.029)"/></g><path class="g" d="M148.041,377.505l-2.977-4.208a3.438,3.438,0,0,0-3.939-5.567l-.005-.006c-.043.021-.086.043-.127.068-.019.01-.037.01-.054.019l-.016.015a.155.155,0,0,1-.03.013c-.009.008-.013.016-.023.024a.4.4,0,0,1-.068.03,3.428,3.428,0,0,1-.412.353l0,0a3.384,3.384,0,0,0,.112,5.133l-3.755,5.8a5.837,5.837,0,1,0,2.974,4.2l6.719-1.61a3.364,3.364,0,0,0,.39.759,3.442,3.442,0,0,0,4.384,1.065,2.32,2.32,0,0,0,.388-.273.466.466,0,0,1,.059-.033c.01-.008.014-.019.024-.026.141-.108.268-.229.409-.336l.011-.006a3.43,3.43,0,0,0-4.07-5.419Zm-11.219,10.829A4.938,4.938,0,1,1,138,381.45,4.942,4.942,0,0,1,136.822,388.334ZM141.26,368.7a2.544,2.544,0,1,1-.607,3.547A2.548,2.548,0,0,1,141.26,368.7Zm4.971,12.207-6.707,1.608a5.851,5.851,0,0,0-2.015-2.847l3.748-5.791a3.44,3.44,0,0,0,3.074-.058l2.978,4.208A3.443,3.443,0,0,0,146.231,380.9Zm4.883,1.72a2.544,2.544,0,1,1,.607-3.546A2.546,2.546,0,0,1,151.114,382.622Z" transform="translate(-128.136 -367.334)"/><g transform="translate(21.06 12.763)"><path class="g" d="M145.051,377.553a.449.449,0,1,0,.626.107A.448.448,0,0,0,145.051,377.553Z" transform="translate(-144.861 -377.471)"/></g></g></g></g></g></g></svg>