<svg xmlns="http://www.w3.org/2000/svg" xmlns:xlink="http://www.w3.org/1999/xlink" width="76" height="76" viewBox="0 0 76 76"><defs><style>.a{fill:#fff;}.b{fill:none;}.c{clip-path:url(#a);}.d{fill:#04247b;}.e{fill:#ce142a;}.f{fill:#fddf14;}.g{fill:#091f3a;}</style><clipPath id="a"><rect class="a" width="27.868" height="27.868" rx="13.934" transform="translate(0 0)"/></clipPath></defs><g transform="translate(-474 -1235)"><g transform="translate(474 1235)"><rect class="b" width="76" height="76"/></g><g transform="translate(111 1)"><g class="c" transform="translate(366 1237)"><g transform="translate(-8.662 0.377)"><rect class="d" width="45.191" height="27.641" transform="translate(0 0.024)"/><path class="a" d="M320.846,258.431l-13.765,8.477-26.325,16.125V286.1h5.1l40.088-24.578v-3.063l-.819-.024Z" transform="translate(-280.756 -258.431)"/><path class="a" d="M325.947,283.051l-39.975-24.579h-5.217v3.155l40.164,24.486h5.027Z" transform="translate(-280.756 -258.449)"/><path class="a" d="M325.947,284H280.756V274.74l45.191.047Z" transform="translate(-280.756 -265.528)"/><path class="a" d="M314.123,258.473v27.641h7.532l-.038-27.641Z" transform="translate(-295.274 -258.449)"/><path class="e" d="M325.947,278.088H280.756v5.482l45.191.045Z" transform="translate(-280.756 -266.984)"/><path class="e" d="M343.13,258.431l-15.141,9.245h3.465l15.045-9.221-.819-.024Z" transform="translate(-301.308 -258.431)"/><path class="e" d="M321.243,258.473l-.038,27.641h-4.481l.038-27.641Z" transform="translate(-296.406 -258.449)"/><path class="e" d="M280.756,258.473l15.008,9.206-3.352,0-11.656-7.2Z" transform="translate(-280.756 -258.449)"/><path class="e" d="M280.756,300.326l15.008-9.19h3.276l-14.875,9.19Z" transform="translate(-280.756 -272.661)"/><path class="e" d="M334.324,291.136l14.931,9.19v-2.1L337.6,291.136Z" transform="translate(-304.064 -272.661)"/></g></g><g transform="translate(374.739 1244.768)"><path class="f" d="M2.964,0h0A2.964,2.964,0,0,1,5.928,2.964V5.928a0,0,0,0,1,0,0H0a0,0,0,0,1,0,0V2.964A2.964,2.964,0,0,1,2.964,0Z" transform="translate(9.881 12.845)"/><path class="f" d="M2.964,0h0A2.964,2.964,0,0,1,5.928,2.964V5.928a0,0,0,0,1,0,0H0a0,0,0,0,1,0,0V2.964A2.964,2.964,0,0,1,2.964,0Z" transform="translate(45.451 12.845)"/><path class="g" d="M705.6,272.88h4.977a.765.765,0,0,0,.766-.766v-3.19a3.254,3.254,0,1,0-6.508,0v3.19A.765.765,0,0,0,705.6,272.88Zm.766-3.956a1.723,1.723,0,1,1,3.445,0v2.425h-3.445Z" transform="translate(-659.546 -253.358)"/><path class="g" d="M706.214,278.542a.765.765,0,0,0-.766.766v1.723a.766.766,0,1,0,1.531,0v-1.723A.766.766,0,0,0,706.214,278.542Z" transform="translate(-659.554 -253.511)"/><path class="g" d="M710.024,278.542a.766.766,0,0,0-.766.766v1.723a.766.766,0,1,0,1.531,0v-1.723A.765.765,0,0,0,710.024,278.542Z" transform="translate(-659.599 -253.511)"/><path class="g" d="M706.214,286.841a.765.765,0,0,0-.766.766v1.723a.766.766,0,1,0,1.531,0v-1.723A.766.766,0,0,0,706.214,286.841Z" transform="translate(-659.554 -253.61)"/><path class="g" d="M710.024,286.841a.766.766,0,0,0-.766.766v1.723a.766.766,0,1,0,1.531,0v-1.723A.765.765,0,0,0,710.024,286.841Z" transform="translate(-659.599 -253.61)"/><path class="g" d="M706.214,295.14a.765.765,0,0,0-.766.766v1.723a.766.766,0,1,0,1.531,0v-1.723A.766.766,0,0,0,706.214,295.14Z" transform="translate(-659.554 -253.709)"/><path class="g" d="M710.024,295.14a.766.766,0,0,0-.766.766v1.723a.766.766,0,1,0,1.531,0v-1.723A.765.765,0,0,0,710.024,295.14Z" transform="translate(-659.599 -253.709)"/><path class="g" d="M671.833,265.669a3.259,3.259,0,0,0-3.255,3.255v3.19a.766.766,0,0,0,.766.766h4.978a.766.766,0,0,0,.766-.766v-3.19A3.258,3.258,0,0,0,671.833,265.669Zm1.723,5.679h-3.446v-2.425a1.723,1.723,0,1,1,3.446,0Z" transform="translate(-659.114 -253.358)"/><path class="g" d="M673.768,278.542a.766.766,0,0,0-.766.766v1.723a.766.766,0,1,0,1.531,0v-1.723A.766.766,0,0,0,673.768,278.542Z" transform="translate(-659.166 -253.511)"/><path class="g" d="M669.957,278.542a.766.766,0,0,0-.766.766v1.723a.766.766,0,0,0,1.532,0v-1.723A.765.765,0,0,0,669.957,278.542Z" transform="translate(-659.121 -253.511)"/><path class="g" d="M673.768,290.1a.766.766,0,0,0,.766-.766v-1.723a.766.766,0,1,0-1.531,0v1.723A.766.766,0,0,0,673.768,290.1Z" transform="translate(-659.166 -253.61)"/><path class="g" d="M669.957,290.1a.765.765,0,0,0,.766-.766v-1.723a.766.766,0,0,0-1.532,0v1.723A.766.766,0,0,0,669.957,290.1Z" transform="translate(-659.121 -253.61)"/><path class="g" d="M673.768,295.14a.766.766,0,0,0-.766.766v1.723a.766.766,0,1,0,1.531,0v-1.723A.766.766,0,0,0,673.768,295.14Z" transform="translate(-659.166 -253.709)"/><path class="g" d="M669.957,295.14a.766.766,0,0,0-.766.766v1.723a.766.766,0,1,0,1.532,0v-1.723A.765.765,0,0,0,669.957,295.14Z" transform="translate(-659.121 -253.709)"/><path class="g" d="M659.766,300.3a.766.766,0,0,0-.766.766V304.9a.766.766,0,0,0,.766.766H664.6v8.04a.765.765,0,0,0,.766.766h12.7a.766.766,0,0,0,.766-.766v-3.445c.008-.007.018-.009.026-.017a17.562,17.562,0,0,1,6.418-3.485c5.211-1.541,10.308-.361,15.15,3.51V313.7a.766.766,0,0,0,.766.766h12.7a.766.766,0,0,0,.766-.766v-8.04h4.838a.766.766,0,0,0,.766-.766v-3.829a.766.766,0,0,0-.766-.766h-5.535V289.968c1.19,3.011,3.008,5.259,5.23,6.224a.765.765,0,1,0,.61-1.4c-3.493-1.519-5.84-6.939-5.84-13.488V262.484a.76.76,0,0,0-.022-.108.747.747,0,0,0-.034-.162.694.694,0,0,0-.082-.141.559.559,0,0,0-.056-.1l-5.459-6.149v-1.853a.766.766,0,0,0-1.532,0v1.854l-5.458,6.148a.733.733,0,0,0-.056.1.774.774,0,0,0-.082.141.753.753,0,0,0-.033.162.8.8,0,0,0-.022.108v5.466H678.136v-5.466a.658.658,0,0,0-.023-.108.505.505,0,0,0-.115-.3.74.74,0,0,0-.056-.1l-5.458-6.148v-1.854a.766.766,0,0,0-1.532,0v1.853l-5.459,6.149a.727.727,0,0,0-.056.1.774.774,0,0,0-.082.141.746.746,0,0,0-.033.162.808.808,0,0,0-.022.108V281.3c0,6.549-2.348,11.969-5.841,13.488a.766.766,0,1,0,.611,1.4c2.222-.965,4.039-3.213,5.23-6.224V300.3Zm6.369,12.634v-7.274H677.3v7.274Zm12.7-4.628v-2.646h4.985A20.166,20.166,0,0,0,678.833,308.31Zm16.66-2.646h4.933v2.685A20.617,20.617,0,0,0,695.493,305.664Zm17.632,7.274H701.958v-7.274h11.167Zm5.6-8.806h-58.2v-2.3h58.2Zm-47.01-46.859,3.947,4.445h-7.895Zm-4.886,5.977H676.6V275h-9.772Zm0,18.05v-4.766H676.6V283.2h-9.772Zm9.772,3.433V291.4h-9.772v-6.668Zm1.531-10.273h22.988V300.3H678.136Zm29.4-17.186,3.948,4.445h-7.895ZM712.428,275h-9.772V263.25h9.772Zm-9.772,9.73h9.772V291.4h-9.772Zm0-1.532v-6.667h9.772V283.2Zm0,17.1v-7.371h9.772V300.3Zm-1.531-30.822v3.446H678.136v-3.446Zm-34.292,23.451H676.6V300.3h-9.772Z" transform="translate(-658.999 -253.209)"/></g></g></g></svg>