<svg xmlns="http://www.w3.org/2000/svg" width="76" height="76" viewBox="0 0 76 76"><defs><style>.a{fill:none;}.b{fill:#bbdbfd;}.c{fill:#33c5f3;}.d{fill:#5ea9f8;}.e{fill:#a2bffd;}.f{fill:#091f3a;}</style></defs><g transform="translate(-1954 -1839)"><g transform="translate(1954 1839)"><rect class="a" width="76" height="76"/></g><g transform="translate(250.942 -7035)"><circle class="b" cx="16" cy="16" r="16" transform="translate(1713 8877)"/><g transform="translate(1707.058 8890.688)"><g transform="translate(1.168 6.071)"><path class="c" d="M120.819,290.858h13.435v-6.617l-4.066-4.069-1.772,1.474-2.057-.388-1.651-.628-3.27,1.806-.619,3.473Z" transform="translate(-94.77 -280.171)"/><path class="d" d="M102.4,315.635h13.435v-6.617l-4.066-4.069L110,306.423l-2.057-.388-1.651-.628-3.27,1.806-.619,3.473Z" transform="translate(-102.4 -274.203)"/><path class="e" d="M121.219,322.143h13.435v-6.617l-4.066-4.069-1.772,1.474-2.057-.388-1.651-.628-3.27,1.806-.619,3.473Z" transform="translate(-94.604 -272.636)"/><path class="b" d="M139.248,315.635h13.435v-6.617l-4.066-4.069-1.772,1.474-2.057-.388-1.651-.628-3.27,1.806-.619,3.473Z" transform="translate(-87.136 -274.203)"/></g><g transform="translate(0 0)"><g transform="translate(26.049 44.158)"><path class="f" d="M130.279,310.9c-.44.315,2.144,2.983,2.5,3.369a3.282,3.282,0,0,1,.925,2.268v4.679H122.051v-4.679a3.287,3.287,0,0,1,.923-2.268c.361-.386,2.943-3.022,2.5-3.337s-3.735,1.807-4.1,2.193a5.006,5.006,0,0,0-1.39,3.412v5.581a.973.973,0,0,0,1.03.9h13.712a.973.973,0,0,0,1.03-.9v-5.581a5,5,0,0,0-1.392-3.412C134.014,312.736,130.72,310.579,130.279,310.9Z" transform="translate(-119.993 -310.865)"/></g><g transform="translate(29.477 38.863)"><path class="f" d="M122.417,310.509a4.5,4.5,0,1,0,4.458-3.911A4.216,4.216,0,0,0,122.417,310.509Zm4.458-2.106a2.124,2.124,0,1,1-2.4,2.106A2.269,2.269,0,0,1,126.875,308.4Z" transform="translate(-122.417 -306.598)"/></g><g transform="translate(26.049 5.378)"><path class="f" d="M130.846,279.646c-.44.315,1.577,2.9,1.936,3.285a3.282,3.282,0,0,1,.925,2.268v4.681H122.051V285.2a3.287,3.287,0,0,1,.923-2.268c.361-.386,2.943-2.936,2.5-3.251s-3.735,1.721-4.1,2.107a5.006,5.006,0,0,0-1.39,3.412v5.581a.974.974,0,0,0,1.03.9h13.712a.974.974,0,0,0,1.03-.9V285.2a5,5,0,0,0-1.392-3.412C134.014,281.4,131.286,279.329,130.846,279.646Z" transform="translate(-119.993 -279.613)"/></g><g transform="translate(29.477)"><path class="f" d="M122.417,279.19a4.5,4.5,0,1,0,4.458-3.911A4.216,4.216,0,0,0,122.417,279.19Zm4.458-2.106a2.124,2.124,0,1,1-2.4,2.106A2.27,2.27,0,0,1,126.875,277.084Z" transform="translate(-122.417 -275.279)"/></g><g transform="translate(32.906 25.628)"><path class="f" d="M126.9,305.257v-8.422a1.037,1.037,0,0,0-2.056,0v8.422a1.037,1.037,0,0,0,2.056,0Z" transform="translate(-124.842 -295.932)"/></g><g transform="translate(0 35.829)"><path class="f" d="M112.43,304.179c-.44.318,1.574,3.494,1.933,3.883a3.273,3.273,0,0,1,.925,2.268v4.679H103.632V310.33a3.278,3.278,0,0,1,.923-2.268c.361-.388,2.944-2.747,2.5-3.065s-3.736,1.535-4.1,1.918a5.012,5.012,0,0,0-1.39,3.415v5.581a.973.973,0,0,0,1.03.9h13.712a.971.971,0,0,0,1.028-.9V310.33a5.008,5.008,0,0,0-1.39-3.415C115.595,306.532,112.868,303.864,112.43,304.179Z" transform="translate(-101.574 -304.153)"/></g><g transform="translate(3.428 31.041)"><path class="f" d="M108.456,308.116a3.944,3.944,0,1,0-4.458-3.91A4.216,4.216,0,0,0,108.456,308.116Zm0-6.016a2.124,2.124,0,1,1-2.4,2.106A2.271,2.271,0,0,1,108.456,302.1Z" transform="translate(-103.998 -300.295)"/></g><g transform="translate(52.113 35.829)"><path class="f" d="M152.8,306.915c-.362-.383-3.656-2.647-4.1-2.332s2.144,3.09,2.5,3.478a3.271,3.271,0,0,1,.923,2.268v4.679H140.479V310.33a3.273,3.273,0,0,1,.925-2.268c.359-.388,3.183-3.565,2.744-3.883s-3.974,2.353-4.335,2.736a5.006,5.006,0,0,0-1.39,3.415v5.581a.971.971,0,0,0,1.028.9h13.714a.972.972,0,0,0,1.028-.9V310.33A5.014,5.014,0,0,0,152.8,306.915Z" transform="translate(-138.423 -304.153)"/></g><g transform="translate(55.541 31.041)"><path class="f" d="M145.3,308.116a3.944,3.944,0,1,0-4.456-3.91A4.216,4.216,0,0,0,145.3,308.116Zm0-6.016a2.124,2.124,0,1,1-2.4,2.106A2.27,2.27,0,0,1,145.3,302.1Z" transform="translate(-140.847 -300.295)"/></g><g transform="translate(15.772 22.999)"><path class="f" d="M121.289,293.814a.971.971,0,0,0-1.028.9v10.148h-6.507a.91.91,0,1,0,0,1.805h7.535a.972.972,0,0,0,1.028-.9V294.716A.971.971,0,0,0,121.289,293.814Z" transform="translate(-112.726 -293.814)"/></g><g transform="translate(42.52 22.999)"><path class="f" d="M140.2,304.864H133.7V294.716a1.038,1.038,0,0,0-2.058,0v11.051a.972.972,0,0,0,1.028.9H140.2a.91.91,0,1,0,0-1.805Z" transform="translate(-131.64 -293.814)"/></g></g></g></g></g></svg>