<svg xmlns="http://www.w3.org/2000/svg" xmlns:xlink="http://www.w3.org/1999/xlink" width="67.953" height="62.801" viewBox="0 0 67.953 62.801"><defs><style>.a{fill:#ffe01b;opacity:0.516;}.b{clip-path:url(#a);}.c{fill:#062493;}.d{fill:#ec2938;}.e{fill:#fff;}.f,.g{fill:#06cbff;}.g{fill-rule:evenodd;}.h{fill:#091f3a;}</style><clipPath id="a"><ellipse class="a" cx="13.739" cy="13.739" rx="13.739" ry="13.739"/></clipPath></defs><g transform="translate(-44 -367)"><g class="b" transform="translate(44 367)"><g transform="translate(0)"><rect class="c" width="9.038" height="27.478" transform="translate(0 0)"/><rect class="d" width="9.234" height="27.478" transform="translate(18.243 0)"/><rect class="e" width="9.205" height="27.478" transform="translate(9.038 0)"/></g></g><g transform="translate(57.782 375.629)"><rect class="f" width="16.082" height="1.693" transform="translate(34.744 27.636)"/><rect class="f" width="16.082" height="1.693" transform="translate(3.426 27.636)"/><path class="g" d="M609.247,471.925l-43.168-.846L561,466h51.632Z" transform="translate(-560.113 -457.832)"/><path class="h" d="M613.463,506.557H611.48v-1.981a.661.661,0,0,0-.66-.661h-1.982V486.739h1.982a.661.661,0,0,0,.66-.661v-2.643a.66.66,0,0,0-.66-.66h-1.982V470.5l5.092-5.091a.661.661,0,0,0-.467-1.128h-4.625v-4.351l2.45-2.449a.659.659,0,0,0-.467-1.127H563.255a.659.659,0,0,0-.467,1.127l2.449,2.449v4.351h-4.624a.661.661,0,0,0-.467,1.128l5.091,5.091v12.278h-1.982a.661.661,0,0,0-.66.66v2.643a.661.661,0,0,0,.66.661h1.982v17.176h-1.982a.661.661,0,0,0-.66.661v1.981h-1.982a.661.661,0,0,0-.66.661v2.643a.66.66,0,0,0,.66.66h52.85a.66.66,0,0,0,.66-.66v-2.643A.661.661,0,0,0,613.463,506.557Zm-5.946-18.5H600.25a.661.661,0,0,0,0,1.321h7.267V490.7h-4.624a.661.661,0,0,0,0,1.321h4.624v11.891H606.2v-7.267a.661.661,0,0,0-.661-.66H600.25a.661.661,0,0,0-.66.66v7.267h-1.321V486.739h9.248Zm-2.642,15.855h-3.964v-6.606h3.964Zm-9.249,0V486.739h1.321v17.176Zm-15.855,0V483.356a7.267,7.267,0,0,1,14.534,0v20.559Zm-2.643,0V486.739h1.321v17.176ZM594.3,470.883v4a11.3,11.3,0,0,0-7.347-2.681,11.175,11.175,0,0,0-7.187,2.647v-3.968Zm-14.7,5.935h0l.815-.817a10.01,10.01,0,0,1,13.2.012,9.5,9.5,0,0,1,3.31,6.681H595.6a8.595,8.595,0,0,0-17.124,0h-1.324A9.82,9.82,0,0,1,579.605,476.819Zm30.554,8.6H595.626V484.1h14.533Zm-11.907-2.643c-.014-.3-.078-.581-.116-.872a11.072,11.072,0,0,0-2.511-5.746v-5.273h11.891v9.249h-4.624a.661.661,0,0,0,0,1.321h4.624v1.321Zm.016-18.5v-3.964h3.964v3.964Zm-5.285,0v-3.964h3.964v3.964Zm-5.285,0v-3.964h3.964v3.964Zm-5.285,0v-3.964h3.964v3.964Zm-5.285,0v-3.964h3.964v3.964Zm-5.285,0v-3.964h3.964v3.964Zm31.711-3.964h3.963v3.964h-3.963Zm5.672-2.643-1.321,1.321H566.171l-1.321-1.321Zm-42.668,2.643h3.964v3.964h-3.964Zm45.31,5.285-3.964,3.964H566.171l-3.964-3.964Zm-45.31,15.855h4.625a.661.661,0,0,0,0-1.321h-4.625v-9.249h11.892v5.25a11.336,11.336,0,0,0-2.626,6.641h-9.265Zm-2.643,2.643h14.534v1.321H563.915Zm2.643,7.928h4.625a.661.661,0,0,0,0-1.321h-4.625v-1.321h7.268a.661.661,0,0,0,0-1.321h-7.268v-1.321h9.249v17.176h-1.321v-7.267a.661.661,0,0,0-.66-.66H568.54a.661.661,0,0,0-.661.66v7.267h-1.321Zm6.606,11.891H569.2v-6.606h3.964Zm-9.249,1.321h46.244v1.321H563.915ZM612.8,509.2H561.273v-1.321H612.8Z" transform="translate(-559.952 -456.35)"/><path class="h" d="M612.367,479.706v-2.643a1.883,1.883,0,0,0-1.762-1.982h-4.4a1.883,1.883,0,0,0-1.763,1.982v2.643a1.883,1.883,0,0,0,1.763,1.982h4.4A1.883,1.883,0,0,0,612.367,479.706Zm-6.606,0v-2.643c0-.39.233-.661.442-.661h4.4c.209,0,.441.271.441.661v2.643c0,.389-.232.66-.441.66h-4.4C605.993,480.366,605.76,480.1,605.76,479.706Z" transform="translate(-566.784 -459.226)"/><path class="h" d="M578.026,479.706v-2.643a1.883,1.883,0,0,0-1.763-1.982h-4.4a1.883,1.883,0,0,0-1.762,1.982v2.643a1.883,1.883,0,0,0,1.762,1.982h4.4A1.883,1.883,0,0,0,578.026,479.706Zm-1.321,0c0,.389-.233.66-.442.66h-4.4c-.209,0-.441-.271-.441-.66v-2.643c0-.39.232-.661.441-.661h4.4c.209,0,.442.271.442.661Z" transform="translate(-561.51 -459.226)"/><path class="h" d="M569.978,470.158h36.995a.661.661,0,1,0,0-1.321H569.978a.661.661,0,1,0,0,1.321Z" transform="translate(-561.39 -458.268)"/></g></g></svg>