<svg xmlns="http://www.w3.org/2000/svg" xmlns:xlink="http://www.w3.org/1999/xlink" width="76" height="76" viewBox="0 0 76 76"><defs><style>.a{fill:#fff;}.b{fill:#2ab899;}.c{fill:#92da0d;}.d{fill:#64950a;}.e{clip-path:url(#a);}.f{fill:#04247b;}.g{fill:#ce142a;}.h,.i{fill:none;}.h{stroke:#000;stroke-linejoin:round;stroke-miterlimit:10;stroke-width:2px;}</style><clipPath id="a"><rect class="a" width="28.229" height="28.229" rx="14.114" transform="translate(0 0)"/></clipPath></defs><g transform="translate(-2756 -1631)"><g transform="translate(1 3)"><path class="b" d="M2242.881-2947.266l-.97,2.765,1.548,2.284-1.821,2.2s1.739,7.375,1.821,7.186,2.6-7.786,2.6-7.786l-1.812-2.375,1.813-2.68-1.812-2.364Z" transform="translate(544.685 4620.228)"/><path class="c" d="M2264.423-2937.764l-5.654,3.261-2.095,4.194h15.248l-1.771-4.194Z" transform="translate(546.612 4621.544)"/><path class="d" d="M2264.125-2933.462l-7.1-.405-.354,3.058h16.292l-.615-2.653Z" transform="translate(546.612 4628.812)"/><circle class="c" cx="16.605" cy="16.605" r="16.605" transform="translate(2764 1633.877)"/><g class="e" transform="translate(2769.139 1631)"><g transform="translate(-8.774 0.381)"><rect class="f" width="45.777" height="27.999" transform="translate(0 0.024)"/><path class="a" d="M321.366,258.431l-13.944,8.587-26.666,16.334v3.1h5.169l40.607-24.9v-3.1l-.829-.024Z" transform="translate(-280.756 -258.431)"/><path class="a" d="M326.533,283.37l-40.492-24.9h-5.284v3.2l40.684,24.8h5.092Z" transform="translate(-280.756 -258.449)"/><path class="a" d="M326.533,284.122H280.756V274.74l45.777.047Z" transform="translate(-280.756 -265.408)"/><path class="a" d="M314.123,258.473v28h7.629l-.039-28Z" transform="translate(-295.03 -258.449)"/><path class="g" d="M326.533,278.088H280.756v5.553l45.777.046Z" transform="translate(-280.756 -266.84)"/><path class="g" d="M343.326,258.431,327.989,267.8h3.51l15.239-9.341-.83-.024Z" transform="translate(-300.962 -258.431)"/><path class="g" d="M321.3,258.473l-.038,28h-4.539l.038-28Z" transform="translate(-296.143 -258.449)"/><path class="g" d="M280.756,258.473l15.2,9.325-3.4,0L280.756,260.5Z" transform="translate(-280.756 -258.449)"/><path class="g" d="M280.756,300.445l15.2-9.309h3.318l-15.068,9.309Z" transform="translate(-280.756 -272.422)"/><path class="g" d="M334.324,291.135l15.125,9.309v-2.123l-11.806-7.186Z" transform="translate(-303.672 -272.422)"/></g></g><path class="h" d="M15.281,21.05a9.025,9.025,0,1,1,9.025-9.025,9.052,9.052,0,0,1-9.025,9.025m9.025,29.331V30.075a9.052,9.052,0,0,0-9.025-9.025m0,0a9.052,9.052,0,0,0-9.025,9.025V50.381M15.281,21.05l-2.256,3.384,2.256,2.256m0,0,2.256-2.256L15.281,21.05m0,5.641-2.256,2.256,2.256,12.409,2.256-12.409-2.256-2.256M49.125,50.381H24.306m-18.05,0H4m2.256,0h18.05m22.111-3.723-.677-1.918H29.947l-.677,1.918a1.152,1.152,0,0,0,1.015,1.467H45.176A1.187,1.187,0,0,0,46.417,46.658ZM37.844,34.587H36.716a6.789,6.789,0,0,0-6.769,6.769H45.741a6.789,6.789,0,0,0-6.769-6.769H37.844m0,0V31.2" transform="translate(2773.143 1650.619)"/></g><g transform="translate(2756 1631)"><rect class="i" width="76" height="76"/></g></g></svg>