<svg xmlns="http://www.w3.org/2000/svg" width="38" height="38" viewBox="0 0 38 38"><defs><style>.a{fill:#fff;}.a,.b{stroke:#4ad991;}.b{fill:#4ad991;}.c{fill:rgba(255,255,255,0);}.d{stroke:none;}.e{fill:none;}</style></defs><g transform="translate(-1306 -1411)"><g class="a" transform="translate(1306 1411)"><circle class="d" cx="19" cy="19" r="19"/><circle class="e" cx="19" cy="19" r="18.5"/></g><g transform="translate(151 -472)"><g transform="translate(1166.258 1894.258)"><path class="b" d="M524.67,510.788a4.221,4.221,0,0,0,1.609-1.429,5.047,5.047,0,0,0,4.225-4.967,2.437,2.437,0,0,0-2.434-2.434h-1.085v-.469a.7.7,0,0,0-.7-.7h-7.038a.7.7,0,0,0-.7.7v.469h-1.084a2.437,2.437,0,0,0-2.434,2.434,5.055,5.055,0,0,0,4.231,4.978,4.229,4.229,0,0,0,1.6,1.419.472.472,0,0,1,.224.612l-.814,1.818h-1.49a.234.234,0,0,0-.235.234v2.581a.234.234,0,0,0,.235.235h7.976a.234.234,0,0,0,.235-.235v-2.581a.234.234,0,0,0-.235-.234h-1.49l-.814-1.818A.472.472,0,0,1,524.67,510.788Zm2.315-3.767v-4.594h1.085a1.968,1.968,0,0,1,1.965,1.965,4.582,4.582,0,0,1-3.453,4.431A4.225,4.225,0,0,0,526.984,507.02Zm-11.5-2.629a1.967,1.967,0,0,1,1.965-1.965h1.084v4.594a4.223,4.223,0,0,0,.4,1.8A4.58,4.58,0,0,1,515.489,504.391ZM526.515,515.8h-7.507v-2.112h7.507Zm-2.5-4.206.728,1.626h-3.968l.728-1.626a.942.942,0,0,0-.44-1.223,3.739,3.739,0,0,1-2.058-3.349v-5.533a.235.235,0,0,1,.234-.235h7.038a.235.235,0,0,1,.235.235v5.533a3.739,3.739,0,0,1-2.058,3.349A.942.942,0,0,0,524.017,511.592Z" transform="translate(-515.02 -500.784)"/></g><rect class="c" width="20" height="20" rx="8" transform="translate(1164 1892)"/></g></g></svg>