<svg xmlns="http://www.w3.org/2000/svg" width="68" height="68" viewBox="0 0 68 68"><defs><style>.a{fill:none;}.b{fill:#ffe01b;}</style></defs><path class="a" d="M0,0H68V68H0Z"/><circle class="b" cx="4.25" cy="4.25" r="4.25" transform="translate(21.25 19.833)"/><path class="b" d="M4.34,19.292H30.747c-2.38-1.643-8.132-3.542-13.2-3.542S6.72,17.648,4.34,19.292Z" transform="translate(7.957 28.875)"/><path d="M21.833,24.833a9.917,9.917,0,1,0-9.917-9.917A9.928,9.928,0,0,0,21.833,24.833Zm0-14.167a4.25,4.25,0,1,1-4.25,4.25A4.244,4.244,0,0,1,21.833,10.667Zm0,19.125C15.2,29.792,2,33.107,2,39.708v4.958H41.667V39.708C41.667,33.107,28.463,29.792,21.833,29.792ZM8.63,39c2.38-1.643,8.132-3.542,13.2-3.542s10.823,1.9,13.2,3.542Zm33.15-9.038c3.287,2.38,5.553,5.553,5.553,9.747v4.958H58.667V39.708C58.667,33.985,48.75,30.727,41.78,29.962Zm-2.947-5.128A9.917,9.917,0,0,0,38.833,5a9.762,9.762,0,0,0-4.25.992,15.474,15.474,0,0,1,0,17.85A9.762,9.762,0,0,0,38.833,24.833Z" transform="translate(3.667 9.167)"/></svg>