<?xml version="1.0" standalone="no"?>
<!DOCTYPE svg PUBLIC "-//W3C//DTD SVG 1.1//EN" "http://www.w3.org/Graphics/SVG/1.1/DTD/svg11.dtd" >
<svg xmlns="http://www.w3.org/2000/svg" xmlns:xlink="http://www.w3.org/1999/xlink" version="1.1">
<metadata>
Created by FontForge 20190801 at Wed May 31 04:49:14 2017
 By Jimmy Wärting
(c) 2015-2017 Apple Inc. All rights reserved.
</metadata>
<defs>
<font id="SFProDisplay-BoldItalic" horiz-adv-x="0" >
  <font-face 
    font-family="SF Pro Display"
    font-weight="700"
    font-style="italic"
    font-stretch="normal"
    units-per-em="2048"
    panose-1="0 0 8 0 0 0 0 0 0 0"
    ascent="1638"
    descent="-410"
    x-height="1075"
    cap-height="1443"
    bbox="-611 -524 2851 2183"
    underline-thickness="197"
    underline-position="-375"
    slope="-12"
    stemh="251"
    stemv="295"
    unicode-range="U+0020-FB02"
  />
<missing-glyph horiz-adv-x="2048" 
d="M-80 -494l43 198h1848l-44 -198h-1847zM15 -45l44 198h1847l-43 -198h-1848zM111 404l43 199h1847l-43 -199h-1847zM205 854l45 198h1847l-44 -198h-1848zM301 1303l44 198h1847l-44 -198h-1847zM396 1752l43 198h1848l-44 -198h-1847z" />
    <glyph glyph-name=".notdef" horiz-adv-x="2048" 
d="M-80 -494l43 198h1848l-44 -198h-1847zM15 -45l44 198h1847l-43 -198h-1848zM111 404l43 199h1847l-43 -199h-1847zM205 854l45 198h1847l-44 -198h-1848zM301 1303l44 198h1847l-44 -198h-1847zM396 1752l43 198h1848l-44 -198h-1847z" />
    <glyph glyph-name=".null" 
 />
    <glyph glyph-name="nonmarkingreturn" 
 />
    <glyph glyph-name="space" unicode=" " horiz-adv-x="452" 
 />
    <glyph glyph-name="A" unicode="A" horiz-adv-x="1393" 
d="M876 1150l-307 -573h374l-60 573h-7zM997 0l-36 344h-508l-188 -344h-323l816 1443h356l186 -1443h-303z" />
    <glyph glyph-name="Agrave" unicode="&#xc0;" horiz-adv-x="1393" 
d="M876 1150l-307 -573h374l-60 573h-7zM997 0l-36 344h-508l-188 -344h-323l816 1443h356l186 -1443h-303zM844 1557l-203 307h258l161 -307h-216z" />
    <glyph glyph-name="Aacute" unicode="&#xc1;" horiz-adv-x="1393" 
d="M876 1150l-307 -573h374l-60 573h-7zM997 0l-36 344h-508l-188 -344h-323l816 1443h356l186 -1443h-303zM1081 1557h-242l291 307h283z" />
    <glyph glyph-name="Adieresis" unicode="&#xc4;" horiz-adv-x="1393" 
d="M876 1150l-307 -573h374l-60 573h-7zM997 0l-36 344h-508l-188 -344h-323l816 1443h356l186 -1443h-303zM791 1586c-73 0 -129 57 -129 127s56 127 129 127s130 -57 130 -127s-57 -127 -130 -127zM1186 1586c-73 0 -129 57 -129 127s56 127 129 127s130 -57 130 -127
s-57 -127 -130 -127z" />
    <glyph glyph-name="Adieresismacron" unicode="&#x1de;" horiz-adv-x="1393" 
d="M876 1150l-307 -573h374l-60 573h-7zM997 0l-36 344h-508l-188 -344h-323l816 1443h356l186 -1443h-303zM784 1805c74 0 131 -58 131 -131c0 -71 -57 -130 -131 -130c-75 0 -132 59 -132 130c0 73 57 131 132 131zM1414 2077l-32 -151h-691l32 151h691zM1183 1805
c75 0 131 -58 131 -131c0 -71 -56 -130 -131 -130s-131 59 -131 130c0 73 56 131 131 131z" />
    <glyph glyph-name="Aring" unicode="&#xc5;" horiz-adv-x="1393" 
d="M876 1150l-307 -573h374l-60 573h-7zM997 0l-36 344h-508l-188 -344h-323l816 1443h356l186 -1443h-303zM1009 1566c-117 0 -216 89 -216 211c0 124 99 220 220 220c118 0 216 -89 215 -212c0 -124 -97 -219 -219 -219zM1009 1687c55 0 97 40 97 97c-1 53 -41 91 -93 91
c-55 0 -97 -40 -97 -97c0 -53 41 -91 93 -91z" />
    <glyph glyph-name="Aringacute" unicode="&#x1fa;" horiz-adv-x="1393" 
d="M876 1150l-307 -573h374l-60 573h-7zM997 0l-36 344h-508l-188 -344h-323l816 1443h356l186 -1443h-303zM987 1513c-112 0 -198 76 -198 190c0 116 86 198 202 198c112 0 199 -76 198 -190c0 -116 -86 -198 -202 -198zM987 1626c50 0 86 34 85 84c0 47 -34 79 -81 79
c-50 0 -85 -34 -85 -84c0 -47 34 -79 81 -79zM1092 2156h243l-185 -188h-211z" />
    <glyph glyph-name="Atilde" unicode="&#xc3;" horiz-adv-x="1393" 
d="M876 1150l-307 -573h374l-60 573h-7zM997 0l-36 344h-508l-188 -344h-323l816 1443h356l186 -1443h-303zM1118 1546c-139 0 -170 134 -249 134c-43 0 -80 -43 -97 -119h-161c33 169 135 275 262 275c144 0 172 -133 249 -133c42 0 77 41 96 122h162
c-36 -169 -138 -279 -262 -279z" />
    <glyph glyph-name="Abrevegrave" unicode="&#x1eb0;" horiz-adv-x="1393" 
d="M876 1150l-307 -573h374l-60 573h-7zM997 0l-36 344h-508l-188 -344h-323l816 1443h356l186 -1443h-303zM1138 1882h-202l-162 252h232zM661 1837h175c-1 -7 -1 -13 -1 -20c0 -72 53 -126 146 -126c101 0 182 64 208 146h188c-43 -164 -200 -298 -420 -298
c-191 0 -300 111 -300 248c0 17 1 33 4 50z" />
    <glyph glyph-name="Adotmacron" unicode="&#x1e0;" horiz-adv-x="1393" 
d="M876 1150l-307 -573h374l-60 573h-7zM997 0l-36 344h-508l-188 -344h-323l816 1443h356l186 -1443h-303zM986 1554c-79 0 -138 62 -138 137c0 74 59 136 138 136s139 -62 139 -136c0 -75 -60 -137 -139 -137zM1414 2077l-32 -151h-692l33 151h691z" />
    <glyph glyph-name="Aringbelow" unicode="&#x1e00;" horiz-adv-x="1393" 
d="M876 1150l-307 -573h374l-60 573h-7zM997 0l-36 344h-508l-188 -344h-323l816 1443h356l186 -1443h-303zM560 -524c-117 0 -216 89 -216 211c0 124 99 220 220 220c118 0 216 -89 215 -212c0 -124 -97 -219 -219 -219zM560 -403c55 0 97 40 97 97c-1 53 -41 91 -93 91
c-55 0 -97 -40 -97 -97c0 -53 41 -91 93 -91z" />
    <glyph glyph-name="Acircumflex" unicode="&#xc2;" horiz-adv-x="1393" 
d="M876 1150l-307 -573h374l-60 573h-7zM997 0l-36 344h-508l-188 -344h-323l816 1443h356l186 -1443h-303zM1130 1866l201 -319h-215l-115 192h-7l-198 -192h-227l337 319h224z" />
    <glyph glyph-name="Acircumflexdotbelow" unicode="&#x1eac;" horiz-adv-x="1393" 
d="M876 1150l-307 -573h374l-60 573h-7zM997 0l-36 344h-508l-188 -344h-323l816 1443h356l186 -1443h-303zM1130 1866l201 -319h-215l-115 192h-7l-198 -192h-227l337 319h224zM555 -460c-84 0 -151 68 -151 151c0 82 67 151 151 151s150 -69 150 -151
c0 -83 -66 -151 -150 -151z" />
    <glyph glyph-name="Acircumflexacute" unicode="&#x1ea4;" horiz-adv-x="1393" 
d="M876 1150l-307 -573h374l-60 573h-7zM997 0l-36 344h-508l-188 -344h-323l816 1443h356l186 -1443h-303zM890 1822h231l208 -284h-215l-117 167h-7l-190 -167h-239zM1132 1882l238 252h258l-268 -252h-228z" />
    <glyph glyph-name="Acircumflextilde" unicode="&#x1eaa;" horiz-adv-x="1393" 
d="M876 1150l-307 -573h374l-60 573h-7zM997 0l-36 344h-508l-188 -344h-323l816 1443h356l186 -1443h-303zM1173 1877c-136 0 -174 123 -250 123c-43 0 -80 -38 -92 -104h-160c31 162 133 259 261 259c135 0 172 -123 249 -123c43 0 78 37 93 107h159
c-30 -160 -135 -262 -260 -262zM889 1818h231l209 -280h-215l-118 163h-7l-189 -163h-239z" />
    <glyph glyph-name="Acircumflexgrave" unicode="&#x1ea6;" horiz-adv-x="1393" 
d="M876 1150l-307 -573h374l-60 573h-7zM997 0l-36 344h-508l-188 -344h-323l816 1443h356l186 -1443h-303zM890 1822h231l208 -284h-215l-117 167h-7l-190 -167h-239zM1376 1882h-202l-162 252h232z" />
    <glyph glyph-name="Acircumflexhookabove" unicode="&#x1ea8;" horiz-adv-x="1393" 
d="M876 1150l-307 -573h374l-60 573h-7zM997 0l-36 344h-508l-188 -344h-323l816 1443h356l186 -1443h-303zM890 1822h231l208 -284h-215l-117 167h-7l-190 -167h-239zM1138 1988l30 131c30 13 83 21 126 21c127 0 208 -62 208 -160c0 -112 -84 -204 -206 -248l-70 105
c58 18 99 56 99 103c0 38 -36 63 -92 63c-32 0 -65 -5 -95 -15z" />
    <glyph glyph-name="Abreve" unicode="&#x102;" horiz-adv-x="1393" 
d="M876 1150l-307 -573h374l-60 573h-7zM997 0l-36 344h-508l-188 -344h-323l816 1443h356l186 -1443h-303zM664 1860h179c-3 -12 -6 -26 -6 -40c0 -81 53 -130 146 -130c107 0 189 66 214 170h184c-44 -187 -197 -321 -425 -321c-187 0 -300 109 -300 254c0 23 3 46 8 67z
" />
    <glyph glyph-name="Abreveacute" unicode="&#x1eae;" horiz-adv-x="1393" 
d="M876 1150l-307 -573h374l-60 573h-7zM997 0l-36 344h-508l-188 -344h-323l816 1443h356l186 -1443h-303zM894 1882l238 252h258l-268 -252h-228zM957 1539c-191 0 -300 111 -300 248c0 17 1 33 4 50h175c-1 -7 -1 -13 -1 -20c0 -72 53 -126 146 -126
c101 0 182 64 208 146h188c-43 -164 -200 -298 -420 -298z" />
    <glyph glyph-name="Abrevetilde" unicode="&#x1eb4;" horiz-adv-x="1393" 
d="M876 1150l-307 -573h374l-60 573h-7zM997 0l-36 344h-508l-188 -344h-323l816 1443h356l186 -1443h-303zM1177 1877c-136 0 -174 123 -250 123c-43 0 -80 -38 -92 -104h-160c31 162 133 259 261 259c135 0 172 -123 249 -123c43 0 78 37 93 107h159
c-30 -160 -135 -262 -260 -262zM957 1539c-191 0 -300 111 -300 248c0 17 1 33 4 50h175c-1 -7 -1 -13 -1 -20c0 -72 53 -126 146 -126c101 0 182 64 208 146h188c-43 -164 -200 -298 -420 -298z" />
    <glyph glyph-name="Abrevehookabove" unicode="&#x1eb2;" horiz-adv-x="1393" 
d="M876 1150l-307 -573h374l-60 573h-7zM997 0l-36 344h-508l-188 -344h-323l816 1443h356l186 -1443h-303zM842 2040l30 128c33 10 77 15 111 15c125 0 209 -65 209 -160c0 -98 -81 -185 -196 -218l-73 98c59 15 99 48 99 88c0 38 -34 61 -91 61c-34 0 -66 -5 -89 -12z
M957 1539c-191 0 -300 111 -300 248c0 17 1 33 4 50h175c-1 -7 -1 -13 -1 -20c0 -72 53 -126 146 -126c101 0 182 64 208 146h188c-43 -164 -200 -298 -420 -298z" />
    <glyph glyph-name="Abrevedotbelow" unicode="&#x1eb6;" horiz-adv-x="1393" 
d="M876 1150l-307 -573h374l-60 573h-7zM997 0l-36 344h-508l-188 -344h-323l816 1443h356l186 -1443h-303zM664 1860h179c-3 -12 -6 -26 -6 -40c0 -81 53 -130 146 -130c107 0 189 66 214 170h184c-44 -187 -197 -321 -425 -321c-187 0 -300 109 -300 254c0 23 3 46 8 67z
M555 -460c-84 0 -151 68 -151 151c0 82 67 151 151 151s150 -69 150 -151c0 -83 -66 -151 -150 -151z" />
    <glyph glyph-name="Ainvertedbreve" unicode="&#x202;" horiz-adv-x="1393" 
d="M876 1150l-307 -573h374l-60 573h-7zM997 0l-36 344h-508l-188 -344h-323l816 1443h356l186 -1443h-303zM1311 1539h-178c3 10 6 24 6 38c0 81 -53 132 -146 132c-107 0 -189 -68 -214 -170h-184c44 185 197 321 425 321c187 0 299 -111 299 -256c0 -23 -3 -46 -8 -65z
" />
    <glyph glyph-name="Acaron" unicode="&#x1cd;" horiz-adv-x="1393" 
d="M876 1150l-307 -573h374l-60 573h-7zM997 0l-36 344h-508l-188 -344h-323l816 1443h356l186 -1443h-303zM847 1547l-202 319h215l116 -192h7l197 192h227l-336 -319h-224z" />
    <glyph glyph-name="Adotaccent" unicode="&#x226;" horiz-adv-x="1393" 
d="M876 1150l-307 -573h374l-60 573h-7zM997 0l-36 344h-508l-188 -344h-323l816 1443h356l186 -1443h-303zM999 1607c-84 0 -151 68 -151 151c0 82 67 151 151 151s150 -69 150 -151c0 -83 -66 -151 -150 -151z" />
    <glyph glyph-name="Adotbelow" unicode="&#x1ea0;" horiz-adv-x="1393" 
d="M876 1150l-307 -573h374l-60 573h-7zM997 0l-36 344h-508l-188 -344h-323l816 1443h356l186 -1443h-303zM555 -460c-84 0 -151 68 -151 151c0 82 67 151 151 151s150 -69 150 -151c0 -83 -66 -151 -150 -151z" />
    <glyph glyph-name="Ahookabove" unicode="&#x1ea2;" horiz-adv-x="1393" 
d="M876 1150l-307 -573h374l-60 573h-7zM997 0l-36 344h-508l-188 -344h-323l816 1443h356l186 -1443h-303zM808 1787l30 135c32 13 87 22 130 22c132 0 216 -66 216 -166c0 -110 -95 -216 -241 -266l-62 112c73 22 122 65 122 113c0 40 -37 64 -95 64
c-32 0 -72 -6 -100 -14z" />
    <glyph glyph-name="Adblgrave" unicode="&#x200;" horiz-adv-x="1393" 
d="M876 1150l-307 -573h374l-60 573h-7zM997 0l-36 344h-508l-188 -344h-323l816 1443h356l186 -1443h-303zM654 1557l-203 307h258l161 -307h-216zM1049 1557l-202 307h257l161 -307h-216z" />
    <glyph glyph-name="Amacron" unicode="&#x100;" horiz-adv-x="1393" 
d="M876 1150l-307 -573h374l-60 573h-7zM997 0l-36 344h-508l-188 -344h-323l816 1443h356l186 -1443h-303zM1349 1770l-31 -151h-692l32 151h691z" />
    <glyph glyph-name="Aogonek" unicode="&#x104;" horiz-adv-x="1393" 
d="M1161 -281l-33 -159c-30 -15 -83 -24 -144 -24c-131 0 -224 71 -224 182c0 102 96 210 237 281l-37 345h-509l-186 -344h-323l814 1443h357l185 -1425l-24 -9c-191 -69 -287 -151 -287 -227c0 -46 36 -74 101 -74c29 0 58 5 73 11zM875 1150l-308 -573h375l-61 573h-6z
" />
    <glyph glyph-name="B" unicode="B" horiz-adv-x="1344" 
d="M744 0h-695l307 1443h590c259 0 413 -130 413 -312c0 -189 -137 -332 -327 -374l-1 -7c156 -30 258 -144 258 -291c0 -267 -224 -459 -545 -459zM610 1227l-80 -370h238c171 0 286 90 286 215c0 99 -75 155 -216 155h-228zM396 232h291c178 0 295 97 295 235
c0 112 -80 176 -237 176h-260z" />
    <glyph glyph-name="Blinebelow" unicode="&#x1e06;" horiz-adv-x="1344" 
d="M744 0h-695l307 1443h590c259 0 413 -130 413 -312c0 -189 -137 -332 -327 -374l-1 -7c156 -30 258 -144 258 -291c0 -267 -224 -459 -545 -459zM610 1227l-80 -370h238c171 0 286 90 286 215c0 99 -75 155 -216 155h-228zM396 232h291c178 0 295 97 295 235
c0 112 -80 176 -237 176h-260zM856 -233l-31 -151h-692l32 151h691z" />
    <glyph glyph-name="Bdotbelow" unicode="&#x1e04;" horiz-adv-x="1344" 
d="M744 0h-695l307 1443h590c259 0 413 -130 413 -312c0 -189 -137 -332 -327 -374l-1 -7c156 -30 258 -144 258 -291c0 -267 -224 -459 -545 -459zM610 1227l-80 -370h238c171 0 286 90 286 215c0 99 -75 155 -216 155h-228zM396 232h291c178 0 295 97 295 235
c0 112 -80 176 -237 176h-260zM493 -460c-84 0 -151 68 -151 151c0 82 67 151 151 151s150 -69 150 -151c0 -83 -66 -151 -150 -151z" />
    <glyph glyph-name="Bdotaccent" unicode="&#x1e02;" horiz-adv-x="1344" 
d="M744 0h-695l307 1443h590c259 0 413 -130 413 -312c0 -189 -137 -332 -327 -374l-1 -7c156 -30 258 -144 258 -291c0 -267 -224 -459 -545 -459zM610 1227l-80 -370h238c171 0 286 90 286 215c0 99 -75 155 -216 155h-228zM396 232h291c178 0 295 97 295 235
c0 112 -80 176 -237 176h-260zM880 1607c-84 0 -151 68 -151 151c0 82 67 151 151 151s150 -69 150 -151c0 -83 -66 -151 -150 -151z" />
    <glyph glyph-name="C" unicode="C" horiz-adv-x="1471" 
d="M1223 914c0 6 0 13 -1 33c-10 154 -136 258 -302 258c-270 0 -457 -249 -457 -597c0 -228 122 -368 321 -368c166 0 301 96 356 253h297c-65 -312 -331 -517 -669 -517c-375 0 -616 241 -616 615c0 518 319 876 791 876c331 0 569 -204 578 -505c1 -21 0 -35 -2 -48h-296
z" />
    <glyph glyph-name="Cacute" unicode="&#x106;" horiz-adv-x="1471" 
d="M1223 914c0 6 0 13 -1 33c-10 154 -136 258 -302 258c-270 0 -457 -249 -457 -597c0 -228 122 -368 321 -368c166 0 301 96 356 253h297c-65 -312 -331 -517 -669 -517c-375 0 -616 241 -616 615c0 518 319 876 791 876c331 0 569 -204 578 -505c1 -21 0 -35 -2 -48h-296
zM1087 1558h-242l291 307h283z" />
    <glyph glyph-name="Ccaron" unicode="&#x10c;" horiz-adv-x="1471" 
d="M1223 914c0 6 0 13 -1 33c-10 154 -136 258 -302 258c-270 0 -457 -249 -457 -597c0 -228 122 -368 321 -368c166 0 301 96 356 253h297c-65 -312 -331 -517 -669 -517c-375 0 -616 241 -616 615c0 518 319 876 791 876c331 0 569 -204 578 -505c1 -21 0 -35 -2 -48h-296
zM853 1548l-202 319h215l116 -192h7l197 192h227l-336 -319h-224z" />
    <glyph glyph-name="Ccircumflex" unicode="&#x108;" horiz-adv-x="1471" 
d="M1223 914c0 6 0 13 -1 33c-10 154 -136 258 -302 258c-270 0 -457 -249 -457 -597c0 -228 122 -368 321 -368c166 0 301 96 356 253h297c-65 -312 -331 -517 -669 -517c-375 0 -616 241 -616 615c0 518 319 876 791 876c331 0 569 -204 578 -505c1 -21 0 -35 -2 -48h-296
zM1136 1867l201 -319h-215l-115 192h-7l-198 -192h-227l337 319h224z" />
    <glyph glyph-name="Cdotaccent" unicode="&#x10a;" horiz-adv-x="1471" 
d="M1223 914c0 6 0 13 -1 33c-10 154 -136 258 -302 258c-270 0 -457 -249 -457 -597c0 -228 122 -368 321 -368c166 0 301 96 356 253h297c-65 -312 -331 -517 -669 -517c-375 0 -616 241 -616 615c0 518 319 876 791 876c331 0 569 -204 578 -505c1 -21 0 -35 -2 -48h-296
zM1005 1608c-84 0 -151 68 -151 151c0 82 67 151 151 151s150 -69 150 -151c0 -83 -66 -151 -150 -151z" />
    <glyph glyph-name="Ccedilla" unicode="&#xc7;" horiz-adv-x="1471" 
d="M592 -119l69 102c-313 42 -509 271 -509 608c0 518 319 876 791 876c331 0 569 -204 578 -505c1 -21 0 -35 -2 -48h-296c0 6 0 13 -1 33c-10 154 -136 258 -302 258c-270 0 -457 -249 -457 -597c0 -228 122 -368 321 -368c166 0 301 96 356 253h297
c-61 -294 -301 -493 -611 -515l-56 -83c104 -5 163 -58 163 -147c0 -128 -118 -219 -287 -219c-59 0 -123 9 -157 21l29 140c34 -11 80 -18 125 -18c76 0 118 20 118 57c0 36 -37 51 -133 51h-58z" />
    <glyph glyph-name="Ccedillaacute" unicode="&#x1e08;" horiz-adv-x="1471" 
d="M1419 1865l-332 -307h-242l291 307h283zM592 -119l69 102c-313 42 -509 271 -509 608c0 518 319 876 791 876c331 0 569 -204 578 -505c1 -21 0 -35 -2 -48h-296c0 6 0 13 -1 33c-10 154 -136 258 -302 258c-270 0 -457 -249 -457 -597c0 -228 122 -368 321 -368
c166 0 301 96 356 253h297c-61 -294 -301 -493 -611 -515l-56 -83c104 -5 163 -58 163 -147c0 -128 -118 -219 -287 -219c-59 0 -123 9 -157 21l29 140c34 -11 80 -18 125 -18c76 0 118 20 118 57c0 36 -37 51 -133 51h-58z" />
    <glyph glyph-name="D" unicode="D" horiz-adv-x="1453" 
d="M356 1443h510c359 0 593 -210 593 -568c0 -513 -311 -875 -769 -875h-640zM609 1187l-201 -930h244c289 0 496 230 496 579c0 222 -122 351 -348 351h-191z" />
    <glyph glyph-name="Ddotaccent" unicode="&#x1e0a;" horiz-adv-x="1453" 
d="M356 1443h510c359 0 593 -210 593 -568c0 -513 -311 -875 -769 -875h-640zM609 1187l-201 -930h244c289 0 496 230 496 579c0 222 -122 351 -348 351h-191zM877 1607c-84 0 -151 68 -151 151c0 82 67 151 151 151s150 -69 150 -151c0 -83 -66 -151 -150 -151z" />
    <glyph glyph-name="Dcircumflexbelow" unicode="&#x1e12;" horiz-adv-x="1453" 
d="M356 1443h510c359 0 593 -210 593 -568c0 -513 -311 -875 -769 -875h-640zM609 1187l-201 -930h244c289 0 496 230 496 579c0 222 -122 351 -348 351h-191zM653 -165l202 -319h-216l-115 192h-7l-198 -192h-227l337 319h224z" />
    <glyph glyph-name="Dcommaaccent" unicode="&#x1e10;" horiz-adv-x="1453" 
d="M356 1443h510c359 0 593 -210 593 -568c0 -513 -311 -875 -769 -875h-640zM609 1187l-201 -930h244c289 0 496 230 496 579c0 222 -122 351 -348 351h-191zM424 -475h-221l201 338h261z" />
    <glyph glyph-name="Dlinebelow" unicode="&#x1e0e;" horiz-adv-x="1453" 
d="M356 1443h510c359 0 593 -210 593 -568c0 -513 -311 -875 -769 -875h-640zM609 1187l-201 -930h244c289 0 496 230 496 579c0 222 -122 351 -348 351h-191zM878 -233l-31 -151h-692l32 151h691z" />
    <glyph glyph-name="Dcaron" unicode="&#x10e;" horiz-adv-x="1453" 
d="M356 1443h510c359 0 593 -210 593 -568c0 -513 -311 -875 -769 -875h-640zM609 1187l-201 -930h244c289 0 496 230 496 579c0 222 -122 351 -348 351h-191zM726 1547l-202 319h215l116 -192h7l197 192h227l-336 -319h-224z" />
    <glyph glyph-name="Ddotbelow" unicode="&#x1e0c;" horiz-adv-x="1453" 
d="M356 1443h510c359 0 593 -210 593 -568c0 -513 -311 -875 -769 -875h-640zM609 1187l-201 -930h244c289 0 496 230 496 579c0 222 -122 351 -348 351h-191zM515 -460c-84 0 -151 68 -151 151c0 82 67 151 151 151s150 -69 150 -151c0 -83 -66 -151 -150 -151z" />
    <glyph glyph-name="Dcroat" unicode="&#x110;" horiz-adv-x="1453" 
d="M408 257h244c289 0 496 230 496 579c0 222 -122 351 -348 351h-191l-71 -328h257l-53 -257h-259zM356 1443h510c359 0 593 -210 593 -568c0 -513 -311 -875 -769 -875h-640l128 602h-124l53 257h125z" />
    <glyph glyph-name="E" unicode="E" horiz-adv-x="1171" 
d="M1059 258l-53 -258h-957l307 1443h957l-54 -258h-652l-74 -337h615l-49 -239h-615l-78 -351h653z" />
    <glyph glyph-name="Egrave" unicode="&#xc8;" horiz-adv-x="1171" 
d="M1059 258l-53 -258h-957l307 1443h957l-54 -258h-652l-74 -337h615l-49 -239h-615l-78 -351h653zM732 1557l-203 307h258l161 -307h-216z" />
    <glyph glyph-name="Edblgrave" unicode="&#x204;" horiz-adv-x="1171" 
d="M1059 258l-53 -258h-957l307 1443h957l-54 -258h-652l-74 -337h615l-49 -239h-615l-78 -351h653zM542 1557l-203 307h258l161 -307h-216zM937 1557l-202 307h257l161 -307h-216z" />
    <glyph glyph-name="Eacute" unicode="&#xc9;" horiz-adv-x="1171" 
d="M1059 258l-53 -258h-957l307 1443h957l-54 -258h-652l-74 -337h615l-49 -239h-615l-78 -351h653zM969 1557h-242l291 307h283z" />
    <glyph glyph-name="Ecircumflex" unicode="&#xca;" horiz-adv-x="1171" 
d="M1059 258l-53 -258h-957l307 1443h957l-54 -258h-652l-74 -337h615l-49 -239h-615l-78 -351h653zM1018 1866l201 -319h-215l-115 192h-7l-198 -192h-227l337 319h224z" />
    <glyph glyph-name="Ecircumflexhookabove" unicode="&#x1ec2;" horiz-adv-x="1171" 
d="M1059 258l-53 -258h-957l307 1443h957l-54 -258h-652l-74 -337h615l-49 -239h-615l-78 -351h653zM778 1822h231l208 -284h-215l-117 167h-7l-190 -167h-239zM1026 1988l30 131c30 13 83 21 126 21c127 0 208 -62 208 -160c0 -112 -84 -204 -206 -248l-70 105
c58 18 99 56 99 103c0 38 -36 63 -92 63c-32 0 -65 -5 -95 -15z" />
    <glyph glyph-name="Ecircumflexgrave" unicode="&#x1ec0;" horiz-adv-x="1171" 
d="M1059 258l-53 -258h-957l307 1443h957l-54 -258h-652l-74 -337h615l-49 -239h-615l-78 -351h653zM778 1822h231l208 -284h-215l-117 167h-7l-190 -167h-239zM1264 1882h-202l-162 252h232z" />
    <glyph glyph-name="Ecircumflextilde" unicode="&#x1ec4;" horiz-adv-x="1171" 
d="M1059 258l-53 -258h-957l307 1443h957l-54 -258h-652l-74 -337h615l-49 -239h-615l-78 -351h653zM1061 1877c-136 0 -174 123 -250 123c-43 0 -80 -38 -92 -104h-160c31 162 133 259 261 259c135 0 172 -123 249 -123c43 0 78 37 93 107h159
c-30 -160 -135 -262 -260 -262zM777 1818h231l209 -280h-215l-118 163h-7l-189 -163h-239z" />
    <glyph glyph-name="Ecircumflexdotbelow" unicode="&#x1ec6;" horiz-adv-x="1171" 
d="M1059 258l-53 -258h-957l307 1443h957l-54 -258h-652l-74 -337h615l-49 -239h-615l-78 -351h653zM1018 1866l201 -319h-215l-115 192h-7l-198 -192h-227l337 319h224zM482 -460c-84 0 -151 68 -151 151c0 82 67 151 151 151s150 -69 150 -151c0 -83 -66 -151 -150 -151z
" />
    <glyph glyph-name="Ecircumflexacute" unicode="&#x1ebe;" horiz-adv-x="1171" 
d="M1059 258l-53 -258h-957l307 1443h957l-54 -258h-652l-74 -337h615l-49 -239h-615l-78 -351h653zM778 1822h231l208 -284h-215l-117 167h-7l-190 -167h-239zM1020 1882l238 252h258l-268 -252h-228z" />
    <glyph glyph-name="Edieresis" unicode="&#xcb;" horiz-adv-x="1171" 
d="M1059 258l-53 -258h-957l307 1443h957l-54 -258h-652l-74 -337h615l-49 -239h-615l-78 -351h653zM679 1586c-73 0 -129 57 -129 127s56 127 129 127s130 -57 130 -127s-57 -127 -130 -127zM1074 1586c-73 0 -129 57 -129 127s56 127 129 127s130 -57 130 -127
s-57 -127 -130 -127z" />
    <glyph glyph-name="Edotbelow" unicode="&#x1eb8;" horiz-adv-x="1171" 
d="M1059 258l-53 -258h-957l307 1443h957l-54 -258h-652l-74 -337h615l-49 -239h-615l-78 -351h653zM482 -460c-84 0 -151 68 -151 151c0 82 67 151 151 151s150 -69 150 -151c0 -83 -66 -151 -150 -151z" />
    <glyph glyph-name="Einvertedbreve" unicode="&#x206;" horiz-adv-x="1171" 
d="M1059 258l-53 -258h-957l307 1443h957l-54 -258h-652l-74 -337h615l-49 -239h-615l-78 -351h653zM1199 1539h-178c3 10 6 24 6 38c0 81 -53 132 -146 132c-107 0 -189 -68 -214 -170h-184c44 185 197 321 425 321c187 0 299 -111 299 -256c0 -23 -3 -46 -8 -65z" />
    <glyph glyph-name="Ehookabove" unicode="&#x1eba;" horiz-adv-x="1171" 
d="M1059 258l-53 -258h-957l307 1443h957l-54 -258h-652l-74 -337h615l-49 -239h-615l-78 -351h653zM696 1787l30 135c32 13 87 22 130 22c132 0 216 -66 216 -166c0 -110 -95 -216 -241 -266l-62 112c73 22 122 65 122 113c0 40 -37 64 -95 64c-32 0 -72 -6 -100 -14z" />
    <glyph glyph-name="Ecaron" unicode="&#x11a;" horiz-adv-x="1171" 
d="M1059 258l-53 -258h-957l307 1443h957l-54 -258h-652l-74 -337h615l-49 -239h-615l-78 -351h653zM735 1547l-202 319h215l116 -192h7l197 192h227l-336 -319h-224z" />
    <glyph glyph-name="Emacron" unicode="&#x112;" horiz-adv-x="1171" 
d="M1059 258l-53 -258h-957l307 1443h957l-54 -258h-652l-74 -337h615l-49 -239h-615l-78 -351h653zM1237 1770l-31 -151h-692l32 151h691z" />
    <glyph glyph-name="Emacrongrave" unicode="&#x1e14;" horiz-adv-x="1171" 
d="M1059 258l-53 -258h-957l307 1443h957l-54 -258h-652l-74 -337h615l-49 -239h-615l-78 -351h653zM1201 1600h-692l32 151h691zM1021 1882h-202l-162 252h232z" />
    <glyph glyph-name="Emacronacute" unicode="&#x1e16;" horiz-adv-x="1171" 
d="M1059 258l-53 -258h-957l307 1443h957l-54 -258h-652l-74 -337h615l-49 -239h-615l-78 -351h653zM1201 1600h-692l32 151h691zM798 1882l238 252h258l-268 -252h-228z" />
    <glyph glyph-name="Etilde" unicode="&#x1ebc;" horiz-adv-x="1171" 
d="M1059 258l-53 -258h-957l307 1443h957l-54 -258h-652l-74 -337h615l-49 -239h-615l-78 -351h653zM1006 1546c-139 0 -170 134 -249 134c-43 0 -80 -43 -97 -119h-161c33 169 135 275 262 275c144 0 172 -133 249 -133c42 0 77 41 96 122h162
c-36 -169 -138 -279 -262 -279z" />
    <glyph glyph-name="Ecircumflexbelow" unicode="&#x1e18;" horiz-adv-x="1171" 
d="M1059 258l-53 -258h-957l307 1443h957l-54 -258h-652l-74 -337h615l-49 -239h-615l-78 -351h653zM620 -165l202 -319h-216l-115 192h-7l-198 -192h-227l337 319h224z" />
    <glyph glyph-name="Ebreve" unicode="&#x114;" horiz-adv-x="1171" 
d="M1059 258l-53 -258h-957l307 1443h957l-54 -258h-652l-74 -337h615l-49 -239h-615l-78 -351h653zM552 1860h179c-3 -12 -6 -26 -6 -40c0 -81 53 -130 146 -130c107 0 189 66 214 170h184c-44 -187 -197 -321 -425 -321c-187 0 -300 109 -300 254c0 23 3 46 8 67z" />
    <glyph glyph-name="Etildebelow" unicode="&#x1e1a;" horiz-adv-x="1171" 
d="M1059 258l-53 -258h-957l307 1443h957l-54 -258h-652l-74 -337h615l-49 -239h-615l-78 -351h653zM615 -455c-139 0 -170 134 -249 134c-43 0 -80 -43 -97 -119h-161c33 169 135 275 262 275c144 0 172 -133 249 -133c42 0 77 41 96 122h162c-36 -169 -138 -279 -262 -279
z" />
    <glyph glyph-name="Edotaccent" unicode="&#x116;" horiz-adv-x="1171" 
d="M1059 258l-53 -258h-957l307 1443h957l-54 -258h-652l-74 -337h615l-49 -239h-615l-78 -351h653zM886 1607c-84 0 -151 68 -151 151c0 82 67 151 151 151s150 -69 150 -151c0 -83 -66 -151 -150 -151z" />
    <glyph glyph-name="Ecedilla" unicode="&#x228;" horiz-adv-x="1171" 
d="M1259 1185h-652l-74 -337h615l-49 -239h-615l-78 -351h653l-53 -258h-376l-71 -105c104 -5 163 -58 163 -147c0 -128 -118 -219 -287 -219c-59 0 -123 9 -157 21l29 140c34 -11 80 -18 125 -18c76 0 118 20 118 57c0 36 -37 51 -133 51h-58l22 101l80 119h-412l307 1443
h957z" />
    <glyph glyph-name="Ecedillabreve" unicode="&#x1e1c;" horiz-adv-x="1171" 
d="M1085 1860h184c-44 -187 -197 -321 -425 -321c-187 0 -300 109 -300 254c0 23 3 46 8 67h179c-3 -12 -6 -26 -6 -40c0 -81 53 -130 146 -130c107 0 189 66 214 170zM1259 1185h-652l-74 -337h615l-49 -239h-615l-78 -351h653l-53 -258h-376l-71 -105
c104 -5 163 -58 163 -147c0 -128 -118 -219 -287 -219c-59 0 -123 9 -157 21l29 140c34 -11 80 -18 125 -18c76 0 118 20 118 57c0 36 -37 51 -133 51h-58l22 101l80 119h-412l307 1443h957z" />
    <glyph glyph-name="Eogonek" unicode="&#x118;" horiz-adv-x="1171" 
d="M49 0l307 1443h957l-54 -258h-652l-74 -337h615l-49 -239h-615l-78 -351h653l-51 -252l-35 -12c-143 -59 -231 -141 -231 -212c0 -47 37 -74 101 -74c27 0 57 4 73 11l-33 -159c-30 -15 -84 -24 -144 -24c-134 0 -224 73 -224 182c0 101 88 211 225 278l1 4h-692z" />
    <glyph glyph-name="F" unicode="F" horiz-adv-x="1127" 
d="M362 0h-313l307 1443h946l-54 -258h-632l-82 -376h576l-52 -247h-575z" />
    <glyph glyph-name="Fdotaccent" unicode="&#x1e1e;" horiz-adv-x="1127" 
d="M362 0h-313l307 1443h946l-54 -258h-632l-82 -376h576l-52 -247h-575zM894 1607c-84 0 -151 68 -151 151c0 82 67 151 151 151s150 -69 150 -151c0 -83 -66 -151 -150 -151z" />
    <glyph glyph-name="G" unicode="G" horiz-adv-x="1497" 
d="M1503 766l-36 -184c-73 -390 -329 -606 -695 -606c-381 0 -620 251 -620 624c0 454 282 867 779 867c354 0 588 -218 592 -485c0 -7 0 -17 -1 -24h-294c-10 149 -126 251 -303 251c-309 0 -465 -292 -465 -597c0 -228 119 -378 337 -378c181 0 325 115 362 281l6 25h-317
l47 226h608z" />
    <glyph glyph-name="Gacute" unicode="&#x1f4;" horiz-adv-x="1497" 
d="M1503 766l-36 -184c-73 -390 -329 -606 -695 -606c-381 0 -620 251 -620 624c0 454 282 867 779 867c354 0 588 -218 592 -485c0 -7 0 -17 -1 -24h-294c-10 149 -126 251 -303 251c-309 0 -465 -292 -465 -597c0 -228 119 -378 337 -378c181 0 325 115 362 281l6 25h-317
l47 226h608zM1075 1557h-242l291 307h283z" />
    <glyph glyph-name="Gcaron" unicode="&#x1e6;" horiz-adv-x="1497" 
d="M1503 766l-36 -184c-73 -390 -329 -606 -695 -606c-381 0 -620 251 -620 624c0 454 282 867 779 867c354 0 588 -218 592 -485c0 -7 0 -17 -1 -24h-294c-10 149 -126 251 -303 251c-309 0 -465 -292 -465 -597c0 -228 119 -378 337 -378c181 0 325 115 362 281l6 25h-317
l47 226h608zM841 1547l-202 319h215l116 -192h7l197 192h227l-336 -319h-224z" />
    <glyph glyph-name="Gcircumflex" unicode="&#x11c;" horiz-adv-x="1497" 
d="M1503 766l-36 -184c-73 -390 -329 -606 -695 -606c-381 0 -620 251 -620 624c0 454 282 867 779 867c354 0 588 -218 592 -485c0 -7 0 -17 -1 -24h-294c-10 149 -126 251 -303 251c-309 0 -465 -292 -465 -597c0 -228 119 -378 337 -378c181 0 325 115 362 281l6 25h-317
l47 226h608zM1124 1866l201 -319h-215l-115 192h-7l-198 -192h-227l337 319h224z" />
    <glyph glyph-name="Gbreve" unicode="&#x11e;" horiz-adv-x="1497" 
d="M1503 766l-36 -184c-73 -390 -329 -606 -695 -606c-381 0 -620 251 -620 624c0 454 282 867 779 867c354 0 588 -218 592 -485c0 -7 0 -17 -1 -24h-294c-10 149 -126 251 -303 251c-309 0 -465 -292 -465 -597c0 -228 119 -378 337 -378c181 0 325 115 362 281l6 25h-317
l47 226h608zM658 1860h179c-3 -12 -6 -26 -6 -40c0 -81 53 -130 146 -130c107 0 189 66 214 170h184c-44 -187 -197 -321 -425 -321c-187 0 -300 109 -300 254c0 23 3 46 8 67z" />
    <glyph glyph-name="Gmacron" unicode="&#x1e20;" horiz-adv-x="1497" 
d="M1503 766l-36 -184c-73 -390 -329 -606 -695 -606c-381 0 -620 251 -620 624c0 454 282 867 779 867c354 0 588 -218 592 -485c0 -7 0 -17 -1 -24h-294c-10 149 -126 251 -303 251c-309 0 -465 -292 -465 -597c0 -228 119 -378 337 -378c181 0 325 115 362 281l6 25h-317
l47 226h608zM1343 1770l-31 -151h-692l32 151h691z" />
    <glyph glyph-name="Gdotaccent" unicode="&#x120;" horiz-adv-x="1497" 
d="M1503 766l-36 -184c-73 -390 -329 -606 -695 -606c-381 0 -620 251 -620 624c0 454 282 867 779 867c354 0 588 -218 592 -485c0 -7 0 -17 -1 -24h-294c-10 149 -126 251 -303 251c-309 0 -465 -292 -465 -597c0 -228 119 -378 337 -378c181 0 325 115 362 281l6 25h-317
l47 226h608zM993 1607c-84 0 -151 68 -151 151c0 82 67 151 151 151s150 -69 150 -151c0 -83 -66 -151 -150 -151z" />
    <glyph glyph-name="Gcommaaccent" unicode="&#x122;" horiz-adv-x="1497" 
d="M1503 766l-36 -184c-73 -390 -329 -606 -695 -606c-381 0 -620 251 -620 624c0 454 282 867 779 867c354 0 588 -218 592 -485c0 -7 0 -17 -1 -24h-294c-10 149 -126 251 -303 251c-309 0 -465 -292 -465 -597c0 -228 119 -378 337 -378c181 0 325 115 362 281l6 25h-317
l47 226h608zM627 -475h-221l201 338h261z" />
    <glyph glyph-name="H" unicode="H" horiz-adv-x="1504" 
d="M1305 0h-309l130 605h-638l-130 -605h-309l307 1443h309l-125 -584h638l125 584h309z" />
    <glyph glyph-name="Hdieresis" unicode="&#x1e26;" horiz-adv-x="1504" 
d="M1305 0h-309l130 605h-638l-130 -605h-309l307 1443h309l-125 -584h638l125 584h309zM838 1586c-73 0 -129 57 -129 127s56 127 129 127s130 -57 130 -127s-57 -127 -130 -127zM1233 1586c-73 0 -129 57 -129 127s56 127 129 127s130 -57 130 -127s-57 -127 -130 -127z
" />
    <glyph glyph-name="Hcaron" unicode="&#x21e;" horiz-adv-x="1504" 
d="M1305 0h-309l130 605h-638l-130 -605h-309l307 1443h309l-125 -584h638l125 584h309zM894 1547l-202 319h215l116 -192h7l197 192h227l-336 -319h-224z" />
    <glyph glyph-name="Hcircumflex" unicode="&#x124;" horiz-adv-x="1504" 
d="M1305 0h-309l130 605h-638l-130 -605h-309l307 1443h309l-125 -584h638l125 584h309zM1177 1866l201 -319h-215l-115 192h-7l-198 -192h-227l337 319h224z" />
    <glyph glyph-name="Hdotbelow" unicode="&#x1e24;" horiz-adv-x="1504" 
d="M1305 0h-309l130 605h-638l-130 -605h-309l307 1443h309l-125 -584h638l125 584h309zM624 -460c-84 0 -151 68 -151 151c0 82 67 151 151 151s150 -69 150 -151c0 -83 -66 -151 -150 -151z" />
    <glyph glyph-name="Hdotaccent" unicode="&#x1e22;" horiz-adv-x="1504" 
d="M1305 0h-309l130 605h-638l-130 -605h-309l307 1443h309l-125 -584h638l125 584h309zM1045 1607c-84 0 -151 68 -151 151c0 82 67 151 151 151s150 -69 150 -151c0 -83 -66 -151 -150 -151z" />
    <glyph glyph-name="Hbrevebelow" unicode="&#x1e2a;" horiz-adv-x="1504" 
d="M1305 0h-309l130 605h-638l-130 -605h-309l307 1443h309l-125 -584h638l125 584h309zM301 -148h178c-3 -13 -5 -27 -5 -41c0 -80 53 -130 145 -130c107 0 190 67 215 171h184c-44 -188 -197 -322 -425 -322c-187 0 -300 109 -300 254c0 24 3 47 8 68z" />
    <glyph glyph-name="Hcedilla" unicode="&#x1e28;" horiz-adv-x="1504" 
d="M1303 1443h309l-307 -1443h-309l130 605h-638l-128 -597l-1 -8l-71 -105c104 -5 163 -58 163 -147c0 -128 -118 -219 -287 -219c-59 0 -123 9 -157 21l29 140c34 -11 80 -18 125 -18c76 0 118 20 118 57c0 36 -37 51 -133 51h-58l22 101l80 119h-141l307 1443h309
l-125 -584h638z" />
    <glyph glyph-name="Hbar" unicode="&#x126;" horiz-adv-x="1504" 
d="M1178 859l40 188h-638l-40 -188h638zM1679 1268l-46 -221h-105l-223 -1047h-309l130 605h-638l-130 -605h-309l223 1047h-107l45 221h109l37 175h309l-37 -175h638l37 175h309l-37 -175h104z" />
    <glyph glyph-name="I" unicode="I" horiz-adv-x="552" 
d="M353 0h-304l307 1443h304z" />
    <glyph glyph-name="Idotaccent" unicode="&#x130;" horiz-adv-x="552" 
d="M353 0h-304l307 1443h304zM574 1607c-84 0 -151 68 -151 151c0 82 67 151 151 151s150 -69 150 -151c0 -83 -66 -151 -150 -151z" />
    <glyph glyph-name="Igrave" unicode="&#xcc;" horiz-adv-x="552" 
d="M353 0h-304l307 1443h304zM419 1557l-203 307h258l161 -307h-216z" />
    <glyph glyph-name="Idblgrave" unicode="&#x208;" horiz-adv-x="552" 
d="M353 0h-304l307 1443h304zM229 1557l-203 307h258l161 -307h-216zM624 1557l-202 307h257l161 -307h-216z" />
    <glyph glyph-name="Iacute" unicode="&#xcd;" horiz-adv-x="552" 
d="M353 0h-304l307 1443h304zM656 1557h-242l291 307h283z" />
    <glyph glyph-name="Icircumflex" unicode="&#xce;" horiz-adv-x="552" 
d="M353 0h-304l307 1443h304zM705 1866l201 -319h-215l-115 192h-7l-198 -192h-227l337 319h224z" />
    <glyph glyph-name="Icaron" unicode="&#x1cf;" horiz-adv-x="552" 
d="M353 0h-304l307 1443h304zM422 1547l-202 319h215l116 -192h7l197 192h227l-336 -319h-224z" />
    <glyph glyph-name="Idieresis" unicode="&#xcf;" horiz-adv-x="552" 
d="M353 0h-304l307 1443h304zM366 1586c-73 0 -129 57 -129 127s56 127 129 127s130 -57 130 -127s-57 -127 -130 -127zM761 1586c-73 0 -129 57 -129 127s56 127 129 127s130 -57 130 -127s-57 -127 -130 -127z" />
    <glyph glyph-name="Idieresisacute" unicode="&#x1e2e;" horiz-adv-x="552" 
d="M353 0h-304l307 1443h304zM472 1882l238 252h258l-268 -252h-228zM367 1557c-72 0 -128 56 -128 125s56 125 128 125c71 0 126 -56 126 -125s-55 -125 -126 -125zM753 1557c-72 0 -127 56 -127 125s55 125 127 125s127 -56 127 -125s-55 -125 -127 -125z" />
    <glyph glyph-name="Ibreve" unicode="&#x12c;" horiz-adv-x="552" 
d="M353 0h-304l307 1443h304zM239 1860h179c-3 -12 -6 -26 -6 -40c0 -81 53 -130 146 -130c107 0 189 66 214 170h184c-44 -187 -197 -321 -425 -321c-187 0 -300 109 -300 254c0 23 3 46 8 67z" />
    <glyph glyph-name="Idotbelow" unicode="&#x1eca;" horiz-adv-x="552" 
d="M353 0h-304l307 1443h304zM134 -460c-84 0 -151 68 -151 151c0 82 67 151 151 151s150 -69 150 -151c0 -83 -66 -151 -150 -151z" />
    <glyph glyph-name="Iinvertedbreve" unicode="&#x20a;" horiz-adv-x="552" 
d="M353 0h-304l307 1443h304zM886 1539h-178c3 10 6 24 6 38c0 81 -53 132 -146 132c-107 0 -189 -68 -214 -170h-184c44 185 197 321 425 321c187 0 299 -111 299 -256c0 -23 -3 -46 -8 -65z" />
    <glyph glyph-name="Imacron" unicode="&#x12a;" horiz-adv-x="552" 
d="M353 0h-304l307 1443h304zM924 1770l-31 -151h-692l32 151h691z" />
    <glyph glyph-name="Itildebelow" unicode="&#x1e2c;" horiz-adv-x="552" 
d="M353 0h-304l307 1443h304zM267 -455c-139 0 -170 134 -249 134c-43 0 -80 -43 -97 -119h-161c33 169 135 275 262 275c144 0 172 -133 249 -133c42 0 77 41 96 122h162c-36 -169 -138 -279 -262 -279z" />
    <glyph glyph-name="Ihookabove" unicode="&#x1ec8;" horiz-adv-x="552" 
d="M353 0h-304l307 1443h304zM383 1787l30 135c32 13 87 22 130 22c132 0 216 -66 216 -166c0 -110 -95 -216 -241 -266l-62 112c73 22 122 65 122 113c0 40 -37 64 -95 64c-32 0 -72 -6 -100 -14z" />
    <glyph glyph-name="Itilde" unicode="&#x128;" horiz-adv-x="552" 
d="M353 0h-304l307 1443h304zM693 1546c-139 0 -170 134 -249 134c-43 0 -80 -43 -97 -119h-161c33 169 135 275 262 275c144 0 172 -133 249 -133c42 0 77 41 96 122h162c-36 -169 -138 -279 -262 -279z" />
    <glyph glyph-name="Iogonek" unicode="&#x12e;" horiz-adv-x="552" 
d="M131 -464c-134 0 -224 73 -224 183c0 87 59 180 173 271l-33 2l309 1451h304l-305 -1435l-29 -12c-125 -63 -192 -142 -192 -211c0 -49 38 -77 101 -77c29 0 59 4 73 11l-33 -159c-30 -15 -84 -24 -144 -24z" />
    <glyph glyph-name="I.1" horiz-adv-x="994" 
d="M1100 1197h-271l-203 -951h269l-51 -246h-270h-304h-270l51 246h271l203 951h-269l51 246h270h304h270z" />
    <glyph glyph-name="Idotaccent.1" horiz-adv-x="994" 
d="M793 1607c-84 0 -151 68 -151 151c0 82 67 151 151 151s150 -69 150 -151c0 -83 -66 -151 -150 -151zM1100 1197h-271l-203 -951h269l-51 -246h-270h-304h-270l51 246h271l203 951h-269l51 246h270h304h270z" />
    <glyph glyph-name="Igrave.1" horiz-adv-x="994" 
d="M855 1557h-216l-203 307h258zM1100 1197h-271l-203 -951h269l-51 -246h-270h-304h-270l51 246h271l203 951h-269l51 246h270h304h270z" />
    <glyph glyph-name="Idblgrave.1" horiz-adv-x="994" 
d="M1060 1557h-216l-202 307h257zM665 1557h-216l-203 307h258zM1100 1197h-271l-203 -951h269l-51 -246h-270h-304h-270l51 246h271l203 951h-269l51 246h270h304h270z" />
    <glyph glyph-name="Iacute.1" horiz-adv-x="994" 
d="M1208 1864l-332 -307h-242l291 307h283zM577 1443h304h270l-51 -246h-271l-203 -951h269l-51 -246h-270h-304h-270l51 246h271l203 951h-269l51 246h270z" />
    <glyph glyph-name="Icircumflex.1" horiz-adv-x="994" 
d="M789 1739l-198 -192h-227l337 319h224l201 -319h-215l-115 192h-7zM1100 1197h-271l-203 -951h269l-51 -246h-270h-304h-270l51 246h271l203 951h-269l51 246h270h304h270z" />
    <glyph glyph-name="Icaron.1" horiz-adv-x="994" 
d="M866 1547h-224l-202 319h215l116 -192h7l197 192h227zM577 1443h304h270l-51 -246h-271l-203 -951h269l-51 -246h-270h-304h-270l51 246h271l203 951h-269l51 246h270z" />
    <glyph glyph-name="Idieresis.1" horiz-adv-x="994" 
d="M981 1586c-73 0 -129 57 -129 127s56 127 129 127s130 -57 130 -127s-57 -127 -130 -127zM586 1586c-73 0 -129 57 -129 127s56 127 129 127s130 -57 130 -127s-57 -127 -130 -127zM1100 1197h-271l-203 -951h269l-51 -246h-270h-304h-270l51 246h271l203 951h-269
l51 246h270h304h270z" />
    <glyph glyph-name="Idieresisacute.1" horiz-adv-x="994" 
d="M1188 2134l-268 -252h-228l238 252h258zM846 1682c0 69 55 125 127 125s127 -56 127 -125s-55 -125 -127 -125s-127 56 -127 125zM587 1557c-72 0 -128 56 -128 125s56 125 128 125c71 0 126 -56 126 -125s-55 -125 -126 -125zM577 1443h304h270l-51 -246h-271l-203 -951
h269l-51 -246h-270h-304h-270l51 246h271l203 951h-269l51 246h270z" />
    <glyph glyph-name="Ibreve.1" horiz-adv-x="994" 
d="M992 1860h184c-44 -187 -197 -321 -425 -321c-187 0 -300 109 -300 254c0 23 3 46 8 67h179c-3 -12 -6 -26 -6 -40c0 -81 53 -130 146 -130c107 0 189 66 214 170zM577 1443h304h270l-51 -246h-271l-203 -951h269l-51 -246h-270h-304h-270l51 246h271l203 951h-269
l51 246h270z" />
    <glyph glyph-name="Idotbelow.1" horiz-adv-x="994" 
d="M355 -158c84 0 150 -69 150 -151c0 -83 -66 -151 -150 -151s-151 68 -151 151c0 82 67 151 151 151zM1100 1197h-271l-203 -951h269l-51 -246h-270h-304h-270l51 246h271l203 951h-269l51 246h270h304h270z" />
    <glyph glyph-name="Iinvertedbreve.1" horiz-adv-x="994" 
d="M1106 1539h-178c3 10 6 24 6 38c0 81 -53 132 -146 132c-107 0 -189 -68 -214 -170h-184c44 185 197 321 425 321c187 0 299 -111 299 -256c0 -23 -3 -46 -8 -65zM1100 1197h-271l-203 -951h269l-51 -246h-270h-304h-270l51 246h271l203 951h-269l51 246h270h304h270z
" />
    <glyph glyph-name="Imacron.1" horiz-adv-x="994" 
d="M1144 1770l-31 -151h-692l32 151h691zM1100 1197h-271l-203 -951h269l-51 -246h-270h-304h-270l51 246h271l203 951h-269l51 246h270h304h270z" />
    <glyph glyph-name="Itildebelow.1" horiz-adv-x="994" 
d="M142 -440h-161c33 169 135 275 262 275c144 0 172 -133 249 -133c42 0 77 41 96 122h162c-36 -169 -138 -279 -262 -279c-139 0 -170 134 -249 134c-43 0 -80 -43 -97 -119zM1100 1197h-271l-203 -951h269l-51 -246h-270h-304h-270l51 246h271l203 951h-269l51 246h270
h304h270z" />
    <glyph glyph-name="Ihookabove.1" horiz-adv-x="994" 
d="M738 1512l-62 112c73 22 122 65 122 113c0 40 -37 64 -95 64c-32 0 -72 -6 -100 -14l30 135c32 13 87 22 130 22c132 0 216 -66 216 -166c0 -110 -95 -216 -241 -266zM1100 1197h-271l-203 -951h269l-51 -246h-270h-304h-270l51 246h271l203 951h-269l51 246h270h304h270
z" />
    <glyph glyph-name="Itilde.1" horiz-adv-x="994" 
d="M1013 1825h162c-36 -169 -138 -279 -262 -279c-139 0 -170 134 -249 134c-43 0 -80 -43 -97 -119h-161c33 169 135 275 262 275c144 0 172 -133 249 -133c42 0 77 41 96 122zM577 1443h304h270l-51 -246h-271l-203 -951h269l-51 -246h-270h-304h-270l51 246h271l203 951
h-269l51 246h270z" />
    <glyph glyph-name="Iogonek.1" horiz-adv-x="994" 
d="M256 1197l51 246h844l-51 -246h-270l-206 -951h271l-49 -240l-35 -12c-135 -57 -231 -136 -231 -212c0 -46 36 -74 101 -74c29 0 58 5 73 11l-33 -159c-30 -15 -83 -24 -144 -24c-131 0 -224 71 -224 182c0 102 90 211 225 278l1 4h-579l51 246h269l206 951h-270z" />
    <glyph glyph-name="J" unicode="J" horiz-adv-x="1143" 
d="M52 387c0 14 0 35 1 49h293v-12c0 -107 68 -174 180 -174s180 69 211 209l210 984h304l-220 -1029c-59 -283 -237 -439 -516 -439c-276 0 -463 169 -463 412z" />
    <glyph glyph-name="Jcircumflex" unicode="&#x134;" horiz-adv-x="1143" 
d="M52 387c0 14 0 35 1 49h293v-12c0 -107 68 -174 180 -174s180 69 211 209l210 984h304l-220 -1029c-59 -283 -237 -439 -516 -439c-276 0 -463 169 -463 412zM1296 1866l201 -319h-215l-115 192h-7l-198 -192h-227l337 319h224z" />
    <glyph glyph-name="K" unicode="K" horiz-adv-x="1358" 
d="M353 0h-304l307 1443h304l-137 -640h6l668 640h359l-679 -663l391 -780h-337l-302 599l-184 -174z" />
    <glyph glyph-name="Kacute" unicode="&#x1e30;" horiz-adv-x="1358" 
d="M353 0h-304l307 1443h304l-137 -640h6l668 640h359l-679 -663l391 -780h-337l-302 599l-184 -174zM1046 1557h-242l291 307h283z" />
    <glyph glyph-name="Kcaron" unicode="&#x1e8;" horiz-adv-x="1358" 
d="M353 0h-304l307 1443h304l-137 -640h6l668 640h359l-679 -663l391 -780h-337l-302 599l-184 -174zM812 1547l-202 319h215l116 -192h7l197 192h227l-336 -319h-224z" />
    <glyph glyph-name="Kdotbelow" unicode="&#x1e32;" horiz-adv-x="1358" 
d="M353 0h-304l307 1443h304l-137 -640h6l668 640h359l-679 -663l391 -780h-337l-302 599l-184 -174zM561 -460c-84 0 -151 68 -151 151c0 82 67 151 151 151s150 -69 150 -151c0 -83 -66 -151 -150 -151z" />
    <glyph glyph-name="Klinebelow" unicode="&#x1e34;" horiz-adv-x="1358" 
d="M353 0h-304l307 1443h304l-137 -640h6l668 640h359l-679 -663l391 -780h-337l-302 599l-184 -174zM924 -233l-31 -151h-692l32 151h691z" />
    <glyph glyph-name="Kcommaaccent" unicode="&#x136;" horiz-adv-x="1358" 
d="M353 0h-304l307 1443h304l-137 -640h6l668 640h359l-679 -663l391 -780h-337l-302 599l-184 -174zM470 -475h-221l201 338h261z" />
    <glyph glyph-name="L" unicode="L" horiz-adv-x="1116" 
d="M1048 263l-54 -263h-945l307 1443h304l-252 -1180h640z" />
    <glyph glyph-name="Lacute" unicode="&#x139;" horiz-adv-x="1116" 
d="M1048 263l-54 -263h-945l307 1443h304l-252 -1180h640zM656 1557h-242l291 307h283z" />
    <glyph glyph-name="Lcircumflexbelow" unicode="&#x1e3c;" horiz-adv-x="1116" 
d="M1048 263l-54 -263h-945l307 1443h304l-252 -1180h640zM601 -165l202 -319h-216l-115 192h-7l-198 -192h-227l337 319h224z" />
    <glyph glyph-name="Ldotbelow" unicode="&#x1e36;" horiz-adv-x="1116" 
d="M1048 263l-54 -263h-945l307 1443h304l-252 -1180h640zM463 -460c-84 0 -151 68 -151 151c0 82 67 151 151 151s150 -69 150 -151c0 -83 -66 -151 -150 -151z" />
    <glyph glyph-name="Ldotbelowmacron" unicode="&#x1e38;" horiz-adv-x="1116" 
d="M1048 263l-54 -263h-945l307 1443h304l-252 -1180h640zM463 -460c-84 0 -151 68 -151 151c0 82 67 151 151 151s150 -69 150 -151c0 -83 -66 -151 -150 -151zM924 1770l-31 -151h-692l32 151h691z" />
    <glyph glyph-name="Llinebelow" unicode="&#x1e3a;" horiz-adv-x="1116" 
d="M1048 263l-54 -263h-945l307 1443h304l-252 -1180h640zM826 -233l-31 -151h-692l32 151h691z" />
    <glyph glyph-name="Lcommaaccent" unicode="&#x13b;" horiz-adv-x="1116" 
d="M1048 263l-54 -263h-945l307 1443h304l-252 -1180h640zM372 -475h-221l201 338h261z" />
    <glyph glyph-name="Lcaron" unicode="&#x13d;" horiz-adv-x="1116" 
d="M937 1443h246l-157 -504h-196zM1048 263l-54 -263h-945l307 1443h304l-252 -1180h640z" />
    <glyph glyph-name="Lslash" unicode="&#x141;" horiz-adv-x="1116" 
d="M408 263h640l-54 -263h-945l103 482l-137 -64l54 260l138 65l149 700h304l-116 -541l300 141l-54 -260l-301 -142z" />
    <glyph glyph-name="M" unicode="M" horiz-adv-x="1778" 
d="M322 0h-272l306 1443h346l181 -1045h6l620 1045h377l-307 -1443h-272l217 1005h-10l-600 -1000h-199l-171 1000h-7z" />
    <glyph glyph-name="Macute" unicode="&#x1e3e;" horiz-adv-x="1778" 
d="M322 0h-272l306 1443h346l181 -1045h6l620 1045h377l-307 -1443h-272l217 1005h-10l-600 -1000h-199l-171 1000h-7zM1225 1557h-242l291 307h283z" />
    <glyph glyph-name="Mdotaccent" unicode="&#x1e40;" horiz-adv-x="1778" 
d="M322 0h-272l306 1443h346l181 -1045h6l620 1045h377l-307 -1443h-272l217 1005h-10l-600 -1000h-199l-171 1000h-7zM1143 1607c-84 0 -151 68 -151 151c0 82 67 151 151 151s150 -69 150 -151c0 -83 -66 -151 -150 -151z" />
    <glyph glyph-name="Mdotbelow" unicode="&#x1e42;" horiz-adv-x="1778" 
d="M322 0h-272l306 1443h346l181 -1045h6l620 1045h377l-307 -1443h-272l217 1005h-10l-600 -1000h-199l-171 1000h-7zM749 -460c-84 0 -151 68 -151 151c0 82 67 151 151 151s150 -69 150 -151c0 -83 -66 -151 -150 -151z" />
    <glyph glyph-name="N" unicode="N" horiz-adv-x="1472" 
d="M344 0h-295l307 1443h252l463 -963h6l208 963h295l-307 -1443h-252l-463 963h-6z" />
    <glyph glyph-name="Ngrave" unicode="&#x1f8;" horiz-adv-x="1472" 
d="M344 0h-295l307 1443h252l463 -963h6l208 963h295l-307 -1443h-252l-463 963h-6zM861 1557l-203 307h258l161 -307h-216z" />
    <glyph glyph-name="Nacute" unicode="&#x143;" horiz-adv-x="1472" 
d="M344 0h-295l307 1443h252l463 -963h6l208 963h295l-307 -1443h-252l-463 963h-6zM1098 1557h-242l291 307h283z" />
    <glyph glyph-name="Ntilde" unicode="&#xd1;" horiz-adv-x="1472" 
d="M344 0h-295l307 1443h252l463 -963h6l208 963h295l-307 -1443h-252l-463 963h-6zM1135 1546c-139 0 -170 134 -249 134c-43 0 -80 -43 -97 -119h-161c33 169 135 275 262 275c144 0 172 -133 249 -133c42 0 77 41 96 122h162c-36 -169 -138 -279 -262 -279z" />
    <glyph glyph-name="Ndotbelow" unicode="&#x1e46;" horiz-adv-x="1472" 
d="M344 0h-295l307 1443h252l463 -963h6l208 963h295l-307 -1443h-252l-463 963h-6zM612 -460c-84 0 -151 68 -151 151c0 82 67 151 151 151s150 -69 150 -151c0 -83 -66 -151 -150 -151z" />
    <glyph glyph-name="Ndotaccent" unicode="&#x1e44;" horiz-adv-x="1472" 
d="M344 0h-295l307 1443h252l463 -963h6l208 963h295l-307 -1443h-252l-463 963h-6zM1015 1607c-84 0 -151 68 -151 151c0 82 67 151 151 151s150 -69 150 -151c0 -83 -66 -151 -150 -151z" />
    <glyph glyph-name="Ncaron" unicode="&#x147;" horiz-adv-x="1472" 
d="M344 0h-295l307 1443h252l463 -963h6l208 963h295l-307 -1443h-252l-463 963h-6zM864 1547l-202 319h215l116 -192h7l197 192h227l-336 -319h-224z" />
    <glyph glyph-name="Ncircumflexbelow" unicode="&#x1e4a;" horiz-adv-x="1472" 
d="M344 0h-295l307 1443h252l463 -963h6l208 963h295l-307 -1443h-252l-463 963h-6zM750 -165l202 -319h-216l-115 192h-7l-198 -192h-227l337 319h224z" />
    <glyph glyph-name="Nlinebelow" unicode="&#x1e48;" horiz-adv-x="1472" 
d="M344 0h-295l307 1443h252l463 -963h6l208 963h295l-307 -1443h-252l-463 963h-6zM975 -233l-31 -151h-692l32 151h691z" />
    <glyph glyph-name="Ncommaaccent" unicode="&#x145;" horiz-adv-x="1472" 
d="M344 0h-295l307 1443h252l463 -963h6l208 963h295l-307 -1443h-252l-463 963h-6zM521 -475h-221l201 338h261z" />
    <glyph glyph-name="O" unicode="O" horiz-adv-x="1552" 
d="M922 1207c-265 0 -463 -266 -463 -593c0 -230 129 -378 328 -378c265 0 463 266 463 594c0 230 -129 377 -328 377zM781 -24c-387 0 -629 257 -629 621c0 503 335 870 775 870c392 0 631 -258 631 -621c0 -504 -338 -870 -777 -870z" />
    <glyph glyph-name="Odieresis" unicode="&#xd6;" horiz-adv-x="1552" 
d="M922 1207c-265 0 -463 -266 -463 -593c0 -230 129 -378 328 -378c265 0 463 266 463 594c0 230 -129 377 -328 377zM781 -24c-387 0 -629 257 -629 621c0 503 335 870 775 870c392 0 631 -258 631 -621c0 -504 -338 -870 -777 -870zM800 1586c-73 0 -129 57 -129 127
s56 127 129 127s130 -57 130 -127s-57 -127 -130 -127zM1195 1586c-73 0 -129 57 -129 127s56 127 129 127s130 -57 130 -127s-57 -127 -130 -127z" />
    <glyph glyph-name="Oslash" unicode="&#xd8;" horiz-adv-x="1552" 
d="M1233 966l-656 -656c54 -48 126 -74 210 -74c265 0 463 266 463 594c0 50 -6 95 -17 136zM477 477l656 656c-55 48 -127 74 -211 74c-265 0 -463 -266 -463 -593c0 -50 6 -96 18 -137zM1616 1350l-152 -152c61 -98 94 -218 94 -352c0 -504 -338 -870 -777 -870
c-165 0 -304 47 -409 129l-147 -147l-132 135l153 153c-61 97 -94 217 -94 351c0 503 335 870 775 870c167 0 306 -47 411 -129l147 147z" />
    <glyph glyph-name="Otilde" unicode="&#xd5;" horiz-adv-x="1552" 
d="M922 1207c-265 0 -463 -266 -463 -593c0 -230 129 -378 328 -378c265 0 463 266 463 594c0 230 -129 377 -328 377zM781 -24c-387 0 -629 257 -629 621c0 503 335 870 775 870c392 0 631 -258 631 -621c0 -504 -338 -870 -777 -870zM1127 1546c-139 0 -170 134 -249 134
c-43 0 -80 -43 -97 -119h-161c33 169 135 275 262 275c144 0 172 -133 249 -133c42 0 77 41 96 122h162c-36 -169 -138 -279 -262 -279z" />
    <glyph glyph-name="Oacute" unicode="&#xd3;" horiz-adv-x="1552" 
d="M922 1207c-265 0 -463 -266 -463 -593c0 -230 129 -378 328 -378c265 0 463 266 463 594c0 230 -129 377 -328 377zM781 -24c-387 0 -629 257 -629 621c0 503 335 870 775 870c392 0 631 -258 631 -621c0 -504 -338 -870 -777 -870zM1090 1557h-242l291 307h283z" />
    <glyph glyph-name="Ocircumflex" unicode="&#xd4;" horiz-adv-x="1552" 
d="M922 1207c-265 0 -463 -266 -463 -593c0 -230 129 -378 328 -378c265 0 463 266 463 594c0 230 -129 377 -328 377zM781 -24c-387 0 -629 257 -629 621c0 503 335 870 775 870c392 0 631 -258 631 -621c0 -504 -338 -870 -777 -870zM1139 1866l201 -319h-215l-115 192h-7
l-198 -192h-227l337 319h224z" />
    <glyph glyph-name="Ograve" unicode="&#xd2;" horiz-adv-x="1552" 
d="M922 1207c-265 0 -463 -266 -463 -593c0 -230 129 -378 328 -378c265 0 463 266 463 594c0 230 -129 377 -328 377zM781 -24c-387 0 -629 257 -629 621c0 503 335 870 775 870c392 0 631 -258 631 -621c0 -504 -338 -870 -777 -870zM853 1557l-203 307h258l161 -307h-216
z" />
    <glyph glyph-name="Ocircumflexhookabove" unicode="&#x1ed4;" horiz-adv-x="1552" 
d="M922 1207c-265 0 -463 -266 -463 -593c0 -230 129 -378 328 -378c265 0 463 266 463 594c0 230 -129 377 -328 377zM781 -24c-387 0 -629 257 -629 621c0 503 335 870 775 870c392 0 631 -258 631 -621c0 -504 -338 -870 -777 -870zM899 1822h231l208 -284h-215l-117 167
h-7l-190 -167h-239zM1147 1988l30 131c30 13 83 21 126 21c127 0 208 -62 208 -160c0 -112 -84 -204 -206 -248l-70 105c58 18 99 56 99 103c0 38 -36 63 -92 63c-32 0 -65 -5 -95 -15z" />
    <glyph glyph-name="Ocircumflexgrave" unicode="&#x1ed2;" horiz-adv-x="1552" 
d="M922 1207c-265 0 -463 -266 -463 -593c0 -230 129 -378 328 -378c265 0 463 266 463 594c0 230 -129 377 -328 377zM781 -24c-387 0 -629 257 -629 621c0 503 335 870 775 870c392 0 631 -258 631 -621c0 -504 -338 -870 -777 -870zM899 1822h231l208 -284h-215l-117 167
h-7l-190 -167h-239zM1385 1882h-202l-162 252h232z" />
    <glyph glyph-name="Odotbelow" unicode="&#x1ecc;" horiz-adv-x="1552" 
d="M922 1207c-265 0 -463 -266 -463 -593c0 -230 129 -378 328 -378c265 0 463 266 463 594c0 230 -129 377 -328 377zM781 -24c-387 0 -629 257 -629 621c0 503 335 870 775 870c392 0 631 -258 631 -621c0 -504 -338 -870 -777 -870zM708 -460c-84 0 -151 68 -151 151
c0 82 67 151 151 151s150 -69 150 -151c0 -83 -66 -151 -150 -151z" />
    <glyph glyph-name="Odblgrave" unicode="&#x20c;" horiz-adv-x="1552" 
d="M922 1207c-265 0 -463 -266 -463 -593c0 -230 129 -378 328 -378c265 0 463 266 463 594c0 230 -129 377 -328 377zM781 -24c-387 0 -629 257 -629 621c0 503 335 870 775 870c392 0 631 -258 631 -621c0 -504 -338 -870 -777 -870zM663 1557l-203 307h258l161 -307h-216
zM1058 1557l-202 307h257l161 -307h-216z" />
    <glyph glyph-name="Otildeacute" unicode="&#x1e4c;" horiz-adv-x="1552" 
d="M922 1207c-265 0 -463 -266 -463 -593c0 -230 129 -378 328 -378c265 0 463 266 463 594c0 230 -129 377 -328 377zM781 -24c-387 0 -629 257 -629 621c0 503 335 870 775 870c392 0 631 -258 631 -621c0 -504 -338 -870 -777 -870zM921 1891l236 243h258l-266 -243h-228
zM1114 1538c-138 0 -175 134 -248 134c-43 0 -81 -43 -95 -114h-160c33 166 136 269 264 269c137 0 173 -134 247 -134c43 0 79 43 96 118h159c-33 -166 -138 -273 -263 -273z" />
    <glyph glyph-name="Omacronacute" unicode="&#x1e52;" horiz-adv-x="1552" 
d="M922 1207c-265 0 -463 -266 -463 -593c0 -230 129 -378 328 -378c265 0 463 266 463 594c0 230 -129 377 -328 377zM781 -24c-387 0 -629 257 -629 621c0 503 335 870 775 870c392 0 631 -258 631 -621c0 -504 -338 -870 -777 -870zM1322 1600h-692l32 151h691zM919 1882
l238 252h258l-268 -252h-228z" />
    <glyph glyph-name="Ocircumflextilde" unicode="&#x1ed6;" horiz-adv-x="1552" 
d="M922 1207c-265 0 -463 -266 -463 -593c0 -230 129 -378 328 -378c265 0 463 266 463 594c0 230 -129 377 -328 377zM781 -24c-387 0 -629 257 -629 621c0 503 335 870 775 870c392 0 631 -258 631 -621c0 -504 -338 -870 -777 -870zM1182 1877c-136 0 -174 123 -250 123
c-43 0 -80 -38 -92 -104h-160c31 162 133 259 261 259c135 0 172 -123 249 -123c43 0 78 37 93 107h159c-30 -160 -135 -262 -260 -262zM898 1818h231l209 -280h-215l-118 163h-7l-189 -163h-239z" />
    <glyph glyph-name="Odotaccentmacron" unicode="&#x230;" horiz-adv-x="1552" 
d="M922 1207c-265 0 -463 -266 -463 -593c0 -230 129 -378 328 -378c265 0 463 266 463 594c0 230 -129 377 -328 377zM781 -24c-387 0 -629 257 -629 621c0 503 335 870 775 870c392 0 631 -258 631 -621c0 -504 -338 -870 -777 -870zM995 1554c-79 0 -138 62 -138 137
c0 74 59 136 138 136s139 -62 139 -136c0 -75 -60 -137 -139 -137zM1423 2077l-32 -151h-692l33 151h691z" />
    <glyph glyph-name="Omacrongrave" unicode="&#x1e50;" horiz-adv-x="1552" 
d="M922 1207c-265 0 -463 -266 -463 -593c0 -230 129 -378 328 -378c265 0 463 266 463 594c0 230 -129 377 -328 377zM781 -24c-387 0 -629 257 -629 621c0 503 335 870 775 870c392 0 631 -258 631 -621c0 -504 -338 -870 -777 -870zM1322 1600h-692l32 151h691z
M1142 1882h-202l-162 252h232z" />
    <glyph glyph-name="Ocaron" unicode="&#x1d1;" horiz-adv-x="1552" 
d="M922 1207c-265 0 -463 -266 -463 -593c0 -230 129 -378 328 -378c265 0 463 266 463 594c0 230 -129 377 -328 377zM781 -24c-387 0 -629 257 -629 621c0 503 335 870 775 870c392 0 631 -258 631 -621c0 -504 -338 -870 -777 -870zM856 1547l-202 319h215l116 -192h7
l197 192h227l-336 -319h-224z" />
    <glyph glyph-name="Oslashacute" unicode="&#x1fe;" horiz-adv-x="1552" 
d="M1422 1864l-332 -307h-242l291 307h283zM1233 966l-656 -656c54 -48 126 -74 210 -74c265 0 463 266 463 594c0 50 -6 95 -17 136zM477 477l656 656c-55 48 -127 74 -211 74c-265 0 -463 -266 -463 -593c0 -50 6 -96 18 -137zM1616 1350l-152 -152
c61 -98 94 -218 94 -352c0 -504 -338 -870 -777 -870c-165 0 -304 47 -409 129l-147 -147l-132 135l153 153c-61 97 -94 217 -94 351c0 503 335 870 775 870c167 0 306 -47 411 -129l147 147z" />
    <glyph glyph-name="Ohungarumlaut" unicode="&#x150;" horiz-adv-x="1552" 
d="M922 1207c-265 0 -463 -266 -463 -593c0 -230 129 -378 328 -378c265 0 463 266 463 594c0 230 -129 377 -328 377zM781 -24c-387 0 -629 257 -629 621c0 503 335 870 775 870c392 0 631 -258 631 -621c0 -504 -338 -870 -777 -870zM1299 1557h-238l291 307h279z
M879 1557h-238l291 307h279z" />
    <glyph glyph-name="Obreve" unicode="&#x14e;" horiz-adv-x="1552" 
d="M922 1207c-265 0 -463 -266 -463 -593c0 -230 129 -378 328 -378c265 0 463 266 463 594c0 230 -129 377 -328 377zM781 -24c-387 0 -629 257 -629 621c0 503 335 870 775 870c392 0 631 -258 631 -621c0 -504 -338 -870 -777 -870zM673 1860h179c-3 -12 -6 -26 -6 -40
c0 -81 53 -130 146 -130c107 0 189 66 214 170h184c-44 -187 -197 -321 -425 -321c-187 0 -300 109 -300 254c0 23 3 46 8 67z" />
    <glyph glyph-name="Oinvertedbreve" unicode="&#x20e;" horiz-adv-x="1552" 
d="M922 1207c-265 0 -463 -266 -463 -593c0 -230 129 -378 328 -378c265 0 463 266 463 594c0 230 -129 377 -328 377zM781 -24c-387 0 -629 257 -629 621c0 503 335 870 775 870c392 0 631 -258 631 -621c0 -504 -338 -870 -777 -870zM1320 1539h-178c3 10 6 24 6 38
c0 81 -53 132 -146 132c-107 0 -189 -68 -214 -170h-184c44 185 197 321 425 321c187 0 299 -111 299 -256c0 -23 -3 -46 -8 -65z" />
    <glyph glyph-name="Ohookabove" unicode="&#x1ece;" horiz-adv-x="1552" 
d="M922 1207c-265 0 -463 -266 -463 -593c0 -230 129 -378 328 -378c265 0 463 266 463 594c0 230 -129 377 -328 377zM781 -24c-387 0 -629 257 -629 621c0 503 335 870 775 870c392 0 631 -258 631 -621c0 -504 -338 -870 -777 -870zM817 1787l30 135c32 13 87 22 130 22
c132 0 216 -66 216 -166c0 -110 -95 -216 -241 -266l-62 112c73 22 122 65 122 113c0 40 -37 64 -95 64c-32 0 -72 -6 -100 -14z" />
    <glyph glyph-name="Odieresismacron" unicode="&#x22a;" horiz-adv-x="1552" 
d="M922 1207c-265 0 -463 -266 -463 -593c0 -230 129 -378 328 -378c265 0 463 266 463 594c0 230 -129 377 -328 377zM781 -24c-387 0 -629 257 -629 621c0 503 335 870 775 870c392 0 631 -258 631 -621c0 -504 -338 -870 -777 -870zM793 1805c74 0 131 -58 131 -131
c0 -71 -57 -130 -131 -130c-75 0 -132 59 -132 130c0 73 57 131 132 131zM1423 2077l-32 -151h-691l32 151h691zM1192 1805c75 0 131 -58 131 -131c0 -71 -56 -130 -131 -130s-131 59 -131 130c0 73 56 131 131 131z" />
    <glyph glyph-name="Otildemacron" unicode="&#x22c;" horiz-adv-x="1552" 
d="M922 1207c-265 0 -463 -266 -463 -593c0 -230 129 -378 328 -378c265 0 463 266 463 594c0 230 -129 377 -328 377zM781 -24c-387 0 -629 257 -629 621c0 503 335 870 775 870c392 0 631 -258 631 -621c0 -504 -338 -870 -777 -870zM1423 2077l-32 -151h-692l33 151h691z
M1114 1538c-138 0 -175 134 -248 134c-43 0 -81 -43 -95 -114h-160c33 166 136 269 264 269c137 0 173 -134 247 -134c43 0 79 43 96 118h159c-33 -166 -138 -273 -263 -273z" />
    <glyph glyph-name="Odotaccent" unicode="&#x22e;" horiz-adv-x="1552" 
d="M922 1207c-265 0 -463 -266 -463 -593c0 -230 129 -378 328 -378c265 0 463 266 463 594c0 230 -129 377 -328 377zM781 -24c-387 0 -629 257 -629 621c0 503 335 870 775 870c392 0 631 -258 631 -621c0 -504 -338 -870 -777 -870zM1007 1607c-84 0 -151 68 -151 151
c0 82 67 151 151 151s150 -69 150 -151c0 -83 -66 -151 -150 -151z" />
    <glyph glyph-name="Ocircumflexdotbelow" unicode="&#x1ed8;" horiz-adv-x="1552" 
d="M922 1207c-265 0 -463 -266 -463 -593c0 -230 129 -378 328 -378c265 0 463 266 463 594c0 230 -129 377 -328 377zM781 -24c-387 0 -629 257 -629 621c0 503 335 870 775 870c392 0 631 -258 631 -621c0 -504 -338 -870 -777 -870zM1139 1866l201 -319h-215l-115 192h-7
l-198 -192h-227l337 319h224zM708 -460c-84 0 -151 68 -151 151c0 82 67 151 151 151s150 -69 150 -151c0 -83 -66 -151 -150 -151z" />
    <glyph glyph-name="Ocircumflexacute" unicode="&#x1ed0;" horiz-adv-x="1552" 
d="M922 1207c-265 0 -463 -266 -463 -593c0 -230 129 -378 328 -378c265 0 463 266 463 594c0 230 -129 377 -328 377zM781 -24c-387 0 -629 257 -629 621c0 503 335 870 775 870c392 0 631 -258 631 -621c0 -504 -338 -870 -777 -870zM899 1822h231l208 -284h-215l-117 167
h-7l-190 -167h-239zM1141 1882l238 252h258l-268 -252h-228z" />
    <glyph glyph-name="Otildedieresis" unicode="&#x1e4e;" horiz-adv-x="1552" 
d="M922 1207c-265 0 -463 -266 -463 -593c0 -230 129 -378 328 -378c265 0 463 266 463 594c0 230 -129 377 -328 377zM781 -24c-387 0 -629 257 -629 621c0 503 335 870 775 870c392 0 631 -258 631 -621c0 -504 -338 -870 -777 -870zM1114 1538c-138 0 -175 134 -248 134
c-43 0 -81 -43 -95 -114h-160c33 166 136 269 264 269c137 0 173 -134 247 -134c43 0 79 43 96 118h159c-33 -166 -138 -273 -263 -273zM867 2159c74 0 131 -58 131 -130s-57 -130 -131 -130c-75 0 -132 58 -132 130s57 130 132 130zM1266 2159c75 0 131 -58 131 -130
s-56 -130 -131 -130s-131 58 -131 130s56 130 131 130z" />
    <glyph glyph-name="Omacron" unicode="&#x14c;" horiz-adv-x="1552" 
d="M922 1207c-265 0 -463 -266 -463 -593c0 -230 129 -378 328 -378c265 0 463 266 463 594c0 230 -129 377 -328 377zM781 -24c-387 0 -629 257 -629 621c0 503 335 870 775 870c392 0 631 -258 631 -621c0 -504 -338 -870 -777 -870zM1358 1770l-31 -151h-692l32 151h691z
" />
    <glyph glyph-name="Oogonek" unicode="&#x1ea;" horiz-adv-x="1552" 
d="M1000 -440c-30 -15 -84 -24 -144 -24c-132 0 -224 71 -224 182c0 93 67 184 187 254v6c-12 -1 -26 -2 -38 -2c-387 0 -629 257 -629 621c0 503 335 870 775 870c392 0 631 -258 631 -621c0 -364 -192 -635 -441 -790c-121 -80 -259 -175 -259 -274c0 -46 36 -74 101 -74
c30 0 58 5 74 11zM1250 830c0 230 -129 377 -328 377c-265 0 -463 -266 -463 -593c0 -230 129 -378 328 -378c265 0 463 266 463 594z" />
    <glyph glyph-name="Oogonekmacron" unicode="&#x1ec;" horiz-adv-x="1552" 
d="M1000 -440c-30 -15 -84 -24 -144 -24c-132 0 -224 71 -224 182c0 93 67 184 187 254v6c-12 -1 -26 -2 -38 -2c-387 0 -629 257 -629 621c0 503 335 870 775 870c392 0 631 -258 631 -621c0 -364 -192 -635 -441 -790c-121 -80 -259 -175 -259 -274c0 -46 36 -74 101 -74
c30 0 58 5 74 11zM1250 830c0 230 -129 377 -328 377c-265 0 -463 -266 -463 -593c0 -230 129 -378 328 -378c265 0 463 266 463 594zM1358 1770l-31 -151h-692l32 151h691z" />
    <glyph glyph-name="Ohorn" unicode="&#x1a0;" horiz-adv-x="1552" 
d="M1250 830c0 230 -129 377 -328 377c-265 0 -463 -266 -463 -593c0 -230 129 -378 328 -378c265 0 463 266 463 594zM1558 846c0 -504 -338 -870 -777 -870c-387 0 -629 257 -629 621c0 503 335 870 775 870c294 0 362 -132 474 -132c65 0 95 27 109 95l37 178h232
l-55 -258c-26 -126 -109 -186 -201 -186c-17 0 -39 6 -45 10l-4 -7c55 -90 84 -201 84 -321z" />
    <glyph glyph-name="Ohorndotbelow" unicode="&#x1ee2;" horiz-adv-x="1552" 
d="M1250 830c0 230 -129 377 -328 377c-265 0 -463 -266 -463 -593c0 -230 129 -378 328 -378c265 0 463 266 463 594zM1558 846c0 -504 -338 -870 -777 -870c-387 0 -629 257 -629 621c0 503 335 870 775 870c294 0 362 -132 474 -132c65 0 95 27 109 95l37 178h232
l-55 -258c-26 -126 -109 -186 -201 -186c-17 0 -39 6 -45 10l-4 -7c55 -90 84 -201 84 -321zM708 -460c-84 0 -151 68 -151 151c0 82 67 151 151 151s150 -69 150 -151c0 -83 -66 -151 -150 -151z" />
    <glyph glyph-name="Ohornhookabove" unicode="&#x1ede;" horiz-adv-x="1552" 
d="M1250 830c0 230 -129 377 -328 377c-265 0 -463 -266 -463 -593c0 -230 129 -378 328 -378c265 0 463 266 463 594zM1558 846c0 -504 -338 -870 -777 -870c-387 0 -629 257 -629 621c0 503 335 870 775 870c294 0 362 -132 474 -132c65 0 95 27 109 95l37 178h232
l-55 -258c-26 -126 -109 -186 -201 -186c-17 0 -39 6 -45 10l-4 -7c55 -90 84 -201 84 -321zM817 1787l30 135c32 13 87 22 130 22c132 0 216 -66 216 -166c0 -110 -95 -216 -241 -266l-62 112c73 22 122 65 122 113c0 40 -37 64 -95 64c-32 0 -72 -6 -100 -14z" />
    <glyph glyph-name="Ohorntilde" unicode="&#x1ee0;" horiz-adv-x="1552" 
d="M1250 830c0 230 -129 377 -328 377c-265 0 -463 -266 -463 -593c0 -230 129 -378 328 -378c265 0 463 266 463 594zM1558 846c0 -504 -338 -870 -777 -870c-387 0 -629 257 -629 621c0 503 335 870 775 870c294 0 362 -132 474 -132c65 0 95 27 109 95l37 178h232
l-55 -258c-26 -126 -109 -186 -201 -186c-17 0 -39 6 -45 10l-4 -7c55 -90 84 -201 84 -321zM1127 1546c-139 0 -170 134 -249 134c-43 0 -80 -43 -97 -119h-161c33 169 135 275 262 275c144 0 172 -133 249 -133c42 0 77 41 96 122h162c-36 -169 -138 -279 -262 -279z" />
    <glyph glyph-name="Ohorngrave" unicode="&#x1edc;" horiz-adv-x="1552" 
d="M1250 830c0 230 -129 377 -328 377c-265 0 -463 -266 -463 -593c0 -230 129 -378 328 -378c265 0 463 266 463 594zM1558 846c0 -504 -338 -870 -777 -870c-387 0 -629 257 -629 621c0 503 335 870 775 870c294 0 362 -132 474 -132c65 0 95 27 109 95l37 178h232
l-55 -258c-26 -126 -109 -186 -201 -186c-17 0 -39 6 -45 10l-4 -7c55 -90 84 -201 84 -321zM853 1557l-203 307h258l161 -307h-216z" />
    <glyph glyph-name="Ohornacute" unicode="&#x1eda;" horiz-adv-x="1552" 
d="M1250 830c0 230 -129 377 -328 377c-265 0 -463 -266 -463 -593c0 -230 129 -378 328 -378c265 0 463 266 463 594zM1558 846c0 -504 -338 -870 -777 -870c-387 0 -629 257 -629 621c0 503 335 870 775 870c294 0 362 -132 474 -132c65 0 95 27 109 95l37 178h232
l-55 -258c-26 -126 -109 -186 -201 -186c-17 0 -39 6 -45 10l-4 -7c55 -90 84 -201 84 -321zM1090 1557h-242l291 307h283z" />
    <glyph glyph-name="P" unicode="P" horiz-adv-x="1291" 
d="M356 1443h527c286 0 473 -167 473 -422c0 -354 -256 -573 -628 -573h-277l-97 -448h-304zM609 1195l-109 -502h224c198 0 326 118 326 299c0 133 -89 203 -238 203h-203z" />
    <glyph glyph-name="Pdotaccent" unicode="&#x1e56;" horiz-adv-x="1291" 
d="M356 1443h527c286 0 473 -167 473 -422c0 -354 -256 -573 -628 -573h-277l-97 -448h-304zM609 1195l-109 -502h224c198 0 326 118 326 299c0 133 -89 203 -238 203h-203zM819 1607c-84 0 -151 68 -151 151c0 82 67 151 151 151s150 -69 150 -151
c0 -83 -66 -151 -150 -151z" />
    <glyph glyph-name="Pacute" unicode="&#x1e54;" horiz-adv-x="1291" 
d="M356 1443h527c286 0 473 -167 473 -422c0 -354 -256 -573 -628 -573h-277l-97 -448h-304zM609 1195l-109 -502h224c198 0 326 118 326 299c0 133 -89 203 -238 203h-203zM902 1557h-242l291 307h283z" />
    <glyph glyph-name="Q" unicode="Q" horiz-adv-x="1552" 
d="M1328 -141h-278l-69 144c-63 -17 -131 -27 -200 -27c-387 0 -629 257 -629 621c0 503 335 870 775 870c392 0 631 -258 631 -621c0 -309 -132 -570 -349 -730zM787 236c30 0 59 4 93 11l-108 231h259l48 -82c106 99 171 258 171 434c0 230 -129 377 -328 377
c-265 0 -463 -266 -463 -593c0 -230 129 -378 328 -378z" />
    <glyph glyph-name="R" unicode="R" horiz-adv-x="1332" 
d="M513 755h268c177 0 296 104 296 252c0 122 -79 192 -213 192h-254zM356 1443h577c288 0 451 -169 451 -408c0 -213 -132 -409 -364 -479l181 -556h-316l-163 523h-256l-112 -523h-305z" />
    <glyph glyph-name="Rcaron" unicode="&#x158;" horiz-adv-x="1332" 
d="M942 1547h-224l-202 319h215l116 -192h7l197 192h227zM513 755h268c177 0 296 104 296 252c0 122 -79 192 -213 192h-254zM356 1443h577c288 0 451 -169 451 -408c0 -213 -132 -409 -364 -479l181 -556h-316l-163 523h-256l-112 -523h-305z" />
    <glyph glyph-name="Rlinebelow" unicode="&#x1e5e;" horiz-adv-x="1332" 
d="M190 -384l32 151h691l-31 -151h-692zM513 755h268c177 0 296 104 296 252c0 122 -79 192 -213 192h-254zM356 1443h577c288 0 451 -169 451 -408c0 -213 -132 -409 -364 -479l181 -556h-316l-163 523h-256l-112 -523h-305z" />
    <glyph glyph-name="Rdotbelowmacron" unicode="&#x1e5c;" horiz-adv-x="1332" 
d="M1220 1770l-31 -151h-692l32 151h691zM550 -158c84 0 150 -69 150 -151c0 -83 -66 -151 -150 -151s-151 68 -151 151c0 82 67 151 151 151zM513 755h268c177 0 296 104 296 252c0 122 -79 192 -213 192h-254zM356 1443h577c288 0 451 -169 451 -408
c0 -213 -132 -409 -364 -479l181 -556h-316l-163 523h-256l-112 -523h-305z" />
    <glyph glyph-name="Rdblgrave" unicode="&#x210;" horiz-adv-x="1332" 
d="M1136 1557h-216l-202 307h257zM741 1557h-216l-203 307h258zM513 755h268c177 0 296 104 296 252c0 122 -79 192 -213 192h-254zM356 1443h577c288 0 451 -169 451 -408c0 -213 -132 -409 -364 -479l181 -556h-316l-163 523h-256l-112 -523h-305z" />
    <glyph glyph-name="Rinvertedbreve" unicode="&#x212;" horiz-adv-x="1332" 
d="M1182 1539h-178c3 10 6 24 6 38c0 81 -53 132 -146 132c-107 0 -189 -68 -214 -170h-184c44 185 197 321 425 321c187 0 299 -111 299 -256c0 -23 -3 -46 -8 -65zM513 755h268c177 0 296 104 296 252c0 122 -79 192 -213 192h-254zM356 1443h577c288 0 451 -169 451 -408
c0 -213 -132 -409 -364 -479l181 -556h-316l-163 523h-256l-112 -523h-305z" />
    <glyph glyph-name="Racute" unicode="&#x154;" horiz-adv-x="1332" 
d="M1284 1864l-332 -307h-242l291 307h283zM513 755h268c177 0 296 104 296 252c0 122 -79 192 -213 192h-254zM356 1443h577c288 0 451 -169 451 -408c0 -213 -132 -409 -364 -479l181 -556h-316l-163 523h-256l-112 -523h-305z" />
    <glyph glyph-name="Rdotbelow" unicode="&#x1e5a;" horiz-adv-x="1332" 
d="M550 -158c84 0 150 -69 150 -151c0 -83 -66 -151 -150 -151s-151 68 -151 151c0 82 67 151 151 151zM513 755h268c177 0 296 104 296 252c0 122 -79 192 -213 192h-254zM356 1443h577c288 0 451 -169 451 -408c0 -213 -132 -409 -364 -479l181 -556h-316l-163 523h-256
l-112 -523h-305z" />
    <glyph glyph-name="Rdotaccent" unicode="&#x1e58;" horiz-adv-x="1332" 
d="M869 1607c-84 0 -151 68 -151 151c0 82 67 151 151 151s150 -69 150 -151c0 -83 -66 -151 -150 -151zM513 755h268c177 0 296 104 296 252c0 122 -79 192 -213 192h-254zM356 1443h577c288 0 451 -169 451 -408c0 -213 -132 -409 -364 -479l181 -556h-316l-163 523h-256
l-112 -523h-305z" />
    <glyph glyph-name="Rcommaaccent" unicode="&#x156;" horiz-adv-x="1332" 
d="M238 -475l201 338h261l-241 -338h-221zM513 755h268c177 0 296 104 296 252c0 122 -79 192 -213 192h-254zM356 1443h577c288 0 451 -169 451 -408c0 -213 -132 -409 -364 -479l181 -556h-316l-163 523h-256l-112 -523h-305z" />
    <glyph glyph-name="S" unicode="S" horiz-adv-x="1305" 
d="M81 425h291c16 -119 135 -203 304 -203c154 0 264 66 264 177c0 87 -52 134 -209 182l-124 39c-240 74 -362 197 -362 394c0 272 229 453 551 453c333 0 553 -165 554 -439h-283c-5 115 -106 194 -267 194c-159 0 -247 -80 -247 -172c0 -82 59 -135 204 -178l127 -39
c250 -75 367 -188 367 -385c0 -269 -219 -472 -580 -472c-345 0 -584 166 -590 449z" />
    <glyph glyph-name="Scaron" unicode="&#x160;" horiz-adv-x="1306" 
d="M81 425h291c16 -119 135 -203 304 -203c154 0 264 66 264 177c0 87 -52 134 -209 182l-124 39c-240 74 -362 197 -362 394c0 272 229 453 551 453c333 0 553 -165 554 -439h-283c-5 115 -106 194 -267 194c-159 0 -247 -80 -247 -172c0 -82 59 -135 204 -178l127 -39
c250 -75 367 -188 367 -385c0 -269 -219 -472 -580 -472c-345 0 -584 166 -590 449zM741 1547l-202 319h215l116 -192h7l197 192h227l-336 -319h-224z" />
    <glyph glyph-name="Scedilla" unicode="&#x15e;" horiz-adv-x="1306" 
d="M757 872l127 -39c250 -75 367 -188 367 -385c0 -255 -197 -451 -526 -470l-56 -83c104 -5 163 -58 163 -147c0 -128 -118 -219 -287 -219c-59 0 -123 9 -157 21l29 140c34 -11 80 -18 125 -18c76 0 118 20 118 57c0 36 -37 51 -133 51h-58l22 101l68 101
c-284 33 -473 192 -478 443h291c16 -119 135 -203 304 -203c154 0 264 66 264 177c0 87 -52 134 -209 182l-124 39c-240 74 -362 197 -362 394c0 272 229 453 551 453c333 0 553 -165 554 -439h-283c-5 115 -106 194 -267 194c-159 0 -247 -80 -247 -172
c0 -82 59 -135 204 -178z" />
    <glyph glyph-name="Sdotaccent" unicode="&#x1e60;" horiz-adv-x="1306" 
d="M81 425h291c16 -119 135 -203 304 -203c154 0 264 66 264 177c0 87 -52 134 -209 182l-124 39c-240 74 -362 197 -362 394c0 272 229 453 551 453c333 0 553 -165 554 -439h-283c-5 115 -106 194 -267 194c-159 0 -247 -80 -247 -172c0 -82 59 -135 204 -178l127 -39
c250 -75 367 -188 367 -385c0 -269 -219 -472 -580 -472c-345 0 -584 166 -590 449zM892 1607c-84 0 -151 68 -151 151c0 82 67 151 151 151s150 -69 150 -151c0 -83 -66 -151 -150 -151z" />
    <glyph glyph-name="Sdotbelow" unicode="&#x1e62;" horiz-adv-x="1306" 
d="M81 425h291c16 -119 135 -203 304 -203c154 0 264 66 264 177c0 87 -52 134 -209 182l-124 39c-240 74 -362 197 -362 394c0 272 229 453 551 453c333 0 553 -165 554 -439h-283c-5 115 -106 194 -267 194c-159 0 -247 -80 -247 -172c0 -82 59 -135 204 -178l127 -39
c250 -75 367 -188 367 -385c0 -269 -219 -472 -580 -472c-345 0 -584 166 -590 449zM592 -460c-84 0 -151 68 -151 151c0 82 67 151 151 151s150 -69 150 -151c0 -83 -66 -151 -150 -151z" />
    <glyph glyph-name="Scommaaccent" unicode="&#x218;" horiz-adv-x="1306" 
d="M81 425h291c16 -119 135 -203 304 -203c154 0 264 66 264 177c0 87 -52 134 -209 182l-124 39c-240 74 -362 197 -362 394c0 272 229 453 551 453c333 0 553 -165 554 -439h-283c-5 115 -106 194 -267 194c-159 0 -247 -80 -247 -172c0 -82 59 -135 204 -178l127 -39
c250 -75 367 -188 367 -385c0 -269 -219 -472 -580 -472c-345 0 -584 166 -590 449zM501 -475h-221l201 338h261z" />
    <glyph glyph-name="Sdotbelowdotaccent" unicode="&#x1e68;" horiz-adv-x="1306" 
d="M81 425h291c16 -119 135 -203 304 -203c154 0 264 66 264 177c0 87 -52 134 -209 182l-124 39c-240 74 -362 197 -362 394c0 272 229 453 551 453c333 0 553 -165 554 -439h-283c-5 115 -106 194 -267 194c-159 0 -247 -80 -247 -172c0 -82 59 -135 204 -178l127 -39
c250 -75 367 -188 367 -385c0 -269 -219 -472 -580 -472c-345 0 -584 166 -590 449zM592 -460c-84 0 -151 68 -151 151c0 82 67 151 151 151s150 -69 150 -151c0 -83 -66 -151 -150 -151zM892 1607c-84 0 -151 68 -151 151c0 82 67 151 151 151s150 -69 150 -151
c0 -83 -66 -151 -150 -151z" />
    <glyph glyph-name="Scarondotaccent" unicode="&#x1e66;" horiz-adv-x="1306" 
d="M81 425h291c16 -119 135 -203 304 -203c154 0 264 66 264 177c0 87 -52 134 -209 182l-124 39c-240 74 -362 197 -362 394c0 272 229 453 551 453c333 0 553 -165 554 -439h-283c-5 115 -106 194 -267 194c-159 0 -247 -80 -247 -172c0 -82 59 -135 204 -178l127 -39
c250 -75 367 -188 367 -385c0 -269 -219 -472 -580 -472c-345 0 -584 166 -590 449zM735 1538l-209 284h215l118 -167h7l189 167h240l-329 -284h-231zM926 1854c-76 0 -133 59 -133 132s57 131 133 131c77 0 134 -58 134 -131s-57 -132 -134 -132z" />
    <glyph glyph-name="Scircumflex" unicode="&#x15c;" horiz-adv-x="1306" 
d="M81 425h291c16 -119 135 -203 304 -203c154 0 264 66 264 177c0 87 -52 134 -209 182l-124 39c-240 74 -362 197 -362 394c0 272 229 453 551 453c333 0 553 -165 554 -439h-283c-5 115 -106 194 -267 194c-159 0 -247 -80 -247 -172c0 -82 59 -135 204 -178l127 -39
c250 -75 367 -188 367 -385c0 -269 -219 -472 -580 -472c-345 0 -584 166 -590 449zM1024 1866l201 -319h-215l-115 192h-7l-198 -192h-227l337 319h224z" />
    <glyph glyph-name="Sacutedotaccent" unicode="&#x1e64;" horiz-adv-x="1306" 
d="M81 425h291c16 -119 135 -203 304 -203c154 0 264 66 264 177c0 87 -52 134 -209 182l-124 39c-240 74 -362 197 -362 394c0 272 229 453 551 453c333 0 553 -165 554 -439h-283c-5 115 -106 194 -267 194c-159 0 -247 -80 -247 -172c0 -82 59 -135 204 -178l127 -39
c250 -75 367 -188 367 -385c0 -269 -219 -472 -580 -472c-345 0 -584 166 -590 449zM1140 1560h-242l291 307h283zM691 1563c-84 0 -151 68 -151 151c0 82 67 151 151 151s150 -69 150 -151c0 -83 -66 -151 -150 -151z" />
    <glyph glyph-name="Sacute" unicode="&#x15a;" horiz-adv-x="1306" 
d="M81 425h291c16 -119 135 -203 304 -203c154 0 264 66 264 177c0 87 -52 134 -209 182l-124 39c-240 74 -362 197 -362 394c0 272 229 453 551 453c333 0 553 -165 554 -439h-283c-5 115 -106 194 -267 194c-159 0 -247 -80 -247 -172c0 -82 59 -135 204 -178l127 -39
c250 -75 367 -188 367 -385c0 -269 -219 -472 -580 -472c-345 0 -584 166 -590 449zM975 1557h-242l291 307h283z" />
    <glyph glyph-name="germandbls.uc" unicode="&#x1e9e;" horiz-adv-x="2611" 
d="M81 425h291c16 -119 135 -203 304 -203c154 0 264 66 264 177c0 87 -52 134 -209 182l-124 39c-240 74 -362 197 -362 394c0 272 229 453 551 453c333 0 553 -165 554 -439h-283c-5 115 -106 194 -267 194c-159 0 -247 -80 -247 -172c0 -82 59 -135 204 -178l127 -39
c250 -75 367 -188 367 -385c0 -269 -219 -472 -580 -472c-345 0 -584 166 -590 449zM1387 425h291c16 -119 135 -203 304 -203c154 0 264 66 264 177c0 87 -52 134 -209 182l-124 39c-240 74 -362 197 -362 394c0 272 229 453 551 453c333 0 553 -165 554 -439h-283
c-5 115 -106 194 -267 194c-159 0 -247 -80 -247 -172c0 -82 59 -135 204 -178l127 -39c250 -75 367 -188 367 -385c0 -269 -219 -472 -580 -472c-345 0 -584 166 -590 449z" />
    <glyph glyph-name="T" unicode="T" horiz-adv-x="1259" 
d="M707 0h-304l253 1185h-432l53 258h1168l-53 -258h-432z" />
    <glyph glyph-name="Tcircumflexbelow" unicode="&#x1e70;" horiz-adv-x="1259" 
d="M707 0h-304l253 1185h-432l53 258h1168l-53 -258h-432zM628 -165l202 -319h-216l-115 192h-7l-198 -192h-227l337 319h224z" />
    <glyph glyph-name="Tdotbelow" unicode="&#x1e6c;" horiz-adv-x="1259" 
d="M707 0h-304l253 1185h-432l53 258h1168l-53 -258h-432zM490 -460c-84 0 -151 68 -151 151c0 82 67 151 151 151s150 -69 150 -151c0 -83 -66 -151 -150 -151z" />
    <glyph glyph-name="Tcommaaccent" unicode="&#x21a;" horiz-adv-x="1259" 
d="M707 0h-304l253 1185h-432l53 258h1168l-53 -258h-432zM399 -475h-221l201 338h261z" />
    <glyph glyph-name="Tdotaccent" unicode="&#x1e6a;" horiz-adv-x="1259" 
d="M707 0h-304l253 1185h-432l53 258h1168l-53 -258h-432zM928 1607c-84 0 -151 68 -151 151c0 82 67 151 151 151s150 -69 150 -151c0 -83 -66 -151 -150 -151z" />
    <glyph glyph-name="Tcedilla" unicode="&#x162;" horiz-adv-x="1259" 
d="M277 1443h1168l-53 -258h-432l-253 -1185l-71 -105c104 -5 163 -58 163 -147c0 -128 -118 -219 -287 -219c-59 0 -123 9 -157 21l29 140c34 -11 80 -18 125 -18c76 0 118 20 118 57c0 36 -37 51 -133 51h-58l22 101l80 119h-135l253 1185h-432z" />
    <glyph glyph-name="Tlinebelow" unicode="&#x1e6e;" horiz-adv-x="1259" 
d="M707 0h-304l253 1185h-432l53 258h1168l-53 -258h-432zM853 -233l-31 -151h-692l32 151h691z" />
    <glyph glyph-name="Tcaron" unicode="&#x164;" horiz-adv-x="1259" 
d="M707 0h-304l253 1185h-432l53 258h1168l-53 -258h-432zM776 1547l-202 319h215l116 -192h7l197 192h227l-336 -319h-224z" />
    <glyph glyph-name="Tbar" unicode="&#x166;" horiz-adv-x="1259" 
d="M1392 1185h-432l-71 -333h333l-52 -258h-336l-127 -594h-304l127 594h-295l53 258h297l71 333h-432l53 258h1168z" />
    <glyph glyph-name="U" unicode="U" horiz-adv-x="1466" 
d="M718 -24c-354 0 -558 198 -559 470c0 40 4 83 13 126l184 871h304l-182 -863c-8 -37 -12 -71 -11 -103c3 -142 105 -230 276 -230c169 0 292 100 331 279l195 917h304l-209 -984c-64 -303 -300 -483 -646 -483z" />
    <glyph glyph-name="Ugrave" unicode="&#xd9;" horiz-adv-x="1466" 
d="M718 -24c-354 0 -558 198 -559 470c0 40 4 83 13 126l184 871h304l-182 -863c-8 -37 -12 -71 -11 -103c3 -142 105 -230 276 -230c169 0 292 100 331 279l195 917h304l-209 -984c-64 -303 -300 -483 -646 -483zM863 1557l-203 307h258l161 -307h-216z" />
    <glyph glyph-name="Udblgrave" unicode="&#x214;" horiz-adv-x="1466" 
d="M718 -24c-354 0 -558 198 -559 470c0 40 4 83 13 126l184 871h304l-182 -863c-8 -37 -12 -71 -11 -103c3 -142 105 -230 276 -230c169 0 292 100 331 279l195 917h304l-209 -984c-64 -303 -300 -483 -646 -483zM673 1557l-203 307h258l161 -307h-216zM1068 1557l-202 307
h257l161 -307h-216z" />
    <glyph glyph-name="Uacute" unicode="&#xda;" horiz-adv-x="1466" 
d="M718 -24c-354 0 -558 198 -559 470c0 40 4 83 13 126l184 871h304l-182 -863c-8 -37 -12 -71 -11 -103c3 -142 105 -230 276 -230c169 0 292 100 331 279l195 917h304l-209 -984c-64 -303 -300 -483 -646 -483zM1100 1557h-242l291 307h283z" />
    <glyph glyph-name="Uhungarumlaut" unicode="&#x170;" horiz-adv-x="1466" 
d="M718 -24c-354 0 -558 198 -559 470c0 40 4 83 13 126l184 871h304l-182 -863c-8 -37 -12 -71 -11 -103c3 -142 105 -230 276 -230c169 0 292 100 331 279l195 917h304l-209 -984c-64 -303 -300 -483 -646 -483zM1309 1557h-238l291 307h279zM889 1557h-238l291 307h279z
" />
    <glyph glyph-name="Ucircumflex" unicode="&#xdb;" horiz-adv-x="1466" 
d="M718 -24c-354 0 -558 198 -559 470c0 40 4 83 13 126l184 871h304l-182 -863c-8 -37 -12 -71 -11 -103c3 -142 105 -230 276 -230c169 0 292 100 331 279l195 917h304l-209 -984c-64 -303 -300 -483 -646 -483zM1149 1866l201 -319h-215l-115 192h-7l-198 -192h-227
l337 319h224z" />
    <glyph glyph-name="Ucaron" unicode="&#x1d3;" horiz-adv-x="1466" 
d="M718 -24c-354 0 -558 198 -559 470c0 40 4 83 13 126l184 871h304l-182 -863c-8 -37 -12 -71 -11 -103c3 -142 105 -230 276 -230c169 0 292 100 331 279l195 917h304l-209 -984c-64 -303 -300 -483 -646 -483zM866 1547l-202 319h215l116 -192h7l197 192h227l-336 -319
h-224z" />
    <glyph glyph-name="Ucircumflexbelow" unicode="&#x1e76;" horiz-adv-x="1466" 
d="M718 -24c-354 0 -558 198 -559 470c0 40 4 83 13 126l184 871h304l-182 -863c-8 -37 -12 -71 -11 -103c3 -142 105 -230 276 -230c169 0 292 100 331 279l195 917h304l-209 -984c-64 -303 -300 -483 -646 -483zM764 -165l202 -319h-216l-115 192h-7l-198 -192h-227
l337 319h224z" />
    <glyph glyph-name="Udieresis" unicode="&#xdc;" horiz-adv-x="1466" 
d="M718 -24c-354 0 -558 198 -559 470c0 40 4 83 13 126l184 871h304l-182 -863c-8 -37 -12 -71 -11 -103c3 -142 105 -230 276 -230c169 0 292 100 331 279l195 917h304l-209 -984c-64 -303 -300 -483 -646 -483zM810 1586c-73 0 -129 57 -129 127s56 127 129 127
s130 -57 130 -127s-57 -127 -130 -127zM1205 1586c-73 0 -129 57 -129 127s56 127 129 127s130 -57 130 -127s-57 -127 -130 -127z" />
    <glyph glyph-name="Udieresisgrave" unicode="&#x1db;" horiz-adv-x="1466" 
d="M718 -24c-354 0 -558 198 -559 470c0 40 4 83 13 126l184 871h304l-182 -863c-8 -37 -12 -71 -11 -103c3 -142 105 -230 276 -230c169 0 292 100 331 279l195 917h304l-209 -984c-64 -303 -300 -483 -646 -483zM1163 1882h-202l-162 252h232zM811 1557
c-72 0 -128 56 -128 125s56 125 128 125c71 0 126 -56 126 -125s-55 -125 -126 -125zM1197 1557c-72 0 -127 56 -127 125s55 125 127 125s127 -56 127 -125s-55 -125 -127 -125z" />
    <glyph glyph-name="Udieresisacute" unicode="&#x1d7;" horiz-adv-x="1466" 
d="M718 -24c-354 0 -558 198 -559 470c0 40 4 83 13 126l184 871h304l-182 -863c-8 -37 -12 -71 -11 -103c3 -142 105 -230 276 -230c169 0 292 100 331 279l195 917h304l-209 -984c-64 -303 -300 -483 -646 -483zM916 1882l238 252h258l-268 -252h-228zM811 1557
c-72 0 -128 56 -128 125s56 125 128 125c71 0 126 -56 126 -125s-55 -125 -126 -125zM1197 1557c-72 0 -127 56 -127 125s55 125 127 125s127 -56 127 -125s-55 -125 -127 -125z" />
    <glyph glyph-name="Udieresismacron" unicode="&#x1d5;" horiz-adv-x="1466" 
d="M718 -24c-354 0 -558 198 -559 470c0 40 4 83 13 126l184 871h304l-182 -863c-8 -37 -12 -71 -11 -103c3 -142 105 -230 276 -230c169 0 292 100 331 279l195 917h304l-209 -984c-64 -303 -300 -483 -646 -483zM803 1805c74 0 131 -58 131 -131c0 -71 -57 -130 -131 -130
c-75 0 -132 59 -132 130c0 73 57 131 132 131zM1433 2077l-32 -151h-691l32 151h691zM1202 1805c75 0 131 -58 131 -131c0 -71 -56 -130 -131 -130s-131 59 -131 130c0 73 56 131 131 131z" />
    <glyph glyph-name="Udieresiscaron" unicode="&#x1d9;" horiz-adv-x="1466" 
d="M718 -24c-354 0 -558 198 -559 470c0 40 4 83 13 126l184 871h304l-182 -863c-8 -37 -12 -71 -11 -103c3 -142 105 -230 276 -230c169 0 292 100 331 279l195 917h304l-209 -984c-64 -303 -300 -483 -646 -483zM938 1877l-198 272h208l106 -149h14l168 149h233l-313 -272
h-218zM803 1805c74 0 131 -58 131 -131c0 -71 -57 -130 -131 -130c-75 0 -132 59 -132 130c0 73 57 131 132 131zM1202 1805c75 0 131 -58 131 -131c0 -71 -56 -130 -131 -130s-131 59 -131 130c0 73 56 131 131 131z" />
    <glyph glyph-name="Udieresisbelow" unicode="&#x1e72;" horiz-adv-x="1466" 
d="M718 -24c-354 0 -558 198 -559 470c0 40 4 83 13 126l184 871h304l-182 -863c-8 -37 -12 -71 -11 -103c3 -142 105 -230 276 -230c169 0 292 100 331 279l195 917h304l-209 -984c-64 -303 -300 -483 -646 -483zM429 -436c-73 0 -129 57 -129 127s56 127 129 127
s130 -57 130 -127s-57 -127 -130 -127zM825 -436c-74 0 -130 57 -130 127s56 127 130 127c73 0 129 -57 129 -127s-56 -127 -129 -127z" />
    <glyph glyph-name="Utildebelow" unicode="&#x1e74;" horiz-adv-x="1466" 
d="M718 -24c-354 0 -558 198 -559 470c0 40 4 83 13 126l184 871h304l-182 -863c-8 -37 -12 -71 -11 -103c3 -142 105 -230 276 -230c169 0 292 100 331 279l195 917h304l-209 -984c-64 -303 -300 -483 -646 -483zM759 -455c-139 0 -170 134 -249 134
c-43 0 -80 -43 -97 -119h-161c33 169 135 275 262 275c144 0 172 -133 249 -133c42 0 77 41 96 122h162c-36 -169 -138 -279 -262 -279z" />
    <glyph glyph-name="Uhookabove" unicode="&#x1ee6;" horiz-adv-x="1466" 
d="M718 -24c-354 0 -558 198 -559 470c0 40 4 83 13 126l184 871h304l-182 -863c-8 -37 -12 -71 -11 -103c3 -142 105 -230 276 -230c169 0 292 100 331 279l195 917h304l-209 -984c-64 -303 -300 -483 -646 -483zM827 1787l30 135c32 13 87 22 130 22
c132 0 216 -66 216 -166c0 -110 -95 -216 -241 -266l-62 112c73 22 122 65 122 113c0 40 -37 64 -95 64c-32 0 -72 -6 -100 -14z" />
    <glyph glyph-name="Ubreve" unicode="&#x16c;" horiz-adv-x="1466" 
d="M718 -24c-354 0 -558 198 -559 470c0 40 4 83 13 126l184 871h304l-182 -863c-8 -37 -12 -71 -11 -103c3 -142 105 -230 276 -230c169 0 292 100 331 279l195 917h304l-209 -984c-64 -303 -300 -483 -646 -483zM683 1860h179c-3 -12 -6 -26 -6 -40
c0 -81 53 -130 146 -130c107 0 189 66 214 170h184c-44 -187 -197 -321 -425 -321c-187 0 -300 109 -300 254c0 23 3 46 8 67z" />
    <glyph glyph-name="Uinvertedbreve" unicode="&#x216;" horiz-adv-x="1466" 
d="M718 -24c-354 0 -558 198 -559 470c0 40 4 83 13 126l184 871h304l-182 -863c-8 -37 -12 -71 -11 -103c3 -142 105 -230 276 -230c169 0 292 100 331 279l195 917h304l-209 -984c-64 -303 -300 -483 -646 -483zM1330 1539h-178c3 10 6 24 6 38c0 81 -53 132 -146 132
c-107 0 -189 -68 -214 -170h-184c44 185 197 321 425 321c187 0 299 -111 299 -256c0 -23 -3 -46 -8 -65z" />
    <glyph glyph-name="Utildeacute" unicode="&#x1e78;" horiz-adv-x="1466" 
d="M718 -24c-354 0 -558 198 -559 470c0 40 4 83 13 126l184 871h304l-182 -863c-8 -37 -12 -71 -11 -103c3 -142 105 -230 276 -230c169 0 292 100 331 279l195 917h304l-209 -984c-64 -303 -300 -483 -646 -483zM931 1891l236 243h258l-266 -243h-228zM1124 1538
c-138 0 -175 134 -248 134c-43 0 -81 -43 -95 -114h-160c33 166 136 269 264 269c137 0 173 -134 247 -134c43 0 79 43 96 118h159c-33 -166 -138 -273 -263 -273z" />
    <glyph glyph-name="Udotbelow" unicode="&#x1ee4;" horiz-adv-x="1466" 
d="M718 -24c-354 0 -558 198 -559 470c0 40 4 83 13 126l184 871h304l-182 -863c-8 -37 -12 -71 -11 -103c3 -142 105 -230 276 -230c169 0 292 100 331 279l195 917h304l-209 -984c-64 -303 -300 -483 -646 -483zM626 -460c-84 0 -151 68 -151 151c0 82 67 151 151 151
s150 -69 150 -151c0 -83 -66 -151 -150 -151z" />
    <glyph glyph-name="Utilde" unicode="&#x168;" horiz-adv-x="1466" 
d="M718 -24c-354 0 -558 198 -559 470c0 40 4 83 13 126l184 871h304l-182 -863c-8 -37 -12 -71 -11 -103c3 -142 105 -230 276 -230c169 0 292 100 331 279l195 917h304l-209 -984c-64 -303 -300 -483 -646 -483zM1137 1546c-139 0 -170 134 -249 134
c-43 0 -80 -43 -97 -119h-161c33 169 135 275 262 275c144 0 172 -133 249 -133c42 0 77 41 96 122h162c-36 -169 -138 -279 -262 -279z" />
    <glyph glyph-name="Umacron" unicode="&#x16a;" horiz-adv-x="1466" 
d="M718 -24c-354 0 -558 198 -559 470c0 40 4 83 13 126l184 871h304l-182 -863c-8 -37 -12 -71 -11 -103c3 -142 105 -230 276 -230c169 0 292 100 331 279l195 917h304l-209 -984c-64 -303 -300 -483 -646 -483zM1368 1770l-31 -151h-692l32 151h691z" />
    <glyph glyph-name="Umacrondieresis" unicode="&#x1e7a;" horiz-adv-x="1466" 
d="M718 -24c-354 0 -558 198 -559 470c0 40 4 83 13 126l184 871h304l-182 -863c-8 -37 -12 -71 -11 -103c3 -142 105 -230 276 -230c169 0 292 100 331 279l195 917h304l-209 -984c-64 -303 -300 -483 -646 -483zM1332 1600h-692l32 151h691zM871 1887
c-75 0 -131 59 -131 131s56 130 131 130s131 -58 131 -130s-56 -131 -131 -131zM1270 1887c-74 0 -131 59 -131 131s57 130 131 130c75 0 132 -58 132 -130s-57 -131 -132 -131z" />
    <glyph glyph-name="Uring" unicode="&#x16e;" horiz-adv-x="1466" 
d="M718 -24c-354 0 -558 198 -559 470c0 40 4 83 13 126l184 871h304l-182 -863c-8 -37 -12 -71 -11 -103c3 -142 105 -230 276 -230c169 0 292 100 331 279l195 917h304l-209 -984c-64 -303 -300 -483 -646 -483zM1027 1566c-117 0 -216 89 -216 211c0 124 99 220 220 220
c118 0 216 -89 215 -212c0 -124 -97 -219 -219 -219zM1027 1687c55 0 97 40 97 97c-1 53 -41 91 -93 91c-55 0 -97 -40 -97 -97c0 -53 41 -91 93 -91z" />
    <glyph glyph-name="Uogonek" unicode="&#x172;" horiz-adv-x="1466" 
d="M951 -440c-30 -15 -84 -24 -144 -24c-132 0 -224 71 -224 182c0 93 67 184 188 255v5c-8 -1 -29 -3 -46 -3c-354 0 -565 199 -566 470c0 40 4 84 13 127l184 871h305l-183 -864c-8 -36 -11 -71 -11 -102c4 -143 105 -230 276 -230c169 0 291 100 330 279l195 917h305
l-209 -985c-40 -187 -148 -320 -300 -407c-158 -90 -255 -180 -255 -269c0 -46 36 -74 101 -74c30 0 58 5 74 11z" />
    <glyph glyph-name="Uhorn" unicode="&#x1af;" horiz-adv-x="1683" 
d="M720 -25c-351 0 -564 197 -565 470c-1 42 4 85 13 127l184 871h305l-183 -864c-8 -36 -12 -71 -11 -102c3 -138 101 -230 276 -230c168 0 291 100 330 279l195 917h315c52 0 85 25 96 76l39 184h231l-51 -244c-29 -137 -131 -216 -272 -216h-94l-168 -785
c-64 -301 -292 -483 -640 -483z" />
    <glyph glyph-name="Uhorngrave" unicode="&#x1eea;" horiz-adv-x="1684" 
d="M720 -25c-351 0 -564 197 -565 470c-1 42 4 85 13 127l184 871h305l-183 -864c-8 -36 -12 -71 -11 -102c3 -138 101 -230 276 -230c168 0 291 100 330 279l195 917h315c52 0 85 25 96 76l39 184h231l-51 -244c-29 -137 -131 -216 -272 -216h-94l-168 -785
c-64 -301 -292 -483 -640 -483zM868 1557l-203 307h258l161 -307h-216z" />
    <glyph glyph-name="Uhornacute" unicode="&#x1ee8;" horiz-adv-x="1684" 
d="M720 -25c-351 0 -564 197 -565 470c-1 42 4 85 13 127l184 871h305l-183 -864c-8 -36 -12 -71 -11 -102c3 -138 101 -230 276 -230c168 0 291 100 330 279l195 917h315c52 0 85 25 96 76l39 184h231l-51 -244c-29 -137 -131 -216 -272 -216h-94l-168 -785
c-64 -301 -292 -483 -640 -483zM1105 1557h-242l291 307h283z" />
    <glyph glyph-name="Uhorndotbelow" unicode="&#x1ef0;" horiz-adv-x="1684" 
d="M720 -25c-351 0 -564 197 -565 470c-1 42 4 85 13 127l184 871h305l-183 -864c-8 -36 -12 -71 -11 -102c3 -138 101 -230 276 -230c168 0 291 100 330 279l195 917h315c52 0 85 25 96 76l39 184h231l-51 -244c-29 -137 -131 -216 -272 -216h-94l-168 -785
c-64 -301 -292 -483 -640 -483zM606 -460c-84 0 -151 68 -151 151c0 82 67 151 151 151s150 -69 150 -151c0 -83 -66 -151 -150 -151z" />
    <glyph glyph-name="Uhornhookabove" unicode="&#x1eec;" horiz-adv-x="1684" 
d="M720 -25c-351 0 -564 197 -565 470c-1 42 4 85 13 127l184 871h305l-183 -864c-8 -36 -12 -71 -11 -102c3 -138 101 -230 276 -230c168 0 291 100 330 279l195 917h315c52 0 85 25 96 76l39 184h231l-51 -244c-29 -137 -131 -216 -272 -216h-94l-168 -785
c-64 -301 -292 -483 -640 -483zM832 1787l30 135c32 13 87 22 130 22c132 0 216 -66 216 -166c0 -110 -95 -216 -241 -266l-62 112c73 22 122 65 122 113c0 40 -37 64 -95 64c-32 0 -72 -6 -100 -14z" />
    <glyph glyph-name="Uhorntilde" unicode="&#x1eee;" horiz-adv-x="1684" 
d="M720 -25c-351 0 -564 197 -565 470c-1 42 4 85 13 127l184 871h305l-183 -864c-8 -36 -12 -71 -11 -102c3 -138 101 -230 276 -230c168 0 291 100 330 279l195 917h315c52 0 85 25 96 76l39 184h231l-51 -244c-29 -137 -131 -216 -272 -216h-94l-168 -785
c-64 -301 -292 -483 -640 -483zM1142 1546c-139 0 -170 134 -249 134c-43 0 -80 -43 -97 -119h-161c33 169 135 275 262 275c144 0 172 -133 249 -133c42 0 77 41 96 122h162c-36 -169 -138 -279 -262 -279z" />
    <glyph glyph-name="V" unicode="V" horiz-adv-x="1369" 
d="M793 0h-357l-186 1443h324l100 -1101h6l562 1101h341z" />
    <glyph glyph-name="Vtilde" unicode="&#x1e7c;" horiz-adv-x="1369" 
d="M793 0h-357l-186 1443h324l100 -1101h6l562 1101h341zM1098 1546c-139 0 -170 134 -249 134c-43 0 -80 -43 -97 -119h-161c33 169 135 275 262 275c144 0 172 -133 249 -133c42 0 77 41 96 122h162c-36 -169 -138 -279 -262 -279z" />
    <glyph glyph-name="Vdotbelow" unicode="&#x1e7e;" horiz-adv-x="1369" 
d="M793 0h-357l-186 1443h324l100 -1101h6l562 1101h341zM550 -460c-84 0 -151 68 -151 151c0 82 67 151 151 151s150 -69 150 -151c0 -83 -66 -151 -150 -151z" />
    <glyph glyph-name="W" unicode="W" horiz-adv-x="1955" 
d="M1106 968l-477 -968h-289l-76 1443h302l17 -1020h6l489 1020h249l65 -1019h6l445 1019h313l-684 -1443h-287l-73 968h-6z" />
    <glyph glyph-name="Wgrave" unicode="&#x1e80;" horiz-adv-x="1955" 
d="M1106 968l-477 -968h-289l-76 1443h302l17 -1020h6l489 1020h249l65 -1019h6l445 1019h313l-684 -1443h-287l-73 968h-6zM1113 1557l-203 307h258l161 -307h-216z" />
    <glyph glyph-name="Wacute" unicode="&#x1e82;" horiz-adv-x="1955" 
d="M1106 968l-477 -968h-289l-76 1443h302l17 -1020h6l489 1020h249l65 -1019h6l445 1019h313l-684 -1443h-287l-73 968h-6zM1350 1557h-242l291 307h283z" />
    <glyph glyph-name="Wdotaccent" unicode="&#x1e86;" horiz-adv-x="1955" 
d="M1106 968l-477 -968h-289l-76 1443h302l17 -1020h6l489 1020h249l65 -1019h6l445 1019h313l-684 -1443h-287l-73 968h-6zM1268 1607c-84 0 -151 68 -151 151c0 82 67 151 151 151s150 -69 150 -151c0 -83 -66 -151 -150 -151z" />
    <glyph glyph-name="Wdotbelow" unicode="&#x1e88;" horiz-adv-x="1955" 
d="M1106 968l-477 -968h-289l-76 1443h302l17 -1020h6l489 1020h249l65 -1019h6l445 1019h313l-684 -1443h-287l-73 968h-6zM838 -460c-84 0 -151 68 -151 151c0 82 67 151 151 151s150 -69 150 -151c0 -83 -66 -151 -150 -151z" />
    <glyph glyph-name="Wdieresis" unicode="&#x1e84;" horiz-adv-x="1955" 
d="M1106 968l-477 -968h-289l-76 1443h302l17 -1020h6l489 1020h249l65 -1019h6l445 1019h313l-684 -1443h-287l-73 968h-6zM1060 1586c-73 0 -129 57 -129 127s56 127 129 127s130 -57 130 -127s-57 -127 -130 -127zM1455 1586c-73 0 -129 57 -129 127s56 127 129 127
s130 -57 130 -127s-57 -127 -130 -127z" />
    <glyph glyph-name="Wcircumflex" unicode="&#x174;" horiz-adv-x="1955" 
d="M1106 968l-477 -968h-289l-76 1443h302l17 -1020h6l489 1020h249l65 -1019h6l445 1019h313l-684 -1443h-287l-73 968h-6zM1399 1866l201 -319h-215l-115 192h-7l-198 -192h-227l337 319h224z" />
    <glyph glyph-name="X" unicode="X" horiz-adv-x="1390" 
d="M-42 0l631 730l-319 713h330l216 -489h8l405 489h361l-632 -728l319 -715h-330l-217 493h-8l-409 -493h-355z" />
    <glyph glyph-name="Xdotaccent" unicode="&#x1e8a;" horiz-adv-x="1390" 
d="M-42 0l631 730l-319 713h330l216 -489h8l405 489h361l-632 -728l319 -715h-330l-217 493h-8l-409 -493h-355zM983 1607c-84 0 -151 68 -151 151c0 82 67 151 151 151s150 -69 150 -151c0 -83 -66 -151 -150 -151z" />
    <glyph glyph-name="Xdieresis" unicode="&#x1e8c;" horiz-adv-x="1390" 
d="M-42 0l631 730l-319 713h330l216 -489h8l405 489h361l-632 -728l319 -715h-330l-217 493h-8l-409 -493h-355zM776 1586c-73 0 -129 57 -129 127s56 127 129 127s130 -57 130 -127s-57 -127 -130 -127zM1171 1586c-73 0 -129 57 -129 127s56 127 129 127s130 -57 130 -127
s-57 -127 -130 -127z" />
    <glyph glyph-name="Y" unicode="Y" horiz-adv-x="1343" 
d="M750 0h-304l114 535l-310 908h315l199 -618h6l454 618h333l-695 -920z" />
    <glyph glyph-name="Ygrave" unicode="&#x1ef2;" horiz-adv-x="1343" 
d="M750 0h-304l114 535l-310 908h315l199 -618h6l454 618h333l-695 -920zM811 1557l-203 307h258l161 -307h-216z" />
    <glyph glyph-name="Yacute" unicode="&#xdd;" horiz-adv-x="1343" 
d="M750 0h-304l114 535l-310 908h315l199 -618h6l454 618h333l-695 -920zM1048 1557h-242l291 307h283z" />
    <glyph glyph-name="Ydotaccent" unicode="&#x1e8e;" horiz-adv-x="1343" 
d="M750 0h-304l114 535l-310 908h315l199 -618h6l454 618h333l-695 -920zM966 1607c-84 0 -151 68 -151 151c0 82 67 151 151 151s150 -69 150 -151c0 -83 -66 -151 -150 -151z" />
    <glyph glyph-name="Ydotbelow" unicode="&#x1ef4;" horiz-adv-x="1343" 
d="M750 0h-304l114 535l-310 908h315l199 -618h6l454 618h333l-695 -920zM530 -460c-84 0 -151 68 -151 151c0 82 67 151 151 151s150 -69 150 -151c0 -83 -66 -151 -150 -151z" />
    <glyph glyph-name="Ydieresis" unicode="&#x178;" horiz-adv-x="1343" 
d="M750 0h-304l114 535l-310 908h315l199 -618h6l454 618h333l-695 -920zM758 1586c-73 0 -129 57 -129 127s56 127 129 127s130 -57 130 -127s-57 -127 -130 -127zM1153 1586c-73 0 -129 57 -129 127s56 127 129 127s130 -57 130 -127s-57 -127 -130 -127z" />
    <glyph glyph-name="Ytilde" unicode="&#x1ef8;" horiz-adv-x="1343" 
d="M750 0h-304l114 535l-310 908h315l199 -618h6l454 618h333l-695 -920zM1085 1546c-139 0 -170 134 -249 134c-43 0 -80 -43 -97 -119h-161c33 169 135 275 262 275c144 0 172 -133 249 -133c42 0 77 41 96 122h162c-36 -169 -138 -279 -262 -279z" />
    <glyph glyph-name="Ycircumflex" unicode="&#x176;" horiz-adv-x="1343" 
d="M750 0h-304l114 535l-310 908h315l199 -618h6l454 618h333l-695 -920zM1097 1866l201 -319h-215l-115 192h-7l-198 -192h-227l337 319h224z" />
    <glyph glyph-name="Ymacron" unicode="&#x232;" horiz-adv-x="1343" 
d="M750 0h-304l114 535l-310 908h315l199 -618h6l454 618h333l-695 -920zM1316 1770l-31 -151h-692l32 151h691z" />
    <glyph glyph-name="Yhookabove" unicode="&#x1ef6;" horiz-adv-x="1343" 
d="M750 0h-304l114 535l-310 908h315l199 -618h6l454 618h333l-695 -920zM775 1787l30 135c32 13 87 22 130 22c132 0 216 -66 216 -166c0 -110 -95 -216 -241 -266l-62 112c73 22 122 65 122 113c0 40 -37 64 -95 64c-32 0 -72 -6 -100 -14z" />
    <glyph glyph-name="Z" unicode="Z" horiz-adv-x="1272" 
d="M10 0l42 204l912 975v6h-684l54 258h1064l-42 -203l-911 -976v-6h720l-53 -258h-1102z" />
    <glyph glyph-name="Zacute" unicode="&#x179;" horiz-adv-x="1272" 
d="M10 0l42 204l912 975v6h-684l54 258h1064l-42 -203l-911 -976v-6h720l-53 -258h-1102zM1008 1557h-242l291 307h283z" />
    <glyph glyph-name="Zcaron" unicode="&#x17d;" horiz-adv-x="1272" 
d="M10 0l42 204l912 975v6h-684l54 258h1064l-42 -203l-911 -976v-6h720l-53 -258h-1102zM774 1547l-202 319h215l116 -192h7l197 192h227l-336 -319h-224z" />
    <glyph glyph-name="Zcircumflex" unicode="&#x1e90;" horiz-adv-x="1272" 
d="M10 0l42 204l912 975v6h-684l54 258h1064l-42 -203l-911 -976v-6h720l-53 -258h-1102zM1057 1866l201 -319h-215l-115 192h-7l-198 -192h-227l337 319h224z" />
    <glyph glyph-name="Zlinebelow" unicode="&#x1e94;" horiz-adv-x="1272" 
d="M10 0l42 204l912 975v6h-684l54 258h1064l-42 -203l-911 -976v-6h720l-53 -258h-1102zM882 -233l-31 -151h-692l32 151h691z" />
    <glyph glyph-name="Zdotbelow" unicode="&#x1e92;" horiz-adv-x="1272" 
d="M10 0l42 204l912 975v6h-684l54 258h1064l-42 -203l-911 -976v-6h720l-53 -258h-1102zM519 -460c-84 0 -151 68 -151 151c0 82 67 151 151 151s150 -69 150 -151c0 -83 -66 -151 -150 -151z" />
    <glyph glyph-name="Zdotaccent" unicode="&#x17b;" horiz-adv-x="1272" 
d="M10 0l42 204l912 975v6h-684l54 258h1064l-42 -203l-911 -976v-6h720l-53 -258h-1102zM925 1607c-84 0 -151 68 -151 151c0 82 67 151 151 151s150 -69 150 -151c0 -83 -66 -151 -150 -151z" />
    <glyph glyph-name="AE" unicode="&#xc6;" horiz-adv-x="1978" 
d="M1134 1202h-129l-379 -604h378zM876 0l80 364h-463l-232 -364h-311l903 1443h1259l-54 -258h-648l-75 -341h612l-50 -239h-611l-77 -347h648l-52 -258h-929z" />
    <glyph glyph-name="AEmacron" unicode="&#x1e2;" horiz-adv-x="1978" 
d="M1134 1202h-129l-379 -604h378zM876 0l80 364h-463l-232 -364h-311l903 1443h1259l-54 -258h-648l-75 -341h612l-50 -239h-611l-77 -347h648l-52 -258h-929zM1830 1770l-31 -151h-692l32 151h691z" />
    <glyph glyph-name="AEacute" unicode="&#x1fc;" horiz-adv-x="1978" 
d="M1134 1202h-129l-379 -604h378zM876 0l80 364h-463l-232 -364h-311l903 1443h1259l-54 -258h-648l-75 -341h612l-50 -239h-611l-77 -347h648l-52 -258h-929zM1562 1557h-242l291 307h283z" />
    <glyph glyph-name="OE" unicode="&#x152;" horiz-adv-x="2240" 
d="M1159 0l35 168h-6c-105 -122 -269 -192 -447 -192c-350 0 -584 250 -584 622c0 490 327 869 776 869c216 0 382 -96 474 -271h6l53 247h901l-53 -258h-653l-74 -337h616l-50 -239h-615l-78 -351h653l-52 -258h-902zM1255 830c0 230 -128 377 -328 377
c-266 0 -463 -268 -463 -593c0 -230 129 -378 328 -378c267 0 463 268 463 594z" />
    <glyph glyph-name="Eth" unicode="&#xd0;" horiz-adv-x="1453" 
d="M408 257h244c289 0 496 230 496 579c0 222 -122 351 -348 351h-191l-71 -328h257l-53 -257h-259zM356 1443h510c359 0 593 -210 593 -568c0 -513 -311 -875 -769 -875h-640l128 602h-124l53 257h125z" />
    <glyph glyph-name="Thorn" unicode="&#xde;" horiz-adv-x="1306" 
d="M62 0l307 1443h303l-51 -232h271c249 0 429 -166 429 -397c0 -298 -237 -524 -580 -524h-315l-62 -290h-302zM568 963l-92 -427h237c188 0 305 95 305 246c0 114 -76 181 -221 181h-229z" />
    <glyph glyph-name="Alphagreek" unicode="&#x391;" horiz-adv-x="1393" 
d="M876 1150l-307 -573h374l-60 573h-7zM997 0l-36 344h-508l-188 -344h-323l816 1443h356l186 -1443h-303z" />
    <glyph glyph-name="Betagreek" unicode="&#x392;" horiz-adv-x="1344" 
d="M744 0h-695l307 1443h590c259 0 413 -130 413 -312c0 -189 -137 -332 -327 -374l-1 -7c156 -30 258 -144 258 -291c0 -267 -224 -459 -545 -459zM610 1227l-80 -370h238c171 0 286 90 286 215c0 99 -75 155 -216 155h-228zM396 232h291c178 0 295 97 295 235
c0 112 -80 176 -237 176h-260z" />
    <glyph glyph-name="Gammagreek" unicode="&#x393;" horiz-adv-x="1107" 
d="M363 0h-314l307 1443h926l-54 -258h-612z" />
    <glyph glyph-name="Deltagreek" unicode="&#x394;" horiz-adv-x="1413" 
d="M1272 0h-1278l37 176l737 1267h357l184 -1268zM884 1167l-504 -903l-1 -6h625l1 5l-114 904h-7z" />
    <glyph glyph-name="Deltagreek" unicode="&#x2206;" horiz-adv-x="1413" 
d="M1272 0h-1278l37 176l737 1267h357l184 -1268zM884 1167l-504 -903l-1 -6h625l1 5l-114 904h-7z" />
    <glyph glyph-name="Epsilongreek" unicode="&#x395;" horiz-adv-x="1171" 
d="M1059 258l-53 -258h-957l307 1443h957l-54 -258h-652l-74 -337h615l-49 -239h-615l-78 -351h653z" />
    <glyph glyph-name="Zetagreek" unicode="&#x396;" horiz-adv-x="1272" 
d="M10 0l42 204l912 975v6h-684l54 258h1064l-42 -203l-911 -976v-6h720l-53 -258h-1102z" />
    <glyph glyph-name="Etagreek" unicode="&#x397;" horiz-adv-x="1504" 
d="M1305 0h-309l130 605h-638l-130 -605h-309l307 1443h309l-125 -584h638l125 584h309z" />
    <glyph glyph-name="Thetagreek" unicode="&#x398;" horiz-adv-x="1598" 
d="M1106 592h-510l50 248h510zM794 -24c-390 0 -642 246 -642 629c0 495 335 862 810 862c390 0 642 -246 642 -629c0 -496 -335 -862 -810 -862zM1301 829c0 236 -135 383 -355 383c-285 0 -492 -266 -492 -599c0 -235 135 -382 355 -382c286 0 492 265 492 598z" />
    <glyph glyph-name="Iotagreek" unicode="&#x399;" horiz-adv-x="552" 
d="M353 0h-304l307 1443h304z" />
    <glyph glyph-name="Iotagreek.1" horiz-adv-x="994" 
d="M1100 1197h-271l-203 -951h269l-51 -246h-270h-304h-270l51 246h271l203 951h-269l51 246h270h304h270z" />
    <glyph glyph-name="Kappagreek" unicode="&#x39a;" horiz-adv-x="1358" 
d="M353 0h-304l307 1443h304l-137 -640h6l668 640h359l-679 -663l391 -780h-337l-302 599l-184 -174z" />
    <glyph glyph-name="Lambdagreek" unicode="&#x39b;" horiz-adv-x="1372" 
d="M866 1150l-590 -1150h-324l796 1443h356l166 -1443h-302l-95 1150h-7z" />
    <glyph glyph-name="Mugreek" unicode="&#x39c;" horiz-adv-x="1778" 
d="M322 0h-272l306 1443h346l181 -1045h6l620 1045h377l-307 -1443h-272l217 1005h-10l-600 -1000h-199l-171 1000h-7z" />
    <glyph glyph-name="Nugreek" unicode="&#x39d;" horiz-adv-x="1472" 
d="M344 0h-295l307 1443h252l463 -963h6l208 963h295l-307 -1443h-252l-463 963h-6z" />
    <glyph glyph-name="Xigreek" unicode="&#x39e;" horiz-adv-x="1269" 
d="M323 1443h1087l-54 -265h-1088zM1146 604h-913l51 246h913zM71 265h1087l-54 -265h-1088z" />
    <glyph glyph-name="Omicrongreek" unicode="&#x39f;" horiz-adv-x="1552" 
d="M922 1207c-265 0 -463 -266 -463 -593c0 -230 129 -378 328 -378c265 0 463 266 463 594c0 230 -129 377 -328 377zM781 -24c-387 0 -629 257 -629 621c0 503 335 870 775 870c392 0 631 -258 631 -621c0 -504 -338 -870 -777 -870z" />
    <glyph glyph-name="Pigreek" unicode="&#x3a0;" horiz-adv-x="1484" 
d="M1285 0h-309l255 1185h-619l-255 -1185h-308l307 1443h1236z" />
    <glyph glyph-name="Rhogreek" unicode="&#x3a1;" horiz-adv-x="1291" 
d="M356 1443h527c286 0 473 -167 473 -422c0 -354 -256 -573 -628 -573h-277l-97 -448h-304zM609 1195l-109 -502h224c198 0 326 118 326 299c0 133 -89 203 -238 203h-203z" />
    <glyph glyph-name="Sigmagreek" unicode="&#x3a3;" horiz-adv-x="1283" 
d="M443 263l-1 -6h733l-52 -257h-1113l39 189l480 546l-231 492l44 216h1066l-53 -258h-687l-1 -6l191 -430l-5 -18z" />
    <glyph glyph-name="Taugreek" unicode="&#x3a4;" horiz-adv-x="1259" 
d="M707 0h-304l253 1185h-432l53 258h1168l-53 -258h-432z" />
    <glyph glyph-name="Upsilongreek" unicode="&#x3a5;" horiz-adv-x="1343" 
d="M750 0h-304l114 535l-310 908h315l199 -618h6l454 618h333l-695 -920z" />
    <glyph glyph-name="Phigreek" unicode="&#x3a6;" horiz-adv-x="1814" 
d="M669 -110l32 150c-359 42 -558 266 -558 579c0 421 321 745 843 770l32 150h280l-32 -156c352 -41 558 -257 558 -581c0 -421 -324 -743 -843 -768l-31 -144h-281zM752 287l183 855c-293 -24 -494 -213 -494 -516c0 -194 115 -315 311 -339zM1032 281
c302 26 494 220 494 516c0 197 -117 316 -311 339z" />
    <glyph glyph-name="Chigreek" unicode="&#x3a7;" horiz-adv-x="1390" 
d="M-42 0l631 730l-319 713h330l216 -489h8l405 489h361l-632 -728l319 -715h-330l-217 493h-8l-409 -493h-355z" />
    <glyph glyph-name="Psigreek" unicode="&#x3a8;" horiz-adv-x="1715" 
d="M927 0h-288l65 305c-324 28 -492 177 -492 435c0 41 4 82 13 127l121 576h289l-115 -548c-12 -57 -17 -94 -17 -126c0 -139 83 -202 253 -210l190 884h288l-191 -892c232 12 335 113 377 311l123 581h290l-129 -610c-73 -344 -274 -514 -713 -535z" />
    <glyph glyph-name="Omegagreek" unicode="&#x3a9;" horiz-adv-x="1576" 
d="M849 0l61 301c241 113 378 311 378 556c0 210 -142 350 -358 350c-277 0 -465 -207 -465 -517c0 -174 74 -299 216 -389l-61 -301h-579l50 247h289l1 7c-141 104 -219 258 -219 438c0 481 342 776 800 776c380 0 624 -229 624 -571c0 -262 -147 -513 -390 -642l-1 -8h298
l-50 -247h-594z" />
    <glyph glyph-name="Omegagreek" unicode="&#x2126;" horiz-adv-x="1576" 
d="M849 0l61 301c241 113 378 311 378 556c0 210 -142 350 -358 350c-277 0 -465 -207 -465 -517c0 -174 74 -299 216 -389l-61 -301h-579l50 247h289l1 7c-141 104 -219 258 -219 438c0 481 342 776 800 776c380 0 624 -229 624 -571c0 -262 -147 -513 -390 -642l-1 -8h298
l-50 -247h-594z" />
    <glyph glyph-name="Alphatonosgreek" unicode="&#x386;" horiz-adv-x="1393" 
d="M876 1150l-307 -573h374l-60 573h-7zM997 0l-36 344h-508l-188 -344h-323l816 1443h356l186 -1443h-303zM153 1121l147 322h306l-223 -322h-230z" />
    <glyph glyph-name="Epsilontonosgreek" unicode="&#x388;" horiz-adv-x="1549" 
d="M164 1121l147 322h306l-223 -322h-230zM1437 258l-53 -258h-957l307 1443h957l-54 -258h-652l-74 -337h615l-49 -239h-615l-78 -351h653z" />
    <glyph glyph-name="Etatonosgreek" unicode="&#x389;" horiz-adv-x="1882" 
d="M164 1121l147 322h306l-223 -322h-230zM1683 0h-309l130 605h-638l-130 -605h-309l307 1443h309l-125 -584h638l125 584h309z" />
    <glyph glyph-name="Iotatonosgreek" unicode="&#x38a;" horiz-adv-x="930" 
d="M164 1121l147 322h306l-223 -322h-230zM731 0h-304l307 1443h304z" />
    <glyph glyph-name="Iotadieresisgreek" unicode="&#x3aa;" horiz-adv-x="552" 
d="M353 0h-304l307 1443h304zM366 1586c-73 0 -129 57 -129 127s56 127 129 127s130 -57 130 -127s-57 -127 -130 -127zM761 1586c-73 0 -129 57 -129 127s56 127 129 127s130 -57 130 -127s-57 -127 -130 -127z" />
    <glyph glyph-name="Iotatonosgreek.1" horiz-adv-x="1391" 
d="M311 1443h306l-223 -322h-230zM1497 1197h-271l-203 -951h269l-51 -246h-270h-304h-270l51 246h271l203 951h-269l51 246h270h304h270z" />
    <glyph glyph-name="Iotadieresisgreek.1" horiz-adv-x="994" 
d="M981 1586c-73 0 -129 57 -129 127s56 127 129 127s130 -57 130 -127s-57 -127 -130 -127zM586 1586c-73 0 -129 57 -129 127s56 127 129 127s130 -57 130 -127s-57 -127 -130 -127zM1100 1197h-271l-203 -951h269l-51 -246h-270h-304h-270l51 246h271l203 951h-269
l51 246h270h304h270z" />
    <glyph glyph-name="Omicrontonosgreek" unicode="&#x38c;" horiz-adv-x="1801" 
d="M164 1121l147 322h306l-223 -322h-230zM1171 1207c-265 0 -463 -266 -463 -593c0 -230 129 -378 328 -378c265 0 463 266 463 594c0 230 -129 377 -328 377zM1030 -24c-387 0 -629 257 -629 621c0 503 335 870 775 870c392 0 631 -258 631 -621
c0 -504 -338 -870 -777 -870z" />
    <glyph glyph-name="Upsilontonosgreek" unicode="&#x38e;" horiz-adv-x="1874" 
d="M265 1121l147 322h306l-223 -322h-230zM1281 0h-304l114 535l-310 908h315l199 -618h6l454 618h333l-695 -920z" />
    <glyph glyph-name="Upsilondieresisgreek" unicode="&#x3ab;" horiz-adv-x="1343" 
d="M750 0h-304l114 535l-310 908h315l199 -618h6l454 618h333l-695 -920zM758 1586c-73 0 -129 57 -129 127s56 127 129 127s130 -57 130 -127s-57 -127 -130 -127zM1153 1586c-73 0 -129 57 -129 127s56 127 129 127s130 -57 130 -127s-57 -127 -130 -127z" />
    <glyph glyph-name="Omegatonosgreek" unicode="&#x38f;" horiz-adv-x="1869" 
d="M164 1121l147 322h306l-223 -322h-230zM1142 0l61 301c241 113 378 311 378 556c0 210 -142 350 -358 350c-277 0 -465 -207 -465 -517c0 -174 74 -299 216 -389l-61 -301h-579l50 247h289l1 7c-141 104 -219 258 -219 438c0 481 342 776 800 776
c380 0 624 -229 624 -571c0 -262 -147 -513 -390 -642l-1 -8h298l-50 -247h-594z" />
    <glyph glyph-name="Acyrillic" unicode="&#x410;" horiz-adv-x="1403" 
d="M881 1150l-307 -573h374l-60 573h-7zM1002 0l-36 344h-508l-188 -344h-323l816 1443h356l186 -1443h-303z" />
    <glyph glyph-name="uni04D0" unicode="&#x4d0;" horiz-adv-x="1403" 
d="M881 1150l-307 -573h374l-60 573h-7zM1002 0l-36 344h-508l-188 -344h-323l816 1443h356l186 -1443h-303zM659 1860h193c-19 -98 39 -155 137 -155c102 0 182 57 204 155h193c-41 -191 -184 -310 -407 -310s-355 114 -320 310z" />
    <glyph glyph-name="uni04D2" unicode="&#x4d2;" horiz-adv-x="1403" 
d="M881 1150l-307 -573h374l-60 573h-7zM1002 0l-36 344h-508l-188 -344h-323l816 1443h356l186 -1443h-303zM796 1586c-73 0 -129 57 -129 127s56 127 129 127s130 -57 130 -127s-57 -127 -130 -127zM1191 1586c-73 0 -129 57 -129 127s56 127 129 127s130 -57 130 -127
s-57 -127 -130 -127z" />
    <glyph glyph-name="uniF50E" horiz-adv-x="1403" 
d="M881 1150l-307 -573h374l-60 573h-7zM1002 0l-36 344h-508l-188 -344h-323l816 1443h356l186 -1443h-303zM1354 1770l-31 -151h-692l32 151h691z" />
    <glyph glyph-name="uniF460" horiz-adv-x="1403" 
d="M881 1150l-307 -573h374l-60 573h-7zM1002 0l-36 344h-508l-188 -344h-323l816 1443h356l186 -1443h-303zM1086 1557h-242l291 307h283z" />
    <glyph glyph-name="Becyrillic" unicode="&#x411;" horiz-adv-x="1308" 
d="M654 0h-600l307 1443h964l-53 -258h-659l-63 -281h223c302 0 493 -145 493 -388c0 -293 -242 -516 -612 -516zM409 245h238c181 0 314 103 314 240c0 121 -93 182 -242 182h-218z" />
    <glyph glyph-name="Vecyrillic" unicode="&#x412;" horiz-adv-x="1354" 
d="M749 0h-695l307 1443h590c259 0 413 -130 413 -312c0 -189 -137 -332 -327 -374l-1 -7c156 -30 258 -144 258 -291c0 -267 -224 -459 -545 -459zM615 1227l-80 -370h238c171 0 286 90 286 215c0 99 -75 155 -216 155h-228zM401 232h291c178 0 295 97 295 235
c0 112 -80 176 -237 176h-260z" />
    <glyph glyph-name="Gecyrillic" unicode="&#x413;" horiz-adv-x="1127" 
d="M358 0h-304l307 1443h936l-54 -258h-631z" />
    <glyph glyph-name="Gjecyrillic" unicode="&#x403;" horiz-adv-x="1127" 
d="M358 0h-304l307 1443h936l-54 -258h-631zM956 1557h-242l291 307h283z" />
    <glyph glyph-name="Geupturncyrillic" unicode="&#x490;" horiz-adv-x="1128" 
d="M612 1185l-253 -1185h-305l307 1443h653l60 285h283l-113 -543h-632z" />
    <glyph glyph-name="uni04F6" unicode="&#x4f6;" horiz-adv-x="1127" 
d="M361 1443h936l-54 -258h-631l-199 -927h177l-113 -543h-274l61 285h-210z" />
    <glyph glyph-name="uni0492" unicode="&#x492;" horiz-adv-x="1127" 
d="M1243 1185h-631l-79 -370h433l-46 -224h-435l-127 -591h-304l126 591h-128l46 224h129l134 628h936z" />
    <glyph glyph-name="uniF53C" horiz-adv-x="1137" 
d="M367 0h-313l307 1443h946l-54 -258h-632l-82 -376h576l-52 -247h-575z" />
    <glyph glyph-name="uni04FA" unicode="&#x4fa;" horiz-adv-x="1127" 
d="M1243 1185h-631l-79 -370h433l-46 -224h-435l-127 -591l-6 -24c-52 -251 -176 -348 -448 -348c-31 0 -81 5 -103 12l47 227c7 -2 34 -3 44 -3c95 0 140 35 163 142l4 19v0l121 566h-128l46 224h129l134 628h936z" />
    <glyph glyph-name="Decyrillic" unicode="&#x414;" horiz-adv-x="1528" 
d="M578 612c-44 -156 -88 -264 -163 -336l-4 -18h586l201 928h-457zM201 0l-61 -285h-274l114 543h101c115 71 169 183 222 379l224 806h1028l-254 -1185h180l-114 -543h-273l61 285h-954z" />
    <glyph glyph-name="uni0414.BUL" horiz-adv-x="1585" 
d="M238 0l-61 -285h-274l114 543h152l667 1185h365l165 -1185h157l-114 -543h-273l61 285h-959zM944 1134l-465 -866h583l-104 866h-14z" />
    <glyph glyph-name="Iecyrillic" unicode="&#x415;" horiz-adv-x="1181" 
d="M1064 258l-53 -258h-957l307 1443h957l-54 -258h-652l-74 -337h615l-49 -239h-615l-78 -351h653z" />
    <glyph glyph-name="Iocyrillic" unicode="&#x401;" horiz-adv-x="1181" 
d="M1064 258l-53 -258h-957l307 1443h957l-54 -258h-652l-74 -337h615l-49 -239h-615l-78 -351h653zM684 1586c-73 0 -129 57 -129 127s56 127 129 127s130 -57 130 -127s-57 -127 -130 -127zM1079 1586c-73 0 -129 57 -129 127s56 127 129 127s130 -57 130 -127
s-57 -127 -130 -127z" />
    <glyph glyph-name="uni04D6" unicode="&#x4d6;" horiz-adv-x="1181" 
d="M1064 258l-53 -258h-957l307 1443h957l-54 -258h-652l-74 -337h615l-49 -239h-615l-78 -351h653zM547 1860h193c-19 -98 39 -155 137 -155c102 0 182 57 204 155h193c-41 -191 -184 -310 -407 -310s-355 114 -320 310z" />
    <glyph glyph-name="uniF510" horiz-adv-x="1181" 
d="M1064 258l-53 -258h-957l307 1443h957l-54 -258h-652l-74 -337h615l-49 -239h-615l-78 -351h653zM1242 1770l-31 -151h-692l32 151h691z" />
    <glyph glyph-name="uniF512" horiz-adv-x="1181" 
d="M1064 258l-53 -258h-957l307 1443h957l-54 -258h-652l-74 -337h615l-49 -239h-615l-78 -351h653zM672 1805c74 0 131 -58 131 -131c0 -71 -57 -130 -131 -130c-75 0 -132 59 -132 130c0 73 57 131 132 131zM1302 2077l-32 -151h-691l32 151h691zM1071 1805
c75 0 131 -58 131 -131c0 -71 -56 -130 -131 -130s-131 59 -131 130c0 73 56 131 131 131z" />
    <glyph glyph-name="uni0400" unicode="&#x400;" horiz-adv-x="1181" 
d="M1064 258l-53 -258h-957l307 1443h957l-54 -258h-652l-74 -337h615l-49 -239h-615l-78 -351h653zM737 1557l-203 307h258l161 -307h-216z" />
    <glyph glyph-name="uniF461" horiz-adv-x="1181" 
d="M1064 258l-53 -258h-957l307 1443h957l-54 -258h-652l-74 -337h615l-49 -239h-615l-78 -351h653zM974 1557h-242l291 307h283z" />
    <glyph glyph-name="uniF469" horiz-adv-x="1181" 
d="M1064 258l-53 -258h-957l307 1443h957l-54 -258h-652l-74 -337h615l-49 -239h-615l-78 -351h653zM937 1592h-192l94 327h292zM1250 1586c-77 0 -135 60 -135 133c-1 74 58 133 134 133c77 0 135 -59 136 -133c0 -73 -58 -133 -135 -133zM568 1586c-77 0 -135 60 -135 133
c-1 74 58 133 134 133c77 0 135 -59 136 -133c0 -73 -58 -133 -135 -133z" />
    <glyph glyph-name="uniF514" horiz-adv-x="1181" 
d="M616 2153h209c-1 -7 -2 -15 -2 -21c0 -59 46 -94 123 -94c86 0 153 44 170 115h210c-35 -167 -197 -278 -413 -278c-190 0 -304 86 -304 221c0 19 2 37 7 57zM492 1564c35 168 197 278 413 278c190 0 304 -86 304 -221c0 -18 -2 -37 -7 -57h-209c1 8 2 15 2 22
c0 58 -46 93 -123 93c-87 0 -153 -44 -170 -115h-210zM1064 258l-53 -258h-957l307 1443h957l-54 -258h-652l-74 -337h615l-49 -239h-615l-78 -351h653z" />
    <glyph glyph-name="Zhecyrillic" unicode="&#x416;" horiz-adv-x="2081" 
d="M953 614l-637 -614h-368l770 757l-395 686h316l358 -620h12l133 620h297l-133 -621h13l624 621h335l-730 -737l421 -706h-318l-373 614h-14l-132 -614h-297l132 614h-14z" />
    <glyph glyph-name="uni04C1" unicode="&#x4c1;" horiz-adv-x="2081" 
d="M953 614l-637 -614h-368l770 757l-395 686h316l358 -620h12l133 620h297l-133 -621h13l624 621h335l-730 -737l421 -706h-318l-373 614h-14l-132 -614h-297l132 614h-14zM1020 1860h179c-3 -12 -6 -26 -6 -40c0 -81 53 -130 146 -130c107 0 189 66 214 170h184
c-44 -187 -197 -321 -425 -321c-187 0 -300 109 -300 254c0 23 3 46 8 67z" />
    <glyph glyph-name="uni04DC" unicode="&#x4dc;" horiz-adv-x="2081" 
d="M953 614l-637 -614h-368l770 757l-395 686h316l358 -620h12l133 620h297l-133 -621h13l624 621h335l-730 -737l421 -706h-318l-373 614h-14l-132 -614h-297l132 614h-14zM1147 1586c-73 0 -129 57 -129 127s56 127 129 127s130 -57 130 -127s-57 -127 -130 -127z
M1542 1586c-73 0 -129 57 -129 127s56 127 129 127s130 -57 130 -127s-57 -127 -130 -127z" />
    <glyph glyph-name="uni0496" unicode="&#x496;" horiz-adv-x="2171" 
d="M1548 706l267 -448h266l-113 -543h-274l61 285h-104l-373 614h-14l-132 -614h-297l132 614h-14l-637 -614h-368l770 757l-395 686h316l358 -620h12l133 620h297l-133 -621h13l624 621h335z" />
    <glyph glyph-name="uni0416.BUL" horiz-adv-x="2101" 
d="M2298 1443l-636 -649l347 -794h-324l-255 604l-189 -179l-91 -425h-300l91 425l-107 171l-519 -596h-367l724 833l-355 610h327l356 -643h19l138 643h300l-138 -643h19l622 643h338z" />
    <glyph glyph-name="Zecyrillic" unicode="&#x417;" horiz-adv-x="1274" 
d="M486 623l47 234h189c171 0 282 75 282 192c0 104 -91 173 -229 173c-130 0 -237 -73 -256 -176h-278c34 249 262 421 559 421c290 0 495 -157 495 -380c0 -181 -140 -329 -337 -355l-1 -7c158 -38 251 -150 251 -302c0 -260 -244 -448 -581 -448
c-350 0 -581 197 -546 464h281c-4 -128 107 -216 273 -216c159 0 277 90 277 213c0 117 -97 187 -258 187h-168z" />
    <glyph glyph-name="uni04DE" unicode="&#x4de;" horiz-adv-x="1274" 
d="M486 623l47 234h189c171 0 282 75 282 192c0 104 -91 173 -229 173c-130 0 -237 -73 -256 -176h-278c34 249 262 421 559 421c290 0 495 -157 495 -380c0 -181 -140 -329 -337 -355l-1 -7c158 -38 251 -150 251 -302c0 -260 -244 -448 -581 -448
c-350 0 -581 197 -546 464h281c-4 -128 107 -216 273 -216c159 0 277 90 277 213c0 117 -97 187 -258 187h-168zM703 1586c-73 0 -129 57 -129 127s56 127 129 127s130 -57 130 -127s-57 -127 -130 -127zM1098 1586c-73 0 -129 57 -129 127s56 127 129 127s130 -57 130 -127
s-57 -127 -130 -127z" />
    <glyph glyph-name="uni0498" unicode="&#x498;" horiz-adv-x="1274" 
d="M958 732l-1 -7c158 -38 251 -150 251 -302c0 -226 -185 -398 -455 -439l-57 -269h-260l58 270c-274 44 -443 223 -413 454h281c-4 -128 107 -216 273 -216c159 0 277 90 277 213c0 117 -97 187 -258 187h-168l47 234h189c171 0 282 75 282 192c0 104 -91 173 -229 173
c-130 0 -237 -73 -256 -176h-278c34 249 262 421 559 421c290 0 495 -157 495 -380c0 -181 -140 -329 -337 -355z" />
    <glyph glyph-name="uniF50A" horiz-adv-x="1274" 
d="M958 732l-1 -7c158 -38 251 -150 251 -302c0 -245 -217 -426 -525 -446l-55 -82c104 -5 163 -58 163 -147c0 -128 -118 -219 -287 -219c-59 0 -123 9 -157 21l29 140c34 -11 80 -18 125 -18c76 0 118 20 118 57c0 36 -37 51 -133 51h-58l22 101l68 101
c-288 36 -468 219 -437 457h281c-4 -128 107 -216 273 -216c159 0 277 90 277 213c0 117 -97 187 -258 187h-168l47 234h189c171 0 282 75 282 192c0 104 -91 173 -229 173c-130 0 -237 -73 -256 -176h-278c34 249 262 421 559 421c290 0 495 -157 495 -380
c0 -181 -140 -329 -337 -355z" />
    <glyph glyph-name="uniF516" horiz-adv-x="1274" 
d="M486 623l47 234h189c171 0 282 75 282 192c0 104 -91 173 -229 173c-130 0 -237 -73 -256 -176h-278c34 249 262 421 559 421c290 0 495 -157 495 -380c0 -181 -140 -329 -337 -355l-1 -7c158 -38 251 -150 251 -302c0 -260 -244 -448 -581 -448
c-350 0 -581 197 -546 464h281c-4 -128 107 -216 273 -216c159 0 277 90 277 213c0 117 -97 187 -258 187h-168zM759 1547l-202 319h215l116 -192h7l197 192h227l-336 -319h-224z" />
    <glyph glyph-name="Iicyrillic" unicode="&#x418;" horiz-adv-x="1517" 
d="M1015 0l208 959h-18l-858 -959h-293l307 1443h298l-208 -961h18l858 961h293l-307 -1443h-298z" />
    <glyph glyph-name="Iishortcyrillic" unicode="&#x419;" horiz-adv-x="1517" 
d="M1015 0l208 959h-18l-858 -959h-293l307 1443h298l-208 -961h18l858 961h293l-307 -1443h-298zM710 1860h193c-19 -98 39 -155 137 -155c102 0 182 57 204 155h193c-41 -191 -184 -310 -407 -310s-355 114 -320 310z" />
    <glyph glyph-name="uni040D" unicode="&#x40d;" horiz-adv-x="1517" 
d="M1015 0l208 959h-18l-858 -959h-293l307 1443h298l-208 -961h18l858 961h293l-307 -1443h-298zM900 1557l-203 307h258l161 -307h-216z" />
    <glyph glyph-name="uni04E2" unicode="&#x4e2;" horiz-adv-x="1517" 
d="M1015 0l208 959h-18l-858 -959h-293l307 1443h298l-208 -961h18l858 961h293l-307 -1443h-298zM1405 1770l-31 -151h-692l32 151h691z" />
    <glyph glyph-name="uni04E4" unicode="&#x4e4;" horiz-adv-x="1517" 
d="M1015 0l208 959h-18l-858 -959h-293l307 1443h298l-208 -961h18l858 961h293l-307 -1443h-298zM847 1586c-73 0 -129 57 -129 127s56 127 129 127s130 -57 130 -127s-57 -127 -130 -127zM1242 1586c-73 0 -129 57 -129 127s56 127 129 127s130 -57 130 -127
s-57 -127 -130 -127z" />
    <glyph glyph-name="uni048A" unicode="&#x48a;" horiz-adv-x="1653" 
d="M1244 1860h193c-41 -191 -184 -310 -407 -310s-355 114 -320 310h193c-19 -98 39 -155 137 -155c102 0 182 57 204 155zM1620 1443l-252 -1185h205l-13 -64l-236 -479h-275l141 285h-175l53 258h3l152 701h-18l-858 -959h-293l307 1443h298l-208 -961h18l858 961h293z
" />
    <glyph glyph-name="uniF462" horiz-adv-x="1517" 
d="M1015 0l208 959h-18l-858 -959h-293l307 1443h298l-208 -961h18l858 961h293l-307 -1443h-298zM1137 1557h-242l291 307h283z" />
    <glyph glyph-name="uniF532" horiz-adv-x="1517" 
d="M1244 1860h193c-41 -191 -184 -310 -407 -310s-355 114 -320 310h193c-19 -98 39 -155 137 -155c102 0 182 57 204 155zM1620 1443l-307 -1442l10 -1l-15 -24c-53 -251 -177 -348 -448 -348c-31 0 -81 5 -103 12l47 227c7 -2 31 -3 41 -3c100 0 143 35 166 142l9 19v0
l203 934h-18l-858 -959h-293l307 1443h298l-208 -961h18l858 961h293z" />
    <glyph glyph-name="Kacyrillic" unicode="&#x41a;" horiz-adv-x="1374" 
d="M1564 1443l-775 -731l487 -712h-346l-428 614h-11l-133 -614h-304l307 1443h304l-132 -619h10l658 619h363z" />
    <glyph glyph-name="Kjecyrillic" unicode="&#x40c;" horiz-adv-x="1374" 
d="M1366 1864l-332 -307h-242l291 307h283zM1564 1443l-775 -731l487 -712h-346l-428 614h-11l-133 -614h-304l307 1443h304l-132 -619h10l658 619h363z" />
    <glyph glyph-name="uni049A" unicode="&#x49a;" horiz-adv-x="1450" 
d="M789 712l311 -454h260l-113 -543h-274l61 285h-104l-428 614h-11l-133 -614h-304l307 1443h304l-132 -619h10l658 619h363z" />
    <glyph glyph-name="uni049C" unicode="&#x49c;" horiz-adv-x="1502" 
d="M1684 1443l-593 -733l293 -710h-331l-252 596h-29l-62 -292h-186l62 292h-102l-128 -596h-302l307 1443h302l-132 -618h104l62 294h185l-62 -294h27l502 618h335z" />
    <glyph glyph-name="uni049E" unicode="&#x49e;" horiz-adv-x="1374" 
d="M1564 1443l-775 -731l487 -712h-346l-428 614h-11l-133 -614h-304l236 1111h-137l43 208h139l26 124h304l-26 -124h189l-43 -208h-191l-61 -287h10l658 619h363z" />
    <glyph glyph-name="uni04A0" unicode="&#x4a0;" horiz-adv-x="1905" 
d="M2095 1443l-775 -731l487 -712h-346l-428 614h-11l-133 -614h-304l252 1185h-613l53 258h615h304l-54 -258h-1l-77 -361h10l658 619h363z" />
    <glyph glyph-name="uni04C3" unicode="&#x4c3;" horiz-adv-x="1361" 
d="M516 -420c-48 0 -94 4 -119 11l51 248c22 -4 47 -6 81 -6c254 0 404 215 404 423c0 196 -157 317 -424 317h-27l-123 -573h-302l307 1443h302l-131 -613h10l657 613h362l-707 -659c246 -75 387 -261 387 -506c0 -342 -272 -698 -728 -698z" />
    <glyph glyph-name="uni041A.BUL" horiz-adv-x="1358" 
d="M353 0h-304l307 1443h304l-137 -640h6l668 640h359l-679 -663l391 -780h-337l-302 599l-184 -174z" />
    <glyph glyph-name="Elcyrillic" unicode="&#x41b;" horiz-adv-x="1440" 
d="M1236 0h-304l253 1185h-422l-167 -612c-97 -369 -231 -586 -553 -586c-49 0 -88 7 -106 13l56 272c14 -3 40 -8 66 -8c137 0 210 136 262 330l224 849h998z" />
    <glyph glyph-name="uni04C5" unicode="&#x4c5;" horiz-adv-x="1569" 
d="M1543 1443l-252 -1185h198l-13 -64l-235 -479h-275l140 285h-174l53 258h2l198 927h-422l-167 -612c-97 -369 -231 -586 -553 -586c-49 0 -88 7 -106 13l56 272c14 -3 40 -8 66 -8c137 0 210 136 262 330l224 849h998z" />
    <glyph glyph-name="uniF530" horiz-adv-x="1568" 
d="M1543 1443l-252 -1185h177l-114 -543h-273l61 285h-210l55 258v0l198 927h-422l-167 -612c-97 -369 -231 -586 -553 -586c-49 0 -88 7 -106 13l56 272c14 -3 40 -8 66 -8c137 0 210 136 262 330l224 849h998z" />
    <glyph glyph-name="uni052E" unicode="&#x52e;" horiz-adv-x="1568" 
d="M1543 1443l-252 -1185h177l-114 -543h-273l61 285h-210l55 258v0l198 927h-422l-167 -612c-97 -369 -231 -586 -553 -586c-49 0 -88 7 -106 13l56 272c14 -3 40 -8 66 -8c137 0 210 136 262 330l224 849h998z" />
    <glyph glyph-name="uni0512" unicode="&#x512;" horiz-adv-x="1440" 
d="M1543 1443l-307 -1443h5l-11 -24c-52 -251 -176 -348 -447 -348c-31 0 -81 5 -103 12l47 227c6 -2 31 -3 40 -3c98 0 140 35 163 142l7 19v0l248 1160h-422l-167 -612c-97 -369 -231 -586 -553 -586c-49 0 -88 7 -106 13l56 272c14 -3 40 -8 66 -8c137 0 210 136 262 330
l224 849h998z" />
    <glyph glyph-name="uni041B.BUL" horiz-adv-x="1364" 
d="M-50 0l776 1443h367l171 -1443h-334l-89 1102h-12l-547 -1102h-332z" />
    <glyph glyph-name="Emcyrillic" unicode="&#x41c;" horiz-adv-x="1788" 
d="M327 0h-272l306 1443h346l181 -1045h6l620 1045h377l-307 -1443h-272l217 1005h-10l-600 -1000h-199l-171 1000h-7z" />
    <glyph glyph-name="uni04CD" unicode="&#x4cd;" horiz-adv-x="1949" 
d="M1891 1443l-252 -1185h230l-13 -64l-235 -479h-275l140 285h-174l53 258h3l161 747h-10l-600 -1000h-199l-171 1000h-7l-215 -1005h-272l306 1443h346l181 -1045h6l620 1045h377z" />
    <glyph glyph-name="Encyrillic" unicode="&#x41d;" horiz-adv-x="1514" 
d="M1310 0h-309l130 605h-638l-130 -605h-309l307 1443h309l-125 -584h638l125 584h309z" />
    <glyph glyph-name="uni04C7" unicode="&#x4c7;" horiz-adv-x="1514" 
d="M1308 1443h309l-307 -1443h-2l-5 -24c-53 -251 -177 -348 -448 -348c-31 0 -81 5 -103 12l47 227c7 -2 31 -3 41 -3c95 0 137 35 160 142l4 19h2l125 580h-638l-130 -605h-309l307 1443h309l-125 -584h638z" />
    <glyph glyph-name="uni04A2" unicode="&#x4a2;" horiz-adv-x="1637" 
d="M1617 1443l-252 -1185h172l-113 -543h-274l61 285h-210l55 258v0l75 347h-638l-130 -605h-309l307 1443h309l-125 -584h638l125 584h309z" />
    <glyph glyph-name="uni04C9" unicode="&#x4c9;" horiz-adv-x="1639" 
d="M1617 1443l-252 -1185h194l-13 -64l-236 -479h-275l141 285h-175l53 258h2l75 347h-638l-130 -605h-309l307 1443h309l-125 -584h638l125 584h309z" />
    <glyph glyph-name="uni04A4" unicode="&#x4a4;" horiz-adv-x="2007" 
d="M2177 1443l-53 -258h-562l-252 -1185h-309l130 605h-638l-130 -605h-309l307 1443h309l-125 -584h638l125 584h309h560z" />
    <glyph glyph-name="Ocyrillic" unicode="&#x41e;" horiz-adv-x="1562" 
d="M927 1207c-265 0 -463 -266 -463 -593c0 -230 129 -378 328 -378c265 0 463 266 463 594c0 230 -129 377 -328 377zM786 -24c-387 0 -629 257 -629 621c0 503 335 870 775 870c392 0 631 -258 631 -621c0 -504 -338 -870 -777 -870z" />
    <glyph glyph-name="uni04E6" unicode="&#x4e6;" horiz-adv-x="1562" 
d="M927 1207c-265 0 -463 -266 -463 -593c0 -230 129 -378 328 -378c265 0 463 266 463 594c0 230 -129 377 -328 377zM786 -24c-387 0 -629 257 -629 621c0 503 335 870 775 870c392 0 631 -258 631 -621c0 -504 -338 -870 -777 -870zM805 1586c-73 0 -129 57 -129 127
s56 127 129 127s130 -57 130 -127s-57 -127 -130 -127zM1200 1586c-73 0 -129 57 -129 127s56 127 129 127s130 -57 130 -127s-57 -127 -130 -127z" />
    <glyph glyph-name="uniF518" horiz-adv-x="1562" 
d="M927 1207c-265 0 -463 -266 -463 -593c0 -230 129 -378 328 -378c265 0 463 266 463 594c0 230 -129 377 -328 377zM786 -24c-387 0 -629 257 -629 621c0 503 335 870 775 870c392 0 631 -258 631 -621c0 -504 -338 -870 -777 -870zM1363 1770l-31 -151h-692l32 151h691z
" />
    <glyph glyph-name="uniF463" horiz-adv-x="1562" 
d="M927 1207c-265 0 -463 -266 -463 -593c0 -230 129 -378 328 -378c265 0 463 266 463 594c0 230 -129 377 -328 377zM786 -24c-387 0 -629 257 -629 621c0 503 335 870 775 870c392 0 631 -258 631 -621c0 -504 -338 -870 -777 -870zM1095 1557h-242l291 307h283z" />
    <glyph glyph-name="uniF4D2" horiz-adv-x="1562" 
d="M927 1207c-265 0 -463 -266 -463 -593c0 -230 129 -378 328 -378c265 0 463 266 463 594c0 230 -129 377 -328 377zM786 -24c-387 0 -629 257 -629 621c0 503 335 870 775 870c392 0 631 -258 631 -621c0 -504 -338 -870 -777 -870zM858 1557l-203 307h258l161 -307h-216
z" />
    <glyph glyph-name="uniF51A" horiz-adv-x="1562" 
d="M927 1207c-265 0 -463 -266 -463 -593c0 -230 129 -378 328 -378c265 0 463 266 463 594c0 230 -129 377 -328 377zM786 -24c-387 0 -629 257 -629 621c0 503 335 870 775 870c392 0 631 -258 631 -621c0 -504 -338 -870 -777 -870zM668 1860h193
c-19 -98 39 -155 137 -155c102 0 182 57 204 155h193c-41 -191 -184 -310 -407 -310s-355 114 -320 310z" />
    <glyph glyph-name="uni04E8" unicode="&#x4e8;" horiz-adv-x="1562" 
d="M1227 613h-765c0 -229 129 -377 330 -377c205 0 369 156 435 377zM499 851h759c-8 218 -136 356 -331 356c-198 0 -358 -147 -428 -356zM932 1467c392 0 631 -258 631 -621c0 -504 -338 -870 -777 -870c-387 0 -629 257 -629 621c0 503 335 870 775 870z" />
    <glyph glyph-name="uniF49A" horiz-adv-x="1562" 
d="M1429 1770l-31 -151h-692l32 151h691zM1227 613h-765c0 -229 129 -377 330 -377c205 0 369 156 435 377zM499 851h759c-8 218 -136 356 -331 356c-198 0 -358 -147 -428 -356zM932 1467c392 0 631 -258 631 -621c0 -504 -338 -870 -777 -870c-387 0 -629 257 -629 621
c0 503 335 870 775 870z" />
    <glyph glyph-name="uniF51C" horiz-adv-x="1562" 
d="M1268 1860h193c-41 -191 -184 -310 -407 -310s-355 114 -320 310h193c-19 -98 39 -155 137 -155c102 0 182 57 204 155zM1227 613h-765c0 -229 129 -377 330 -377c205 0 369 156 435 377zM499 851h759c-8 218 -136 356 -331 356c-198 0 -358 -147 -428 -356zM932 1467
c392 0 631 -258 631 -621c0 -504 -338 -870 -777 -870c-387 0 -629 257 -629 621c0 503 335 870 775 870z" />
    <glyph glyph-name="uniF51E" horiz-adv-x="1562" 
d="M1309 2153h209c-35 -167 -197 -278 -413 -278c-190 0 -303 86 -303 221c0 19 2 37 6 57h210c-2 -7 -2 -15 -2 -21c0 -59 45 -94 122 -94c87 0 153 44 171 115zM1395 1564h-210c2 8 2 15 2 22c0 58 -46 93 -123 93c-86 0 -152 -44 -170 -115h-209c35 168 197 278 413 278
c190 0 303 -86 303 -221c0 -18 -2 -37 -6 -57zM1227 613h-765c0 -229 129 -377 330 -377c205 0 369 156 435 377zM499 851h759c-8 218 -136 356 -331 356c-198 0 -358 -147 -428 -356zM932 1467c392 0 631 -258 631 -621c0 -504 -338 -870 -777 -870
c-387 0 -629 257 -629 621c0 503 335 870 775 870z" />
    <glyph glyph-name="uni04EA" unicode="&#x4ea;" horiz-adv-x="1562" 
d="M1266 1586c-73 0 -129 57 -129 127s56 127 129 127s130 -57 130 -127s-57 -127 -130 -127zM871 1586c-73 0 -129 57 -129 127s56 127 129 127s130 -57 130 -127s-57 -127 -130 -127zM1227 613h-765c0 -229 129 -377 330 -377c205 0 369 156 435 377zM499 851h759
c-8 218 -136 356 -331 356c-198 0 -358 -147 -428 -356zM932 1467c392 0 631 -258 631 -621c0 -504 -338 -870 -777 -870c-387 0 -629 257 -629 621c0 503 335 870 775 870z" />
    <glyph glyph-name="uni0472" unicode="&#x472;" horiz-adv-x="1562" 
d="M792 236c212 0 381 168 442 402c-61 -48 -133 -73 -208 -72c-181 0 -258 88 -401 88c-75 0 -128 -22 -163 -49c3 -225 132 -369 330 -369zM927 1207c-208 0 -374 -161 -437 -387c55 41 121 64 191 64c180 0 256 -88 405 -88c80 0 136 24 172 54c-8 218 -136 357 -331 357
zM932 1467c392 0 631 -258 631 -621c0 -504 -338 -870 -777 -870c-387 0 -629 257 -629 621c0 503 335 870 775 870z" />
    <glyph glyph-name="Pecyrillic" unicode="&#x41f;" horiz-adv-x="1497" 
d="M1293 0h-302l253 1184h-633l-253 -1184h-304l307 1443h1239z" />
    <glyph glyph-name="uni0524" unicode="&#x524;" horiz-adv-x="1627" 
d="M1600 1443l-252 -1185h179l-114 -543h-273l61 285h-210l55 258v0l198 926h-633l-253 -1184h-304l307 1443h1239z" />
    <glyph glyph-name="Dzhecyrillic" unicode="&#x40f;" horiz-adv-x="1497" 
d="M1293 0h-461l-61 -285h-260l61 285h-518l307 1443h302l-253 -1184h633l253 1184h304z" />
    <glyph glyph-name="Ercyrillic" unicode="&#x420;" horiz-adv-x="1301" 
d="M361 1443h527c286 0 473 -167 473 -422c0 -354 -256 -573 -628 -573h-277l-97 -448h-304zM614 1195l-109 -502h224c198 0 326 118 326 299c0 133 -89 203 -238 203h-203z" />
    <glyph glyph-name="uni048E" unicode="&#x48e;" horiz-adv-x="1300" 
d="M504 693h224h19l-78 182l173 75l90 -202c77 52 122 137 122 244c0 133 -89 203 -238 203h-203zM360 1443h527c286 0 473 -167 473 -422c0 -236 -113 -411 -299 -503l76 -169l-222 -107l-90 211c-30 -3 -61 -5 -93 -5h-277l-97 -448h-304z" />
    <glyph glyph-name="uniF4D4" horiz-adv-x="1301" 
d="M361 1443h527c286 0 473 -167 473 -422c0 -354 -256 -573 -628 -573h-277l-97 -448h-304zM614 1195l-109 -502h224c198 0 326 118 326 299c0 133 -89 203 -238 203h-203zM673 1547l-202 319h215l116 -192h7l197 192h227l-336 -319h-224z" />
    <glyph glyph-name="Escyrillic" unicode="&#x421;" horiz-adv-x="1481" 
d="M1228 914c0 6 0 13 -1 33c-10 154 -136 258 -302 258c-270 0 -457 -249 -457 -597c0 -228 122 -368 321 -368c166 0 301 96 356 253h297c-65 -312 -331 -517 -669 -517c-375 0 -616 241 -616 615c0 518 319 876 791 876c331 0 569 -204 578 -505c1 -21 0 -35 -2 -48h-296
z" />
    <glyph glyph-name="uni04AA" unicode="&#x4aa;" horiz-adv-x="1481" 
d="M597 -119l69 102c-313 42 -509 271 -509 608c0 518 319 876 791 876c331 0 569 -204 578 -505c1 -21 0 -35 -2 -48h-296c0 6 0 13 -1 33c-10 154 -136 258 -302 258c-270 0 -457 -249 -457 -597c0 -228 122 -368 321 -368c166 0 301 96 356 253h297
c-61 -294 -301 -493 -611 -515l-56 -83c104 -5 163 -58 163 -147c0 -128 -118 -219 -287 -219c-59 0 -123 9 -157 21l29 140c34 -11 80 -18 125 -18c76 0 118 20 118 57c0 36 -37 51 -133 51h-58z" />
    <glyph glyph-name="uniF53E" horiz-adv-x="1481" 
d="M574 -285l58 273c-293 54 -475 278 -475 603c0 518 319 876 791 876c331 0 569 -204 578 -505c1 -21 0 -35 -2 -48h-296c0 6 0 13 -1 33c-10 154 -136 258 -302 258c-270 0 -457 -249 -457 -597c0 -228 122 -368 321 -368c166 0 301 96 356 253h297
c-57 -275 -270 -466 -551 -508l-57 -270h-260z" />
    <glyph glyph-name="Tecyrillic" unicode="&#x422;" horiz-adv-x="1269" 
d="M712 0h-304l253 1185h-432l53 258h1168l-53 -258h-432z" />
    <glyph glyph-name="uni04AC" unicode="&#x4ac;" horiz-adv-x="1269" 
d="M282 1443h1168l-53 -258h-432l-198 -927h177l-114 -543h-273l61 285h-210l55 258v0l198 927h-432z" />
    <glyph glyph-name="Ucyrillic" unicode="&#x423;" horiz-adv-x="1351" 
d="M277 -13c-66 0 -112 12 -117 14l52 255c6 -2 32 -9 84 -9c86 0 159 29 221 101l-243 1095h317l140 -786h18l468 786h329l-674 -1048c-166 -260 -318 -408 -595 -408z" />
    <glyph glyph-name="Ushortcyrillic" unicode="&#x40e;" horiz-adv-x="1351" 
d="M277 -13c-66 0 -112 12 -117 14l52 255c6 -2 32 -9 84 -9c86 0 159 29 221 101l-243 1095h317l140 -786h18l468 786h329l-674 -1048c-166 -260 -318 -408 -595 -408zM620 1860h193c-19 -98 39 -155 137 -155c102 0 182 57 204 155h193c-41 -191 -184 -310 -407 -310
s-355 114 -320 310z" />
    <glyph glyph-name="uni04EE" unicode="&#x4ee;" horiz-adv-x="1351" 
d="M277 -13c-66 0 -112 12 -117 14l52 255c6 -2 32 -9 84 -9c86 0 159 29 221 101l-243 1095h317l140 -786h18l468 786h329l-674 -1048c-166 -260 -318 -408 -595 -408zM1315 1770l-31 -151h-692l32 151h691z" />
    <glyph glyph-name="uni04F0" unicode="&#x4f0;" horiz-adv-x="1351" 
d="M277 -13c-66 0 -112 12 -117 14l52 255c6 -2 32 -9 84 -9c86 0 159 29 221 101l-243 1095h317l140 -786h18l468 786h329l-674 -1048c-166 -260 -318 -408 -595 -408zM757 1586c-73 0 -129 57 -129 127s56 127 129 127s130 -57 130 -127s-57 -127 -130 -127zM1152 1586
c-73 0 -129 57 -129 127s56 127 129 127s130 -57 130 -127s-57 -127 -130 -127z" />
    <glyph glyph-name="uni04F2" unicode="&#x4f2;" horiz-adv-x="1351" 
d="M277 -13c-66 0 -112 12 -117 14l52 255c6 -2 32 -9 84 -9c86 0 159 29 221 101l-243 1095h317l140 -786h18l468 786h329l-674 -1048c-166 -260 -318 -408 -595 -408zM1256 1557h-238l291 307h279zM836 1557h-238l291 307h279z" />
    <glyph glyph-name="uniF4CC" horiz-adv-x="1351" 
d="M277 -13c-66 0 -112 12 -117 14l52 255c6 -2 32 -9 84 -9c86 0 159 29 221 101l-243 1095h317l140 -786h18l468 786h329l-674 -1048c-166 -260 -318 -408 -595 -408zM1047 1557h-242l291 307h283z" />
    <glyph glyph-name="uniF464" horiz-adv-x="1351" 
d="M277 -13c-66 0 -112 12 -117 14l52 255c6 -2 32 -9 84 -9c86 0 159 29 221 101l-243 1095h317l140 -786h18l468 786h329l-674 -1048c-166 -260 -318 -408 -595 -408zM1047 1557h-242l291 307h283z" />
    <glyph glyph-name="Efcyrillic" unicode="&#x424;" horiz-adv-x="1789" 
d="M962 -31h-299l32 154c-339 14 -549 211 -549 513c0 397 323 672 804 688l32 150h299l-31 -150c339 -13 550 -211 550 -515c0 -394 -324 -670 -806 -686zM455 647c0 -162 108 -264 294 -273l152 700c-258 -13 -446 -189 -446 -427zM1490 794c0 168 -108 270 -294 279
l-152 -699c260 13 446 189 446 420z" />
    <glyph glyph-name="Xacyrillic" unicode="&#x425;" horiz-adv-x="1400" 
d="M-37 0l631 730l-319 713h330l216 -489h8l405 489h361l-632 -728l319 -715h-330l-217 493h-8l-409 -493h-355z" />
    <glyph glyph-name="uni04B2" unicode="&#x4b2;" horiz-adv-x="1476" 
d="M962 715l204 -457h220l-113 -543h-274l61 285h-104h-5l-217 493h-8l-409 -493h-355l631 730l-319 713h330l216 -489h8l405 489h361z" />
    <glyph glyph-name="uni04FE" unicode="&#x4fe;" horiz-adv-x="1400" 
d="M1327 833l-46 -223h-271l272 -610h-330l-217 493h-8l-409 -493h-355l527 610h-269l45 223h282l-273 610h330l216 -489h8l405 489h361l-530 -610h262z" />
    <glyph glyph-name="uni04FC" unicode="&#x4fc;" horiz-adv-x="1406" 
d="M273 1443h330l215 -489h8l405 489h361l-632 -729l162 -359c37 -83 62 -147 81 -208c17 -58 24 -103 24 -159c0 -234 -180 -397 -440 -397c-59 0 -113 4 -141 9l49 239c18 -3 39 -5 68 -5c95 0 164 61 164 147c0 27 -4 53 -13 83c-12 40 -29 84 -52 135l-130 294h-8
l-408 -493h-355l630 730z" />
    <glyph glyph-name="Tsecyrillic" unicode="&#x426;" horiz-adv-x="1593" 
d="M1415 -285h-273l61 285h-1146l308 1443h304l-254 -1184h629l254 1184h305l-254 -1185h180z" />
    <glyph glyph-name="uni04B4" unicode="&#x4b4;" horiz-adv-x="1887" 
d="M1897 1443l-255 -1185h180l-113 -543h-274l61 285h-1146l253 1185h-374l53 258h376h304h374l-52 -258h-377l-199 -926h629l254 1184h306z" />
    <glyph glyph-name="Checyrillic" unicode="&#x427;" horiz-adv-x="1425" 
d="M1221 0h-304l126 589h-12c-89 -57 -207 -95 -355 -95c-332 0 -497 243 -426 576l79 373h304l-80 -378c-39 -181 32 -302 231 -302c139 0 252 43 315 96l125 584h304z" />
    <glyph glyph-name="uni04F4" unicode="&#x4f4;" horiz-adv-x="1425" 
d="M1221 0h-304l126 589h-12c-89 -57 -207 -95 -355 -95c-332 0 -497 243 -426 576l79 373h304l-80 -378c-39 -181 32 -302 231 -302c139 0 252 43 315 96l125 584h304zM796 1586c-73 0 -129 57 -129 127s56 127 129 127s130 -57 130 -127s-57 -127 -130 -127zM1191 1586
c-73 0 -129 57 -129 127s56 127 129 127s130 -57 130 -127s-57 -127 -130 -127z" />
    <glyph glyph-name="uni04B6" unicode="&#x4b6;" horiz-adv-x="1553" 
d="M1528 1443l-252 -1185h177l-113 -543h-274l61 285h-210l55 258v0l71 331h-12c-89 -57 -207 -95 -355 -95c-332 0 -497 243 -426 576l79 373h304l-80 -378c-39 -181 32 -302 231 -302c139 0 252 43 315 96l125 584h304z" />
    <glyph glyph-name="uni04CB" unicode="&#x4cb;" horiz-adv-x="1425" 
d="M1528 1443l-252 -1185h1l-56 -258h-210l-66 -285h-273l124 543h176l71 331h-12c-89 -57 -207 -95 -355 -95c-332 0 -497 243 -426 576l79 373h304l-80 -378c-39 -181 32 -302 231 -302c139 0 252 43 315 96l125 584h304z" />
    <glyph glyph-name="uniF4C6" horiz-adv-x="1425" 
d="M1528 1443l-307 -1443h5l-10 -24c-53 -251 -177 -348 -448 -348c-31 0 -81 5 -103 12l47 227c7 -2 31 -3 41 -3c98 0 140 35 162 142l7 19v0l121 564h-12c-89 -57 -207 -95 -355 -95c-332 0 -497 243 -426 576l79 373h304l-80 -378c-39 -181 32 -302 231 -302
c139 0 252 43 315 96l125 584h304z" />
    <glyph glyph-name="uni04B8" unicode="&#x4b8;" horiz-adv-x="1439" 
d="M1238 1443h304l-307 -1443h-304l126 588h-12c-55 -35 -123 -62 -201 -78l-49 -230h-200l46 215c-313 14 -466 252 -398 575l80 373h304l-81 -378c-33 -155 14 -266 153 -295l62 289h200l-61 -286c92 15 166 47 213 86z" />
    <glyph glyph-name="uni04BA" unicode="&#x4ba;" horiz-adv-x="1434" 
d="M361 1443h304l-125 -584h18c94 61 220 103 357 103c341 0 495 -221 429 -535l-91 -427h-304l86 402c40 184 -42 292 -235 292c-132 0 -245 -49 -319 -124l-123 -570h-304z" />
    <glyph glyph-name="uniF49E" horiz-adv-x="1434" 
d="M540 859h18c94 61 220 103 357 103c341 0 495 -221 429 -535l-91 -427h-304l86 402c40 184 -42 292 -235 292c-132 0 -245 -49 -319 -124l-123 -570h-304l236 1107h-149l45 216h149l26 120h304l-26 -120h387l-45 -216h-388z" />
    <glyph glyph-name="uni0526" unicode="&#x526;" horiz-adv-x="1585" 
d="M1308 258h177l-113 -543h-274l61 285h-210l55 258v0l31 144c40 184 -42 292 -235 292c-132 0 -245 -49 -319 -124l-123 -570h-304l307 1443h304l-125 -584h18c94 61 220 103 357 103c341 0 495 -221 429 -535z" />
    <glyph glyph-name="Tshecyrillic" unicode="&#x40b;" horiz-adv-x="1734" 
d="M1127 640c-130 0 -245 -72 -312 -158l-103 -482h-304l253 1185h-422l54 258h1148l-54 -258h-422l-86 -397h12c80 65 199 118 339 118c318 0 471 -206 401 -535l-80 -371h-304l80 373c36 164 -33 267 -200 267z" />
    <glyph glyph-name="Shacyrillic" unicode="&#x428;" horiz-adv-x="1986" 
d="M54 0l307 1443h304l-254 -1185h408l254 1185h304l-254 -1185h408l254 1185h304l-307 -1443h-1728z" />
    <glyph glyph-name="Shchacyrillic" unicode="&#x429;" horiz-adv-x="2062" 
d="M1901 -285h-273l61 285h-1635l307 1443h304l-254 -1185h408l254 1185h304l-254 -1185h408l254 1185h304l-254 -1185h180z" />
    <glyph glyph-name="Hardsigncyrillic" unicode="&#x42a;" horiz-adv-x="1531" 
d="M889 0h-599l254 1186h-335l53 257h639l-101 -468h207c302 0 492 -160 492 -433c0 -329 -251 -542 -610 -542zM944 727h-195l-105 -482h238c181 0 312 111 312 273c0 138 -98 209 -250 209z" />
    <glyph glyph-name="Yericyrillic" unicode="&#x42b;" horiz-adv-x="1847" 
d="M709 727h-195l-105 -482h238c180 0 312 111 312 273c0 138 -98 209 -250 209zM54 0l307 1443h304l-101 -468h207c302 0 493 -160 493 -433c0 -329 -252 -542 -610 -542h-600zM1648 0h-304l307 1443h304z" />
    <glyph glyph-name="uni04F8" unicode="&#x4f8;" horiz-adv-x="1847" 
d="M709 727h-195l-105 -482h238c180 0 312 111 312 273c0 138 -98 209 -250 209zM54 0l307 1443h304l-101 -468h207c302 0 493 -160 493 -433c0 -329 -252 -542 -610 -542h-600zM1648 0h-304l307 1443h304zM966 1586c-73 0 -129 57 -129 127s56 127 129 127
s130 -57 130 -127s-57 -127 -130 -127zM1361 1586c-73 0 -129 57 -129 127s56 127 129 127s130 -57 130 -127s-57 -127 -130 -127z" />
    <glyph glyph-name="uniF520" horiz-adv-x="1847" 
d="M709 727h-195l-105 -482h238c180 0 312 111 312 273c0 138 -98 209 -250 209zM54 0l307 1443h304l-101 -468h207c302 0 493 -160 493 -433c0 -329 -252 -542 -610 -542h-600zM1648 0h-304l307 1443h304zM1524 1770l-31 -151h-692l32 151h691z" />
    <glyph glyph-name="uniF536" horiz-adv-x="1847" 
d="M709 727h-195l-105 -482h238c180 0 312 111 312 273c0 138 -98 209 -250 209zM54 0l307 1443h304l-101 -468h207c302 0 493 -160 493 -433c0 -329 -252 -542 -610 -542h-600zM1648 0h-304l307 1443h304zM829 1860h193c-19 -98 39 -155 137 -155c102 0 182 57 204 155h193
c-41 -191 -184 -310 -407 -310s-355 114 -320 310z" />
    <glyph glyph-name="uniF465" horiz-adv-x="1847" 
d="M709 727h-195l-105 -482h238c180 0 312 111 312 273c0 138 -98 209 -250 209zM54 0l307 1443h304l-101 -468h207c302 0 493 -160 493 -433c0 -329 -252 -542 -610 -542h-600zM1648 0h-304l307 1443h304zM1256 1557h-242l291 307h283z" />
    <glyph glyph-name="uni048C" unicode="&#x48c;" horiz-adv-x="1390" 
d="M504 245h238c179 0 310 106 310 261c0 128 -100 192 -254 192h-195zM653 942h207c305 0 497 -153 497 -411c0 -322 -251 -531 -608 -531h-600l235 1109h-229l43 212h231l43 203h304l-43 -203h365l-44 -212h-366z" />
    <glyph glyph-name="uni0462" unicode="&#x462;" horiz-adv-x="1390" 
d="M504 245h238c179 0 310 106 310 261c0 128 -100 192 -254 192h-195zM653 942h207c305 0 497 -153 497 -411c0 -322 -251 -531 -608 -531h-600l235 1109h-229l43 212h231l43 203h304l-43 -203h365l-44 -212h-366z" />
    <glyph glyph-name="Softsigncyrillic" unicode="&#x42c;" horiz-adv-x="1295" 
d="M709 727h-195l-105 -482h238c180 0 312 111 312 273c0 138 -98 209 -250 209zM54 0l307 1443h304l-101 -468h207c302 0 493 -160 493 -433c0 -329 -252 -542 -610 -542h-600z" />
    <glyph glyph-name="Ljecyrillic" unicode="&#x409;" horiz-adv-x="2170" 
d="M596 573c-99 -375 -230 -586 -553 -586c-49 0 -88 7 -106 13l56 272c14 -3 40 -8 66 -8c140 0 210 139 262 330l224 849h993l-99 -459h207c302 0 492 -163 492 -436c0 -310 -241 -548 -612 -548h-599l254 1185h-418zM1583 736h-195l-107 -491h238c182 0 314 116 314 273
c0 145 -98 218 -250 218z" />
    <glyph glyph-name="Njecyrillic" unicode="&#x40a;" horiz-adv-x="2169" 
d="M943 0l133 620h-583l-133 -620h-303l307 1443h304l-123 -571h583l122 571h304l-122 -571h230c292 0 475 -146 475 -378c0 -280 -229 -494 -594 -494h-600zM1298 245h242c178 0 291 91 291 217c0 115 -90 167 -226 167h-223z" />
    <glyph glyph-name="Ereversedcyrillic" unicode="&#x42d;" horiz-adv-x="1460" 
d="M701 -24c-331 0 -568 207 -578 507h298c22 -149 135 -239 299 -239c204 0 356 137 412 368h-567l50 237h547c4 217 -112 351 -305 351c-154 0 -285 -96 -348 -255h-297c80 326 332 522 672 522c393 0 617 -288 568 -726c-43 -466 -334 -765 -751 -765z" />
    <glyph glyph-name="uni04EC" unicode="&#x4ec;" horiz-adv-x="1460" 
d="M701 -24c-331 0 -568 207 -578 507h298c22 -149 135 -239 299 -239c204 0 356 137 412 368h-567l50 237h547c4 217 -112 351 -305 351c-154 0 -285 -96 -348 -255h-297c80 326 332 522 672 522c393 0 617 -288 568 -726c-43 -466 -334 -765 -751 -765zM742 1586
c-73 0 -129 57 -129 127s56 127 129 127s130 -57 130 -127s-57 -127 -130 -127zM1137 1586c-73 0 -129 57 -129 127s56 127 129 127s130 -57 130 -127s-57 -127 -130 -127z" />
    <glyph glyph-name="uniF522" horiz-adv-x="1460" 
d="M701 -24c-331 0 -568 207 -578 507h298c22 -149 135 -239 299 -239c204 0 356 137 412 368h-567l50 237h547c4 217 -112 351 -305 351c-154 0 -285 -96 -348 -255h-297c80 326 332 522 672 522c393 0 617 -288 568 -726c-43 -466 -334 -765 -751 -765zM1300 1770
l-31 -151h-692l32 151h691z" />
    <glyph glyph-name="uniF466" horiz-adv-x="1460" 
d="M701 -24c-331 0 -568 207 -578 507h298c22 -149 135 -239 299 -239c204 0 356 137 412 368h-567l50 237h547c4 217 -112 351 -305 351c-154 0 -285 -96 -348 -255h-297c80 326 332 522 672 522c393 0 617 -288 568 -726c-43 -466 -334 -765 -751 -765zM1032 1557h-242
l291 307h283z" />
    <glyph glyph-name="uniF524" horiz-adv-x="1460" 
d="M701 -24c-331 0 -568 207 -578 507h298c22 -149 135 -239 299 -239c204 0 356 137 412 368h-567l50 237h547c4 217 -112 351 -305 351c-154 0 -285 -96 -348 -255h-297c80 326 332 522 672 522c393 0 617 -288 568 -726c-43 -466 -334 -765 -751 -765zM605 1860h193
c-19 -98 39 -155 137 -155c102 0 182 57 204 155h193c-41 -191 -184 -310 -407 -310s-355 114 -320 310z" />
    <glyph glyph-name="uniF4D6" horiz-adv-x="1460" 
d="M701 -24c-331 0 -568 207 -578 507h298c22 -149 135 -239 299 -239c204 0 356 137 412 368h-567l50 237h547c4 217 -112 351 -305 351c-154 0 -285 -96 -348 -255h-297c80 326 332 522 672 522c393 0 617 -288 568 -726c-43 -466 -334 -765 -751 -765zM950 1607
c-84 0 -151 68 -151 151c0 82 67 151 151 151s150 -69 150 -151c0 -83 -66 -151 -150 -151z" />
    <glyph glyph-name="IUcyrillic" unicode="&#x42e;" horiz-adv-x="2109" 
d="M1346 236c261 0 456 266 456 594c0 230 -126 377 -321 377c-261 0 -455 -266 -455 -593c0 -230 125 -378 320 -378zM540 861h215c93 362 376 606 731 606c387 0 624 -258 624 -621c0 -504 -335 -870 -770 -870c-383 0 -617 257 -617 621v6h-236l-130 -603h-303l307 1443
h304z" />
    <glyph glyph-name="uniF52C" horiz-adv-x="2109" 
d="M1502 1770l-31 -151h-692l32 151h691zM1346 236c261 0 456 266 456 594c0 230 -126 377 -321 377c-261 0 -455 -266 -455 -593c0 -230 125 -378 320 -378zM540 861h215c93 362 376 606 731 606c387 0 624 -258 624 -621c0 -504 -335 -870 -770 -870
c-383 0 -617 257 -617 621v6h-236l-130 -603h-303l307 1443h304z" />
    <glyph glyph-name="uniF467" horiz-adv-x="2109" 
d="M1566 1864l-332 -307h-242l291 307h283zM1346 236c261 0 456 266 456 594c0 230 -126 377 -321 377c-261 0 -455 -266 -455 -593c0 -230 125 -378 320 -378zM540 861h215c93 362 376 606 731 606c387 0 624 -258 624 -621c0 -504 -335 -870 -770 -870
c-383 0 -617 257 -617 621v6h-236l-130 -603h-303l307 1443h304z" />
    <glyph glyph-name="uniF52E" horiz-adv-x="2109" 
d="M1341 1860h193c-41 -191 -184 -310 -407 -310s-355 114 -320 310h193c-19 -98 39 -155 137 -155c102 0 182 57 204 155zM1346 236c261 0 456 266 456 594c0 230 -126 377 -321 377c-261 0 -455 -266 -455 -593c0 -230 125 -378 320 -378zM540 861h215
c93 362 376 606 731 606c387 0 624 -258 624 -621c0 -504 -335 -870 -770 -870c-383 0 -617 257 -617 621v6h-236l-130 -603h-303l307 1443h304z" />
    <glyph glyph-name="uniF498" horiz-adv-x="2109" 
d="M1339 1586c-73 0 -129 57 -129 127s56 127 129 127s130 -57 130 -127s-57 -127 -130 -127zM944 1586c-73 0 -129 57 -129 127s56 127 129 127s130 -57 130 -127s-57 -127 -130 -127zM1346 236c261 0 456 266 456 594c0 230 -126 377 -321 377c-261 0 -455 -266 -455 -593
c0 -230 125 -378 320 -378zM540 861h215c93 362 376 606 731 606c387 0 624 -258 624 -621c0 -504 -335 -870 -770 -870c-383 0 -617 257 -617 621v6h-236l-130 -603h-303l307 1443h304z" />
    <glyph glyph-name="IAcyrillic" unicode="&#x42f;" horiz-adv-x="1359" 
d="M800 738h212l99 455h-247c-185 0 -314 -103 -314 -246c0 -138 100 -209 250 -209zM787 507l-451 -507h-362l499 562c-144 63 -232 199 -232 373c0 287 240 508 612 508h609l-307 -1443h-304l109 507h-173v0z" />
    <glyph glyph-name="uniF528" horiz-adv-x="1359" 
d="M800 738h212l99 455h-247c-185 0 -314 -103 -314 -246c0 -138 100 -209 250 -209zM787 507l-451 -507h-362l499 562c-144 63 -232 199 -232 373c0 287 240 508 612 508h609l-307 -1443h-304l109 507h-173v0zM1393 1770l-31 -151h-692l32 151h691z" />
    <glyph glyph-name="uniF468" horiz-adv-x="1359" 
d="M800 738h212l99 455h-247c-185 0 -314 -103 -314 -246c0 -138 100 -209 250 -209zM787 507l-451 -507h-362l499 562c-144 63 -232 199 -232 373c0 287 240 508 612 508h609l-307 -1443h-304l109 507h-173v0zM1125 1557h-242l291 307h283z" />
    <glyph glyph-name="uniF4D9" horiz-adv-x="1359" 
d="M800 738h212l99 455h-247c-185 0 -314 -103 -314 -246c0 -138 100 -209 250 -209zM787 507l-451 -507h-362l499 562c-144 63 -232 199 -232 373c0 287 240 508 612 508h609l-307 -1443h-304l109 507h-173v0zM835 1586c-73 0 -129 57 -129 127s56 127 129 127
s130 -57 130 -127s-57 -127 -130 -127zM1230 1586c-73 0 -129 57 -129 127s56 127 129 127s130 -57 130 -127s-57 -127 -130 -127z" />
    <glyph glyph-name="uniF52A" horiz-adv-x="1359" 
d="M800 738h212l99 455h-247c-185 0 -314 -103 -314 -246c0 -138 100 -209 250 -209zM787 507l-451 -507h-362l499 562c-144 63 -232 199 -232 373c0 287 240 508 612 508h609l-307 -1443h-304l109 507h-173v0zM698 1860h193c-19 -98 39 -155 137 -155c102 0 182 57 204 155
h193c-41 -191 -184 -310 -407 -310s-355 114 -320 310z" />
    <glyph glyph-name="uni0494" unicode="&#x494;" horiz-adv-x="1379" 
d="M1266 1443l-54 -258h-602l-87 -398h17c89 70 208 119 365 119c250 0 411 -151 411 -379c0 -323 -222 -599 -614 -599c-91 0 -145 13 -156 17l50 244c12 -4 54 -12 116 -12c184 0 291 139 291 283c0 113 -78 180 -213 180c-134 0 -263 -66 -330 -158l-104 -482h-302
l307 1443h905z" />
    <glyph glyph-name="uni04A6" unicode="&#x4a6;" horiz-adv-x="2259" 
d="M360 1443h1183l-140 -656h17c92 72 212 119 360 119c264 0 416 -154 416 -385c0 -305 -208 -593 -614 -593c-69 0 -130 7 -156 17l50 244c21 -6 69 -12 116 -12c184 0 291 138 291 284c0 114 -77 179 -213 179c-131 0 -262 -64 -330 -158l-104 -482h-301l254 1184h-580
l-254 -1184h-302z" />
    <glyph glyph-name="Ecyrillic" unicode="&#x404;" horiz-adv-x="1468" 
d="M1416 478c-81 -315 -340 -515 -677 -515c-391 0 -625 273 -568 739c42 459 337 778 769 778c319 0 570 -208 574 -506v-24h-298c-9 162 -128 262 -296 262c-198 0 -364 -144 -423 -361h572l-49 -241h-556c-17 -238 105 -381 307 -381c168 0 293 103 348 249h297z" />
    <glyph glyph-name="uniF526" horiz-adv-x="1468" 
d="M1416 478c-81 -315 -340 -515 -677 -515c-391 0 -625 273 -568 739c42 459 337 778 769 778c319 0 570 -208 574 -506v-24h-298c-9 162 -128 262 -296 262c-198 0 -364 -144 -423 -361h572l-49 -241h-556c-17 -238 105 -381 307 -381c168 0 293 103 348 249h297z
M796 1586c-73 0 -129 57 -129 127s56 127 129 127s130 -57 130 -127s-57 -127 -130 -127zM1191 1586c-73 0 -129 57 -129 127s56 127 129 127s130 -57 130 -127s-57 -127 -130 -127z" />
    <glyph glyph-name="uni04C0" unicode="&#x4c0;" horiz-adv-x="562" 
d="M358 0h-304l307 1443h304z" />
    <glyph glyph-name="Icyrillic" unicode="&#x406;" horiz-adv-x="562" 
d="M358 0h-304l307 1443h304z" />
    <glyph glyph-name="Yicyrillic" unicode="&#x407;" horiz-adv-x="562" 
d="M358 0h-304l307 1443h304zM371 1586c-73 0 -129 57 -129 127s56 127 129 127s130 -57 130 -127s-57 -127 -130 -127zM766 1586c-73 0 -129 57 -129 127s56 127 129 127s130 -57 130 -127s-57 -127 -130 -127z" />
    <glyph glyph-name="uni04C0.1" horiz-adv-x="1014" 
d="M1110 1197h-271l-203 -951h269l-51 -246h-270h-304h-270l51 246h271l203 951h-269l51 246h270h304h270z" />
    <glyph glyph-name="Icyrillic.1" horiz-adv-x="1014" 
d="M1110 1197h-271l-203 -951h269l-51 -246h-270h-304h-270l51 246h271l203 951h-269l51 246h270h304h270z" />
    <glyph glyph-name="Yicyrillic.1" horiz-adv-x="1014" 
d="M991 1586c-73 0 -129 57 -129 127s56 127 129 127s130 -57 130 -127s-57 -127 -130 -127zM596 1586c-73 0 -129 57 -129 127s56 127 129 127s130 -57 130 -127s-57 -127 -130 -127zM1110 1197h-271l-203 -951h269l-51 -246h-270h-304h-270l51 246h271l203 951h-269
l51 246h270h304h270z" />
    <glyph glyph-name="uni04A8" unicode="&#x4a8;" horiz-adv-x="1984" 
d="M1431 1046c-157 0 -276 -173 -276 -380c0 -130 50 -249 139 -331c187 109 312 309 312 502c0 133 -64 209 -175 209zM999 1487l-58 -282c-300 -55 -478 -277 -478 -559c0 -241 167 -418 415 -418c48 0 93 4 136 10c-97 110 -155 253 -155 411c0 357 249 652 600 652
c287 0 446 -157 446 -431c0 -260 -151 -500 -370 -646c19 -1 38 -2 59 -2c91 0 181 27 245 65l54 -227c-103 -62 -215 -91 -339 -91c-135 0 -239 29 -330 89c-117 -60 -247 -88 -389 -88c-414 0 -682 253 -682 675c0 421 323 804 846 842z" />
    <glyph glyph-name="uni04AE" unicode="&#x4ae;" horiz-adv-x="1353" 
d="M755 0h-304l114 535l-310 908h315l199 -618h6l454 618h333l-695 -920z" />
    <glyph glyph-name="uniF43A" horiz-adv-x="1353" 
d="M755 0h-304l114 535l-310 908h315l199 -618h6l454 618h333l-695 -920zM1321 1770l-31 -151h-692l32 151h691z" />
    <glyph glyph-name="uni04B0" unicode="&#x4b0;" horiz-adv-x="1343" 
d="M1557 1443l-601 -796h305l-47 -229h-374l-90 -418h-304l89 418h-355l48 229h294l-272 796h315l199 -618h6l454 618h333z" />
    <glyph glyph-name="uni04BC" unicode="&#x4bc;" horiz-adv-x="1806" 
d="M815 889h710c2 10 2 19 2 40c0 177 -117 285 -307 285c-184 0 -349 -132 -405 -325zM1788 662h-1026c-2 -10 -4 -31 -4 -51c-20 -224 106 -376 313 -376c156 0 281 66 349 186h307c-102 -273 -366 -445 -682 -445c-360 0 -580 225 -580 593c0 31 1 62 4 92h-21
c-195 0 -315 101 -315 264c0 83 27 165 79 237h237c-40 -61 -63 -123 -63 -169c0 -66 36 -99 108 -99h18c106 345 383 573 732 573c367 0 580 -207 580 -564c0 -82 -17 -188 -36 -241z" />
    <glyph glyph-name="uni04BE" unicode="&#x4be;" horiz-adv-x="1806" 
d="M815 889h710c2 10 2 19 2 40c0 177 -117 285 -307 285c-184 0 -349 -132 -405 -325zM1788 662h-1026c-2 -10 -4 -31 -4 -51c-20 -224 106 -376 313 -376c156 0 281 66 349 186h307c-89 -239 -302 -400 -566 -437l-57 -269h-260l58 274c-274 53 -437 263 -437 580
c0 31 1 62 4 92h-21c-195 0 -315 101 -315 264c0 83 27 165 79 237h237c-40 -61 -63 -123 -63 -169c0 -66 36 -99 108 -99h18c106 345 383 573 732 573c367 0 580 -207 580 -564c0 -82 -17 -188 -36 -241z" />
    <glyph glyph-name="uni04D4" unicode="&#x4d4;" horiz-adv-x="1988" 
d="M1139 1202h-129l-379 -604h378zM881 0l80 364h-463l-232 -364h-311l903 1443h1259l-54 -258h-648l-75 -341h612l-50 -239h-611l-77 -347h648l-52 -258h-929z" />
    <glyph glyph-name="uni04D8" unicode="&#x18f;" horiz-adv-x="1527" 
d="M747 -24c-366 0 -596 226 -596 584c0 75 14 167 34 227h1026c3 18 5 37 5 49c16 229 -104 372 -313 372c-153 0 -272 -64 -343 -186h-312c102 276 360 445 678 445c366 0 592 -225 592 -591c0 -538 -311 -900 -771 -900zM763 234c193 0 352 130 407 331h-709
c-2 -11 -2 -19 -2 -41c0 -180 115 -290 304 -290z" />
    <glyph glyph-name="uni04D8" unicode="&#x4d8;" horiz-adv-x="1527" 
d="M747 -24c-366 0 -596 226 -596 584c0 75 14 167 34 227h1026c3 18 5 37 5 49c16 229 -104 372 -313 372c-153 0 -272 -64 -343 -186h-312c102 276 360 445 678 445c366 0 592 -225 592 -591c0 -538 -311 -900 -771 -900zM763 234c193 0 352 130 407 331h-709
c-2 -11 -2 -19 -2 -41c0 -180 115 -290 304 -290z" />
    <glyph glyph-name="uni04DA" unicode="&#x4da;" horiz-adv-x="1527" 
d="M747 -24c-366 0 -596 226 -596 584c0 75 14 167 34 227h1026c3 18 5 37 5 49c16 229 -104 372 -313 372c-153 0 -272 -64 -343 -186h-312c102 276 360 445 678 445c366 0 592 -225 592 -591c0 -538 -311 -900 -771 -900zM763 234c193 0 352 130 407 331h-709
c-2 -11 -2 -19 -2 -41c0 -180 115 -290 304 -290zM792 1586c-73 0 -129 57 -129 127s56 127 129 127s130 -57 130 -127s-57 -127 -130 -127zM1187 1586c-73 0 -129 57 -129 127s56 127 129 127s130 -57 130 -127s-57 -127 -130 -127z" />
    <glyph glyph-name="uniF49C" horiz-adv-x="1527" 
d="M747 -24c-366 0 -596 226 -596 584c0 75 14 167 34 227h1026c3 18 5 37 5 49c16 229 -104 372 -313 372c-153 0 -272 -64 -343 -186h-312c102 276 360 445 678 445c366 0 592 -225 592 -591c0 -538 -311 -900 -771 -900zM763 234c193 0 352 130 407 331h-709
c-2 -11 -2 -19 -2 -41c0 -180 115 -290 304 -290zM1350 1770l-31 -151h-692l32 151h691z" />
    <glyph glyph-name="uni04E0" unicode="&#x4e0;" horiz-adv-x="1268" 
d="M626 -25c-335 0 -549 171 -541 431c0 24 1 35 4 45h279c-13 -136 95 -228 268 -228c159 0 275 98 275 233c0 126 -105 201 -280 201h-142l37 207l408 310l2 11h-634l54 258h1012l-46 -225l-482 -365l-2 -11c232 -23 364 -166 364 -360c0 -302 -234 -507 -576 -507z" />
    <glyph glyph-name="uni0510" unicode="&#x510;" horiz-adv-x="1286" 
d="M893 623h-188c-186 0 -302 -77 -306 -204c-4 -113 99 -196 250 -196c165 0 271 77 292 207h294c-44 -288 -260 -455 -596 -455c-330 0 -546 169 -537 416c6 198 159 346 377 366l1 6c-130 35 -212 153 -205 297c12 246 232 408 553 408c333 0 541 -175 505 -427h-273
c5 115 -92 190 -244 190c-146 0 -254 -77 -259 -187c-6 -112 87 -187 230 -187h155z" />
    <glyph glyph-name="uniF538" horiz-adv-x="1286" 
d="M893 623h-188c-186 0 -302 -77 -306 -204c-4 -113 99 -196 250 -196c165 0 271 77 292 207h294c-44 -288 -260 -455 -596 -455c-330 0 -546 169 -537 416c6 198 159 346 377 366l1 6c-130 35 -212 153 -205 297c12 246 232 408 553 408c333 0 541 -175 505 -427h-273
c5 115 -92 190 -244 190c-146 0 -254 -77 -259 -187c-6 -112 87 -187 230 -187h155zM725 1588c-73 0 -129 57 -129 127s56 127 129 127s130 -57 130 -127s-57 -127 -130 -127zM1120 1588c-73 0 -129 57 -129 127s56 127 129 127s130 -57 130 -127s-57 -127 -130 -127z" />
    <glyph glyph-name="uni0474" unicode="&#x474;" horiz-adv-x="1559" 
d="M815 0h-367l-180 1443h333l99 -1101h12l404 763c66 146 130 240 208 294c64 44 134 64 221 64c86 0 175 -23 229 -60l-133 -250c-30 13 -59 20 -83 20c-33 0 -60 -9 -85 -29c-27 -22 -53 -56 -86 -115z" />
    <glyph glyph-name="uni051C" unicode="&#x51c;" horiz-adv-x="1965" 
d="M1111 968l-477 -968h-289l-76 1443h302l17 -1020h6l489 1020h249l65 -1019h6l445 1019h313l-684 -1443h-287l-73 968h-6z" />
    <glyph glyph-name="Djecyrillic" unicode="&#x402;" horiz-adv-x="1733" 
d="M408 0l253 1185h-422l54 258h1148l-54 -258h-422l-86 -398h15c76 71 193 119 325 119c288 0 451 -177 451 -426c0 -319 -230 -552 -592 -552c-99 0 -166 13 -178 17l51 244c11 -4 57 -12 127 -12c162 0 279 105 279 254c0 131 -86 209 -228 209
c-123 0 -249 -69 -314 -158l-103 -482h-304z" />
    <glyph glyph-name="Dzecyrillic" unicode="&#x405;" horiz-adv-x="1316" 
d="M86 425h291c16 -119 135 -203 304 -203c154 0 264 66 264 177c0 87 -52 134 -209 182l-124 39c-240 74 -362 197 -362 394c0 272 229 453 551 453c333 0 553 -165 554 -439h-283c-5 115 -106 194 -267 194c-159 0 -247 -80 -247 -172c0 -82 59 -135 204 -178l127 -39
c250 -75 367 -188 367 -385c0 -269 -219 -472 -580 -472c-345 0 -584 166 -590 449z" />
    <glyph glyph-name="Jecyrillic" unicode="&#x408;" horiz-adv-x="1153" 
d="M57 387c0 14 0 35 1 49h293v-12c0 -107 68 -174 180 -174s180 69 211 209l210 984h304l-220 -1029c-59 -283 -237 -439 -516 -439c-276 0 -463 169 -463 412z" />
    <glyph glyph-name="a" unicode="a" horiz-adv-x="1100" 
d="M488 197c118 0 221 74 245 178l20 91l-227 -9c-123 -4 -198 -57 -198 -139c0 -73 65 -121 160 -121zM373 -17c-181 0 -324 124 -324 295c0 217 176 348 466 358l276 10l13 65c4 17 4 28 4 40c0 75 -63 123 -170 123c-108 0 -177 -48 -197 -124h-270
c38 211 226 349 488 349c257 0 430 -130 430 -319c0 -31 -4 -66 -8 -89l-147 -691h-276l28 129h-6c-62 -88 -174 -146 -307 -146z" />
    <glyph glyph-name="agrave" unicode="&#xe0;" horiz-adv-x="1100" 
d="M488 197c118 0 221 74 245 178l20 91l-227 -9c-123 -4 -198 -57 -198 -139c0 -73 65 -121 160 -121zM373 -17c-181 0 -324 124 -324 295c0 217 176 348 466 358l276 10l13 65c4 17 4 28 4 40c0 75 -63 123 -170 123c-108 0 -177 -48 -197 -124h-270
c38 211 226 349 488 349c257 0 430 -130 430 -319c0 -31 -4 -66 -8 -89l-147 -691h-276l28 129h-6c-62 -88 -174 -146 -307 -146zM809 1245h-227l-189 311h261z" />
    <glyph glyph-name="aacute" unicode="&#xe1;" horiz-adv-x="1100" 
d="M488 197c118 0 221 74 245 178l20 91l-227 -9c-123 -4 -198 -57 -198 -139c0 -73 65 -121 160 -121zM373 -17c-181 0 -324 124 -324 295c0 217 176 348 466 358l276 10l13 65c4 17 4 28 4 40c0 75 -63 123 -170 123c-108 0 -177 -48 -197 -124h-270
c38 211 226 349 488 349c257 0 430 -130 430 -319c0 -31 -4 -66 -8 -89l-147 -691h-276l28 129h-6c-62 -88 -174 -146 -307 -146zM852 1245h-237l287 311h272z" />
    <glyph glyph-name="adieresis" unicode="&#xe4;" horiz-adv-x="1100" 
d="M488 197c118 0 221 74 245 178l20 91l-227 -9c-123 -4 -198 -57 -198 -139c0 -73 65 -121 160 -121zM373 -17c-181 0 -324 124 -324 295c0 217 176 348 466 358l276 10l13 65c4 17 4 28 4 40c0 75 -63 123 -170 123c-108 0 -177 -48 -197 -124h-270
c38 211 226 349 488 349c257 0 430 -130 430 -319c0 -31 -4 -66 -8 -89l-147 -691h-276l28 129h-6c-62 -88 -174 -146 -307 -146zM536 1237c-73 0 -129 57 -129 127s56 127 129 127s130 -57 130 -127s-57 -127 -130 -127zM931 1237c-73 0 -129 57 -129 127s56 127 129 127
s130 -57 130 -127s-57 -127 -130 -127z" />
    <glyph glyph-name="adieresismacron" unicode="&#x1df;" horiz-adv-x="1100" 
d="M488 197c118 0 221 74 245 178l20 91l-227 -9c-123 -4 -198 -57 -198 -139c0 -73 65 -121 160 -121zM373 -17c-181 0 -324 124 -324 295c0 217 176 348 466 358l276 10l13 65c4 17 4 28 4 40c0 75 -63 123 -170 123c-108 0 -177 -48 -197 -124h-270
c38 211 226 349 488 349c257 0 430 -130 430 -319c0 -31 -4 -66 -8 -89l-147 -691h-276l28 129h-6c-62 -88 -174 -146 -307 -146zM527 1222c-74 0 -130 56 -130 127c0 70 56 127 130 127c73 0 129 -57 129 -127c0 -71 -56 -127 -129 -127zM922 1222c-73 0 -130 56 -130 127
c0 70 57 127 130 127s129 -57 129 -127c0 -71 -56 -127 -129 -127zM1144 1769l-31 -151h-639l31 151h639z" />
    <glyph glyph-name="aring" unicode="&#xe5;" horiz-adv-x="1100" 
d="M488 197c118 0 221 74 245 178l20 91l-227 -9c-123 -4 -198 -57 -198 -139c0 -73 65 -121 160 -121zM373 -17c-181 0 -324 124 -324 295c0 217 176 348 466 358l276 10l13 65c4 17 4 28 4 40c0 75 -63 123 -170 123c-108 0 -177 -48 -197 -124h-270
c38 211 226 349 488 349c257 0 430 -130 430 -319c0 -31 -4 -66 -8 -89l-147 -691h-276l28 129h-6c-62 -88 -174 -146 -307 -146zM741 1198c-117 0 -216 89 -216 211c0 124 99 220 220 220c118 0 216 -89 215 -212c0 -124 -97 -219 -219 -219zM741 1319c55 0 97 40 97 97
c-1 53 -41 91 -93 91c-55 0 -97 -40 -97 -97c0 -53 41 -91 93 -91z" />
    <glyph glyph-name="aringacute" unicode="&#x1fb;" horiz-adv-x="1100" 
d="M488 197c118 0 221 74 245 178l20 91l-227 -9c-123 -4 -198 -57 -198 -139c0 -73 65 -121 160 -121zM373 -17c-181 0 -324 124 -324 295c0 217 176 348 466 358l276 10l13 65c4 17 4 28 4 40c0 75 -63 123 -170 123c-108 0 -177 -48 -197 -124h-270
c38 211 226 349 488 349c257 0 430 -130 430 -319c0 -31 -4 -66 -8 -89l-147 -691h-276l28 129h-6c-62 -88 -174 -146 -307 -146zM693 1697l178 214h239l-210 -214h-207zM733 1196c-120 0 -212 84 -212 208c0 125 92 215 216 215c122 0 213 -83 213 -207
c-1 -126 -91 -216 -217 -216zM646 1405c0 -52 37 -88 87 -88c55 0 93 37 92 93c0 52 -36 88 -88 88c-53 0 -91 -37 -91 -93z" />
    <glyph glyph-name="atilde" unicode="&#xe3;" horiz-adv-x="1100" 
d="M488 197c118 0 221 74 245 178l20 91l-227 -9c-123 -4 -198 -57 -198 -139c0 -73 65 -121 160 -121zM373 -17c-181 0 -324 124 -324 295c0 217 176 348 466 358l276 10l13 65c4 17 4 28 4 40c0 75 -63 123 -170 123c-108 0 -177 -48 -197 -124h-270
c38 211 226 349 488 349c257 0 430 -130 430 -319c0 -31 -4 -66 -8 -89l-147 -691h-276l28 129h-6c-62 -88 -174 -146 -307 -146zM860 1238c-139 0 -170 134 -249 134c-43 0 -80 -43 -97 -119h-161c33 169 135 275 262 275c144 0 172 -133 249 -133c42 0 77 41 96 122h162
c-36 -169 -138 -279 -262 -279z" />
    <glyph glyph-name="abrevegrave" unicode="&#x1eb1;" horiz-adv-x="1100" 
d="M488 197c118 0 221 74 245 178l20 91l-227 -9c-123 -4 -198 -57 -198 -139c0 -73 65 -121 160 -121zM373 -17c-181 0 -324 124 -324 295c0 217 176 348 466 358l276 10l13 65c4 17 4 28 4 40c0 75 -63 123 -170 123c-108 0 -177 -48 -197 -124h-270
c38 211 226 349 488 349c257 0 430 -130 430 -319c0 -31 -4 -66 -8 -89l-147 -691h-276l28 129h-6c-62 -88 -174 -146 -307 -146zM887 1582h-196l-170 291h237zM1124 1542c-44 -187 -195 -323 -424 -323c-187 0 -301 109 -301 256c0 24 3 46 8 67h179c-3 -12 -6 -26 -6 -40
c0 -81 53 -132 145 -132c107 0 190 68 215 172h184z" />
    <glyph glyph-name="adotmacron" unicode="&#x1e1;" horiz-adv-x="1100" 
d="M488 197c118 0 221 74 245 178l20 91l-227 -9c-123 -4 -198 -57 -198 -139c0 -73 65 -121 160 -121zM373 -17c-181 0 -324 124 -324 295c0 217 176 348 466 358l276 10l13 65c4 17 4 28 4 40c0 75 -63 123 -170 123c-108 0 -177 -48 -197 -124h-270
c38 211 226 349 488 349c257 0 430 -130 430 -319c0 -31 -4 -66 -8 -89l-147 -691h-276l28 129h-6c-62 -88 -174 -146 -307 -146zM727 1210c-84 0 -148 66 -148 149c0 82 64 148 148 148c83 0 148 -66 148 -148c0 -83 -65 -149 -148 -149zM1144 1769l-31 -151h-639l31 151
h639z" />
    <glyph glyph-name="aringbelow" unicode="&#x1e01;" horiz-adv-x="1100" 
d="M488 197c118 0 221 74 245 178l20 91l-227 -9c-123 -4 -198 -57 -198 -139c0 -73 65 -121 160 -121zM373 -17c-181 0 -324 124 -324 295c0 217 176 348 466 358l276 10l13 65c4 17 4 28 4 40c0 75 -63 123 -170 123c-108 0 -177 -48 -197 -124h-270
c38 211 226 349 488 349c257 0 430 -130 430 -319c0 -31 -4 -66 -8 -89l-147 -691h-276l28 129h-6c-62 -88 -174 -146 -307 -146zM454 -524c-117 0 -216 89 -216 211c0 124 99 220 220 220c118 0 216 -89 215 -212c0 -124 -97 -219 -219 -219zM454 -403c55 0 97 40 97 97
c-1 53 -41 91 -93 91c-55 0 -97 -40 -97 -97c0 -53 41 -91 93 -91z" />
    <glyph glyph-name="acircumflex" unicode="&#xe2;" horiz-adv-x="1100" 
d="M488 197c118 0 221 74 245 178l20 91l-227 -9c-123 -4 -198 -57 -198 -139c0 -73 65 -121 160 -121zM373 -17c-181 0 -324 124 -324 295c0 217 176 348 466 358l276 10l13 65c4 17 4 28 4 40c0 75 -63 123 -170 123c-108 0 -177 -48 -197 -124h-270
c38 211 226 349 488 349c257 0 430 -130 430 -319c0 -31 -4 -66 -8 -89l-147 -691h-276l28 129h-6c-62 -88 -174 -146 -307 -146zM888 1554l196 -320h-215l-109 186h-7l-188 -186h-232l331 320h224z" />
    <glyph glyph-name="acircumflexdotbelow" unicode="&#x1ead;" horiz-adv-x="1100" 
d="M488 197c118 0 221 74 245 178l20 91l-227 -9c-123 -4 -198 -57 -198 -139c0 -73 65 -121 160 -121zM373 -17c-181 0 -324 124 -324 295c0 217 176 348 466 358l276 10l13 65c4 17 4 28 4 40c0 75 -63 123 -170 123c-108 0 -177 -48 -197 -124h-270
c38 211 226 349 488 349c257 0 430 -130 430 -319c0 -31 -4 -66 -8 -89l-147 -691h-276l28 129h-6c-62 -88 -174 -146 -307 -146zM888 1554l196 -320h-215l-109 186h-7l-188 -186h-232l331 320h224zM449 -460c-84 0 -151 68 -151 151c0 82 67 151 151 151s150 -69 150 -151
c0 -83 -66 -151 -150 -151z" />
    <glyph glyph-name="acircumflexacute" unicode="&#x1ea5;" horiz-adv-x="1100" 
d="M488 197c118 0 221 74 245 178l20 91l-227 -9c-123 -4 -198 -57 -198 -139c0 -73 65 -121 160 -121zM373 -17c-181 0 -324 124 -324 295c0 217 176 348 466 358l276 10l13 65c4 17 4 28 4 40c0 75 -63 123 -170 123c-108 0 -177 -48 -197 -124h-270
c38 211 226 349 488 349c257 0 430 -130 430 -319c0 -31 -4 -66 -8 -89l-147 -691h-276l28 129h-6c-62 -88 -174 -146 -307 -146zM865 1534l197 -311h-212l-110 180h-7l-187 -180h-236l330 311h225zM937 1586l267 287h247l-296 -287h-218z" />
    <glyph glyph-name="acircumflextilde" unicode="&#x1eab;" horiz-adv-x="1100" 
d="M488 197c118 0 221 74 245 178l20 91l-227 -9c-123 -4 -198 -57 -198 -139c0 -73 65 -121 160 -121zM373 -17c-181 0 -324 124 -324 295c0 217 176 348 466 358l276 10l13 65c4 17 4 28 4 40c0 75 -63 123 -170 123c-108 0 -177 -48 -197 -124h-270
c38 211 226 349 488 349c257 0 430 -130 430 -319c0 -31 -4 -66 -8 -89l-147 -691h-276l28 129h-6c-62 -88 -174 -146 -307 -146zM862 1523l200 -300h-212l-112 171h-7l-185 -171h-237l328 300h225zM926 1601c-141 0 -173 133 -251 133c-43 0 -79 -43 -94 -115h-161
c33 168 134 270 262 270c139 0 171 -133 250 -133c43 0 76 41 94 117h160c-33 -166 -136 -272 -260 -272z" />
    <glyph glyph-name="acircumflexgrave" unicode="&#x1ea7;" horiz-adv-x="1100" 
d="M488 197c118 0 221 74 245 178l20 91l-227 -9c-123 -4 -198 -57 -198 -139c0 -73 65 -121 160 -121zM373 -17c-181 0 -324 124 -324 295c0 217 176 348 466 358l276 10l13 65c4 17 4 28 4 40c0 75 -63 123 -170 123c-108 0 -177 -48 -197 -124h-270
c38 211 226 349 488 349c257 0 430 -130 430 -319c0 -31 -4 -66 -8 -89l-147 -691h-276l28 129h-6c-62 -88 -174 -146 -307 -146zM1201 1582h-196l-170 291h237zM865 1534l197 -311h-212l-110 180h-7l-187 -180h-236l330 311h225z" />
    <glyph glyph-name="acircumflexhookabove" unicode="&#x1ea9;" horiz-adv-x="1100" 
d="M488 197c118 0 221 74 245 178l20 91l-227 -9c-123 -4 -198 -57 -198 -139c0 -73 65 -121 160 -121zM373 -17c-181 0 -324 124 -324 295c0 217 176 348 466 358l276 10l13 65c4 17 4 28 4 40c0 75 -63 123 -170 123c-108 0 -177 -48 -197 -124h-270
c38 211 226 349 488 349c257 0 430 -130 430 -319c0 -31 -4 -66 -8 -89l-147 -691h-276l28 129h-6c-62 -88 -174 -146 -307 -146zM892 1767l30 143c36 13 87 23 129 23c122 0 202 -68 202 -170c0 -117 -93 -228 -224 -273l-68 112c69 26 115 73 115 117c0 40 -32 64 -84 64
c-36 0 -69 -5 -100 -16zM865 1534l197 -311h-212l-110 180h-7l-187 -180h-236l330 311h225z" />
    <glyph glyph-name="abreve" unicode="&#x103;" horiz-adv-x="1100" 
d="M488 197c118 0 221 74 245 178l20 91l-227 -9c-123 -4 -198 -57 -198 -139c0 -73 65 -121 160 -121zM373 -17c-181 0 -324 124 -324 295c0 217 176 348 466 358l276 10l13 65c4 17 4 28 4 40c0 75 -63 123 -170 123c-108 0 -177 -48 -197 -124h-270
c38 211 226 349 488 349c257 0 430 -130 430 -319c0 -31 -4 -66 -8 -89l-147 -691h-276l28 129h-6c-62 -88 -174 -146 -307 -146zM419 1553h179c-3 -12 -6 -26 -6 -40c0 -83 55 -132 145 -132c104 0 190 65 215 172h183c-45 -198 -200 -323 -424 -323
c-172 0 -300 106 -300 260c0 21 3 42 8 63z" />
    <glyph glyph-name="abreveacute" unicode="&#x1eaf;" horiz-adv-x="1100" 
d="M488 197c118 0 221 74 245 178l20 91l-227 -9c-123 -4 -198 -57 -198 -139c0 -73 65 -121 160 -121zM373 -17c-181 0 -324 124 -324 295c0 217 176 348 466 358l276 10l13 65c4 17 4 28 4 40c0 75 -63 123 -170 123c-108 0 -177 -48 -197 -124h-270
c38 211 226 349 488 349c257 0 430 -130 430 -319c0 -31 -4 -66 -8 -89l-147 -691h-276l28 129h-6c-62 -88 -174 -146 -307 -146zM654 1586l267 287h247l-296 -287h-218zM1124 1542c-44 -187 -195 -323 -424 -323c-187 0 -301 109 -301 256c0 24 3 46 8 67h179
c-3 -12 -6 -26 -6 -40c0 -81 53 -132 145 -132c107 0 190 68 215 172h184z" />
    <glyph glyph-name="abrevetilde" unicode="&#x1eb5;" horiz-adv-x="1100" 
d="M488 197c118 0 221 74 245 178l20 91l-227 -9c-123 -4 -198 -57 -198 -139c0 -73 65 -121 160 -121zM373 -17c-181 0 -324 124 -324 295c0 217 176 348 466 358l276 10l13 65c4 17 4 28 4 40c0 75 -63 123 -170 123c-108 0 -177 -48 -197 -124h-270
c38 211 226 349 488 349c257 0 430 -130 430 -319c0 -31 -4 -66 -8 -89l-147 -691h-276l28 129h-6c-62 -88 -174 -146 -307 -146zM1124 1542c-44 -187 -195 -323 -424 -323c-187 0 -301 109 -301 256c0 24 3 46 8 67h179c-3 -12 -6 -26 -6 -40c0 -81 53 -132 145 -132
c107 0 190 68 215 172h184zM937 1601c-141 0 -173 133 -251 133c-43 0 -79 -43 -94 -115h-161c33 168 134 270 262 270c139 0 171 -133 250 -133c43 0 76 41 94 117h160c-33 -166 -136 -272 -260 -272z" />
    <glyph glyph-name="abrevehookabove" unicode="&#x1eb3;" horiz-adv-x="1100" 
d="M488 197c118 0 221 74 245 178l20 91l-227 -9c-123 -4 -198 -57 -198 -139c0 -73 65 -121 160 -121zM373 -17c-181 0 -324 124 -324 295c0 217 176 348 466 358l276 10l13 65c4 17 4 28 4 40c0 75 -63 123 -170 123c-108 0 -177 -48 -197 -124h-270
c38 211 226 349 488 349c257 0 430 -130 430 -319c0 -31 -4 -66 -8 -89l-147 -691h-276l28 129h-6c-62 -88 -174 -146 -307 -146zM607 1782l28 130c36 12 86 21 126 21c118 0 194 -62 194 -157c0 -100 -92 -208 -207 -248l-67 104c61 22 104 64 104 105c0 37 -31 60 -81 60
c-34 0 -66 -5 -97 -15zM1124 1542c-44 -187 -195 -323 -424 -323c-187 0 -301 109 -301 256c0 24 3 46 8 67h179c-3 -12 -6 -26 -6 -40c0 -81 53 -132 145 -132c107 0 190 68 215 172h184z" />
    <glyph glyph-name="abrevedotbelow" unicode="&#x1eb7;" horiz-adv-x="1100" 
d="M488 197c118 0 221 74 245 178l20 91l-227 -9c-123 -4 -198 -57 -198 -139c0 -73 65 -121 160 -121zM373 -17c-181 0 -324 124 -324 295c0 217 176 348 466 358l276 10l13 65c4 17 4 28 4 40c0 75 -63 123 -170 123c-108 0 -177 -48 -197 -124h-270
c38 211 226 349 488 349c257 0 430 -130 430 -319c0 -31 -4 -66 -8 -89l-147 -691h-276l28 129h-6c-62 -88 -174 -146 -307 -146zM419 1553h179c-3 -12 -6 -26 -6 -40c0 -83 55 -132 145 -132c104 0 190 65 215 172h183c-45 -198 -200 -323 -424 -323
c-172 0 -300 106 -300 260c0 21 3 42 8 63zM449 -460c-84 0 -151 68 -151 151c0 82 67 151 151 151s150 -69 150 -151c0 -83 -66 -151 -150 -151z" />
    <glyph glyph-name="ainvertedbreve" unicode="&#x203;" horiz-adv-x="1100" 
d="M488 197c118 0 221 74 245 178l20 91l-227 -9c-123 -4 -198 -57 -198 -139c0 -73 65 -121 160 -121zM373 -17c-181 0 -324 124 -324 295c0 217 176 348 466 358l276 10l13 65c4 17 4 28 4 40c0 75 -63 123 -170 123c-108 0 -177 -48 -197 -124h-270
c38 211 226 349 488 349c257 0 430 -130 430 -319c0 -31 -4 -66 -8 -89l-147 -691h-276l28 129h-6c-62 -88 -174 -146 -307 -146zM1053 1219h-179c3 12 6 26 6 40c0 83 -55 132 -145 132c-104 0 -190 -65 -215 -172h-183c44 198 200 323 424 323c172 0 300 -106 300 -260
c0 -21 -3 -42 -8 -63z" />
    <glyph glyph-name="acaron" unicode="&#x1ce;" horiz-adv-x="1100" 
d="M488 197c118 0 221 74 245 178l20 91l-227 -9c-123 -4 -198 -57 -198 -139c0 -73 65 -121 160 -121zM373 -17c-181 0 -324 124 -324 295c0 217 176 348 466 358l276 10l13 65c4 17 4 28 4 40c0 75 -63 123 -170 123c-108 0 -177 -48 -197 -124h-270
c38 211 226 349 488 349c257 0 430 -130 430 -319c0 -31 -4 -66 -8 -89l-147 -691h-276l28 129h-6c-62 -88 -174 -146 -307 -146zM826 1234h-224l-196 320h212l108 -187h7l189 187h235z" />
    <glyph glyph-name="adotaccent" unicode="&#x227;" horiz-adv-x="1100" 
d="M488 197c118 0 221 74 245 178l20 91l-227 -9c-123 -4 -198 -57 -198 -139c0 -73 65 -121 160 -121zM373 -17c-181 0 -324 124 -324 295c0 217 176 348 466 358l276 10l13 65c4 17 4 28 4 40c0 75 -63 123 -170 123c-108 0 -177 -48 -197 -124h-270
c38 211 226 349 488 349c257 0 430 -130 430 -319c0 -31 -4 -66 -8 -89l-147 -691h-276l28 129h-6c-62 -88 -174 -146 -307 -146zM731 1239c-84 0 -151 68 -151 151s67 151 151 151s150 -68 150 -151s-66 -151 -150 -151z" />
    <glyph glyph-name="adotbelow" unicode="&#x1ea1;" horiz-adv-x="1100" 
d="M488 197c118 0 221 74 245 178l20 91l-227 -9c-123 -4 -198 -57 -198 -139c0 -73 65 -121 160 -121zM373 -17c-181 0 -324 124 -324 295c0 217 176 348 466 358l276 10l13 65c4 17 4 28 4 40c0 75 -63 123 -170 123c-108 0 -177 -48 -197 -124h-270
c38 211 226 349 488 349c257 0 430 -130 430 -319c0 -31 -4 -66 -8 -89l-147 -691h-276l28 129h-6c-62 -88 -174 -146 -307 -146zM449 -460c-84 0 -151 68 -151 151c0 82 67 151 151 151s150 -69 150 -151c0 -83 -66 -151 -150 -151z" />
    <glyph glyph-name="ahookabove" unicode="&#x1ea3;" horiz-adv-x="1100" 
d="M488 197c118 0 221 74 245 178l20 91l-227 -9c-123 -4 -198 -57 -198 -139c0 -73 65 -121 160 -121zM373 -17c-181 0 -324 124 -324 295c0 217 176 348 466 358l276 10l13 65c4 17 4 28 4 40c0 75 -63 123 -170 123c-108 0 -177 -48 -197 -124h-270
c38 211 226 349 488 349c257 0 430 -130 430 -319c0 -31 -4 -66 -8 -89l-147 -691h-276l28 129h-6c-62 -88 -174 -146 -307 -146zM583 1480l32 142c33 12 82 21 131 21c118 0 203 -72 203 -174c0 -119 -91 -227 -229 -271l-64 115c76 26 113 68 113 116c0 41 -35 69 -86 69
c-36 0 -72 -6 -100 -18z" />
    <glyph glyph-name="adblgrave" unicode="&#x201;" horiz-adv-x="1100" 
d="M488 197c118 0 221 74 245 178l20 91l-227 -9c-123 -4 -198 -57 -198 -139c0 -73 65 -121 160 -121zM373 -17c-181 0 -324 124 -324 295c0 217 176 348 466 358l276 10l13 65c4 17 4 28 4 40c0 75 -63 123 -170 123c-108 0 -177 -48 -197 -124h-270
c38 211 226 349 488 349c257 0 430 -130 430 -319c0 -31 -4 -66 -8 -89l-147 -691h-276l28 129h-6c-62 -88 -174 -146 -307 -146zM653 1245h-203l-195 311h241zM1024 1245h-204l-194 311h240z" />
    <glyph glyph-name="amacron" unicode="&#x101;" horiz-adv-x="1100" 
d="M488 197c118 0 221 74 245 178l20 91l-227 -9c-123 -4 -198 -57 -198 -139c0 -73 65 -121 160 -121zM373 -17c-181 0 -324 124 -324 295c0 217 176 348 466 358l276 10l13 65c4 17 4 28 4 40c0 75 -63 123 -170 123c-108 0 -177 -48 -197 -124h-270
c38 211 226 349 488 349c257 0 430 -130 430 -319c0 -31 -4 -66 -8 -89l-147 -691h-276l28 129h-6c-62 -88 -174 -146 -307 -146zM1072 1430l-31 -151h-639l31 151h639z" />
    <glyph glyph-name="aogonek" unicode="&#x105;" horiz-adv-x="1100" 
d="M489 201c122 0 223 71 245 174l21 91l-230 -9c-121 -4 -196 -58 -196 -139c0 -70 64 -117 160 -117zM811 -430c-26 -13 -78 -23 -144 -23c-136 0 -222 75 -222 178c0 110 82 197 214 270l28 134h-5c-63 -88 -173 -142 -309 -142c-183 0 -322 124 -322 291
c0 216 172 348 467 358l274 10l14 65c3 15 4 24 4 40c0 73 -67 119 -174 119c-102 0 -173 -43 -194 -120h-269c37 211 228 345 484 345c258 0 433 -128 433 -315c0 -33 -3 -67 -8 -89l-146 -689l-24 -7c-131 -41 -241 -130 -241 -204c0 -45 42 -73 100 -73c29 0 56 5 73 11z
" />
    <glyph glyph-name="a.1" horiz-adv-x="1234" 
d="M589 218c169 0 299 178 299 398c0 141 -83 236 -211 236c-167 0 -293 -172 -293 -394c0 -146 79 -240 205 -240zM1057 0h-281l35 164h-11c-73 -113 -194 -181 -329 -181c-233 0 -379 170 -379 436c0 383 229 673 536 673c163 0 289 -86 326 -215h12l42 198h278z" />
    <glyph glyph-name="agrave.1" horiz-adv-x="1234" 
d="M589 218c169 0 299 178 299 398c0 141 -83 236 -211 236c-167 0 -293 -172 -293 -394c0 -146 79 -240 205 -240zM1057 0h-281l35 164h-11c-73 -113 -194 -181 -329 -181c-233 0 -379 170 -379 436c0 383 229 673 536 673c163 0 289 -86 326 -215h12l42 198h278zM893 1246
h-227l-189 311h261z" />
    <glyph glyph-name="aacute.1" horiz-adv-x="1234" 
d="M589 218c169 0 299 178 299 398c0 141 -83 236 -211 236c-167 0 -293 -172 -293 -394c0 -146 79 -240 205 -240zM1057 0h-281l35 164h-11c-73 -113 -194 -181 -329 -181c-233 0 -379 170 -379 436c0 383 229 673 536 673c163 0 289 -86 326 -215h12l42 198h278zM936 1246
h-237l287 311h272z" />
    <glyph glyph-name="adieresis.1" horiz-adv-x="1234" 
d="M589 218c169 0 299 178 299 398c0 141 -83 236 -211 236c-167 0 -293 -172 -293 -394c0 -146 79 -240 205 -240zM1057 0h-281l35 164h-11c-73 -113 -194 -181 -329 -181c-233 0 -379 170 -379 436c0 383 229 673 536 673c163 0 289 -86 326 -215h12l42 198h278zM620 1238
c-73 0 -129 57 -129 127s56 127 129 127s130 -57 130 -127s-57 -127 -130 -127zM1015 1238c-73 0 -129 57 -129 127s56 127 129 127s130 -57 130 -127s-57 -127 -130 -127z" />
    <glyph glyph-name="adieresismacron.1" horiz-adv-x="1234" 
d="M589 218c169 0 299 178 299 398c0 141 -83 236 -211 236c-167 0 -293 -172 -293 -394c0 -146 79 -240 205 -240zM1057 0h-281l35 164h-11c-73 -113 -194 -181 -329 -181c-233 0 -379 170 -379 436c0 383 229 673 536 673c163 0 289 -86 326 -215h12l42 198h278zM611 1223
c-74 0 -130 56 -130 127c0 70 56 127 130 127c73 0 129 -57 129 -127c0 -71 -56 -127 -129 -127zM1006 1223c-73 0 -130 56 -130 127c0 70 57 127 130 127s129 -57 129 -127c0 -71 -56 -127 -129 -127zM1228 1770l-31 -151h-639l31 151h639z" />
    <glyph glyph-name="aring.1" horiz-adv-x="1234" 
d="M589 218c169 0 299 178 299 398c0 141 -83 236 -211 236c-167 0 -293 -172 -293 -394c0 -146 79 -240 205 -240zM1057 0h-281l35 164h-11c-73 -113 -194 -181 -329 -181c-233 0 -379 170 -379 436c0 383 229 673 536 673c163 0 289 -86 326 -215h12l42 198h278zM825 1199
c-117 0 -216 89 -216 211c0 124 99 220 220 220c118 0 216 -89 215 -212c0 -124 -97 -219 -219 -219zM825 1320c55 0 97 40 97 97c-1 53 -41 91 -93 91c-55 0 -97 -40 -97 -97c0 -53 41 -91 93 -91z" />
    <glyph glyph-name="aringacute.1" horiz-adv-x="1234" 
d="M589 218c169 0 299 178 299 398c0 141 -83 236 -211 236c-167 0 -293 -172 -293 -394c0 -146 79 -240 205 -240zM1057 0h-281l35 164h-11c-73 -113 -194 -181 -329 -181c-233 0 -379 170 -379 436c0 383 229 673 536 673c163 0 289 -86 326 -215h12l42 198h278zM777 1698
l178 214h239l-210 -214h-207zM817 1197c-120 0 -212 84 -212 208c0 125 92 215 216 215c122 0 213 -83 213 -207c-1 -126 -91 -216 -217 -216zM730 1406c0 -52 37 -88 87 -88c55 0 93 37 92 93c0 52 -36 88 -88 88c-53 0 -91 -37 -91 -93z" />
    <glyph glyph-name="atilde.1" horiz-adv-x="1234" 
d="M589 218c169 0 299 178 299 398c0 141 -83 236 -211 236c-167 0 -293 -172 -293 -394c0 -146 79 -240 205 -240zM1057 0h-281l35 164h-11c-73 -113 -194 -181 -329 -181c-233 0 -379 170 -379 436c0 383 229 673 536 673c163 0 289 -86 326 -215h12l42 198h278zM944 1238
c-139 0 -170 134 -249 134c-43 0 -80 -43 -97 -119h-161c33 169 135 275 262 275c144 0 172 -133 249 -133c42 0 77 41 96 122h162c-36 -169 -138 -279 -262 -279z" />
    <glyph glyph-name="abrevegrave.1" horiz-adv-x="1234" 
d="M589 218c169 0 299 178 299 398c0 141 -83 236 -211 236c-167 0 -293 -172 -293 -394c0 -146 79 -240 205 -240zM1057 0h-281l35 164h-11c-73 -113 -194 -181 -329 -181c-233 0 -379 170 -379 436c0 383 229 673 536 673c163 0 289 -86 326 -215h12l42 198h278zM971 1583
h-196l-170 291h237zM1208 1543c-44 -187 -195 -323 -424 -323c-187 0 -301 109 -301 256c0 24 3 46 8 67h179c-3 -12 -6 -26 -6 -40c0 -81 53 -132 145 -132c107 0 190 68 215 172h184z" />
    <glyph glyph-name="adotmacron.1" horiz-adv-x="1234" 
d="M589 218c169 0 299 178 299 398c0 141 -83 236 -211 236c-167 0 -293 -172 -293 -394c0 -146 79 -240 205 -240zM1057 0h-281l35 164h-11c-73 -113 -194 -181 -329 -181c-233 0 -379 170 -379 436c0 383 229 673 536 673c163 0 289 -86 326 -215h12l42 198h278zM811 1211
c-84 0 -148 66 -148 149c0 82 64 148 148 148c83 0 148 -66 148 -148c0 -83 -65 -149 -148 -149zM1228 1770l-31 -151h-639l31 151h639z" />
    <glyph glyph-name="aringbelow.1" horiz-adv-x="1234" 
d="M589 218c169 0 299 178 299 398c0 141 -83 236 -211 236c-167 0 -293 -172 -293 -394c0 -146 79 -240 205 -240zM1057 0h-281l35 164h-11c-73 -113 -194 -181 -329 -181c-233 0 -379 170 -379 436c0 383 229 673 536 673c163 0 289 -86 326 -215h12l42 198h278zM474 -524
c-117 0 -216 89 -216 211c0 124 99 220 220 220c118 0 216 -89 215 -212c0 -124 -97 -219 -219 -219zM474 -403c55 0 97 40 97 97c-1 53 -41 91 -93 91c-55 0 -97 -40 -97 -97c0 -53 41 -91 93 -91z" />
    <glyph glyph-name="acircumflex.1" horiz-adv-x="1234" 
d="M589 218c169 0 299 178 299 398c0 141 -83 236 -211 236c-167 0 -293 -172 -293 -394c0 -146 79 -240 205 -240zM1057 0h-281l35 164h-11c-73 -113 -194 -181 -329 -181c-233 0 -379 170 -379 436c0 383 229 673 536 673c163 0 289 -86 326 -215h12l42 198h278zM972 1555
l196 -320h-215l-109 186h-7l-188 -186h-232l331 320h224z" />
    <glyph glyph-name="acircumflexdotbelow.1" horiz-adv-x="1234" 
d="M589 218c169 0 299 178 299 398c0 141 -83 236 -211 236c-167 0 -293 -172 -293 -394c0 -146 79 -240 205 -240zM1057 0h-281l35 164h-11c-73 -113 -194 -181 -329 -181c-233 0 -379 170 -379 436c0 383 229 673 536 673c163 0 289 -86 326 -215h12l42 198h278zM972 1555
l196 -320h-215l-109 186h-7l-188 -186h-232l331 320h224zM469 -460c-84 0 -151 68 -151 151c0 82 67 151 151 151s150 -69 150 -151c0 -83 -66 -151 -150 -151z" />
    <glyph glyph-name="acircumflexacute.1" horiz-adv-x="1234" 
d="M589 218c169 0 299 178 299 398c0 141 -83 236 -211 236c-167 0 -293 -172 -293 -394c0 -146 79 -240 205 -240zM1057 0h-281l35 164h-11c-73 -113 -194 -181 -329 -181c-233 0 -379 170 -379 436c0 383 229 673 536 673c163 0 289 -86 326 -215h12l42 198h278zM949 1535
l197 -311h-212l-110 180h-7l-187 -180h-236l330 311h225zM1021 1587l267 287h247l-296 -287h-218z" />
    <glyph glyph-name="acircumflextilde.1" horiz-adv-x="1234" 
d="M589 218c169 0 299 178 299 398c0 141 -83 236 -211 236c-167 0 -293 -172 -293 -394c0 -146 79 -240 205 -240zM1057 0h-281l35 164h-11c-73 -113 -194 -181 -329 -181c-233 0 -379 170 -379 436c0 383 229 673 536 673c163 0 289 -86 326 -215h12l42 198h278zM946 1524
l200 -300h-212l-112 171h-7l-185 -171h-237l328 300h225zM1010 1602c-141 0 -173 133 -251 133c-43 0 -79 -43 -94 -115h-161c33 168 134 270 262 270c139 0 171 -133 250 -133c43 0 76 41 94 117h160c-33 -166 -136 -272 -260 -272z" />
    <glyph glyph-name="acircumflexgrave.1" horiz-adv-x="1234" 
d="M589 218c169 0 299 178 299 398c0 141 -83 236 -211 236c-167 0 -293 -172 -293 -394c0 -146 79 -240 205 -240zM1057 0h-281l35 164h-11c-73 -113 -194 -181 -329 -181c-233 0 -379 170 -379 436c0 383 229 673 536 673c163 0 289 -86 326 -215h12l42 198h278z
M1285 1583h-196l-170 291h237zM949 1535l197 -311h-212l-110 180h-7l-187 -180h-236l330 311h225z" />
    <glyph glyph-name="acircumflexhookabove.1" horiz-adv-x="1234" 
d="M589 218c169 0 299 178 299 398c0 141 -83 236 -211 236c-167 0 -293 -172 -293 -394c0 -146 79 -240 205 -240zM1057 0h-281l35 164h-11c-73 -113 -194 -181 -329 -181c-233 0 -379 170 -379 436c0 383 229 673 536 673c163 0 289 -86 326 -215h12l42 198h278zM976 1768
l30 143c36 13 87 23 129 23c122 0 202 -68 202 -170c0 -117 -93 -228 -224 -273l-68 112c69 26 115 73 115 117c0 40 -32 64 -84 64c-36 0 -69 -5 -100 -16zM949 1535l197 -311h-212l-110 180h-7l-187 -180h-236l330 311h225z" />
    <glyph glyph-name="abreve.1" horiz-adv-x="1234" 
d="M589 218c169 0 299 178 299 398c0 141 -83 236 -211 236c-167 0 -293 -172 -293 -394c0 -146 79 -240 205 -240zM1057 0h-281l35 164h-11c-73 -113 -194 -181 -329 -181c-233 0 -379 170 -379 436c0 383 229 673 536 673c163 0 289 -86 326 -215h12l42 198h278zM503 1554
h179c-3 -12 -6 -26 -6 -40c0 -83 55 -132 145 -132c104 0 190 65 215 172h183c-45 -198 -200 -323 -424 -323c-172 0 -300 106 -300 260c0 21 3 42 8 63z" />
    <glyph glyph-name="abreveacute.1" horiz-adv-x="1234" 
d="M589 218c169 0 299 178 299 398c0 141 -83 236 -211 236c-167 0 -293 -172 -293 -394c0 -146 79 -240 205 -240zM1057 0h-281l35 164h-11c-73 -113 -194 -181 -329 -181c-233 0 -379 170 -379 436c0 383 229 673 536 673c163 0 289 -86 326 -215h12l42 198h278zM738 1587
l267 287h247l-296 -287h-218zM1208 1543c-44 -187 -195 -323 -424 -323c-187 0 -301 109 -301 256c0 24 3 46 8 67h179c-3 -12 -6 -26 -6 -40c0 -81 53 -132 145 -132c107 0 190 68 215 172h184z" />
    <glyph glyph-name="abrevetilde.1" horiz-adv-x="1234" 
d="M589 218c169 0 299 178 299 398c0 141 -83 236 -211 236c-167 0 -293 -172 -293 -394c0 -146 79 -240 205 -240zM1057 0h-281l35 164h-11c-73 -113 -194 -181 -329 -181c-233 0 -379 170 -379 436c0 383 229 673 536 673c163 0 289 -86 326 -215h12l42 198h278z
M1208 1543c-44 -187 -195 -323 -424 -323c-187 0 -301 109 -301 256c0 24 3 46 8 67h179c-3 -12 -6 -26 -6 -40c0 -81 53 -132 145 -132c107 0 190 68 215 172h184zM1021 1602c-141 0 -173 133 -251 133c-43 0 -79 -43 -94 -115h-161c33 168 134 270 262 270
c139 0 171 -133 250 -133c43 0 76 41 94 117h160c-33 -166 -136 -272 -260 -272z" />
    <glyph glyph-name="abrevehookabove.1" horiz-adv-x="1234" 
d="M589 218c169 0 299 178 299 398c0 141 -83 236 -211 236c-167 0 -293 -172 -293 -394c0 -146 79 -240 205 -240zM1057 0h-281l35 164h-11c-73 -113 -194 -181 -329 -181c-233 0 -379 170 -379 436c0 383 229 673 536 673c163 0 289 -86 326 -215h12l42 198h278zM691 1783
l28 130c36 12 86 21 126 21c118 0 194 -62 194 -157c0 -100 -92 -208 -207 -248l-67 104c61 22 104 64 104 105c0 37 -31 60 -81 60c-34 0 -66 -5 -97 -15zM1208 1543c-44 -187 -195 -323 -424 -323c-187 0 -301 109 -301 256c0 24 3 46 8 67h179c-3 -12 -6 -26 -6 -40
c0 -81 53 -132 145 -132c107 0 190 68 215 172h184z" />
    <glyph glyph-name="abrevedotbelow.1" horiz-adv-x="1234" 
d="M589 218c169 0 299 178 299 398c0 141 -83 236 -211 236c-167 0 -293 -172 -293 -394c0 -146 79 -240 205 -240zM1057 0h-281l35 164h-11c-73 -113 -194 -181 -329 -181c-233 0 -379 170 -379 436c0 383 229 673 536 673c163 0 289 -86 326 -215h12l42 198h278zM503 1554
h179c-3 -12 -6 -26 -6 -40c0 -83 55 -132 145 -132c104 0 190 65 215 172h183c-45 -198 -200 -323 -424 -323c-172 0 -300 106 -300 260c0 21 3 42 8 63zM469 -460c-84 0 -151 68 -151 151c0 82 67 151 151 151s150 -69 150 -151c0 -83 -66 -151 -150 -151z" />
    <glyph glyph-name="ainvertedbreve.1" horiz-adv-x="1234" 
d="M589 218c169 0 299 178 299 398c0 141 -83 236 -211 236c-167 0 -293 -172 -293 -394c0 -146 79 -240 205 -240zM1057 0h-281l35 164h-11c-73 -113 -194 -181 -329 -181c-233 0 -379 170 -379 436c0 383 229 673 536 673c163 0 289 -86 326 -215h12l42 198h278z
M1137 1220h-179c3 12 6 26 6 40c0 83 -55 132 -145 132c-104 0 -190 -65 -215 -172h-183c44 198 200 323 424 323c172 0 300 -106 300 -260c0 -21 -3 -42 -8 -63z" />
    <glyph glyph-name="acaron.1" horiz-adv-x="1234" 
d="M589 218c169 0 299 178 299 398c0 141 -83 236 -211 236c-167 0 -293 -172 -293 -394c0 -146 79 -240 205 -240zM1057 0h-281l35 164h-11c-73 -113 -194 -181 -329 -181c-233 0 -379 170 -379 436c0 383 229 673 536 673c163 0 289 -86 326 -215h12l42 198h278zM910 1235
h-224l-196 320h212l108 -187h7l189 187h235z" />
    <glyph glyph-name="adotaccent.1" horiz-adv-x="1234" 
d="M589 218c169 0 299 178 299 398c0 141 -83 236 -211 236c-167 0 -293 -172 -293 -394c0 -146 79 -240 205 -240zM1057 0h-281l35 164h-11c-73 -113 -194 -181 -329 -181c-233 0 -379 170 -379 436c0 383 229 673 536 673c163 0 289 -86 326 -215h12l42 198h278zM815 1240
c-84 0 -151 68 -151 151s67 151 151 151s150 -68 150 -151s-66 -151 -150 -151z" />
    <glyph glyph-name="adotbelow.1" horiz-adv-x="1234" 
d="M589 218c169 0 299 178 299 398c0 141 -83 236 -211 236c-167 0 -293 -172 -293 -394c0 -146 79 -240 205 -240zM1057 0h-281l35 164h-11c-73 -113 -194 -181 -329 -181c-233 0 -379 170 -379 436c0 383 229 673 536 673c163 0 289 -86 326 -215h12l42 198h278zM469 -460
c-84 0 -151 68 -151 151c0 82 67 151 151 151s150 -69 150 -151c0 -83 -66 -151 -150 -151z" />
    <glyph glyph-name="ahookabove.1" horiz-adv-x="1234" 
d="M589 218c169 0 299 178 299 398c0 141 -83 236 -211 236c-167 0 -293 -172 -293 -394c0 -146 79 -240 205 -240zM1057 0h-281l35 164h-11c-73 -113 -194 -181 -329 -181c-233 0 -379 170 -379 436c0 383 229 673 536 673c163 0 289 -86 326 -215h12l42 198h278zM667 1481
l32 142c33 12 82 21 131 21c118 0 203 -72 203 -174c0 -119 -91 -227 -229 -271l-64 115c76 26 113 68 113 116c0 41 -35 69 -86 69c-36 0 -72 -6 -100 -18z" />
    <glyph glyph-name="adblgrave.1" horiz-adv-x="1234" 
d="M589 218c169 0 299 178 299 398c0 141 -83 236 -211 236c-167 0 -293 -172 -293 -394c0 -146 79 -240 205 -240zM1057 0h-281l35 164h-11c-73 -113 -194 -181 -329 -181c-233 0 -379 170 -379 436c0 383 229 673 536 673c163 0 289 -86 326 -215h12l42 198h278zM737 1246
h-203l-195 311h241zM1108 1246h-204l-194 311h240z" />
    <glyph glyph-name="amacron.1" horiz-adv-x="1234" 
d="M589 218c169 0 299 178 299 398c0 141 -83 236 -211 236c-167 0 -293 -172 -293 -394c0 -146 79 -240 205 -240zM1057 0h-281l35 164h-11c-73 -113 -194 -181 -329 -181c-233 0 -379 170 -379 436c0 383 229 673 536 673c163 0 289 -86 326 -215h12l42 198h278z
M1156 1431l-31 -151h-639l31 151h639z" />
    <glyph glyph-name="aogonek.1" horiz-adv-x="1234" 
d="M589 218c169 0 299 178 299 398c0 141 -83 236 -211 236c-167 0 -293 -172 -293 -394c0 -146 79 -240 205 -240zM933 -430c-26 -13 -78 -23 -144 -23c-136 0 -222 75 -222 178c0 107 80 194 207 265l37 174h-11c-73 -113 -194 -181 -329 -181c-233 0 -379 170 -379 436
c0 383 229 673 536 673c163 0 289 -86 326 -215h12l42 198h278l-228 -1073l-24 -7c-135 -42 -241 -132 -241 -204c0 -45 42 -73 100 -73c29 0 56 5 73 11z" />
    <glyph glyph-name="b" unicode="b" horiz-adv-x="1231" 
d="M690 -17c-163 0 -298 91 -336 222h-7l-43 -205h-276l308 1443h284l-113 -527h6c63 107 188 176 325 176c231 0 378 -163 378 -435c0 -366 -211 -674 -526 -674zM634 224c170 0 290 177 290 394c0 147 -76 240 -205 240c-171 0 -299 -184 -299 -401
c0 -138 86 -233 214 -233z" />
    <glyph glyph-name="blinebelow" unicode="&#x1e07;" horiz-adv-x="1232" 
d="M690 -17c-163 0 -298 91 -336 222h-7l-43 -205h-276l308 1443h284l-113 -527h6c63 107 188 176 325 176c231 0 378 -163 378 -435c0 -366 -211 -674 -526 -674zM634 224c170 0 290 177 290 394c0 147 -76 240 -205 240c-171 0 -299 -184 -299 -401
c0 -138 86 -233 214 -233zM814 -230l-31 -151h-692l32 151h691z" />
    <glyph glyph-name="bdotbelow" unicode="&#x1e05;" horiz-adv-x="1232" 
d="M690 -17c-163 0 -298 91 -336 222h-7l-43 -205h-276l308 1443h284l-113 -527h6c63 107 188 176 325 176c231 0 378 -163 378 -435c0 -366 -211 -674 -526 -674zM634 224c170 0 290 177 290 394c0 147 -76 240 -205 240c-171 0 -299 -184 -299 -401
c0 -138 86 -233 214 -233zM451 -457c-84 0 -151 68 -151 151c0 82 67 151 151 151s150 -69 150 -151c0 -83 -66 -151 -150 -151z" />
    <glyph glyph-name="bdotaccent" unicode="&#x1e03;" horiz-adv-x="1232" 
d="M690 -17c-163 0 -298 91 -336 222h-7l-43 -205h-276l308 1443h284l-113 -527h6c63 107 188 176 325 176c231 0 378 -163 378 -435c0 -366 -211 -674 -526 -674zM634 224c170 0 290 177 290 394c0 147 -76 240 -205 240c-171 0 -299 -184 -299 -401
c0 -138 86 -233 214 -233zM545 1607c-84 0 -151 68 -151 151c0 82 67 151 151 151s150 -69 150 -151c0 -83 -66 -151 -150 -151z" />
    <glyph glyph-name="c" unicode="c" horiz-adv-x="1115" 
d="M677 1099c280 0 455 -176 455 -389v-33h-274c-2 103 -73 180 -192 180c-166 0 -282 -166 -282 -403c0 -145 77 -235 195 -235c111 0 193 66 225 172h275c-42 -243 -248 -415 -510 -415c-297 0 -472 188 -472 466c0 390 230 657 580 657z" />
    <glyph glyph-name="cacute" unicode="&#x107;" horiz-adv-x="1116" 
d="M677 1099c280 0 455 -176 455 -389v-33h-274c-2 103 -73 180 -192 180c-166 0 -282 -166 -282 -403c0 -145 77 -235 195 -235c111 0 193 66 225 172h275c-42 -243 -248 -415 -510 -415c-297 0 -472 188 -472 466c0 390 230 657 580 657zM873 1246h-237l287 311h272z" />
    <glyph glyph-name="ccaron" unicode="&#x10d;" horiz-adv-x="1116" 
d="M677 1099c280 0 455 -176 455 -389v-33h-274c-2 103 -73 180 -192 180c-166 0 -282 -166 -282 -403c0 -145 77 -235 195 -235c111 0 193 66 225 172h275c-42 -243 -248 -415 -510 -415c-297 0 -472 188 -472 466c0 390 230 657 580 657zM847 1235h-224l-196 320h212
l108 -187h7l189 187h235z" />
    <glyph glyph-name="ccircumflex" unicode="&#x109;" horiz-adv-x="1116" 
d="M677 1099c280 0 455 -176 455 -389v-33h-274c-2 103 -73 180 -192 180c-166 0 -282 -166 -282 -403c0 -145 77 -235 195 -235c111 0 193 66 225 172h275c-42 -243 -248 -415 -510 -415c-297 0 -472 188 -472 466c0 390 230 657 580 657zM909 1555l196 -320h-215l-109 186
h-7l-188 -186h-232l331 320h224z" />
    <glyph glyph-name="cdotaccent" unicode="&#x10b;" horiz-adv-x="1116" 
d="M677 1099c280 0 455 -176 455 -389v-33h-274c-2 103 -73 180 -192 180c-166 0 -282 -166 -282 -403c0 -145 77 -235 195 -235c111 0 193 66 225 172h275c-42 -243 -248 -415 -510 -415c-297 0 -472 188 -472 466c0 390 230 657 580 657zM752 1240c-84 0 -151 68 -151 151
s67 151 151 151s150 -68 150 -151s-66 -151 -150 -151z" />
    <glyph glyph-name="ccedilla" unicode="&#xe7;" horiz-adv-x="1116" 
d="M1132 677h-274c-2 103 -73 180 -192 180c-166 0 -282 -166 -282 -403c0 -145 77 -235 195 -235c111 0 193 66 225 172h275c-38 -222 -214 -385 -444 -411l-57 -85c104 -5 163 -58 163 -147c0 -128 -118 -219 -287 -219c-59 0 -123 9 -157 21l29 140
c34 -11 80 -18 125 -18c76 0 118 20 118 57c0 36 -37 51 -133 51h-58l22 101l69 103c-236 38 -372 213 -372 458c0 390 230 657 580 657c280 0 455 -176 455 -389v-33z" />
    <glyph glyph-name="ccedillaacute" unicode="&#x1e09;" horiz-adv-x="1116" 
d="M1195 1557l-322 -311h-237l287 311h272zM400 -119l69 103c-236 38 -372 213 -372 458c0 390 230 657 580 657c280 0 455 -176 455 -389v-33h-274c-2 103 -73 180 -192 180c-166 0 -282 -166 -282 -403c0 -145 77 -235 195 -235c111 0 193 66 225 172h275
c-38 -222 -214 -385 -444 -411l-57 -85c104 -5 163 -58 163 -147c0 -128 -118 -219 -287 -219c-59 0 -123 9 -157 21l29 140c34 -11 80 -18 125 -18c76 0 118 20 118 57c0 36 -37 51 -133 51h-58z" />
    <glyph glyph-name="d" unicode="d" horiz-adv-x="1237" 
d="M471 -17c-232 0 -377 168 -377 432c0 388 231 677 536 677c163 0 288 -86 323 -210h6l122 561h285l-307 -1443h-281l34 160h-6c-72 -110 -193 -177 -335 -177zM589 218c169 0 301 178 301 401c0 138 -83 233 -211 233c-165 0 -293 -169 -293 -396
c0 -145 78 -238 203 -238z" />
    <glyph glyph-name="ddotaccent" unicode="&#x1e0b;" horiz-adv-x="1237" 
d="M471 -17c-232 0 -377 168 -377 432c0 388 231 677 536 677c163 0 288 -86 323 -210h6l122 561h285l-307 -1443h-281l34 160h-6c-72 -110 -193 -177 -335 -177zM589 218c169 0 301 178 301 401c0 138 -83 233 -211 233c-165 0 -293 -169 -293 -396
c0 -145 78 -238 203 -238zM1294 1607c-84 0 -151 68 -151 151c0 82 67 151 151 151s150 -69 150 -151c0 -83 -66 -151 -150 -151z" />
    <glyph glyph-name="dcircumflexbelow" unicode="&#x1e13;" horiz-adv-x="1237" 
d="M471 -17c-232 0 -377 168 -377 432c0 388 231 677 536 677c163 0 288 -86 323 -210h6l122 561h285l-307 -1443h-281l34 160h-6c-72 -110 -193 -177 -335 -177zM589 218c169 0 301 178 301 401c0 138 -83 233 -211 233c-165 0 -293 -169 -293 -396
c0 -145 78 -238 203 -238zM690 -165l202 -319h-216l-115 192h-7l-198 -192h-227l337 319h224z" />
    <glyph glyph-name="dcommaaccent" unicode="&#x1e11;" horiz-adv-x="1237" 
d="M471 -17c-232 0 -377 168 -377 432c0 388 231 677 536 677c163 0 288 -86 323 -210h6l122 561h285l-307 -1443h-281l34 160h-6c-72 -110 -193 -177 -335 -177zM589 218c169 0 301 178 301 401c0 138 -83 233 -211 233c-165 0 -293 -169 -293 -396
c0 -145 78 -238 203 -238zM461 -475h-221l201 338h261z" />
    <glyph glyph-name="dlinebelow" unicode="&#x1e0f;" horiz-adv-x="1237" 
d="M471 -17c-232 0 -377 168 -377 432c0 388 231 677 536 677c163 0 288 -86 323 -210h6l122 561h285l-307 -1443h-281l34 160h-6c-72 -110 -193 -177 -335 -177zM589 218c169 0 301 178 301 401c0 138 -83 233 -211 233c-165 0 -293 -169 -293 -396
c0 -145 78 -238 203 -238zM915 -233l-31 -151h-692l32 151h691z" />
    <glyph glyph-name="dcaron" unicode="&#x10f;" horiz-adv-x="1506" 
d="M1491 1443h246l-157 -504h-196zM471 -17c-232 0 -377 168 -377 432c0 388 231 677 536 677c163 0 288 -86 323 -210h6l122 561h285l-307 -1443h-281l34 160h-6c-72 -110 -193 -177 -335 -177zM589 218c169 0 301 178 301 401c0 138 -83 233 -211 233
c-165 0 -293 -169 -293 -396c0 -145 78 -238 203 -238z" />
    <glyph glyph-name="ddotbelow" unicode="&#x1e0d;" horiz-adv-x="1237" 
d="M471 -17c-232 0 -377 168 -377 432c0 388 231 677 536 677c163 0 288 -86 323 -210h6l122 561h285l-307 -1443h-281l34 160h-6c-72 -110 -193 -177 -335 -177zM589 218c169 0 301 178 301 401c0 138 -83 233 -211 233c-165 0 -293 -169 -293 -396
c0 -145 78 -238 203 -238zM552 -460c-84 0 -151 68 -151 151c0 82 67 151 151 151s150 -69 150 -151c0 -83 -66 -151 -150 -151z" />
    <glyph glyph-name="dcroat" unicode="&#x111;" horiz-adv-x="1237" 
d="M589 218c169 0 301 178 301 401c0 138 -83 233 -211 233c-165 0 -293 -169 -293 -396c0 -145 78 -238 203 -238zM1449 1349l-35 -168h-104l-251 -1181h-281l34 160h-6c-72 -110 -193 -177 -335 -177c-232 0 -377 168 -377 432c0 388 231 677 536 677
c163 0 288 -86 323 -210h6l65 299h-231l35 168h233l20 94h285l-20 -94h103z" />
    <glyph glyph-name="e" unicode="e" horiz-adv-x="1148" 
d="M394 653h466c1 7 2 20 2 30c0 106 -68 197 -203 197c-133 0 -231 -96 -265 -227zM573 -24c-299 0 -475 190 -475 484c0 362 232 639 571 639c277 0 461 -179 461 -460c0 -52 -4 -116 -15 -167h-750c-1 -12 -2 -23 -2 -34c0 -142 85 -240 221 -240c114 0 197 58 230 144
h269c-55 -214 -251 -366 -510 -366z" />
    <glyph glyph-name="egrave" unicode="&#xe8;" horiz-adv-x="1148" 
d="M394 653h466c1 7 2 20 2 30c0 106 -68 197 -203 197c-133 0 -231 -96 -265 -227zM573 -24c-299 0 -475 190 -475 484c0 362 232 639 571 639c277 0 461 -179 461 -460c0 -52 -4 -116 -15 -167h-750c-1 -12 -2 -23 -2 -34c0 -142 85 -240 221 -240c114 0 197 58 230 144
h269c-55 -214 -251 -366 -510 -366zM815 1245h-227l-189 311h261z" />
    <glyph glyph-name="edblgrave" unicode="&#x205;" horiz-adv-x="1148" 
d="M394 653h466c1 7 2 20 2 30c0 106 -68 197 -203 197c-133 0 -231 -96 -265 -227zM573 -24c-299 0 -475 190 -475 484c0 362 232 639 571 639c277 0 461 -179 461 -460c0 -52 -4 -116 -15 -167h-750c-1 -12 -2 -23 -2 -34c0 -142 85 -240 221 -240c114 0 197 58 230 144
h269c-55 -214 -251 -366 -510 -366zM659 1245h-203l-195 311h241zM1030 1245h-204l-194 311h240z" />
    <glyph glyph-name="eacute" unicode="&#xe9;" horiz-adv-x="1148" 
d="M394 653h466c1 7 2 20 2 30c0 106 -68 197 -203 197c-133 0 -231 -96 -265 -227zM573 -24c-299 0 -475 190 -475 484c0 362 232 639 571 639c277 0 461 -179 461 -460c0 -52 -4 -116 -15 -167h-750c-1 -12 -2 -23 -2 -34c0 -142 85 -240 221 -240c114 0 197 58 230 144
h269c-55 -214 -251 -366 -510 -366zM858 1245h-237l287 311h272z" />
    <glyph glyph-name="ecircumflex" unicode="&#xea;" horiz-adv-x="1148" 
d="M394 653h466c1 7 2 20 2 30c0 106 -68 197 -203 197c-133 0 -231 -96 -265 -227zM573 -24c-299 0 -475 190 -475 484c0 362 232 639 571 639c277 0 461 -179 461 -460c0 -52 -4 -116 -15 -167h-750c-1 -12 -2 -23 -2 -34c0 -142 85 -240 221 -240c114 0 197 58 230 144
h269c-55 -214 -251 -366 -510 -366zM894 1554l196 -320h-215l-109 186h-7l-188 -186h-232l331 320h224z" />
    <glyph glyph-name="ecircumflexhookabove" unicode="&#x1ec3;" horiz-adv-x="1148" 
d="M394 653h466c1 7 2 20 2 30c0 106 -68 197 -203 197c-133 0 -231 -96 -265 -227zM573 -24c-299 0 -475 190 -475 484c0 362 232 639 571 639c277 0 461 -179 461 -460c0 -52 -4 -116 -15 -167h-750c-1 -12 -2 -23 -2 -34c0 -142 85 -240 221 -240c114 0 197 58 230 144
h269c-55 -214 -251 -366 -510 -366zM898 1767l30 143c36 13 87 23 129 23c122 0 202 -68 202 -170c0 -117 -93 -228 -224 -273l-68 112c69 26 115 73 115 117c0 40 -32 64 -84 64c-36 0 -69 -5 -100 -16zM871 1534l197 -311h-212l-110 180h-7l-187 -180h-236l330 311h225z
" />
    <glyph glyph-name="ecircumflexgrave" unicode="&#x1ec1;" horiz-adv-x="1148" 
d="M394 653h466c1 7 2 20 2 30c0 106 -68 197 -203 197c-133 0 -231 -96 -265 -227zM573 -24c-299 0 -475 190 -475 484c0 362 232 639 571 639c277 0 461 -179 461 -460c0 -52 -4 -116 -15 -167h-750c-1 -12 -2 -23 -2 -34c0 -142 85 -240 221 -240c114 0 197 58 230 144
h269c-55 -214 -251 -366 -510 -366zM1207 1582h-196l-170 291h237zM871 1534l197 -311h-212l-110 180h-7l-187 -180h-236l330 311h225z" />
    <glyph glyph-name="ecircumflextilde" unicode="&#x1ec5;" horiz-adv-x="1148" 
d="M394 653h466c1 7 2 20 2 30c0 106 -68 197 -203 197c-133 0 -231 -96 -265 -227zM573 -24c-299 0 -475 190 -475 484c0 362 232 639 571 639c277 0 461 -179 461 -460c0 -52 -4 -116 -15 -167h-750c-1 -12 -2 -23 -2 -34c0 -142 85 -240 221 -240c114 0 197 58 230 144
h269c-55 -214 -251 -366 -510 -366zM868 1523l200 -300h-212l-112 171h-7l-185 -171h-237l328 300h225zM932 1601c-141 0 -173 133 -251 133c-43 0 -79 -43 -94 -115h-161c33 168 134 270 262 270c139 0 171 -133 250 -133c43 0 76 41 94 117h160
c-33 -166 -136 -272 -260 -272z" />
    <glyph glyph-name="ecircumflexdotbelow" unicode="&#x1ec7;" horiz-adv-x="1148" 
d="M394 653h466c1 7 2 20 2 30c0 106 -68 197 -203 197c-133 0 -231 -96 -265 -227zM573 -24c-299 0 -475 190 -475 484c0 362 232 639 571 639c277 0 461 -179 461 -460c0 -52 -4 -116 -15 -167h-750c-1 -12 -2 -23 -2 -34c0 -142 85 -240 221 -240c114 0 197 58 230 144
h269c-55 -214 -251 -366 -510 -366zM894 1554l196 -320h-215l-109 186h-7l-188 -186h-232l331 320h224zM508 -460c-84 0 -151 68 -151 151c0 82 67 151 151 151s150 -69 150 -151c0 -83 -66 -151 -150 -151z" />
    <glyph glyph-name="ecircumflexacute" unicode="&#x1ebf;" horiz-adv-x="1148" 
d="M394 653h466c1 7 2 20 2 30c0 106 -68 197 -203 197c-133 0 -231 -96 -265 -227zM573 -24c-299 0 -475 190 -475 484c0 362 232 639 571 639c277 0 461 -179 461 -460c0 -52 -4 -116 -15 -167h-750c-1 -12 -2 -23 -2 -34c0 -142 85 -240 221 -240c114 0 197 58 230 144
h269c-55 -214 -251 -366 -510 -366zM871 1534l197 -311h-212l-110 180h-7l-187 -180h-236l330 311h225zM943 1586l267 287h247l-296 -287h-218z" />
    <glyph glyph-name="edieresis" unicode="&#xeb;" horiz-adv-x="1148" 
d="M394 653h466c1 7 2 20 2 30c0 106 -68 197 -203 197c-133 0 -231 -96 -265 -227zM573 -24c-299 0 -475 190 -475 484c0 362 232 639 571 639c277 0 461 -179 461 -460c0 -52 -4 -116 -15 -167h-750c-1 -12 -2 -23 -2 -34c0 -142 85 -240 221 -240c114 0 197 58 230 144
h269c-55 -214 -251 -366 -510 -366zM542 1237c-73 0 -129 57 -129 127s56 127 129 127s130 -57 130 -127s-57 -127 -130 -127zM937 1237c-73 0 -129 57 -129 127s56 127 129 127s130 -57 130 -127s-57 -127 -130 -127z" />
    <glyph glyph-name="edotbelow" unicode="&#x1eb9;" horiz-adv-x="1148" 
d="M394 653h466c1 7 2 20 2 30c0 106 -68 197 -203 197c-133 0 -231 -96 -265 -227zM573 -24c-299 0 -475 190 -475 484c0 362 232 639 571 639c277 0 461 -179 461 -460c0 -52 -4 -116 -15 -167h-750c-1 -12 -2 -23 -2 -34c0 -142 85 -240 221 -240c114 0 197 58 230 144
h269c-55 -214 -251 -366 -510 -366zM508 -460c-84 0 -151 68 -151 151c0 82 67 151 151 151s150 -69 150 -151c0 -83 -66 -151 -150 -151z" />
    <glyph glyph-name="einvertedbreve" unicode="&#x207;" horiz-adv-x="1148" 
d="M394 653h466c1 7 2 20 2 30c0 106 -68 197 -203 197c-133 0 -231 -96 -265 -227zM573 -24c-299 0 -475 190 -475 484c0 362 232 639 571 639c277 0 461 -179 461 -460c0 -52 -4 -116 -15 -167h-750c-1 -12 -2 -23 -2 -34c0 -142 85 -240 221 -240c114 0 197 58 230 144
h269c-55 -214 -251 -366 -510 -366zM1059 1219h-179c3 12 6 26 6 40c0 83 -55 132 -145 132c-104 0 -190 -65 -215 -172h-183c44 198 200 323 424 323c172 0 300 -106 300 -260c0 -21 -3 -42 -8 -63z" />
    <glyph glyph-name="ehookabove" unicode="&#x1ebb;" horiz-adv-x="1148" 
d="M394 653h466c1 7 2 20 2 30c0 106 -68 197 -203 197c-133 0 -231 -96 -265 -227zM573 -24c-299 0 -475 190 -475 484c0 362 232 639 571 639c277 0 461 -179 461 -460c0 -52 -4 -116 -15 -167h-750c-1 -12 -2 -23 -2 -34c0 -142 85 -240 221 -240c114 0 197 58 230 144
h269c-55 -214 -251 -366 -510 -366zM589 1480l32 142c33 12 82 21 131 21c118 0 203 -72 203 -174c0 -119 -91 -227 -229 -271l-64 115c76 26 113 68 113 116c0 41 -35 69 -86 69c-36 0 -72 -6 -100 -18z" />
    <glyph glyph-name="ecaron" unicode="&#x11b;" horiz-adv-x="1148" 
d="M394 653h466c1 7 2 20 2 30c0 106 -68 197 -203 197c-133 0 -231 -96 -265 -227zM573 -24c-299 0 -475 190 -475 484c0 362 232 639 571 639c277 0 461 -179 461 -460c0 -52 -4 -116 -15 -167h-750c-1 -12 -2 -23 -2 -34c0 -142 85 -240 221 -240c114 0 197 58 230 144
h269c-55 -214 -251 -366 -510 -366zM832 1234h-224l-196 320h212l108 -187h7l189 187h235z" />
    <glyph glyph-name="emacron" unicode="&#x113;" horiz-adv-x="1148" 
d="M394 653h466c1 7 2 20 2 30c0 106 -68 197 -203 197c-133 0 -231 -96 -265 -227zM573 -24c-299 0 -475 190 -475 484c0 362 232 639 571 639c277 0 461 -179 461 -460c0 -52 -4 -116 -15 -167h-750c-1 -12 -2 -23 -2 -34c0 -142 85 -240 221 -240c114 0 197 58 230 144
h269c-55 -214 -251 -366 -510 -366zM1078 1430l-31 -151h-639l31 151h639z" />
    </font>
</defs>
</svg>
