<svg xmlns="http://www.w3.org/2000/svg" xmlns:xlink="http://www.w3.org/1999/xlink" width="48" height="48" viewBox="0 0 48 48"><defs><style>.a{fill:url(#a);}.b{fill:url(#b);}.c{stroke:#fff;stroke-width:0.5px;fill:url(#c);}.d,.h{fill:#fff;}.e{clip-path:url(#d);}.f{fill:rgba(255,255,255,0);}.g,.h{stroke:none;}</style><linearGradient id="a" x1="0.5" x2="0.5" y2="1" gradientUnits="objectBoundingBox"><stop offset="0" stop-color="#eb6f6b"/><stop offset="1" stop-color="#ee4d5f"/></linearGradient><linearGradient id="b" x1="0.5" y1="-0.615" x2="0.5" y2="1.885" gradientUnits="objectBoundingBox"><stop offset="0" stop-color="#4e024e"/><stop offset="1" stop-color="#d31b5c"/></linearGradient><linearGradient id="c" x1="0.5" x2="0.5" y2="1" gradientUnits="objectBoundingBox"><stop offset="0" stop-color="#f07165"/><stop offset="0.659" stop-color="#faa460"/><stop offset="1" stop-color="#ffba5e"/></linearGradient><clipPath id="d"><path class="a" d="M847.688,613.166l2.221,4.5a1.132,1.132,0,0,0,.853.62l4.967.722a1.133,1.133,0,0,1,.628,1.933l-3.594,3.5a1.134,1.134,0,0,0-.326,1l.849,4.946a1.133,1.133,0,0,1-1.644,1.195l-4.442-2.336a1.133,1.133,0,0,0-1.055,0l-4.443,2.336a1.133,1.133,0,0,1-1.644-1.195l.848-4.946a1.135,1.135,0,0,0-.326-1l-3.594-3.5a1.133,1.133,0,0,1,.628-1.933l4.967-.722a1.132,1.132,0,0,0,.853-.62l2.221-4.5A1.133,1.133,0,0,1,847.688,613.166Z" transform="translate(-836.644 -612.534)"/></clipPath></defs><g transform="translate(-21 -853)"><g transform="translate(27 857)"><g class="b" transform="translate(0 40.26) rotate(-90)"><path class="g" d="M 32.13546752929688 34.67109680175781 L 11.58614540100098 33.2712516784668 L 11.56917476654053 33.27009201049805 L 11.55216503143311 33.27009201049805 C 8.552294731140137 33.27009201049805 6.111714839935303 30.82949256896973 6.111714839935303 27.82958221435547 L 6.111714839935303 21.72504234313965 L 6.111714839935303 21.42427253723145 L 5.846014976501465 21.2833309173584 C 0.8897850513458252 18.65434265136719 0.5010850429534912 17.29272270202637 0.5000050067901611 16.93802261352539 C 0.4989150166511536 16.5809326171875 0.8823050260543823 15.19332218170166 5.86097526550293 12.3301420211792 L 6.111714839935303 12.18594169616699 L 6.111714839935303 11.89670181274414 L 6.111714839935303 6.481031894683838 C 6.111714839935303 3.481141805648804 8.552294731140137 1.04056179523468 11.55216503143311 1.04056179523468 L 11.55809497833252 1.04056179523468 L 11.56403541564941 1.040421724319458 L 34.32534027099609 0.5000052452087402 C 37.31478881835938 0.5032709240913391 39.74750518798828 2.930123090744019 39.75996780395508 5.917428016662598 L 37.56155395507812 29.18367195129395 L 37.55933380126953 29.2071418762207 L 37.55933380126953 29.23071098327637 C 37.55933380126953 32.22506713867188 35.12779235839844 34.66218185424805 32.13546752929688 34.67109680175781 Z"/><path class="h" d="M 32.15138626098633 34.17101669311523 C 34.86071014404297 34.15352630615234 37.05933380126953 31.94405364990234 37.05933380126953 29.23071098327637 L 37.05933380126953 29.18357086181641 L 37.06376647949219 29.13664245605469 L 39.25981140136719 5.895418167114258 C 39.23568344116211 3.195619583129883 37.03489685058594 1.00619113445282 34.33090591430664 1.000014901161194 L 11.57590484619141 1.540281772613525 L 11.56403541564941 1.54056179523468 L 11.55216503143311 1.54056179523468 C 8.827995300292969 1.54056179523468 6.611714839935303 3.756851673126221 6.611714839935303 6.481031894683838 L 6.611714839935303 11.89670181274414 L 6.611714839935303 12.47518157958984 L 6.110245227813721 12.76357173919678 C 4.679605007171631 13.58632183074951 3.459335088729858 14.395751953125 2.58136510848999 15.10435199737549 C 1.016414999961853 16.36741256713867 0.9999850392341614 16.93096160888672 1.000005006790161 16.93650245666504 C 1.001025080680847 17.273681640625 1.91570508480072 18.63254165649414 6.080315113067627 20.84163093566895 L 6.611714839935303 21.12351226806641 L 6.611714839935303 21.72504234313965 L 6.611714839935303 27.82958221435547 C 6.611714839935303 30.55379104614258 8.827995300292969 32.77009201049805 11.55216503143311 32.77009201049805 L 11.58618545532227 32.77009201049805 L 11.62012481689453 32.77239990234375 L 32.15138626098633 34.17101669311523 M 32.1188850402832 35.17112350463867 L 11.55216503143311 33.77009201049805 C 8.271345138549805 33.77009201049805 5.611714839935303 31.11041259765625 5.611714839935303 27.82958221435547 L 5.611714839935303 21.72504234313965 C 3.346174955368042 20.52330207824707 0.004715029150247574 18.48862266540527 5.029296971770236e-06 16.93954086303711 C -0.004704970866441727 15.38963222503662 3.34297513961792 13.20143222808838 5.611714839935303 11.89670181274414 L 5.611714839935303 6.481031894683838 C 5.611714839935303 3.200201749801636 8.271345138549805 0.5405617356300354 11.55216503143311 0.5405617356300354 L 34.31951522827148 1.752319349179743e-06 C 37.60038375854492 1.752319349179743e-06 40.26001358032227 2.659641742706299 40.26001358032227 5.9404616355896 L 38.05933380126953 29.23071098327637 C 38.05933380126953 32.51148223876953 35.39970397949219 35.17112350463867 32.1188850402832 35.17112350463867 Z"/></g><g transform="translate(7.526 8.889)"><path class="c" d="M847.688,613.166l2.221,4.5a1.132,1.132,0,0,0,.853.62l4.967.722a1.133,1.133,0,0,1,.628,1.933l-3.594,3.5a1.134,1.134,0,0,0-.326,1l.849,4.946a1.133,1.133,0,0,1-1.644,1.195l-4.442-2.336a1.133,1.133,0,0,0-1.055,0l-4.443,2.336a1.133,1.133,0,0,1-1.644-1.195l.848-4.946a1.135,1.135,0,0,0-.326-1l-3.594-3.5a1.133,1.133,0,0,1,.628-1.933l4.967-.722a1.132,1.132,0,0,0,.853-.62l2.221-4.5A1.133,1.133,0,0,1,847.688,613.166Z" transform="translate(-836.644 -612.534)"/><path class="d" d="M839.355,629.82h.318a2.117,2.117,0,0,1,2.115-2.115v-.318A2.437,2.437,0,0,0,839.355,629.82Zm0,0h.318a2.117,2.117,0,0,1,2.115-2.115v-.318A2.437,2.437,0,0,0,839.355,629.82Zm0,0h.318a2.117,2.117,0,0,1,2.115-2.115v-.318A2.437,2.437,0,0,0,839.355,629.82Zm14.861-.229a.3.3,0,0,0-.209-.086h-.539a3.343,3.343,0,0,0-6.58-.46,1.237,1.237,0,0,0-1.746-.091,1.3,1.3,0,0,0-.1.1,3.343,3.343,0,0,0-6.581.45h-.539a.295.295,0,0,0,0,.589h.535a3.342,3.342,0,0,0,6.667-.116s.088-.864.844-.864c.784,0,.833.864.833.864a3.342,3.342,0,0,0,6.667.116H854a.295.295,0,0,0,.209-.5Zm-12.429,3.134a2.9,2.9,0,0,1-2.9-2.9V629.8a2.9,2.9,0,1,1,2.9,2.927Zm11.254-2.9a2.9,2.9,0,0,1-5.8.158c0-.052,0-.105,0-.158v-.016a2.9,2.9,0,1,1,5.8-.008Z" transform="translate(-835.933 -624.3)"/><g class="e" transform="translate(0)"><path class="d" d="M839.346,629.8h.317a2.105,2.105,0,0,1,2.1-2.1v-.317A2.423,2.423,0,0,0,839.346,629.8Zm0,0h.317a2.105,2.105,0,0,1,2.1-2.1v-.317A2.423,2.423,0,0,0,839.346,629.8Zm0,0h.317a2.105,2.105,0,0,1,2.1-2.1v-.317A2.423,2.423,0,0,0,839.346,629.8Zm14.777-.228a.293.293,0,0,0-.207-.085h-.536a3.324,3.324,0,0,0-6.543-.457,1.23,1.23,0,0,0-1.737-.091,1.262,1.262,0,0,0-.1.1,3.324,3.324,0,0,0-6.544.448h-.536a.293.293,0,0,0,0,.586h.532a3.323,3.323,0,0,0,6.63-.116s.087-.859.839-.859c.78,0,.828.859.828.859a3.323,3.323,0,0,0,6.63.116h.532a.293.293,0,0,0,.207-.5Zm-12.358,3.116a2.888,2.888,0,0,1-2.886-2.887v-.024a2.886,2.886,0,1,1,2.886,2.91Zm11.191-2.887a2.886,2.886,0,0,1-5.769.157c0-.052,0-.1,0-.157v-.016a2.886,2.886,0,1,1,5.772-.008Z" transform="translate(-835.906 -624.288)"/></g></g></g><rect class="f" width="48" height="48" transform="translate(21 853)"/></g></svg>