<svg xmlns="http://www.w3.org/2000/svg" xmlns:xlink="http://www.w3.org/1999/xlink" width="173" height="48" viewBox="0 0 173 48"><defs><style>.a{fill:url(#a);}.b{fill:url(#b);}.c{stroke:#fff;stroke-width:0.5px;fill:url(#c);}.d,.h{fill:#fff;}.e{clip-path:url(#d);}.f{fill:rgba(255,255,255,0);}.g,.h{stroke:none;}</style><linearGradient id="a" x1="0.5" x2="0.5" y2="1" gradientUnits="objectBoundingBox"><stop offset="0" stop-color="#eb6f6b"/><stop offset="1" stop-color="#ee4d5f"/></linearGradient><linearGradient id="b" x1="0.5" y1="-0.615" x2="0.5" y2="1.885" gradientUnits="objectBoundingBox"><stop offset="0" stop-color="#4e024e"/><stop offset="1" stop-color="#d31b5c"/></linearGradient><linearGradient id="c" x1="0.5" x2="0.5" y2="1" gradientUnits="objectBoundingBox"><stop offset="0" stop-color="#f07165"/><stop offset="0.659" stop-color="#faa460"/><stop offset="1" stop-color="#ffba5e"/></linearGradient><clipPath id="d"><path class="a" d="M847.688,613.166l2.221,4.5a1.132,1.132,0,0,0,.853.62l4.967.722a1.133,1.133,0,0,1,.628,1.933l-3.594,3.5a1.134,1.134,0,0,0-.326,1l.849,4.946a1.133,1.133,0,0,1-1.644,1.195l-4.442-2.336a1.133,1.133,0,0,0-1.055,0l-4.443,2.336a1.133,1.133,0,0,1-1.644-1.195l.848-4.946a1.135,1.135,0,0,0-.326-1l-3.594-3.5a1.133,1.133,0,0,1,.628-1.933l4.967-.722a1.132,1.132,0,0,0,.853-.62l2.221-4.5A1.133,1.133,0,0,1,847.688,613.166Z" transform="translate(-836.644 -612.534)"/></clipPath></defs><g transform="translate(-198 -822)"><g transform="translate(155.832 -628.638)"><g transform="translate(83.475 1465.407)"><path d="M1123.137,882.869v4.088h3.969v3.065h-4v6.219a1.786,1.786,0,0,0,1.868,2.042,4.068,4.068,0,0,0,1.723-.438l.992,3.037a7.958,7.958,0,0,1-2.948.613c-3.124.116-5.168-1.665-5.168-5.255v-6.219h-2.686v-3.065h2.686v-3.709Z" transform="translate(-1116.889 -880.79)"/><path d="M1138.557,886.124h3.415v14.393h-3.356l-.175-2.1c-.818,1.694-3.066,2.511-4.671,2.54-4.263.029-7.416-2.6-7.416-7.648,0-4.964,3.3-7.562,7.5-7.532a5.286,5.286,0,0,1,4.584,2.335Zm-8.642,7.183a4.123,4.123,0,0,0,4.263,4.379c5.606,0,5.606-8.729,0-8.729a4.1,4.1,0,0,0-4.263,4.35" transform="translate(-1114.267 -879.986)"/><path d="M1140.945,906.524V886.118h3.328l.232,1.984a5.72,5.72,0,0,1,4.671-2.306,7.2,7.2,0,0,1,7.387,7.532c0,4.2-2.657,7.531-7.269,7.531-1.518,0-3.766-.466-4.789-2.043v7.707Zm12.057-13.2a4.087,4.087,0,0,0-8.174,0,4.087,4.087,0,1,0,8.174,0" transform="translate(-1110.231 -879.979)"/><rect width="3.534" height="20.407" transform="translate(48.959 0.124)"/><path d="M1164.405,883.32a2.1,2.1,0,0,1-4.2,0,2.1,2.1,0,0,1,4.2,0m-3.882,18.452h3.56V887.321h-3.56Z" transform="translate(-1104.905 -881.24)"/><path d="M1176.373,900.491v-7.532c0-2.19-1.2-3.853-3.475-3.853a3.786,3.786,0,0,0-3.678,4.029v7.356h-3.533V886.069h3.181l.235,1.956a6.493,6.493,0,0,1,4.73-2.16c3.386,0,6.1,2.54,6.1,7.065v7.562Z" transform="translate(-1103.385 -879.96)"/><path d="M1190.7,884.9l2.629,1.985-1.606,2.044a6.137,6.137,0,0,1,1.518,4.262,5.712,5.712,0,0,1-3.036,5.372,4.842,4.842,0,0,1,2.978,4.758c0,3.971-3.037,6.423-7.212,6.423s-7.3-2.539-7.3-6.423h3.534c0,1.869,1.723,3.095,3.766,3.095s3.65-1.109,3.65-3.095-1.869-2.89-3.65-2.89c-4.5,0-7.3-2.745-7.3-7.24a7.021,7.021,0,0,1,7.3-7.3,5.731,5.731,0,0,1,3.3.817Zm-8.495,8.291a3.759,3.759,0,1,0,7.5,0,3.763,3.763,0,1,0-7.5,0" transform="translate(-1099.791 -880.225)"/><path d="M1195.5,886.048v7.532c0,2.189,1.2,3.854,3.474,3.854a3.787,3.787,0,0,0,3.68-4.029v-7.357h3.532V900.47h-3.183l-.234-1.956a6.415,6.415,0,0,1-4.875,2.16c-3.444,0-5.956-2.6-5.956-7.065v-7.562Z" transform="translate(-1096.123 -879.91)"/><path d="M1217.159,886.124h3.414v14.393h-3.356l-.175-2.1c-.818,1.694-3.067,2.511-4.67,2.54-4.263.029-7.416-2.6-7.416-7.648,0-4.964,3.3-7.562,7.5-7.532a5.285,5.285,0,0,1,4.583,2.335Zm-8.643,7.183a4.124,4.124,0,0,0,4.264,4.379c5.6,0,5.6-8.729,0-8.729a4.1,4.1,0,0,0-4.264,4.35" transform="translate(-1092.524 -879.986)"/></g><g transform="translate(45.168 1454.638)"><g class="b" transform="translate(0 40.26) rotate(-90)"><path class="g" d="M 32.13546752929688 34.67109680175781 L 11.58614540100098 33.2712516784668 L 11.56917476654053 33.27009201049805 L 11.55216503143311 33.27009201049805 C 8.552294731140137 33.27009201049805 6.111714839935303 30.82949256896973 6.111714839935303 27.82958221435547 L 6.111714839935303 21.72504234313965 L 6.111714839935303 21.42427253723145 L 5.846014976501465 21.2833309173584 C 0.8897850513458252 18.65434265136719 0.5010850429534912 17.29272270202637 0.5000050067901611 16.93802261352539 C 0.4989150166511536 16.5809326171875 0.8823050260543823 15.19332218170166 5.86097526550293 12.3301420211792 L 6.111714839935303 12.18594169616699 L 6.111714839935303 11.89670181274414 L 6.111714839935303 6.481031894683838 C 6.111714839935303 3.481141805648804 8.552294731140137 1.04056179523468 11.55216503143311 1.04056179523468 L 11.55809497833252 1.04056179523468 L 11.56403541564941 1.040421724319458 L 34.32534027099609 0.5000052452087402 C 37.31478881835938 0.5032709240913391 39.74750518798828 2.930123090744019 39.75996780395508 5.917428016662598 L 37.56155395507812 29.18367195129395 L 37.55933380126953 29.2071418762207 L 37.55933380126953 29.23071098327637 C 37.55933380126953 32.22506713867188 35.12779235839844 34.66218185424805 32.13546752929688 34.67109680175781 Z"/><path class="h" d="M 32.15138626098633 34.17101669311523 C 34.86071014404297 34.15352630615234 37.05933380126953 31.94405364990234 37.05933380126953 29.23071098327637 L 37.05933380126953 29.18357086181641 L 37.06376647949219 29.13664245605469 L 39.25981140136719 5.895418167114258 C 39.23568344116211 3.195619583129883 37.03489685058594 1.00619113445282 34.33090591430664 1.000014901161194 L 11.57590484619141 1.540281772613525 L 11.56403541564941 1.54056179523468 L 11.55216503143311 1.54056179523468 C 8.827995300292969 1.54056179523468 6.611714839935303 3.756851673126221 6.611714839935303 6.481031894683838 L 6.611714839935303 11.89670181274414 L 6.611714839935303 12.47518157958984 L 6.110245227813721 12.76357173919678 C 4.679605007171631 13.58632183074951 3.459335088729858 14.395751953125 2.58136510848999 15.10435199737549 C 1.016414999961853 16.36741256713867 0.9999850392341614 16.93096160888672 1.000005006790161 16.93650245666504 C 1.001025080680847 17.273681640625 1.91570508480072 18.63254165649414 6.080315113067627 20.84163093566895 L 6.611714839935303 21.12351226806641 L 6.611714839935303 21.72504234313965 L 6.611714839935303 27.82958221435547 C 6.611714839935303 30.55379104614258 8.827995300292969 32.77009201049805 11.55216503143311 32.77009201049805 L 11.58618545532227 32.77009201049805 L 11.62012481689453 32.77239990234375 L 32.15138626098633 34.17101669311523 M 32.1188850402832 35.17112350463867 L 11.55216503143311 33.77009201049805 C 8.271345138549805 33.77009201049805 5.611714839935303 31.11041259765625 5.611714839935303 27.82958221435547 L 5.611714839935303 21.72504234313965 C 3.346174955368042 20.52330207824707 0.004715029150247574 18.48862266540527 5.029296971770236e-06 16.93954086303711 C -0.004704970866441727 15.38963222503662 3.34297513961792 13.20143222808838 5.611714839935303 11.89670181274414 L 5.611714839935303 6.481031894683838 C 5.611714839935303 3.200201749801636 8.271345138549805 0.5405617356300354 11.55216503143311 0.5405617356300354 L 34.31951522827148 1.752319349179743e-06 C 37.60038375854492 1.752319349179743e-06 40.26001358032227 2.659641742706299 40.26001358032227 5.9404616355896 L 38.05933380126953 29.23071098327637 C 38.05933380126953 32.51148223876953 35.39970397949219 35.17112350463867 32.1188850402832 35.17112350463867 Z"/></g><g transform="translate(7.526 8.889)"><path class="c" d="M847.688,613.166l2.221,4.5a1.132,1.132,0,0,0,.853.62l4.967.722a1.133,1.133,0,0,1,.628,1.933l-3.594,3.5a1.134,1.134,0,0,0-.326,1l.849,4.946a1.133,1.133,0,0,1-1.644,1.195l-4.442-2.336a1.133,1.133,0,0,0-1.055,0l-4.443,2.336a1.133,1.133,0,0,1-1.644-1.195l.848-4.946a1.135,1.135,0,0,0-.326-1l-3.594-3.5a1.133,1.133,0,0,1,.628-1.933l4.967-.722a1.132,1.132,0,0,0,.853-.62l2.221-4.5A1.133,1.133,0,0,1,847.688,613.166Z" transform="translate(-836.644 -612.534)"/><path class="d" d="M839.355,629.82h.318a2.117,2.117,0,0,1,2.115-2.115v-.318A2.437,2.437,0,0,0,839.355,629.82Zm0,0h.318a2.117,2.117,0,0,1,2.115-2.115v-.318A2.437,2.437,0,0,0,839.355,629.82Zm0,0h.318a2.117,2.117,0,0,1,2.115-2.115v-.318A2.437,2.437,0,0,0,839.355,629.82Zm14.861-.229a.3.3,0,0,0-.209-.086h-.539a3.343,3.343,0,0,0-6.58-.46,1.237,1.237,0,0,0-1.746-.091,1.3,1.3,0,0,0-.1.1,3.343,3.343,0,0,0-6.581.45h-.539a.295.295,0,0,0,0,.589h.535a3.342,3.342,0,0,0,6.667-.116s.088-.864.844-.864c.784,0,.833.864.833.864a3.342,3.342,0,0,0,6.667.116H854a.295.295,0,0,0,.209-.5Zm-12.429,3.134a2.9,2.9,0,0,1-2.9-2.9V629.8a2.9,2.9,0,1,1,2.9,2.927Zm11.254-2.9a2.9,2.9,0,0,1-5.8.158c0-.052,0-.105,0-.158v-.016a2.9,2.9,0,1,1,5.8-.008Z" transform="translate(-835.933 -624.3)"/><g class="e" transform="translate(0)"><path class="d" d="M839.346,629.8h.317a2.105,2.105,0,0,1,2.1-2.1v-.317A2.423,2.423,0,0,0,839.346,629.8Zm0,0h.317a2.105,2.105,0,0,1,2.1-2.1v-.317A2.423,2.423,0,0,0,839.346,629.8Zm0,0h.317a2.105,2.105,0,0,1,2.1-2.1v-.317A2.423,2.423,0,0,0,839.346,629.8Zm14.777-.228a.293.293,0,0,0-.207-.085h-.536a3.324,3.324,0,0,0-6.543-.457,1.23,1.23,0,0,0-1.737-.091,1.262,1.262,0,0,0-.1.1,3.324,3.324,0,0,0-6.544.448h-.536a.293.293,0,0,0,0,.586h.532a3.323,3.323,0,0,0,6.63-.116s.087-.859.839-.859c.78,0,.828.859.828.859a3.323,3.323,0,0,0,6.63.116h.532a.293.293,0,0,0,.207-.5Zm-12.358,3.116a2.888,2.888,0,0,1-2.886-2.887v-.024a2.886,2.886,0,1,1,2.886,2.91Zm11.191-2.887a2.886,2.886,0,0,1-5.769.157c0-.052,0-.1,0-.157v-.016a2.886,2.886,0,1,1,5.772-.008Z" transform="translate(-835.906 -624.288)"/></g></g></g></g><rect class="f" width="173" height="48" transform="translate(198 822)"/></g></svg>