<svg xmlns="http://www.w3.org/2000/svg" xmlns:xlink="http://www.w3.org/1999/xlink" width="215.775" height="47.336" viewBox="0 0 215.775 47.336"><defs><style>.a{fill:url(#a);}.b{fill:url(#b);}.c{fill:#fff;}</style><linearGradient id="a" x1="0.5" x2="0.5" y2="1.815" gradientUnits="objectBoundingBox"><stop offset="0" stop-color="#ff9795"/><stop offset="1" stop-color="#fcc384"/></linearGradient><linearGradient id="b" x1="0.5" x2="0.5" y2="1" gradientUnits="objectBoundingBox"><stop offset="0" stop-color="#ed5351"/><stop offset="1" stop-color="#ef9532"/></linearGradient></defs><g transform="translate(0 0)"><path d="M609.088,358.839v5.32h5.166v3.989h-5.2v8.093c0,1.786.987,2.658,2.431,2.658a5.3,5.3,0,0,0,2.243-.57l1.291,3.953a10.354,10.354,0,0,1-3.837.8c-4.066.151-6.726-2.167-6.726-6.839v-8.093h-3.5v-3.989h3.5v-4.827Z" transform="translate(-551.832 -347.22)"/><path d="M609.088,358.839v5.32h5.166v3.989h-5.2v8.093c0,1.786.987,2.658,2.431,2.658a5.3,5.3,0,0,0,2.243-.57l1.291,3.953a10.354,10.354,0,0,1-3.837.8c-4.066.151-6.726-2.167-6.726-6.839v-8.093h-3.5v-3.989h3.5v-4.827Z" transform="translate(-551.832 -347.22)"/><path d="M626.3,362.2h4.445v18.732h-4.368l-.227-2.737c-1.065,2.2-3.991,3.268-6.08,3.307-5.548.038-9.652-3.381-9.652-9.954,0-6.46,4.293-9.841,9.765-9.8a6.88,6.88,0,0,1,5.967,3.039Zm-11.247,9.348a5.367,5.367,0,0,0,5.548,5.7c7.3,0,7.3-11.36,0-11.36a5.334,5.334,0,0,0-5.548,5.661" transform="translate(-545.57 -345.299)"/><path d="M626.3,362.2h4.445v18.732h-4.368l-.227-2.737c-1.065,2.2-3.991,3.268-6.08,3.307-5.548.038-9.652-3.381-9.652-9.954,0-6.46,4.293-9.841,9.765-9.8a6.88,6.88,0,0,1,5.967,3.039Zm-11.247,9.348a5.367,5.367,0,0,0,5.548,5.7c7.3,0,7.3-11.36,0-11.36a5.334,5.334,0,0,0-5.548,5.661" transform="translate(-545.57 -345.299)"/><path d="M625.014,388.744V362.186h4.33l.3,2.582a7.447,7.447,0,0,1,6.081-3c5.774,0,9.612,4.295,9.612,9.8,0,5.471-3.456,9.8-9.461,9.8-1.974,0-4.9-.606-6.232-2.659v10.031Zm15.692-17.174a5.319,5.319,0,0,0-10.639,0,5.319,5.319,0,1,0,10.639,0" transform="translate(-535.917 -345.283)"/><path d="M625.014,388.744V362.186h4.33l.3,2.582a7.447,7.447,0,0,1,6.081-3c5.774,0,9.612,4.295,9.612,9.8,0,5.471-3.456,9.8-9.461,9.8-1.974,0-4.9-.606-6.232-2.659v10.031Zm15.692-17.174a5.319,5.319,0,0,0-10.639,0,5.319,5.319,0,1,0,10.639,0" transform="translate(-535.917 -345.283)"/><rect width="4.599" height="26.56" transform="translate(112.843 9.073)"/><rect width="4.599" height="26.56" transform="translate(112.843 9.073)"/><path d="M649.741,359.917c0,3.611-5.472,3.611-5.472,0s5.472-3.609,5.472,0m-5.053,24.014h4.634V365.124h-4.634Z" transform="translate(-523.179 -348.298)"/><path d="M649.741,359.917c0,3.611-5.472,3.611-5.472,0s5.472-3.609,5.472,0m-5.053,24.014h4.634V365.124h-4.634Z" transform="translate(-523.179 -348.298)"/><path d="M663.664,380.871v-9.8c0-2.85-1.559-5.015-4.523-5.015-2.85,0-4.787,2.393-4.787,5.244v9.574h-4.6V362.1H653.9l.306,2.546a8.451,8.451,0,0,1,6.156-2.811c4.406,0,7.939,3.306,7.939,9.2v9.841Z" transform="translate(-519.548 -345.238)"/><path d="M663.664,380.871v-9.8c0-2.85-1.559-5.015-4.523-5.015-2.85,0-4.787,2.393-4.787,5.244v9.574h-4.6V362.1H653.9l.306,2.546a8.451,8.451,0,0,1,6.156-2.811c4.406,0,7.939,3.306,7.939,9.2v9.841Z" transform="translate(-519.548 -345.238)"/><path d="M678.4,360.875l3.421,2.584-2.09,2.66a7.988,7.988,0,0,1,1.976,5.546c0,2.318-.874,5.586-3.951,6.992a6.3,6.3,0,0,1,3.877,6.193c0,5.168-3.953,8.359-9.386,8.359s-9.5-3.3-9.5-8.359h4.6c0,2.433,2.243,4.028,4.9,4.028S677,387.433,677,384.849s-2.433-3.762-4.751-3.762c-5.852,0-9.5-3.572-9.5-9.423a9.137,9.137,0,0,1,9.5-9.5,7.46,7.46,0,0,1,4.293,1.063Zm-11.056,10.79a4.893,4.893,0,1,0,9.765,0c0-3.23-2.2-5.282-4.864-5.282-2.7,0-4.9,2.014-4.9,5.282" transform="translate(-510.955 -345.873)"/><path d="M678.4,360.875l3.421,2.584-2.09,2.66a7.988,7.988,0,0,1,1.976,5.546c0,2.318-.874,5.586-3.951,6.992a6.3,6.3,0,0,1,3.877,6.193c0,5.168-3.953,8.359-9.386,8.359s-9.5-3.3-9.5-8.359h4.6c0,2.433,2.243,4.028,4.9,4.028S677,387.433,677,384.849s-2.433-3.762-4.751-3.762c-5.852,0-9.5-3.572-9.5-9.423a9.137,9.137,0,0,1,9.5-9.5,7.46,7.46,0,0,1,4.293,1.063Zm-11.056,10.79a4.893,4.893,0,1,0,9.765,0c0-3.23-2.2-5.282-4.864-5.282-2.7,0-4.9,2.014-4.9,5.282" transform="translate(-510.955 -345.873)"/><path d="M680.646,362.018v9.8c0,2.849,1.557,5.016,4.521,5.016,2.851,0,4.789-2.394,4.789-5.244v-9.576h4.6v18.771H690.41l-.3-2.546a8.35,8.35,0,0,1-6.346,2.811c-4.483,0-7.751-3.383-7.751-9.2v-9.841Z" transform="translate(-502.18 -345.117)"/><path d="M680.646,362.018v9.8c0,2.849,1.557,5.016,4.521,5.016,2.851,0,4.789-2.394,4.789-5.244v-9.576h4.6v18.771H690.41l-.3-2.546a8.35,8.35,0,0,1-6.346,2.811c-4.483,0-7.751-3.383-7.751-9.2v-9.841Z" transform="translate(-502.18 -345.117)"/><path d="M704.9,362.2h4.443v18.732h-4.368l-.228-2.737c-1.065,2.2-3.991,3.268-6.078,3.307-5.548.038-9.652-3.381-9.652-9.954,0-6.46,4.294-9.841,9.765-9.8a6.879,6.879,0,0,1,5.965,3.039Zm-11.249,9.348a5.367,5.367,0,0,0,5.549,5.7c7.294,0,7.294-11.36,0-11.36a5.334,5.334,0,0,0-5.549,5.661" transform="translate(-493.572 -345.299)"/><path d="M704.9,362.2h4.443v18.732h-4.368l-.228-2.737c-1.065,2.2-3.991,3.268-6.078,3.307-5.548.038-9.652-3.381-9.652-9.954,0-6.46,4.294-9.841,9.765-9.8a6.879,6.879,0,0,1,5.965,3.039Zm-11.249,9.348a5.367,5.367,0,0,0,5.549,5.7c7.294,0,7.294-11.36,0-11.36a5.334,5.334,0,0,0-5.549,5.661" transform="translate(-493.572 -345.299)"/><rect class="a" width="21.05" height="16.943" rx="5" transform="translate(0.963 19.667)"/><rect class="b" width="31.318" height="22.077" rx="6" transform="translate(12.772 1.698)"/><rect class="b" width="31.318" height="22.077" rx="2" transform="translate(12.772 1.698)"/><rect class="a" width="21.05" height="16.943" rx="2" transform="translate(0.963 19.667)"/><path class="b" d="M612.5,373.522a1.313,1.313,0,0,1-.931-.385l-7.349-7.351h-4.284a1.314,1.314,0,1,1,0-2.629h4.828a1.314,1.314,0,0,1,.929.386l5.491,5.491v-4.562a1.315,1.315,0,0,1,1.317-1.314h2.93a1.54,1.54,0,0,0,1.538-1.54v-16.1a1.54,1.54,0,0,0-1.538-1.538H589.715a1.54,1.54,0,0,0-1.538,1.538v12.958a1.314,1.314,0,0,1-2.629,0V345.515a4.172,4.172,0,0,1,4.167-4.169h25.713a4.174,4.174,0,0,1,4.169,4.169v16.1a4.174,4.174,0,0,1-4.169,4.169h-1.615v6.422a1.314,1.314,0,0,1-1.314,1.314" transform="translate(-574.246 -341.346)"/><path class="b" d="M612.5,373.522a1.313,1.313,0,0,1-.931-.385l-7.349-7.351h-4.284a1.314,1.314,0,1,1,0-2.629h4.828a1.314,1.314,0,0,1,.929.386l5.491,5.491v-4.562a1.315,1.315,0,0,1,1.317-1.314h2.93a1.54,1.54,0,0,0,1.538-1.54v-16.1a1.54,1.54,0,0,0-1.538-1.538H589.715a1.54,1.54,0,0,0-1.538,1.538v12.958a1.314,1.314,0,0,1-2.629,0V345.515a4.172,4.172,0,0,1,4.167-4.169h25.713a4.174,4.174,0,0,1,4.169,4.169v16.1a4.174,4.174,0,0,1-4.169,4.169h-1.615v6.422a1.314,1.314,0,0,1-1.314,1.314" transform="translate(-574.246 -341.346)"/><path class="a" d="M586.044,375.466a1.315,1.315,0,0,1-1.315-1.314v-5.071h-1.376a3.675,3.675,0,0,1-3.67-3.67V355.223a3.674,3.674,0,0,1,3.67-3.67H599.17a3.675,3.675,0,0,1,3.67,3.67v10.188a3.676,3.676,0,0,1-3.67,3.67h-6.195l-6,6a1.306,1.306,0,0,1-.929.385m-2.69-21.284a1.043,1.043,0,0,0-1.041,1.041v10.188a1.042,1.042,0,0,0,1.041,1.039h2.69a1.316,1.316,0,0,1,1.316,1.314v3.213l4.14-4.142a1.316,1.316,0,0,1,.929-.385h6.74a1.04,1.04,0,0,0,1.039-1.039V355.223a1.041,1.041,0,0,0-1.039-1.041Z" transform="translate(-579.684 -331.88)"/><path class="a" d="M586.044,375.466a1.315,1.315,0,0,1-1.315-1.314v-5.071h-1.376a3.675,3.675,0,0,1-3.67-3.67V355.223a3.674,3.674,0,0,1,3.67-3.67H599.17a3.675,3.675,0,0,1,3.67,3.67v10.188a3.676,3.676,0,0,1-3.67,3.67h-6.195l-6,6a1.306,1.306,0,0,1-.929.385m-2.69-21.284a1.043,1.043,0,0,0-1.041,1.041v10.188a1.042,1.042,0,0,0,1.041,1.039h2.69a1.316,1.316,0,0,1,1.316,1.314v3.213l4.14-4.142a1.316,1.316,0,0,1,.929-.385h6.74a1.04,1.04,0,0,0,1.039-1.039V355.223a1.041,1.041,0,0,0-1.039-1.041Z" transform="translate(-579.684 -331.88)"/><path class="c" d="M585.392,363.518a.819.819,0,0,1-.8-1l.619-2.69-2.072-1.866a.822.822,0,0,1,.424-1.422l2.762-.424,1.264-2.319a.821.821,0,0,1,1.444,0l1.264,2.319,2.76.424a.822.822,0,0,1,.424,1.422l-2.078,1.87.584,2.7a.821.821,0,0,1-1.176.906l-2.5-1.272-2.548,1.276a.823.823,0,0,1-.368.085m.135-5.622,1.145,1.029a.823.823,0,0,1,.251.8l-.337,1.461,1.357-.679a.82.82,0,0,1,.74,0l1.334.677-.32-1.473a.826.826,0,0,1,.253-.785l1.145-1.029-1.448-.224a.819.819,0,0,1-.6-.418l-.738-1.353-.738,1.353a.815.815,0,0,1-.6.418Z" transform="translate(-576.732 -330.203)"/><path class="c" d="M585.392,363.518a.819.819,0,0,1-.8-1l.619-2.69-2.072-1.866a.822.822,0,0,1,.424-1.422l2.762-.424,1.264-2.319a.821.821,0,0,1,1.444,0l1.264,2.319,2.76.424a.822.822,0,0,1,.424,1.422l-2.078,1.87.584,2.7a.821.821,0,0,1-1.176.906l-2.5-1.272-2.548,1.276a.823.823,0,0,1-.368.085m.135-5.622,1.145,1.029a.823.823,0,0,1,.251.8l-.337,1.461,1.357-.679a.82.82,0,0,1,.74,0l1.334.677-.32-1.473a.826.826,0,0,1,.253-.785l1.145-1.029-1.448-.224a.819.819,0,0,1-.6-.418l-.738-1.353-.738,1.353a.815.815,0,0,1-.6.418Z" transform="translate(-576.732 -330.203)"/><path class="c" d="M593.912,357.683a1.312,1.312,0,0,1-1.042-.513l-4.021-5.227a1.315,1.315,0,0,1,2.084-1.6l3.246,4.219L608.7,344.165a1.314,1.314,0,0,1,1.53,2.138l-15.558,11.136a1.316,1.316,0,0,1-.763.245" transform="translate(-571.438 -338.961)"/><path class="c" d="M593.912,357.683a1.312,1.312,0,0,1-1.042-.513l-4.021-5.227a1.315,1.315,0,0,1,2.084-1.6l3.246,4.219L608.7,344.165a1.314,1.314,0,0,1,1.53,2.138l-15.558,11.136a1.316,1.316,0,0,1-.763.245" transform="translate(-571.438 -338.961)"/><path class="a" d="M2.054,0,4.107,6.674H0Z" transform="translate(8.805 41.757) rotate(-158)"/><path class="a" d="M2.054,0,4.107,6.674H0Z" transform="translate(8.805 41.757) rotate(-158)"/><path class="b" d="M2.054,0,4.107,7.188H0Z" transform="matrix(-0.891, 0.454, -0.454, -0.891, 39.734, 28.126)"/><path class="b" d="M2.054,0,4.107,7.188H0Z" transform="matrix(-0.891, 0.454, -0.454, -0.891, 39.734, 28.126)"/></g></svg>