<svg xmlns="http://www.w3.org/2000/svg" viewBox="0 0 170.96 159.93"><defs>
	<style>.Rectangle_277 {
		position: absolute;
		overflow: visible;
		width: 15.483px;
		height: 12.462px;
		left: 0.709px;
		top: 14.467px;
	}
	.Rectangle_279 {
		position: absolute;
		overflow: visible;
		width: 23.036px;
		height: 16.239px;
		left: 9.395px;
		top: 1.249px;
	}
	.Rectangle_280 {
		position: absolute;
		overflow: visible;
		width: 23.036px;
		height: 16.239px;
		left: 9.395px;
		top: 1.249px;
	}
	.Rectangle_278 {
		position: absolute;
		overflow: visible;
		width: 15.483px;
		height: 12.462px;
		left: 0.709px;
		top: 14.467px;
	}
	.Path_657 {
		overflow: visible;
		position: absolute;
		top: 0px;
		left: 8.313px;
		width: 25.045px;
		height: 23.667px;
		transform: matrix(1,0,0,1,0,0);
	}
	.Path_658 {
		overflow: visible;
		position: absolute;
		top: 0px;
		left: 8.313px;
		width: 25.045px;
		height: 23.667px;
		transform: matrix(1,0,0,1,0,0);
	}
	.Path_659 {
		overflow: visible;
		position: absolute;
		top: 14.47px;
		left: 0px;
		width: 17.032px;
		height: 17.59px;
		transform: matrix(1,0,0,1,0,0);
	}
	.Path_660 {
		overflow: visible;
		position: absolute;
		top: 14.47px;
		left: 0px;
		width: 17.032px;
		height: 17.59px;
		transform: matrix(1,0,0,1,0,0);
	}
	.Path_661 {
		overflow: visible;
		position: absolute;
		top: 17.035px;
		left: 4.513px;
		width: 8.007px;
		height: 7.471px;
		transform: matrix(1,0,0,1,0,0);
	}
	.Path_662 {
		overflow: visible;
		position: absolute;
		top: 17.035px;
		left: 4.513px;
		width: 8.007px;
		height: 7.471px;
		transform: matrix(1,0,0,1,0,0);
	}
	.Path_663 {
		overflow: visible;
		position: absolute;
		top: 3.646px;
		left: 12.607px;
		width: 16.334px;
		height: 10.125px;
		transform: matrix(1,0,0,1,0,0);
	}
	.Path_664 {
		overflow: visible;
		position: absolute;
		top: 3.646px;
		left: 12.607px;
		width: 16.334px;
		height: 10.125px;
		transform: matrix(1,0,0,1,0,0);
	}
	.Polygon_64 {
		overflow: visible;
		position: absolute;
		top: 25.031px;
		left: 3.676px;
		width: 4.64px;
		height: 5.684px;
		transform: rotate(202deg);
	}
	.Polygon_65 {
		overflow: visible;
		position: absolute;
		top: 25.031px;
		left: 3.676px;
		width: 4.64px;
		height: 5.684px;
		transform: rotate(202deg);
	}
	.Polygon_66 {
		overflow: visible;
		position: absolute;
		top: 15.978px;
		left: 24.134px;
		width: 5.092px;
		height: 6.083px;
		transform: rotate(153deg);
	}
	.Polygon_67 {
		overflow: visible;
		position: absolute;
		top: 15.978px;
		left: 24.134px;
		width: 5.092px;
		height: 6.083px;
		transform: rotate(153deg);
	}</style></defs>
<svg class="Rectangle_277">
					<linearGradient id="LinearGradientFill5" spreadMethod="pad" x1="0.5" x2="0.5" y1="0" y2="1.815">
						<stop offset="0" stop-color="#ff9795" stop-opacity="1"></stop>
						<stop offset="1" stop-color="#fcc384" stop-opacity="1"></stop>
					</linearGradient>
					<rect fill="url(#LinearGradientFill5)" id="Rectangle_277" rx="5" ry="5" x="0" y="0" width="15.483" height="12.462">
					</rect>
				</svg>
				<svg class="Rectangle_279">
					<linearGradient id="LinearGradientFill6" spreadMethod="pad" x1="0.5" x2="0.5" y1="0" y2="1">
						<stop offset="0" stop-color="#ed5351" stop-opacity="1"></stop>
						<stop offset="1" stop-color="#ef9532" stop-opacity="1"></stop>
					</linearGradient>
					<rect fill="url(#LinearGradientFill6)" id="Rectangle_279" rx="6" ry="6" x="0" y="0" width="23.036" height="16.239">
					</rect>
				</svg>
				<svg class="Rectangle_280">
					<linearGradient id="LinearGradientFill7" spreadMethod="pad" x1="0.5" x2="0.5" y1="0" y2="1">
						<stop offset="0" stop-color="#ed5351" stop-opacity="1"></stop>
						<stop offset="1" stop-color="#ef9532" stop-opacity="1"></stop>
					</linearGradient>
					<rect fill="url(#LinearGradientFill7)" id="Rectangle_280" rx="2" ry="2" x="0" y="0" width="23.036" height="16.239">
					</rect>
				</svg>
				<svg class="Rectangle_278">
					<linearGradient id="LinearGradientFill8" spreadMethod="pad" x1="0.5" x2="0.5" y1="0" y2="1.815">
						<stop offset="0" stop-color="#ff9795" stop-opacity="1"></stop>
						<stop offset="1" stop-color="#fcc384" stop-opacity="1"></stop>
					</linearGradient>
					<rect fill="url(#LinearGradientFill8)" id="Rectangle_278" rx="2" ry="2" x="0" y="0" width="15.483" height="12.462">
					</rect>
				</svg>
				<svg class="Path_657" viewBox="585.548 341.346 25.045 23.667">
					<linearGradient id="LinearGradientFill9" spreadMethod="pad" x1="0.5" x2="0.5" y1="0" y2="1">
						<stop offset="0" stop-color="#ed5351" stop-opacity="1"></stop>
						<stop offset="1" stop-color="#ef9532" stop-opacity="1"></stop>
					</linearGradient>
					<path fill="url(#LinearGradientFill9)" id="Path_657" d="M 605.37158203125 365.0130615234375 C 605.1192626953125 365.0130615234375 604.87255859375 364.915283203125 604.6868286132812 364.7294616699219 L 599.2810668945312 359.3224487304688 L 596.129638671875 359.3224487304688 C 595.5951538085938 359.3224487304688 595.1627197265625 358.8899841308594 595.1627197265625 358.3555603027344 C 595.1627197265625 357.8210754394531 595.5951538085938 357.388671875 596.129638671875 357.388671875 L 599.6810302734375 357.388671875 C 599.9375610351562 357.388671875 600.1827392578125 357.4908142089844 600.3643798828125 357.6722717285156 L 604.4031982421875 361.7112731933594 L 604.4031982421875 358.3555603027344 C 604.4031982421875 357.8210754394531 604.8370361328125 357.388671875 605.37158203125 357.388671875 L 607.5264282226562 357.388671875 C 608.1502685546875 357.388671875 608.6578369140625 356.8811340332031 608.6578369140625 356.2559509277344 L 608.6578369140625 344.4125671386719 C 608.6578369140625 343.7887268066406 608.1502685546875 343.2811279296875 607.5264282226562 343.2811279296875 L 588.6129760742188 343.2811279296875 C 587.9891967773438 343.2811279296875 587.4816284179688 343.7887268066406 587.4816284179688 344.4125671386719 L 587.4816284179688 353.9436645507812 C 587.4816284179688 354.4782104492188 587.0492553710938 354.9105529785156 586.5147094726562 354.9105529785156 C 585.9802856445312 354.9105529785156 585.5479125976562 354.4782104492188 585.5479125976562 353.9436645507812 L 585.5479125976562 344.4125671386719 C 585.5479125976562 342.7212219238281 586.9229736328125 341.3460693359375 588.6129760742188 341.3460693359375 L 607.5264282226562 341.3460693359375 C 609.21630859375 341.3460693359375 610.5929565429688 342.7212219238281 610.5929565429688 344.4125671386719 L 610.5929565429688 356.2559509277344 C 610.5929565429688 357.9472961425781 609.21630859375 359.3224487304688 607.5264282226562 359.3224487304688 L 606.3385009765625 359.3224487304688 L 606.3385009765625 364.0462341308594 C 606.3385009765625 364.4375305175781 606.10302734375 364.7890625 605.7416381835938 364.9394226074219 C 605.6209106445312 364.9889831542969 605.4963989257812 365.0130615234375 605.37158203125 365.0130615234375">
					</path>
				</svg>
				<svg class="Path_658" viewBox="585.548 341.346 25.045 23.667">
					<linearGradient id="LinearGradientFill10" spreadMethod="pad" x1="0.5" x2="0.5" y1="0" y2="1">
						<stop offset="0" stop-color="#ed5351" stop-opacity="1"></stop>
						<stop offset="1" stop-color="#ef9532" stop-opacity="1"></stop>
					</linearGradient>
					<path fill="url(#LinearGradientFill10)" id="Path_658" d="M 605.37158203125 365.0130615234375 C 605.1192626953125 365.0130615234375 604.87255859375 364.915283203125 604.6868286132812 364.7294616699219 L 599.2810668945312 359.3224487304688 L 596.129638671875 359.3224487304688 C 595.5951538085938 359.3224487304688 595.1627197265625 358.8899841308594 595.1627197265625 358.3555603027344 C 595.1627197265625 357.8210754394531 595.5951538085938 357.388671875 596.129638671875 357.388671875 L 599.6810302734375 357.388671875 C 599.9375610351562 357.388671875 600.1827392578125 357.4908142089844 600.3643798828125 357.6722717285156 L 604.4031982421875 361.7112731933594 L 604.4031982421875 358.3555603027344 C 604.4031982421875 357.8210754394531 604.8370361328125 357.388671875 605.37158203125 357.388671875 L 607.5264282226562 357.388671875 C 608.1502685546875 357.388671875 608.6578369140625 356.8811340332031 608.6578369140625 356.2559509277344 L 608.6578369140625 344.4125671386719 C 608.6578369140625 343.7887268066406 608.1502685546875 343.2811279296875 607.5264282226562 343.2811279296875 L 588.6129760742188 343.2811279296875 C 587.9891967773438 343.2811279296875 587.4816284179688 343.7887268066406 587.4816284179688 344.4125671386719 L 587.4816284179688 353.9436645507812 C 587.4816284179688 354.4782104492188 587.0492553710938 354.9105529785156 586.5147094726562 354.9105529785156 C 585.9802856445312 354.9105529785156 585.5479125976562 354.4782104492188 585.5479125976562 353.9436645507812 L 585.5479125976562 344.4125671386719 C 585.5479125976562 342.7212219238281 586.9229736328125 341.3460693359375 588.6129760742188 341.3460693359375 L 607.5264282226562 341.3460693359375 C 609.21630859375 341.3460693359375 610.5929565429688 342.7212219238281 610.5929565429688 344.4125671386719 L 610.5929565429688 356.2559509277344 C 610.5929565429688 357.9472961425781 609.21630859375 359.3224487304688 607.5264282226562 359.3224487304688 L 606.3385009765625 359.3224487304688 L 606.3385009765625 364.0462341308594 C 606.3385009765625 364.4375305175781 606.10302734375 364.7890625 605.7416381835938 364.9394226074219 C 605.6209106445312 364.9889831542969 605.4963989257812 365.0130615234375 605.37158203125 365.0130615234375">
					</path>
				</svg>
				<svg class="Path_659" viewBox="579.684 351.553 17.032 17.589">
					<linearGradient id="LinearGradientFill11" spreadMethod="pad" x1="0.5" x2="0.5" y1="0" y2="1.815">
						<stop offset="0" stop-color="#ff9795" stop-opacity="1"></stop>
						<stop offset="1" stop-color="#fcc384" stop-opacity="1"></stop>
					</linearGradient>
					<path fill="url(#LinearGradientFill11)" id="Path_659" d="M 584.3623046875 369.142333984375 C 584.2374877929688 369.142333984375 584.1128540039062 369.1182861328125 583.9923095703125 369.0687255859375 C 583.6307983398438 368.9183349609375 583.3954467773438 368.5668029785156 583.3954467773438 368.1755981445312 L 583.3954467773438 364.4455871582031 L 582.38330078125 364.4455871582031 C 580.8947143554688 364.4455871582031 579.6839599609375 363.2333679199219 579.6839599609375 361.7463073730469 L 579.6839599609375 354.2523193359375 C 579.6839599609375 352.7637329101562 580.8947143554688 351.5530395507812 582.38330078125 351.5530395507812 L 594.016845703125 351.5530395507812 C 595.5040893554688 351.5530395507812 596.716064453125 352.7637329101562 596.716064453125 354.2523193359375 L 596.716064453125 361.7463073730469 C 596.716064453125 363.2333679199219 595.5040893554688 364.4455871582031 594.016845703125 364.4455871582031 L 589.4603271484375 364.4455871582031 L 585.045654296875 368.8588256835938 C 584.8612670898438 369.0445556640625 584.6146850585938 369.142333984375 584.3623046875 369.142333984375 M 582.38330078125 353.4867553710938 C 581.962158203125 353.4867553710938 581.61767578125 353.8298034667969 581.61767578125 354.2523193359375 L 581.61767578125 361.7463073730469 C 581.61767578125 362.1673278808594 581.962158203125 362.5104675292969 582.38330078125 362.5104675292969 L 584.3623046875 362.5104675292969 C 584.8968505859375 362.5104675292969 585.33056640625 362.9442138671875 585.33056640625 363.477294921875 L 585.33056640625 365.8405456542969 L 588.3758544921875 362.7939147949219 C 588.5572509765625 362.6123962402344 588.8038940429688 362.5104675292969 589.0591430664062 362.5104675292969 L 594.016845703125 362.5104675292969 C 594.4378662109375 362.5104675292969 594.7809448242188 362.1673278808594 594.7809448242188 361.7463073730469 L 594.7809448242188 354.2523193359375 C 594.7809448242188 353.8298034667969 594.4378662109375 353.4867553710938 594.016845703125 353.4867553710938 L 582.38330078125 353.4867553710938 Z">
					</path>
				</svg>
				<svg class="Path_660" viewBox="579.684 351.553 17.032 17.589">
					<linearGradient id="LinearGradientFill12" spreadMethod="pad" x1="0.5" x2="0.5" y1="0" y2="1.815">
						<stop offset="0" stop-color="#ff9795" stop-opacity="1"></stop>
						<stop offset="1" stop-color="#fcc384" stop-opacity="1"></stop>
					</linearGradient>
					<path fill="url(#LinearGradientFill12)" id="Path_660" d="M 584.3623046875 369.142333984375 C 584.2374877929688 369.142333984375 584.1128540039062 369.1182861328125 583.9923095703125 369.0687255859375 C 583.6307983398438 368.9183349609375 583.3954467773438 368.5668029785156 583.3954467773438 368.1755981445312 L 583.3954467773438 364.4455871582031 L 582.38330078125 364.4455871582031 C 580.8947143554688 364.4455871582031 579.6839599609375 363.2333679199219 579.6839599609375 361.7463073730469 L 579.6839599609375 354.2523193359375 C 579.6839599609375 352.7637329101562 580.8947143554688 351.5530395507812 582.38330078125 351.5530395507812 L 594.016845703125 351.5530395507812 C 595.5040893554688 351.5530395507812 596.716064453125 352.7637329101562 596.716064453125 354.2523193359375 L 596.716064453125 361.7463073730469 C 596.716064453125 363.2333679199219 595.5040893554688 364.4455871582031 594.016845703125 364.4455871582031 L 589.4603271484375 364.4455871582031 L 585.045654296875 368.8588256835938 C 584.8612670898438 369.0445556640625 584.6146850585938 369.142333984375 584.3623046875 369.142333984375 M 582.38330078125 353.4867553710938 C 581.962158203125 353.4867553710938 581.61767578125 353.8298034667969 581.61767578125 354.2523193359375 L 581.61767578125 361.7463073730469 C 581.61767578125 362.1673278808594 581.962158203125 362.5104675292969 582.38330078125 362.5104675292969 L 584.3623046875 362.5104675292969 C 584.8968505859375 362.5104675292969 585.33056640625 362.9442138671875 585.33056640625 363.477294921875 L 585.33056640625 365.8405456542969 L 588.3758544921875 362.7939147949219 C 588.5572509765625 362.6123962402344 588.8038940429688 362.5104675292969 589.0591430664062 362.5104675292969 L 594.016845703125 362.5104675292969 C 594.4378662109375 362.5104675292969 594.7809448242188 362.1673278808594 594.7809448242188 361.7463073730469 L 594.7809448242188 354.2523193359375 C 594.7809448242188 353.8298034667969 594.4378662109375 353.4867553710938 594.016845703125 353.4867553710938 L 582.38330078125 353.4867553710938 Z">
					</path>
				</svg>
				<svg class="Path_661" viewBox="582.867 353.362 8.007 7.471">
					<path fill="rgba(255,255,255,1)" id="Path_661" d="M 584.7239990234375 360.8319702148438 C 584.5908203125 360.8319702148438 584.458984375 360.7893371582031 584.349853515625 360.7028503417969 C 584.1669311523438 360.5581970214844 584.083251953125 360.320068359375 584.1356811523438 360.0932006835938 L 584.5908203125 358.1141967773438 L 583.0667114257812 356.7417602539062 C 582.893798828125 356.5858764648438 582.8258056640625 356.3434753417969 582.8924560546875 356.1194763183594 C 582.9590454101562 355.8968200683594 583.1489868164062 355.7309265136719 583.3787231445312 355.695556640625 L 585.4102172851562 355.3836669921875 L 586.3401489257812 353.6781616210938 C 586.4465942382812 353.4839782714844 586.650634765625 353.3619995117188 586.8704223632812 353.3619995117188 C 587.0917358398438 353.3619995117188 587.2957763671875 353.4839782714844 587.4020385742188 353.6781616210938 L 588.33203125 355.3836669921875 L 590.3621215820312 355.695556640625 C 590.5933837890625 355.7309265136719 590.7833251953125 355.8968200683594 590.8485717773438 356.1194763183594 C 590.9165649414062 356.3434753417969 590.8485717773438 356.5858764648438 590.6742553710938 356.7417602539062 L 589.1458129882812 358.116943359375 L 589.5753784179688 360.1002807617188 C 589.625 360.3285827636719 589.53857421875 360.5638732910156 589.3541870117188 360.7070617675781 C 589.1685791015625 360.8489379882812 588.9190673828125 360.8729553222656 588.7105102539062 360.7666625976562 L 586.8690185546875 359.8309326171875 L 584.9947509765625 360.7694702148438 C 584.9097290039062 360.8121032714844 584.8161010742188 360.8319702148438 584.7239990234375 360.8319702148438 M 584.8233642578125 356.6964416503906 L 585.6653442382812 357.4534301757812 C 585.828369140625 357.6009216308594 585.8993530273438 357.8249206542969 585.8496704101562 358.0390319824219 L 585.6015625 359.1136779785156 L 586.5996704101562 358.6145629882812 C 586.7726440429688 358.528076171875 586.973876953125 358.5295715332031 587.1439819335938 358.6160278320312 L 588.1250610351562 359.1136779785156 L 587.8897094726562 358.030517578125 C 587.8444213867188 357.8193054199219 587.915283203125 357.5981140136719 588.075439453125 357.4534301757812 L 588.9176025390625 356.6964416503906 L 587.8528442382812 356.5319519042969 C 587.665771484375 356.503662109375 587.5040893554688 356.3901672363281 587.4134521484375 356.224365234375 L 586.8704223632812 355.2291564941406 L 586.327392578125 356.224365234375 C 586.2381591796875 356.3901672363281 586.0751953125 356.503662109375 585.8878784179688 356.5319519042969 L 584.8233642578125 356.6964416503906 Z">
					</path>
				</svg>
				<svg class="Path_662" viewBox="582.867 353.362 8.007 7.471">
					<path fill="rgba(255,255,255,1)" id="Path_662" d="M 584.7239990234375 360.8319702148438 C 584.5908203125 360.8319702148438 584.458984375 360.7893371582031 584.349853515625 360.7028503417969 C 584.1669311523438 360.5581970214844 584.083251953125 360.320068359375 584.1356811523438 360.0932006835938 L 584.5908203125 358.1141967773438 L 583.0667114257812 356.7417602539062 C 582.893798828125 356.5858764648438 582.8258056640625 356.3434753417969 582.8924560546875 356.1194763183594 C 582.9590454101562 355.8968200683594 583.1489868164062 355.7309265136719 583.3787231445312 355.695556640625 L 585.4102172851562 355.3836669921875 L 586.3401489257812 353.6781616210938 C 586.4465942382812 353.4839782714844 586.650634765625 353.3619995117188 586.8704223632812 353.3619995117188 C 587.0917358398438 353.3619995117188 587.2957763671875 353.4839782714844 587.4020385742188 353.6781616210938 L 588.33203125 355.3836669921875 L 590.3621215820312 355.695556640625 C 590.5933837890625 355.7309265136719 590.7833251953125 355.8968200683594 590.8485717773438 356.1194763183594 C 590.9165649414062 356.3434753417969 590.8485717773438 356.5858764648438 590.6742553710938 356.7417602539062 L 589.1458129882812 358.116943359375 L 589.5753784179688 360.1002807617188 C 589.625 360.3285827636719 589.53857421875 360.5638732910156 589.3541870117188 360.7070617675781 C 589.1685791015625 360.8489379882812 588.9190673828125 360.8729553222656 588.7105102539062 360.7666625976562 L 586.8690185546875 359.8309326171875 L 584.9947509765625 360.7694702148438 C 584.9097290039062 360.8121032714844 584.8161010742188 360.8319702148438 584.7239990234375 360.8319702148438 M 584.8233642578125 356.6964416503906 L 585.6653442382812 357.4534301757812 C 585.828369140625 357.6009216308594 585.8993530273438 357.8249206542969 585.8496704101562 358.0390319824219 L 585.6015625 359.1136779785156 L 586.5996704101562 358.6145629882812 C 586.7726440429688 358.528076171875 586.973876953125 358.5295715332031 587.1439819335938 358.6160278320312 L 588.1250610351562 359.1136779785156 L 587.8897094726562 358.030517578125 C 587.8444213867188 357.8193054199219 587.915283203125 357.5981140136719 588.075439453125 357.4534301757812 L 588.9176025390625 356.6964416503906 L 587.8528442382812 356.5319519042969 C 587.665771484375 356.503662109375 587.5040893554688 356.3901672363281 587.4134521484375 356.224365234375 L 586.8704223632812 355.2291564941406 L 586.327392578125 356.224365234375 C 586.2381591796875 356.3901672363281 586.0751953125 356.503662109375 585.8878784179688 356.5319519042969 L 584.8233642578125 356.6964416503906 Z">
					</path>
				</svg>
				<svg class="Path_663" viewBox="588.576 343.918 16.334 10.125">
					<path fill="rgba(255,255,255,1)" id="Path_663" d="M 592.5014038085938 354.0431518554688 C 592.2108154296875 354.0431518554688 591.9244384765625 353.9127807617188 591.734619140625 353.6660766601562 L 588.777099609375 349.8212280273438 C 588.4511108398438 349.3988647460938 588.530517578125 348.7905883789062 588.954345703125 348.4659423828125 C 589.3767700195312 348.139892578125 589.9849853515625 348.2192993164062 590.3097534179688 348.6417236328125 L 592.6971435546875 351.7450561523438 L 603.3807983398438 344.099365234375 C 603.8146362304688 343.7875366210938 604.4185180664062 343.88818359375 604.72900390625 344.3219604492188 C 605.0409545898438 344.7572021484375 604.9403076171875 345.3597412109375 604.5064697265625 345.6716918945312 L 593.0628662109375 353.8631591796875 C 592.8927612304688 353.983642578125 592.6971435546875 354.0431518554688 592.5014038085938 354.0431518554688">
					</path>
				</svg>
				<svg class="Path_664" viewBox="588.576 343.918 16.334 10.125">
					<path fill="rgba(255,255,255,1)" id="Path_664" d="M 592.5014038085938 354.0431518554688 C 592.2108154296875 354.0431518554688 591.9244384765625 353.9127807617188 591.734619140625 353.6660766601562 L 588.777099609375 349.8212280273438 C 588.4511108398438 349.3988647460938 588.530517578125 348.7905883789062 588.954345703125 348.4659423828125 C 589.3767700195312 348.139892578125 589.9849853515625 348.2192993164062 590.3097534179688 348.6417236328125 L 592.6971435546875 351.7450561523438 L 603.3807983398438 344.099365234375 C 603.8146362304688 343.7875366210938 604.4185180664062 343.88818359375 604.72900390625 344.3219604492188 C 605.0409545898438 344.7572021484375 604.9403076171875 345.3597412109375 604.5064697265625 345.6716918945312 L 593.0628662109375 353.8631591796875 C 592.8927612304688 353.983642578125 592.6971435546875 354.0431518554688 592.5014038085938 354.0431518554688">
					</path>
				</svg>
				<svg class="Polygon_64" viewBox="0 0 3.021 4.909">
					<linearGradient id="LinearGradientFill13" spreadMethod="pad" x1="0.5" x2="0.5" y1="0" y2="1.815">
						<stop offset="0" stop-color="#ff9795" stop-opacity="1"></stop>
						<stop offset="1" stop-color="#fcc384" stop-opacity="1"></stop>
					</linearGradient>
					<path fill="url(#LinearGradientFill13)" id="Polygon_64" d="M 1.51058566570282 0 L 3.021171569824219 4.909405708312988 L 0 4.909405708312988 Z">
					</path>
				</svg>
				<svg class="Polygon_65" viewBox="0 0 3.021 4.909">
					<linearGradient id="LinearGradientFill14" spreadMethod="pad" x1="0.5" x2="0.5" y1="0" y2="1.815">
						<stop offset="0" stop-color="#ff9795" stop-opacity="1"></stop>
						<stop offset="1" stop-color="#fcc384" stop-opacity="1"></stop>
					</linearGradient>
					<path fill="url(#LinearGradientFill14)" id="Polygon_65" d="M 1.51058566570282 0 L 3.021171569824219 4.909405708312988 L 0 4.909405708312988 Z">
					</path>
				</svg>
				<svg class="Polygon_66" viewBox="0 0 3.021 5.287">
					<linearGradient id="LinearGradientFill15" spreadMethod="pad" x1="0.5" x2="0.5" y1="0" y2="1">
						<stop offset="0" stop-color="#ed5351" stop-opacity="1"></stop>
						<stop offset="1" stop-color="#ef9532" stop-opacity="1"></stop>
					</linearGradient>
					<path fill="url(#LinearGradientFill15)" id="Polygon_66" d="M 1.510584473609924 0 L 3.021169185638428 5.287050724029541 L 0 5.287050724029541 Z">
					</path>
				</svg>
				<svg class="Polygon_67" viewBox="0 0 3.021 5.287">
					<linearGradient id="LinearGradientFill16" spreadMethod="pad" x1="0.5" x2="0.5" y1="0" y2="1">
						<stop offset="0" stop-color="#ed5351" stop-opacity="1"></stop>
						<stop offset="1" stop-color="#ef9532" stop-opacity="1"></stop>
					</linearGradient>
					<path fill="url(#LinearGradientFill16)" id="Polygon_67" d="M 1.510584473609924 0 L 3.021169185638428 5.287050724029541 L 0 5.287050724029541 Z">
					</path>
				</svg>
</svg>